%FSTAX24Y24*%
%MOIN*%
%SFA1B1*%

%IPPOS*%
%ADD50C,0.010000*%
%ADD92C,0.019700*%
%ADD95C,0.007900*%
%ADD177C,0.003900*%
%LNee4951_bpm_reva-1*%
%LPD*%
G54D50*
X03437Y018898D02*
D01*
X034368Y018947*
X034363Y018996*
X034354Y019045*
X034342Y019093*
X034327Y01914*
X034308Y019186*
X034287Y01923*
X034262Y019273*
X034234Y019314*
X034204Y019353*
X034171Y01939*
X034135Y019424*
X034097Y019456*
X034057Y019485*
X034015Y019512*
X033971Y019535*
X033926Y019555*
X03388Y019572*
X033832Y019585*
X033784Y019596*
X033735Y019603*
X033685Y019606*
X033636*
X033586Y019603*
X033537Y019596*
X033489Y019585*
X033441Y019572*
X033395Y019555*
X03335Y019535*
X033306Y019512*
X033264Y019485*
X033224Y019456*
X033186Y019424*
X03315Y01939*
X033117Y019353*
X033087Y019314*
X033059Y019273*
X033034Y01923*
X033013Y019186*
X032994Y01914*
X032979Y019093*
X032967Y019045*
X032958Y018996*
X032953Y018947*
X032952Y018898*
X032953Y018848*
X032958Y018799*
X032967Y01875*
X032979Y018702*
X032994Y018655*
X033013Y018609*
X033034Y018565*
X033059Y018522*
X033087Y018481*
X033117Y018442*
X03315Y018405*
X033186Y018371*
X033224Y018339*
X033264Y01831*
X033306Y018283*
X03335Y01826*
X033395Y01824*
X033441Y018223*
X033489Y01821*
X033537Y018199*
X033586Y018192*
X033636Y018189*
X033685*
X033735Y018192*
X033784Y018199*
X033832Y01821*
X03388Y018223*
X033926Y01824*
X033971Y01826*
X034015Y018283*
X034057Y01831*
X034097Y018339*
X034135Y018371*
X034171Y018405*
X034204Y018442*
X034234Y018481*
X034262Y018522*
X034287Y018565*
X034308Y018609*
X034327Y018655*
X034342Y018702*
X034354Y01875*
X034363Y018799*
X034368Y018848*
X03437Y018898*
X022953D02*
D01*
X022951Y018947*
X022946Y018996*
X022937Y019045*
X022925Y019093*
X02291Y01914*
X022891Y019186*
X02287Y01923*
X022845Y019273*
X022817Y019314*
X022787Y019353*
X022754Y01939*
X022718Y019424*
X02268Y019456*
X02264Y019485*
X022598Y019512*
X022554Y019535*
X022509Y019555*
X022463Y019572*
X022415Y019585*
X022367Y019596*
X022318Y019603*
X022268Y019606*
X022219*
X022169Y019603*
X02212Y019596*
X022072Y019585*
X022024Y019572*
X021978Y019555*
X021933Y019535*
X021889Y019512*
X021847Y019485*
X021807Y019456*
X021769Y019424*
X021733Y01939*
X0217Y019353*
X02167Y019314*
X021642Y019273*
X021617Y01923*
X021596Y019186*
X021577Y01914*
X021562Y019093*
X02155Y019045*
X021541Y018996*
X021536Y018947*
X021535Y018898*
X021536Y018848*
X021541Y018799*
X02155Y01875*
X021562Y018702*
X021577Y018655*
X021596Y018609*
X021617Y018565*
X021642Y018522*
X02167Y018481*
X0217Y018442*
X021733Y018405*
X021769Y018371*
X021807Y018339*
X021847Y01831*
X021889Y018283*
X021933Y01826*
X021978Y01824*
X022024Y018223*
X022072Y01821*
X02212Y018199*
X022169Y018192*
X022219Y018189*
X022268*
X022318Y018192*
X022367Y018199*
X022415Y01821*
X022463Y018223*
X022509Y01824*
X022554Y01826*
X022598Y018283*
X02264Y01831*
X02268Y018339*
X022718Y018371*
X022754Y018405*
X022787Y018442*
X022817Y018481*
X022845Y018522*
X02287Y018565*
X022891Y018609*
X02291Y018655*
X022925Y018702*
X022937Y01875*
X022946Y018799*
X022951Y018848*
X022953Y018898*
Y007283D02*
D01*
X022951Y007332*
X022946Y007381*
X022937Y00743*
X022925Y007478*
X02291Y007525*
X022891Y007571*
X02287Y007615*
X022845Y007658*
X022817Y007699*
X022787Y007738*
X022754Y007775*
X022718Y007809*
X02268Y007841*
X02264Y00787*
X022598Y007897*
X022554Y00792*
X022509Y00794*
X022463Y007957*
X022415Y00797*
X022367Y007981*
X022318Y007988*
X022268Y007991*
X022219*
X022169Y007988*
X02212Y007981*
X022072Y00797*
X022024Y007957*
X021978Y00794*
X021933Y00792*
X021889Y007897*
X021847Y00787*
X021807Y007841*
X021769Y007809*
X021733Y007775*
X0217Y007738*
X02167Y007699*
X021642Y007658*
X021617Y007615*
X021596Y007571*
X021577Y007525*
X021562Y007478*
X02155Y00743*
X021541Y007381*
X021536Y007332*
X021535Y007283*
X021536Y007233*
X021541Y007184*
X02155Y007135*
X021562Y007087*
X021577Y00704*
X021596Y006994*
X021617Y00695*
X021642Y006907*
X02167Y006866*
X0217Y006827*
X021733Y00679*
X021769Y006756*
X021807Y006724*
X021847Y006695*
X021889Y006668*
X021933Y006645*
X021978Y006625*
X022024Y006608*
X022072Y006595*
X02212Y006584*
X022169Y006577*
X022219Y006574*
X022268*
X022318Y006577*
X022367Y006584*
X022415Y006595*
X022463Y006608*
X022509Y006625*
X022554Y006645*
X022598Y006668*
X02264Y006695*
X02268Y006724*
X022718Y006756*
X022754Y00679*
X022787Y006827*
X022817Y006866*
X022845Y006907*
X02287Y00695*
X022891Y006994*
X02291Y00704*
X022925Y007087*
X022937Y007135*
X022946Y007184*
X022951Y007233*
X022953Y007283*
X03437D02*
D01*
X034368Y007332*
X034363Y007381*
X034354Y00743*
X034342Y007478*
X034327Y007525*
X034308Y007571*
X034287Y007615*
X034262Y007658*
X034234Y007699*
X034204Y007738*
X034171Y007775*
X034135Y007809*
X034097Y007841*
X034057Y00787*
X034015Y007897*
X033971Y00792*
X033926Y00794*
X03388Y007957*
X033832Y00797*
X033784Y007981*
X033735Y007988*
X033685Y007991*
X033636*
X033586Y007988*
X033537Y007981*
X033489Y00797*
X033441Y007957*
X033395Y00794*
X03335Y00792*
X033306Y007897*
X033264Y00787*
X033224Y007841*
X033186Y007809*
X03315Y007775*
X033117Y007738*
X033087Y007699*
X033059Y007658*
X033034Y007615*
X033013Y007571*
X032994Y007525*
X032979Y007478*
X032967Y00743*
X032958Y007381*
X032953Y007332*
X032952Y007283*
X032953Y007233*
X032958Y007184*
X032967Y007135*
X032979Y007087*
X032994Y00704*
X033013Y006994*
X033034Y00695*
X033059Y006907*
X033087Y006866*
X033117Y006827*
X03315Y00679*
X033186Y006756*
X033224Y006724*
X033264Y006695*
X033306Y006668*
X03335Y006645*
X033395Y006625*
X033441Y006608*
X033489Y006595*
X033537Y006584*
X033586Y006577*
X033636Y006574*
X033685*
X033735Y006577*
X033784Y006584*
X033832Y006595*
X03388Y006608*
X033926Y006625*
X033971Y006645*
X034015Y006668*
X034057Y006695*
X034097Y006724*
X034135Y006756*
X034171Y00679*
X034204Y006827*
X034234Y006866*
X034262Y006907*
X034287Y00695*
X034308Y006994*
X034327Y00704*
X034342Y007087*
X034354Y007135*
X034363Y007184*
X034368Y007233*
X03437Y007283*
X023474Y021191D02*
X024656D01*
Y023159*
X023474D02*
X024656D01*
X023474Y021191D02*
Y023159D01*
X028199Y020443D02*
X02938D01*
Y022411*
X028199D02*
X02938D01*
X028199Y020443D02*
Y022411D01*
X025571Y024075D02*
X026752D01*
X025571Y022106D02*
Y024075D01*
Y022106D02*
X026752D01*
Y024075*
X018199Y008524D02*
Y009783D01*
X020167*
Y008524D02*
Y009783D01*
X018199Y008524D02*
X020167D01*
X021919Y021171D02*
X0231D01*
X021919D02*
Y02314D01*
X0231*
Y021171D02*
Y02314D01*
X020528Y006823D02*
Y007823D01*
X018528D02*
X020528D01*
X018528Y006823D02*
Y007823D01*
Y006823D02*
X020528D01*
X02824Y010886D02*
Y013465D01*
X025382D02*
X02824D01*
X025382Y010886D02*
Y013465D01*
Y010886D02*
X02824D01*
X030236Y009163D02*
X032795D01*
Y011693*
X030236D02*
X032795D01*
X030236D02*
Y009163D01*
X028898Y009527D02*
Y007558D01*
X026467Y009527D02*
X028898D01*
X026467Y007558D02*
Y009527D01*
Y007558D02*
X028898D01*
X029291Y013071D02*
X034016D01*
X029291D02*
Y017795D01*
X034016*
Y013071*
X018878Y021457D02*
Y022244D01*
X019705*
Y021457D02*
Y022244D01*
X018878Y021457D02*
X019705D01*
X014429Y020906D02*
Y022874D01*
X012461D02*
X014429D01*
X012461Y020906D02*
Y022874D01*
Y020906D02*
X014429D01*
X011811Y011339D02*
Y017638D01*
Y011339D02*
X01811D01*
Y017638*
X011811D02*
X01811D01*
X027697Y023839D02*
X028996D01*
Y025148*
X027697Y023839D02*
Y025138D01*
Y025148*
X028996*
X027175Y024114D02*
Y021614D01*
X025945Y024114D02*
X027175D01*
X025945Y021614D02*
Y024114D01*
Y021614D02*
X027175D01*
X017815Y019803D02*
X018642D01*
X017815Y019016D02*
Y019803D01*
Y019016D02*
X018642D01*
Y019803*
X016644Y022431D02*
X021073D01*
X016644D02*
Y025187D01*
X021073*
Y022431D02*
Y025187D01*
X020748Y012402D02*
X022717D01*
X020748Y01122D02*
Y012402D01*
Y01122D02*
X022717D01*
Y012402*
X020354Y017283D02*
X022323D01*
X020354Y016102D02*
Y017283D01*
Y016102D02*
X022323D01*
Y017283*
X023898Y014341D02*
X025866D01*
X023898D02*
Y016762D01*
X025866*
D01*
Y014338D02*
Y016762D01*
X02874Y007559D02*
Y009134D01*
Y007559D02*
X030315D01*
Y009134*
X02874D02*
X030315D01*
X029724Y013474D02*
X031772D01*
X029724D02*
Y014547D01*
X031772*
Y013474D02*
Y014547D01*
X031722Y01562D02*
Y017667D01*
X03065Y01562D02*
X031722D01*
X03065D02*
Y017667D01*
X031722*
X030148Y01562D02*
Y017667D01*
X029075Y01562D02*
X030148D01*
X029075D02*
Y017667D01*
X030148*
X018031Y007106D02*
Y008484D01*
X015669D02*
X018031D01*
X015669Y007106D02*
Y008484D01*
Y007106D02*
X018031D01*
X030128Y023189D02*
X034459D01*
X030128D02*
Y02563D01*
X034459Y023189D02*
Y02563D01*
X030128D02*
X034459D01*
X030128Y020472D02*
X034459D01*
X030128D02*
Y022913D01*
X034459Y020472D02*
Y022913D01*
X030128D02*
X034459D01*
X015669Y010148D02*
X018032D01*
Y00877D02*
Y010148D01*
X015669Y00877D02*
X018032D01*
X015669D02*
Y010148D01*
X014892Y00651D02*
Y00786D01*
X012392Y00651D02*
X014892D01*
X012392D02*
Y00786D01*
X014892*
X021526Y013081D02*
Y014262D01*
X020266D02*
X021526D01*
X020266Y013081D02*
Y014262D01*
Y013081D02*
X021526D01*
X012303Y009783D02*
Y010374D01*
X013563*
Y009783D02*
Y010374D01*
X012303Y009783D02*
X013563D01*
X013524Y008514D02*
Y011033D01*
X011053Y008514D02*
X013524D01*
X011053D02*
Y011033D01*
X013524*
X015886Y017785D02*
Y020285D01*
X01372Y017785D02*
X015886D01*
X01372D02*
Y020285D01*
X015886*
X022826Y009596D02*
Y010423D01*
X022038Y009596D02*
X022826D01*
X022038D02*
Y010423D01*
X022826*
X028453Y020079D02*
X031953D01*
X028453Y019398D02*
Y020079D01*
Y019398D02*
X031953D01*
Y018398D02*
Y019398D01*
X023953Y018398D02*
Y019398D01*
Y018398D02*
D01*
X020953Y020079D02*
X023953D01*
X027453*
Y019398D02*
Y020079D01*
X023953Y019398D02*
X027453D01*
X023953Y018398D02*
X031953D01*
Y020079D02*
X034953D01*
X020953Y006102D02*
Y020079D01*
Y006102D02*
X034953D01*
Y020079*
X015128Y0225D02*
Y026142D01*
X01122Y0225D02*
X015128D01*
X01122Y026142D02*
X015128D01*
X01122Y0225D02*
Y026142D01*
G54D92*
X01187Y007047D02*
D01*
X011867Y007108*
X011861Y00717*
X01185Y007231*
X011835Y007291*
X011816Y00735*
X011793Y007407*
X011766Y007462*
X011735Y007516*
X0117Y007567*
X011662Y007616*
X011621Y007662*
X011576Y007705*
X011529Y007745*
X011479Y007781*
X011427Y007814*
X011372Y007843*
X011315Y007868*
X011257Y007889*
X011198Y007906*
X011137Y007919*
X011076Y007928*
X011014Y007932*
X010953*
X010891Y007928*
X01083Y007919*
X010769Y007906*
X01071Y007889*
X010652Y007868*
X010595Y007843*
X010541Y007814*
X010488Y007781*
X010438Y007745*
X010391Y007705*
X010346Y007662*
X010305Y007616*
X010267Y007567*
X010232Y007516*
X010201Y007462*
X010174Y007407*
X010151Y00735*
X010132Y007291*
X010117Y007231*
X010106Y00717*
X0101Y007108*
X010098Y007047*
X0101Y006985*
X010106Y006923*
X010117Y006862*
X010132Y006802*
X010151Y006743*
X010174Y006686*
X010201Y006631*
X010232Y006577*
X010267Y006526*
X010305Y006477*
X010346Y006431*
X010391Y006388*
X010438Y006348*
X010488Y006312*
X010541Y006279*
X010595Y00625*
X010652Y006225*
X01071Y006204*
X010769Y006187*
X01083Y006174*
X010891Y006165*
X010953Y006161*
X011014*
X011076Y006165*
X011137Y006174*
X011198Y006187*
X011257Y006204*
X011315Y006225*
X011372Y00625*
X011427Y006279*
X011479Y006312*
X011529Y006348*
X011576Y006388*
X011621Y006431*
X011662Y006477*
X0117Y006526*
X011735Y006577*
X011766Y006631*
X011793Y006686*
X011816Y006743*
X011835Y006802*
X01185Y006862*
X011861Y006923*
X011867Y006985*
X01187Y007047*
Y01937D02*
D01*
X011867Y019431*
X011861Y019493*
X01185Y019554*
X011835Y019614*
X011816Y019673*
X011793Y01973*
X011766Y019785*
X011735Y019839*
X0117Y01989*
X011662Y019939*
X011621Y019985*
X011576Y020028*
X011529Y020068*
X011479Y020104*
X011427Y020137*
X011372Y020166*
X011315Y020191*
X011257Y020212*
X011198Y020229*
X011137Y020242*
X011076Y020251*
X011014Y020255*
X010953*
X010891Y020251*
X01083Y020242*
X010769Y020229*
X01071Y020212*
X010652Y020191*
X010595Y020166*
X010541Y020137*
X010488Y020104*
X010438Y020068*
X010391Y020028*
X010346Y019985*
X010305Y019939*
X010267Y01989*
X010232Y019839*
X010201Y019785*
X010174Y01973*
X010151Y019673*
X010132Y019614*
X010117Y019554*
X010106Y019493*
X0101Y019431*
X010098Y01937*
X0101Y019308*
X010106Y019246*
X010117Y019185*
X010132Y019125*
X010151Y019066*
X010174Y019009*
X010201Y018954*
X010232Y0189*
X010267Y018849*
X010305Y0188*
X010346Y018754*
X010391Y018711*
X010438Y018671*
X010488Y018635*
X010541Y018602*
X010595Y018573*
X010652Y018548*
X01071Y018527*
X010769Y01851*
X01083Y018497*
X010891Y018488*
X010953Y018484*
X011014*
X011076Y018488*
X011137Y018497*
X011198Y01851*
X011257Y018527*
X011315Y018548*
X011372Y018573*
X011427Y018602*
X011479Y018635*
X011529Y018671*
X011576Y018711*
X011621Y018754*
X011662Y0188*
X0117Y018849*
X011735Y0189*
X011766Y018954*
X011793Y019009*
X011816Y019066*
X011835Y019125*
X01185Y019185*
X011861Y019246*
X011867Y019308*
X01187Y01937*
G54D95*
X019222Y018652D02*
X019852D01*
X019222Y017864D02*
Y018652D01*
Y017864D02*
X019852D01*
Y018652*
X023788Y024382D02*
X024969D01*
X023788D02*
Y024934D01*
X024969*
Y024382D02*
Y024934D01*
X02Y017756D02*
X02063D01*
X02D02*
Y018543D01*
X02063*
Y017756D02*
Y018543D01*
X023463Y016887D02*
X024644D01*
X023463D02*
Y016336D01*
X024644*
Y016887D02*
Y016336D01*
X027399Y016616D02*
Y017797D01*
X026848D02*
X027399D01*
X026848Y016616D02*
Y017797D01*
Y016616D02*
X027399D01*
X022768Y025087D02*
X023319D01*
Y023906D02*
Y025087D01*
X022768Y023906D02*
X023319D01*
X022768D02*
Y025087D01*
X029107Y022016D02*
Y023197D01*
Y022016D02*
X029658D01*
Y023197*
X029107D02*
X029658D01*
X026655Y016415D02*
X027836D01*
Y015864D02*
Y016415D01*
X026655Y015864D02*
X027836D01*
X026655D02*
Y016415D01*
X03319Y009683D02*
X034372D01*
Y009131D02*
Y009683D01*
X03319Y009131D02*
X034372D01*
X03319D02*
Y009683D01*
X011222Y012667D02*
Y013218D01*
Y012667D02*
X012403D01*
Y013218D02*
Y012667D01*
X011222Y013218D02*
X012403D01*
X01622Y011724D02*
X017008D01*
X01622D02*
Y012354D01*
X017008*
Y011724D02*
Y012354D01*
X016191Y016171D02*
X016978D01*
Y015541D02*
Y016171D01*
X016191Y015541D02*
X016978D01*
X016191D02*
Y016171D01*
Y013888D02*
Y014518D01*
Y013888D02*
X016978D01*
Y014518*
X016191D02*
X016978D01*
G54D177*
X029113Y02279D02*
X029572Y02325D01*
X02882Y024001D02*
X029572Y02325D01*
X028361Y023542D02*
X02882Y024001D01*
X028361Y023542D02*
X029113Y02279D01*
X028452Y023451D02*
X028911Y023911D01*
X02841Y023493D02*
X028452Y023451D01*
X02841Y023493D02*
X028869Y023952D01*
X026348Y01562D02*
X026998D01*
Y014557D02*
Y01562D01*
X026348Y014557D02*
X026998D01*
X026348Y01562D02*
Y014557D01*
Y014685D02*
X026998D01*
X026348Y014626D02*
Y014685D01*
Y014626D02*
X026998D01*
X027667Y015492D02*
X028317D01*
Y014429D02*
Y015492D01*
X027667Y014429D02*
X028317D01*
X027667Y015492D02*
Y014429D01*
Y014557D02*
X028317D01*
X027667Y014498D02*
Y014557D01*
Y014498D02*
X028317D01*
X021762Y012146D02*
Y012795D01*
X021703Y012146D02*
X021762D01*
X021703D02*
Y012795D01*
X020768Y012146D02*
X021831D01*
Y012795*
X020768D02*
X021831D01*
X020768Y012146D02*
Y012795D01*
X0281Y013602D02*
X02875D01*
Y014665D02*
Y013602D01*
X0281Y014665D02*
X02875D01*
X0281D02*
Y013602D01*
Y014537D02*
X02875D01*
X0281D02*
Y014596D01*
X02875*
X027037Y013543D02*
X027687D01*
Y014606*
X027037D02*
X027687D01*
X027037D02*
Y013543D01*
Y014478D02*
X027687D01*
X027037D02*
Y014537D01*
X027687*
M02*