%FSTAX24Y24*%
%MOIN*%
%SFA1B1*%

%IPPOS*%
%ADD50C,0.010000*%
%ADD92C,0.019700*%
%ADD177C,0.003900*%
%ADD178C,0.002000*%
%LNee4951_bpm_reva-1*%
%LPD*%
G54D50*
X022994Y018898D02*
D01*
X022992Y01895*
X022986Y019002*
X022977Y019053*
X022964Y019104*
X022948Y019154*
X022929Y019203*
X022906Y01925*
X02288Y019295*
X02285Y019338*
X022818Y01938*
X022783Y019418*
X022745Y019455*
X022705Y019489*
X022663Y019519*
X022619Y019547*
X022572Y019572*
X022524Y019593*
X022475Y019611*
X022425Y019625*
X022374Y019636*
X022322Y019643*
X02227Y019647*
X022217*
X022165Y019643*
X022113Y019636*
X022062Y019625*
X022012Y019611*
X021963Y019593*
X021915Y019572*
X021869Y019547*
X021824Y019519*
X021782Y019489*
X021742Y019455*
X021704Y019418*
X021669Y01938*
X021637Y019338*
X021607Y019295*
X021581Y01925*
X021558Y019203*
X021539Y019154*
X021523Y019104*
X02151Y019053*
X021501Y019002*
X021495Y01895*
X021494Y018898*
X021495Y018845*
X021501Y018793*
X02151Y018742*
X021523Y018691*
X021539Y018641*
X021558Y018592*
X021581Y018545*
X021607Y0185*
X021637Y018457*
X021669Y018415*
X021704Y018377*
X021742Y01834*
X021782Y018306*
X021824Y018276*
X021869Y018248*
X021915Y018223*
X021963Y018202*
X022012Y018184*
X022062Y01817*
X022113Y018159*
X022165Y018152*
X022217Y018148*
X02227*
X022322Y018152*
X022374Y018159*
X022425Y01817*
X022475Y018184*
X022524Y018202*
X022572Y018223*
X022619Y018248*
X022663Y018276*
X022705Y018306*
X022745Y01834*
X022783Y018377*
X022818Y018415*
X02285Y018457*
X02288Y0185*
X022906Y018545*
X022929Y018592*
X022948Y018641*
X022964Y018691*
X022977Y018742*
X022986Y018793*
X022992Y018845*
X022994Y018898*
Y007283D02*
D01*
X022992Y007335*
X022986Y007387*
X022977Y007438*
X022964Y007489*
X022948Y007539*
X022929Y007588*
X022906Y007635*
X02288Y00768*
X02285Y007723*
X022818Y007765*
X022783Y007803*
X022745Y00784*
X022705Y007874*
X022663Y007904*
X022619Y007932*
X022572Y007957*
X022524Y007978*
X022475Y007996*
X022425Y00801*
X022374Y008021*
X022322Y008028*
X02227Y008032*
X022217*
X022165Y008028*
X022113Y008021*
X022062Y00801*
X022012Y007996*
X021963Y007978*
X021915Y007957*
X021869Y007932*
X021824Y007904*
X021782Y007874*
X021742Y00784*
X021704Y007803*
X021669Y007765*
X021637Y007723*
X021607Y00768*
X021581Y007635*
X021558Y007588*
X021539Y007539*
X021523Y007489*
X02151Y007438*
X021501Y007387*
X021495Y007335*
X021494Y007283*
X021495Y00723*
X021501Y007178*
X02151Y007127*
X021523Y007076*
X021539Y007026*
X021558Y006977*
X021581Y00693*
X021607Y006885*
X021637Y006842*
X021669Y0068*
X021704Y006762*
X021742Y006725*
X021782Y006691*
X021824Y006661*
X021869Y006633*
X021915Y006608*
X021963Y006587*
X022012Y006569*
X022062Y006555*
X022113Y006544*
X022165Y006537*
X022217Y006533*
X02227*
X022322Y006537*
X022374Y006544*
X022425Y006555*
X022475Y006569*
X022524Y006587*
X022572Y006608*
X022619Y006633*
X022663Y006661*
X022705Y006691*
X022745Y006725*
X022783Y006762*
X022818Y0068*
X02285Y006842*
X02288Y006885*
X022906Y00693*
X022929Y006977*
X022948Y007026*
X022964Y007076*
X022977Y007127*
X022986Y007178*
X022992Y00723*
X022994Y007283*
X034411Y018898D02*
D01*
X034409Y01895*
X034403Y019002*
X034394Y019053*
X034381Y019104*
X034365Y019154*
X034346Y019203*
X034323Y01925*
X034297Y019295*
X034267Y019338*
X034235Y01938*
X0342Y019418*
X034162Y019455*
X034122Y019489*
X03408Y019519*
X034036Y019547*
X033989Y019572*
X033941Y019593*
X033892Y019611*
X033842Y019625*
X033791Y019636*
X033739Y019643*
X033687Y019647*
X033634*
X033582Y019643*
X03353Y019636*
X033479Y019625*
X033429Y019611*
X03338Y019593*
X033332Y019572*
X033286Y019547*
X033241Y019519*
X033199Y019489*
X033159Y019455*
X033121Y019418*
X033086Y01938*
X033054Y019338*
X033024Y019295*
X032998Y01925*
X032975Y019203*
X032956Y019154*
X03294Y019104*
X032927Y019053*
X032918Y019002*
X032912Y01895*
X032911Y018898*
X032912Y018845*
X032918Y018793*
X032927Y018742*
X03294Y018691*
X032956Y018641*
X032975Y018592*
X032998Y018545*
X033024Y0185*
X033054Y018457*
X033086Y018415*
X033121Y018377*
X033159Y01834*
X033199Y018306*
X033241Y018276*
X033286Y018248*
X033332Y018223*
X03338Y018202*
X033429Y018184*
X033479Y01817*
X03353Y018159*
X033582Y018152*
X033634Y018148*
X033687*
X033739Y018152*
X033791Y018159*
X033842Y01817*
X033892Y018184*
X033941Y018202*
X033989Y018223*
X034036Y018248*
X03408Y018276*
X034122Y018306*
X034162Y01834*
X0342Y018377*
X034235Y018415*
X034267Y018457*
X034297Y0185*
X034323Y018545*
X034346Y018592*
X034365Y018641*
X034381Y018691*
X034394Y018742*
X034403Y018793*
X034409Y018845*
X034411Y018898*
Y007283D02*
D01*
X034409Y007335*
X034403Y007387*
X034394Y007438*
X034381Y007489*
X034365Y007539*
X034346Y007588*
X034323Y007635*
X034297Y00768*
X034267Y007723*
X034235Y007765*
X0342Y007803*
X034162Y00784*
X034122Y007874*
X03408Y007904*
X034036Y007932*
X033989Y007957*
X033941Y007978*
X033892Y007996*
X033842Y00801*
X033791Y008021*
X033739Y008028*
X033687Y008032*
X033634*
X033582Y008028*
X03353Y008021*
X033479Y00801*
X033429Y007996*
X03338Y007978*
X033332Y007957*
X033286Y007932*
X033241Y007904*
X033199Y007874*
X033159Y00784*
X033121Y007803*
X033086Y007765*
X033054Y007723*
X033024Y00768*
X032998Y007635*
X032975Y007588*
X032956Y007539*
X03294Y007489*
X032927Y007438*
X032918Y007387*
X032912Y007335*
X032911Y007283*
X032912Y00723*
X032918Y007178*
X032927Y007127*
X03294Y007076*
X032956Y007026*
X032975Y006977*
X032998Y00693*
X033024Y006885*
X033054Y006842*
X033086Y0068*
X033121Y006762*
X033159Y006725*
X033199Y006691*
X033241Y006661*
X033286Y006633*
X033332Y006608*
X03338Y006587*
X033429Y006569*
X033479Y006555*
X03353Y006544*
X033582Y006537*
X033634Y006533*
X033687*
X033739Y006537*
X033791Y006544*
X033842Y006555*
X033892Y006569*
X033941Y006587*
X033989Y006608*
X034036Y006633*
X03408Y006661*
X034122Y006691*
X034162Y006725*
X0342Y006762*
X034235Y0068*
X034267Y006842*
X034297Y006885*
X034323Y00693*
X034346Y006977*
X034365Y007026*
X034381Y007076*
X034394Y007127*
X034403Y007178*
X034409Y00723*
X034411Y007283*
X023199Y020797D02*
X024961D01*
Y023553*
X023199D02*
X024961D01*
X023199Y020797D02*
Y023553D01*
X027923Y020049D02*
X029685D01*
Y022805*
X027923D02*
X029685D01*
X027923Y020049D02*
Y022805D01*
X025266Y024469D02*
X027028D01*
X025266Y021713D02*
Y024469D01*
Y021713D02*
X027028D01*
Y024469*
X017805Y008248D02*
Y010059D01*
X020561*
Y008248D02*
Y010059D01*
X017805Y008248D02*
X020561D01*
X021614Y020778D02*
X023376D01*
X021614D02*
Y023533D01*
X023376*
Y020778D02*
Y023533D01*
X020528Y006823D02*
Y007823D01*
X018528D02*
X020528D01*
X018528Y006823D02*
Y007823D01*
Y006823D02*
X020528D01*
X025089Y010886D02*
X028602D01*
Y013465*
X025089D02*
X028602D01*
X025089Y010886D02*
Y013465D01*
X029744Y012205D02*
X033287D01*
Y008661D02*
Y012205D01*
X029744Y008661D02*
X033287D01*
X029744D02*
Y012205D01*
X025807Y007165D02*
Y009921D01*
X029547*
Y007165D02*
Y009921D01*
X025807Y007165D02*
X029547D01*
X034304Y012933D02*
Y017933D01*
X029004D02*
X034304D01*
X029004Y012933D02*
Y017933D01*
Y012933D02*
X034304D01*
X018583Y021348D02*
Y022352D01*
X02*
Y021348D02*
Y022352D01*
X018583Y021348D02*
X02D01*
X012215Y020659D02*
X014675D01*
X012215D02*
Y02312D01*
X014675*
Y020659D02*
Y02312D01*
X011368Y018081D02*
X018553D01*
Y010896D02*
Y018081D01*
X011368Y010896D02*
X018553D01*
X011368D02*
Y018081D01*
X029193Y023425D02*
Y025531D01*
X0275Y023425D02*
X029193D01*
X0275D02*
Y025531D01*
X029193*
X027411Y020935D02*
Y024774D01*
X025719D02*
X027411D01*
X025719Y020935D02*
Y024774D01*
Y020935D02*
X027411D01*
X01752Y019911D02*
X018937D01*
X01752Y018907D02*
Y019911D01*
Y018907D02*
X018937D01*
Y019911*
X021496Y022234D02*
Y028465D01*
X016181D02*
X021496D01*
X016181Y022234D02*
Y028465D01*
Y022234D02*
X021496D01*
X023012Y010925D02*
Y012697D01*
X020453Y010925D02*
X023012D01*
X020453D02*
Y012697D01*
X023012*
X022618Y015807D02*
Y017579D01*
X020059Y015807D02*
X022618D01*
X020059D02*
Y017579D01*
X022618*
X023898Y014055D02*
Y017047D01*
X025866Y014055D02*
Y017047D01*
X023898D02*
X025866D01*
X024587Y015551D02*
X025177D01*
X024882Y015256D02*
Y015846D01*
X023898Y014055D02*
X025866D01*
X028346Y009528D02*
X030709D01*
X028346Y007165D02*
Y009528D01*
Y007165D02*
X030709D01*
Y009528*
X02938Y013228D02*
X032136D01*
X02938D02*
Y014803D01*
X029478*
X032136*
Y013228D02*
Y014803D01*
X031969Y015276D02*
Y018031D01*
X030394Y015276D02*
X031969D01*
X030394D02*
Y015374D01*
Y018031*
X031969*
X030394Y015276D02*
Y018031D01*
X028819Y015276D02*
X030394D01*
X028819D02*
Y015374D01*
Y018031*
X030394*
X018622Y007008D02*
Y008583D01*
X015079D02*
X018622D01*
X015079Y007008D02*
Y008583D01*
Y007008D02*
X018622D01*
X030128Y023189D02*
X034459D01*
Y02563*
X030128D02*
X034459D01*
X030128Y023189D02*
Y02563D01*
Y020472D02*
X034459D01*
Y022913*
X030128D02*
X034459D01*
X030128Y020472D02*
Y022913D01*
X015079Y010246D02*
X018622D01*
Y008671D02*
Y010246D01*
X015079Y008671D02*
X018622D01*
X015079D02*
Y010246D01*
X01Y027638D02*
Y029213D01*
Y028425D02*
X035D01*
Y027638D02*
Y029213D01*
X036457Y006063D02*
X038031D01*
X037244D02*
Y026063D01*
X036457D02*
X038031D01*
X012067Y006083D02*
X015217D01*
X012067D02*
Y008287D01*
X015217*
Y006083D02*
Y008287D01*
X019754Y012785D02*
Y014557D01*
Y012785D02*
X022018D01*
Y014557*
X019754D02*
X022018D01*
X012028Y009587D02*
Y010571D01*
X013839*
Y009587D02*
Y010571D01*
X012028Y009587D02*
X013839D01*
X01061Y00812D02*
X013957D01*
X01061D02*
Y011427D01*
X013957*
Y00812*
X013425Y020413D02*
X016181D01*
X013425Y017657D02*
Y020413D01*
Y017657D02*
X016181D01*
Y020413*
X022934Y009301D02*
Y010718D01*
X02193Y009301D02*
X022934D01*
X02193D02*
Y010718D01*
X022934*
X023953Y019398D02*
X031953D01*
X023953Y018398D02*
Y019398D01*
Y018398D02*
X031953D01*
Y019398*
X010728Y026535D02*
X01561D01*
Y021969D02*
Y026535D01*
X010728Y021969D02*
X01561D01*
X010728D02*
Y026535D01*
X038504Y015282D02*
Y014882D01*
X038104Y015282*
X038004*
X037904Y015182*
Y014982*
X038004Y014882*
X038504Y016082D02*
Y016281D01*
Y016181*
X038104*
Y016082*
X038504Y016581D02*
X038104D01*
Y016881*
X038204Y016981*
X038504*
X020361Y029134D02*
X019961D01*
X020361Y029534*
Y029634*
X020261Y029734*
X020061*
X019961Y029634*
X02056Y029134D02*
Y029234D01*
X02066*
Y029134*
X02056*
X02146Y029734D02*
X02106D01*
Y029434*
X02126Y029534*
X02136*
X02146Y029434*
Y029234*
X02136Y029134*
X02116*
X02106Y029234*
X02226Y029134D02*
X02246D01*
X02236*
Y029534*
X02226*
X02276Y029134D02*
Y029534D01*
X02306*
X02316Y029434*
Y029134*
G54D92*
X01187Y007047D02*
D01*
X011867Y007108*
X011861Y00717*
X01185Y007231*
X011835Y007291*
X011816Y00735*
X011793Y007407*
X011766Y007462*
X011735Y007516*
X0117Y007567*
X011662Y007616*
X011621Y007662*
X011576Y007705*
X011529Y007745*
X011479Y007781*
X011427Y007814*
X011372Y007843*
X011315Y007868*
X011257Y007889*
X011198Y007906*
X011137Y007919*
X011076Y007928*
X011014Y007932*
X010953*
X010891Y007928*
X01083Y007919*
X010769Y007906*
X01071Y007889*
X010652Y007868*
X010595Y007843*
X010541Y007814*
X010488Y007781*
X010438Y007745*
X010391Y007705*
X010346Y007662*
X010305Y007616*
X010267Y007567*
X010232Y007516*
X010201Y007462*
X010174Y007407*
X010151Y00735*
X010132Y007291*
X010117Y007231*
X010106Y00717*
X0101Y007108*
X010098Y007047*
X0101Y006985*
X010106Y006923*
X010117Y006862*
X010132Y006802*
X010151Y006743*
X010174Y006686*
X010201Y006631*
X010232Y006577*
X010267Y006526*
X010305Y006477*
X010346Y006431*
X010391Y006388*
X010438Y006348*
X010488Y006312*
X010541Y006279*
X010595Y00625*
X010652Y006225*
X01071Y006204*
X010769Y006187*
X01083Y006174*
X010891Y006165*
X010953Y006161*
X011014*
X011076Y006165*
X011137Y006174*
X011198Y006187*
X011257Y006204*
X011315Y006225*
X011372Y00625*
X011427Y006279*
X011479Y006312*
X011529Y006348*
X011576Y006388*
X011621Y006431*
X011662Y006477*
X0117Y006526*
X011735Y006577*
X011766Y006631*
X011793Y006686*
X011816Y006743*
X011835Y006802*
X01185Y006862*
X011861Y006923*
X011867Y006985*
X01187Y007047*
Y01937D02*
D01*
X011867Y019431*
X011861Y019493*
X01185Y019554*
X011835Y019614*
X011816Y019673*
X011793Y01973*
X011766Y019785*
X011735Y019839*
X0117Y01989*
X011662Y019939*
X011621Y019985*
X011576Y020028*
X011529Y020068*
X011479Y020104*
X011427Y020137*
X011372Y020166*
X011315Y020191*
X011257Y020212*
X011198Y020229*
X011137Y020242*
X011076Y020251*
X011014Y020255*
X010953*
X010891Y020251*
X01083Y020242*
X010769Y020229*
X01071Y020212*
X010652Y020191*
X010595Y020166*
X010541Y020137*
X010488Y020104*
X010438Y020068*
X010391Y020028*
X010346Y019985*
X010305Y019939*
X010267Y01989*
X010232Y019839*
X010201Y019785*
X010174Y01973*
X010151Y019673*
X010132Y019614*
X010117Y019554*
X010106Y019493*
X0101Y019431*
X010098Y01937*
X0101Y019308*
X010106Y019246*
X010117Y019185*
X010132Y019125*
X010151Y019066*
X010174Y019009*
X010201Y018954*
X010232Y0189*
X010267Y018849*
X010305Y0188*
X010346Y018754*
X010391Y018711*
X010438Y018671*
X010488Y018635*
X010541Y018602*
X010595Y018573*
X010652Y018548*
X01071Y018527*
X010769Y01851*
X01083Y018497*
X010891Y018488*
X010953Y018484*
X011014*
X011076Y018488*
X011137Y018497*
X011198Y01851*
X011257Y018527*
X011315Y018548*
X011372Y018573*
X011427Y018602*
X011479Y018635*
X011529Y018671*
X011576Y018711*
X011621Y018754*
X011662Y0188*
X0117Y018849*
X011735Y0189*
X011766Y018954*
X011793Y019009*
X011816Y019066*
X011835Y019125*
X01185Y019185*
X011861Y019246*
X011867Y019308*
X01187Y01937*
G54D177*
X025067Y02389D02*
Y025426D01*
X02369Y02389D02*
X025067D01*
X02369Y025426D02*
Y02389D01*
Y025426D02*
X025067D01*
X024378Y024461D02*
Y024855D01*
X024182Y024658D02*
X024575D01*
X024743Y015844D02*
Y017379D01*
X023365D02*
X024743D01*
X023365Y015844D02*
Y017379D01*
Y015844D02*
X024743D01*
X024054Y016415D02*
Y016809D01*
X023857Y016612D02*
X024251D01*
X026356Y016517D02*
X027891D01*
Y017895*
X026356D02*
X027891D01*
X026356Y016517D02*
Y017895D01*
X026927Y017206D02*
X02732D01*
X027124Y017009D02*
Y017403D01*
X023044Y0243D02*
Y024693D01*
X022847Y024497D02*
X023241D01*
X023812Y023808D02*
Y025186D01*
X022276Y023808D02*
X023812D01*
X022276D02*
Y025186D01*
X023812*
X028615Y023296D02*
X03015D01*
X028615Y021918D02*
Y023296D01*
Y021918D02*
X03015D01*
Y023296*
X029186Y022607D02*
X029579D01*
X029382Y02241D02*
Y022804D01*
X026557Y015372D02*
Y016907D01*
X027934*
Y015372*
X026557D02*
X027934D01*
X027246Y015942D02*
Y016336D01*
X027049Y016139D02*
X027442D01*
X033092Y010175D02*
Y008639D01*
Y010175D02*
X03447D01*
Y008639*
X033092D02*
X03447D01*
X033781Y00921D02*
Y009604D01*
X033584Y009407D02*
X033978D01*
X011616Y012942D02*
X012009D01*
X011812Y012746D02*
Y013139D01*
X011123Y012175D02*
X012501D01*
Y01371D02*
Y012175D01*
X011123Y01371D02*
X012501D01*
X011123Y012175D02*
Y01371D01*
G54D178*
X019341Y018258D02*
X019734D01*
X019537Y018061D02*
Y018455D01*
X020128Y017766D02*
Y01875D01*
X018947D02*
X020128D01*
X018947Y017766D02*
Y01875D01*
Y017766D02*
X020128D01*
X028911Y02334D02*
X029022Y023451D01*
X028911D02*
X029022Y02334D01*
X028542Y024433D02*
X029906Y023069D01*
X02793Y02382D02*
X028542Y024433D01*
X02793Y02382D02*
X029294Y022456D01*
X029906Y023069*
X020118Y01815D02*
X020512D01*
X020315Y017953D02*
Y018346D01*
X020906Y017657D02*
Y018642D01*
X019724Y017657D02*
X020906D01*
X019724D02*
Y018642D01*
X020906*
X026594Y015089D02*
X026752D01*
X026673Y01501D02*
Y015167D01*
X027106Y014055D02*
Y015984D01*
X02624Y014055D02*
X027106D01*
X02624D02*
Y015984D01*
X027106*
X027913Y014961D02*
X028071D01*
X027992Y014882D02*
Y015039D01*
X028425Y013927D02*
Y015856D01*
X027559Y013927D02*
X028425D01*
X027559D02*
Y015856D01*
X028425*
X020404Y012037D02*
Y012904D01*
Y012037D02*
X022333D01*
Y012904*
X020404D02*
X022333D01*
X02122Y01247D02*
X021378D01*
X021299Y012392D02*
Y012549D01*
X028346Y014134D02*
X028504D01*
X028425Y014055D02*
Y014213D01*
X028858Y013238D02*
Y015167D01*
X027992D02*
X028858D01*
X027992Y013238D02*
Y015167D01*
Y013238D02*
X028858D01*
X027283Y014075D02*
X027441D01*
X027362Y013996D02*
Y014154D01*
X027795Y013179D02*
Y015108D01*
X026929D02*
X027795D01*
X026929Y013179D02*
Y015108D01*
Y013179D02*
X027795D01*
X016122Y01263D02*
Y011449D01*
Y01263D02*
X017106D01*
Y011449*
X016122D02*
X017106D01*
X016417Y012039D02*
X016811D01*
X016614Y012236D02*
Y011843D01*
X017077Y015266D02*
Y016447D01*
X016093Y015266D02*
X017077D01*
X016093D02*
Y016447D01*
X017077*
X016388Y015856D02*
X016782D01*
X016585Y015659D02*
Y016053D01*
Y014006D02*
Y0144D01*
X016388Y014203D02*
X016782D01*
X016093Y014793D02*
X017077D01*
X016093Y013612D02*
Y014793D01*
Y013612D02*
X017077D01*
Y014793*
M02*