%FSTAX24Y24*%
%MOIN*%
%SFA1B1*%

%IPPOS*%
%AMD71*
4,1,4,-0.030600,-0.004200,-0.004200,-0.030600,0.030600,0.004200,0.004200,0.030600,-0.030600,-0.004200,0.0*
%
%AMD77*
4,1,4,0.000000,0.041700,-0.041700,0.000000,0.000000,-0.041700,0.041700,0.000000,0.000000,0.041700,0.0*
%
%ADD10R,0.035400X0.031500*%
%ADD11R,0.023600X0.019700*%
%ADD13R,0.011000X0.055100*%
%ADD14R,0.055100X0.033500*%
%ADD15R,0.019700X0.014800*%
%ADD16R,0.025600X0.011800*%
%ADD17R,0.019700X0.023600*%
%ADD20R,0.049200X0.037400*%
%ADD21C,0.059100*%
%ADD24R,0.023600X0.070900*%
%ADD28R,0.035400X0.070900*%
%ADD29R,0.070900X0.035400*%
%ADD32R,0.039400X0.066900*%
%ADD33R,0.031500X0.035400*%
%ADD63C,0.065000*%
%ADD64R,0.086600X0.086600*%
%ADD65C,0.086600*%
%ADD66C,0.039400*%
%ADD67C,0.050000*%
%ADD68R,0.050000X0.050000*%
%ADD69C,0.003900*%
G04~CAMADD=71~9~0.0~0.0~374.0~492.0~0.0~0.0~0~0.0~0.0~0.0~0.0~0~0.0~0.0~0.0~0.0~0~0.0~0.0~0.0~135.0~612.0~611.0*
%ADD71D71*%
%ADD72R,0.078700X0.047200*%
%ADD73R,0.019700X0.039400*%
%ADD74R,0.053200X0.015700*%
%ADD75R,0.023600X0.061000*%
%ADD76R,0.066900X0.039400*%
G04~CAMADD=77~10~0.0~590.4~0.0~0.0~0.0~0.0~0~0.0~0.0~0.0~0.0~0~0.0~0.0~0.0~0.0~0~0.0~0.0~0.0~405.0~590.4~0.0*
%ADD77D77*%
%ADD78R,0.055100X0.082700*%
%ADD79R,0.082700X0.055100*%
%ADD80R,0.033500X0.055100*%
%ADD81R,0.110200X0.086600*%
%ADD82R,0.031500X0.043300*%
%ADD83R,0.014800X0.019700*%
%ADD84R,0.011800X0.025600*%
%ADD85R,0.041300X0.023600*%
%ADD86R,0.029900X0.063000*%
%ADD87R,0.094500X0.029900*%
%ADD88R,0.013800X0.045300*%
%ADD89R,0.019700X0.090600*%
%ADD90R,0.078700X0.098400*%
%LNee4951_bpm_reva-1*%
%LPD*%
G54D10*
X029537Y023937D03*
Y024449D03*
X027776Y023612D03*
Y024124D03*
X023396Y014783D03*
Y014272D03*
X017982Y019656D03*
Y019144D03*
X023494Y010157D03*
Y009646D03*
X020157Y015453D03*
Y014941D03*
X019882Y011516D03*
Y012028D03*
G54D11*
X027726Y021319D03*
Y020925D03*
X022972Y022096D03*
Y021703D03*
X027234Y022854D03*
Y023248D03*
X028455Y016457D03*
Y01685D03*
X033209Y012963D03*
Y013356D03*
X026732Y017598D03*
Y017992D03*
X023661Y017293D03*
Y017687D03*
X033022Y00878D03*
Y008386D03*
X019213Y011968D03*
Y011575D03*
X023553Y01247D03*
Y012077D03*
X017539Y020315D03*
Y020709D03*
X022953Y01689D03*
Y016496D03*
X026181Y017598D03*
Y017992D03*
X01564Y012925D03*
Y012531D03*
X015827Y011685D03*
Y011291D03*
X015354D03*
Y011685D03*
X012913Y013102D03*
Y012709D03*
X013386Y013102D03*
Y012709D03*
X016545Y010482D03*
Y010876D03*
X013228Y016644D03*
Y01625D03*
X013238Y015335D03*
Y015728D03*
X024626Y012431D03*
Y012825D03*
X024104Y012461D03*
Y012854D03*
X013238Y013967D03*
Y013573D03*
Y014488D03*
Y014882D03*
X013868Y012815D03*
Y012421D03*
X019715Y013652D03*
Y014045D03*
X012441Y017352D03*
Y017746D03*
X013012Y017283D03*
Y017677D03*
G54D13*
X023671Y021333D03*
X023868D03*
X024065D03*
X024262D03*
X024459D03*
Y023018D03*
X024262D03*
X024065D03*
X023868D03*
X023671D03*
X028396Y020585D03*
X028593D03*
X028789D03*
X028986D03*
X029183D03*
Y02227D03*
X028986D03*
X028789D03*
X028593D03*
X028396D03*
X026555Y023933D03*
X026358D03*
X026161D03*
X025965D03*
X025768D03*
Y022248D03*
X025965D03*
X026161D03*
X026358D03*
X026555D03*
G54D14*
X026683Y011142D03*
Y011831D03*
X029291Y010285D03*
Y010974D03*
G54D15*
X019203Y018046D03*
Y01847D03*
X019872D03*
Y018046D03*
G54D16*
X019173Y018258D03*
X019902D03*
G54D17*
X028455Y019774D03*
X028848D03*
X01749Y015817D03*
X017884D03*
X017756Y015344D03*
X01815D03*
X017667Y017215D03*
X018061D03*
X018071Y017805D03*
X018465D03*
X02376Y020669D03*
X024154D03*
X026496Y024724D03*
X026102D03*
X032825Y013937D03*
X033219D03*
X024921Y01748D03*
X025315D03*
X03378Y010709D03*
X033386D03*
X024764Y018032D03*
X025157D03*
X016811Y017087D03*
X017205D03*
X021388Y014872D03*
X020994D03*
X029616Y012835D03*
X029222D03*
X029616Y012313D03*
X029222D03*
X016486Y012894D03*
X016093D03*
X018032Y012421D03*
X017638D03*
X031526Y011693D03*
X031919D03*
X022598Y014016D03*
X022205D03*
X022598Y013494D03*
X022205D03*
X015551Y017323D03*
X015157D03*
X017628Y013661D03*
X018022D03*
X023051Y008415D03*
X022657D03*
X023573Y010778D03*
X023179D03*
X025138Y02064D03*
X024744D03*
X02253Y008947D03*
X022136D03*
X020965Y010059D03*
X021358D03*
G54D20*
X028425Y014783D03*
Y013484D03*
X027362Y014724D03*
Y013425D03*
G54D21*
X022215Y015512D03*
X019872Y012785D03*
X012205Y01438D03*
X016811Y017844D03*
X02124Y009439D03*
G54D24*
X024753Y024264D03*
X024004D03*
X024378Y025052D03*
X026871Y016533D03*
X02762D03*
X027246Y015746D03*
X033407Y009801D03*
X034155D03*
X033781Y009013D03*
X011812Y012549D03*
X012186Y013336D03*
X011438D03*
G54D28*
X02565Y02D03*
X024508D03*
G54D29*
X033809Y015807D03*
Y016949D03*
G54D32*
X032274Y012579D03*
X030896D03*
G54D33*
X02248Y024715D03*
X022992D03*
X018839Y020197D03*
X018327D03*
X011053Y02127D03*
X011398Y014301D03*
X010886D03*
X014301Y016427D03*
Y015561D03*
Y01377D03*
Y014656D03*
X023179Y008947D03*
X023691D03*
X020945Y015453D03*
X021457D03*
X020394Y010689D03*
X019882D03*
G54D63*
X020028Y007323D03*
X019028D03*
G54D64*
X031004Y024409D03*
Y021693D03*
G54D65*
X033169Y024409D03*
Y021693D03*
G54D66*
X014642Y006935D03*
Y007435D03*
X014142Y006935D03*
Y007435D03*
X013642Y006935D03*
Y007435D03*
X013142Y006935D03*
Y007435D03*
X012642Y006935D03*
Y007435D03*
X010984Y007047D03*
Y01937D03*
G54D67*
X033661Y007283D03*
X022244D03*
Y018898D03*
X033661D03*
X030453D03*
X028453D03*
X029453D03*
X024453D03*
X025453D03*
X026453D03*
X027453D03*
G54D68*
X031453Y018898D03*
G54D69*
X012303Y02378D03*
X014035D03*
G54D71*
X028507Y023855D03*
X029426Y022936D03*
G54D72*
X016801Y024406D03*
Y022654D03*
X020915D03*
Y024406D03*
G54D73*
X018937Y025039D03*
X017343D03*
X017776D03*
X018209D03*
X018642D03*
X019213D03*
X019508D03*
X019941D03*
X020374D03*
G54D74*
X022579Y012195D03*
Y011939D03*
Y011683D03*
Y011427D03*
X020886D03*
Y011683D03*
Y011939D03*
Y012195D03*
X022185Y017077D03*
Y016821D03*
Y016565D03*
Y016309D03*
X020492D03*
Y016565D03*
Y016821D03*
Y017077D03*
G54D75*
X024132Y016614D03*
X024632D03*
X025132D03*
X025632D03*
Y014488D03*
X025132D03*
X024632D03*
X024132D03*
G54D76*
X032677Y015787D03*
Y017165D03*
G54D77*
X03007Y007804D03*
X028985Y008889D03*
G54D78*
X031624Y014016D03*
X029892D03*
G54D79*
X031181Y01752D03*
Y015787D03*
X029606Y01752D03*
Y015787D03*
G54D80*
X025837Y012835D03*
X026526D03*
X028455Y010157D03*
X027766D03*
G54D81*
X015906Y007795D03*
X017795D03*
X015906Y009459D03*
X017795D03*
G54D82*
X011565Y02127D03*
X013789Y016427D03*
Y015561D03*
Y01377D03*
Y014656D03*
G54D83*
X016402Y011705D03*
X016826D03*
Y012374D03*
X016402D03*
X016796Y016191D03*
X016373D03*
Y015522D03*
X016796D03*
Y013868D03*
X016373D03*
Y014537D03*
X016796D03*
G54D84*
X016614Y011675D03*
Y012404D03*
X016585Y01622D03*
Y015492D03*
Y013839D03*
Y014567D03*
G54D85*
X021427Y013297D03*
Y014045D03*
X020364D03*
Y013671D03*
Y013297D03*
G54D86*
X013041Y008667D03*
X012541D03*
X012041D03*
X011541D03*
Y010876D03*
X012041D03*
X012541D03*
X013041D03*
G54D87*
X015571Y020035D03*
X014035D03*
X015571Y019535D03*
X014035D03*
X015571Y019035D03*
X014035D03*
X015571Y018535D03*
X014035D03*
X015571Y018035D03*
X014035D03*
G54D88*
X022688Y010384D03*
X022432D03*
X022176D03*
Y009636D03*
X022432D03*
X022688D03*
G54D89*
X013799Y022756D03*
X013484D03*
X013169D03*
X012854D03*
X012539D03*
G54D90*
X014921Y022795D03*
X011417D03*
X014921Y025D03*
X011417D03*
M02*