%FSTAX24Y24*%
%MOIN*%
%SFA1B1*%

%IPPOS*%
%AMD27*
4,1,4,0.001400,-0.015300,0.015300,-0.001400,-0.001400,0.015300,-0.015300,0.001400,0.001400,-0.015300,0.0*
%
%ADD10R,0.035400X0.031500*%
%ADD11R,0.023600X0.019700*%
%ADD12R,0.070900X0.047200*%
%ADD13R,0.011000X0.055100*%
%ADD14R,0.055100X0.033500*%
%ADD15R,0.019700X0.014800*%
%ADD16R,0.025600X0.011800*%
%ADD17R,0.019700X0.023600*%
%ADD18R,0.086600X0.137800*%
%ADD19R,0.086600X0.023600*%
%ADD20R,0.049200X0.037400*%
%ADD21C,0.059100*%
%ADD22R,0.017700X0.059100*%
%ADD23R,0.126000X0.096500*%
%ADD24R,0.023600X0.070900*%
%ADD25R,0.086600X0.019700*%
%ADD26R,0.083900X0.118100*%
G04~CAMADD=27~9~0.0~0.0~197.0~236.0~0.0~0.0~0~0.0~0.0~0.0~0.0~0~0.0~0.0~0.0~0.0~0~0.0~0.0~0.0~225.0~306.0~305.0*
%ADD27D27*%
%ADD28R,0.035400X0.070900*%
%ADD29R,0.070900X0.035400*%
%ADD30R,0.070900X0.023600*%
%ADD31R,0.110200X0.208700*%
%ADD32R,0.039400X0.066900*%
%ADD33R,0.031500X0.035400*%
%ADD34R,0.045300X0.013800*%
%ADD35R,0.011800X0.023600*%
%ADD36R,0.023600X0.011800*%
%ADD37R,0.126000X0.126000*%
%ADD38R,0.011800X0.059100*%
%ADD39R,0.059100X0.011800*%
%ADD40R,0.037400X0.049200*%
%ADD41R,0.015900X0.039000*%
%ADD42R,0.015900X0.029900*%
%ADD43R,0.088000X0.067900*%
%ADD44R,0.029900X0.055100*%
%ADD45R,0.079900X0.090200*%
%ADD46R,0.040200X0.040200*%
%ADD47R,0.031500X0.035400*%
%ADD48R,0.035400X0.031500*%
%ADD49R,0.043300X0.074800*%
%ADD50C,0.010000*%
%ADD51C,0.040200*%
%ADD52C,0.031500*%
%ADD53C,0.020000*%
%ADD54C,0.018000*%
%ADD55C,0.015000*%
%ADD56C,0.030000*%
%ADD57C,0.040000*%
%ADD58C,0.025000*%
%ADD59C,0.035000*%
%ADD60R,0.283500X0.126000*%
%ADD61R,0.110200X0.220500*%
%ADD62R,0.042600X0.046000*%
%ADD63C,0.065000*%
%ADD64R,0.086600X0.086600*%
%ADD65C,0.086600*%
%ADD66C,0.039400*%
%ADD67C,0.050000*%
%ADD68R,0.050000X0.050000*%
%ADD69C,0.003900*%
%ADD70C,0.025000*%
%LNee4951_bpm_reva-1*%
%LPD*%
G36*
X035Y006063D02*
X01D01*
Y008386*
Y026063*
X035*
Y006063*
G37*
%LNee4951_bpm_reva-2*%
%LPC*%
G36*
X011083Y012461D02*
X010728D01*
Y012165*
X011083*
Y012461*
G37*
G36*
X034753Y012282D02*
X034713Y012255D01*
X034686Y012215*
X034753*
Y012282*
G37*
G36*
X012499Y012204D02*
X012459Y012177D01*
X012432Y012137*
X012499*
Y012204*
G37*
G36*
X012599D02*
Y012137D01*
X012666*
X012639Y012177*
X012599Y012204*
G37*
G36*
X013296Y012411D02*
X013229D01*
Y012344*
X013269Y012371*
X013296Y012411*
G37*
G36*
X013129Y012578D02*
X013089Y012551D01*
X013062Y012511*
X013129*
Y012578*
G37*
G36*
X034853Y012282D02*
Y012215D01*
X03492*
X034893Y012255*
X034853Y012282*
G37*
G36*
X013129Y012411D02*
X013062D01*
X013089Y012371*
X013129Y012344*
Y012411*
G37*
G36*
X010247Y012204D02*
Y012137D01*
X010314*
X010287Y012177*
X010247Y012204*
G37*
G36*
X012499Y012037D02*
X012432D01*
X012459Y011996*
X012499Y01197*
Y012037*
G37*
G36*
X012666D02*
X012599D01*
Y01197*
X012639Y011996*
X012666Y012037*
G37*
G36*
X010147D02*
X01008D01*
X010107Y011996*
X010147Y01197*
Y012037*
G37*
G36*
X010314D02*
X010247D01*
Y01197*
X010287Y011996*
X010314Y012037*
G37*
G36*
X03492Y012115D02*
X034853D01*
Y012048*
X034893Y012075*
X03492Y012115*
G37*
G36*
X010147Y012204D02*
X010107Y012177D01*
X01008Y012137*
X010147*
Y012204*
G37*
G36*
X034213Y0125D02*
X033524D01*
Y012028*
X034213*
Y0125*
G37*
G36*
X034753Y012115D02*
X034686D01*
X034713Y012075*
X034753Y012048*
Y012115*
G37*
G36*
X013229Y012578D02*
Y012511D01*
X013296*
X013269Y012551*
X013229Y012578*
G37*
G36*
X034853Y013267D02*
Y0132D01*
X03492*
X034893Y01324*
X034853Y013267*
G37*
G36*
X03247Y013296D02*
X032403D01*
X03243Y013256*
X03247Y01323*
Y013296*
G37*
G36*
X010247Y013188D02*
Y013121D01*
X010314*
X010287Y013161*
X010247Y013188*
G37*
G36*
X034753Y013267D02*
X034713Y01324D01*
X034686Y0132*
X034753*
Y013267*
G37*
G36*
X03257Y013463D02*
Y013396D01*
X032637*
X03261Y013437*
X03257Y013463*
G37*
G36*
X023346Y013897D02*
X023279D01*
X023306Y013857*
X023346Y01383*
Y013897*
G37*
G36*
X032637Y013296D02*
X03257D01*
Y01323*
X03261Y013256*
X032637Y013296*
G37*
G36*
X03247Y013463D02*
X03243Y013437D01*
X032403Y013396*
X03247*
Y013463*
G37*
G36*
X010147Y013188D02*
X010107Y013161D01*
X01008Y013121*
X010147*
Y013188*
G37*
G36*
X022607Y012843D02*
X022567Y012816D01*
X022541Y012776*
X022607*
Y012843*
G37*
G36*
X022707D02*
Y012776D01*
X022774*
X022748Y012816*
X022707Y012843*
G37*
G36*
X022607Y012676D02*
X022541D01*
X022567Y012636*
X022607Y012609*
Y012676*
G37*
G36*
X022774D02*
X022707D01*
Y012609*
X022748Y012636*
X022774Y012676*
G37*
G36*
X034753Y0131D02*
X034686D01*
X034713Y013059*
X034753Y013033*
Y0131*
G37*
G36*
X03492D02*
X034853D01*
Y013033*
X034893Y013059*
X03492Y0131*
G37*
G36*
X010147Y013021D02*
X01008D01*
X010107Y012981*
X010147Y012954*
Y013021*
G37*
G36*
X010314D02*
X010247D01*
Y012954*
X010287Y012981*
X010314Y013021*
G37*
G36*
X03492Y010147D02*
X034853D01*
Y01008*
X034893Y010107*
X03492Y010147*
G37*
G36*
X010147Y010235D02*
X010107Y010208D01*
X01008Y010168*
X010147*
Y010235*
G37*
G36*
X010314Y010068D02*
X010247D01*
Y010001*
X010287Y010028*
X010314Y010068*
G37*
G36*
X034753Y010147D02*
X034686D01*
X034713Y010107*
X034753Y01008*
Y010147*
G37*
G36*
X034853Y010314D02*
Y010247D01*
X03492*
X034893Y010287*
X034853Y010314*
G37*
G36*
X023798Y010728D02*
X023732D01*
X023758Y010687*
X023798Y010661*
Y010728*
G37*
G36*
X010247Y010235D02*
Y010168D01*
X010314*
X010287Y010208*
X010247Y010235*
G37*
G36*
X034753Y010314D02*
X034713Y010287D01*
X034686Y010247*
X034753*
Y010314*
G37*
G36*
X010147Y010068D02*
X01008D01*
X010107Y010028*
X010147Y010001*
Y010068*
G37*
G36*
X034753Y00933D02*
X034713Y009303D01*
X034686Y009263*
X034753*
Y00933*
G37*
G36*
X034853D02*
Y009263D01*
X03492*
X034893Y009303*
X034853Y00933*
G37*
G36*
X010147Y009251D02*
X010107Y009224D01*
X01008Y009184*
X010147*
Y009251*
G37*
G36*
X010247D02*
Y009184D01*
X010314*
X010287Y009224*
X010247Y009251*
G37*
G36*
X020521Y009684D02*
X020481Y009657D01*
X020454Y009617*
X020521*
Y009684*
G37*
G36*
X020621D02*
Y009617D01*
X020688*
X020661Y009657*
X020621Y009684*
G37*
G36*
X020521Y009517D02*
X020454D01*
X020481Y009477*
X020521Y00945*
Y009517*
G37*
G36*
X020688D02*
X020621D01*
Y00945*
X020661Y009477*
X020688Y009517*
G37*
G36*
X023798Y010894D02*
X023758Y010868D01*
X023732Y010828*
X023798*
Y010894*
G37*
G36*
X010247Y011219D02*
Y011152D01*
X010314*
X010287Y011192*
X010247Y011219*
G37*
G36*
X022529Y011288D02*
X022489Y011261D01*
X022462Y011221*
X022529*
Y011288*
G37*
G36*
X020946Y01118D02*
Y011113D01*
X021013*
X020986Y011153*
X020946Y01118*
G37*
G36*
X010147Y011219D02*
X010107Y011192D01*
X01008Y011152*
X010147*
Y011219*
G37*
G36*
X034753Y011298D02*
X034713Y011271D01*
X034686Y011231*
X034753*
Y011298*
G37*
G36*
X034853D02*
Y011231D01*
X03492*
X034893Y011271*
X034853Y011298*
G37*
G36*
X022629Y011288D02*
Y011221D01*
X022696*
X022669Y011261*
X022629Y011288*
G37*
G36*
X022087Y015197D02*
X021811D01*
X021575Y014961*
X021457Y014843*
X02061*
X020384Y014616*
Y014301*
X020787Y013898*
Y013465*
X020295Y012972*
Y011614*
X020423Y011486*
X020472*
Y01123*
X020827*
Y011486*
X020896*
X021339Y011929*
X022323*
X022441Y012047*
Y012953*
X022008Y013386*
Y014449*
X022283Y014724*
Y015*
X022087Y015197*
G37*
G36*
X020846Y01118D02*
X020806Y011153D01*
X020779Y011113*
X020846*
Y01118*
G37*
G36*
X010147Y011052D02*
X01008D01*
X010107Y011012*
X010147Y010985*
Y011052*
G37*
G36*
X010314D02*
X010247D01*
Y010985*
X010287Y011012*
X010314Y011052*
G37*
G36*
X020846Y011013D02*
X020779D01*
X020806Y010973*
X020846Y010946*
Y011013*
G37*
G36*
X021013D02*
X020946D01*
Y010946*
X020986Y010973*
X021013Y011013*
G37*
G36*
X034753Y011131D02*
X034686D01*
X034713Y011091*
X034753Y011064*
Y011131*
G37*
G36*
X03492D02*
X034853D01*
Y011064*
X034893Y011091*
X03492Y011131*
G37*
G36*
X022529Y011121D02*
X022462D01*
X022489Y011081*
X022529Y011054*
Y011121*
G37*
G36*
X022696D02*
X022629D01*
Y011054*
X022669Y011081*
X022696Y011121*
G37*
G36*
X023513Y013897D02*
X023446D01*
Y01383*
X023486Y013857*
X023513Y013897*
G37*
G36*
X010147Y018109D02*
X010107Y018082D01*
X01008Y018042*
X010147*
Y018109*
G37*
G36*
X010247D02*
Y018042D01*
X010314*
X010287Y018082*
X010247Y018109*
G37*
G36*
X034753Y018021D02*
X034686D01*
X034713Y017981*
X034753Y017954*
Y018021*
G37*
G36*
X03492D02*
X034853D01*
Y017954*
X034893Y017981*
X03492Y018021*
G37*
G36*
X010147Y018926D02*
X01008D01*
X010107Y018886*
X010147Y018859*
Y018926*
G37*
G36*
X010314D02*
X010247D01*
Y018859*
X010287Y018886*
X010314Y018926*
G37*
G36*
X034753Y018188D02*
X034713Y018161D01*
X034686Y018121*
X034753*
Y018188*
G37*
G36*
X034853D02*
Y018121D01*
X03492*
X034893Y018161*
X034853Y018188*
G37*
G36*
X010314Y017942D02*
X010247D01*
Y017875*
X010287Y017902*
X010314Y017942*
G37*
G36*
X034853Y017204D02*
Y017137D01*
X03492*
X034893Y017177*
X034853Y017204*
G37*
G36*
X022135Y017253D02*
X022068D01*
X022095Y017213*
X022135Y017186*
Y017253*
G37*
G36*
X010247Y017125D02*
Y017058D01*
X010314*
X010287Y017098*
X010247Y017125*
G37*
G36*
X034753Y017204D02*
X034713Y017177D01*
X034686Y017137*
X034753*
Y017204*
G37*
G36*
X022235Y01742D02*
Y017353D01*
X022302*
X022275Y017393*
X022235Y01742*
G37*
G36*
X010147Y017942D02*
X01008D01*
X010107Y017902*
X010147Y017875*
Y017942*
G37*
G36*
X022302Y017253D02*
X022235D01*
Y017186*
X022275Y017213*
X022302Y017253*
G37*
G36*
X022135Y01742D02*
X022095Y017393D01*
X022068Y017353*
X022135*
Y01742*
G37*
G36*
X034753Y019005D02*
X034686D01*
X034713Y018965*
X034753Y018938*
Y019005*
G37*
G36*
Y020156D02*
X034713Y020129D01*
X034686Y020089*
X034753*
Y020156*
G37*
G36*
X034853D02*
Y020089D01*
X03492*
X034893Y020129*
X034853Y020156*
G37*
G36*
X010147Y020078D02*
X010107Y020051D01*
X01008Y020011*
X010147*
Y020078*
G37*
G36*
X010247D02*
Y020011D01*
X010314*
X010287Y020051*
X010247Y020078*
G37*
G36*
X014733Y020383D02*
X014693Y020356D01*
X014667Y020316*
X014733*
Y020383*
G37*
G36*
X014833D02*
Y020316D01*
X0149*
X014874Y020356*
X014833Y020383*
G37*
G36*
X014733Y020216D02*
X014667D01*
X014693Y020176*
X014733Y020149*
Y020216*
G37*
G36*
X0149D02*
X014833D01*
Y020149*
X014874Y020176*
X0149Y020216*
G37*
G36*
X03492Y019989D02*
X034853D01*
Y019922*
X034893Y019949*
X03492Y019989*
G37*
G36*
X010247Y019093D02*
Y019026D01*
X010314*
X010287Y019066*
X010247Y019093*
G37*
G36*
X034753Y019172D02*
X034713Y019145D01*
X034686Y019105*
X034753*
Y019172*
G37*
G36*
X03492Y019005D02*
X034853D01*
Y018938*
X034893Y018965*
X03492Y019005*
G37*
G36*
X010147Y019093D02*
X010107Y019066D01*
X01008Y019026*
X010147*
Y019093*
G37*
G36*
X010314Y019911D02*
X010247D01*
Y019844*
X010287Y019871*
X010314Y019911*
G37*
G36*
X034753Y019989D02*
X034686D01*
X034713Y019949*
X034753Y019922*
Y019989*
G37*
G36*
X034853Y019172D02*
Y019105D01*
X03492*
X034893Y019145*
X034853Y019172*
G37*
G36*
X010147Y019911D02*
X01008D01*
X010107Y019871*
X010147Y019844*
Y019911*
G37*
G36*
X010314Y014989D02*
X010247D01*
Y014922*
X010287Y014949*
X010314Y014989*
G37*
G36*
X034753Y015068D02*
X034686D01*
X034713Y015028*
X034753Y015001*
Y015068*
G37*
G36*
X034853Y014251D02*
Y014184D01*
X03492*
X034893Y014224*
X034853Y014251*
G37*
G36*
X010147Y014989D02*
X01008D01*
X010107Y014949*
X010147Y014922*
Y014989*
G37*
G36*
X010247Y015156D02*
Y015089D01*
X010314*
X010287Y015129*
X010247Y015156*
G37*
G36*
X034753Y015235D02*
X034713Y015208D01*
X034686Y015168*
X034753*
Y015235*
G37*
G36*
X03492Y015068D02*
X034853D01*
Y015001*
X034893Y015028*
X03492Y015068*
G37*
G36*
X010147Y015156D02*
X010107Y015129D01*
X01008Y015089*
X010147*
Y015156*
G37*
G36*
X034753Y014251D02*
X034713Y014224D01*
X034686Y014184*
X034753*
Y014251*
G37*
G36*
X023346Y014064D02*
X023306Y014037D01*
X023279Y013997*
X023346*
Y014064*
G37*
G36*
X023446D02*
Y013997D01*
X023513*
X023486Y014037*
X023446Y014064*
G37*
G36*
X010147Y014005D02*
X01008D01*
X010107Y013965*
X010147Y013938*
Y014005*
G37*
G36*
X010314D02*
X010247D01*
Y013938*
X010287Y013965*
X010314Y014005*
G37*
G36*
X010147Y014172D02*
X010107Y014145D01*
X01008Y014105*
X010147*
Y014172*
G37*
G36*
X010247D02*
Y014105D01*
X010314*
X010287Y014145*
X010247Y014172*
G37*
G36*
X034753Y014084D02*
X034686D01*
X034713Y014044*
X034753Y014017*
Y014084*
G37*
G36*
X03492D02*
X034853D01*
Y014017*
X034893Y014044*
X03492Y014084*
G37*
G36*
X034853Y015235D02*
Y015168D01*
X03492*
X034893Y015208*
X034853Y015235*
G37*
G36*
Y016219D02*
Y016152D01*
X03492*
X034893Y016192*
X034853Y016219*
G37*
G36*
X010147Y016958D02*
X01008D01*
X010107Y016918*
X010147Y016891*
Y016958*
G37*
G36*
X022235Y01619D02*
Y016123D01*
X022302*
X022275Y016163*
X022235Y01619*
G37*
G36*
X034753Y016219D02*
X034713Y016192D01*
X034686Y016152*
X034753*
Y016219*
G37*
G36*
X03492Y017037D02*
X034853D01*
Y01697*
X034893Y016996*
X03492Y017037*
G37*
G36*
X010147Y017125D02*
X010107Y017098D01*
X01008Y017058*
X010147*
Y017125*
G37*
G36*
X010314Y016958D02*
X010247D01*
Y016891*
X010287Y016918*
X010314Y016958*
G37*
G36*
X034753Y017037D02*
X034686D01*
X034713Y016996*
X034753Y01697*
Y017037*
G37*
G36*
X022135Y01619D02*
X022095Y016163D01*
X022068Y016123*
X022135*
Y01619*
G37*
G36*
Y016023D02*
X022068D01*
X022095Y015983*
X022135Y015956*
Y016023*
G37*
G36*
X022302D02*
X022235D01*
Y015956*
X022275Y015983*
X022302Y016023*
G37*
G36*
X010147Y015974D02*
X01008D01*
X010107Y015934*
X010147Y015907*
Y015974*
G37*
G36*
X010314D02*
X010247D01*
Y015907*
X010287Y015934*
X010314Y015974*
G37*
G36*
X010147Y016141D02*
X010107Y016114D01*
X01008Y016074*
X010147*
Y016141*
G37*
G36*
X010247D02*
Y016074D01*
X010314*
X010287Y016114*
X010247Y016141*
G37*
G36*
X034753Y016052D02*
X034686D01*
X034713Y016012*
X034753Y015985*
Y016052*
G37*
G36*
X03492D02*
X034853D01*
Y015985*
X034893Y016012*
X03492Y016052*
G37*
G36*
X033769Y00621D02*
X033702D01*
X033729Y00617*
X033769Y006143*
Y00621*
G37*
G36*
X033936D02*
X033869D01*
Y006143*
X033909Y00617*
X033936Y00621*
G37*
G36*
X032667D02*
X0326D01*
X032626Y00617*
X032667Y006143*
Y00621*
G37*
G36*
X032833D02*
X032767D01*
Y006143*
X032807Y00617*
X032833Y00621*
G37*
G36*
X010147Y006377D02*
X010107Y00635D01*
X01008Y00631*
X010147*
Y006377*
G37*
G36*
X010247D02*
Y00631D01*
X010314*
X010287Y00635*
X010247Y006377*
G37*
G36*
X034753Y00621D02*
X034686D01*
X034713Y00617*
X034753Y006143*
Y00621*
G37*
G36*
X03492D02*
X034853D01*
Y006143*
X034893Y00617*
X03492Y00621*
G37*
G36*
X03179D02*
X031723D01*
Y006143*
X031763Y00617*
X03179Y00621*
G37*
G36*
X02866D02*
X028593D01*
Y006143*
X028633Y00617*
X02866Y00621*
G37*
G36*
X029546D02*
X02948D01*
X029506Y00617*
X029546Y006143*
Y00621*
G37*
G36*
X027627D02*
X02756D01*
Y006143*
X0276Y00617*
X027627Y00621*
G37*
G36*
X028493D02*
X028426D01*
X028453Y00617*
X028493Y006143*
Y00621*
G37*
G36*
X030747D02*
X03068D01*
Y006143*
X03072Y00617*
X030747Y00621*
G37*
G36*
X031623D02*
X031556D01*
X031583Y00617*
X031623Y006143*
Y00621*
G37*
G36*
X029713D02*
X029646D01*
Y006143*
X029687Y00617*
X029713Y00621*
G37*
G36*
X03058D02*
X030513D01*
X03054Y00617*
X03058Y006143*
Y00621*
G37*
G36*
X01121Y006377D02*
X01117Y00635D01*
X011143Y00631*
X01121*
Y006377*
G37*
G36*
X017509D02*
X017469Y00635D01*
X017442Y00631*
X017509*
Y006377*
G37*
G36*
X017609D02*
Y00631D01*
X017676*
X017649Y00635*
X017609Y006377*
G37*
G36*
X016407D02*
X016367Y00635D01*
X01634Y00631*
X016407*
Y006377*
G37*
G36*
X016507D02*
Y00631D01*
X016574*
X016547Y00635*
X016507Y006377*
G37*
G36*
X019478D02*
X019437Y00635D01*
X019411Y00631*
X019478*
Y006377*
G37*
G36*
X019578D02*
Y00631D01*
X019644*
X019618Y00635*
X019578Y006377*
G37*
G36*
X018493D02*
X018453Y00635D01*
X018426Y00631*
X018493*
Y006377*
G37*
G36*
X018593D02*
Y00631D01*
X01866*
X018633Y00635*
X018593Y006377*
G37*
G36*
X015473D02*
Y00631D01*
X01554*
X015513Y00635*
X015473Y006377*
G37*
G36*
X012333D02*
Y00631D01*
X0124*
X012374Y00635*
X012333Y006377*
G37*
G36*
X013277D02*
X013237Y00635D01*
X01321Y00631*
X013277*
Y006377*
G37*
G36*
X01131D02*
Y00631D01*
X011377*
X01135Y00635*
X01131Y006377*
G37*
G36*
X012233D02*
X012193Y00635D01*
X012167Y00631*
X012233*
Y006377*
G37*
G36*
X01442D02*
Y00631D01*
X014487*
X01446Y00635*
X01442Y006377*
G37*
G36*
X015373D02*
X015333Y00635D01*
X015306Y00631*
X015373*
Y006377*
G37*
G36*
X013377D02*
Y00631D01*
X013444*
X013417Y00635*
X013377Y006377*
G37*
G36*
X01432D02*
X01428Y00635D01*
X014253Y00631*
X01432*
Y006377*
G37*
G36*
X01554Y00621D02*
X015473D01*
Y006143*
X015513Y00617*
X01554Y00621*
G37*
G36*
X016407D02*
X01634D01*
X016367Y00617*
X016407Y006143*
Y00621*
G37*
G36*
X014487D02*
X01442D01*
Y006143*
X01446Y00617*
X014487Y00621*
G37*
G36*
X015373D02*
X015306D01*
X015333Y00617*
X015373Y006143*
Y00621*
G37*
G36*
X017676D02*
X017609D01*
Y006143*
X017649Y00617*
X017676Y00621*
G37*
G36*
X018493D02*
X018426D01*
X018453Y00617*
X018493Y006143*
Y00621*
G37*
G36*
X016574D02*
X016507D01*
Y006143*
X016547Y00617*
X016574Y00621*
G37*
G36*
X017509D02*
X017442D01*
X017469Y00617*
X017509Y006143*
Y00621*
G37*
G36*
X01432D02*
X014253D01*
X01428Y00617*
X01432Y006143*
Y00621*
G37*
G36*
X01121D02*
X011143D01*
X01117Y00617*
X01121Y006143*
Y00621*
G37*
G36*
X011377D02*
X01131D01*
Y006143*
X01135Y00617*
X011377Y00621*
G37*
G36*
X010147D02*
X01008D01*
X010107Y00617*
X010147Y006143*
Y00621*
G37*
G36*
X010314D02*
X010247D01*
Y006143*
X010287Y00617*
X010314Y00621*
G37*
G36*
X013277D02*
X01321D01*
X013237Y00617*
X013277Y006143*
Y00621*
G37*
G36*
X013444D02*
X013377D01*
Y006143*
X013417Y00617*
X013444Y00621*
G37*
G36*
X012233D02*
X012167D01*
X012193Y00617*
X012233Y006143*
Y00621*
G37*
G36*
X0124D02*
X012333D01*
Y006143*
X012374Y00617*
X0124Y00621*
G37*
G36*
X01866D02*
X018593D01*
Y006143*
X018633Y00617*
X01866Y00621*
G37*
G36*
X024487D02*
X02442D01*
Y006143*
X02446Y00617*
X024487Y00621*
G37*
G36*
X025363D02*
X025296D01*
X025323Y00617*
X025363Y006143*
Y00621*
G37*
G36*
X023444D02*
X023377D01*
Y006143*
X023417Y00617*
X023444Y00621*
G37*
G36*
X02432D02*
X024253D01*
X02428Y00617*
X02432Y006143*
Y00621*
G37*
G36*
X026574D02*
X026507D01*
Y006143*
X026547Y00617*
X026574Y00621*
G37*
G36*
X02746D02*
X027393D01*
X02742Y00617*
X02746Y006143*
Y00621*
G37*
G36*
X02553D02*
X025463D01*
Y006143*
X025504Y00617*
X02553Y00621*
G37*
G36*
X026407D02*
X02634D01*
X026367Y00617*
X026407Y006143*
Y00621*
G37*
G36*
X023277D02*
X02321D01*
X023237Y00617*
X023277Y006143*
Y00621*
G37*
G36*
X020462D02*
X020395D01*
X020422Y00617*
X020462Y006143*
Y00621*
G37*
G36*
X020629D02*
X020562D01*
Y006143*
X020602Y00617*
X020629Y00621*
G37*
G36*
X019478D02*
X019411D01*
X019437Y00617*
X019478Y006143*
Y00621*
G37*
G36*
X019644D02*
X019578D01*
Y006143*
X019618Y00617*
X019644Y00621*
G37*
G36*
X022233D02*
X022167D01*
X022193Y00617*
X022233Y006143*
Y00621*
G37*
G36*
X0224D02*
X022333D01*
Y006143*
X022374Y00617*
X0224Y00621*
G37*
G36*
X021348D02*
X021281D01*
X021308Y00617*
X021348Y006143*
Y00621*
G37*
G36*
X021515D02*
X021448D01*
Y006143*
X021488Y00617*
X021515Y00621*
G37*
G36*
X020462Y006377D02*
X020422Y00635D01*
X020395Y00631*
X020462*
Y006377*
G37*
G36*
X025274Y00745D02*
X025207D01*
Y007383*
X025248Y00741*
X025274Y00745*
G37*
G36*
X025107Y007617D02*
X025067Y00759D01*
X025041Y00755*
X025107*
Y007617*
G37*
G36*
X020078Y007644D02*
Y007373D01*
X020349*
X020344Y007408*
X020311Y007487*
X020259Y007554*
X020191Y007607*
X020112Y007639*
X020078Y007644*
G37*
G36*
X025107Y00745D02*
X025041D01*
X025067Y00741*
X025107Y007383*
Y00745*
G37*
G36*
X010314Y0081D02*
X010247D01*
Y008033*
X010287Y008059*
X010314Y0081*
G37*
G36*
X034753Y008178D02*
X034686D01*
X034713Y008138*
X034753Y008111*
Y008178*
G37*
G36*
X025207Y007617D02*
Y00755D01*
X025274*
X025248Y00759*
X025207Y007617*
G37*
G36*
X010147Y0081D02*
X01008D01*
X010107Y008059*
X010147Y008033*
Y0081*
G37*
G36*
X019978Y007644D02*
D01*
X019943Y007639*
X019864Y007607*
X019796Y007554*
X019744Y007487*
X019718Y007424*
X019711Y007408*
X019707Y007373*
X019978*
Y007644*
G37*
G36*
X034753Y007194D02*
X034686D01*
X034713Y007154*
X034753Y007127*
Y007194*
G37*
G36*
X03492D02*
X034853D01*
Y007127*
X034893Y007154*
X03492Y007194*
G37*
G36*
X010147Y007155D02*
X01008D01*
X010107Y007115*
X010147Y007088*
Y007155*
G37*
G36*
X010314D02*
X010247D01*
Y007088*
X010287Y007115*
X010314Y007155*
G37*
G36*
X034753Y007361D02*
X034713Y007334D01*
X034686Y007294*
X034753*
Y007361*
G37*
G36*
X034853D02*
Y007294D01*
X03492*
X034893Y007334*
X034853Y007361*
G37*
G36*
X010147Y007322D02*
X010107Y007295D01*
X01008Y007255*
X010147*
Y007322*
G37*
G36*
X010247D02*
Y007255D01*
X010314*
X010287Y007295*
X010247Y007322*
G37*
G36*
X03492Y008178D02*
X034853D01*
Y008111*
X034893Y008138*
X03492Y008178*
G37*
G36*
X023641Y00869D02*
X023601Y008663D01*
X023574Y008623*
X023641*
Y00869*
G37*
G36*
X023741D02*
Y008623D01*
X023808*
X023781Y008663*
X023741Y00869*
G37*
G36*
X022263Y00867D02*
X022223Y008643D01*
X022196Y008603*
X022263*
Y00867*
G37*
G36*
X022363D02*
Y008603D01*
X02243*
X022403Y008643*
X022363Y00867*
G37*
G36*
X034753Y009163D02*
X034686D01*
X034713Y009122*
X034753Y009096*
Y009163*
G37*
G36*
X03492D02*
X034853D01*
Y009096*
X034893Y009122*
X03492Y009163*
G37*
G36*
X010147Y009084D02*
X01008D01*
X010107Y009044*
X010147Y009017*
Y009084*
G37*
G36*
X010314D02*
X010247D01*
Y009017*
X010287Y009044*
X010314Y009084*
G37*
G36*
X023808Y008523D02*
X023741D01*
Y008456*
X023781Y008483*
X023808Y008523*
G37*
G36*
X034753Y008345D02*
X034713Y008318D01*
X034686Y008278*
X034753*
Y008345*
G37*
G36*
X034853D02*
Y008278D01*
X03492*
X034893Y008318*
X034853Y008345*
G37*
G36*
X010147Y008267D02*
X010107Y00824D01*
X01008Y0082*
X010147*
Y008267*
G37*
G36*
X010247D02*
Y0082D01*
X010314*
X010287Y00824*
X010247Y008267*
G37*
G36*
X02243Y008503D02*
X022363D01*
Y008436*
X022403Y008463*
X02243Y008503*
G37*
G36*
X023641Y008523D02*
X023574D01*
X023601Y008483*
X023641Y008456*
Y008523*
G37*
G36*
X018681Y008947D02*
X017835D01*
Y008337*
X018681*
Y008445*
X01875*
Y008917*
X018681*
Y008947*
G37*
G36*
X022263Y008503D02*
X022196D01*
X022223Y008463*
X022263Y008436*
Y008503*
G37*
G36*
X026407Y006377D02*
X026367Y00635D01*
X02634Y00631*
X026407*
Y006377*
G37*
G36*
X026507D02*
Y00631D01*
X026574*
X026547Y00635*
X026507Y006377*
G37*
G36*
X025363D02*
X025323Y00635D01*
X025296Y00631*
X025363*
Y006377*
G37*
G36*
X025463D02*
Y00631D01*
X02553*
X025504Y00635*
X025463Y006377*
G37*
G36*
X028493D02*
X028453Y00635D01*
X028426Y00631*
X028493*
Y006377*
G37*
G36*
X028593D02*
Y00631D01*
X02866*
X028633Y00635*
X028593Y006377*
G37*
G36*
X02746D02*
X02742Y00635D01*
X027393Y00631*
X02746*
Y006377*
G37*
G36*
X02756D02*
Y00631D01*
X027627*
X0276Y00635*
X02756Y006377*
G37*
G36*
X02442D02*
Y00631D01*
X024487*
X02446Y00635*
X02442Y006377*
G37*
G36*
X021448D02*
Y00631D01*
X021515*
X021488Y00635*
X021448Y006377*
G37*
G36*
X022233D02*
X022193Y00635D01*
X022167Y00631*
X022233*
Y006377*
G37*
G36*
X020562D02*
Y00631D01*
X020629*
X020602Y00635*
X020562Y006377*
G37*
G36*
X021348D02*
X021308Y00635D01*
X021281Y00631*
X021348*
Y006377*
G37*
G36*
X023377D02*
Y00631D01*
X023444*
X023417Y00635*
X023377Y006377*
G37*
G36*
X02432D02*
X02428Y00635D01*
X024253Y00631*
X02432*
Y006377*
G37*
G36*
X022333D02*
Y00631D01*
X0224*
X022374Y00635*
X022333Y006377*
G37*
G36*
X023277D02*
X023237Y00635D01*
X02321Y00631*
X023277*
Y006377*
G37*
G36*
X029546D02*
X029506Y00635D01*
X02948Y00631*
X029546*
Y006377*
G37*
G36*
X010984Y007681D02*
X010861Y007669D01*
X010742Y007633*
X010632Y007574*
X010536Y007495*
X010457Y007399*
X010399Y00729*
X010363Y007171*
X01035Y007047*
X010363Y006924*
X010399Y006805*
X010457Y006695*
X010536Y006599*
X010632Y00652*
X010742Y006462*
X010861Y006426*
X010984Y006413*
X011108Y006426*
X011227Y006462*
X011336Y00652*
X011432Y006599*
X011511Y006695*
X01157Y006805*
X011606Y006924*
X011618Y007047*
X011606Y007171*
X01157Y00729*
X011511Y007399*
X011432Y007495*
X011336Y007574*
X011227Y007633*
X011108Y007669*
X010984Y007681*
G37*
G36*
X031201Y007441D02*
X030669D01*
Y006634*
X031201*
Y007441*
G37*
G36*
X034753Y006377D02*
X034713Y00635D01*
X034686Y00631*
X034753*
Y006377*
G37*
G36*
X034853D02*
Y00631D01*
X03492*
X034893Y00635*
X034853Y006377*
G37*
G36*
X019978Y007273D02*
X019707D01*
X019711Y007238*
X019744Y007159*
X019796Y007091*
X019864Y007039*
X019943Y007006*
X019978Y007002*
Y007273*
G37*
G36*
X020349D02*
X020078D01*
Y007002*
X020112Y007006*
X020191Y007039*
X020259Y007091*
X020311Y007159*
X020344Y007238*
X020349Y007273*
G37*
G36*
X022244Y007848D02*
X022098Y007829D01*
X021962Y007773*
X021845Y007683*
X021755Y007566*
X021699Y00743*
X021679Y007283*
X021699Y007137*
X021755Y007001*
X021845Y006884*
X021962Y006794*
X022098Y006738*
X022244Y006719*
X02239Y006738*
X022527Y006794*
X022643Y006884*
X022733Y007001*
X02279Y007137*
X022809Y007283*
X02279Y00743*
X022733Y007566*
X022643Y007683*
X022527Y007773*
X02239Y007829*
X022244Y007848*
G37*
G36*
X018809Y008263D02*
X018509D01*
X018386Y00814*
Y007205*
X018733Y006857*
X018731Y00685*
X019409*
X019606Y007047*
Y007466*
X018809Y008263*
G37*
G36*
X033869Y006377D02*
Y00631D01*
X033936*
X033909Y00635*
X033869Y006377*
G37*
G36*
X03068D02*
Y00631D01*
X030747*
X03072Y00635*
X03068Y006377*
G37*
G36*
X031623D02*
X031583Y00635D01*
X031556Y00631*
X031623*
Y006377*
G37*
G36*
X029646D02*
Y00631D01*
X029713*
X029687Y00635*
X029646Y006377*
G37*
G36*
X03058D02*
X03054Y00635D01*
X030513Y00631*
X03058*
Y006377*
G37*
G36*
X032767D02*
Y00631D01*
X032833*
X032807Y00635*
X032767Y006377*
G37*
G36*
X033769D02*
X033729Y00635D01*
X033702Y00631*
X033769*
Y006377*
G37*
G36*
X031723D02*
Y00631D01*
X03179*
X031763Y00635*
X031723Y006377*
G37*
G36*
X032667D02*
X032626Y00635D01*
X0326Y00631*
X032667*
Y006377*
G37*
G36*
X010247Y024999D02*
Y024932D01*
X010314*
X010287Y024972*
X010247Y024999*
G37*
G36*
X010147D02*
X010107Y024972D01*
X01008Y024932*
X010147*
Y024999*
G37*
G36*
X020482Y025305D02*
X019656D01*
Y024833*
X020482*
Y025305*
G37*
G36*
X034753Y025038D02*
X034713Y025011D01*
X034686Y024971*
X034753*
Y025038*
G37*
G36*
Y020974D02*
X034686D01*
X034713Y020933*
X034753Y020907*
Y020974*
G37*
G36*
X03492D02*
X034853D01*
Y020907*
X034893Y020933*
X03492Y020974*
G37*
G36*
X034853Y025038D02*
Y024971D01*
X03492*
X034893Y025011*
X034853Y025038*
G37*
G36*
X03492Y024871D02*
X034853D01*
Y024804*
X034893Y024831*
X03492Y024871*
G37*
G36*
X033119Y02484D02*
X033056Y024831D01*
X032951Y024788*
X03286Y024718*
X032791Y024628*
X032747Y024523*
X032739Y024459*
X033119*
Y02484*
G37*
G36*
X034853Y024093D02*
Y024026D01*
X03492*
X034893Y024067*
X034853Y024093*
G37*
G36*
X034753D02*
X034713Y024067D01*
X034686Y024026*
X034753*
Y024093*
G37*
G36*
X033219Y02484D02*
Y024459D01*
X0336*
X033591Y024523*
X033548Y024628*
X033478Y024718*
X033388Y024788*
X033282Y024831*
X033219Y02484*
G37*
G36*
X034753Y024871D02*
X034686D01*
X034713Y024831*
X034753Y024804*
Y024871*
G37*
G36*
X010314Y024832D02*
X010247D01*
Y024765*
X010287Y024792*
X010314Y024832*
G37*
G36*
X010147D02*
X01008D01*
X010107Y024792*
X010147Y024765*
Y024832*
G37*
G36*
X010314Y020895D02*
X010247D01*
Y020828*
X010287Y020855*
X010314Y020895*
G37*
G36*
X014084Y025816D02*
X014017D01*
X014044Y025776*
X014084Y025749*
Y025816*
G37*
G36*
X013267D02*
X0132D01*
Y025749*
X01324Y025776*
X013267Y025816*
G37*
G36*
X0131D02*
X013033D01*
X013059Y025776*
X0131Y025749*
Y025816*
G37*
G36*
X014251D02*
X014184D01*
Y025749*
X014224Y025776*
X014251Y025816*
G37*
G36*
X015974D02*
X015907D01*
X015934Y025776*
X015974Y025749*
Y025816*
G37*
G36*
X015235D02*
X015168D01*
Y025749*
X015208Y025776*
X015235Y025816*
G37*
G36*
X015068D02*
X015001D01*
X015028Y025776*
X015068Y025749*
Y025816*
G37*
G36*
X012282D02*
X012215D01*
Y025749*
X012255Y025776*
X012282Y025816*
G37*
G36*
X010147D02*
X01008D01*
X010107Y025776*
X010147Y025749*
Y025816*
G37*
G36*
X031339Y025669D02*
X023858D01*
X023465Y025276*
X023187*
X023176Y025328*
X023135Y025389*
X023074Y02543*
X023002Y025445*
X02293Y02543*
X022869Y025389*
X022828Y025328*
X022817Y025276*
X021762*
X021033Y024547*
X020738*
Y024286*
X020428*
X020079Y024636*
X019045*
X018839Y024843*
X018494*
X018007Y024355*
X017224*
X01563Y022761*
Y020472*
X01503Y019872*
X014459*
X013676Y01909*
X013499*
Y020246*
X013809Y020556*
X01471*
X015187Y021033*
Y021381*
X014744Y021824*
Y022854*
X014385Y023214*
X01408*
X013848Y023445*
Y023559*
X013898Y023586*
X013943Y023556*
X014035Y023538*
X014128Y023556*
X014206Y023609*
X014259Y023687*
X014277Y02378*
X014259Y023872*
X014206Y023951*
X014128Y024003*
X014035Y024021*
X013943Y024003*
X013898Y023973*
X013848Y024*
Y024419*
X013455Y024813*
X013445*
Y025167*
X012815*
Y024813*
X01253*
X012104Y024387*
Y023908*
X01208Y023872*
X012061Y02378*
X01208Y023687*
X012104Y023651*
Y023425*
X011772*
Y023136*
X011713*
X011153Y022577*
Y02253*
X011152Y02248*
X010876*
Y021575*
X010939*
X010958Y021529*
X010591Y021161*
Y020394*
X010939Y020045*
X010922Y019998*
X010861Y019992*
X010742Y019956*
X010632Y019897*
X010536Y019818*
X010457Y019722*
X010399Y019613*
X010363Y019494*
X01035Y01937*
X010363Y019246*
X010399Y019127*
X010457Y019018*
X010536Y018922*
X010632Y018843*
X010742Y018784*
X010861Y018748*
X010984Y018736*
X011108Y018748*
X011141Y018758*
X011181Y018729*
Y017835*
X01064Y017293*
Y01562*
X010906Y015354*
X011181*
X01124Y015295*
X010955*
Y015*
X01124*
Y01378*
X011132Y013671*
X010709*
X01064Y013602*
Y013533*
X01063Y013525*
X010558Y013511*
X010497Y01347*
X010456Y013409*
X010441Y013337*
X010456Y013264*
X010497Y013203*
X010558Y013162*
X01063Y013148*
X01064Y01314*
Y012559*
X010699Y0125*
X011388*
X011506Y012382*
X011585*
Y012018*
X012274*
Y012382*
X012293*
X012392Y012283*
X012589*
X012756Y012451*
Y012657*
X012638Y012776*
X012392*
Y015148*
X012323Y015217*
X012224*
Y015226*
X011929*
Y015326*
X012224*
Y015335*
X012205*
X012323*
X013242Y014415*
X013238Y014416*
X013166Y014402*
X013105Y014361*
X013064Y0143*
X01305Y014227*
X013064Y014155*
X013105Y014094*
X013166Y014053*
X013238Y014039*
X01331Y014053*
X013372Y014094*
X013412Y014155*
X013427Y014227*
X013426Y014231*
X013573Y014085*
Y012657*
X01312Y012205*
Y011988*
X013022Y01189*
X012431*
X012333Y011791*
Y010807*
X011939Y010413*
X010974*
X01064Y010079*
Y008415*
X012205Y00685*
X012399*
X012417Y006806*
X012459Y006752*
X012512Y006711*
X012575Y006685*
X012642Y006676*
X012709Y006685*
X012771Y006711*
X012825Y006752*
X012866Y006806*
X012885Y00685*
X012899*
X012917Y006806*
X012959Y006752*
X013012Y006711*
X013075Y006685*
X013142Y006676*
X013209Y006685*
X013271Y006711*
X013325Y006752*
X013366Y006806*
X013385Y00685*
X013462*
X0135Y006793*
X013565Y00675*
X013592Y006744*
Y006935*
X013692*
Y006744*
X013719Y00675*
X013784Y006793*
X013822Y00685*
X013962*
X014Y006793*
X014065Y00675*
X014092Y006744*
Y006935*
X014192*
Y006744*
X014219Y00675*
X014284Y006793*
X014322Y00685*
X014399*
X014417Y006806*
X014459Y006752*
X014512Y006711*
X014575Y006685*
X014642Y006676*
X014709Y006685*
X014771Y006711*
X014825Y006752*
X014866Y006806*
X014885Y00685*
X015128*
X015125Y006857*
X015472Y007205*
Y009567*
X015709Y009803*
X016968*
X017205Y009567*
Y009173*
X017303Y009075*
Y00876*
X017657*
Y009011*
X01779Y009144*
X018612*
X019686Y00807*
X019999*
X02Y008071*
X020787*
X021181Y008465*
X021339Y008622*
Y008986*
X021132Y009193*
X021014*
Y009439*
X020659*
Y009193*
X02061*
X020472Y009055*
X019724*
X019498Y009281*
X020256*
Y00939*
X020325*
Y009862*
X020256*
Y009892*
X019498*
X019606Y01*
X019882*
X020044Y010162*
Y01031*
X019941Y010413*
Y013051*
Y01315*
X020384*
Y013957*
X019862*
Y013406*
X019528Y01374*
Y014173*
X019306Y014395*
X018669*
X018516Y014547*
Y0155*
X018652Y015635*
X018809*
X018949Y015775*
Y016112*
X019037Y0162*
X019341*
Y015876*
X019675*
Y0162*
X019695*
X019823Y016071*
Y015954*
X019683Y015813*
X019248*
X019119Y015684*
Y015468*
X019232Y015354*
X019882*
X020669Y016142*
Y016457*
Y016496*
X020827Y016654*
X021457*
X021575Y016772*
X02189*
Y017126*
X021634*
Y017697*
X021841Y017904*
X022392*
X022505Y01779*
Y017062*
X022795Y016772*
Y015197*
Y015079*
X023701Y014173*
Y011102*
X023929Y010874*
X023898Y010894*
Y010778*
Y010661*
X023937Y010686*
Y010318*
X02393Y010322*
X023858Y010336*
X023786Y010322*
X023725Y010281*
X023684Y01022*
X02367Y010148*
X023684Y010075*
X023725Y010014*
X023786Y009973*
X023858Y009959*
X02393Y009973*
X023937Y009978*
Y009803*
Y007244*
X023819Y007126*
X023622Y006929*
Y006457*
X023849*
X023853Y006451*
X023914Y00641*
X023986Y006396*
X024058Y00641*
X02412Y006451*
X024123Y006457*
X024606*
X024759Y006609*
Y007638*
X025069*
Y007901*
X025226*
Y007638*
X025581*
Y007901*
X025719*
X025968Y007651*
Y007496*
X026417Y007047*
X027008Y006457*
X029951*
X030539Y007045*
Y007473*
X030945Y007879*
X031083*
Y007628*
X031437*
Y007879*
X031585*
Y007628*
X031939*
Y007697*
X032421Y007215*
X033106*
X033116Y007137*
X033172Y007001*
X033262Y006884*
X033379Y006794*
X033515Y006738*
X033661Y006719*
X033808Y006738*
X033944Y006794*
X034061Y006884*
X034151Y007001*
X034207Y007137*
X034226Y007283*
X034207Y00743*
X034151Y007566*
X034061Y007683*
X033944Y007773*
X033867Y007804*
X034409Y008346*
Y011693*
X034209Y011894*
X033563*
X033353Y012103*
Y012802*
X033048Y013107*
X032421*
X03229Y013238*
Y013546*
X032874Y01413*
X034209*
X034409Y014331*
Y020852*
X034209Y021053*
X03253*
X032244Y021339*
Y024764*
X031339Y025669*
G37*
G36*
X010147Y020895D02*
X01008D01*
X010107Y020855*
X010147Y020828*
Y020895*
G37*
G36*
X010314Y025816D02*
X010247D01*
Y025749*
X010287Y025776*
X010314Y025816*
G37*
G36*
X012115D02*
X012048D01*
X012075Y025776*
X012115Y025749*
Y025816*
G37*
G36*
X011298D02*
X011231D01*
Y025749*
X011271Y025776*
X011298Y025816*
G37*
G36*
X011131D02*
X011064D01*
X011091Y025776*
X011131Y025749*
Y025816*
G37*
G36*
X0336Y024359D02*
X033219D01*
Y023979*
X033282Y023988*
X033388Y024031*
X033478Y024101*
X033548Y024191*
X033591Y024296*
X0336Y024359*
G37*
G36*
X010147Y022863D02*
X01008D01*
X010107Y022823*
X010147Y022796*
Y022863*
G37*
G36*
X033119Y022123D02*
X033056Y022115D01*
X032951Y022071*
X03286Y022002*
X032791Y021911*
X032747Y021806*
X032739Y021743*
X033119*
Y022123*
G37*
G36*
X034853Y022125D02*
Y022058D01*
X03492*
X034893Y022098*
X034853Y022125*
G37*
G36*
X010314Y022863D02*
X010247D01*
Y022796*
X010287Y022823*
X010314Y022863*
G37*
G36*
X010147Y02303D02*
X010107Y023004D01*
X01008Y022963*
X010147*
Y02303*
G37*
G36*
X03492Y022942D02*
X034853D01*
Y022875*
X034893Y022902*
X03492Y022942*
G37*
G36*
X034753D02*
X034686D01*
X034713Y022902*
X034753Y022875*
Y022942*
G37*
G36*
Y022125D02*
X034713Y022098D01*
X034686Y022058*
X034753*
Y022125*
G37*
G36*
Y021958D02*
X034686D01*
X034713Y021918*
X034753Y021891*
Y021958*
G37*
G36*
X03492D02*
X034853D01*
Y021891*
X034893Y021918*
X03492Y021958*
G37*
G36*
X010147Y022046D02*
X010107Y022019D01*
X01008Y021979*
X010147*
Y022046*
G37*
G36*
X010314Y021879D02*
X010247D01*
Y021812*
X010287Y021839*
X010314Y021879*
G37*
G36*
X010247Y022046D02*
Y021979D01*
X010314*
X010287Y022019*
X010247Y022046*
G37*
G36*
X033219Y022123D02*
Y021743D01*
X0336*
X033591Y021806*
X033548Y021911*
X033478Y022002*
X033388Y022071*
X033282Y022115*
X033219Y022123*
G37*
G36*
X010147Y021879D02*
X01008D01*
X010107Y021839*
X010147Y021812*
Y021879*
G37*
G36*
X010247Y02303D02*
Y022963D01*
X010314*
X010287Y023004*
X010247Y02303*
G37*
G36*
X033119Y024359D02*
X032739D01*
X032747Y024296*
X032791Y024191*
X03286Y024101*
X032951Y024031*
X033056Y023988*
X033119Y023979*
Y024359*
G37*
G36*
X010247Y024015D02*
Y023948D01*
X010314*
X010287Y023988*
X010247Y024015*
G37*
G36*
X010147D02*
X010107Y023988D01*
X01008Y023948*
X010147*
Y024015*
G37*
G36*
X034853Y021141D02*
Y021074D01*
X03492*
X034893Y021114*
X034853Y021141*
G37*
G36*
X010147Y021062D02*
X010107Y021035D01*
X01008Y020995*
X010147*
Y021062*
G37*
G36*
X010247D02*
Y020995D01*
X010314*
X010287Y021035*
X010247Y021062*
G37*
G36*
X034753Y021141D02*
X034713Y021114D01*
X034686Y021074*
X034753*
Y021141*
G37*
G36*
X03492Y023926D02*
X034853D01*
Y023859*
X034893Y023886*
X03492Y023926*
G37*
G36*
X034753Y023109D02*
X034713Y023082D01*
X034686Y023042*
X034753*
Y023109*
G37*
G36*
X033119Y021643D02*
X032739D01*
X032747Y02158*
X032791Y021475*
X03286Y021384*
X032951Y021315*
X033056Y021271*
X033119Y021263*
Y021643*
G37*
G36*
X0336D02*
X033219D01*
Y021263*
X033282Y021271*
X033388Y021315*
X033478Y021384*
X033548Y021475*
X033591Y02158*
X0336Y021643*
G37*
G36*
X034853Y023109D02*
Y023042D01*
X03492*
X034893Y023082*
X034853Y023109*
G37*
G36*
X034753Y023926D02*
X034686D01*
X034713Y023886*
X034753Y023859*
Y023926*
G37*
G36*
X010314Y023848D02*
X010247D01*
Y023781*
X010287Y023808*
X010314Y023848*
G37*
G36*
X010147D02*
X01008D01*
X010107Y023808*
X010147Y023781*
Y023848*
G37*
G36*
X016141Y025816D02*
X016074D01*
Y025749*
X016114Y025776*
X016141Y025816*
G37*
G36*
X016938Y025983D02*
X016898Y025956D01*
X016871Y025916*
X016938*
Y025983*
G37*
G36*
X011131D02*
X011091Y025956D01*
X011064Y025916*
X011131*
Y025983*
G37*
G36*
X017863D02*
X017823Y025956D01*
X017796Y025916*
X017863*
Y025983*
G37*
G36*
X017038D02*
Y025916D01*
X017105*
X017078Y025956*
X017038Y025983*
G37*
G36*
X015974D02*
X015934Y025956D01*
X015907Y025916*
X015974*
Y025983*
G37*
G36*
X018808D02*
X018768Y025956D01*
X018741Y025916*
X018808*
Y025983*
G37*
G36*
X011231D02*
Y025916D01*
X011298*
X011271Y025956*
X011231Y025983*
G37*
G36*
X016074D02*
Y025916D01*
X016141*
X016114Y025956*
X016074Y025983*
G37*
G36*
X017963D02*
Y025916D01*
X01803*
X018004Y025956*
X017963Y025983*
G37*
G36*
X033808Y025816D02*
X033741D01*
X033768Y025776*
X033808Y025749*
Y025816*
G37*
G36*
X033975D02*
X033908D01*
Y025749*
X033948Y025776*
X033975Y025816*
G37*
G36*
X032863D02*
X032796D01*
X032823Y025776*
X032863Y025749*
Y025816*
G37*
G36*
X03303D02*
X032963D01*
Y025749*
X033004Y025776*
X03303Y025816*
G37*
G36*
X010147Y025983D02*
X010107Y025956D01*
X01008Y025916*
X010147*
Y025983*
G37*
G36*
X010247D02*
Y025916D01*
X010314*
X010287Y025956*
X010247Y025983*
G37*
G36*
X034753Y025816D02*
X034686D01*
X034713Y025776*
X034753Y025749*
Y025816*
G37*
G36*
X03492D02*
X034853D01*
Y025749*
X034893Y025776*
X03492Y025816*
G37*
G36*
X014084Y025983D02*
X014044Y025956D01*
X014017Y025916*
X014084*
Y025983*
G37*
G36*
X014184D02*
Y025916D01*
X014251*
X014224Y025956*
X014184Y025983*
G37*
G36*
X0131D02*
X013059Y025956D01*
X013033Y025916*
X0131*
Y025983*
G37*
G36*
X0132D02*
Y025916D01*
X013267*
X01324Y025956*
X0132Y025983*
G37*
G36*
X021643D02*
X021603Y025956D01*
X021576Y025916*
X021643*
Y025983*
G37*
G36*
X020778D02*
Y025916D01*
X020845*
X020818Y025956*
X020778Y025983*
G37*
G36*
X015068D02*
X015028Y025956D01*
X015001Y025916*
X015068*
Y025983*
G37*
G36*
X015168D02*
Y025916D01*
X015235*
X015208Y025956*
X015168Y025983*
G37*
G36*
X012215D02*
Y025916D01*
X012282*
X012255Y025956*
X012215Y025983*
G37*
G36*
X019853D02*
Y025916D01*
X01992*
X019893Y025956*
X019853Y025983*
G37*
G36*
X020678D02*
X020638Y025956D01*
X020611Y025916*
X020678*
Y025983*
G37*
G36*
X018908D02*
Y025916D01*
X018975*
X018948Y025956*
X018908Y025983*
G37*
G36*
X019753D02*
X019713Y025956D01*
X019686Y025916*
X019753*
Y025983*
G37*
G36*
X021743D02*
Y025916D01*
X02181*
X021783Y025956*
X021743Y025983*
G37*
G36*
X012115D02*
X012075Y025956D01*
X012048Y025916*
X012115*
Y025983*
G37*
G36*
X022688D02*
Y025916D01*
X022755*
X022728Y025956*
X022688Y025983*
G37*
G36*
X022588D02*
X022548Y025956D01*
X022521Y025916*
X022588*
Y025983*
G37*
G36*
X032046Y025816D02*
X031979D01*
Y025749*
X032019Y025776*
X032046Y025816*
G37*
G36*
X032963Y025983D02*
Y025916D01*
X03303*
X033004Y025956*
X032963Y025983*
G37*
G36*
X018975Y025816D02*
X018908D01*
Y025749*
X018948Y025776*
X018975Y025816*
G37*
G36*
X033808Y025983D02*
X033768Y025956D01*
X033741Y025916*
X033808*
Y025983*
G37*
G36*
X019753Y025816D02*
X019686D01*
X019713Y025776*
X019753Y025749*
Y025816*
G37*
G36*
X031879Y025983D02*
X031839Y025956D01*
X031812Y025916*
X031879*
Y025983*
G37*
G36*
X023633D02*
Y025916D01*
X0237*
X023673Y025956*
X023633Y025983*
G37*
G36*
X032863D02*
X032823Y025956D01*
X032796Y025916*
X032863*
Y025983*
G37*
G36*
X031979D02*
Y025916D01*
X032046*
X032019Y025956*
X031979Y025983*
G37*
G36*
X01992Y025816D02*
X019853D01*
Y025749*
X019893Y025776*
X01992Y025816*
G37*
G36*
X02181D02*
X021743D01*
Y025749*
X021783Y025776*
X02181Y025816*
G37*
G36*
X022588D02*
X022521D01*
X022548Y025776*
X022588Y025749*
Y025816*
G37*
G36*
X020845D02*
X020778D01*
Y025749*
X020818Y025776*
X020845Y025816*
G37*
G36*
X021643D02*
X021576D01*
X021603Y025776*
X021643Y025749*
Y025816*
G37*
G36*
X034753Y025983D02*
X034713Y025956D01*
X034686Y025916*
X034753*
Y025983*
G37*
G36*
X033908D02*
Y025916D01*
X033975*
X033948Y025956*
X033908Y025983*
G37*
G36*
X020678Y025816D02*
X020611D01*
X020638Y025776*
X020678Y025749*
Y025816*
G37*
G36*
X034853Y025983D02*
Y025916D01*
X03492*
X034893Y025956*
X034853Y025983*
G37*
G36*
X031879Y025816D02*
X031812D01*
X031839Y025776*
X031879Y025749*
Y025816*
G37*
G36*
X01803D02*
X017963D01*
Y025749*
X018004Y025776*
X01803Y025816*
G37*
G36*
X022755D02*
X022688D01*
Y025749*
X022728Y025776*
X022755Y025816*
G37*
G36*
X017863D02*
X017796D01*
X017823Y025776*
X017863Y025749*
Y025816*
G37*
G36*
X023533D02*
X023466D01*
X023493Y025776*
X023533Y025749*
Y025816*
G37*
G36*
X018808D02*
X018741D01*
X018768Y025776*
X018808Y025749*
Y025816*
G37*
G36*
X017105D02*
X017038D01*
Y025749*
X017078Y025776*
X017105Y025816*
G37*
G36*
X0237D02*
X023633D01*
Y025749*
X023673Y025776*
X0237Y025816*
G37*
G36*
X023533Y025983D02*
X023493Y025956D01*
X023466Y025916*
X023533*
Y025983*
G37*
G36*
X016938Y025816D02*
X016871D01*
X016898Y025776*
X016938Y025749*
Y025816*
G37*
%LNee4951_bpm_reva-3*%
%LPD*%
G36*
X031634Y024852D02*
Y023976D01*
X030148Y02249*
X03013*
Y022557*
X029776*
Y022607*
X029726*
Y022725*
X029506*
X029862Y023081*
Y023661*
X029707Y023816*
X029023*
X028942Y023898*
Y024218*
X028809Y02435*
X027657*
X027303Y024705*
X025817*
X025819Y024715*
X025804Y024787*
X025763Y024848*
X025702Y024889*
X02563Y024903*
X025558Y024889*
X025497Y024848*
X025456Y024787*
X025441Y024715*
X025456Y024642*
X025465Y024628*
X025315Y024478*
X024134*
X024035Y02438*
X023792*
Y024447*
X023437*
Y024497*
X023387*
Y024615*
X023325*
X024055Y025344*
X031142*
X031634Y024852*
G37*
G36*
X013642Y024341D02*
Y024281D01*
Y023789*
X013504Y023652*
X012687*
X012589Y02375*
Y023848*
X012421Y024016*
Y02437*
X01249Y024439*
X012854*
Y024322*
X01313*
X013406*
Y024439*
X013543*
X013642Y024341*
G37*
G36*
X01501Y017205D02*
X015038Y017176D01*
Y017164*
X01505*
X015108Y017106*
X01564*
X015738Y017008*
Y016614*
X015384Y01626*
Y013504*
X015285Y013406*
X015079*
X01498Y013504*
Y014114*
X013287Y015807*
X013301Y01581*
X013362Y015851*
X013403Y015912*
X013417Y015984*
X013403Y016056*
X013362Y016118*
X013301Y016159*
X013228Y016173*
X013156Y016159*
X013095Y016118*
X013054Y016056*
X013051Y016043*
X012815Y01628*
Y016378*
X013504Y017067*
X014252*
X01435Y016968*
Y01685*
X014478Y016722*
X014675*
X014813Y01686*
Y016988*
Y016998*
X014848Y017033*
X014843Y017008*
X014853Y016959*
X01488Y016918*
X01492Y016891*
Y017008*
X01497*
Y017058*
X015087*
X015061Y017098*
X015019Y017126*
X01497Y017135*
X014929Y017127*
X014987Y017224*
X01501*
Y017205*
G37*
G36*
X026506Y015335D02*
D01*
Y015138*
X0269Y014744*
X028376*
X028474Y014646*
Y013996*
X028356Y013878*
X026486*
X026289Y014075*
Y014665*
X026093Y014862*
X025863Y015091*
X025986*
X026054Y0151*
X026118Y015127*
X026153Y015154*
X026187*
Y015188*
X026214Y015223*
X02624Y015286*
X026249Y015354*
X02624Y015422*
X026214Y015486*
X026187Y015521*
Y015551*
X026289*
X026506Y015335*
G37*
G36*
X034232Y020778D02*
X034262Y020748D01*
Y020256*
Y017992*
X03315Y01688*
X030768*
X030502Y017146*
X029104*
X028878Y017372*
X028209*
X028022Y017185*
X027392*
X027165Y017411*
Y017462*
X027467*
Y01758*
Y017698*
X027165*
Y017795*
X027362Y017992*
X027657*
X027913Y018248*
X029193*
X02939Y018445*
X031742*
X031929Y018632*
Y018927*
X032657Y019656*
Y020846*
X034163*
X034232Y020778*
G37*
G36*
X024892Y017953D02*
Y017854D01*
X024793Y017756*
Y017569*
X024734Y01751*
X024341*
X023986Y017864*
Y018061*
X024124Y018199*
X024774*
X024892Y017953*
G37*
G36*
X031969Y022156D02*
Y021171D01*
X032461Y020679*
Y020285*
Y019695*
X032165Y0194*
X030394*
X029803Y01999*
X029016*
X028917Y019892*
X027677*
X02747Y020098*
X026683*
X026624Y020157*
X024065*
X023644Y020579*
X023639Y020604*
X023598Y020665*
X023573Y020682*
Y02125*
X02376Y021437*
X024833*
Y021299*
X02494*
Y021476*
X02504*
Y021299*
X025148*
Y021427*
X025236Y021339*
Y020945*
X02561Y020571*
X025866*
X025925Y02063*
X026024Y020728*
Y021024*
X025925Y021122*
Y021238*
X026265*
Y021689*
X026365*
Y021238*
X026715*
Y021248*
X026841Y021122*
X027217*
X027213Y021102*
X027227Y02103*
X027268Y020969*
X027329Y020928*
X027402Y020914*
X027474Y020928*
X027535Y020969*
X027576Y02103*
X02759Y021102*
X027576Y021175*
X027535Y021236*
X027482Y021271*
X027571Y021361*
X027574Y021363*
X027576Y021366*
X027628Y021417*
X027687*
X027697Y021418*
Y021389*
X027972*
X028248*
Y021433*
X028401Y021437*
X028809Y021845*
X029916*
X030571Y0225*
X030817Y022746*
X031378*
X031969Y022156*
G37*
G36*
X028297Y015866D02*
X027677D01*
Y015354*
X028307*
Y015856*
X028524Y01564*
Y015344*
X02813Y014951*
X026919*
X026654Y015217*
Y015344*
X026752Y015443*
X027047*
X027441Y015837*
X027638Y016033*
X02813*
X028297Y015866*
G37*
G36*
X025148Y011496D02*
X026161D01*
Y011348*
X025138*
Y011004*
X026161*
Y010512*
X024783*
Y01189*
X025148*
Y011496*
G37*
G36*
X025472Y014488D02*
Y014282D01*
Y013888*
X026014Y013346*
X025148*
Y013002*
X026063*
Y012844*
X025148*
Y012559*
X024882*
X024685Y012756*
Y013809*
X025049*
Y014587*
X025374*
X025472Y014488*
G37*
G36*
X028858Y011535D02*
X028976Y011417D01*
Y011043*
X026535*
X026407Y011171*
X026319Y01126*
Y011378*
Y01187*
X026122Y012067*
X026063*
Y012125*
X02563*
Y012225*
X026063*
Y012293*
X026122*
X026299Y01247*
Y013002*
X026496Y013199*
X028858*
Y011535*
G37*
G36*
X030512Y016654D02*
Y015177D01*
X030217Y014882*
Y015383*
X029665*
Y015433*
X029615*
Y016476*
X029604*
X029606Y016477*
X029647Y016504*
X029674Y016544*
X02944*
X029467Y016504*
X029508Y016477*
X02951Y016476*
X029114*
X029409Y016772*
X030394*
X030512Y016654*
G37*
G36*
X033091Y016476D02*
Y015483D01*
X033642*
Y015383*
X033091*
Y01439*
X032923*
X032136Y013602*
X03185*
X031053Y0144*
Y014715*
X031142Y014803*
X031644*
X032037Y015197*
Y016083*
X032136Y016181*
X032431Y016476*
X033041*
X033091*
G37*
G36*
X02752Y024232D02*
X028504D01*
X028553Y024183*
Y024108*
X028526*
Y023913*
Y023719*
X028553*
Y023593*
X028474Y023514*
Y023494*
X027392*
X027293Y023396*
X026604*
X026461Y023539*
X026482Y023589*
X026765*
Y024039*
X026815*
Y024089*
X027215*
Y024467*
X027265Y024487*
X02752Y024232*
G37*
G36*
X0319Y016024D02*
Y015236D01*
X031604Y014941*
X031083*
X030945Y014803*
Y014311*
X031348Y013907*
Y013366*
X031053Y013071*
Y012677*
X030709Y012333*
Y01187*
X03067*
Y011575*
X03057*
Y01187*
X030531*
Y011929*
X030423Y012037*
Y012067*
Y014823*
X030719Y015118*
Y016004*
X030915Y016201*
X031722*
X0319Y016024*
G37*
%LNee4951_bpm_reva-4*%
%LPC*%
G36*
X028296Y023863D02*
X028267D01*
Y023719*
X028296*
Y023863*
G37*
G36*
X028167D02*
X028137D01*
Y023719*
X028167*
Y023863*
G37*
G36*
X028036D02*
X028007D01*
Y023719*
X028036*
Y023863*
G37*
G36*
X025895Y010855D02*
X025855Y010828D01*
X025828Y010788*
X025895*
Y010855*
G37*
G36*
X025995D02*
Y010788D01*
X026062*
X026035Y010828*
X025995Y010855*
G37*
G36*
X028426Y023863D02*
X028397D01*
Y023719*
X028426*
Y023863*
G37*
G36*
X024911Y011131D02*
X024844D01*
X024871Y011091*
X024911Y011064*
Y011131*
G37*
G36*
X025078D02*
X025011D01*
Y011064*
X025051Y011091*
X025078Y011131*
G37*
G36*
X025403Y010855D02*
X025363Y010828D01*
X025336Y010788*
X025403*
Y010855*
G37*
G36*
X025503D02*
Y010788D01*
X02557*
X025543Y010828*
X025503Y010855*
G37*
G36*
X027907Y023863D02*
X027877D01*
Y023719*
X027907*
Y023863*
G37*
G36*
X027215Y023989D02*
X026865D01*
Y023589*
X027215*
Y023989*
G37*
G36*
X024911Y011623D02*
X024844D01*
X024871Y011583*
X024911Y011556*
Y011623*
G37*
G36*
X025078D02*
X025011D01*
Y011556*
X025051Y011583*
X025078Y011623*
G37*
G36*
X028611Y011712D02*
X028544D01*
X028571Y011672*
X028611Y011645*
Y011712*
G37*
G36*
X028504Y012125D02*
X028121D01*
Y011486*
X028504*
Y012125*
G37*
G36*
X028611Y011465D02*
X028571Y011439D01*
X028544Y011398*
X028611*
Y011465*
G37*
G36*
X028711D02*
Y011398D01*
X028778*
X028752Y011439*
X028711Y011465*
G37*
G36*
X028021Y012125D02*
X027638D01*
Y011486*
X028021*
Y012125*
G37*
G36*
X028711Y011879D02*
Y011812D01*
X028778*
X028752Y011852*
X028711Y011879*
G37*
G36*
X030324Y022164D02*
X030284Y022137D01*
X030257Y022097*
X030324*
Y022164*
G37*
G36*
X030491Y021997D02*
X030424D01*
Y02193*
X030464Y021957*
X030491Y021997*
G37*
G36*
X028611Y011879D02*
X028571Y011852D01*
X028544Y011812*
X028611*
Y011879*
G37*
G36*
X028778Y011712D02*
X028711D01*
Y011645*
X028752Y011672*
X028778Y011712*
G37*
G36*
X024911Y01179D02*
X024871Y011763D01*
X024844Y011723*
X024911*
Y01179*
G37*
G36*
X025011D02*
Y011723D01*
X025078*
X025051Y011763*
X025011Y01179*
G37*
G36*
X027785Y011298D02*
X027718D01*
X027745Y011258*
X027785Y011231*
Y011298*
G37*
G36*
X027952D02*
X027885D01*
Y011231*
X027925Y011258*
X027952Y011298*
G37*
G36*
X028198D02*
X028131D01*
X028158Y011258*
X028198Y011231*
Y011298*
G37*
G36*
X030424Y022164D02*
Y022097D01*
X030491*
X030464Y022137*
X030424Y022164*
G37*
G36*
X03013Y022725D02*
X029826D01*
Y022657*
X03013*
Y022725*
G37*
G36*
X024911Y011298D02*
X024871Y011271D01*
X024844Y011231*
X024911*
Y011298*
G37*
G36*
X025011D02*
Y011231D01*
X025078*
X025051Y011271*
X025011Y011298*
G37*
G36*
X027885Y011465D02*
Y011398D01*
X027952*
X027925Y011439*
X027885Y011465*
G37*
G36*
X028198D02*
X028158Y011439D01*
X028131Y011398*
X028198*
Y011465*
G37*
G36*
X028298D02*
Y011398D01*
X028365*
X028338Y011439*
X028298Y011465*
G37*
G36*
X027785D02*
X027745Y011439D01*
X027718Y011398*
X027785*
Y011465*
G37*
G36*
X028365Y011298D02*
X028298D01*
Y011231*
X028338Y011258*
X028365Y011298*
G37*
G36*
X028611D02*
X028544D01*
X028571Y011258*
X028611Y011231*
Y011298*
G37*
G36*
X028778D02*
X028711D01*
Y011231*
X028752Y011258*
X028778Y011298*
G37*
G36*
X025011Y010845D02*
Y010778D01*
X025078*
X025051Y010818*
X025011Y010845*
G37*
G36*
X029152Y024822D02*
X029085D01*
Y024755*
X029126Y024782*
X029152Y024822*
G37*
G36*
X024044Y024861D02*
X023978D01*
X024004Y024821*
X024044Y024794*
Y024861*
G37*
G36*
X027794Y024822D02*
X027727D01*
Y024755*
X027767Y024782*
X027794Y024822*
G37*
G36*
X028985D02*
X028919D01*
X028945Y024782*
X028985Y024755*
Y024822*
G37*
G36*
X027727Y024989D02*
Y024922D01*
X027794*
X027767Y024962*
X027727Y024989*
G37*
G36*
X028985D02*
X028945Y024962D01*
X028919Y024922*
X028985*
Y024989*
G37*
G36*
X024211Y024861D02*
X024144D01*
Y024794*
X024185Y024821*
X024211Y024861*
G37*
G36*
X027627Y024989D02*
X027587Y024962D01*
X02756Y024922*
X027627*
Y024989*
G37*
G36*
X023792Y024615D02*
X023487D01*
Y024547*
X023792*
Y024615*
G37*
G36*
X027637Y024664D02*
X027597Y024637D01*
X02757Y024597*
X027637*
Y024664*
G37*
G36*
X030954Y024843D02*
X030571D01*
Y024459*
X030954*
Y024843*
G37*
G36*
X031437D02*
X031054D01*
Y024459*
X031437*
Y024843*
G37*
G36*
X029085Y024664D02*
Y024597D01*
X029152*
X029126Y024637*
X029085Y024664*
G37*
G36*
X027627Y024822D02*
X02756D01*
X027587Y024782*
X027627Y024755*
Y024822*
G37*
G36*
X027737Y024664D02*
Y024597D01*
X027804*
X027777Y024637*
X027737Y024664*
G37*
G36*
X028985D02*
X028945Y024637D01*
X028919Y024597*
X028985*
Y024664*
G37*
G36*
X029085Y024989D02*
Y024922D01*
X029152*
X029126Y024962*
X029085Y024989*
G37*
G36*
X024606Y025284D02*
X024565Y025257D01*
X024539Y025217*
X024606*
Y025284*
G37*
G36*
X024706D02*
Y025217D01*
X024772*
X024746Y025257*
X024706Y025284*
G37*
G36*
X02817Y025314D02*
Y025197D01*
X02807*
Y025314*
X02803Y025287*
X028002Y025246*
X028001Y025238*
X027877*
Y025139*
X027957*
Y025039*
X027877*
Y024939*
X027906*
Y024745*
X028296*
Y025034*
Y025039*
X028217*
Y025139*
X028296*
Y025238*
X028239*
X028238Y025246*
X02821Y025287*
X02817Y025314*
G37*
G36*
X028643D02*
Y025197D01*
X028543*
Y025314*
X028502Y025287*
X028475Y025246*
X028473Y025238*
X028397*
Y025139*
X028476*
Y025039*
X028397*
Y025034*
X028396*
Y024745*
X028786*
Y024939*
X028816*
Y025039*
X028736*
Y025139*
X028816*
Y025238*
X028712*
X02871Y025246*
X028683Y025287*
X028643Y025314*
G37*
G36*
X028985D02*
X028945Y025287D01*
X028919Y025247*
X028985*
Y025314*
G37*
G36*
X029085D02*
Y025247D01*
X029152*
X029126Y025287*
X029085Y025314*
G37*
G36*
X027627D02*
X027587Y025287D01*
X02756Y025247*
X027627*
Y025314*
G37*
G36*
X027727D02*
Y025247D01*
X027794*
X027767Y025287*
X027727Y025314*
G37*
G36*
X024606Y025117D02*
X024539D01*
X024565Y025077*
X024606Y02505*
Y025117*
G37*
G36*
X024772D02*
X024706D01*
Y02505*
X024746Y025077*
X024772Y025117*
G37*
G36*
X024044Y025028D02*
X024004Y025002D01*
X023978Y024961*
X024044*
Y025028*
G37*
G36*
X024144D02*
Y024961D01*
X024211*
X024185Y025002*
X024144Y025028*
G37*
G36*
X028985Y025147D02*
X028919D01*
X028945Y025107*
X028985Y02508*
Y025147*
G37*
G36*
X029152D02*
X029085D01*
Y02508*
X029126Y025107*
X029152Y025147*
G37*
G36*
X027627D02*
X02756D01*
X027587Y025107*
X027627Y02508*
Y025147*
G37*
G36*
X027794D02*
X027727D01*
Y02508*
X027767Y025107*
X027794Y025147*
G37*
G36*
X029152Y024497D02*
X029085D01*
Y02443*
X029126Y024457*
X029152Y024497*
G37*
G36*
X013473Y023798D02*
X013406D01*
Y023732*
X013446Y023758*
X013473Y023798*
G37*
G36*
X012844Y023965D02*
X012804Y023939D01*
X012777Y023898*
X012844*
Y023965*
G37*
G36*
X013011Y023798D02*
X012944D01*
Y023732*
X012984Y023758*
X013011Y023798*
G37*
G36*
X013306D02*
X013239D01*
X013266Y023758*
X013306Y023732*
Y023798*
G37*
G36*
X013406Y023965D02*
Y023898D01*
X013473*
X013446Y023939*
X013406Y023965*
G37*
G36*
X027907Y024108D02*
X027877D01*
Y023963*
X027907*
Y024108*
G37*
G36*
X012944Y023965D02*
Y023898D01*
X013011*
X012984Y023939*
X012944Y023965*
G37*
G36*
X013306D02*
X013266Y023939D01*
X013239Y023898*
X013306*
Y023965*
G37*
G36*
X026062Y010688D02*
X025995D01*
Y010621*
X026035Y010648*
X026062Y010688*
G37*
G36*
X025895D02*
X025828D01*
X025855Y010648*
X025895Y010621*
Y010688*
G37*
G36*
X024911Y010845D02*
X024871Y010818D01*
X024844Y010778*
X024911*
Y010845*
G37*
G36*
X012844Y023798D02*
X012777D01*
X012804Y023758*
X012844Y023732*
Y023798*
G37*
G36*
X025078Y010678D02*
X025011D01*
Y010611*
X025051Y010638*
X025078Y010678*
G37*
G36*
X024911D02*
X024844D01*
X024871Y010638*
X024911Y010611*
Y010678*
G37*
G36*
X02557Y010688D02*
X025503D01*
Y010621*
X025543Y010648*
X02557Y010688*
G37*
G36*
X025403D02*
X025336D01*
X025363Y010648*
X025403Y010621*
Y010688*
G37*
G36*
X028036Y024108D02*
X028007D01*
Y023963*
X028036*
Y024108*
G37*
G36*
X012668Y024369D02*
Y024302D01*
X012735*
X012708Y024342*
X012668Y024369*
G37*
G36*
X028296Y024645D02*
X027906D01*
Y024355*
X028296*
Y024645*
G37*
G36*
X012735Y024202D02*
X012668D01*
Y024135*
X012708Y024162*
X012735Y024202*
G37*
G36*
X012568Y024369D02*
X012528Y024342D01*
X012501Y024302*
X012568*
Y024369*
G37*
G36*
X027804Y024497D02*
X027737D01*
Y02443*
X027777Y024457*
X027804Y024497*
G37*
G36*
X028985D02*
X028919D01*
X028945Y024457*
X028985Y02443*
Y024497*
G37*
G36*
X028786Y024645D02*
X028396D01*
Y024355*
X028786*
Y024645*
G37*
G36*
X027637Y024497D02*
X02757D01*
X027597Y024457*
X027637Y02443*
Y024497*
G37*
G36*
X028296Y024108D02*
X028267D01*
Y023963*
X028296*
Y024108*
G37*
G36*
X030954Y024359D02*
X030571D01*
Y023976*
X030954*
Y024359*
G37*
G36*
X028167Y024108D02*
X028137D01*
Y023963*
X028167*
Y024108*
G37*
G36*
X028426D02*
X028397D01*
Y023963*
X028426*
Y024108*
G37*
G36*
X013406Y024222D02*
X01318D01*
Y024104*
X013406*
Y024222*
G37*
G36*
X012568Y024202D02*
X012501D01*
X012528Y024162*
X012568Y024135*
Y024202*
G37*
G36*
X031437Y024359D02*
X031054D01*
Y023976*
X031437*
Y024359*
G37*
G36*
X01308Y024222D02*
X012854D01*
Y024104*
X01308*
Y024222*
G37*
G36*
X030324Y021997D02*
X030257D01*
X030284Y021957*
X030324Y02193*
Y021997*
G37*
G36*
X034035Y020816D02*
X033995Y020789D01*
X033968Y020749*
X034035*
Y020816*
G37*
G36*
X034135D02*
Y020749D01*
X034202*
X034175Y020789*
X034135Y020816*
G37*
G36*
X030394Y016711D02*
Y016644D01*
X030461*
X030435Y016685*
X030394Y016711*
G37*
G36*
X015087Y016958D02*
X01502D01*
Y016891*
X015061Y016918*
X015087Y016958*
G37*
G36*
X027432Y020806D02*
Y020739D01*
X027499*
X027472Y020779*
X027432Y020806*
G37*
G36*
X033444Y020816D02*
X033404Y020789D01*
X033377Y020749*
X033444*
Y020816*
G37*
G36*
X033544D02*
Y020749D01*
X033611*
X033584Y020789*
X033544Y020816*
G37*
G36*
X029507Y016711D02*
X029467Y016685D01*
X02944Y016644*
X029507*
Y016711*
G37*
G36*
X030461Y016544D02*
X030394D01*
Y016478*
X030435Y016504*
X030461Y016544*
G37*
G36*
X030294D02*
X030228D01*
X030254Y016504*
X030294Y016478*
Y016544*
G37*
G36*
X029607Y016711D02*
Y016644D01*
X029674*
X029647Y016685*
X029607Y016711*
G37*
G36*
X030294D02*
X030254Y016685D01*
X030228Y016644*
X030294*
Y016711*
G37*
G36*
X030001D02*
Y016644D01*
X030068*
X030041Y016685*
X030001Y016711*
G37*
G36*
X029901D02*
X029861Y016685D01*
X029834Y016644*
X029901*
Y016711*
G37*
G36*
X027872Y017698D02*
X027567D01*
Y01763*
X027872*
Y017698*
G37*
G36*
Y01753D02*
X027567D01*
Y017462*
X027872*
Y01753*
G37*
G36*
X028652Y017726D02*
X028297D01*
Y017411*
X028652*
Y017726*
G37*
G36*
X029213Y018102D02*
X02914Y018088D01*
X029079Y018047*
X029038Y017986*
X029024Y017913*
X029038Y017841*
X029079Y01778*
X02914Y017739*
X029213Y017725*
X029285Y017739*
X029346Y01778*
X029387Y017841*
X029401Y017913*
X029387Y017986*
X029346Y018047*
X029285Y018088*
X029213Y018102*
G37*
G36*
X031044Y020688D02*
Y020621D01*
X031111*
X031084Y020661*
X031044Y020688*
G37*
G36*
X03Y018102D02*
X029928Y018088D01*
X029867Y018047*
X029826Y017986*
X029811Y017913*
X029826Y017841*
X029867Y01778*
X029928Y017739*
X03Y017725*
X030072Y017739*
X030133Y01778*
X030174Y017841*
X030189Y017913*
X030174Y017986*
X030133Y018047*
X030072Y018088*
X03Y018102*
G37*
G36*
X029606D02*
X029534Y018088D01*
X029473Y018047*
X029432Y017986*
X029418Y017913*
X029432Y017841*
X029473Y01778*
X029534Y017739*
X029606Y017725*
X029678Y017739*
X02974Y01778*
X029781Y017841*
X029795Y017913*
X029781Y017986*
X02974Y018047*
X029678Y018088*
X029606Y018102*
G37*
G36*
X026544Y020806D02*
X026504Y020779D01*
X026478Y020739*
X026544*
Y020806*
G37*
G36*
X026644D02*
Y020739D01*
X026711*
X026685Y020779*
X026644Y020806*
G37*
G36*
X027332D02*
X027292Y020779D01*
X027265Y020739*
X027332*
Y020806*
G37*
G36*
X026251D02*
Y020739D01*
X026318*
X026291Y020779*
X026251Y020806*
G37*
G36*
X031564Y020688D02*
X031524Y020661D01*
X031497Y020621*
X031564*
Y020688*
G37*
G36*
X031664D02*
Y020621D01*
X031731*
X031704Y020661*
X031664Y020688*
G37*
G36*
X026151Y020806D02*
X026111Y020779D01*
X026084Y020739*
X026151*
Y020806*
G37*
G36*
X031772Y015894D02*
Y015828D01*
X031839*
X031813Y015868*
X031772Y015894*
G37*
G36*
X031672D02*
X031632Y015868D01*
X031606Y015828*
X031672*
Y015894*
G37*
G36*
X030471Y015737D02*
X030404D01*
Y01567*
X030444Y015697*
X030471Y015737*
G37*
G36*
X030304Y015904D02*
X030264Y015878D01*
X030237Y015837*
X030304*
Y015904*
G37*
G36*
X031564Y021013D02*
X031497D01*
X031524Y020973*
X031564Y020946*
Y021013*
G37*
G36*
X031731D02*
X031664D01*
Y020946*
X031704Y020973*
X031731Y021013*
G37*
G36*
X030404Y015904D02*
Y015837D01*
X030471*
X030444Y015878*
X030404Y015904*
G37*
G36*
Y015511D02*
Y015444D01*
X030471*
X030444Y015484*
X030404Y015511*
G37*
G36*
X030304D02*
X030264Y015484D01*
X030237Y015444*
X030304*
Y015511*
G37*
G36*
X031772Y015501D02*
Y015434D01*
X031839*
X031813Y015474*
X031772Y015501*
G37*
G36*
X030068Y016544D02*
X029834D01*
X029861Y016504*
X029902Y016477*
X029904Y016476*
X029715*
Y015483*
X030217*
Y016476*
X029998*
X03Y016477*
X030041Y016504*
X030068Y016544*
G37*
G36*
X030304Y015737D02*
X030237D01*
X030264Y015697*
X030304Y01567*
Y015737*
G37*
G36*
X031839Y015728D02*
X031772D01*
Y015661*
X031813Y015687*
X031839Y015728*
G37*
G36*
X031672D02*
X031606D01*
X031632Y015687*
X031672Y015661*
Y015728*
G37*
G36*
X015068Y016239D02*
X015001D01*
Y016172*
X015041Y016199*
X015068Y016239*
G37*
G36*
X014901D02*
X014834D01*
X014861Y016199*
X014901Y016172*
Y016239*
G37*
G36*
X029704Y021013D02*
X029637D01*
X029664Y020973*
X029704Y020946*
Y021013*
G37*
G36*
X030304Y016298D02*
X030264Y016271D01*
X030237Y016231*
X030304*
Y016298*
G37*
G36*
X015001Y016406D02*
Y016339D01*
X015068*
X015041Y016379*
X015001Y016406*
G37*
G36*
X014901D02*
X014861Y016379D01*
X014834Y016339*
X014901*
Y016406*
G37*
G36*
X030404Y016298D02*
Y016231D01*
X030471*
X030444Y016271*
X030404Y016298*
G37*
G36*
X030491Y021013D02*
X030424D01*
Y020946*
X030464Y020973*
X030491Y021013*
G37*
G36*
X030954D02*
X030887D01*
X030914Y020973*
X030954Y020946*
Y021013*
G37*
G36*
X031121D02*
X031054D01*
Y020946*
X031094Y020973*
X031121Y021013*
G37*
G36*
X030324D02*
X030257D01*
X030284Y020973*
X030324Y020946*
Y021013*
G37*
G36*
X029871D02*
X029804D01*
Y020946*
X029844Y020973*
X029871Y021013*
G37*
G36*
X030471Y016131D02*
X030404D01*
Y016064*
X030444Y016091*
X030471Y016131*
G37*
G36*
X030304D02*
X030237D01*
X030264Y016091*
X030304Y016064*
Y016131*
G37*
G36*
X026711Y020245D02*
X026644D01*
Y020178*
X026685Y020205*
X026711Y020245*
G37*
G36*
X026544D02*
X026478D01*
X026504Y020205*
X026544Y020178*
Y020245*
G37*
G36*
X026318D02*
X026251D01*
Y020178*
X026291Y020205*
X026318Y020245*
G37*
G36*
X027332D02*
X027265D01*
X027292Y020205*
X027332Y020178*
Y020245*
G37*
G36*
X033906Y020255D02*
X033839D01*
Y020188*
X033879Y020215*
X033906Y020255*
G37*
G36*
X033739D02*
X033672D01*
X033699Y020215*
X033739Y020188*
Y020255*
G37*
G36*
X027499Y020245D02*
X027432D01*
Y020178*
X027472Y020205*
X027499Y020245*
G37*
G36*
X027726Y020215D02*
X027685Y020189D01*
X027659Y020148*
X027726*
Y020215*
G37*
G36*
X030324Y020521D02*
X030257D01*
X030284Y020481*
X030324Y020454*
Y020521*
G37*
G36*
X030491D02*
X030424D01*
Y020454*
X030464Y020481*
X030491Y020521*
G37*
G36*
X027826Y020215D02*
Y020148D01*
X027893*
X027866Y020189*
X027826Y020215*
G37*
G36*
X026151Y020245D02*
X026084D01*
X026111Y020205*
X026151Y020178*
Y020245*
G37*
G36*
X029704Y020521D02*
X029637D01*
X029664Y020481*
X029704Y020454*
Y020521*
G37*
G36*
X029871D02*
X029804D01*
Y020454*
X029844Y020481*
X029871Y020521*
G37*
G36*
X027432Y020412D02*
Y020345D01*
X027499*
X027472Y020385*
X027432Y020412*
G37*
G36*
X027332D02*
X027292Y020385D01*
X027265Y020345*
X027332*
Y020412*
G37*
G36*
X026644D02*
Y020345D01*
X026711*
X026685Y020385*
X026644Y020412*
G37*
G36*
X033739Y020422D02*
X033699Y020395D01*
X033672Y020355*
X033739*
Y020422*
G37*
G36*
X027893Y020442D02*
X027826D01*
Y020375*
X027866Y020402*
X027893Y020442*
G37*
G36*
X027726D02*
X027659D01*
X027685Y020402*
X027726Y020375*
Y020442*
G37*
G36*
X033839Y020422D02*
Y020355D01*
X033906*
X033879Y020395*
X033839Y020422*
G37*
G36*
X024184Y020481D02*
Y020414D01*
X024251*
X024224Y020454*
X024184Y020481*
G37*
G36*
X024251Y020314D02*
X024184D01*
Y020247*
X024224Y020274*
X024251Y020314*
G37*
G36*
X024084D02*
X024017D01*
X024044Y020274*
X024084Y020247*
Y020314*
G37*
G36*
Y020481D02*
X024044Y020454D01*
X024017Y020414*
X024084*
Y020481*
G37*
G36*
X026544Y020412D02*
X026504Y020385D01*
X026478Y020345*
X026544*
Y020412*
G37*
G36*
X026251D02*
Y020345D01*
X026318*
X026291Y020385*
X026251Y020412*
G37*
G36*
X026151D02*
X026111Y020385D01*
X026084Y020345*
X026151*
Y020412*
G37*
G36*
X033444Y020649D02*
X033377D01*
X033404Y020609*
X033444Y020582*
Y020649*
G37*
G36*
X033611D02*
X033544D01*
Y020582*
X033584Y020609*
X033611Y020649*
G37*
G36*
X033661Y019462D02*
X033515Y019443D01*
X033379Y019387*
X033262Y019297*
X033172Y01918*
X033116Y019044*
X033097Y018898*
X033116Y018751*
X033172Y018615*
X033262Y018498*
X033379Y018408*
X033515Y018352*
X033661Y018333*
X033808Y018352*
X033944Y018408*
X034061Y018498*
X034151Y018615*
X034207Y018751*
X034226Y018898*
X034207Y019044*
X034151Y01918*
X034061Y019297*
X033944Y019387*
X033808Y019443*
X033661Y019462*
G37*
G36*
X027499Y020639D02*
X027432D01*
Y020572*
X027472Y020599*
X027499Y020639*
G37*
G36*
X026544D02*
X026478D01*
X026504Y020599*
X026544Y020572*
Y020639*
G37*
G36*
X026711D02*
X026644D01*
Y020572*
X026685Y020599*
X026711Y020639*
G37*
G36*
X027332D02*
X027265D01*
X027292Y020599*
X027332Y020572*
Y020639*
G37*
G36*
X030324Y020688D02*
X030284Y020661D01*
X030257Y020621*
X030324*
Y020688*
G37*
G36*
X030424D02*
Y020621D01*
X030491*
X030464Y020661*
X030424Y020688*
G37*
G36*
X030944D02*
X030904Y020661D01*
X030877Y020621*
X030944*
Y020688*
G37*
G36*
X029804D02*
Y020621D01*
X029871*
X029844Y020661*
X029804Y020688*
G37*
G36*
X034035Y020649D02*
X033968D01*
X033995Y020609*
X034035Y020582*
Y020649*
G37*
G36*
X034202D02*
X034135D01*
Y020582*
X034175Y020609*
X034202Y020649*
G37*
G36*
X029704Y020688D02*
X029664Y020661D01*
X029637Y020621*
X029704*
Y020688*
G37*
G36*
X027893Y020048D02*
X027826D01*
Y019981*
X027866Y020008*
X027893Y020048*
G37*
G36*
X027726D02*
X027659D01*
X027685Y020008*
X027726Y019981*
Y020048*
G37*
G36*
X031564Y020521D02*
X031497D01*
X031524Y020481*
X031564Y020454*
Y020521*
G37*
G36*
X031111D02*
X031044D01*
Y020454*
X031084Y020481*
X031111Y020521*
G37*
G36*
X034135Y020127D02*
Y02006D01*
X034202*
X034175Y0201*
X034135Y020127*
G37*
G36*
X034035D02*
X033995Y0201D01*
X033968Y02006*
X034035*
Y020127*
G37*
G36*
X030944Y020521D02*
X030877D01*
X030904Y020481*
X030944Y020454*
Y020521*
G37*
G36*
X027826Y020609D02*
Y020542D01*
X027893*
X027866Y020582*
X027826Y020609*
G37*
G36*
X026151Y020639D02*
X026084D01*
X026111Y020599*
X026151Y020572*
Y020639*
G37*
G36*
X026318D02*
X026251D01*
Y020572*
X026291Y020599*
X026318Y020639*
G37*
G36*
X027726Y020609D02*
X027685Y020582D01*
X027659Y020542*
X027726*
Y020609*
G37*
G36*
X031731Y020521D02*
X031664D01*
Y020454*
X031704Y020481*
X031731Y020521*
G37*
G36*
X034202Y01996D02*
X034135D01*
Y019893*
X034175Y01992*
X034202Y01996*
G37*
G36*
X034035D02*
X033968D01*
X033995Y01992*
X034035Y019893*
Y01996*
G37*
G36*
X027885Y013129D02*
Y013062D01*
X027952*
X027925Y013102*
X027885Y013129*
G37*
G36*
X027785D02*
X027745Y013102D01*
X027718Y013062*
X027785*
Y013129*
G37*
G36*
X02494Y013125D02*
X024873D01*
Y013058*
X024913Y013085*
X02494Y013125*
G37*
G36*
X028198Y013129D02*
X028158Y013102D01*
X028131Y013062*
X028198*
Y013129*
G37*
G36*
X030954Y021643D02*
X030571D01*
Y02126*
X030954*
Y021643*
G37*
G36*
X031437D02*
X031054D01*
Y02126*
X031437*
Y021643*
G37*
G36*
X028298Y013129D02*
Y013062D01*
X028365*
X028338Y013102*
X028298Y013129*
G37*
G36*
X028446Y021416D02*
Y021349D01*
X028513*
X028486Y021389*
X028446Y021416*
G37*
G36*
X029704Y021505D02*
X029637D01*
X029664Y021465*
X029704Y021438*
Y021505*
G37*
G36*
X028365Y012962D02*
X028298D01*
Y012895*
X028338Y012922*
X028365Y012962*
G37*
G36*
X028346Y021416D02*
X028306Y021389D01*
X028279Y021349*
X028346*
Y021416*
G37*
G36*
X024773Y013125D02*
X024706D01*
X024733Y013085*
X024773Y013058*
Y013125*
G37*
G36*
X028711Y013119D02*
Y013052D01*
X028778*
X028752Y013092*
X028711Y013119*
G37*
G36*
X028611D02*
X028571Y013092D01*
X028544Y013052*
X028611*
Y013119*
G37*
G36*
X015127Y013709D02*
X015087Y013683D01*
X01506Y013643*
X015127*
Y013709*
G37*
G36*
X015294Y013543D02*
X015227D01*
Y013476*
X015267Y013502*
X015294Y013543*
G37*
G36*
X015127D02*
X01506D01*
X015087Y013502*
X015127Y013476*
Y013543*
G37*
G36*
X015227Y013709D02*
Y013643D01*
X015294*
X015267Y013683*
X015227Y013709*
G37*
G36*
X031987Y013896D02*
X031947Y01387D01*
X03192Y01383*
X031987*
Y013896*
G37*
G36*
X032154Y01373D02*
X032087D01*
Y013663*
X032128Y013689*
X032154Y01373*
G37*
G36*
X031987D02*
X03192D01*
X031947Y013689*
X031987Y013663*
Y01373*
G37*
G36*
X028513Y021249D02*
X028446D01*
Y021182*
X028486Y021209*
X028513Y021249*
G37*
G36*
X024873Y013292D02*
Y013225D01*
X02494*
X024913Y013265*
X024873Y013292*
G37*
G36*
X024773D02*
X024733Y013265D01*
X024706Y013225*
X024773*
Y013292*
G37*
G36*
X028346Y021249D02*
X028279D01*
X028306Y021209*
X028346Y021182*
Y021249*
G37*
G36*
X027922Y021289D02*
X027697D01*
Y021171*
X027922*
Y021289*
G37*
G36*
X028248D02*
X028022D01*
Y021171*
X028248*
Y021289*
G37*
G36*
X025354Y013771D02*
X025282Y013757D01*
X025221Y013716*
X02518Y013655*
X025166Y013583*
X02518Y01351*
X025221Y013449*
X025282Y013408*
X025354Y013394*
X025427Y013408*
X025488Y013449*
X025529Y01351*
X025543Y013583*
X025529Y013655*
X025488Y013716*
X025427Y013757*
X025354Y013771*
G37*
G36*
X026476Y0124D02*
X026435Y012374D01*
X026409Y012333*
X026476*
Y0124*
G37*
G36*
X028504Y012864D02*
X028121D01*
Y012225*
X028504*
Y012864*
G37*
G36*
X028711Y012292D02*
Y012225D01*
X028778*
X028752Y012265*
X028711Y012292*
G37*
G36*
X026576Y0124D02*
Y012333D01*
X026643*
X026616Y012374*
X026576Y0124*
G37*
G36*
X028611Y012519D02*
X028544D01*
X028571Y012479*
X028611Y012452*
Y012519*
G37*
G36*
X030424Y021672D02*
Y021605D01*
X030491*
X030464Y021645*
X030424Y021672*
G37*
G36*
X030954Y022126D02*
X030571D01*
Y021743*
X030954*
Y022126*
G37*
G36*
X026476Y012233D02*
X026409D01*
X026435Y012193*
X026476Y012167*
Y012233*
G37*
G36*
X028778Y012125D02*
X028711D01*
Y012058*
X028752Y012085*
X028778Y012125*
G37*
G36*
X028611D02*
X028544D01*
X028571Y012085*
X028611Y012058*
Y012125*
G37*
G36*
X026643Y012233D02*
X026576D01*
Y012167*
X026616Y012193*
X026643Y012233*
G37*
G36*
X028611Y012292D02*
X028571Y012265D01*
X028544Y012225*
X028611*
Y012292*
G37*
G36*
X028021Y012864D02*
X027638D01*
Y012225*
X028021*
Y012864*
G37*
G36*
X031437Y022126D02*
X031054D01*
Y021743*
X031437*
Y022126*
G37*
G36*
X028611Y012952D02*
X028544D01*
X028571Y012912*
X028611Y012885*
Y012952*
G37*
G36*
X029871Y021505D02*
X029804D01*
Y021438*
X029844Y021465*
X029871Y021505*
G37*
G36*
X030324D02*
X030257D01*
X030284Y021465*
X030324Y021438*
Y021505*
G37*
G36*
X028778Y012952D02*
X028711D01*
Y012885*
X028752Y012912*
X028778Y012952*
G37*
G36*
X028198Y012962D02*
X028131D01*
X028158Y012922*
X028198Y012895*
Y012962*
G37*
G36*
X027952D02*
X027885D01*
Y012895*
X027925Y012922*
X027952Y012962*
G37*
G36*
X027785D02*
X027718D01*
X027745Y012922*
X027785Y012895*
Y012962*
G37*
G36*
X029804Y021672D02*
Y021605D01*
X029871*
X029844Y021645*
X029804Y021672*
G37*
G36*
X030324D02*
X030284Y021645D01*
X030257Y021605*
X030324*
Y021672*
G37*
G36*
X028778Y012519D02*
X028711D01*
Y012452*
X028752Y012479*
X028778Y012519*
G37*
G36*
X029704Y021672D02*
X029664Y021645D01*
X029637Y021605*
X029704*
Y021672*
G37*
G36*
X028711Y012686D02*
Y012619D01*
X028778*
X028752Y012659*
X028711Y012686*
G37*
G36*
X028611D02*
X028571Y012659D01*
X028544Y012619*
X028611*
Y012686*
G37*
G36*
X030491Y021505D02*
X030424D01*
Y021438*
X030464Y021465*
X030491Y021505*
G37*
G36*
X026318Y021033D02*
X026251D01*
Y020966*
X026291Y020993*
X026318Y021033*
G37*
G36*
X027352Y015197D02*
X027285D01*
Y01513*
X027325Y015156*
X027352Y015197*
G37*
G36*
X027185D02*
X027118D01*
X027145Y015156*
X027185Y01513*
Y015197*
G37*
G36*
X026151Y021033D02*
X026084D01*
X026111Y020993*
X026151Y020966*
Y021033*
G37*
G36*
X031279Y015334D02*
X031212D01*
X031239Y015294*
X031279Y015267*
Y015334*
G37*
G36*
X031052D02*
X030985D01*
Y015267*
X031025Y015294*
X031052Y015334*
G37*
G36*
X030885D02*
X030818D01*
X030845Y015294*
X030885Y015267*
Y015334*
G37*
G36*
X032087Y014684D02*
Y014617D01*
X032154*
X032128Y014657*
X032087Y014684*
G37*
G36*
X031987D02*
X031947Y014657D01*
X03192Y014617*
X031987*
Y014684*
G37*
G36*
X031694D02*
Y014617D01*
X031761*
X031734Y014657*
X031694Y014684*
G37*
G36*
X026711Y021033D02*
X026644D01*
Y020966*
X026685Y020993*
X026711Y021033*
G37*
G36*
X026957Y015196D02*
X026891D01*
Y015129*
X026931Y015156*
X026957Y015196*
G37*
G36*
X026791D02*
X026724D01*
X02675Y015156*
X026791Y015129*
Y015196*
G37*
G36*
X026544Y021033D02*
X026478D01*
X026504Y020993*
X026544Y020966*
Y021033*
G37*
G36*
X030885Y015501D02*
X030845Y015474D01*
X030818Y015434*
X030885*
Y015501*
G37*
G36*
X027285Y015363D02*
Y015297D01*
X027352*
X027325Y015337*
X027285Y015363*
G37*
G36*
X027185D02*
X027145Y015337D01*
X027118Y015297*
X027185*
Y015363*
G37*
G36*
X030985Y015501D02*
Y015434D01*
X031052*
X031025Y015474*
X030985Y015501*
G37*
G36*
X031672D02*
X031632Y015474D01*
X031606Y015434*
X031672*
Y015501*
G37*
G36*
X031379D02*
Y015434D01*
X031446*
X031419Y015474*
X031379Y015501*
G37*
G36*
X031279D02*
X031239Y015474D01*
X031212Y015434*
X031279*
Y015501*
G37*
G36*
X031839Y015334D02*
X031772D01*
Y015267*
X031813Y015294*
X031839Y015334*
G37*
G36*
X031672D02*
X031606D01*
X031632Y015294*
X031672Y015267*
Y015334*
G37*
G36*
X031446D02*
X031379D01*
Y015267*
X031419Y015294*
X031446Y015334*
G37*
G36*
X030304Y015344D02*
X030237D01*
X030264Y015304*
X030304Y015277*
Y015344*
G37*
G36*
X026891Y015363D02*
Y015296D01*
X026957*
X026931Y015336*
X026891Y015363*
G37*
G36*
X026791D02*
X02675Y015336D01*
X026724Y015296*
X026791*
Y015363*
G37*
G36*
X030471Y015344D02*
X030404D01*
Y015277*
X030444Y015304*
X030471Y015344*
G37*
G36*
X028307Y014567D02*
X027677D01*
Y014055*
X028307*
Y014567*
G37*
G36*
X030954Y02118D02*
X030914Y021153D01*
X030887Y021113*
X030954*
Y02118*
G37*
G36*
X031054D02*
Y021113D01*
X031121*
X031094Y021153*
X031054Y02118*
G37*
G36*
X031987Y014123D02*
X03192D01*
X031947Y014083*
X031987Y014056*
Y014123*
G37*
G36*
X030324Y02118D02*
X030284Y021153D01*
X030257Y021113*
X030324*
Y02118*
G37*
G36*
X030424D02*
Y021113D01*
X030491*
X030464Y021153*
X030424Y02118*
G37*
G36*
X032154Y014123D02*
X032087D01*
Y014056*
X032128Y014083*
X032154Y014123*
G37*
G36*
X026544Y0212D02*
X026504Y021173D01*
X026478Y021133*
X026544*
Y0212*
G37*
G36*
X026644D02*
Y021133D01*
X026711*
X026685Y021173*
X026644Y0212*
G37*
G36*
X032087Y013896D02*
Y01383D01*
X032154*
X032128Y01387*
X032087Y013896*
G37*
G36*
X026251Y0212D02*
Y021133D01*
X026318*
X026291Y021173*
X026251Y0212*
G37*
G36*
X031564Y02118D02*
X031524Y021153D01*
X031497Y021113*
X031564*
Y02118*
G37*
G36*
X031664D02*
Y021113D01*
X031731*
X031704Y021153*
X031664Y02118*
G37*
G36*
X026151Y0212D02*
X026111Y021173D01*
X026084Y021133*
X026151*
Y0212*
G37*
G36*
X031987Y014517D02*
X03192D01*
X031947Y014477*
X031987Y01445*
Y014517*
G37*
G36*
X031761D02*
X031694D01*
Y01445*
X031734Y014477*
X031761Y014517*
G37*
G36*
X031594D02*
X031527D01*
X031554Y014477*
X031594Y01445*
Y014517*
G37*
G36*
X032154D02*
X032087D01*
Y01445*
X032128Y014477*
X032154Y014517*
G37*
G36*
X031594Y014684D02*
X031554Y014657D01*
X031527Y014617*
X031594*
Y014684*
G37*
G36*
X0313D02*
Y014617D01*
X031367*
X03134Y014657*
X0313Y014684*
G37*
G36*
X0312D02*
X03116Y014657D01*
X031133Y014617*
X0312*
Y014684*
G37*
G36*
X029704Y02118D02*
X029664Y021153D01*
X029637Y021113*
X029704*
Y02118*
G37*
G36*
X029804D02*
Y021113D01*
X029871*
X029844Y021153*
X029804Y02118*
G37*
G36*
X026978Y014695D02*
X026368D01*
Y014183*
X026978*
Y014695*
G37*
G36*
X031987Y01429D02*
X031947Y014263D01*
X03192Y014223*
X031987*
Y01429*
G37*
G36*
X031367Y014517D02*
X0313D01*
Y01445*
X03134Y014477*
X031367Y014517*
G37*
G36*
X0312D02*
X031133D01*
X03116Y014477*
X0312Y01445*
Y014517*
G37*
G36*
X032087Y01429D02*
Y014223D01*
X032154*
X032128Y014263*
X032087Y01429*
G37*
%LNee4951_bpm_reva-5*%
%LPD*%
G54D10*
X025344Y023484D03*
Y022972D03*
X029213Y011201D03*
Y011713D03*
G54D11*
X019508Y016033D03*
Y016427D03*
X019498Y017205D03*
Y016811D03*
X023593Y022087D03*
Y021693D03*
X03126Y008179D03*
Y007785D03*
X031762Y008179D03*
Y007785D03*
X032283Y008179D03*
Y007785D03*
X028465Y016713D03*
Y016319D03*
X028474Y017569D03*
Y017175D03*
X024892Y008189D03*
Y007795D03*
X02065Y011782D03*
Y011388D03*
X032795Y008376D03*
Y007982D03*
X025404Y007795D03*
Y008189D03*
X018957Y012037D03*
Y011644D03*
X019754Y019793D03*
Y020187D03*
X018671Y020541D03*
Y020935D03*
X020837Y008888D03*
Y009281D03*
X01748Y009311D03*
Y008917D03*
X011949Y023268D03*
Y022874D03*
X011122Y015541D03*
Y015148D03*
X010906Y012709D03*
Y012315D03*
X018848Y014154D03*
Y01376D03*
X018789Y017146D03*
Y016752D03*
X020915Y023996D03*
Y02439D03*
X018199Y022106D03*
Y021713D03*
X01876Y01814D03*
Y017746D03*
X019301Y020157D03*
Y019764D03*
X011073Y01685D03*
Y016457D03*
X017077Y019715D03*
Y020108D03*
X012667Y018386D03*
Y01878D03*
X012323Y009301D03*
Y008907D03*
X013406Y009193D03*
Y008799D03*
G54D12*
X01997Y009626D03*
X018396D03*
Y008681D03*
X01997D03*
G54D13*
X022904Y021313D03*
X022707D03*
X02251D03*
X022313D03*
X022116D03*
Y022998D03*
X022313D03*
X02251D03*
X022707D03*
X022904D03*
G54D14*
X027972Y022028D03*
Y021339D03*
X033868Y012264D03*
Y011575D03*
X01313Y024961D03*
Y024272D03*
G54D15*
X01998Y018361D03*
Y017938D03*
X02065D03*
Y018361D03*
G54D16*
X019951Y01815D03*
X020679D03*
G54D17*
X022835Y020561D03*
X022441D03*
X023622Y015354D03*
X024016D03*
X025591Y009281D03*
X025197D03*
X027402Y010039D03*
X027008D03*
X031565Y012441D03*
X031959D03*
X02497Y00878D03*
X025364D03*
X030856Y008425D03*
X030463D03*
X017992Y010472D03*
X018386D03*
X01935Y011053D03*
X018957D03*
X011417Y021211D03*
X011024D03*
X018907Y022657D03*
X018514D03*
X011407Y021732D03*
X011014D03*
X016821Y010492D03*
X017215D03*
X011407Y022323D03*
X011014D03*
X018494Y023504D03*
X018888D03*
X015778Y01065D03*
X015384D03*
X019154Y017805D03*
X019547D03*
X028504Y010079D03*
X02811D03*
X032766Y012451D03*
X032372D03*
X016683Y019203D03*
X017077D03*
X021339Y016949D03*
X021732D03*
X011171Y010059D03*
X011565D03*
X011171Y009567D03*
X011565D03*
X011171Y009085D03*
X011565D03*
X011171Y008583D03*
X011565D03*
X012864Y010827D03*
X013258D03*
G54D18*
X028071Y012175D03*
G54D19*
X02563Y011175D03*
Y011675D03*
Y012175D03*
Y012675D03*
Y013175D03*
G54D20*
X026673Y014439D03*
Y015738D03*
X027992Y014311D03*
Y01561D03*
G54D21*
X020748Y021811D03*
X029656Y01252D03*
X030207Y007864D03*
X033612Y008937D03*
X029311Y01D03*
X017343Y021545D03*
G54D22*
X030364Y009291D03*
X03062D03*
X030876D03*
X031132D03*
X031388D03*
X031644D03*
X0319D03*
X032156D03*
X032411D03*
X032667D03*
Y011575D03*
X032411D03*
X032156D03*
X0319D03*
X031644D03*
X031388D03*
X031132D03*
X030876D03*
X03062D03*
X030364D03*
G54D23*
X031516Y010433D03*
G54D24*
X024428Y017005D03*
X02368D03*
X024054Y016218D03*
G54D25*
X028809Y007793D03*
Y008293D03*
Y008793D03*
Y009293D03*
X026545D03*
Y008793D03*
Y008293D03*
Y007793D03*
G54D26*
X027677Y008543D03*
G54D27*
X023069Y017942D03*
X023348Y01822D03*
G54D28*
X025955Y014232D03*
X024813D03*
G54D29*
X025728Y016063D03*
Y017205D03*
X020069Y023927D03*
Y025069D03*
G54D30*
X027517Y016832D03*
Y01758D03*
X02673Y017206D03*
X023437Y024497D03*
X02265Y024123D03*
Y024871D03*
X028989Y022981D03*
Y022233D03*
X029776Y022607D03*
G54D31*
X033642Y015433D03*
X029665D03*
G54D32*
X030935Y007037D03*
X029557D03*
X021506Y013553D03*
X020128D03*
G54D33*
X027421Y00689D03*
X027933D03*
X019793Y020768D03*
X019282D03*
X020846Y020157D03*
X020335D03*
X020482Y019193D03*
X020994D03*
G54D34*
X019665Y021594D03*
Y02185D03*
Y022106D03*
X018917D03*
Y02185D03*
Y021594D03*
X018602Y019665D03*
Y019409D03*
Y019154D03*
X017854D03*
Y019409D03*
Y019665D03*
G54D35*
X014134Y020945D03*
X013937D03*
X01374D03*
X013543D03*
X013346D03*
X01315D03*
X012953D03*
X012756D03*
Y022835D03*
X012953D03*
X01315D03*
X013346D03*
X013543D03*
X01374D03*
X013937D03*
X014134D03*
G54D36*
X0125Y021201D03*
Y021398D03*
Y021594D03*
Y021791D03*
Y021988D03*
Y022185D03*
Y022382D03*
Y022579D03*
X01439D03*
Y022382D03*
Y022185D03*
Y021988D03*
Y021791D03*
Y021594D03*
Y021398D03*
Y021201D03*
G54D37*
X013445Y02189D03*
G54D38*
X016142Y011457D03*
X012598Y01752D03*
X012795D03*
X012992D03*
X013189D03*
X013386D03*
X013583D03*
X01378D03*
X013976D03*
X014173D03*
X01437D03*
X014567D03*
X014764D03*
X014961D03*
X015157D03*
X015354D03*
X015551D03*
X015748D03*
X015945D03*
X016142D03*
X016339D03*
X016535D03*
X016732D03*
X016929D03*
X017126D03*
X017323D03*
Y011457D03*
X017126D03*
X016929D03*
X016732D03*
X016535D03*
X016339D03*
X015945D03*
X015748D03*
X015551D03*
X015354D03*
X015157D03*
X014961D03*
X014764D03*
X014567D03*
X01437D03*
X014173D03*
X013976D03*
X01378D03*
X013583D03*
X013386D03*
X013189D03*
X012992D03*
X012795D03*
X012598D03*
G54D39*
X017992Y01685D03*
Y016654D03*
Y016457D03*
Y01626D03*
Y016063D03*
Y015866D03*
Y015669D03*
Y015472D03*
Y015276D03*
Y015079D03*
Y014882D03*
Y014685D03*
Y014488D03*
Y014291D03*
Y014094D03*
Y013898D03*
Y013701D03*
Y013504D03*
Y013307D03*
Y01311D03*
Y012913D03*
Y012717D03*
Y01252D03*
Y012323D03*
Y012126D03*
X011929D03*
Y012323D03*
Y01252D03*
Y012717D03*
Y012913D03*
Y01311D03*
Y013307D03*
Y013504D03*
Y013701D03*
Y013898D03*
Y014094D03*
Y014291D03*
Y014488D03*
Y014685D03*
Y014882D03*
Y015079D03*
Y015276D03*
Y015472D03*
Y015669D03*
Y015866D03*
Y016063D03*
Y01626D03*
Y016457D03*
Y016654D03*
Y01685D03*
G54D40*
X02065Y01247D03*
X021949D03*
G54D41*
X027957Y023913D03*
X028217D03*
X028476D03*
X028736D03*
G54D42*
X028736Y025089D03*
X028476D03*
X028217D03*
X027957D03*
G54D43*
X028346Y024695D03*
G54D44*
X027065Y021514D03*
X026065Y024215D03*
G54D45*
X026315Y021689D03*
X026815Y024039D03*
G54D46*
X024526Y017972D03*
X025474D03*
X025986Y015354D03*
X025037D03*
G54D47*
X02499Y022185D03*
Y021476D03*
X023593Y023543D03*
Y022835D03*
G54D48*
X021644Y014508D03*
X020935D03*
G54D49*
X012461Y010079D03*
X013406D03*
G54D50*
X015718Y014665D02*
X015728Y014656D01*
X015718Y014665D02*
Y014892D01*
X015827Y015*
Y015463*
X01565Y012156D02*
Y013346D01*
X016063Y01376*
Y01499*
X016142Y015069*
X015561Y012067D02*
Y012077D01*
Y012047D02*
Y012067D01*
X01565Y012156*
X015551Y012057D02*
X015561Y012067D01*
X016142Y015069D02*
Y016594D01*
X016339Y016791D02*
Y01752D01*
X016142Y016594D02*
X016339Y016791D01*
X015551Y012087D02*
X01561Y012146D01*
X016357Y014841D02*
Y016298D01*
X016348Y014833D02*
X016357Y014841D01*
X026535Y016683D02*
Y016762D01*
Y016683D02*
X026683Y016535D01*
X026535Y016762D02*
Y017012D01*
X012559Y01626D02*
X014814Y014005D01*
X01249Y016063D02*
X014654Y013899D01*
X012392Y015866D02*
X014419Y013839D01*
X014654Y01318D02*
Y013899D01*
X014488Y013014D02*
X014654Y01318D01*
X014488Y012953D02*
Y013014D01*
X014814Y012669D02*
Y014005D01*
X014783Y012638D02*
X014814Y012669D01*
X014419Y013278D02*
Y013839D01*
X01625Y010758D02*
X01626D01*
X015945Y011063D02*
X01625Y010758D01*
X031752Y007785D02*
X031762D01*
X0319Y008317D02*
Y009291D01*
X025906Y016614D02*
X025925Y016634D01*
X024428Y016675D02*
Y017005D01*
X027215Y00689D02*
X027421D01*
X026545Y007559D02*
Y007793D01*
X027933Y00689D02*
X028159D01*
X028809Y007539*
Y007793*
Y008793D02*
X029426D01*
X026545Y007559D02*
X02688Y007224D01*
X027215Y00689*
X025602Y009293D02*
X026545D01*
X024941Y009281D02*
X025197D01*
X025377Y008793D02*
X026545D01*
X025377Y008215D02*
X025404Y008189D01*
X025377Y008215D02*
Y008793D01*
X02497Y008553D02*
Y00878D01*
X024892Y008474D02*
X02497Y008553D01*
X024892Y008189D02*
Y008474D01*
X025157Y0075D02*
Y007549D01*
X024892Y007766D02*
Y007795D01*
X026545Y009293D02*
Y009577D01*
X027008Y010039*
X027913Y009882D02*
X02811Y010079D01*
X027913Y009369D02*
Y009882D01*
X027402Y010039D02*
X027766Y010404D01*
X028711*
X028819Y010295*
X028504Y009882D02*
Y010079D01*
Y009882D02*
X028809Y009577D01*
Y009293D02*
Y009577D01*
X029311Y01D02*
X029636Y009675D01*
Y009518D02*
Y009675D01*
X031388Y008799D02*
Y009291D01*
X03128Y008691D02*
X031388Y008799D01*
X033504Y008386D02*
Y008789D01*
X030354Y011565D02*
X030364Y011575D01*
X029213Y011713D02*
X029656D01*
X029803Y011565*
X030364*
X03127Y008169D02*
X031644Y008543D01*
Y009291*
X031762Y008179D02*
X0319Y008317D01*
X032156Y008337D02*
Y009291D01*
Y008337D02*
X032298Y008194D01*
X029426Y008793D02*
X030226Y007992D01*
Y007126D02*
Y007992D01*
X031644Y011575D02*
Y012126D01*
X031565Y012205D02*
X031644Y012126D01*
X031565Y012205D02*
Y012441D01*
X031959Y012254D02*
Y012441D01*
X03189Y011585D02*
X0319Y011575D01*
X03189Y012185D02*
X031959Y012254D01*
X03189Y011585D02*
Y012185D01*
X031713Y012864D02*
X031959Y012618D01*
Y012441D02*
Y012618D01*
X032372Y012323D02*
Y012451D01*
X032156Y012106D02*
X032372Y012323D01*
X032156Y011575D02*
Y012106D01*
X032766Y012451D02*
X033071D01*
X032372D02*
Y012549D01*
X032726Y012904*
X032411Y00874D02*
Y009291D01*
Y00874D02*
X032785Y008366D01*
X032795Y007756D02*
Y007982D01*
Y007756D02*
D01*
X032283Y007766D02*
Y007785D01*
Y007766D02*
X032618Y007431D01*
X034055Y008543D02*
Y009488D01*
X033337Y010207D02*
X034055Y009488D01*
X033248Y01125D02*
X033337Y011161D01*
Y010207D02*
Y011161D01*
X028465Y016181D02*
D01*
Y016043D02*
Y016319D01*
X026535Y017012D02*
X02673Y017206D01*
X02251Y020935D02*
Y021313D01*
X022461Y020886D02*
X02251Y020935D01*
X022461Y020581D02*
Y020886D01*
X022441Y020561D02*
X022461Y020581D01*
X022707Y020896D02*
Y021313D01*
Y020896D02*
X022835Y020768D01*
Y020561D02*
Y020768D01*
X022904Y021313D02*
X023035D01*
X022313D02*
Y022106D01*
Y021313D02*
D01*
X022116Y022303D02*
X022313Y022106D01*
X022116Y022303D02*
Y022998D01*
X022707D02*
X022904D01*
X022707D02*
D01*
X022657Y023465D02*
X023661D01*
X022507Y023314D02*
X022657Y023465D01*
X022507Y022998D02*
Y023314D01*
X024577Y02189D02*
X02499Y021476D01*
X022185Y024862D02*
X022193Y024871D01*
X02265*
X027065Y021514D02*
Y022291D01*
X027067Y022293*
X028989Y022981D02*
X029447D01*
X029577Y02311D02*
Y023593D01*
X029447Y022981D02*
X029577Y02311D01*
X028396Y021299D02*
D01*
X029193Y01122D02*
X029213Y011201D01*
X030463Y008425D02*
Y008711D01*
D01*
X024754Y02378D02*
X025049D01*
X025344Y023484*
X02439Y013858D02*
X024409D01*
X017992Y014094D02*
X018494D01*
X018553Y014154*
X018848*
X019124*
X019134Y014163*
X017992Y013898D02*
X018435D01*
X018573Y01376*
X018848*
X017185Y013898D02*
X017992D01*
X017156Y013868D02*
X017185Y013898D01*
X01748Y016457D02*
X017992D01*
X017648Y01626D02*
X017992D01*
X017451Y016063D02*
X017648Y01626D01*
X017451Y015325D02*
Y016063D01*
X017283Y015157D02*
X017451Y015325D01*
X017264Y015157D02*
X017283D01*
X017323Y017008D02*
Y01752D01*
X011929Y01252D02*
X01251D01*
X010906Y012709D02*
X011921D01*
X010906D02*
Y012953D01*
X015354Y010709D02*
Y011457D01*
X015433Y010364D02*
Y01063D01*
X015925D02*
X016142Y010413D01*
X015827Y01063D02*
X015925D01*
X015551Y010994D02*
Y011457D01*
Y010994D02*
X015827Y010718D01*
Y01063D02*
Y010718D01*
X015945Y011063D02*
Y011457D01*
X015354Y010709D02*
X015433Y01063D01*
X013386Y011457D02*
Y011821D01*
X018868Y01374D02*
X019183D01*
X018848Y01376D02*
X018868Y01374D01*
X021073Y013691D02*
X021368D01*
X021506Y013553*
Y012913D02*
Y013553D01*
Y012913D02*
X021949Y01247D01*
X018957Y011053D02*
Y011644D01*
X017756Y009587D02*
X018258D01*
X01748Y009311D02*
X017756Y009587D01*
X019833Y008642D02*
X020591D01*
X020837Y008888*
X017992Y010256D02*
Y010472D01*
Y010256D02*
X018258Y00999D01*
Y009587D02*
Y00999D01*
X016929Y010935D02*
Y011457D01*
X016821Y010827D02*
X016929Y010935D01*
X016821Y010492D02*
Y010827D01*
X017215Y010492D02*
Y010827D01*
X017126Y010915D02*
X017215Y010827D01*
X017126Y010915D02*
Y011457D01*
X017215Y010492D02*
X01747Y010236D01*
Y010226D02*
Y010236D01*
X016821Y010226D02*
Y010492D01*
Y010226D02*
D01*
X015157Y013189D02*
D01*
Y011457D02*
Y013189D01*
X011073Y016457D02*
X011929D01*
X011073D02*
D01*
X012421Y020551D02*
D01*
X01439Y021398D02*
D01*
X011949Y022874D02*
X012717D01*
X012756Y022835*
X0125Y021988D02*
X013346D01*
X0125Y022579D02*
X012756D01*
X013346Y021988*
X012953Y020945D02*
Y021398D01*
X013445Y02189*
X0125Y021201D02*
X012756D01*
X012953Y021398*
Y022835D02*
Y023219D01*
X012815Y023356D02*
X012953Y023219D01*
X013153Y023291D02*
X013258Y023396D01*
X013153Y022835D02*
Y023291D01*
X011014Y021732D02*
D01*
Y022028D01*
Y022323*
X012057Y022382D02*
X0125D01*
X012313Y022185D02*
X0125D01*
X0119Y022224D02*
X012057Y022382D01*
X012146Y022018D02*
X012313Y022185D01*
X01439Y021024D02*
Y021201D01*
Y021024D02*
X014596Y020817D01*
X01439Y021398D02*
X014774D01*
X0119Y02175D02*
X012008Y021641D01*
X0119Y02175D02*
Y022224D01*
X012008Y020108D02*
Y021641D01*
X011732Y020728D02*
Y022657D01*
X011949Y022874*
X012421Y020551D02*
X012431Y020541D01*
X014764Y01752D02*
D01*
X01374Y020758D02*
Y020945D01*
X013583Y01752D02*
Y01811D01*
X013848Y018376*
X013386Y01752D02*
Y018248D01*
X013671Y018533*
Y01878*
X013848Y018376D02*
Y018553D01*
X01378Y01752D02*
Y018051D01*
X013976Y01752D02*
Y018012D01*
X018642Y024557D02*
Y024596D01*
X019951Y02436D02*
Y0244D01*
X017283Y023681D02*
Y02374D01*
X016024Y02248D02*
X017283Y02374D01*
X014173Y01752D02*
Y017923D01*
X018484Y023514D02*
X018494Y023504D01*
X018888D02*
Y024094D01*
X018898Y024104*
X019252Y023996D02*
X019872D01*
X019882Y024006*
X020069Y023927D02*
X020138Y023996D01*
X020915*
X01626Y022175D02*
X018642Y024557D01*
X018691Y02436D02*
X019951D01*
X016476Y022146D02*
X018691Y02436D01*
X016636Y022069D02*
X018081Y023514D01*
X018484*
X018386Y010472D02*
Y011112D01*
X017992Y011506D02*
Y012126D01*
Y011506D02*
X018386Y011112D01*
X017323Y011457D02*
X017677D01*
X017992Y011142*
Y010472D02*
Y011142D01*
X01939Y008642D02*
X019833D01*
X018888Y009144D02*
X01939Y008642D01*
X019173Y009518D02*
Y01002D01*
X018386Y010472D02*
X018888Y00997D01*
Y009144D02*
Y00997D01*
X019331Y010689D02*
X01937D01*
X018957Y010236D02*
X019173Y01002D01*
X018957Y010236D02*
Y011053D01*
X01935Y010709D02*
Y011053D01*
X019331Y010689D02*
X01935Y010709D01*
X017854Y019665D02*
Y020118D01*
X017933Y020197*
X017461Y019409D02*
X017854D01*
X018602D02*
Y019665D01*
X019301Y020157D02*
X019715D01*
X019783Y020659D02*
X020285Y020157D01*
X018632Y019695D02*
Y020531D01*
X018602Y019665D02*
X018632Y019695D01*
X019665Y02128D02*
Y021594D01*
Y02128D02*
X019783Y021161D01*
Y020659D02*
Y021161D01*
X018917Y022106D02*
Y022648D01*
X018907Y022657D02*
X018917Y022648D01*
X018199Y022106D02*
X018917D01*
X018199D02*
D01*
X019665Y02185D02*
X020148D01*
X018917Y022106D02*
X019665D01*
X018248Y022657D02*
X018514D01*
X018917Y021594D02*
Y02185D01*
Y021319D02*
Y021594D01*
X017854Y019154D02*
X018602D01*
X017992Y01685D02*
X018179D01*
X018474Y017146*
X018789*
X017992Y016654D02*
X018474D01*
X018573Y016752*
X018789*
Y017146D02*
X019045D01*
X019055Y017156*
X018789Y016752D02*
X019055D01*
X01876Y01814D02*
Y018415D01*
X018622Y018553D02*
X01876Y018415D01*
X016142Y01752D02*
D01*
X015945Y0169D02*
Y01752D01*
Y0169D02*
D01*
X016604Y013524D02*
X016624D01*
X015551Y012057D02*
X015561Y012047D01*
X015551Y012087D02*
X015561Y012077D01*
X015551Y012057D02*
Y012087D01*
X021644Y014508D02*
X021988Y014852D01*
X022018*
X020659Y014508D02*
X021033D01*
X02063Y014478D02*
X020659Y014508D01*
X019478Y016457D02*
X019508Y016427D01*
X017992Y016457D02*
X019478D01*
X019508Y016427D02*
Y016801D01*
Y016033D02*
X019675D01*
X019951Y016309*
X019498Y017205D02*
Y017441D01*
X01876Y017746D02*
X019094D01*
X017549D02*
X01876D01*
X017323Y01752D02*
X017549Y017746D01*
X017126Y017992D02*
X017303Y018169D01*
X017126Y017067D02*
Y017992D01*
X016142Y01752D02*
Y018701D01*
X020846Y020157D02*
X02122D01*
X02065Y011782D02*
Y01247D01*
X020876Y011083D02*
Y011161D01*
Y011083D02*
X020896Y011063D01*
X018002Y013494D02*
X018593D01*
X017992Y013504D02*
X018002Y013494D01*
X017992Y01311D02*
X018986D01*
X019006Y013091*
Y013081D02*
Y013091D01*
X017992Y012913D02*
X01873D01*
X018829Y012815*
X019213*
X019449Y013051*
Y01312*
X017992Y012717D02*
X018671D01*
X01876Y012628*
X02062Y0125D02*
X02065Y01247D01*
X02062Y0125D02*
Y012854D01*
X01876Y012628D02*
X019222D01*
X019331Y01252*
X0225Y019872D02*
X022844Y020217D01*
Y020551*
X022835Y020561D02*
X022844Y020551D01*
X016357Y016298D02*
X017126Y017067D01*
X016604Y013524D02*
Y016289D01*
X017323Y017008*
X017559Y01252D02*
X017992D01*
X016919Y013159D02*
X017559Y01252D01*
X016919Y013159D02*
Y01372D01*
X016811Y013829D02*
X016919Y01372D01*
X016811Y013829D02*
Y016201D01*
X018041Y017431*
X018366*
X017992Y015866D02*
X018622D01*
X018632Y015856*
X017992Y012323D02*
X018396D01*
X018681Y012037*
X018957*
X018543Y01252D02*
X018691Y012372D01*
X017992Y01252D02*
X018543D01*
X0194Y015591D02*
X019695D01*
X017992Y01626D02*
X018652D01*
X01872Y016191*
X022116Y020896D02*
Y021313D01*
X021999Y020778D02*
X022116Y020896D01*
X019862Y018691D02*
X019882Y018671D01*
X026065Y023266D02*
Y024215D01*
Y023266D02*
X026262Y023069D01*
X0256Y023976D02*
Y024321D01*
Y023976D02*
X025758Y023819D01*
Y023219D02*
Y023819D01*
Y023219D02*
X026014Y022963D01*
Y022569D02*
Y022963D01*
X02065Y018361D02*
X021688D01*
X02188Y018169*
X022628*
X019695Y015591D02*
X020325Y01622D01*
Y017057*
X019508Y016801D02*
X019537D01*
X019803Y017067*
X019843*
X020994Y018907D02*
X02126Y018642D01*
X028614Y022981D02*
X028989D01*
X028406Y023189D02*
X028614Y022981D01*
X028051Y023189D02*
X028406D01*
X01626Y020276D02*
Y022175D01*
X022126Y019872D02*
X0225D01*
X020994Y018907D02*
Y019173D01*
X020059Y019193D02*
X020482D01*
X022598Y019547D02*
X022766Y01938D01*
X015138Y018081D02*
X016636Y019579D01*
Y022069*
X016476Y019665D02*
Y022146D01*
X014823Y018396D02*
X015207D01*
X016476Y019665*
X014784Y018799D02*
X01626Y020276D01*
X014173Y017923D02*
X014331Y018081D01*
X015138*
X013976Y018012D02*
X014282Y018317D01*
Y018327*
X01435Y018396*
X014823*
X01378Y018051D02*
X014528Y018799D01*
X014784*
X013848Y018553D02*
X014459Y019163D01*
X014774*
X013671Y01878D02*
X014537Y019646D01*
X014774*
X015069*
X015807Y020384*
Y022608*
X014774Y019163D02*
X014872D01*
X016024Y020315*
Y02248*
X014774Y021398D02*
X014951Y02122D01*
X018199D02*
Y021713D01*
Y02122D02*
X018278Y021142D01*
Y020659D02*
Y021142D01*
X018268Y02065D02*
X018278Y020659D01*
X023327Y021693D02*
X023593D01*
X023035Y021313D02*
X023327Y021604D01*
Y021693*
X027185Y019449D02*
X027244Y01939D01*
X02439Y013858D02*
X024498Y01375D01*
X024488Y006919D02*
X024498Y006929D01*
Y01375*
X018593Y013494D02*
X019498D01*
X019734Y013258*
Y010197D02*
Y013258D01*
X020571Y009547D02*
Y009567D01*
X016319Y018878D02*
X016407D01*
X016142Y018701D02*
X016319Y018878D01*
X016407D02*
Y018927D01*
X016683Y019203*
X017077D02*
X017126Y019154D01*
X017854*
X016535Y01752D02*
Y018425D01*
X017077Y019203D02*
Y019715D01*
Y020108D02*
X017283D01*
X017431Y019961*
Y019439D02*
Y019961D01*
Y019439D02*
X017461Y019409D01*
X021339Y016949D02*
Y017254D01*
X021201Y017392D02*
X021339Y017254D01*
X022087Y017303D02*
X022185D01*
X016732Y01752D02*
Y018081D01*
X01716Y018509*
X018174*
X018248Y018435*
X02901Y018455D02*
X029453Y018898D01*
X02625Y018455D02*
X02901D01*
X025935Y01877D02*
X02625Y018455D01*
X025935Y01877D02*
Y019124D01*
X016535Y018425D02*
X016811Y018701D01*
X016841*
X019085Y019488D02*
X019301Y019705D01*
X023848Y019902D02*
Y019921D01*
X023209Y01938D02*
X023465Y019636D01*
X026021*
X02435Y019439D02*
X02562D01*
X025935Y019124*
X019094Y017746D02*
X019154Y017805D01*
Y018445*
X019075Y018524D02*
X019154Y018445D01*
X020315Y019547D02*
X022598D01*
X020167Y0194D02*
X020315Y019547D01*
X018996Y020768D02*
X019163D01*
X019301Y02063*
Y020098D02*
Y020433D01*
Y02063*
X018602Y019665D02*
X018839D01*
X019774Y019764D02*
X01998D01*
X020374Y020157*
X020285D02*
X020374D01*
X020039Y01956D02*
X020234Y019754D01*
X021467*
X021634Y019921*
X023593Y022087D02*
X023839D01*
X024577Y02189D02*
Y022047D01*
X016043Y013189D02*
X017116Y012116D01*
X017343*
X020325Y017057D02*
X020915Y017648D01*
X020679Y01815D02*
X020827D01*
X020915Y018061*
Y017648D02*
Y018061D01*
X019547Y017805D02*
X019685D01*
X019774Y017717*
X020197*
X020246Y017766*
Y018022*
X020118Y01815D02*
X020246Y018022D01*
X019951Y01815D02*
X020118D01*
X01982Y017938D02*
X01998D01*
X019606Y018152D02*
X01982Y017938D01*
X020529D02*
X02065D01*
X020406Y018061D02*
X020529Y017938D01*
X020406Y018061D02*
Y018186D01*
X020226Y018366D02*
X020406Y018186D01*
X019985Y018366D02*
X020226D01*
X01998Y018361D02*
X019985Y018366D01*
X019882Y018671D02*
X01998Y018573D01*
Y018361D02*
Y018573D01*
X01997Y019104D02*
X020059Y019193D01*
X01997Y019065D02*
Y019104D01*
X019045Y019459D02*
X019114D01*
X019085Y019488D02*
X019114Y019459D01*
X01954Y01956D02*
X020039D01*
X019075Y018524D02*
Y019094D01*
X01954Y01956*
X01936Y01874D02*
Y019134D01*
X019626Y0194*
X020167*
X019606Y018152D02*
Y018996D01*
X020492Y02062D02*
X02128Y021407D01*
Y024439*
X021703Y024862*
X022185*
X021634Y019921D02*
Y022402D01*
X011476Y015472D02*
X011929D01*
X011407Y015541D02*
X011476Y015472D01*
X011122Y015541D02*
X011407D01*
X011122Y015148D02*
X011319D01*
X011447Y015276*
X011929*
X019028Y007323D02*
Y007744D01*
X018694Y008077D02*
X019028Y007744D01*
X014173Y009449D02*
Y011457D01*
X012431Y019754D02*
Y020541D01*
X011929Y016654D02*
X012323D01*
X012441Y016772*
Y016988*
X011073Y01685D02*
X011752Y01753D01*
Y019852*
X012008Y020108*
X011929Y01685D02*
X012008Y016929D01*
Y019331*
X012431Y019754*
X012215Y017215D02*
X012441Y016988D01*
X012215Y017215D02*
Y019232D01*
X01374Y020758*
X012795Y01752D02*
Y018258D01*
X012667Y018386D02*
X012795Y018258D01*
X012717Y016654D02*
Y01686D01*
X012601Y016976D02*
X012717Y01686D01*
X012598Y01752D02*
X012601D01*
Y016976D02*
Y01752D01*
X014053Y007435D02*
X014144Y007526D01*
Y00812*
X014553Y007435D02*
X014764Y007646D01*
Y011457*
X014488Y008327D02*
X014567Y008406D01*
Y011457*
X01437Y00878D02*
Y011457D01*
X014311Y00872D02*
X01437Y00878D01*
X014311Y008701D02*
Y00872D01*
X014961Y009203D02*
Y011457D01*
Y009203D02*
X015069Y009094D01*
Y008878D02*
Y009094D01*
X011565Y008091D02*
X01185Y007805D01*
X011565Y008091D02*
Y008583D01*
X012441Y00813D02*
Y008209D01*
X011565Y009085D02*
X012441Y008209D01*
X011594Y009537D02*
X01188D01*
X011565Y009567D02*
X011594Y009537D01*
X011909Y010059D02*
X011919Y010069D01*
X011565Y010059D02*
X011909D01*
X011171Y008583D02*
Y009085D01*
Y009567*
Y010059*
X010925Y009567D02*
X011171D01*
X011929Y01626D02*
X012559D01*
X011929Y016063D02*
X01249D01*
X011929Y015866D02*
X012392D01*
X011929Y015669D02*
X012283D01*
X013819Y014134*
X013386Y011821D02*
Y012106D01*
X013809Y012047D02*
X013819Y012057D01*
Y014134*
X013189Y010827D02*
Y011457D01*
Y010827D02*
X013406Y01061D01*
Y010079D02*
Y01061D01*
X01875Y020945D02*
X018819D01*
X018996Y020768*
X019665Y021594D02*
X020531D01*
X020748Y021811*
X010915Y009557D02*
X010925Y009567D01*
X017589Y021614D02*
X017687Y021713D01*
X018199*
X030856Y007923D02*
Y008425D01*
Y007923D02*
X030994Y007785D01*
X03126*
X014961Y017018D02*
Y01752D01*
X012972Y016949D02*
X012992Y016968D01*
Y01752*
X023677Y017008D02*
X02368Y017005D01*
X022996Y018538D02*
X025602D01*
X022776Y017215D02*
Y017608D01*
X023095Y017928*
X023622Y015354D02*
Y0156D01*
X023602Y01562D02*
X023622Y0156D01*
X022766Y01938D02*
X023209D01*
X023907Y018996D02*
X02435Y019439D01*
X02376Y018996D02*
X023907D01*
X022628Y018169D02*
X022996Y018538D01*
X025602D02*
X025813Y018327D01*
X026024*
X014961Y017018D02*
X01497Y017008D01*
X014764Y017136D02*
Y01752D01*
X014567Y016949D02*
X014577D01*
X014764Y017136*
X023976Y017598D02*
X024428Y017147D01*
Y017005D02*
Y017147D01*
X018839Y019665D02*
X019045Y019459D01*
X013543Y021791D02*
X01439D01*
X027352Y019656D02*
X027598Y019409D01*
X028228*
X027441Y019892D02*
X027648Y019685D01*
X028976*
X029094Y019803*
X029626*
X029685Y019744*
X017343Y012116D02*
X017638Y011821D01*
Y011811D02*
Y011821D01*
X012667Y01878D02*
Y018848D01*
X013228Y019409*
X013189Y01752D02*
Y018543D01*
X013238Y018593*
X025768Y020896D02*
Y022323D01*
X026014Y022569*
X026021Y019636D02*
X026208Y019449D01*
X026122Y019902D02*
X026368Y019656D01*
X023848Y019902D02*
X026122D01*
X026208Y019449D02*
X027185D01*
X026368Y019656D02*
X027352D01*
X026536Y019892D02*
X027441D01*
X028736Y023626D02*
Y023913D01*
Y023626D02*
X028947Y023415D01*
X029114*
X015807Y022608D02*
X017293Y024094D01*
X017766*
X010718Y022028D02*
X011014D01*
X010699Y022047D02*
X010718Y022028D01*
X010758Y022323D02*
X011014D01*
X010738Y022343D02*
X010758Y022323D01*
X011014D02*
Y022598D01*
X011004Y022608D02*
X011014Y022598D01*
X010778Y021732D02*
X011014D01*
X010748Y021762D02*
X010778Y021732D01*
X01313Y02498D02*
Y025167D01*
Y024961D02*
Y02498D01*
X013445*
X012815D02*
X01313D01*
X02876Y016821D02*
X028839D01*
X028809Y01685D02*
X028839Y016821D01*
X02873Y016713D02*
X028839Y016821D01*
X028465Y016713D02*
X02873D01*
X028209D02*
X028465D01*
X028089Y016832D02*
X028209Y016713D01*
X027517Y016832D02*
X028089D01*
X028465Y016713D02*
Y017165D01*
X028474Y017175*
X028297Y017569D02*
X028474D01*
X028297D02*
D01*
X028474Y017726D02*
D01*
Y017569D02*
D01*
Y017726*
X028297Y017569D02*
X028474D01*
X028652*
X011024Y020945D02*
Y021211D01*
Y020945D02*
X01123Y020738D01*
X012461Y010079D02*
Y010364D01*
X012992Y010896*
Y011457*
X012461Y010079D02*
X01247Y010069D01*
X013406Y009193D02*
Y010079D01*
X012323Y008917D02*
X01253D01*
X012323Y009301D02*
Y009941D01*
X012461Y010079*
X014045Y008219D02*
X014144Y00812D01*
X014045Y008219D02*
Y009321D01*
X014173Y009449*
X013406Y008799D02*
X013583D01*
X01376Y008976*
X011772Y023268D02*
X011949D01*
X011772D02*
D01*
X011949D02*
Y023425D01*
X011122Y015541D02*
Y015758D01*
Y015148D02*
Y015295D01*
X010955Y015148D02*
X011122D01*
Y015D02*
Y015148D01*
X017303Y008917D02*
X01748D01*
X017303D02*
D01*
X01748D02*
X017657D01*
X01748Y00876D02*
Y008917D01*
X020837Y009281D02*
X021009D01*
X020659D02*
X020837D01*
Y009439*
X021732Y016949D02*
Y017126D01*
Y016949D02*
X02189D01*
X021732Y016772D02*
Y016949D01*
Y016772D02*
D01*
X025404Y007795D02*
X025581D01*
X024921D02*
X025404D01*
X024892Y007638D02*
Y007766D01*
X024921Y007795*
X025404Y007638D02*
Y007795D01*
Y007638D02*
D01*
X032943Y007431D02*
X034055Y008543D01*
X032618Y007431D02*
X032943D01*
X03126Y007785D02*
X031762D01*
Y007628D02*
Y007785D01*
X03126Y007628D02*
Y007785D01*
X026683Y015817D02*
X02689Y01561D01*
X026683Y015817D02*
Y016535D01*
X024428Y016675D02*
X025069Y016033D01*
X023348Y01822D02*
X023465Y018337D01*
X025399*
X025474Y018262*
Y017972D02*
Y018002D01*
Y018262*
X023435Y017008D02*
X023677D01*
X019183Y01374D02*
X019685D01*
X019705Y01376*
X02065Y01123D02*
Y011388D01*
X020472D02*
X02065D01*
X020827*
X01376Y008976D02*
Y009065D01*
X01253Y008917D02*
X012894Y009281D01*
Y009409*
X01062Y012333D02*
X01063Y012323D01*
X011929D02*
X012274D01*
X011929Y012126D02*
X012274D01*
X011585D02*
X011929D01*
X011585D02*
D01*
X011929Y012018D02*
D01*
Y012126D01*
Y012323*
X010906Y012165D02*
Y012323D01*
Y012451*
X01063Y012323D02*
X010906D01*
X011929*
X019345Y016033D02*
X019508D01*
X019341Y016038D02*
X019345Y016033D01*
X019508Y015876D02*
Y016033D01*
G54D51*
X024526Y017972D02*
X025474D01*
X025037Y015354D02*
X025986D01*
G54D52*
X02564Y017195D02*
X025709D01*
G54D53*
X026545Y008293D02*
X027427D01*
X029596Y017933D02*
X029606D01*
X02563Y012175D02*
X026417D01*
X026526Y012283*
X025965Y01375D02*
Y01437D01*
X023003Y024123D02*
X023661Y023465D01*
X02265Y024123D02*
X023003D01*
X02499Y021476D02*
X02502Y021447D01*
X024114Y023012D02*
Y023553D01*
X024262Y021427D02*
X024429Y02126D01*
X025965Y01375D02*
X02626Y013455D01*
X026348*
X011407Y021732D02*
D01*
Y022018D01*
Y022323*
X024941Y022185D02*
X02499D01*
X024114Y023012D02*
X024941Y022185D01*
X024016Y01126D02*
X024222Y011053D01*
Y007254D02*
Y011053D01*
X023986Y007018D02*
X024222Y007254D01*
X023986Y006585D02*
Y007018D01*
X02374Y017982D02*
X024134D01*
X024016Y01126D02*
Y014409D01*
X023593Y022825D02*
X024262Y022156D01*
Y021427D02*
Y022156D01*
X026117Y008293D02*
X026545D01*
X025679Y007854D02*
X026117Y008293D01*
X025679Y00751D02*
Y007854D01*
X033868Y012264D02*
Y0125D01*
Y012028D02*
Y012264D01*
X033524D02*
X033868D01*
X033524D02*
D01*
X033868D02*
X034204D01*
X026388Y014439D02*
X026673D01*
X026388D02*
D01*
X023121Y017363D02*
X02374Y017982D01*
X023121Y015305D02*
X024016Y014409D01*
X023121Y015305D02*
Y017363D01*
X025149Y013175D02*
X02563D01*
X025148Y013174D02*
X025149Y013175D01*
X025151Y012675D02*
X02563D01*
X02515Y011675D02*
X02563D01*
X025148Y011673D02*
X02515Y011675D01*
X025139Y011175D02*
X02563D01*
X025138Y011176D02*
X025139Y011175D01*
X028809Y011201D02*
X029213D01*
X028661Y011348D02*
X028809Y011201D01*
X020128Y013155D02*
Y013553D01*
Y013952*
X020123Y013957D02*
X020128Y013952D01*
X019862Y013553D02*
X020128D01*
X020384*
G54D54*
X032667Y009291D02*
Y010079D01*
X032707Y010118*
X030364Y009291D02*
Y010098D01*
X03062Y009291D02*
Y009843D01*
X030344Y010118D02*
X030364Y010098D01*
X03062Y009843*
X030876Y009291D02*
Y00997D01*
X031339Y010433D02*
X031516D01*
X031132Y009291D02*
Y010049D01*
X031516Y010433*
X031132Y010817D02*
Y011575D01*
Y010817D02*
X031516Y010433D01*
X032411Y010866D02*
Y011575D01*
X031978Y010433D02*
X032411Y010866D01*
X031516Y010433D02*
X031978D01*
X030876Y00997D02*
X031339Y010433D01*
X028809Y008293D02*
X029385D01*
X02939Y008297*
G54D55*
X031289Y012185D02*
X031388Y012087D01*
Y011575D02*
Y012087D01*
X032667Y011575D02*
X033888D01*
X029656Y01252D02*
Y012579D01*
X030079Y013002*
X027972Y022028D02*
Y022559D01*
X028268Y022854*
X011407Y02122D02*
Y021732D01*
X023976Y015079D02*
X024016Y015118D01*
Y015354*
X025037D01*
X025197Y022972D02*
X025344D01*
X024941Y022717D02*
X025197Y022972D01*
X022933Y022904D02*
X023238D01*
X023514*
X020915Y02439D02*
Y024547D01*
X020738Y02439D02*
X020915D01*
X020738D02*
D01*
X030876Y011575D02*
Y012215D01*
X03126Y012598*
Y012972*
X032037Y01375*
Y01378*
G54D56*
X029665Y015433D02*
Y016014D01*
X025561Y017195D02*
X02564D01*
X017835Y008642D02*
X018258D01*
X018681*
X018258Y008337D02*
Y008642D01*
Y008947*
X019833Y009587D02*
X020256D01*
X019833Y009286D02*
Y009587D01*
Y009286D02*
X019838Y009281D01*
X019833Y009587D02*
Y009833D01*
X027992Y01561D02*
Y015866D01*
Y015354D02*
Y01561D01*
X028307*
X027677D02*
X027992D01*
X027677D02*
D01*
X024813Y014232D02*
X025049D01*
X02563Y013342D02*
X025635Y013346D01*
X02563Y013175D02*
Y013342D01*
Y012795D02*
Y013175D01*
Y011004D02*
Y011175D01*
Y011634*
G54D57*
X026299Y021673D02*
X026315Y021689D01*
X026815Y024039D02*
X026941Y023913D01*
G54D58*
X027972Y021339D02*
X028012Y021299D01*
X028178Y022233D02*
X028989D01*
X027972Y022028D02*
X028178Y022233D01*
X028012Y021299D02*
X028396D01*
X029567Y006949D02*
Y00812D01*
X02939Y008297D02*
X029567Y00812D01*
X020069Y025069D02*
X020482D01*
X019656D02*
X020069D01*
Y025305*
Y024833D02*
Y025069D01*
Y024833D02*
D01*
X030935Y006634D02*
Y007037D01*
Y007441*
X030669Y007037D02*
X030935D01*
X031201*
X026673Y014439D02*
Y014695D01*
D01*
Y014183D02*
Y014439D01*
Y014183D02*
D01*
Y014439D02*
X026978D01*
X027992Y014311D02*
Y014567D01*
D01*
Y014055D02*
Y014311D01*
Y014055D02*
D01*
Y014311D02*
X028307D01*
X027677D02*
X027992D01*
X027677D02*
D01*
X024813Y013814D02*
Y014232D01*
X024808Y013809D02*
X024813Y013814D01*
G54D59*
X025037Y015354D02*
Y015372D01*
X025728Y016063*
X025315Y017382D02*
Y017843D01*
Y017382D02*
X025502Y017195D01*
X025561*
X025315Y017843D02*
X025474Y018002D01*
G54D60*
X031526Y010433D03*
G54D61*
X027677Y008543D03*
G54D62*
X026076Y015321D03*
G54D63*
X020028Y007323D03*
X019028D03*
G54D64*
X031004Y024409D03*
Y021693D03*
G54D65*
X033169Y024409D03*
Y021693D03*
G54D66*
X014642Y006935D03*
Y007435D03*
X014142Y006935D03*
Y007435D03*
X013642Y006935D03*
Y007435D03*
X013142Y006935D03*
Y007435D03*
X012642Y006935D03*
Y007435D03*
X010984Y007047D03*
Y01937D03*
G54D67*
X033661Y007283D03*
X022244D03*
Y018898D03*
X033661D03*
X030453D03*
X028453D03*
X029453D03*
X024453D03*
X025453D03*
X026453D03*
X027453D03*
G54D68*
X031453Y018898D03*
G54D69*
X012303Y02378D03*
X014035D03*
G54D70*
X015728Y014656D03*
X015827Y015463D03*
X016348Y014833D03*
X026535Y016762D03*
X014419Y013278D03*
X01626Y010758D03*
X031526Y010118D03*
X030344D03*
X032707D03*
X032116D03*
X032707Y010748D03*
X031526D03*
X030344D03*
X030935D03*
X032116D03*
X027913Y007716D03*
X027441D03*
Y009369D03*
X027913D03*
Y008818D03*
X027441D03*
Y008267D03*
X027913D03*
X025906Y016614D03*
X02688Y007224D03*
X024941Y009281D03*
X025157Y0075D03*
X028819Y010295D03*
X029636Y009518D03*
X03128Y008691D03*
X033504Y008386D03*
X031289Y012185D03*
X031713Y012864D03*
X033071Y012451D03*
X032726Y012904D03*
X03252Y013346D03*
X032795Y007756D03*
X033248Y01125D03*
X034104Y010709D03*
X030226Y007126D03*
X023396Y013947D03*
X030079Y013002D03*
X028465Y016043D03*
X026526Y012283D03*
X024823Y013175D03*
X022185Y017303D03*
Y016073D03*
X019951Y016309D03*
X022313Y022106D03*
X024665Y023012D03*
X024114Y023553D03*
X022185Y024862D03*
X027067Y022293D03*
X02752Y023248D03*
X02753Y022844D03*
X024754Y02378D03*
X029577Y023593D03*
X028268Y022854D03*
X028396Y021299D03*
X029685Y022146D03*
X024961Y011673D03*
Y011181D03*
Y010728D03*
X025453Y010738D03*
X028661Y012175D03*
Y012569D03*
Y013002D03*
X028248Y013012D03*
X027835D03*
X028661Y011762D03*
Y011348D03*
X028248D03*
X033031Y009154D03*
X029385Y008293D03*
X030463Y008711D03*
X026348Y013455D03*
X024409Y013858D03*
X013238Y014227D03*
X013228Y015984D03*
X017106Y015522D03*
X017156Y013868D03*
X019134Y014163D03*
X01748Y016457D03*
X017264Y015157D03*
X015974Y012333D03*
X013179Y012461D03*
X01251Y01252D03*
X010906Y012953D03*
X012549Y012087D03*
X015433Y010364D03*
X016142Y010413D03*
X013415Y012156D03*
X019183Y01374D03*
X021073Y013691D03*
X022579Y011171D03*
X01747Y010226D03*
X016821D03*
X015157Y013189D03*
X012421Y020551D03*
X012815Y023356D03*
X013258Y023396D03*
X011407Y022018D03*
X012146D03*
X01315Y02189D03*
X01374D03*
X013445Y021594D03*
X020896Y011063D03*
X014596Y020817D03*
X011732Y020728D03*
X013209Y019813D03*
X018642Y024596D03*
X019951Y0244D03*
X017283Y023681D03*
X018898Y024104D03*
X019252Y023996D03*
X019173Y009518D03*
X01937Y010689D03*
X017933Y020197D03*
X017461Y019409D03*
X020148Y02185D03*
X018248Y022657D03*
X018917Y021319D03*
X019055Y017156D03*
Y016752D03*
X018622Y018553D03*
X015945Y0169D03*
X021201Y017392D03*
X016604Y013524D03*
X015551Y012087D03*
X022018Y014852D03*
X02063Y014478D03*
X017303Y018169D03*
X02122Y020157D03*
X018593Y013494D03*
X019006Y013081D03*
X023465Y020531D03*
X019449Y01312D03*
X02062Y012854D03*
X019331Y01252D03*
X018366Y017431D03*
X018632Y015856D03*
X018691Y012372D03*
X0194Y015591D03*
X01872Y016191D03*
X021999Y020778D03*
X025738Y022766D03*
X026319Y023002D03*
X0256Y024321D03*
X024094Y024911D03*
X024656Y025167D03*
X019843Y017067D03*
X02126Y018642D03*
X022982Y019636D03*
X028051Y023189D03*
X022126Y019872D03*
X027244Y01939D03*
X014823Y018396D03*
X014784Y018799D03*
X014774Y019163D03*
Y019646D03*
X014951Y02122D03*
X018268Y02065D03*
X023327Y021693D03*
X029252Y019478D03*
X029685Y019744D03*
X0269Y019163D03*
X024488Y006919D03*
X019734Y010197D03*
X022313Y008553D03*
X023858Y010148D03*
X023848Y010778D03*
X020571Y009567D03*
X016407Y018878D03*
X019882Y018671D03*
X019459Y017461D03*
X018248Y018435D03*
X021319Y017992D03*
X026457Y018179D03*
X016841Y018701D03*
X01936Y01874D03*
X023848Y019921D03*
X019301Y020433D03*
X023839Y022087D03*
X024577Y022047D03*
X016043Y013189D03*
X019892Y01748D03*
X01997Y019065D03*
X019045Y019459D03*
X019606Y018996D03*
X020492Y02062D03*
X021634Y022402D03*
X024134Y020364D03*
X018691Y008051D03*
X012717Y016654D03*
X014488Y008327D03*
X014311Y008701D03*
X015069Y008878D03*
X01185Y007805D03*
X012441Y00813D03*
X01188Y009537D03*
X011919Y010069D03*
X013809Y012047D03*
X010915Y009557D03*
X012972Y016949D03*
X026024Y018327D03*
X025787Y017618D03*
X023602Y01562D03*
X022776Y017215D03*
X023691Y008573D03*
X023986Y006585D03*
X022983Y019075D03*
X02376Y018996D03*
X01497Y017008D03*
X014567Y016949D03*
X024134Y017982D03*
X023976Y017598D03*
X023002Y025256D03*
X02563Y024715D03*
X017283Y012421D03*
X01063Y013337D03*
X030935Y010118D03*
X010197Y00626D03*
X034803D03*
Y025866D03*
X010197D03*
X034803Y008228D03*
Y010197D03*
Y012165D03*
Y014134D03*
Y016102D03*
Y018071D03*
Y020039D03*
Y022008D03*
Y023976D03*
X012165Y025866D03*
X014134D03*
X010197Y023898D03*
Y021929D03*
Y019961D03*
Y017992D03*
Y016024D03*
Y014055D03*
Y012087D03*
Y010118D03*
Y00815D03*
X032717Y00626D03*
X03063D03*
X028543D03*
X026457D03*
X02437D03*
X022283D03*
X012283D03*
X01437D03*
X016457D03*
X018543D03*
X020512D03*
X027441Y021496D03*
X027402Y021102D03*
X028228Y019409D03*
X014488Y012953D03*
X014803Y012638D03*
X017638Y011811D03*
X013268Y019016D03*
X013228Y019409D03*
X013238Y018593D03*
X025354Y013583D03*
X023976Y015079D03*
X025492Y021191D03*
X025768Y020896D03*
X026201Y021083D03*
X026594D03*
Y020689D03*
X026201D03*
X026594Y020295D03*
X026536Y019892D03*
X026201Y020295D03*
X031004Y021063D03*
X030374D03*
X031614D03*
Y020571D03*
X030994D03*
X030374D03*
Y021555D03*
Y022047D03*
X029754Y021555D03*
Y021063D03*
Y020571D03*
X027677Y024872D03*
Y025197D03*
X029035Y024547D03*
X027687D03*
X029035Y025197D03*
Y024872D03*
X029114Y023415D03*
X027382Y020689D03*
Y020295D03*
X027776Y020098D03*
Y020492D03*
X032913Y025866D03*
X016024D03*
X017913D03*
X019803D03*
X021693D03*
X023583D03*
X024941Y022717D03*
X023238Y022904D03*
X017766Y024094D03*
X012618Y024252D03*
X013356Y023848D03*
X012894D03*
X033494Y020699D03*
X034085D03*
X033789Y020305D03*
X034085Y02001D03*
X02751Y018189D03*
X028839Y016821D03*
X01123Y020738D03*
X02812Y024547D03*
Y024872D03*
Y025197D03*
X028593D03*
Y024872D03*
Y024547D03*
X022215Y023494D03*
X022608Y02374D03*
X021703Y022972D03*
Y024055D03*
Y023514D03*
X011122Y015758D03*
X029606Y017913D03*
X029213D03*
X03D03*
X030354Y016181D03*
Y015787D03*
X030344Y016594D03*
X029951D03*
X029557D03*
X030354Y015394D03*
X031722Y015384D03*
Y015778D03*
X031329Y015384D03*
X030935D03*
X032037Y014567D03*
X031644D03*
X03125D03*
X032037Y014173D03*
Y01378D03*
X029045Y014203D03*
X027235Y015247D03*
X026841Y015246D03*
X025069Y016033D03*
X024567Y017648D03*
X023435Y017008D03*
X025945Y010738D03*
X027835Y011348D03*
X022657Y012726D03*
X01376Y009065D03*
X012894Y009409D03*
X014783Y020266D03*
X015177Y013593D03*
X014951Y016289D03*
X017254Y014715D03*
X010197Y007205D03*
Y009134D03*
Y011102D03*
Y013071D03*
Y015039D03*
Y017008D03*
Y018976D03*
Y020945D03*
Y022913D03*
Y024882D03*
X011181Y025866D03*
X01315D03*
X015118D03*
X016988D03*
X018858D03*
X020728D03*
X022638D03*
X031929D03*
X033858D03*
X034803Y024921D03*
Y022992D03*
Y021024D03*
Y019055D03*
Y017087D03*
Y015118D03*
Y01315D03*
Y011181D03*
Y009213D03*
Y007244D03*
X033819Y00626D03*
X031673D03*
X029596D03*
X02751D03*
X025413D03*
X023327D03*
X021398D03*
X019528D03*
X017559D03*
X015423D03*
X013327D03*
X01126D03*
M02*