%FSTAX24Y24*%
%MOIN*%
%SFA1B1*%

%IPPOS*%
%AMD87*
4,1,4,0.000000,0.041700,-0.041700,0.000000,0.000000,-0.041700,0.041700,0.000000,0.000000,0.041700,0.0*
%
%ADD11R,0.019700X0.023600*%
%ADD12R,0.023600X0.019700*%
%ADD20R,0.031500X0.035400*%
%ADD25R,0.039400X0.066900*%
%ADD26R,0.055100X0.033500*%
%ADD27R,0.070900X0.035400*%
%ADD33R,0.035400X0.031500*%
%ADD35R,0.035400X0.070900*%
%ADD39R,0.023600X0.070900*%
%ADD42C,0.059100*%
%ADD43R,0.049200X0.037400*%
%ADD46R,0.019700X0.014800*%
%ADD47R,0.025600X0.011800*%
%ADD49R,0.019700X0.039400*%
%ADD50R,0.011000X0.055100*%
%ADD52C,0.010000*%
%ADD53C,0.020000*%
%ADD54C,0.015000*%
%ADD55C,0.030000*%
%ADD57C,0.025000*%
%ADD64R,0.110200X0.220500*%
%ADD65R,0.283500X0.126000*%
%ADD66C,0.003900*%
%ADD67C,0.050000*%
%ADD68R,0.050000X0.050000*%
%ADD69C,0.039400*%
%ADD70C,0.086600*%
%ADD71R,0.086600X0.086600*%
%ADD72C,0.065000*%
%ADD73C,0.025000*%
%ADD74R,0.078700X0.098400*%
%ADD75R,0.019700X0.090600*%
%ADD76R,0.013800X0.045300*%
%ADD77R,0.094500X0.029900*%
%ADD78R,0.029900X0.063000*%
%ADD79R,0.041300X0.023600*%
%ADD80R,0.031500X0.043300*%
%ADD81R,0.014800X0.019700*%
%ADD82R,0.011800X0.025600*%
%ADD83R,0.110200X0.086600*%
%ADD84R,0.033500X0.055100*%
%ADD85R,0.082700X0.055100*%
%ADD86R,0.055100X0.082700*%
G04~CAMADD=87~10~0.0~590.4~0.0~0.0~0.0~0.0~0~0.0~0.0~0.0~0.0~0~0.0~0.0~0.0~0.0~0~0.0~0.0~0.0~405.0~590.4~0.0*
%ADD87D87*%
%ADD88R,0.066900X0.039400*%
%ADD89R,0.023600X0.061000*%
%ADD90R,0.053200X0.015700*%
%ADD91R,0.078700X0.047200*%
%LNee4951_bpm_reva-1*%
%LPD*%
G36*
X035Y006063D02*
X01D01*
Y008425*
Y026063*
X035*
Y006063*
G37*
%LNee4951_bpm_reva-2*%
%LPC*%
G36*
X027391Y007833D02*
X027351Y007806D01*
X027324Y007766*
X027391*
Y007833*
G37*
G36*
X027491D02*
Y007766D01*
X027558*
X027531Y007806*
X027491Y007833*
G37*
G36*
X027863D02*
X027823Y007806D01*
X027796Y007766*
X027863*
Y007833*
G37*
G36*
X032912Y007706D02*
X032845D01*
Y007639*
X032885Y007666*
X032912Y007706*
G37*
G36*
X027558Y007666D02*
X027491D01*
Y007599*
X027531Y007626*
X027558Y007666*
G37*
G36*
X027863D02*
X027796D01*
X027823Y007626*
X027863Y007599*
Y007666*
G37*
G36*
X032745Y007706D02*
X032678D01*
X032705Y007666*
X032745Y007639*
Y007706*
G37*
G36*
X010147Y0081D02*
X01008D01*
X010107Y008059*
X010147Y008033*
Y0081*
G37*
G36*
X027558Y008217D02*
X027491D01*
Y00815*
X027531Y008177*
X027558Y008217*
G37*
G36*
X027863D02*
X027796D01*
X027823Y008177*
X027863Y00815*
Y008217*
G37*
G36*
X010147Y008267D02*
X010107Y00824D01*
X01008Y0082*
X010147*
Y008267*
G37*
G36*
X027391Y008217D02*
X027324D01*
X027351Y008177*
X027391Y00815*
Y008217*
G37*
G36*
X010314Y0081D02*
X010247D01*
Y008033*
X010287Y008059*
X010314Y0081*
G37*
G36*
X034753Y008178D02*
X034686D01*
X034713Y008138*
X034753Y008111*
Y008178*
G37*
G36*
X03492D02*
X034853D01*
Y008111*
X034893Y008138*
X03492Y008178*
G37*
G36*
X019978Y007644D02*
X019943Y007639D01*
X019864Y007607*
X019796Y007554*
X019744Y007487*
X019711Y007408*
X019707Y007373*
X019978*
Y007644*
G37*
G36*
X020078D02*
Y007373D01*
X020349*
X020344Y007408*
X020311Y007487*
X020259Y007554*
X020191Y007607*
X020112Y007639*
X020078Y007644*
G37*
G36*
X025107Y00745D02*
X025041D01*
X025067Y00741*
X025107Y007383*
Y00745*
G37*
G36*
X031339Y007164D02*
Y007097D01*
X031406*
X031379Y007137*
X031339Y007164*
G37*
G36*
X019978Y007273D02*
X019707D01*
X019711Y007238*
X019744Y007159*
X019796Y007091*
X019864Y007039*
X019943Y007006*
X019978Y007002*
Y007273*
G37*
G36*
X020349D02*
X020078D01*
Y007002*
X020112Y007006*
X020191Y007039*
X020259Y007091*
X020311Y007159*
X020344Y007238*
X020349Y007273*
G37*
G36*
X031239Y007164D02*
X031199Y007137D01*
X031172Y007097*
X031239*
Y007164*
G37*
G36*
X025274Y00745D02*
X025207D01*
Y007383*
X025248Y00741*
X025274Y00745*
G37*
G36*
X031456Y007617D02*
X031416Y00759D01*
X031389Y00755*
X031456*
Y007617*
G37*
G36*
X031556D02*
Y00755D01*
X031623*
X031596Y00759*
X031556Y007617*
G37*
G36*
X027391Y007666D02*
X027324D01*
X027351Y007626*
X027391Y007599*
Y007666*
G37*
G36*
X025207Y007617D02*
Y00755D01*
X025274*
X025248Y00759*
X025207Y007617*
G37*
G36*
X031456Y00745D02*
X031389D01*
X031416Y00741*
X031456Y007383*
Y00745*
G37*
G36*
X031623D02*
X031556D01*
Y007383*
X031596Y00741*
X031623Y00745*
G37*
G36*
X025107Y007617D02*
X025067Y00759D01*
X025041Y00755*
X025107*
Y007617*
G37*
G36*
X027863Y009486D02*
X027823Y00946D01*
X027796Y009419*
X027863*
Y009486*
G37*
G36*
X027391D02*
X027351Y00946D01*
X027324Y009419*
X027391*
Y009486*
G37*
G36*
X027491D02*
Y009419D01*
X027558*
X027531Y00946*
X027491Y009486*
G37*
G36*
X024991Y009398D02*
Y009331D01*
X025058*
X025031Y009372*
X024991Y009398*
G37*
G36*
X027391Y009319D02*
X027324D01*
X027351Y009279*
X027391Y009253*
Y009319*
G37*
G36*
X027558D02*
X027491D01*
Y009253*
X027531Y009279*
X027558Y009319*
G37*
G36*
X024891Y009398D02*
X024851Y009372D01*
X024824Y009331*
X024891*
Y009398*
G37*
G36*
X010147Y010068D02*
X01008D01*
X010107Y010028*
X010147Y010001*
Y010068*
G37*
G36*
X010247Y010235D02*
Y010168D01*
X010314*
X010287Y010208*
X010247Y010235*
G37*
G36*
X034753Y010314D02*
X034713Y010287D01*
X034686Y010247*
X034753*
Y010314*
G37*
G36*
X034853D02*
Y010247D01*
X03492*
X034893Y010287*
X034853Y010314*
G37*
G36*
X010147Y010235D02*
X010107Y010208D01*
X01008Y010168*
X010147*
Y010235*
G37*
G36*
X010314Y010068D02*
X010247D01*
Y010001*
X010287Y010028*
X010314Y010068*
G37*
G36*
X034753Y010147D02*
X034686D01*
X034713Y010107*
X034753Y01008*
Y010147*
G37*
G36*
X03492D02*
X034853D01*
Y01008*
X034893Y010107*
X03492Y010147*
G37*
G36*
X027491Y008384D02*
Y008317D01*
X027558*
X027531Y008357*
X027491Y008384*
G37*
G36*
X027863D02*
X027823Y008357D01*
X027796Y008317*
X027863*
Y008384*
G37*
G36*
X027391Y008768D02*
X027324D01*
X027351Y008728*
X027391Y008701*
Y008768*
G37*
G36*
Y008384D02*
X027351Y008357D01*
X027324Y008317*
X027391*
Y008384*
G37*
G36*
X010247Y008267D02*
Y0082D01*
X010314*
X010287Y00824*
X010247Y008267*
G37*
G36*
X034753Y008345D02*
X034713Y008318D01*
X034686Y008278*
X034753*
Y008345*
G37*
G36*
X034853D02*
Y008278D01*
X03492*
X034893Y008318*
X034853Y008345*
G37*
G36*
X027558Y008768D02*
X027491D01*
Y008701*
X027531Y008728*
X027558Y008768*
G37*
G36*
X024891Y009232D02*
X024824D01*
X024851Y009191*
X024891Y009165*
Y009232*
G37*
G36*
X025058D02*
X024991D01*
Y009165*
X025031Y009191*
X025058Y009232*
G37*
G36*
X027863Y009319D02*
X027796D01*
X027823Y009279*
X027863Y009253*
Y009319*
G37*
G36*
Y008935D02*
X027823Y008908D01*
X027796Y008868*
X027863*
Y008935*
G37*
G36*
Y008768D02*
X027796D01*
X027823Y008728*
X027863Y008701*
Y008768*
G37*
G36*
X027391Y008935D02*
X027351Y008908D01*
X027324Y008868*
X027391*
Y008935*
G37*
G36*
X027491D02*
Y008868D01*
X027558*
X027531Y008908*
X027491Y008935*
G37*
G36*
X02866Y00621D02*
X028593D01*
Y006143*
X028633Y00617*
X02866Y00621*
G37*
G36*
X03058D02*
X030513D01*
X03054Y00617*
X03058Y006143*
Y00621*
G37*
G36*
X030747D02*
X03068D01*
Y006143*
X03072Y00617*
X030747Y00621*
G37*
G36*
X028493D02*
X028426D01*
X028453Y00617*
X028493Y006143*
Y00621*
G37*
G36*
X024487D02*
X02442D01*
Y006143*
X02446Y00617*
X024487Y00621*
G37*
G36*
X026407D02*
X02634D01*
X026367Y00617*
X026407Y006143*
Y00621*
G37*
G36*
X026574D02*
X026507D01*
Y006143*
X026547Y00617*
X026574Y00621*
G37*
G36*
X032667D02*
X0326D01*
X032626Y00617*
X032667Y006143*
Y00621*
G37*
G36*
X010247Y006377D02*
Y00631D01*
X010314*
X010287Y00635*
X010247Y006377*
G37*
G36*
X012233D02*
X012193Y00635D01*
X012167Y00631*
X012233*
Y006377*
G37*
G36*
X012333D02*
Y00631D01*
X0124*
X012374Y00635*
X012333Y006377*
G37*
G36*
X010147D02*
X010107Y00635D01*
X01008Y00631*
X010147*
Y006377*
G37*
G36*
X032833Y00621D02*
X032767D01*
Y006143*
X032807Y00617*
X032833Y00621*
G37*
G36*
X034753D02*
X034686D01*
X034713Y00617*
X034753Y006143*
Y00621*
G37*
G36*
X03492D02*
X034853D01*
Y006143*
X034893Y00617*
X03492Y00621*
G37*
G36*
X01432D02*
X014253D01*
X01428Y00617*
X01432Y006143*
Y00621*
G37*
G36*
X014487D02*
X01442D01*
Y006143*
X01446Y00617*
X014487Y00621*
G37*
G36*
X016407D02*
X01634D01*
X016367Y00617*
X016407Y006143*
Y00621*
G37*
G36*
X0124D02*
X012333D01*
Y006143*
X012374Y00617*
X0124Y00621*
G37*
G36*
X010147D02*
X01008D01*
X010107Y00617*
X010147Y006143*
Y00621*
G37*
G36*
X010314D02*
X010247D01*
Y006143*
X010287Y00617*
X010314Y00621*
G37*
G36*
X012233D02*
X012167D01*
X012193Y00617*
X012233Y006143*
Y00621*
G37*
G36*
X016574D02*
X016507D01*
Y006143*
X016547Y00617*
X016574Y00621*
G37*
G36*
X022233D02*
X022167D01*
X022193Y00617*
X022233Y006143*
Y00621*
G37*
G36*
X0224D02*
X022333D01*
Y006143*
X022374Y00617*
X0224Y00621*
G37*
G36*
X02432D02*
X024253D01*
X02428Y00617*
X02432Y006143*
Y00621*
G37*
G36*
X020629D02*
X020562D01*
Y006143*
X020602Y00617*
X020629Y00621*
G37*
G36*
X018493D02*
X018426D01*
X018453Y00617*
X018493Y006143*
Y00621*
G37*
G36*
X01866D02*
X018593D01*
Y006143*
X018633Y00617*
X01866Y00621*
G37*
G36*
X020462D02*
X020395D01*
X020422Y00617*
X020462Y006143*
Y00621*
G37*
G36*
X032767Y006377D02*
Y00631D01*
X032833*
X032807Y00635*
X032767Y006377*
G37*
G36*
X034753D02*
X034713Y00635D01*
X034686Y00631*
X034753*
Y006377*
G37*
G36*
X034853D02*
Y00631D01*
X03492*
X034893Y00635*
X034853Y006377*
G37*
G36*
X032667D02*
X032626Y00635D01*
X0326Y00631*
X032667*
Y006377*
G37*
G36*
X028593D02*
Y00631D01*
X02866*
X028633Y00635*
X028593Y006377*
G37*
G36*
X03058D02*
X03054Y00635D01*
X030513Y00631*
X03058*
Y006377*
G37*
G36*
X03068D02*
Y00631D01*
X030747*
X03072Y00635*
X03068Y006377*
G37*
G36*
X023986Y006773D02*
X023914Y006759D01*
X023874Y006732*
X023853Y006718*
X023812Y006657*
X023798Y006585*
X023812Y006512*
X023853Y006451*
X023914Y00641*
X023986Y006396*
X024058Y00641*
X02412Y006451*
X02416Y006512*
X024175Y006585*
X02416Y006657*
X02412Y006718*
X024084Y006742*
X024058Y006759*
X023986Y006773*
G37*
G36*
X014092Y006885D02*
X013951D01*
X013956Y006858*
X014Y006793*
X014065Y00675*
X014092Y006744*
Y006885*
G37*
G36*
X031239Y006997D02*
X031172D01*
X031199Y006957*
X031239Y00693*
Y006997*
G37*
G36*
X031406D02*
X031339D01*
Y00693*
X031379Y006957*
X031406Y006997*
G37*
G36*
X013832Y006885D02*
X013692D01*
Y006744*
X013719Y00675*
X013784Y006793*
X013827Y006858*
X013832Y006885*
G37*
G36*
X010984Y007681D02*
X010861Y007669D01*
X010742Y007633*
X010632Y007574*
X010536Y007495*
X010457Y007399*
X010399Y00729*
X010363Y007171*
X01035Y007047*
X010363Y006924*
X010399Y006805*
X010457Y006695*
X010536Y006599*
X010632Y00652*
X010742Y006462*
X010861Y006426*
X010984Y006413*
X011108Y006426*
X011227Y006462*
X011336Y00652*
X011432Y006599*
X011511Y006695*
X01157Y006805*
X011606Y006924*
X011618Y007047*
X011606Y007171*
X01157Y00729*
X011511Y007399*
X011432Y007495*
X011336Y007574*
X011227Y007633*
X011108Y007669*
X010984Y007681*
G37*
G36*
X022244Y007848D02*
X022098Y007829D01*
X021962Y007773*
X021845Y007683*
X021755Y007566*
X021699Y00743*
X021679Y007283*
X021699Y007137*
X021755Y007001*
X021845Y006884*
X021962Y006794*
X022098Y006738*
X022244Y006719*
X02239Y006738*
X022527Y006794*
X022643Y006884*
X022733Y007001*
X02279Y007137*
X022809Y007283*
X02279Y00743*
X022733Y007566*
X022643Y007683*
X022527Y007773*
X02239Y007829*
X022244Y007848*
G37*
G36*
X033661D02*
X033515Y007829D01*
X033379Y007773*
X033262Y007683*
X033172Y007566*
X033116Y00743*
X033097Y007283*
X033116Y007137*
X033172Y007001*
X033262Y006884*
X033379Y006794*
X033515Y006738*
X033661Y006719*
X033808Y006738*
X033944Y006794*
X034061Y006884*
X034151Y007001*
X034207Y007137*
X034226Y007283*
X034207Y00743*
X034151Y007566*
X034061Y007683*
X033944Y007773*
X033808Y007829*
X033661Y007848*
G37*
G36*
X018493Y006377D02*
X018453Y00635D01*
X018426Y00631*
X018493*
Y006377*
G37*
G36*
X018593D02*
Y00631D01*
X01866*
X018633Y00635*
X018593Y006377*
G37*
G36*
X020462D02*
X020422Y00635D01*
X020395Y00631*
X020462*
Y006377*
G37*
G36*
X016507D02*
Y00631D01*
X016574*
X016547Y00635*
X016507Y006377*
G37*
G36*
X01432D02*
X01428Y00635D01*
X014253Y00631*
X01432*
Y006377*
G37*
G36*
X01442D02*
Y00631D01*
X014487*
X01446Y00635*
X01442Y006377*
G37*
G36*
X016407D02*
X016367Y00635D01*
X01634Y00631*
X016407*
Y006377*
G37*
G36*
X020562D02*
Y00631D01*
X020629*
X020602Y00635*
X020562Y006377*
G37*
G36*
X026407D02*
X026367Y00635D01*
X02634Y00631*
X026407*
Y006377*
G37*
G36*
X026507D02*
Y00631D01*
X026574*
X026547Y00635*
X026507Y006377*
G37*
G36*
X028493D02*
X028453Y00635D01*
X028426Y00631*
X028493*
Y006377*
G37*
G36*
X02442D02*
Y00631D01*
X024487*
X02446Y00635*
X02442Y006377*
G37*
G36*
X022233D02*
X022193Y00635D01*
X022167Y00631*
X022233*
Y006377*
G37*
G36*
X022333D02*
Y00631D01*
X0224*
X022374Y00635*
X022333Y006377*
G37*
G36*
X02432D02*
X02428Y00635D01*
X024253Y00631*
X02432*
Y006377*
G37*
G36*
X034753Y018021D02*
X034686D01*
X034713Y017981*
X034753Y017954*
Y018021*
G37*
G36*
X010314Y017942D02*
X010247D01*
Y017875*
X010287Y017902*
X010314Y017942*
G37*
G36*
X03492Y018021D02*
X034853D01*
Y017954*
X034893Y017981*
X03492Y018021*
G37*
G36*
X010247Y018109D02*
Y018042D01*
X010314*
X010287Y018082*
X010247Y018109*
G37*
G36*
X010147D02*
X010107Y018082D01*
X01008Y018042*
X010147*
Y018109*
G37*
G36*
X010247Y016141D02*
Y016074D01*
X010314*
X010287Y016114*
X010247Y016141*
G37*
G36*
X010147D02*
X010107Y016114D01*
X01008Y016074*
X010147*
Y016141*
G37*
G36*
X034753Y016219D02*
X034713Y016192D01*
X034686Y016152*
X034753*
Y016219*
G37*
G36*
X010147Y017942D02*
X01008D01*
X010107Y017902*
X010147Y017875*
Y017942*
G37*
G36*
X034853Y016219D02*
Y016152D01*
X03492*
X034893Y016192*
X034853Y016219*
G37*
G36*
X034753Y019989D02*
X034686D01*
X034713Y019949*
X034753Y019922*
Y019989*
G37*
G36*
X010314Y019911D02*
X010247D01*
Y019844*
X010287Y019871*
X010314Y019911*
G37*
G36*
X03492Y019989D02*
X034853D01*
Y019922*
X034893Y019949*
X03492Y019989*
G37*
G36*
X010247Y020078D02*
Y020011D01*
X010314*
X010287Y020051*
X010247Y020078*
G37*
G36*
X010147D02*
X010107Y020051D01*
X01008Y020011*
X010147*
Y020078*
G37*
G36*
X034853Y018188D02*
Y018121D01*
X03492*
X034893Y018161*
X034853Y018188*
G37*
G36*
X034753D02*
X034713Y018161D01*
X034686Y018121*
X034753*
Y018188*
G37*
G36*
X033661Y019462D02*
X033515Y019443D01*
X033379Y019387*
X033262Y019297*
X033172Y01918*
X033116Y019044*
X033097Y018898*
X033116Y018751*
X033172Y018615*
X033262Y018498*
X033379Y018408*
X033515Y018352*
X033661Y018333*
X033808Y018352*
X033944Y018408*
X034061Y018498*
X034151Y018615*
X034207Y018751*
X034226Y018898*
X034207Y019044*
X034151Y01918*
X034061Y019297*
X033944Y019387*
X033808Y019443*
X033661Y019462*
G37*
G36*
X010147Y019911D02*
X01008D01*
X010107Y019871*
X010147Y019844*
Y019911*
G37*
G36*
X010984Y020004D02*
X010861Y019992D01*
X010742Y019956*
X010632Y019897*
X010536Y019818*
X010457Y019722*
X010399Y019613*
X010363Y019494*
X01035Y01937*
X010363Y019246*
X010399Y019127*
X010457Y019018*
X010536Y018922*
X010632Y018843*
X010742Y018784*
X010861Y018748*
X010984Y018736*
X011108Y018748*
X011227Y018784*
X011336Y018843*
X011432Y018922*
X011511Y019018*
X01157Y019127*
X011606Y019246*
X011618Y01937*
X011606Y019494*
X01157Y019613*
X011511Y019722*
X011432Y019818*
X011336Y019897*
X011227Y019956*
X011108Y019992*
X010984Y020004*
G37*
G36*
X010247Y012204D02*
Y012137D01*
X010314*
X010287Y012177*
X010247Y012204*
G37*
G36*
X034753Y012282D02*
X034713Y012255D01*
X034686Y012215*
X034753*
Y012282*
G37*
G36*
X010147Y012204D02*
X010107Y012177D01*
X01008Y012137*
X010147*
Y012204*
G37*
G36*
X010247Y014172D02*
Y014105D01*
X010314*
X010287Y014145*
X010247Y014172*
G37*
G36*
X010147D02*
X010107Y014145D01*
X01008Y014105*
X010147*
Y014172*
G37*
G36*
X010314Y014005D02*
X010247D01*
Y013938*
X010287Y013965*
X010314Y014005*
G37*
G36*
X010147D02*
X01008D01*
X010107Y013965*
X010147Y013938*
Y014005*
G37*
G36*
X034753Y014084D02*
X034686D01*
X034713Y014044*
X034753Y014017*
Y014084*
G37*
G36*
X034853Y012282D02*
Y012215D01*
X03492*
X034893Y012255*
X034853Y012282*
G37*
G36*
X03492Y014084D02*
X034853D01*
Y014017*
X034893Y014044*
X03492Y014084*
G37*
G36*
X010147Y015974D02*
X01008D01*
X010107Y015934*
X010147Y015907*
Y015974*
G37*
G36*
X034853Y014251D02*
Y014184D01*
X03492*
X034893Y014224*
X034853Y014251*
G37*
G36*
X010314Y015974D02*
X010247D01*
Y015907*
X010287Y015934*
X010314Y015974*
G37*
G36*
X03492Y016052D02*
X034853D01*
Y015985*
X034893Y016012*
X03492Y016052*
G37*
G36*
X034753D02*
X034686D01*
X034713Y016012*
X034753Y015985*
Y016052*
G37*
G36*
Y012115D02*
X034686D01*
X034713Y012075*
X034753Y012048*
Y012115*
G37*
G36*
X03492D02*
X034853D01*
Y012048*
X034893Y012075*
X03492Y012115*
G37*
G36*
X010314Y012037D02*
X010247D01*
Y01197*
X010287Y011996*
X010314Y012037*
G37*
G36*
X034753Y014251D02*
X034713Y014224D01*
X034686Y014184*
X034753*
Y014251*
G37*
G36*
X010147Y012037D02*
X01008D01*
X010107Y011996*
X010147Y01197*
Y012037*
G37*
G36*
X033907Y020435D02*
X033835Y02042D01*
X033774Y020379*
X033733Y020318*
X033719Y020246*
X033733Y020174*
X033774Y020113*
X033835Y020072*
X033907Y020057*
X03398Y020072*
X034041Y020113*
X034082Y020174*
X034096Y020246*
X034082Y020318*
X034041Y020379*
X03398Y02042*
X033907Y020435*
G37*
G36*
X033219Y02484D02*
Y024459D01*
X0336*
X033591Y024523*
X033548Y024628*
X033478Y024718*
X033388Y024788*
X033282Y024831*
X033219Y02484*
G37*
G36*
X033119D02*
X033056Y024831D01*
X032951Y024788*
X03286Y024718*
X032791Y024628*
X032747Y024523*
X032739Y024459*
X033119*
Y02484*
G37*
G36*
X014251Y025816D02*
X014017D01*
X014029Y025798*
X014002Y025748*
X012297*
X01227Y025798*
X012282Y025816*
X012048*
X012061Y025798*
X012034Y025748*
X011181*
X010591Y025157*
Y025079*
Y02311*
Y020669*
X010945Y020315*
X011732*
X012126Y019921*
Y019016*
Y016457*
X011535Y015866*
X010748*
X010394Y015512*
Y01315*
X01063Y012913*
Y012756*
Y008583*
X012047Y007165*
X012438*
X012454Y007128*
X012456Y007115*
X012417Y007065*
X012391Y007002*
X012383Y006935*
X012391Y006868*
X012417Y006806*
X012459Y006752*
X012512Y006711*
X012575Y006685*
X012642Y006676*
X012709Y006685*
X012771Y006711*
X012825Y006752*
X012864Y006803*
X012891Y006807*
X012892*
X012919Y006803*
X012959Y006752*
X013012Y006711*
X013075Y006685*
X013142Y006676*
X013209Y006685*
X013271Y006711*
X013325Y006752*
X013366Y006806*
X013392Y006868*
X013397Y006903*
X013447Y006904*
X013456Y006858*
X0135Y006793*
X013565Y00675*
X013592Y006744*
Y006935*
X013642*
Y006985*
X013832*
X013827Y007012*
X013784Y007077*
X013726Y007115*
X013728Y007148*
X013735Y007165*
X014049*
X014055Y007148*
X014057Y007115*
X014Y007077*
X013956Y007012*
X013951Y006985*
X014142*
Y006935*
X014192*
Y006744*
X014219Y00675*
X014284Y006793*
X014327Y006858*
X014336Y006904*
X014387Y006903*
X014391Y006868*
X014417Y006806*
X014459Y006752*
X014512Y006711*
X014575Y006685*
X014642Y006676*
X014709Y006685*
X014771Y006711*
X014825Y006752*
X014866Y006806*
X014892Y006868*
X014901Y006935*
X014892Y007002*
X014866Y007065*
X014827Y007115*
X014829Y007128*
X014846Y007165*
X015778*
X015788Y007117*
X015815Y007075*
X015856Y007048*
Y007165*
X015956*
Y007048*
X015996Y007075*
X016023Y007117*
X016033Y007165*
X018386*
X018701Y00685*
X019213*
X019488Y007126*
Y009646*
X019724Y009882*
X020433*
X020573Y009742*
Y009738*
X020553Y009691*
X020522Y009685*
X020481Y009657*
X020454Y009617*
X020571*
Y009517*
X020454*
X020481Y009477*
X020522Y009449*
X020571Y009439*
X020591Y009423*
Y009291*
X020984Y008898*
X021378*
X022165Y00811*
X02378*
X024252Y008583*
Y009764*
Y009882*
X024685Y010315*
X02626*
X026654Y010709*
X027165*
X027323Y010551*
Y010039*
X027717Y009646*
X028031*
Y009501*
X027982Y009474*
X027963Y009486*
Y009369*
Y009253*
X027982Y009265*
X028031Y009238*
Y00895*
X027982Y008923*
X027963Y008935*
Y008818*
Y008701*
X027982Y008713*
X028031Y008687*
Y008398*
X027982Y008372*
X027963Y008384*
Y008267*
Y00815*
X027982Y008162*
X028031Y008136*
Y007847*
X027982Y007821*
X027963Y007833*
Y007716*
Y007599*
X027982Y007611*
X028031Y007585*
Y007441*
X026614*
X026378Y007205*
X024291*
X024134Y007047*
Y006811*
X024291Y006654*
X030276*
X031535Y007913*
X032716*
X032731Y007863*
X032705Y007846*
X032678Y007806*
X032912*
X032885Y007846*
X032859Y007863*
X032875Y007913*
X034016*
X034409Y008307*
Y017756*
X034055Y01811*
X03252*
X032205Y018425*
Y019213*
X031929Y019488*
X030276*
X030079Y019685*
Y019921*
Y020669*
X030354Y020945*
X031732*
X032205Y021417*
Y024882*
X031614Y025472*
X025157*
X024882Y025748*
X014265*
X014239Y025798*
X014251Y025816*
G37*
G36*
X010314D02*
X010247D01*
Y025749*
X010287Y025776*
X010314Y025816*
G37*
G36*
X010147D02*
X01008D01*
X010107Y025776*
X010147Y025749*
Y025816*
G37*
G36*
X033119Y024359D02*
X032739D01*
X032747Y024296*
X032791Y024191*
X03286Y024101*
X032951Y024031*
X033056Y023988*
X033119Y023979*
Y024359*
G37*
G36*
X010247Y024015D02*
Y023948D01*
X010314*
X010287Y023988*
X010247Y024015*
G37*
G36*
X0336Y024359D02*
X033219D01*
Y023979*
X033282Y023988*
X033388Y024031*
X033478Y024101*
X033548Y024191*
X033591Y024296*
X0336Y024359*
G37*
G36*
X034853Y024093D02*
Y024026D01*
X03492*
X034893Y024067*
X034853Y024093*
G37*
G36*
X034753D02*
X034713Y024067D01*
X034686Y024026*
X034753*
Y024093*
G37*
G36*
X014084Y025983D02*
X014044Y025956D01*
X014017Y025916*
X014084*
Y025983*
G37*
G36*
X012215D02*
Y025916D01*
X012282*
X012255Y025956*
X012215Y025983*
G37*
G36*
X014184D02*
Y025916D01*
X014251*
X014224Y025956*
X014184Y025983*
G37*
G36*
X034853D02*
Y025916D01*
X03492*
X034893Y025956*
X034853Y025983*
G37*
G36*
X034753D02*
X034713Y025956D01*
X034686Y025916*
X034753*
Y025983*
G37*
G36*
X03492Y025816D02*
X034853D01*
Y025749*
X034893Y025776*
X03492Y025816*
G37*
G36*
X034753D02*
X034686D01*
X034713Y025776*
X034753Y025749*
Y025816*
G37*
G36*
X010147Y025983D02*
X010107Y025956D01*
X01008Y025916*
X010147*
Y025983*
G37*
G36*
X012115D02*
X012075Y025956D01*
X012048Y025916*
X012115*
Y025983*
G37*
G36*
X010247D02*
Y025916D01*
X010314*
X010287Y025956*
X010247Y025983*
G37*
G36*
X010147Y021879D02*
X01008D01*
X010107Y021839*
X010147Y021812*
Y021879*
G37*
G36*
X033219Y022123D02*
Y021743D01*
X0336*
X033591Y021806*
X033548Y021911*
X033478Y022002*
X033388Y022071*
X033282Y022115*
X033219Y022123*
G37*
G36*
X010314Y021879D02*
X010247D01*
Y021812*
X010287Y021839*
X010314Y021879*
G37*
G36*
X03492Y021958D02*
X034853D01*
Y021891*
X034893Y021918*
X03492Y021958*
G37*
G36*
X034753D02*
X034686D01*
X034713Y021918*
X034753Y021891*
Y021958*
G37*
G36*
X034853Y020156D02*
Y020089D01*
X03492*
X034893Y020129*
X034853Y020156*
G37*
G36*
X034753D02*
X034713Y020129D01*
X034686Y020089*
X034753*
Y020156*
G37*
G36*
X033119Y021643D02*
X032739D01*
X032747Y02158*
X032791Y021475*
X03286Y021384*
X032951Y021315*
X033056Y021271*
X033119Y021263*
Y021643*
G37*
G36*
Y022123D02*
X033056Y022115D01*
X032951Y022071*
X03286Y022002*
X032791Y021911*
X032747Y021806*
X032739Y021743*
X033119*
Y022123*
G37*
G36*
X0336Y021643D02*
X033219D01*
Y021263*
X033282Y021271*
X033388Y021315*
X033478Y021384*
X033548Y021475*
X033591Y02158*
X0336Y021643*
G37*
G36*
X034753Y023926D02*
X034686D01*
X034713Y023886*
X034753Y023859*
Y023926*
G37*
G36*
X010314Y023848D02*
X010247D01*
Y023781*
X010287Y023808*
X010314Y023848*
G37*
G36*
X010147Y024015D02*
X010107Y023988D01*
X01008Y023948*
X010147*
Y024015*
G37*
G36*
X03492Y023926D02*
X034853D01*
Y023859*
X034893Y023886*
X03492Y023926*
G37*
G36*
X010147Y023848D02*
X01008D01*
X010107Y023808*
X010147Y023781*
Y023848*
G37*
G36*
X010247Y022046D02*
Y021979D01*
X010314*
X010287Y022019*
X010247Y022046*
G37*
G36*
X010147D02*
X010107Y022019D01*
X01008Y021979*
X010147*
Y022046*
G37*
G36*
X034753Y022125D02*
X034713Y022098D01*
X034686Y022058*
X034753*
Y022125*
G37*
G36*
X034853D02*
Y022058D01*
X03492*
X034893Y022098*
X034853Y022125*
G37*
%LNee4951_bpm_reva-3*%
%LPD*%
G36*
X028583Y0131D02*
X028571Y013092D01*
X028544Y013052*
X028661*
Y013002*
X028711*
Y012885*
X028752Y012912*
X028769Y012938*
X028819Y012923*
Y012648*
X028769Y012633*
X028752Y012659*
X028711Y012686*
Y012569*
Y012452*
X028752Y012479*
X028769Y012505*
X028819Y01249*
Y012362*
X029272Y011909*
X030079*
X030089Y0119*
X030837*
X031722Y011014*
X032795*
X032844Y011063*
X032992*
X033061Y010994*
Y009646*
X033051Y009636*
X032441Y009026*
X030679*
X029813Y009892*
Y011102*
X029724Y011191*
X028741*
X028726Y011241*
X028752Y011258*
X028778Y011298*
X028544*
X028571Y011258*
X028597Y011241*
X028582Y011191*
X028327*
X028312Y011241*
X028338Y011258*
X028365Y011298*
X028131*
X028158Y011258*
X028184Y011241*
X028169Y011191*
X027638*
Y01315*
X027726*
X02774Y013113*
X027743Y0131*
X027718Y013062*
X027952*
X027926Y0131*
X027929Y013113*
X027943Y01315*
X028139*
X028154Y013113*
X028156Y0131*
X028131Y013062*
X028365*
X02834Y0131*
X028342Y013113*
X028357Y01315*
X028567*
X028583Y0131*
G37*
G36*
X026161Y012283D02*
Y010798D01*
X026125Y010783*
X026111Y010781*
X026074Y010806*
Y010689*
Y010572*
X026111Y010597*
X026125Y010595*
X026161Y01058*
Y010512*
X024488*
X024193Y010807*
Y011791*
X024291Y01189*
X024587*
X025079Y012382*
X026063*
X026161Y012283*
G37*
%LNee4951_bpm_reva-4*%
%LPC*%
G36*
X028198Y012962D02*
X028131D01*
X028158Y012922*
X028198Y012895*
Y012962*
G37*
G36*
X028365D02*
X028298D01*
Y012895*
X028338Y012922*
X028365Y012962*
G37*
G36*
X032757Y010235D02*
Y010168D01*
X032824*
X032797Y010208*
X032757Y010235*
G37*
G36*
X030294Y010865D02*
X030254Y010838D01*
X030228Y010798*
X030294*
Y010865*
G37*
G36*
X031576Y010235D02*
Y010168D01*
X031643*
X031616Y010208*
X031576Y010235*
G37*
G36*
X032657D02*
X032617Y010208D01*
X03259Y010168*
X032657*
Y010235*
G37*
G36*
X030885D02*
X030845Y010208D01*
X030818Y010168*
X030885*
Y010235*
G37*
G36*
X032166D02*
Y010168D01*
X032233*
X032206Y010208*
X032166Y010235*
G37*
G36*
X025974Y010806D02*
X025933Y010779D01*
X025907Y010739*
X025974*
Y010806*
G37*
G36*
X030985Y010235D02*
Y010168D01*
X031052*
X031025Y010208*
X030985Y010235*
G37*
G36*
X032066D02*
X032026Y010208D01*
X031999Y010168*
X032066*
Y010235*
G37*
G36*
Y010068D02*
X031999D01*
X032026Y010028*
X032066Y010001*
Y010068*
G37*
G36*
X032233D02*
X032166D01*
Y010001*
X032206Y010028*
X032233Y010068*
G37*
G36*
X030885D02*
X030818D01*
X030845Y010028*
X030885Y010001*
Y010068*
G37*
G36*
X031052D02*
X030985D01*
Y010001*
X031025Y010028*
X031052Y010068*
G37*
G36*
X030885Y010865D02*
X030845Y010838D01*
X030818Y010798*
X030885*
Y010865*
G37*
G36*
X030394Y010235D02*
Y010168D01*
X030461*
X030435Y010208*
X030394Y010235*
G37*
G36*
X031476D02*
X031435Y010208D01*
X031409Y010168*
X031476*
Y010235*
G37*
G36*
X030394Y010865D02*
Y010798D01*
X030461*
X030435Y010838*
X030394Y010865*
G37*
G36*
X030294Y010235D02*
X030254Y010208D01*
X030228Y010168*
X030294*
Y010235*
G37*
G36*
X025582Y010806D02*
Y010739D01*
X025648*
X025622Y010779*
X025582Y010806*
G37*
G36*
X032066Y010698D02*
X031999D01*
X032026Y010658*
X032066Y010631*
Y010698*
G37*
G36*
X032233D02*
X032166D01*
Y010631*
X032206Y010658*
X032233Y010698*
G37*
G36*
X031476D02*
X031409D01*
X031435Y010658*
X031476Y010631*
Y010698*
G37*
G36*
X031643D02*
X031576D01*
Y010631*
X031616Y010658*
X031643Y010698*
G37*
G36*
X032657D02*
X03259D01*
X032617Y010658*
X032657Y010631*
Y010698*
G37*
G36*
X025089Y010806D02*
Y010739D01*
X025156*
X025129Y010779*
X025089Y010806*
G37*
G36*
X025482D02*
X025441Y010779D01*
X025415Y010739*
X025482*
Y010806*
G37*
G36*
X032824Y010698D02*
X032757D01*
Y010631*
X032797Y010658*
X032824Y010698*
G37*
G36*
X024989Y010806D02*
X024949Y010779D01*
X024922Y010739*
X024989*
Y010806*
G37*
G36*
X025482Y010639D02*
X025415D01*
X025441Y010599*
X025482Y010572*
Y010639*
G37*
G36*
X025648D02*
X025582D01*
Y010572*
X025622Y010599*
X025648Y010639*
G37*
G36*
X024989D02*
X024922D01*
X024949Y010599*
X024989Y010572*
Y010639*
G37*
G36*
X025156D02*
X025089D01*
Y010572*
X025129Y010599*
X025156Y010639*
G37*
G36*
X025974D02*
X025907D01*
X025933Y010599*
X025974Y010572*
Y010639*
G37*
G36*
X030885Y010698D02*
X030818D01*
X030845Y010658*
X030885Y010631*
Y010698*
G37*
G36*
X031052D02*
X030985D01*
Y010631*
X031025Y010658*
X031052Y010698*
G37*
G36*
X030294D02*
X030228D01*
X030254Y010658*
X030294Y010631*
Y010698*
G37*
G36*
X030461D02*
X030394D01*
Y010631*
X030435Y010658*
X030461Y010698*
G37*
G36*
X030985Y010865D02*
Y010798D01*
X031052*
X031025Y010838*
X030985Y010865*
G37*
G36*
X025089Y01179D02*
Y011723D01*
X025156*
X025129Y011763*
X025089Y01179*
G37*
G36*
X024989D02*
X024949Y011763D01*
X024922Y011723*
X024989*
Y01179*
G37*
G36*
X028711Y011879D02*
Y011812D01*
X028778*
X028752Y011852*
X028711Y011879*
G37*
G36*
X028611D02*
X028571Y011852D01*
X028544Y011812*
X028611*
Y011879*
G37*
G36*
X028778Y011712D02*
X028711D01*
Y011645*
X028752Y011672*
X028778Y011712*
G37*
G36*
X024989Y011623D02*
X024922D01*
X024949Y011583*
X024989Y011556*
Y011623*
G37*
G36*
X028711Y011465D02*
Y011398D01*
X028778*
X028752Y011439*
X028711Y011465*
G37*
G36*
X028611Y011712D02*
X028544D01*
X028571Y011672*
X028611Y011645*
Y011712*
G37*
G36*
X025156Y011623D02*
X025089D01*
Y011556*
X025129Y011583*
X025156Y011623*
G37*
G36*
X028611Y012952D02*
X028544D01*
X028571Y012912*
X028611Y012885*
Y012952*
G37*
G36*
Y012686D02*
X028571Y012659D01*
X028544Y012619*
X028611*
Y012686*
G37*
G36*
X027952Y012962D02*
X027885D01*
Y012895*
X027925Y012922*
X027952Y012962*
G37*
G36*
X027785D02*
X027718D01*
X027745Y012922*
X027785Y012895*
Y012962*
G37*
G36*
X028611Y012519D02*
X028544D01*
X028571Y012479*
X028611Y012452*
Y012519*
G37*
G36*
X028778Y012125D02*
X028711D01*
Y012058*
X028752Y012085*
X028778Y012125*
G37*
G36*
X028611D02*
X028544D01*
X028571Y012085*
X028611Y012058*
Y012125*
G37*
G36*
X028711Y012292D02*
Y012225D01*
X028778*
X028752Y012265*
X028711Y012292*
G37*
G36*
X028611D02*
X028571Y012265D01*
X028544Y012225*
X028611*
Y012292*
G37*
G36*
Y011465D02*
X028571Y011439D01*
X028544Y011398*
X028611*
Y011465*
G37*
G36*
X030294Y010068D02*
X030228D01*
X030254Y010028*
X030294Y010001*
Y010068*
G37*
G36*
X030461D02*
X030394D01*
Y010001*
X030435Y010028*
X030461Y010068*
G37*
G36*
X032066Y010865D02*
X032026Y010838D01*
X031999Y010798*
X032066*
Y010865*
G37*
G36*
X031576D02*
Y010798D01*
X031643*
X031616Y010838*
X031576Y010865*
G37*
G36*
X031476Y010068D02*
X031409D01*
X031435Y010028*
X031476Y010001*
Y010068*
G37*
G36*
X032824D02*
X032757D01*
Y010001*
X032797Y010028*
X032824Y010068*
G37*
G36*
X031476Y010865D02*
X031435Y010838D01*
X031409Y010798*
X031476*
Y010865*
G37*
G36*
X031643Y010068D02*
X031576D01*
Y010001*
X031616Y010028*
X031643Y010068*
G37*
G36*
X032657D02*
X03259D01*
X032617Y010028*
X032657Y010001*
Y010068*
G37*
G36*
X025089Y011298D02*
Y011231D01*
X025156*
X025129Y011271*
X025089Y011298*
G37*
G36*
X024989D02*
X024949Y011271D01*
X024922Y011231*
X024989*
Y011298*
G37*
G36*
X028298Y011465D02*
Y011398D01*
X028365*
X028338Y011439*
X028298Y011465*
G37*
G36*
X028198D02*
X028158Y011439D01*
X028131Y011398*
X028198*
Y011465*
G37*
G36*
X025156Y011131D02*
X025089D01*
Y011064*
X025129Y011091*
X025156Y011131*
G37*
G36*
X032657Y010865D02*
X032617Y010838D01*
X03259Y010798*
X032657*
Y010865*
G37*
G36*
X032166D02*
Y010798D01*
X032233*
X032206Y010838*
X032166Y010865*
G37*
G36*
X024989Y011131D02*
X024922D01*
X024949Y011091*
X024989Y011064*
Y011131*
G37*
G36*
X032757Y010865D02*
Y010798D01*
X032824*
X032797Y010838*
X032757Y010865*
G37*
%LNee4951_bpm_reva-5*%
%LPD*%
G54D11*
X021358Y010059D03*
X020965D03*
X022136Y008947D03*
X02253D03*
X024744Y02064D03*
X025138D03*
X023179Y010778D03*
X023573D03*
X022657Y008415D03*
X023051D03*
X018022Y013661D03*
X017628D03*
X015157Y017323D03*
X015551D03*
X022205Y013494D03*
X022598D03*
X022205Y014016D03*
X022598D03*
X031919Y011693D03*
X031526D03*
X017638Y012421D03*
X018032D03*
X016093Y012894D03*
X016486D03*
X029222Y012313D03*
X029616D03*
X029222Y012835D03*
X029616D03*
X020994Y014872D03*
X021388D03*
X017205Y017087D03*
X016811D03*
X025157Y018032D03*
X024764D03*
X033386Y010709D03*
X03378D03*
X025315Y01748D03*
X024921D03*
X033219Y013937D03*
X032825D03*
X026102Y024724D03*
X026496D03*
X024154Y020669D03*
X02376D03*
X018465Y017805D03*
X018071D03*
X018061Y017215D03*
X017667D03*
X01815Y015344D03*
X017756D03*
X017884Y015817D03*
X01749D03*
X028848Y019774D03*
X028455D03*
G54D12*
X013012Y017677D03*
Y017283D03*
X012441Y017746D03*
Y017352D03*
X019715Y014045D03*
Y013652D03*
X013868Y012421D03*
Y012815D03*
X013238Y014882D03*
Y014488D03*
Y013573D03*
Y013967D03*
X024104Y012854D03*
Y012461D03*
X024626Y012825D03*
Y012431D03*
X013238Y015728D03*
Y015335D03*
X013228Y01625D03*
Y016644D03*
X016545Y010876D03*
Y010482D03*
X013386Y012709D03*
Y013102D03*
X012913Y012709D03*
Y013102D03*
X015354Y011685D03*
Y011291D03*
X015827D03*
Y011685D03*
X01564Y012531D03*
Y012925D03*
X026181Y017992D03*
Y017598D03*
X022953Y016496D03*
Y01689D03*
X017539Y020709D03*
Y020315D03*
X023553Y012077D03*
Y01247D03*
X019213Y011575D03*
Y011968D03*
X033022Y008386D03*
Y00878D03*
X023661Y017687D03*
Y017293D03*
X026732Y017992D03*
Y017598D03*
X033209Y013356D03*
Y012963D03*
X028455Y01685D03*
Y016457D03*
X027234Y023248D03*
Y022854D03*
X022972Y021703D03*
Y022096D03*
X027726Y020925D03*
Y021319D03*
G54D20*
X019882Y010689D03*
X020394D03*
X021457Y015453D03*
X020945D03*
X023691Y008947D03*
X023179D03*
X014301Y014656D03*
Y01377D03*
Y015561D03*
Y016427D03*
X010886Y014301D03*
X011398D03*
X011053Y02127D03*
X018327Y020197D03*
X018839D03*
X022992Y024715D03*
X02248D03*
G54D25*
X030896Y012579D03*
X032274D03*
G54D26*
X029291Y010974D03*
Y010285D03*
X026683Y011831D03*
Y011142D03*
G54D27*
X033809Y016949D03*
Y015807D03*
G54D33*
X019882Y012028D03*
Y011516D03*
X020157Y014941D03*
Y015453D03*
X023494Y009646D03*
Y010157D03*
X017982Y019144D03*
Y019656D03*
X023396Y014272D03*
Y014783D03*
X027618Y024665D03*
Y024154D03*
X029537Y024449D03*
Y023937D03*
G54D35*
X024537Y02D03*
X025679D03*
G54D39*
X011438Y013336D03*
X012186D03*
X011812Y012549D03*
X033781Y009013D03*
X034155Y009801D03*
X033407D03*
X027246Y015746D03*
X02762Y016533D03*
X026871D03*
X024378Y025052D03*
X024004Y024264D03*
X024753D03*
G54D42*
X02124Y009439D03*
X016811Y017844D03*
X012205Y01438D03*
X019872Y012785D03*
X022215Y015512D03*
G54D43*
X027362Y013484D03*
Y014783D03*
X028425Y013484D03*
Y014783D03*
X02877Y02372D03*
Y02502D03*
G54D46*
X019872Y018046D03*
Y01847D03*
X019203D03*
Y018046D03*
G54D47*
X019902Y018258D03*
X019173D03*
G54D49*
X020374Y025039D03*
X019941D03*
X019508D03*
X019213D03*
X018642D03*
X018209D03*
X017776D03*
X017343D03*
X018937D03*
G54D50*
X026555Y022248D03*
X026358D03*
X026161D03*
X025965D03*
X025768D03*
Y023933D03*
X025965D03*
X026161D03*
X026358D03*
X026555D03*
X028396Y02227D03*
X028593D03*
X028789D03*
X028986D03*
X029183D03*
Y020585D03*
X028986D03*
X028789D03*
X028593D03*
X028396D03*
X023671Y023018D03*
X023868D03*
X024065D03*
X024262D03*
X024459D03*
Y021333D03*
X024262D03*
X024065D03*
X023868D03*
X023671D03*
G54D52*
X018209Y024675D02*
D01*
Y025039*
X017283Y012421D02*
X017638D01*
X025768Y022248D02*
Y022736D01*
X025738Y022766D02*
X025768Y022736D01*
X02563Y024715D02*
X02564D01*
X025837Y024518*
Y024429D02*
Y024518D01*
Y024429D02*
X025965Y024301D01*
Y023933D02*
Y024301D01*
X010906Y012047D02*
X011407Y012549D01*
X011812*
X01374Y02189D02*
X013799Y021949D01*
Y022756*
X024035Y018081D02*
X024134Y017982D01*
X02326Y020086D02*
X024035Y019311D01*
Y018081D02*
Y019311D01*
X029537Y024449D02*
Y02502D01*
X02877D02*
X029537D01*
X027618Y024665D02*
X027972Y02502D01*
X02877*
X022992Y024715D02*
X023012Y024734D01*
X023002Y025256D02*
X023012Y025246D01*
Y024734D02*
Y025246D01*
X020187Y017077D02*
X020492D01*
X019931Y016821D02*
X020187Y017077D01*
X01939Y016821D02*
X019931D01*
X019055Y017156D02*
X01939Y016821D01*
X020207D02*
X020492D01*
X02003Y016644D02*
X020207Y016821D01*
X019429Y016644D02*
X02003D01*
X019252Y016467D02*
X019429Y016644D01*
X017904Y016467D02*
X019252D01*
X020876Y013346D02*
Y013396D01*
X0206Y013671D02*
X020876Y013396D01*
X020364Y013671D02*
X0206D01*
X020522Y010689D02*
X020896Y011063D01*
X020404Y010689D02*
X020522D01*
X020246Y011496D02*
X020433Y011683D01*
X019803Y011496D02*
X020246D01*
X019724Y011575D02*
X019803Y011496D01*
X023661Y017293D02*
X023671Y017303D01*
X024213*
X024321Y017411*
Y017766*
X024587Y018032*
X024764*
X023681Y017667D02*
X023927D01*
X023661Y01622D02*
Y017293D01*
X023652Y016211D02*
X023661Y01622D01*
X023602Y01562D02*
Y015846D01*
X022953Y016496D02*
X023602Y015846D01*
X023661Y017687D02*
X023681Y017667D01*
X022965Y020086D02*
X02326D01*
X022707Y020344D02*
X022965Y020086D01*
X021909Y020344D02*
X022707D01*
X021358Y019793D02*
X021909Y020344D01*
X021004Y019793D02*
X021358D01*
X0206Y020197D02*
X021004Y019793D01*
X018839Y020197D02*
X0206D01*
X023002Y020512D02*
X023268Y020246D01*
X021575Y020512D02*
X023002D01*
X02122Y020157D02*
X021575Y020512D01*
X022028Y020167D02*
X022264D01*
X02252Y019911*
X02315*
X02376Y019301*
X021407Y019547D02*
X022028Y020167D01*
X02376Y018996D02*
Y019301D01*
X014567Y016949D02*
Y017077D01*
X014813Y017323*
X015157*
X015571Y017303D02*
Y018035D01*
X015541Y017313D02*
X015551Y017323D01*
X015541Y017116D02*
Y017313D01*
X015433Y017008D02*
X015541Y017116D01*
X01497Y017008D02*
X015433D01*
X022983Y018623D02*
Y019075D01*
X022067Y017707D02*
X022983Y018623D01*
X011438Y013337D02*
Y013336D01*
X022776Y017067D02*
Y017215D01*
Y017067D02*
X022943Y0169D01*
X025591Y017618D02*
X025787D01*
X025453Y01748D02*
X025591Y017618D01*
X012844Y018366D02*
X013012Y018199D01*
Y017746D02*
Y018199D01*
X012972Y016949D02*
Y017313D01*
X013543Y011782D02*
X013809Y012047D01*
X014203Y01187D02*
Y013218D01*
X014144Y013189D02*
X014154D01*
X014193Y013228*
X014203Y013218*
X013927Y011594D02*
X014203Y01187D01*
X014026Y011388D02*
X014488Y01185D01*
Y012628*
X014793Y011142D02*
Y012224D01*
X01249Y011782D02*
X013543D01*
X012136Y011427D02*
X01249Y011782D01*
X011752Y011427D02*
X012136D01*
X012569Y011594D02*
X013927D01*
X012041Y011067D02*
X012569Y011594D01*
X012041Y010876D02*
Y011067D01*
X012736Y011388D02*
X014026D01*
X012541Y011193D02*
X012736Y011388D01*
X012541Y010876D02*
Y011193D01*
X012186Y012843D02*
Y013336D01*
Y012843D02*
X01251Y01252D01*
X012186Y013336D02*
X01268D01*
X012913Y013102*
X013386Y012709D02*
X013443Y012766D01*
X013819*
X013868Y012815*
X013681Y012421D02*
X013868D01*
X013415Y012156D02*
X013681Y012421D01*
X011541Y011217D02*
X011752Y011427D01*
X011541Y010876D02*
Y011217D01*
X014528Y010876D02*
X014793Y011142D01*
X013041Y010876D02*
X014528D01*
X011541Y009691D02*
X011919Y010069D01*
X011541Y008667D02*
Y009691D01*
X01188Y009537D02*
X012041Y009376D01*
Y008667D02*
Y009376D01*
X012441Y00813D02*
X012541Y00823D01*
Y008667*
X01185Y007805D02*
X01187Y007825D01*
X012589*
X013041Y008278*
Y008667*
X010551Y014291D02*
X010561Y014301D01*
X010886*
X011398D02*
X011438Y01426D01*
Y013336D02*
Y01426D01*
X014921Y009026D02*
X015069Y008878D01*
X014232Y009026D02*
X014921D01*
X012642Y007435D02*
X014232Y009026D01*
X013142Y00763D02*
X014213Y008701D01*
X014311*
X013642Y007435D02*
Y007717D01*
X014252Y008327*
X014488*
X013053Y007435D02*
X01314Y007522D01*
X013142Y007435D02*
Y00763D01*
X013573Y007352D02*
X013642Y007421D01*
X015906Y007165D02*
Y007776D01*
X015896Y007785D02*
X015906Y007776D01*
X015896Y007785D02*
X015906Y007795D01*
X01503Y010197D02*
Y011535D01*
Y010197D02*
X015728Y009498D01*
X012441Y019045D02*
X013209Y019813D01*
X012441Y017746D02*
Y019045D01*
Y016929D02*
X012717Y016654D01*
X012441Y016929D02*
Y017352D01*
X013159Y019016D02*
X013268D01*
X012844Y018701D02*
X013159Y019016D01*
X012844Y018366D02*
Y018701D01*
X017707Y011752D02*
X018691Y010768D01*
Y008051D02*
Y010768D01*
X017402Y007795D02*
X018888D01*
X019173Y008081*
Y009518*
X025138Y020541D02*
Y02064D01*
Y020541D02*
X025679Y02D01*
Y019124D02*
Y02D01*
X025453Y018898D02*
X025679Y019124D01*
X024453Y018898D02*
Y019915D01*
X024537Y02*
Y020433*
X024744Y02064*
X026024Y018337D02*
Y020502D01*
X025866Y020659D02*
X026024Y020502D01*
X025541Y020659D02*
X025866D01*
X025197Y021004D02*
X025541Y020659D01*
X025197Y021004D02*
Y023337D01*
X02376Y020364D02*
X024134D01*
X023642Y020246D02*
X02376Y020364D01*
X023268Y020246D02*
X023642D01*
Y020541D02*
X02377Y020669D01*
X023474Y020541D02*
X023642D01*
X023465Y020531D02*
X023474Y020541D01*
X02377Y020669D02*
Y020778D01*
X012186Y014362D02*
X012205Y01438D01*
X012186Y013336D02*
Y014362D01*
X021841Y022402D02*
X02185Y022411D01*
X021634Y022402D02*
X021841D01*
X02185Y022411D02*
X023868D01*
X019646Y01937D02*
X021506D01*
X018888Y018612D02*
X019646Y01937D01*
X019528Y019547D02*
X021407D01*
X018789Y018809D02*
X019528Y019547D01*
X018445Y018809D02*
X018789D01*
X019961Y019065D02*
X01997D01*
X019596Y018465D02*
X019892D01*
Y01748D02*
Y017549D01*
X020335Y017992*
X019843Y017067D02*
X020482Y017707D01*
X025906Y013878D02*
X026339Y014311D01*
X025079Y013878D02*
X025906D01*
X024882Y014075D02*
X025079Y013878D01*
X024882Y014075D02*
Y015187D01*
X024132Y015937D02*
X024882Y015187D01*
X024132Y015937D02*
Y016614D01*
X026339Y014311D02*
X02878D01*
X029429Y014961*
X03314*
X033583Y014518*
Y011152D02*
Y014518D01*
X033386Y010955D02*
X033583Y011152D01*
X033386Y010709D02*
Y010955D01*
X01564Y012894D02*
X016093D01*
X016043Y013189D02*
X016093Y01314D01*
Y012894D02*
Y01314D01*
X016201Y013425D02*
X016437Y013189D01*
X015394Y013425D02*
X016201D01*
X015157Y013189D02*
X015394Y013425D01*
X016437Y013189D02*
X01874D01*
X024577Y022047D02*
Y022106D01*
X024252Y022431D02*
X024577Y022106D01*
X024459Y021333D02*
Y021821D01*
X023868Y022411D02*
X024459Y021821D01*
X023839Y022087D02*
X023888D01*
X024262Y021713*
X024114Y022431D02*
X024252D01*
X023865Y02268D02*
X024114Y022431D01*
X023865Y02268D02*
Y023018D01*
X019203Y018583D02*
X01936Y01874D01*
X018337Y018701D02*
X018445Y018809D01*
X016841Y018701D02*
X018337D01*
X026457Y018179D02*
X026467D01*
X026654Y017992*
X026329Y018179D02*
X026457D01*
X026181Y018032D02*
X026329Y018179D01*
X020335Y017992D02*
X021319D01*
X019459Y017628D02*
X019579Y017749D01*
X019459Y017461D02*
Y017628D01*
X020482Y017707D02*
X022067D01*
X019872Y01847D02*
Y018661D01*
X019882Y018671*
X018976Y018258D02*
X019173D01*
X018455Y017736D02*
X018976Y018258D01*
X016407Y018248D02*
X016811Y017844D01*
X016407Y018248D02*
Y018878D01*
X021772Y019636D02*
X022982D01*
X021506Y01937D02*
X021772Y019636D01*
X021211Y009459D02*
X021476D01*
X020965Y009705D02*
X021211Y009459D01*
X020965Y009705D02*
Y010059D01*
X023573Y010778D02*
X023848D01*
X022815D02*
X023179D01*
X022688Y01065D02*
X022815Y010778D01*
X022688Y010384D02*
Y01065D01*
Y010384D02*
X022924Y010148D01*
X023504D02*
X023858D01*
X023494Y010157D02*
X023504Y010148D01*
X022924D02*
X023858D01*
X022432Y010384D02*
X022688D01*
X023179Y008947D02*
Y009114D01*
X023474Y009409*
Y009626*
X023484Y009636*
X022688D02*
X023484D01*
X023179Y008543D02*
Y008947D01*
X023051Y008415D02*
X023179Y008543D01*
X022451Y008415D02*
X022657D01*
X022313Y008553D02*
X022451Y008415D01*
X022313Y008553D02*
X02253Y00877D01*
Y008947*
Y009154*
X022432Y009251D02*
X02253Y009154D01*
X022432Y009251D02*
Y009636D01*
X022176Y008987D02*
Y009636D01*
X022136Y008947D02*
X022176Y008987D01*
Y009636D02*
Y010384D01*
X021811D02*
X022176D01*
X021486Y010059D02*
X021811Y010384D01*
X021358Y010059D02*
X021486D01*
X020827Y010197D02*
X020965Y010059D01*
X019734Y010197D02*
X020827D01*
X024488Y006929D02*
X03003D01*
X0269Y019163D02*
Y021624D01*
X027805Y02253*
X027077Y021496D02*
X027992Y022411D01*
X027077Y019557D02*
Y021496D01*
Y019557D02*
X027244Y01939D01*
X029685Y019744D02*
Y019783D01*
X029183Y020285D02*
X029685Y019783D01*
X029252Y019478D02*
Y019902D01*
X013354Y019535D02*
X014035D01*
X013228Y019409D02*
X013354Y019535D01*
X013978Y018593D02*
X014035Y018535D01*
X013238Y018593D02*
X013978D01*
X013287Y019035D02*
X014035D01*
X013268Y019016D02*
X013287Y019035D01*
X023317Y021703D02*
X023327Y021693D01*
X022972Y021703D02*
X023317D01*
X023327Y021693D02*
X023671Y021348D01*
Y021333D02*
Y021348D01*
X017825Y020719D02*
X017884D01*
X017894Y020709*
X014951Y020768D02*
Y02122D01*
X014765Y020582D02*
X014951Y020768D01*
X012452Y020582D02*
X014765D01*
X012421Y020551D02*
X012452Y020582D01*
X011811Y020817D02*
X014596D01*
X011732Y020738D02*
X011811Y020817D01*
X015163Y020035D02*
X015571D01*
X014774Y019646D02*
X015163Y020035D01*
X015138Y019528D02*
X015421D01*
X014774Y019163D02*
X015138Y019528D01*
X015421D02*
X0155Y019606D01*
X015079Y019094D02*
X015512D01*
X014784Y018799D02*
X015079Y019094D01*
X015008Y018535D02*
X015571D01*
X014868Y018396D02*
X015008Y018535D01*
X014823Y018396D02*
X014868D01*
X019961Y019065D02*
X020207Y018819D01*
Y01813D02*
Y018819D01*
X019203Y01847D02*
Y018583D01*
X018888Y018445D02*
Y018612D01*
X027805Y02253D02*
Y023819D01*
X027992Y022411D02*
Y02313D01*
X028051Y023189*
X027618Y024006D02*
X027805Y023819D01*
X027618Y024006D02*
Y024154D01*
X027904Y02372D02*
X02877D01*
X020123Y018046D02*
X020207Y01813D01*
X019872Y018046D02*
X020123D01*
X029183Y020285D02*
Y020585D01*
X024754Y02378D02*
X025197Y023337D01*
X0256Y024321D02*
X025768Y024154D01*
Y023933D02*
Y024154D01*
X026161Y022844D02*
X026319Y023002D01*
X026161Y022248D02*
Y022844D01*
X025434Y021468D02*
Y022875D01*
Y021468D02*
X02562Y021282D01*
X025434Y022875D02*
X025896Y023337D01*
X026358Y023474D02*
Y023933D01*
X02622Y023337D02*
X026358Y023474D01*
X025896Y023337D02*
X02622D01*
X018612Y018169D02*
X018888Y018445D01*
X018061Y018169D02*
X018612D01*
X018061Y017736D02*
Y018169D01*
X017303D02*
X018061D01*
X019154Y015344D02*
X0194Y015591D01*
X01815Y015344D02*
X019154D01*
X018642Y012421D02*
X018691Y012372D01*
X018032Y012421D02*
X018642D01*
X02562Y020955D02*
Y021282D01*
X016083Y016191D02*
X016191D01*
X016329Y01501D02*
X016358D01*
X016585Y014783*
X020886Y012195D02*
Y012215D01*
X02062Y01248D02*
X020886Y012215D01*
X02062Y01248D02*
Y012854D01*
X028425Y019774D02*
X028455D01*
X028248Y019596D02*
X028425Y019774D01*
X020305Y013356D02*
X020364Y013297D01*
X018907Y013356D02*
X020305D01*
X01874Y013189D02*
X018907Y013356D01*
X018573Y013494D02*
X018593D01*
X018563Y013484D02*
X018573Y013494D01*
X018386Y013661D02*
X018563Y013484D01*
X018022Y013661D02*
X018386D01*
X017421Y013868D02*
X017628Y013661D01*
X017156Y013868D02*
X017421D01*
X017933Y019705D02*
Y020197D01*
Y019705D02*
X017982Y019656D01*
X017461Y019409D02*
X017726Y019144D01*
X017982*
X018061Y017736D02*
D01*
Y017215D02*
Y017736D01*
X019579Y017749D02*
Y018142D01*
X019695Y018258D02*
X019902D01*
X019579Y018142D02*
X019695Y018258D01*
X019419Y018287D02*
X019596Y018465D01*
X019419Y01813D02*
Y018287D01*
X019335Y018046D02*
X019419Y01813D01*
X019203Y018046D02*
X019335D01*
X020364Y014045D02*
Y014213D01*
X02063Y014478*
X024075Y015177D02*
X024252Y015354D01*
X022766Y015177D02*
X024075D01*
X022441Y014852D02*
X022766Y015177D01*
X022018Y014852D02*
X022441D01*
X021555Y015453D02*
X022215D01*
X017628Y016742D02*
X017904Y016467D01*
X019203Y011959D02*
X019213Y011968D01*
X018278Y011959D02*
X019203D01*
X018199Y012037D02*
X018278Y011959D01*
X0156Y012037D02*
X018199D01*
X015551Y012087D02*
X0156Y012037D01*
X01564Y012531D02*
X015839Y012333D01*
X016585Y013543D02*
X016604Y013524D01*
X020965Y014843D02*
X020994Y014872D01*
X020157Y014843D02*
X020965D01*
X020157Y015551D02*
Y016102D01*
X019951Y016309D02*
X020157Y016102D01*
X021555Y015276D02*
Y015453D01*
X021388Y015108D02*
X021555Y015276D01*
X021388Y014872D02*
Y015108D01*
X020994Y014872D02*
Y015128D01*
X020896Y015226D02*
X020994Y015128D01*
X020896Y015226D02*
Y015728D01*
X021004Y015837*
Y016467*
X020906Y016565D02*
X021004Y016467D01*
X020492Y016565D02*
X020906D01*
X020492Y016821D02*
X020502Y016811D01*
X021398*
X021555Y016654*
Y015453D02*
Y016654D01*
X017106Y015522D02*
X017402Y015817D01*
X01749*
X017766Y015699D02*
X017884Y015817D01*
X017264Y015157D02*
X017618D01*
X017776Y015315*
X017766Y015325D02*
X017776Y015315D01*
X017766Y015325D02*
Y015699D01*
X020807Y017392D02*
X021201D01*
X020492Y017077D02*
X020807Y017392D01*
X017323Y016742D02*
X017628D01*
X017215Y016634D02*
X017323Y016742D01*
X016211Y016634D02*
X017215D01*
X015945Y0169D02*
X016211Y016634D01*
X017933Y016752D02*
X019055D01*
X017667Y017018D02*
X017933Y016752D01*
X017667Y017018D02*
Y017215D01*
X017539Y017087D02*
X017667Y017215D01*
X017205Y017087D02*
X017539D01*
X016811Y017156D02*
Y017844D01*
X017598Y020709D02*
X017894D01*
X017598Y020315D02*
X017717Y020197D01*
X017933*
X018327*
X020906Y023022D02*
X020915Y023012D01*
Y022654D02*
Y023012D01*
X016965Y02249D02*
X017421D01*
X016801Y022654D02*
X016965Y02249D01*
X016752Y024455D02*
Y024783D01*
Y024455D02*
X016801Y024406D01*
X020915D02*
Y024793D01*
X020896Y024813D02*
X020915Y024793D01*
X019213Y024035D02*
X019252Y023996D01*
X019213Y024035D02*
Y025039D01*
X019508Y023819D02*
Y025039D01*
X0194Y023711D02*
X019508Y023819D01*
X017283Y023711D02*
X0194D01*
X018937Y024144D02*
Y025039D01*
X018898Y024104D02*
X018937Y024144D01*
X017283Y023681D02*
Y023711D01*
X019941Y025039D02*
X019951Y02503D01*
Y0244D02*
Y02503D01*
X018642Y025039D02*
D01*
Y024596D02*
Y025039D01*
X017766Y02503D02*
X017776Y025039D01*
X017766Y024567D02*
Y02503D01*
X014035Y018035D02*
X015571D01*
X015512Y019094D02*
X015571Y019035D01*
X0155Y019606D02*
X015571Y019535D01*
X013431Y020035D02*
X014035D01*
X013209Y019813D02*
X013431Y020035D01*
X011732Y020728D02*
Y020738D01*
X011014Y022392D02*
X011417Y022795D01*
X011014Y021467D02*
Y022392D01*
Y021467D02*
X011161Y021319D01*
X011043Y020817D02*
X011309D01*
X011565Y021073*
X020886Y011073D02*
Y011427D01*
Y011073D02*
X020896Y011063D01*
X019882Y01063D02*
D01*
Y011417*
X011565Y021073D02*
Y02127D01*
X011014Y021319D02*
X011073Y02126D01*
X010915Y02501D02*
X011407D01*
X011417Y025*
X015413D02*
X015423Y02501D01*
X014921Y025D02*
X015413D01*
X015404Y022795D02*
D01*
X014921D02*
X015404D01*
X011417D02*
X011437Y022815D01*
Y023435*
X013169Y023307D02*
X013258Y023396D01*
X013169Y022756D02*
Y023307D01*
X012815Y022795D02*
X012854Y022756D01*
X012815Y022795D02*
Y023356D01*
X019656Y012844D02*
X019882Y012618D01*
Y012126D02*
Y012618D01*
X022598Y013494D02*
Y014016D01*
X022205Y013494D02*
Y014016D01*
X015179Y011685D02*
X015354D01*
X01503Y011535D02*
X015179Y011685D01*
X01748Y009409D02*
Y010236D01*
X01747Y010226D02*
X01748Y010236D01*
X019213Y011575D02*
X019724D01*
Y011968D02*
X019882Y012126D01*
X019213Y011968D02*
X019724D01*
X020433Y011683D02*
X020886D01*
X019882Y012126D02*
X019892Y012116D01*
X020236*
X020413Y011939*
X020886*
X022579Y011171D02*
Y011427D01*
X022569Y011437D02*
X022579Y011427D01*
X022224Y011437D02*
X022569D01*
X022116Y011545D02*
X022224Y011437D01*
X022116Y011545D02*
Y012077D01*
X022106Y012087D02*
X022116Y012077D01*
X022106Y012087D02*
X022215Y012195D01*
X022579*
X022943Y013947D02*
X023396D01*
X022874Y014016D02*
X022943Y013947D01*
X022598Y014016D02*
X022874D01*
X022175Y014045D02*
X022205Y014016D01*
X021427Y014045D02*
X022175D01*
X021427Y013297D02*
Y013337D01*
X021073Y013691D02*
X021427Y013337D01*
X021073Y013691D02*
D01*
X021427Y014045*
X019715Y013652D02*
X019734Y013671D01*
X020364*
Y014045D02*
D01*
X019715D02*
X020364D01*
X019183Y01374D02*
X019272Y013652D01*
X019715*
X016383Y011685D02*
X016402Y011705D01*
X015827Y011685D02*
X016383D01*
X015827D02*
D01*
X015354D02*
X015827D01*
X015354Y010443D02*
X015433Y010364D01*
X015354Y010443D02*
Y011291D01*
X015827Y011181D02*
Y011291D01*
Y011181D02*
X016142Y010866D01*
Y010413D02*
X016211Y010482D01*
X016545*
X016535Y010866D02*
X016545Y010876D01*
X016142Y010866D02*
X016535D01*
X012913Y013102D02*
X013386D01*
X012931Y012709D02*
X013179Y012461D01*
X012913Y012709D02*
X012931D01*
X013179Y012461D02*
Y012502D01*
X013386Y012709*
X016016Y012374D02*
X016402D01*
X015974Y012333D02*
X016016Y012374D01*
X015839Y012333D02*
X015974D01*
X016496Y012776D02*
Y012894D01*
Y012776D02*
X016614Y012657D01*
Y012404D02*
Y012657D01*
X016585Y013543D02*
Y013839D01*
Y014567D02*
Y014783D01*
Y015226D02*
Y015492D01*
Y015226D02*
X016654Y015157D01*
X017264*
X016585Y01622D02*
Y016348D01*
X016575Y016358D02*
X016585Y016348D01*
X016575Y016358D02*
X016673Y016457D01*
X01748*
X017156Y013868D02*
D01*
X016796D02*
X017156D01*
X016053Y014537D02*
X016373D01*
X017106Y015522D02*
D01*
X016796D02*
X017106D01*
X016191Y016191D02*
X016373D01*
X013228Y015984D02*
Y01625D01*
Y015738D02*
Y015984D01*
X013238Y014227D02*
Y014488D01*
Y013967D02*
Y014227D01*
X013228Y015738D02*
X013238Y015728D01*
X028986Y020167D02*
X029252Y019902D01*
X024754Y018022D02*
X024764Y018032D01*
X024632Y014081D02*
Y014488D01*
X024409Y013858D02*
X024632Y014081D01*
X033022Y009144D02*
X033031Y009154D01*
X033022Y00878D02*
Y009144D01*
X028661Y011348D02*
X028671Y011339D01*
X029183*
X029291Y01123*
Y010974D02*
Y01123D01*
X028661Y012175D02*
X028799Y012313D01*
X029222*
X028661Y013002D02*
X028829Y012835D01*
X029222*
X029561Y02227D02*
X029685Y022146D01*
X029183Y02227D02*
X029561D01*
X027461Y021319D02*
X02747Y021329D01*
X027717*
X027726Y021319*
X027411Y020925D02*
X027726D01*
X028055D02*
X028396Y020585D01*
X027726Y020925D02*
X028055D01*
X028986Y020167D02*
Y020585D01*
X028455Y019774D02*
Y02001D01*
X028593Y020148*
Y020585*
X028848Y019774D02*
Y02002D01*
X028789Y020079D02*
X028848Y02002D01*
X028789Y020079D02*
Y020585D01*
X028396Y021299D02*
Y02227D01*
X028593*
X028789D02*
Y022707D01*
X028642Y022854D02*
X028789Y022707D01*
X028268Y022854D02*
X028642D01*
X029537Y023937D02*
X029577Y023898D01*
Y023593D02*
Y023898D01*
X02877Y023415D02*
X02878Y023406D01*
X02877Y023415D02*
Y02372D01*
X026496Y024439D02*
Y024724D01*
X026358Y024301D02*
X026496Y024439D01*
X026358Y023933D02*
Y024301D01*
X026093Y024715D02*
X026102Y024724D01*
X026093Y024439D02*
Y024715D01*
Y024439D02*
X026161Y02437D01*
Y023933D02*
Y02437D01*
X024753Y023781D02*
Y024264D01*
Y023781D02*
X024754Y02378D01*
X02752Y022854D02*
X02753Y022844D01*
X027234Y022854D02*
X02752D01*
X027234Y023248D02*
X02752D01*
X026555Y023927D02*
Y023933D01*
Y023927D02*
X027234Y023248D01*
X026407Y022293D02*
X027067D01*
X026361Y022248D02*
X026407Y022293D01*
X022185Y024862D02*
X022333Y024715D01*
X02248*
X023671Y023018D02*
D01*
X023865*
X024262Y021333D02*
Y021713D01*
X024065Y023504D02*
X024114Y023553D01*
X024065Y023018D02*
Y023504D01*
X024659Y023018D02*
X024665Y023012D01*
X024459Y023018D02*
X024659D01*
X024134Y020669D02*
Y020827D01*
X024065Y020896D02*
X024134Y020827D01*
X024065Y020896D02*
Y021333D01*
X02377Y020778D02*
X023868Y020876D01*
Y021333*
X022313Y022106D02*
X022323Y022096D01*
X022972*
X019951Y016309D02*
X020492D01*
X022185Y016073D02*
D01*
Y016309*
Y017303D02*
D01*
Y017077D02*
Y017303D01*
X022717Y0169D02*
X022943D01*
X022638Y016821D02*
X022717Y0169D01*
X022185Y016821D02*
X022638D01*
X022707Y016496D02*
X022953D01*
X022638Y016565D02*
X022707Y016496D01*
X022185Y016565D02*
X022638D01*
X023533Y012451D02*
X023553Y01247D01*
X026732Y017598D02*
X026871Y017459D01*
Y016533D02*
Y017459D01*
X026535Y016683D02*
X026686Y016533D01*
X026871*
X028455Y01685D02*
X028465Y01686D01*
Y017116*
X028455Y016191D02*
Y016457D01*
Y016191D02*
X028465Y016181D01*
X033799Y017264D02*
X033809Y017254D01*
Y016949D02*
Y017254D01*
X023396Y013947D02*
Y014272D01*
X03003Y006929D02*
X030226Y007126D01*
X03378Y010709D02*
X034104D01*
X031772Y01126D02*
X03315D01*
X031526Y011506D02*
X031772Y01126D01*
X033238D02*
X033248Y01125D01*
X033238Y01126D02*
Y012018D01*
X033071Y012185D02*
X033238Y012018D01*
X033071Y012185D02*
Y012451D01*
X033742Y009013D02*
X033799Y008956D01*
Y008681D02*
Y008956D01*
X033504Y008386D02*
X033799Y008681D01*
X031713Y012864D02*
Y012972D01*
X032677Y013937*
X032825*
X033209Y013356D02*
X033219Y013366D01*
Y013937*
X03252Y013346D02*
X03253Y013356D01*
X032785Y012963D02*
X033209D01*
X032726Y012904D02*
X032785Y012963D01*
X031526Y011506D02*
Y011693D01*
X031919D02*
Y012657D01*
X031713Y012864D02*
X031919Y012657D01*
X029291Y009862D02*
Y010285D01*
Y009862D02*
X029636Y009518D01*
X033022Y008386D02*
X033504D01*
X032707D02*
X033022D01*
X032402Y008691D02*
X032707Y008386D01*
X03128Y008691D02*
X032402D01*
X028819Y010285D02*
Y010295D01*
X029491Y007224D02*
X03007Y007804D01*
X02688Y007224D02*
X029491D01*
X025069Y016033D02*
Y016551D01*
Y015689D02*
Y016033D01*
Y016551D02*
X025132Y016614D01*
X025069Y015689D02*
X025632Y015126D01*
X026181Y017598D02*
X026732D01*
X026654Y017992D02*
X026732D01*
X026181D02*
Y018032D01*
X025315Y01748D02*
X025453D01*
X025315D02*
Y0175D01*
X025157Y017825D02*
Y018032D01*
X024921Y017589D02*
X025157Y017825D01*
X024921Y01748D02*
Y017589D01*
X024632Y017191D02*
X024921Y01748D01*
X024632Y016614D02*
Y017191D01*
X025632Y016614D02*
X025906D01*
X025632Y014488D02*
Y015126D01*
X025132Y014488D02*
Y015272D01*
X024632Y015772D02*
X025132Y015272D01*
X024632Y015772D02*
Y016614D01*
G54D53*
X028583Y010285D02*
X028819D01*
X01063Y013337D02*
X011438D01*
X024494Y025167D02*
X024656D01*
X024378Y025052D02*
X024494Y025167D01*
X024238Y024911D02*
X024378Y025052D01*
X024094Y024911D02*
X024238D01*
X012441Y023209D02*
Y023425D01*
X012741Y02374D02*
X012746D01*
X012443Y023442D02*
X012741Y02374D01*
X012441Y023209D02*
X012539Y02311D01*
Y022756D02*
Y02311D01*
X013593Y013573D02*
X013789Y01377D01*
X013238Y013573D02*
X013593D01*
X013563Y014882D02*
X013789Y014656D01*
X013238Y014882D02*
X013563D01*
Y015335D02*
X013789Y015561D01*
X013238Y015335D02*
X013563D01*
X013573Y016644D02*
X013789Y016427D01*
X013228Y016644D02*
X013573D01*
X026024Y010689D02*
X026476Y011142D01*
X024004Y023663D02*
Y024264D01*
Y023663D02*
X024114Y023553D01*
X026476Y011142D02*
X026683D01*
X023553Y01247D02*
X023563Y012461D01*
X026526Y011988D02*
Y012835D01*
Y011988D02*
X026683Y011831D01*
X027273Y015718D02*
X027539D01*
X027246Y015746D02*
X027273Y015718D01*
X028425Y014783D02*
D01*
X027362D02*
X028425D01*
X02762Y016357D02*
Y016533D01*
Y016357D02*
X028425Y015551D01*
Y014783D02*
Y015551D01*
X029596Y017933D02*
X029606Y017923D01*
Y01752D02*
Y017923D01*
X032677Y01749D02*
X032687Y0175D01*
X032677Y017165D02*
Y01749D01*
X031181Y015787D02*
X033789D01*
X033809Y015807*
X031181Y015787D02*
X03123Y015738D01*
Y015276D02*
Y015738D01*
X030492Y013415D02*
X030896Y013012D01*
X029892Y014016D02*
X030492Y013415D01*
X023071Y014793D02*
X023081Y014783D01*
X023396*
X023837*
X024132Y014488*
X032274Y012579D02*
Y0131D01*
X03252Y013346*
X030896Y012579D02*
Y013012D01*
X028819Y010285D02*
X029291D01*
X028455Y010157D02*
X028583Y010285D01*
X027766Y009517D02*
X027913Y009369D01*
X027766Y009517D02*
Y010157D01*
G54D54*
X018839Y020197D02*
X018937Y020098D01*
X023691Y008573D02*
Y008947D01*
X026427Y014016D02*
X029006D01*
X025955Y013543D02*
X026427Y014016D01*
X024281Y013543D02*
X025955D01*
X012146Y022018D02*
X012539Y022411D01*
X011555Y022018D02*
X012146D01*
X012539Y022411D02*
Y022756D01*
X014301Y016427D02*
X014872Y015856D01*
X016713*
X016796Y01594*
Y016191*
X014301Y015561D02*
X014341Y015522D01*
X016373*
X014301Y014656D02*
X014744Y014213D01*
X016654*
X016796Y014356*
Y014537*
X014301Y01377D02*
X0144Y013868D01*
X016373*
X029006Y014016D02*
X029016Y014026D01*
X024132Y013693D02*
X024281Y013543D01*
X024132Y013693D02*
Y014488D01*
X025837Y012943D02*
X026348Y013455D01*
X025837Y012835D02*
Y012943D01*
X023563Y012461D02*
X024104D01*
Y012854D02*
Y012992D01*
X024287Y013175*
X024823*
X024626Y012274D02*
Y012431D01*
X024429Y012077D02*
X024626Y012274D01*
X023553Y012077D02*
X024429D01*
X023248Y012451D02*
X023533D01*
X02311Y012313D02*
X023248Y012451D01*
X02311Y012037D02*
Y012313D01*
X023012Y011939D02*
X02311Y012037D01*
X022579Y011939D02*
X023012D01*
X023159Y011683D02*
X023553Y012077D01*
X022579Y011683D02*
X023159D01*
X024665Y012835D02*
D01*
X025837*
X030079Y013002D02*
X030492Y013415D01*
X029616Y012313D02*
Y012835D01*
X029783Y013002*
X030079*
X034154Y010276D02*
X034155Y010274D01*
Y009801D02*
Y010274D01*
X033386Y009822D02*
X033407Y009801D01*
X033386Y009822D02*
Y010709D01*
X03253Y013356D02*
X033209D01*
X031289Y011929D02*
X031526Y011693D01*
X031289Y011929D02*
Y012185D01*
X030896Y012579D02*
X031289Y012185D01*
G54D55*
X028179Y010797D02*
X028455Y010522D01*
X027618Y010797D02*
X028179D01*
X027362Y011053D02*
X027618Y010797D01*
X027362Y011053D02*
Y013484D01*
X028455Y010157D02*
Y010522D01*
X029606Y015787D02*
Y015955D01*
X030295Y016644*
X030305*
X031181Y01752*
X028425Y013484D02*
X02936D01*
X029892Y014016*
X028455Y009911D02*
Y010157D01*
Y009911D02*
X028642Y009724D01*
Y009301D02*
Y009724D01*
Y009301D02*
X028985Y008958D01*
Y008889D02*
Y008958D01*
G54D57*
X031624Y014016D02*
X032224D01*
G54D64*
X027677Y008543D03*
G54D65*
X031526Y010433D03*
G54D66*
X014035Y02378D03*
X012303D03*
G54D67*
X027453Y018898D03*
X026453D03*
X025453D03*
X024453D03*
X029453D03*
X028453D03*
X030453D03*
X033661D03*
X022244D03*
Y007283D03*
X033661D03*
G54D68*
X031453Y018898D03*
G54D69*
X010984Y01937D03*
Y007047D03*
X012642Y007435D03*
Y006935D03*
X013142Y007435D03*
Y006935D03*
X013642Y007435D03*
Y006935D03*
X014142Y007435D03*
Y006935D03*
X014642Y007435D03*
Y006935D03*
G54D70*
X033169Y021693D03*
Y024409D03*
G54D71*
X031004Y021693D03*
Y024409D03*
G54D72*
X019028Y007323D03*
X020028D03*
G54D73*
X020512Y00626D03*
X018543D03*
X016457D03*
X01437D03*
X012283D03*
X022283D03*
X02437D03*
X026457D03*
X028543D03*
X03063D03*
X032717D03*
X010197Y00815D03*
Y010118D03*
Y012087D03*
Y014055D03*
Y016024D03*
Y017992D03*
Y019961D03*
Y021929D03*
Y023898D03*
X014134Y025866D03*
X012165D03*
X034803Y023976D03*
Y022008D03*
Y020039D03*
Y018071D03*
Y016102D03*
Y014134D03*
Y012165D03*
Y010197D03*
Y008228D03*
X010197Y025866D03*
X034803D03*
Y00626D03*
X010197D03*
X030935Y010118D03*
X01063Y013337D03*
X018209Y024675D03*
X017283Y012421D03*
X02563Y024715D03*
X033907Y020246D03*
X029537Y02502D03*
X023002Y025256D03*
X020876Y013346D03*
X023976Y017598D03*
X024567Y017648D03*
X024134Y017982D03*
X023652Y016211D03*
X014567Y016949D03*
X01497Y017008D03*
X02376Y018996D03*
X022983Y019075D03*
X023986Y006585D03*
X023691Y008573D03*
X022776Y017215D03*
X023602Y01562D03*
X025787Y017618D03*
X026024Y018327D03*
X023406Y017008D03*
X012972Y016949D03*
X010915Y009557D03*
X012953Y009262D03*
X013809Y012047D03*
X014144Y013189D03*
X014488Y012628D03*
X014793Y012224D03*
X011919Y010069D03*
X01188Y009537D03*
X012441Y00813D03*
X01185Y007805D03*
X010551Y014291D03*
X010906Y012047D03*
X015069Y008878D03*
X014311Y008701D03*
X014488Y008327D03*
X015906Y007165D03*
X012717Y016654D03*
X018691Y008051D03*
X024134Y020364D03*
X010856Y015541D03*
X010866Y015148D03*
X021634Y022402D03*
X020492Y02062D03*
X019606Y018996D03*
X019045Y019459D03*
X01997Y019065D03*
X019892Y01748D03*
X017707Y011752D03*
X016043Y013189D03*
X024577Y022047D03*
X023839Y022087D03*
X019301Y020433D03*
X023848Y019921D03*
X01936Y01874D03*
X016841Y018701D03*
X026457Y018179D03*
X021319Y017992D03*
X018248Y018435D03*
X019459Y017461D03*
X019882Y018671D03*
X016407Y018878D03*
X020571Y009567D03*
X023848Y010778D03*
X023858Y010148D03*
X022313Y008553D03*
X019734Y010197D03*
X024488Y006919D03*
X026536Y019892D03*
X0269Y019163D03*
X029685Y019744D03*
X029252Y019478D03*
X013228Y019409D03*
X013238Y018593D03*
X013268Y019016D03*
X023327Y021693D03*
X017825Y020719D03*
X018268Y02065D03*
X014951Y02122D03*
X014774Y019646D03*
Y019163D03*
X014784Y018799D03*
X014823Y018396D03*
X027244Y01939D03*
X022126Y019872D03*
X028051Y023189D03*
X022982Y019636D03*
X02126Y018642D03*
X019843Y017067D03*
X024656Y025167D03*
X024094Y024911D03*
X026043Y020925D03*
X0256Y024321D03*
X026319Y023002D03*
X025738Y022766D03*
X021999Y020778D03*
X01872Y016191D03*
X0194Y015591D03*
X018691Y012372D03*
X02562Y020955D03*
X018632Y015856D03*
X018366Y017431D03*
X016083Y016191D03*
X016329Y01501D03*
X019331Y01252D03*
X02062Y012854D03*
X028248Y019596D03*
X019449Y01312D03*
X023465Y020531D03*
X019006Y013081D03*
X018593Y013494D03*
X02122Y020157D03*
X017303Y018169D03*
X024252Y015354D03*
X02063Y014478D03*
X022018Y014852D03*
X015551Y012087D03*
X016604Y013524D03*
X021201Y017392D03*
X015945Y0169D03*
X018622Y018553D03*
X019055Y016752D03*
Y017156D03*
X018917Y021319D03*
X018248Y022657D03*
X020148Y02185D03*
X017461Y019409D03*
X017933Y020197D03*
X01937Y010689D03*
X019173Y009518D03*
X020906Y023022D03*
X017421Y02249D03*
X016752Y024783D03*
X020896Y024813D03*
X019252Y023996D03*
X018898Y024104D03*
X017283Y023681D03*
X019951Y0244D03*
X018642Y024596D03*
X017766Y024567D03*
X013209Y019813D03*
X011732Y020728D03*
X011043Y020817D03*
X014596D03*
X020896Y011063D03*
X013445Y021594D03*
X01374Y02189D03*
X01315D03*
X012146Y022018D03*
X011407D03*
X011014Y022028D03*
X012746Y02374D03*
X013159Y024764D03*
X010915Y02501D03*
X015423D03*
X015404Y022795D03*
X011437Y023435D03*
X013258Y023396D03*
X012815Y023356D03*
X012421Y020551D03*
X015157Y013189D03*
X016821Y010226D03*
X01747D03*
X01748Y008642D03*
X022579Y011171D03*
X021073Y013691D03*
X019183Y01374D03*
X013415Y012156D03*
X016142Y010866D03*
Y010413D03*
X015433Y010364D03*
X012549Y012087D03*
X010906Y012953D03*
X01251Y01252D03*
X013179Y012461D03*
X015974Y012333D03*
X017264Y015157D03*
X01748Y016457D03*
X019134Y014163D03*
X017156Y013868D03*
X016053Y014537D03*
X017106Y015522D03*
X013228Y015984D03*
X013238Y014227D03*
X029016Y014026D03*
X024409Y013858D03*
X026348Y013455D03*
X030463Y008711D03*
X029385Y008293D03*
X033031Y009154D03*
X028248Y011348D03*
X028661D03*
Y011762D03*
X027835Y013012D03*
X028248D03*
X028661Y013002D03*
Y012569D03*
Y012175D03*
X026024Y010689D03*
X025531D03*
X025039D03*
Y011181D03*
Y011673D03*
X029685Y022146D03*
X027461Y021319D03*
X027411Y020925D03*
X028396Y021299D03*
X028268Y022854D03*
X029577Y023593D03*
X02878Y023406D03*
X024754Y02378D03*
X02753Y022844D03*
X02752Y023248D03*
X027067Y022293D03*
X022185Y024862D03*
X024114Y023553D03*
X024665Y023012D03*
X022313Y022106D03*
X019951Y016309D03*
X022185Y016073D03*
Y017303D03*
X024823Y013175D03*
X026526Y012283D03*
X027539Y015718D03*
X026535Y016683D03*
X028465Y017116D03*
Y016181D03*
X029596Y017933D03*
X030295Y016644D03*
X032687Y0175D03*
X033799Y017264D03*
X03123Y015276D03*
X030079Y013002D03*
X023396Y013947D03*
X023071Y014793D03*
X030226Y007126D03*
X034104Y010709D03*
X033248Y01125D03*
X032795Y007756D03*
X034154Y010276D03*
X033868Y012549D03*
X03252Y013346D03*
X032726Y012904D03*
X033071Y012451D03*
X031713Y012864D03*
X031289Y012185D03*
X032224Y014016D03*
X031289Y007047D03*
X033504Y008386D03*
X03128Y008691D03*
X029636Y009518D03*
X028819Y010295D03*
X025157Y0075D03*
X024941Y009281D03*
X02688Y007224D03*
X025069Y016033D03*
X025906Y016614D03*
X027913Y008267D03*
X027441D03*
Y008818D03*
X027913D03*
Y009369D03*
X027441D03*
Y007716D03*
X027913D03*
X032116Y010748D03*
X030935D03*
X030344D03*
X031526D03*
X032707D03*
X032116Y010118D03*
X032707D03*
X030344D03*
X031526D03*
X031506Y0075D03*
G54D74*
X011417Y025D03*
X014921D03*
X011417Y022795D03*
X014921D03*
G54D75*
X012539Y022756D03*
X012854D03*
X013169D03*
X013484D03*
X013799D03*
G54D76*
X022688Y009636D03*
X022432D03*
X022176D03*
Y010384D03*
X022432D03*
X022688D03*
G54D77*
X014035Y018035D03*
X015571D03*
X014035Y018535D03*
X015571D03*
X014035Y019035D03*
X015571D03*
X014035Y019535D03*
X015571D03*
X014035Y020035D03*
X015571D03*
G54D78*
X013041Y010876D03*
X012541D03*
X012041D03*
X011541D03*
Y008667D03*
X012041D03*
X012541D03*
X013041D03*
G54D79*
X020364Y013297D03*
Y013671D03*
Y014045D03*
X021427D03*
Y013297D03*
G54D80*
X013789Y014656D03*
Y01377D03*
Y015561D03*
Y016427D03*
X011565Y02127D03*
G54D81*
X016796Y014537D03*
X016373D03*
Y013868D03*
X016796D03*
Y015522D03*
X016373D03*
Y016191D03*
X016796D03*
X016402Y012374D03*
X016826D03*
Y011705D03*
X016402D03*
G54D82*
X016585Y014567D03*
Y013839D03*
Y015492D03*
Y01622D03*
X016614Y012404D03*
Y011675D03*
G54D83*
X017795Y009459D03*
X015906D03*
X017795Y007795D03*
X015906D03*
G54D84*
X027766Y010157D03*
X028455D03*
X026526Y012835D03*
X025837D03*
G54D85*
X029606Y015787D03*
Y01752D03*
X031181Y015787D03*
Y01752D03*
G54D86*
X029892Y014016D03*
X031624D03*
G54D87*
X028985Y008889D03*
X03007Y007804D03*
G54D88*
X032677Y017165D03*
Y015787D03*
G54D89*
X024132Y014488D03*
X024632D03*
X025132D03*
X025632D03*
Y016614D03*
X025132D03*
X024632D03*
X024132D03*
G54D90*
X020492Y017077D03*
Y016821D03*
Y016565D03*
Y016309D03*
X022185D03*
Y016565D03*
Y016821D03*
Y017077D03*
X020886Y012195D03*
Y011939D03*
Y011683D03*
Y011427D03*
X022579D03*
Y011683D03*
Y011939D03*
Y012195D03*
G54D91*
X020915Y024406D03*
Y022654D03*
X016801D03*
Y024406D03*
M02*