%FSTAX24Y24*%
%MOIN*%
%SFA1B1*%

%IPPOS*%
%ADD50C,0.010000*%
%ADD92C,0.019700*%
%ADD93C,0.009800*%
%ADD94C,0.039400*%
%ADD95C,0.007900*%
%ADD96C,0.005000*%
%ADD97C,0.005900*%
%ADD174C,0.006000*%
%ADD175C,0.005900*%
%ADD176C,0.007000*%
%LNee4951_bpm_reva-1*%
%LPD*%
G54D50*
X02379Y016624D02*
D01*
X023789Y016627*
X023789Y01663*
X023788Y016634*
X023788Y016637*
X023786Y016641*
X023785Y016644*
X023784Y016647*
X023782Y01665*
X02378Y016653*
X023778Y016656*
X023775Y016658*
X023773Y016661*
X02377Y016663*
X023767Y016665*
X023765Y016667*
X023761Y016668*
X023758Y01667*
X023755Y016671*
X023752Y016672*
X023748Y016673*
X023745Y016673*
X023741Y016673*
X023738*
X023734Y016673*
X023731Y016673*
X023727Y016672*
X023724Y016671*
X023721Y01667*
X023718Y016668*
X023715Y016667*
X023712Y016665*
X023709Y016663*
X023706Y016661*
X023704Y016658*
X023701Y016656*
X023699Y016653*
X023697Y01665*
X023695Y016647*
X023694Y016644*
X023693Y016641*
X023691Y016637*
X023691Y016634*
X02369Y01663*
X02369Y016627*
X02369Y016624*
X02369Y01662*
X02369Y016617*
X023691Y016613*
X023691Y01661*
X023693Y016606*
X023694Y016603*
X023695Y0166*
X023697Y016597*
X023699Y016594*
X023701Y016591*
X023704Y016589*
X023706Y016586*
X023709Y016584*
X023712Y016582*
X023715Y01658*
X023718Y016579*
X023721Y016577*
X023724Y016576*
X023727Y016575*
X023731Y016574*
X023734Y016574*
X023738Y016574*
X023741*
X023745Y016574*
X023748Y016574*
X023752Y016575*
X023755Y016576*
X023758Y016577*
X023761Y016579*
X023765Y01658*
X023767Y016582*
X02377Y016584*
X023773Y016586*
X023775Y016589*
X023778Y016591*
X02378Y016594*
X023782Y016597*
X023784Y0166*
X023785Y016603*
X023786Y016606*
X023788Y01661*
X023788Y016613*
X023789Y016617*
X023789Y01662*
X02379Y016624*
X020217Y012884D02*
D01*
X020216Y012887*
X020216Y01289*
X020215Y012894*
X020215Y012897*
X020214Y0129*
X020212Y012903*
X020211Y012907*
X020209Y012909*
X020207Y012912*
X020205Y012915*
X020203Y012918*
X0202Y01292*
X020198Y012922*
X020195Y012924*
X020192Y012926*
X020189Y012928*
X020186Y012929*
X020183Y01293*
X020179Y012931*
X020176Y012932*
X020173Y012932*
X020169Y012932*
X020166*
X020162Y012932*
X020159Y012932*
X020156Y012931*
X020152Y01293*
X020149Y012929*
X020146Y012928*
X020143Y012926*
X02014Y012924*
X020137Y012922*
X020135Y01292*
X020132Y012918*
X02013Y012915*
X020128Y012912*
X020126Y012909*
X020124Y012907*
X020123Y012903*
X020121Y0129*
X02012Y012897*
X02012Y012894*
X020119Y01289*
X020119Y012887*
X020119Y012884*
X020119Y01288*
X020119Y012877*
X02012Y012873*
X02012Y01287*
X020121Y012867*
X020123Y012864*
X020124Y01286*
X020126Y012858*
X020128Y012855*
X02013Y012852*
X020132Y012849*
X020135Y012847*
X020137Y012845*
X02014Y012843*
X020143Y012841*
X020146Y012839*
X020149Y012838*
X020152Y012837*
X020156Y012836*
X020159Y012835*
X020162Y012835*
X020166Y012835*
X020169*
X020173Y012835*
X020176Y012835*
X020179Y012836*
X020183Y012837*
X020186Y012838*
X020189Y012839*
X020192Y012841*
X020195Y012843*
X020198Y012845*
X0202Y012847*
X020203Y012849*
X020205Y012852*
X020207Y012855*
X020209Y012858*
X020211Y01286*
X020212Y012864*
X020214Y012867*
X020215Y01287*
X020215Y012873*
X020216Y012877*
X020216Y01288*
X020217Y012884*
X023474Y021683D02*
Y022667D01*
X024656Y021683D02*
Y022667D01*
X028199Y020935D02*
Y021919D01*
X02938Y020935D02*
Y021919D01*
X026752Y022598D02*
Y023583D01*
X025571Y022598D02*
Y023583D01*
X021073Y024793D02*
Y025187D01*
X020679D02*
X021073D01*
X016644Y024793D02*
Y025187D01*
X017037*
X016644Y02315D02*
Y023937D01*
X021073Y02315D02*
Y023937D01*
X017677Y022431D02*
X020039D01*
X021142Y011122D02*
X022323D01*
X021142Y0125D02*
X022323D01*
X020748Y016004D02*
X021929D01*
X020748Y017382D02*
X021929D01*
X023898Y014921D02*
Y016181D01*
X025866Y014921D02*
Y016181D01*
X02874Y007559D02*
X029626D01*
X02874D02*
Y008445D01*
X029429Y009134D02*
X030315D01*
Y008248D02*
Y009134D01*
X030364Y014547D02*
X031152D01*
X030364Y013474D02*
X031152D01*
X03065Y01626D02*
Y017047D01*
X031722Y01626D02*
Y017047D01*
X029075Y01626D02*
Y017047D01*
X030148Y01626D02*
Y017047D01*
X015669Y007018D02*
X018031D01*
X015669Y008583D02*
X018031D01*
X030197Y023346D02*
X033976D01*
X030197D02*
Y025472D01*
X033976*
Y023346D02*
Y025472D01*
X030197Y02063D02*
X033976D01*
X030197D02*
Y022756D01*
X033976*
Y02063D02*
Y022756D01*
X015669Y008671D02*
X018032D01*
X015669Y010236D02*
X018032D01*
X01499Y006407D02*
Y007963D01*
X012293Y006407D02*
X01499D01*
X012293D02*
Y007963D01*
X01499*
X020699Y013032D02*
X021093D01*
X020699Y014301D02*
X021093D01*
X011053Y008986D02*
Y010561D01*
X013524Y008986D02*
Y010561D01*
X012835Y018248D02*
X013228Y018051D01*
X012835Y017854D02*
Y018248D01*
Y017854D02*
X013228Y018051D01*
X014016Y020413D02*
X015591D01*
X014016Y017657D02*
X015591D01*
X013593Y013081D02*
X014154D01*
X02193Y009813D02*
Y010207D01*
X022934Y009813D02*
Y010207D01*
X021693Y015699D02*
X022036Y015886D01*
X013494Y013406D02*
Y01685D01*
Y013406D02*
X015955D01*
Y01685*
X013494D02*
X015955D01*
X022825Y013888D02*
X023258Y013622D01*
X022036Y015886D02*
X022392D01*
X011043Y023504D02*
Y024291D01*
X015295Y023504D02*
Y024291D01*
X023455Y018081D02*
X023533Y017923D01*
G54D92*
X023327Y023356D02*
D01*
X023326Y023359*
X023326Y023362*
X023325Y023366*
X023325Y023369*
X023324Y023372*
X023322Y023375*
X023321Y023379*
X023319Y023381*
X023317Y023384*
X023315Y023387*
X023313Y02339*
X02331Y023392*
X023308Y023394*
X023305Y023396*
X023302Y023398*
X023299Y0234*
X023296Y023401*
X023293Y023402*
X023289Y023403*
X023286Y023404*
X023283Y023404*
X023279Y023404*
X023276*
X023272Y023404*
X023269Y023404*
X023266Y023403*
X023262Y023402*
X023259Y023401*
X023256Y0234*
X023253Y023398*
X02325Y023396*
X023247Y023394*
X023245Y023392*
X023242Y02339*
X02324Y023387*
X023238Y023384*
X023236Y023381*
X023234Y023379*
X023233Y023375*
X023231Y023372*
X02323Y023369*
X02323Y023366*
X023229Y023362*
X023229Y023359*
X023229Y023356*
X023229Y023352*
X023229Y023349*
X02323Y023345*
X02323Y023342*
X023231Y023339*
X023233Y023336*
X023234Y023332*
X023236Y02333*
X023238Y023327*
X02324Y023324*
X023242Y023321*
X023245Y023319*
X023247Y023317*
X02325Y023315*
X023253Y023313*
X023256Y023311*
X023259Y02331*
X023262Y023309*
X023266Y023308*
X023269Y023307*
X023272Y023307*
X023276Y023307*
X023279*
X023283Y023307*
X023286Y023307*
X023289Y023308*
X023293Y023309*
X023296Y02331*
X023299Y023311*
X023302Y023313*
X023305Y023315*
X023308Y023317*
X02331Y023319*
X023313Y023321*
X023315Y023324*
X023317Y023327*
X023319Y02333*
X023321Y023332*
X023322Y023336*
X023324Y023339*
X023325Y023342*
X023325Y023345*
X023326Y023349*
X023326Y023352*
X023327Y023356*
X028051Y022608D02*
D01*
X02805Y022611*
X02805Y022614*
X028049Y022618*
X028049Y022621*
X028048Y022624*
X028046Y022627*
X028045Y022631*
X028043Y022633*
X028041Y022636*
X028039Y022639*
X028037Y022642*
X028034Y022644*
X028032Y022646*
X028029Y022648*
X028026Y02265*
X028023Y022652*
X02802Y022653*
X028017Y022654*
X028013Y022655*
X02801Y022656*
X028007Y022656*
X028003Y022656*
X028*
X027996Y022656*
X027993Y022656*
X02799Y022655*
X027986Y022654*
X027983Y022653*
X02798Y022652*
X027977Y02265*
X027974Y022648*
X027971Y022646*
X027969Y022644*
X027966Y022642*
X027964Y022639*
X027962Y022636*
X02796Y022633*
X027958Y022631*
X027957Y022627*
X027955Y022624*
X027954Y022621*
X027954Y022618*
X027953Y022614*
X027953Y022611*
X027953Y022608*
X027953Y022604*
X027953Y022601*
X027954Y022597*
X027954Y022594*
X027955Y022591*
X027957Y022588*
X027958Y022584*
X02796Y022582*
X027962Y022579*
X027964Y022576*
X027966Y022573*
X027969Y022571*
X027971Y022569*
X027974Y022567*
X027977Y022565*
X02798Y022563*
X027983Y022562*
X027986Y022561*
X02799Y02256*
X027993Y022559*
X027996Y022559*
X028Y022559*
X028003*
X028007Y022559*
X02801Y022559*
X028013Y02256*
X028017Y022561*
X02802Y022562*
X028023Y022563*
X028026Y022565*
X028029Y022567*
X028032Y022569*
X028034Y022571*
X028037Y022573*
X028039Y022576*
X028041Y022579*
X028043Y022582*
X028045Y022584*
X028046Y022588*
X028048Y022591*
X028049Y022594*
X028049Y022597*
X02805Y022601*
X02805Y022604*
X028051Y022608*
X026998Y021909D02*
D01*
X026997Y021912*
X026997Y021915*
X026996Y021919*
X026996Y021922*
X026995Y021925*
X026993Y021928*
X026992Y021932*
X02699Y021934*
X026988Y021937*
X026986Y02194*
X026984Y021943*
X026981Y021945*
X026979Y021947*
X026976Y021949*
X026973Y021951*
X02697Y021953*
X026967Y021954*
X026964Y021955*
X02696Y021956*
X026957Y021957*
X026954Y021957*
X02695Y021957*
X026947*
X026943Y021957*
X02694Y021957*
X026937Y021956*
X026933Y021955*
X02693Y021954*
X026927Y021953*
X026924Y021951*
X026921Y021949*
X026918Y021947*
X026916Y021945*
X026913Y021943*
X026911Y02194*
X026909Y021937*
X026907Y021934*
X026905Y021932*
X026904Y021928*
X026902Y021925*
X026901Y021922*
X026901Y021919*
X0269Y021915*
X0269Y021912*
X0269Y021909*
X0269Y021905*
X0269Y021902*
X026901Y021898*
X026901Y021895*
X026902Y021892*
X026904Y021889*
X026905Y021885*
X026907Y021883*
X026909Y02188*
X026911Y021877*
X026913Y021874*
X026916Y021872*
X026918Y02187*
X026921Y021868*
X026924Y021866*
X026927Y021864*
X02693Y021863*
X026933Y021862*
X026937Y021861*
X02694Y02186*
X026943Y02186*
X026947Y02186*
X02695*
X026954Y02186*
X026957Y02186*
X02696Y021861*
X026964Y021862*
X026967Y021863*
X02697Y021864*
X026973Y021866*
X026976Y021868*
X026979Y02187*
X026981Y021872*
X026984Y021874*
X026986Y021877*
X026988Y02188*
X02699Y021883*
X026992Y021885*
X026993Y021889*
X026995Y021892*
X026996Y021895*
X026996Y021898*
X026997Y021902*
X026997Y021905*
X026998Y021909*
X032048Y013278D02*
D01*
X032047Y013284*
X032047Y01329*
X032046Y013296*
X032044Y013302*
X032042Y013308*
X03204Y013314*
X032037Y013319*
X032034Y013325*
X032031Y01333*
X032027Y013335*
X032023Y013339*
X032018Y013344*
X032013Y013348*
X032008Y013351*
X032003Y013355*
X031998Y013357*
X031992Y01336*
X031986Y013362*
X03198Y013364*
X031974Y013365*
X031968Y013366*
X031962Y013366*
X031955*
X031949Y013366*
X031943Y013365*
X031937Y013364*
X031931Y013362*
X031925Y01336*
X031919Y013357*
X031914Y013355*
X031909Y013351*
X031904Y013348*
X031899Y013344*
X031894Y013339*
X03189Y013335*
X031886Y01333*
X031883Y013325*
X03188Y013319*
X031877Y013314*
X031875Y013308*
X031873Y013302*
X031871Y013296*
X03187Y01329*
X03187Y013284*
X03187Y013278*
X03187Y013271*
X03187Y013265*
X031871Y013259*
X031873Y013253*
X031875Y013247*
X031877Y013241*
X03188Y013236*
X031883Y01323*
X031886Y013225*
X03189Y01322*
X031894Y013216*
X031899Y013211*
X031904Y013207*
X031909Y013204*
X031914Y0132*
X031919Y013198*
X031925Y013195*
X031931Y013193*
X031937Y013191*
X031943Y01319*
X031949Y013189*
X031955Y013189*
X031962*
X031968Y013189*
X031974Y01319*
X03198Y013191*
X031986Y013193*
X031992Y013195*
X031998Y013198*
X032003Y0132*
X032008Y013204*
X032013Y013207*
X032018Y013211*
X032023Y013216*
X032027Y01322*
X032031Y013225*
X032034Y01323*
X032037Y013236*
X03204Y013241*
X032042Y013247*
X032044Y013253*
X032046Y013259*
X032047Y013265*
X032047Y013271*
X032048Y013278*
X032008Y017854D02*
D01*
X032007Y01786*
X032007Y017866*
X032006Y017872*
X032004Y017878*
X032002Y017884*
X032Y01789*
X031997Y017895*
X031994Y017901*
X031991Y017906*
X031987Y017911*
X031983Y017915*
X031978Y01792*
X031973Y017924*
X031968Y017927*
X031963Y017931*
X031958Y017933*
X031952Y017936*
X031946Y017938*
X03194Y01794*
X031934Y017941*
X031928Y017942*
X031922Y017942*
X031915*
X031909Y017942*
X031903Y017941*
X031897Y01794*
X031891Y017938*
X031885Y017936*
X031879Y017933*
X031874Y017931*
X031869Y017927*
X031864Y017924*
X031859Y01792*
X031854Y017915*
X03185Y017911*
X031846Y017906*
X031843Y017901*
X03184Y017895*
X031837Y01789*
X031835Y017884*
X031833Y017878*
X031831Y017872*
X03183Y017866*
X03183Y01786*
X03183Y017854*
X03183Y017847*
X03183Y017841*
X031831Y017835*
X031833Y017829*
X031835Y017823*
X031837Y017817*
X03184Y017812*
X031843Y017806*
X031846Y017801*
X03185Y017796*
X031854Y017792*
X031859Y017787*
X031864Y017783*
X031869Y01778*
X031874Y017776*
X031879Y017774*
X031885Y017771*
X031891Y017769*
X031897Y017767*
X031903Y017766*
X031909Y017765*
X031915Y017765*
X031922*
X031928Y017765*
X031934Y017766*
X03194Y017767*
X031946Y017769*
X031952Y017771*
X031958Y017774*
X031963Y017776*
X031968Y01778*
X031973Y017783*
X031978Y017787*
X031983Y017792*
X031987Y017796*
X031991Y017801*
X031994Y017806*
X031997Y017812*
X032Y017817*
X032002Y017823*
X032004Y017829*
X032006Y017835*
X032007Y017841*
X032007Y017847*
X032008Y017854*
X030434D02*
D01*
X030433Y01786*
X030433Y017866*
X030432Y017872*
X03043Y017878*
X030428Y017884*
X030426Y01789*
X030423Y017895*
X03042Y017901*
X030417Y017906*
X030413Y017911*
X030409Y017915*
X030404Y01792*
X030399Y017924*
X030394Y017927*
X030389Y017931*
X030384Y017933*
X030378Y017936*
X030372Y017938*
X030366Y01794*
X03036Y017941*
X030354Y017942*
X030348Y017942*
X030341*
X030335Y017942*
X030329Y017941*
X030323Y01794*
X030317Y017938*
X030311Y017936*
X030305Y017933*
X0303Y017931*
X030295Y017927*
X03029Y017924*
X030285Y01792*
X03028Y017915*
X030276Y017911*
X030272Y017906*
X030269Y017901*
X030266Y017895*
X030263Y01789*
X030261Y017884*
X030259Y017878*
X030257Y017872*
X030256Y017866*
X030256Y01786*
X030256Y017854*
X030256Y017847*
X030256Y017841*
X030257Y017835*
X030259Y017829*
X030261Y017823*
X030263Y017817*
X030266Y017812*
X030269Y017806*
X030272Y017801*
X030276Y017796*
X03028Y017792*
X030285Y017787*
X03029Y017783*
X030295Y01778*
X0303Y017776*
X030305Y017774*
X030311Y017771*
X030317Y017769*
X030323Y017767*
X030329Y017766*
X030335Y017765*
X030341Y017765*
X030348*
X030354Y017765*
X03036Y017766*
X030366Y017767*
X030372Y017769*
X030378Y017771*
X030384Y017774*
X030389Y017776*
X030394Y01778*
X030399Y017783*
X030404Y017787*
X030409Y017792*
X030413Y017796*
X030417Y017801*
X03042Y017806*
X030423Y017812*
X030426Y017817*
X030428Y017823*
X03043Y017829*
X030432Y017835*
X030433Y017841*
X030433Y017847*
X030434Y017854*
X013839Y008356D02*
D01*
X013838Y008361*
X013838Y008366*
X013837Y008372*
X013835Y008377*
X013834Y008383*
X013832Y008388*
X013829Y008393*
X013826Y008397*
X013823Y008402*
X01382Y008406*
X013816Y00841*
X013812Y008414*
X013808Y008418*
X013804Y008421*
X013799Y008424*
X013794Y008427*
X013789Y008429*
X013784Y008431*
X013779Y008432*
X013773Y008433*
X013768Y008434*
X013762Y008434*
X013757*
X013751Y008434*
X013746Y008433*
X01374Y008432*
X013735Y008431*
X01373Y008429*
X013725Y008427*
X01372Y008424*
X013715Y008421*
X013711Y008418*
X013707Y008414*
X013703Y00841*
X013699Y008406*
X013696Y008402*
X013693Y008397*
X01369Y008393*
X013687Y008388*
X013685Y008383*
X013684Y008377*
X013682Y008372*
X013681Y008366*
X013681Y008361*
X013681Y008356*
X013681Y00835*
X013681Y008345*
X013682Y008339*
X013684Y008334*
X013685Y008328*
X013687Y008323*
X01369Y008318*
X013693Y008314*
X013696Y008309*
X013699Y008305*
X013703Y008301*
X013707Y008297*
X013711Y008293*
X013715Y00829*
X01372Y008287*
X013725Y008284*
X01373Y008282*
X013735Y00828*
X01374Y008279*
X013746Y008278*
X013751Y008277*
X013757Y008277*
X013762*
X013768Y008277*
X013773Y008278*
X013779Y008279*
X013784Y00828*
X013789Y008282*
X013794Y008284*
X013799Y008287*
X013804Y00829*
X013808Y008293*
X013812Y008297*
X013816Y008301*
X01382Y008305*
X013823Y008309*
X013826Y008314*
X013829Y008318*
X013832Y008323*
X013834Y008328*
X013835Y008334*
X013837Y008339*
X013838Y008345*
X013838Y00835*
X013839Y008356*
X023081Y0094D02*
D01*
X02308Y009404*
X02308Y009408*
X023079Y009412*
X023078Y009416*
X023077Y00942*
X023075Y009423*
X023074Y009427*
X023072Y009431*
X023069Y009434*
X023067Y009437*
X023064Y00944*
X023061Y009443*
X023058Y009446*
X023054Y009448*
X023051Y009451*
X023047Y009453*
X023044Y009454*
X02304Y009456*
X023036Y009457*
X023032Y009458*
X023028Y009458*
X023024Y009458*
X023019*
X023015Y009458*
X023011Y009458*
X023007Y009457*
X023003Y009456*
X022999Y009454*
X022996Y009453*
X022992Y009451*
X022989Y009448*
X022985Y009446*
X022982Y009443*
X022979Y00944*
X022976Y009437*
X022974Y009434*
X022971Y009431*
X022969Y009427*
X022968Y009423*
X022966Y00942*
X022965Y009416*
X022964Y009412*
X022963Y009408*
X022963Y009404*
X022963Y0094*
X022963Y009395*
X022963Y009391*
X022964Y009387*
X022965Y009383*
X022966Y009379*
X022968Y009376*
X022969Y009372*
X022971Y009368*
X022974Y009365*
X022976Y009362*
X022979Y009359*
X022982Y009356*
X022985Y009353*
X022989Y009351*
X022992Y009348*
X022996Y009346*
X022999Y009345*
X023003Y009343*
X023007Y009342*
X023011Y009341*
X023015Y009341*
X023019Y009341*
X023024*
X023028Y009341*
X023032Y009341*
X023036Y009342*
X02304Y009343*
X023044Y009345*
X023047Y009346*
X023051Y009348*
X023054Y009351*
X023058Y009353*
X023061Y009356*
X023064Y009359*
X023067Y009362*
X023069Y009365*
X023072Y009368*
X023074Y009372*
X023075Y009376*
X023077Y009379*
X023078Y009383*
X023079Y009387*
X02308Y009391*
X02308Y009395*
X023081Y0094*
G54D93*
X019026Y017864D02*
D01*
X019025Y017866*
X019025Y017869*
X019025Y017872*
X019024Y017874*
X019023Y017877*
X019022Y017879*
X019021Y017882*
X01902Y017884*
X019018Y017886*
X019016Y017889*
X019015Y017891*
X019013Y017892*
X019011Y017894*
X019008Y017896*
X019006Y017897*
X019004Y017899*
X019001Y0179*
X018999Y017901*
X018996Y017901*
X018993Y017902*
X018991Y017902*
X018988Y017902*
X018985*
X018982Y017902*
X01898Y017902*
X018977Y017901*
X018974Y017901*
X018972Y0179*
X018969Y017899*
X018967Y017897*
X018965Y017896*
X018962Y017894*
X01896Y017892*
X018958Y017891*
X018957Y017889*
X018955Y017886*
X018953Y017884*
X018952Y017882*
X018951Y017879*
X01895Y017877*
X018949Y017874*
X018948Y017872*
X018948Y017869*
X018948Y017866*
X018948Y017864*
X018948Y017861*
X018948Y017858*
X018948Y017855*
X018949Y017853*
X01895Y01785*
X018951Y017848*
X018952Y017845*
X018953Y017843*
X018955Y017841*
X018957Y017838*
X018958Y017836*
X01896Y017835*
X018962Y017833*
X018965Y017831*
X018967Y01783*
X018969Y017828*
X018972Y017827*
X018974Y017826*
X018977Y017826*
X01898Y017825*
X018982Y017825*
X018985Y017825*
X018988*
X018991Y017825*
X018993Y017825*
X018996Y017826*
X018999Y017826*
X019001Y017827*
X019004Y017828*
X019006Y01783*
X019008Y017831*
X019011Y017833*
X019013Y017835*
X019015Y017836*
X019016Y017838*
X019018Y017841*
X01902Y017843*
X019021Y017845*
X019022Y017848*
X019023Y01785*
X019024Y017853*
X019025Y017855*
X019025Y017858*
X019025Y017861*
X019026Y017864*
X01626Y012591D02*
D01*
X016259Y012593*
X016259Y012596*
X016259Y012599*
X016258Y012601*
X016257Y012604*
X016256Y012606*
X016255Y012609*
X016254Y012611*
X016252Y012613*
X01625Y012616*
X016249Y012618*
X016247Y012619*
X016245Y012621*
X016242Y012623*
X01624Y012624*
X016238Y012626*
X016235Y012627*
X016233Y012628*
X01623Y012628*
X016227Y012629*
X016225Y012629*
X016222Y012629*
X016219*
X016216Y012629*
X016214Y012629*
X016211Y012628*
X016208Y012628*
X016206Y012627*
X016203Y012626*
X016201Y012624*
X016199Y012623*
X016196Y012621*
X016194Y012619*
X016192Y012618*
X016191Y012616*
X016189Y012613*
X016187Y012611*
X016186Y012609*
X016185Y012606*
X016184Y012604*
X016183Y012601*
X016182Y012599*
X016182Y012596*
X016182Y012593*
X016182Y012591*
X016182Y012588*
X016182Y012585*
X016182Y012582*
X016183Y01258*
X016184Y012577*
X016185Y012575*
X016186Y012572*
X016187Y01257*
X016189Y012568*
X016191Y012565*
X016192Y012563*
X016194Y012562*
X016196Y01256*
X016199Y012558*
X016201Y012557*
X016203Y012555*
X016206Y012554*
X016208Y012553*
X016211Y012553*
X016214Y012552*
X016216Y012552*
X016219Y012552*
X016222*
X016225Y012552*
X016227Y012552*
X01623Y012553*
X016233Y012553*
X016235Y012554*
X016238Y012555*
X01624Y012557*
X016242Y012558*
X016245Y01256*
X016247Y012562*
X016249Y012563*
X01625Y012565*
X016252Y012568*
X016254Y01257*
X016255Y012572*
X016256Y012575*
X016257Y012577*
X016258Y01258*
X016259Y012582*
X016259Y012585*
X016259Y012588*
X01626Y012591*
X017018Y015305D02*
D01*
X017017Y015307*
X017017Y01531*
X017017Y015313*
X017016Y015315*
X017015Y015318*
X017014Y01532*
X017013Y015323*
X017012Y015325*
X01701Y015327*
X017008Y01533*
X017007Y015332*
X017005Y015333*
X017003Y015335*
X017Y015337*
X016998Y015338*
X016996Y01534*
X016993Y015341*
X016991Y015342*
X016988Y015342*
X016985Y015343*
X016983Y015343*
X01698Y015343*
X016977*
X016974Y015343*
X016972Y015343*
X016969Y015342*
X016966Y015342*
X016964Y015341*
X016961Y01534*
X016959Y015338*
X016957Y015337*
X016954Y015335*
X016952Y015333*
X01695Y015332*
X016949Y01533*
X016947Y015327*
X016945Y015325*
X016944Y015323*
X016943Y01532*
X016942Y015318*
X016941Y015315*
X01694Y015313*
X01694Y01531*
X01694Y015307*
X01694Y015305*
X01694Y015302*
X01694Y015299*
X01694Y015296*
X016941Y015294*
X016942Y015291*
X016943Y015289*
X016944Y015286*
X016945Y015284*
X016947Y015282*
X016949Y015279*
X01695Y015277*
X016952Y015276*
X016954Y015274*
X016957Y015272*
X016959Y015271*
X016961Y015269*
X016964Y015268*
X016966Y015267*
X016969Y015267*
X016972Y015266*
X016974Y015266*
X016977Y015266*
X01698*
X016983Y015266*
X016985Y015266*
X016988Y015267*
X016991Y015267*
X016993Y015268*
X016996Y015269*
X016998Y015271*
X017Y015272*
X017003Y015274*
X017005Y015276*
X017007Y015277*
X017008Y015279*
X01701Y015282*
X017012Y015284*
X017013Y015286*
X017014Y015289*
X017015Y015291*
X017016Y015294*
X017017Y015296*
X017017Y015299*
X017017Y015302*
X017018Y015305*
Y013652D02*
D01*
X017017Y013654*
X017017Y013657*
X017017Y01366*
X017016Y013662*
X017015Y013665*
X017014Y013667*
X017013Y01367*
X017012Y013672*
X01701Y013674*
X017008Y013677*
X017007Y013679*
X017005Y01368*
X017003Y013682*
X017Y013684*
X016998Y013685*
X016996Y013687*
X016993Y013688*
X016991Y013689*
X016988Y013689*
X016985Y01369*
X016983Y01369*
X01698Y01369*
X016977*
X016974Y01369*
X016972Y01369*
X016969Y013689*
X016966Y013689*
X016964Y013688*
X016961Y013687*
X016959Y013685*
X016957Y013684*
X016954Y013682*
X016952Y01368*
X01695Y013679*
X016949Y013677*
X016947Y013674*
X016945Y013672*
X016944Y01367*
X016943Y013667*
X016942Y013665*
X016941Y013662*
X01694Y01366*
X01694Y013657*
X01694Y013654*
X01694Y013652*
X01694Y013649*
X01694Y013646*
X01694Y013643*
X016941Y013641*
X016942Y013638*
X016943Y013636*
X016944Y013633*
X016945Y013631*
X016947Y013629*
X016949Y013626*
X01695Y013624*
X016952Y013623*
X016954Y013621*
X016957Y013619*
X016959Y013618*
X016961Y013616*
X016964Y013615*
X016966Y013614*
X016969Y013614*
X016972Y013613*
X016974Y013613*
X016977Y013613*
X01698*
X016983Y013613*
X016985Y013613*
X016988Y013614*
X016991Y013614*
X016993Y013615*
X016996Y013616*
X016998Y013618*
X017Y013619*
X017003Y013621*
X017005Y013623*
X017007Y013624*
X017008Y013626*
X01701Y013629*
X017012Y013631*
X017013Y013633*
X017014Y013636*
X017015Y013638*
X017016Y013641*
X017017Y013643*
X017017Y013646*
X017017Y013649*
X017018Y013652*
G54D94*
X02304Y012697D02*
D01*
X023039Y012698*
X023039Y0127*
X023039Y012702*
X023038Y012704*
X023038Y012706*
X023037Y012708*
X023036Y01271*
X023035Y012711*
X023034Y012713*
X023033Y012714*
X023032Y012716*
X02303Y012717*
X023029Y012719*
X023027Y01272*
X023026Y012721*
X023024Y012722*
X023022Y012722*
X02302Y012723*
X023018Y012724*
X023016Y012724*
X023014Y012724*
X023012Y012724*
X023011*
X023009Y012724*
X023007Y012724*
X023005Y012724*
X023003Y012723*
X023001Y012722*
X022999Y012722*
X022998Y012721*
X022996Y01272*
X022994Y012719*
X022993Y012717*
X022991Y012716*
X02299Y012714*
X022989Y012713*
X022988Y012711*
X022987Y01271*
X022986Y012708*
X022985Y012706*
X022985Y012704*
X022984Y012702*
X022984Y0127*
X022984Y012698*
X022984Y012697*
X022984Y012695*
X022984Y012693*
X022984Y012691*
X022985Y012689*
X022985Y012687*
X022986Y012685*
X022987Y012683*
X022988Y012682*
X022989Y01268*
X02299Y012679*
X022991Y012677*
X022993Y012676*
X022994Y012674*
X022996Y012673*
X022998Y012672*
X022999Y012671*
X023001Y012671*
X023003Y01267*
X023005Y012669*
X023007Y012669*
X023009Y012669*
X023011Y012669*
X023012*
X023014Y012669*
X023016Y012669*
X023018Y012669*
X02302Y01267*
X023022Y012671*
X023024Y012671*
X023026Y012672*
X023027Y012673*
X023029Y012674*
X02303Y012676*
X023032Y012677*
X023033Y012679*
X023034Y01268*
X023035Y012682*
X023036Y012683*
X023037Y012685*
X023038Y012687*
X023038Y012689*
X023039Y012691*
X023039Y012693*
X023039Y012695*
X02304Y012697*
X022646Y017579D02*
D01*
X022645Y01758*
X022645Y017582*
X022645Y017584*
X022644Y017586*
X022644Y017588*
X022643Y01759*
X022642Y017592*
X022641Y017593*
X02264Y017595*
X022639Y017596*
X022638Y017598*
X022636Y017599*
X022635Y017601*
X022633Y017602*
X022632Y017603*
X02263Y017604*
X022628Y017604*
X022626Y017605*
X022624Y017606*
X022622Y017606*
X02262Y017606*
X022618Y017606*
X022617*
X022615Y017606*
X022613Y017606*
X022611Y017606*
X022609Y017605*
X022607Y017604*
X022605Y017604*
X022604Y017603*
X022602Y017602*
X0226Y017601*
X022599Y017599*
X022597Y017598*
X022596Y017596*
X022595Y017595*
X022594Y017593*
X022593Y017592*
X022592Y01759*
X022591Y017588*
X022591Y017586*
X02259Y017584*
X02259Y017582*
X02259Y01758*
X02259Y017579*
X02259Y017577*
X02259Y017575*
X02259Y017573*
X022591Y017571*
X022591Y017569*
X022592Y017567*
X022593Y017565*
X022594Y017564*
X022595Y017562*
X022596Y017561*
X022597Y017559*
X022599Y017558*
X0226Y017556*
X022602Y017555*
X022604Y017554*
X022605Y017553*
X022607Y017553*
X022609Y017552*
X022611Y017551*
X022613Y017551*
X022615Y017551*
X022617Y017551*
X022618*
X02262Y017551*
X022622Y017551*
X022624Y017551*
X022626Y017552*
X022628Y017553*
X02263Y017553*
X022632Y017554*
X022633Y017555*
X022635Y017556*
X022636Y017558*
X022638Y017559*
X022639Y017561*
X02264Y017562*
X022641Y017564*
X022642Y017565*
X022643Y017567*
X022644Y017569*
X022644Y017571*
X022645Y017573*
X022645Y017575*
X022645Y017577*
X022646Y017579*
G54D95*
X019439Y017864D02*
X019636D01*
X019439Y018652D02*
X019636D01*
X024969Y024934D02*
Y024754D01*
X024654Y024934D02*
X024969D01*
X023788D02*
X024103D01*
X023788Y024754D02*
Y024934D01*
X028535Y024328D02*
X028591D01*
X028034Y023827D02*
X028535Y024328D01*
X028591D02*
X029621Y023298D01*
X028034Y023771D02*
X029064Y022741D01*
X028034Y023771D02*
Y023827D01*
X028779Y015098D02*
X028819Y015059D01*
X028071Y015098D02*
X028779D01*
X028819Y015059D02*
Y013602D01*
X028031Y015059D02*
Y013602D01*
Y015059D02*
X028071Y015098D01*
X027717Y015039D02*
X027756Y015D01*
X027008Y015039D02*
X027717D01*
X027756Y013543D02*
Y015D01*
X026969D02*
Y013543D01*
Y015D02*
X027008Y015039D01*
X026655Y016043D02*
Y015864D01*
X02697*
X027521D02*
X027836D01*
Y016043*
X03319Y009131D02*
Y009311D01*
Y009131D02*
X033505D01*
X034057D02*
X034372D01*
Y009311*
X012403Y012667D02*
Y012846D01*
X012088Y012667D02*
X012403D01*
X011222D02*
X011537D01*
X011222Y012846D02*
Y012667D01*
X017008Y011941D02*
Y012138D01*
X01622Y011941D02*
Y012138D01*
X016191Y015758D02*
Y015955D01*
X016978Y015758D02*
Y015955D01*
Y014104D02*
Y014301D01*
X016191Y014104D02*
Y014301D01*
G54D96*
X014675Y006289D02*
X014774Y006093D01*
X014577D02*
X014774D01*
X014577D02*
X014675Y006289D01*
G54D97*
X01253Y021466D02*
X012661D01*
X012726Y021401*
Y021138*
X012661Y021073*
X01253*
X012464Y021138*
Y021401*
X01253Y021466*
X012333Y021073D02*
Y021335D01*
X012136*
X01207Y02127*
Y021073*
X012726Y02208D02*
Y021752D01*
X012661Y021687*
X01253*
X012464Y021752*
Y02208*
X01207Y022015D02*
X012136Y02208D01*
X012267*
X012333Y022015*
Y021949*
X012267Y021884*
X012136*
X01207Y021818*
Y021752*
X012136Y021687*
X012267*
X012333Y021752*
X011939Y02208D02*
Y021687D01*
X011742*
X011677Y021752*
Y021818*
X011742Y021884*
X011939*
X011742*
X011677Y021949*
Y022015*
X011742Y02208*
X011939*
X01089D02*
X011152D01*
Y021884*
X011021Y021949*
X010955*
X01089Y021884*
Y021752*
X010955Y021687*
X011086*
X011152Y021752*
X010759Y021949D02*
X010627Y021687D01*
X010496Y021949*
X015118Y015591D02*
Y015459D01*
Y015525*
X014725*
X01479Y015591*
Y016565D02*
X014725Y016499D01*
Y016368*
X01479Y016303*
X015053*
X015118Y016368*
Y016499*
X015053Y016565*
X01479*
X015282Y016289D02*
Y016158D01*
Y016224*
X015676*
Y016289*
Y016158*
X015479Y015961D02*
Y015699D01*
X015676Y015568D02*
X015282D01*
Y015371*
X015348Y015305*
X015479*
X015545Y015371*
Y015568*
Y015437D02*
X015676Y015305D01*
X015414Y015109D02*
Y014977D01*
X015479Y014912*
X015676*
Y015109*
X01561Y015174*
X015545Y015109*
Y014912*
X015676Y014781D02*
X015414D01*
Y014584*
X015479Y014518*
X015676*
X015807Y014256D02*
Y01419D01*
X015741Y014125*
X015414*
Y014322*
X015479Y014387*
X01561*
X015676Y014322*
Y014125*
Y013797D02*
Y013928D01*
X01561Y013994*
X015479*
X015414Y013928*
Y013797*
X015479Y013731*
X015545*
Y013994*
X023199Y0231D02*
Y022838D01*
X023146Y022785*
X023041*
X022989Y022838*
Y0231*
X022884Y022785D02*
X022779D01*
X022831*
Y0231*
X022884Y023048*
X022622Y0231D02*
X022412D01*
Y023048*
X022622Y022838*
Y022785*
X027451Y02439D02*
X027136D01*
Y024232*
X027188Y02418*
X027293*
X027346Y024232*
Y02439*
Y024285D02*
X027451Y02418D01*
Y024075D02*
Y02397D01*
Y024022*
X027136*
X027188Y024075*
Y023813D02*
X027136Y02376D01*
Y023655*
X027188Y023603*
X027241*
X027293Y023655*
X027346Y023603*
X027398*
X027451Y023655*
Y02376*
X027398Y023813*
X027346*
X027293Y02376*
X027241Y023813*
X027188*
X027293Y02376D02*
Y023655D01*
X028697Y02291D02*
X028474Y022687D01*
X028363Y022798*
Y022873*
X028512Y023021*
X028586*
X028697Y02291*
X028252D02*
X028178Y022984D01*
X028215Y022947*
X028437Y023169*
Y023095*
X027918Y023244D02*
X028066Y023095D01*
Y023392*
X028103Y023429*
X028178*
X028252Y023355*
Y023281*
X028301Y017969D02*
X028248Y018022D01*
Y018127*
X028301Y018179*
X028511*
X028563Y018127*
Y018022*
X028511Y017969*
X028248Y017654D02*
X028301Y017759D01*
X028406Y017864*
X028511*
X028563Y017812*
Y017707*
X028511Y017654*
X028458*
X028406Y017707*
Y017864*
X028301Y017549D02*
X028248Y017497D01*
Y017392*
X028301Y01734*
X028353*
X028406Y017392*
X028458Y01734*
X028511*
X028563Y017392*
Y017497*
X028511Y017549*
X028458*
X028406Y017497*
X028353Y017549*
X028301*
X028406Y017497D02*
Y017392D01*
X023875Y020282D02*
X023927Y020335D01*
X024032*
X024085Y020282*
Y020072*
X024032Y02002*
X023927*
X023875Y020072*
X02356Y020335D02*
X023665Y020282D01*
X02377Y020177*
Y020072*
X023717Y02002*
X023612*
X02356Y020072*
Y020125*
X023612Y020177*
X02377*
X023245Y020335D02*
X02335Y020282D01*
X023455Y020177*
Y020072*
X023402Y02002*
X023298*
X023245Y020072*
Y020125*
X023298Y020177*
X023455*
X022448Y022005D02*
X0225Y022057D01*
X022605*
X022657Y022005*
Y021795*
X022605Y021742*
X0225*
X022448Y021795*
X022133Y022057D02*
X022238Y022005D01*
X022343Y0219*
Y021795*
X02229Y021742*
X022185*
X022133Y021795*
Y021847*
X022185Y0219*
X022343*
X02187Y021742D02*
Y022057D01*
X022028Y0219*
X021818*
X027979Y019908D02*
X028032Y019961D01*
X028136*
X028189Y019908*
Y019698*
X028136Y019646*
X028032*
X027979Y019698*
X027664Y019961D02*
X027769Y019908D01*
X027874Y019803*
Y019698*
X027822Y019646*
X027717*
X027664Y019698*
Y019751*
X027717Y019803*
X027874*
X027559Y019908D02*
X027507Y019961D01*
X027402*
X027349Y019908*
Y019856*
X027402Y019803*
X027454*
X027402*
X027349Y019751*
Y019698*
X027402Y019646*
X027507*
X027559Y019698*
X021749Y023986D02*
X021854D01*
X021801*
Y023724*
X021854Y023671*
X021906*
X021959Y023724*
X021644Y023986D02*
X021434D01*
Y023934*
X021644Y023724*
Y023671*
X011877Y007933D02*
X011982D01*
X011929*
Y007671*
X011982Y007618*
X012034*
X012087Y007671*
X011772Y00788D02*
X011719Y007933D01*
X011614*
X011562Y00788*
Y007828*
X011614Y007776*
X011667*
X011614*
X011562Y007723*
Y007671*
X011614Y007618*
X011719*
X011772Y007671*
X028307Y015935D02*
X028622D01*
Y015778*
X02857Y015725*
X02836*
X028307Y015778*
Y015935*
Y01541D02*
X02836Y015515D01*
X028465Y01562*
X02857*
X028622Y015568*
Y015463*
X02857Y01541*
X028517*
X028465Y015463*
Y01562*
X028065Y015061D02*
X02838D01*
Y014904*
X028328Y014851*
X028118*
X028065Y014904*
Y015061*
Y014536D02*
Y014746D01*
X028223*
X02817Y014641*
Y014589*
X028223Y014536*
X028328*
X02838Y014589*
Y014694*
X028328Y014746*
X011975Y01479D02*
X011826Y014938D01*
X0119Y014864*
X011678Y014641*
X011529Y01479D02*
X011752Y015012D01*
X011641Y015124*
X011566*
X011492Y015049*
Y014975*
X011604Y014864*
X011307Y015012D02*
X011232Y015086D01*
X01127Y015049*
X011492Y015272*
Y015198*
X0194Y012894D02*
X01919D01*
X019295*
Y012579*
X019085D02*
Y012894D01*
X018927*
X018875Y012841*
Y012736*
X018927Y012684*
X019085*
X01877Y012841D02*
X018717Y012894D01*
X018612*
X01856Y012841*
Y012789*
X018612Y012736*
X01856Y012684*
Y012631*
X018612Y012579*
X018717*
X01877Y012631*
Y012684*
X018717Y012736*
X01877Y012789*
Y012841*
X018717Y012736D02*
X018612D01*
X023445Y01562D02*
X023235D01*
X02334*
Y015305*
X02313D02*
Y01562D01*
X022973*
X02292Y015568*
Y015463*
X022973Y01541*
X02313*
X022815Y01562D02*
X022605D01*
Y015568*
X022815Y015358*
Y015305*
X017539Y017451D02*
Y017661D01*
Y017556*
X017224*
Y017766D02*
X017539D01*
Y017923*
X017487Y017976*
X017382*
X017329Y017923*
Y017766*
X017539Y01829D02*
X017487Y018185D01*
X017382Y018081*
X017277*
X017224Y018133*
Y018238*
X017277Y01829*
X017329*
X017382Y018238*
Y018081*
X026516Y021781D02*
Y021519D01*
X026463Y021467*
X026358*
X026306Y021519*
Y021781*
X026201Y021467D02*
X026096D01*
X026148*
Y021781*
X026201Y021729*
X025939D02*
X025886Y021781D01*
X025781*
X025729Y021729*
Y021676*
X025781Y021624*
X025834*
X025781*
X025729Y021571*
Y021519*
X025781Y021467*
X025886*
X025939Y021519*
X0225Y013031D02*
Y012769D01*
X022448Y012717*
X022343*
X02229Y012769*
Y013031*
X022185Y012717D02*
X02208D01*
X022133*
Y013031*
X022185Y012979*
X021713Y012717D02*
X021923D01*
X021713Y012926*
Y012979*
X021765Y013031*
X02187*
X021923Y012979*
X021722Y017913D02*
Y017651D01*
X02167Y017598*
X021565*
X021513Y017651*
Y017913*
X021408Y017598D02*
X021303D01*
X021355*
Y017913*
X021408Y017861*
X021145Y017598D02*
X02104D01*
X021093*
Y017913*
X021145Y017861*
X026112Y015718D02*
X026375D01*
X026427Y015666*
Y015561*
X026375Y015509*
X026112*
Y015194D02*
X026165Y015299D01*
X02627Y015404*
X026375*
X026427Y015351*
Y015246*
X026375Y015194*
X026322*
X02627Y015246*
Y015404*
X020512Y010059D02*
Y010374D01*
X020354*
X020302Y010321*
Y010216*
X020354Y010164*
X020512*
X020407D02*
X020302Y010059D01*
X019987Y010374D02*
X020197D01*
Y010216*
X020092Y010269*
X02004*
X019987Y010216*
Y010112*
X02004Y010059*
X020144*
X020197Y010112*
X019882Y010321D02*
X01983Y010374D01*
X019725*
X019672Y010321*
Y010269*
X019725Y010216*
X019777*
X019725*
X019672Y010164*
Y010112*
X019725Y010059*
X01983*
X019882Y010112*
X019705Y011093D02*
X019482Y011315D01*
X019371Y011204*
Y01113*
X019445Y011055*
X019519*
X019631Y011167*
X019556Y011093D02*
Y010944D01*
X019111D02*
X019259Y011093D01*
X019371Y010981*
X019259Y010944*
X019222Y010907*
Y010833*
X019297Y010759*
X019371*
X019445Y010833*
Y010907*
X019111Y010499D02*
X019259Y010647D01*
X018963*
X018925Y010684*
Y010759*
X019Y010833*
X019074*
X024783Y012096D02*
X024469D01*
Y011939*
X024521Y011887*
X024626*
X024679Y011939*
Y012096*
Y011991D02*
X024783Y011887D01*
X024469Y011572D02*
Y011782D01*
X024626*
X024574Y011677*
Y011624*
X024626Y011572*
X024731*
X024783Y011624*
Y011729*
X024731Y011782*
X024783Y011467D02*
Y011362D01*
Y011414*
X024469*
X024521Y011467*
X024262Y012126D02*
X023947D01*
Y011969*
X023999Y011916*
X024104*
X024157Y011969*
Y012126*
Y012021D02*
X024262Y011916D01*
X023947Y011601D02*
Y011811D01*
X024104*
X024052Y011706*
Y011654*
X024104Y011601*
X024209*
X024262Y011654*
Y011759*
X024209Y011811*
X023999Y011496D02*
X023947Y011444D01*
Y011339*
X023999Y011286*
X024209*
X024262Y011339*
Y011444*
X024209Y011496*
X023999*
X019882Y015679D02*
X019567D01*
Y015522*
X01962Y015469*
X019724*
X019777Y015522*
Y015679*
Y015574D02*
X019882Y015469D01*
Y015207D02*
X019567D01*
X019724Y015364*
Y015154*
X019829Y015049D02*
X019882Y014997D01*
Y014892*
X019829Y01484*
X01962*
X019567Y014892*
Y014997*
X01962Y015049*
X019672*
X019724Y014997*
Y01484*
X018967Y020571D02*
Y020886D01*
X018809*
X018757Y020833*
Y020728*
X018809Y020676*
X018967*
X018862D02*
X018757Y020571D01*
X018494D02*
Y020886D01*
X018652Y020728*
X018442*
X018337Y020833D02*
X018284Y020886D01*
X018179*
X018127Y020833*
Y020781*
X018179Y020728*
X018127Y020676*
Y020623*
X018179Y020571*
X018284*
X018337Y020623*
Y020676*
X018284Y020728*
X018337Y020781*
Y020833*
X018284Y020728D02*
X018179D01*
X023386Y015728D02*
Y016043D01*
X023228*
X023176Y015991*
Y015886*
X023228Y015833*
X023386*
X023281D02*
X023176Y015728D01*
X022914D02*
Y016043D01*
X023071Y015886*
X022861*
X022756Y016043D02*
X022546D01*
Y015991*
X022756Y015781*
Y015728*
X033809Y013583D02*
X033494D01*
Y013425*
X033547Y013373*
X033652*
X033704Y013425*
Y013583*
Y013478D02*
X033809Y013373D01*
X033547Y013268D02*
X033494Y013215D01*
Y01311*
X033547Y013058*
X033599*
X033652Y01311*
Y013163*
Y01311*
X033704Y013058*
X033757*
X033809Y01311*
Y013215*
X033757Y013268*
Y012953D02*
X033809Y0129D01*
Y012796*
X033757Y012743*
X033547*
X033494Y012796*
Y0129*
X033547Y012953*
X033599*
X033652Y0129*
Y012743*
X033415Y014213D02*
Y014527D01*
X033258*
X033205Y014475*
Y01437*
X033258Y014318*
X033415*
X03331D02*
X033205Y014213D01*
X033101Y014475D02*
X033048Y014527D01*
X032943*
X032891Y014475*
Y014423*
X032943Y01437*
X032996*
X032943*
X032891Y014318*
Y014265*
X032943Y014213*
X033048*
X033101Y014265*
X032786Y014475D02*
X032733Y014527D01*
X032628*
X032576Y014475*
Y014423*
X032628Y01437*
X032576Y014318*
Y014265*
X032628Y014213*
X032733*
X032786Y014265*
Y014318*
X032733Y01437*
X032786Y014423*
Y014475*
X032733Y01437D02*
X032628D01*
X032146Y011102D02*
Y011417D01*
X031988*
X031936Y011365*
Y01126*
X031988Y011207*
X032146*
X032041D02*
X031936Y011102D01*
X031831Y011365D02*
X031778Y011417D01*
X031673*
X031621Y011365*
Y011312*
X031673Y01126*
X031726*
X031673*
X031621Y011207*
Y011155*
X031673Y011102*
X031778*
X031831Y011155*
X031306Y011417D02*
X031411Y011365D01*
X031516Y01126*
Y011155*
X031463Y011102*
X031359*
X031306Y011155*
Y011207*
X031359Y01126*
X031516*
X032215Y01751D02*
X0319D01*
Y017352*
X031952Y0173*
X032057*
X03211Y017352*
Y01751*
Y017405D02*
X032215Y0173D01*
X031952Y017195D02*
X0319Y017143D01*
Y017038*
X031952Y016985*
X032005*
X032057Y017038*
Y01709*
Y017038*
X03211Y016985*
X032162*
X032215Y017038*
Y017143*
X032162Y017195*
X032215Y016723D02*
X0319D01*
X032057Y01688*
Y01667*
X027402Y018218D02*
Y018533D01*
X027244*
X027192Y018481*
Y018376*
X027244Y018323*
X027402*
X027297D02*
X027192Y018218D01*
X027087Y018481D02*
X027034Y018533D01*
X026929*
X026877Y018481*
Y018428*
X026929Y018376*
X026982*
X026929*
X026877Y018323*
Y018271*
X026929Y018218*
X027034*
X027087Y018271*
X026772Y018218D02*
X026667D01*
X026719*
Y018533*
X026772Y018481*
X024705Y017283D02*
Y017598D01*
X024547*
X024495Y017546*
Y017441*
X024547Y017388*
X024705*
X0246D02*
X024495Y017283D01*
X02439D02*
X024285D01*
X024337*
Y017598*
X02439Y017546*
X023918Y017598D02*
X024023Y017546D01*
X024127Y017441*
Y017336*
X024075Y017283*
X02397*
X023918Y017336*
Y017388*
X02397Y017441*
X024127*
X033967Y010974D02*
Y011289D01*
X033809*
X033757Y011237*
Y011132*
X033809Y011079*
X033967*
X033862D02*
X033757Y010974D01*
X033652D02*
X033547D01*
X033599*
Y011289*
X033652Y011237*
X033232Y010974D02*
Y011289D01*
X033389Y011132*
X033179*
X023524Y018238D02*
Y018553D01*
X023366*
X023314Y018501*
Y018396*
X023366Y018343*
X023524*
X023419D02*
X023314Y018238D01*
X023209D02*
X023104D01*
X023156*
Y018553*
X023209Y018501*
X022736Y018238D02*
X022946D01*
X022736Y018448*
Y018501*
X022789Y018553*
X022894*
X022946Y018501*
X024478Y017913D02*
Y018228D01*
X024321*
X024268Y018176*
Y018071*
X024321Y018018*
X024478*
X024373D02*
X024268Y017913D01*
X024163D02*
X024059D01*
X024111*
Y018228*
X024163Y018176*
X023901Y017913D02*
X023796D01*
X023849*
Y018228*
X023901Y018176*
X032746Y008809D02*
X032431D01*
Y008652*
X032484Y008599*
X032589*
X032641Y008652*
Y008809*
Y008704D02*
X032746Y008599D01*
Y008494D02*
Y008389D01*
Y008442*
X032431*
X032484Y008494*
Y008232D02*
X032431Y008179D01*
Y008074*
X032484Y008022*
X032694*
X032746Y008074*
Y008179*
X032694Y008232*
X032484*
X027657Y017116D02*
Y017431D01*
X027553Y017326*
X027448Y017431*
Y017116*
X027185D02*
Y017431D01*
X027343Y017274*
X027133*
X034429Y008888D02*
X034114D01*
X034219Y008783*
X034114Y008678*
X034429*
X034167Y008573D02*
X034114Y00852D01*
Y008416*
X034167Y008363*
X034219*
X034272Y008416*
Y008468*
Y008416*
X034324Y008363*
X034377*
X034429Y008416*
Y00852*
X034377Y008573*
X030974Y008445D02*
Y00813D01*
X030765*
X03066D02*
X030555D01*
X030607*
Y008445*
X03066Y008392*
X030876Y015098D02*
Y014783D01*
X030719*
X030666Y014836*
Y015046*
X030719Y015098*
X030876*
X030561Y014783D02*
X030456D01*
X030509*
Y015098*
X030561Y015046*
X030299D02*
X030246Y015098D01*
X030141*
X030089Y015046*
Y014836*
X030141Y014783*
X030246*
X030299Y014836*
Y015046*
X031457Y018376D02*
Y018061D01*
X031299*
X031247Y018113*
Y018323*
X031299Y018376*
X031457*
X031142Y018113D02*
X031089Y018061D01*
X030984*
X030932Y018113*
Y018323*
X030984Y018376*
X031089*
X031142Y018323*
Y018271*
X031089Y018218*
X030932*
X029833Y018474D02*
Y018159D01*
X029675*
X029623Y018212*
Y018422*
X029675Y018474*
X029833*
X029518Y018422D02*
X029465Y018474D01*
X02936*
X029308Y018422*
Y018369*
X02936Y018317*
X029308Y018264*
Y018212*
X02936Y018159*
X029465*
X029518Y018212*
Y018264*
X029465Y018317*
X029518Y018369*
Y018422*
X029465Y018317D02*
X02936D01*
X02669Y020075D02*
X026742Y020128D01*
X026847*
X0269Y020075*
Y019865*
X026847Y019813*
X026742*
X02669Y019865*
X026375Y020128D02*
X026585D01*
Y01997*
X02648Y020023*
X026427*
X026375Y01997*
Y019865*
X026427Y019813*
X026532*
X026585Y019865*
X02606Y020128D02*
X026165Y020075D01*
X02627Y01997*
Y019865*
X026217Y019813*
X026112*
X02606Y019865*
Y019918*
X026112Y01997*
X02627*
X025469Y021217D02*
X025522Y02127D01*
X025627*
X025679Y021217*
Y021007*
X025627Y020955*
X025522*
X025469Y021007*
X025154Y02127D02*
X025364D01*
Y021112*
X025259Y021165*
X025207*
X025154Y021112*
Y021007*
X025207Y020955*
X025312*
X025364Y021007*
X02484Y02127D02*
X025049D01*
Y021112*
X024944Y021165*
X024892*
X02484Y021112*
Y021007*
X024892Y020955*
X024997*
X025049Y021007*
X018625Y011955D02*
X018573Y012008D01*
Y012113*
X018625Y012165*
X018835*
X018888Y012113*
Y012008*
X018835Y011955*
X018573Y011641D02*
Y011851D01*
X01873*
X018678Y011746*
Y011693*
X01873Y011641*
X018835*
X018888Y011693*
Y011798*
X018835Y011851*
X018888Y011378D02*
X018573D01*
X01873Y011536*
Y011326*
X023055Y012192D02*
X023002Y012244D01*
Y012349*
X023055Y012402*
X023264*
X023317Y012349*
Y012244*
X023264Y012192*
X023002Y011877D02*
Y012087D01*
X023159*
X023107Y011982*
Y011929*
X023159Y011877*
X023264*
X023317Y011929*
Y012034*
X023264Y012087*
X023055Y011772D02*
X023002Y011719D01*
Y011614*
X023055Y011562*
X023107*
X023159Y011614*
Y011667*
Y011614*
X023212Y011562*
X023264*
X023317Y011614*
Y011719*
X023264Y011772*
X017425Y021493D02*
X017372Y021545D01*
Y02165*
X017425Y021703*
X017635*
X017687Y02165*
Y021545*
X017635Y021493*
X017372Y021178D02*
Y021388D01*
X01753*
X017477Y021283*
Y02123*
X01753Y021178*
X017635*
X017687Y02123*
Y021335*
X017635Y021388*
X017687Y021073D02*
Y020968D01*
Y021021*
X017372*
X017425Y021073*
X016445Y017273D02*
X016519D01*
X016593Y017199*
Y017125*
X016445Y016976*
X01637*
X016296Y01705*
Y017125*
X016074Y017273D02*
X016296Y017496D01*
Y017273*
X016148Y017421*
X015999D02*
X015925D01*
X015851Y017496*
Y01757*
X015999Y017718*
X016074*
X016148Y017644*
Y01757*
X016111Y017533*
X016036*
X015925Y017644*
X022408Y015036D02*
X022461Y015088D01*
X022566*
X022618Y015036*
Y014826*
X022566Y014774*
X022461*
X022408Y014826*
X022146Y014774D02*
Y015088D01*
X022303Y014931*
X022093*
X021988Y015036D02*
X021936Y015088D01*
X021831*
X021778Y015036*
Y014984*
X021831Y014931*
X021778Y014879*
Y014826*
X021831Y014774*
X021936*
X021988Y014826*
Y014879*
X021936Y014931*
X021988Y014984*
Y015036*
X021936Y014931D02*
X021831D01*
X022986Y017772D02*
X022933Y017825D01*
Y01793*
X022986Y017982*
X023196*
X023248Y01793*
Y017825*
X023196Y017772*
X023248Y01751D02*
X022933D01*
X023091Y017667*
Y017458*
X022933Y017353D02*
Y017143D01*
X022986*
X023196Y017353*
X023248*
X027228Y0117D02*
X027175Y011752D01*
Y011857*
X027228Y011909*
X027438*
X02749Y011857*
Y011752*
X027438Y0117*
X02749Y011437D02*
X027175D01*
X027333Y011595*
Y011385*
X027175Y01107D02*
Y01128D01*
X027333*
X02728Y011175*
Y011122*
X027333Y01107*
X027438*
X02749Y011122*
Y011227*
X027438Y01128*
X02646Y013672D02*
X026513Y013725D01*
X026618*
X02667Y013672*
Y013462*
X026618Y01341*
X026513*
X02646Y013462*
X026198Y01341D02*
Y013725D01*
X026355Y013567*
X026145*
X025883Y01341D02*
Y013725D01*
X02604Y013567*
X02583*
X033274Y012546D02*
X033327Y012598D01*
X033432*
X033484Y012546*
Y012336*
X033432Y012283*
X033327*
X033274Y012336*
X033169Y012546D02*
X033117Y012598D01*
X033012*
X032959Y012546*
Y012493*
X033012Y012441*
X033064*
X033012*
X032959Y012388*
Y012336*
X033012Y012283*
X033117*
X033169Y012336*
X032855D02*
X032802Y012283D01*
X032697*
X032645Y012336*
Y012546*
X032697Y012598*
X032802*
X032855Y012546*
Y012493*
X032802Y012441*
X032645*
X029613Y013382D02*
X029665Y013435D01*
X02977*
X029823Y013382*
Y013173*
X02977Y01312*
X029665*
X029613Y013173*
X029508Y013382D02*
X029455Y013435D01*
X029351*
X029298Y013382*
Y01333*
X029351Y013278*
X029403*
X029351*
X029298Y013225*
Y013173*
X029351Y01312*
X029455*
X029508Y013173*
X029193Y013382D02*
X029141Y013435D01*
X029036*
X028983Y013382*
Y01333*
X029036Y013278*
X028983Y013225*
Y013173*
X029036Y01312*
X029141*
X029193Y013173*
Y013225*
X029141Y013278*
X029193Y01333*
Y013382*
X029141Y013278D02*
X029036D01*
X029534Y012014D02*
X029587Y012067D01*
X029692*
X029744Y012014*
Y011804*
X029692Y011752*
X029587*
X029534Y011804*
X029429Y012014D02*
X029377Y012067D01*
X029272*
X029219Y012014*
Y011962*
X029272Y011909*
X029324*
X029272*
X029219Y011857*
Y011804*
X029272Y011752*
X029377*
X029429Y011804*
X029114Y012067D02*
X028904D01*
Y012014*
X029114Y011804*
Y011752*
X033983Y017664D02*
X034035Y017716D01*
X03414*
X034193Y017664*
Y017454*
X03414Y017402*
X034035*
X033983Y017454*
X033878Y017664D02*
X033826Y017716D01*
X033721*
X033668Y017664*
Y017611*
X033721Y017559*
X033773*
X033721*
X033668Y017507*
Y017454*
X033721Y017402*
X033826*
X033878Y017454*
X033353Y017716D02*
X033458Y017664D01*
X033563Y017559*
Y017454*
X033511Y017402*
X033406*
X033353Y017454*
Y017507*
X033406Y017559*
X033563*
X026306Y016745D02*
X026358Y016693D01*
Y016588*
X026306Y016535*
X026096*
X026043Y016588*
Y016693*
X026096Y016745*
X026306Y01685D02*
X026358Y016903D01*
Y017008*
X026306Y01706*
X026253*
X026201Y017008*
Y016955*
Y017008*
X026148Y01706*
X026096*
X026043Y017008*
Y016903*
X026096Y01685*
X026358Y017375D02*
Y017165D01*
X026201*
X026253Y01727*
Y017323*
X026201Y017375*
X026096*
X026043Y017323*
Y017218*
X026096Y017165*
X029738Y010784D02*
X029685Y010837D01*
Y010942*
X029738Y010994*
X029948*
X03Y010942*
Y010837*
X029948Y010784*
X029738Y010679D02*
X029685Y010627D01*
Y010522*
X029738Y010469*
X02979*
X029843Y010522*
Y010574*
Y010522*
X029895Y010469*
X029948*
X03Y010522*
Y010627*
X029948Y010679*
X03Y010364D02*
Y010259D01*
Y010312*
X029685*
X029738Y010364*
X026745Y010092D02*
X026693Y010039D01*
X026588*
X026535Y010092*
Y010302*
X026588Y010354*
X026693*
X026745Y010302*
X02685Y010092D02*
X026903Y010039D01*
X027008*
X02706Y010092*
Y010144*
X027008Y010197*
X026955*
X027008*
X02706Y010249*
Y010302*
X027008Y010354*
X026903*
X02685Y010302*
X027165Y010092D02*
X027218Y010039D01*
X027323*
X027375Y010092*
Y010302*
X027323Y010354*
X027218*
X027165Y010302*
Y010092*
X022822Y014583D02*
X022874Y014636D01*
X022979*
X023031Y014583*
Y014373*
X022979Y014321*
X022874*
X022822Y014373*
X022507Y014321D02*
X022717D01*
X022507Y014531*
Y014583*
X022559Y014636*
X022664*
X022717Y014583*
X022192Y014636D02*
X022297Y014583D01*
X022402Y014478*
Y014373*
X022349Y014321*
X022244*
X022192Y014373*
Y014426*
X022244Y014478*
X022402*
X014938Y008432D02*
X01499Y008484D01*
X015095*
X015148Y008432*
Y008379*
X015095Y008327*
X01499*
X014938Y008274*
Y008222*
X01499Y008169*
X015095*
X015148Y008222*
X014833Y008169D02*
X014728D01*
X01478*
Y008484*
X014833Y008432*
X015374Y012963D02*
X015059D01*
Y012805*
X015112Y012753*
X015217*
X015269Y012805*
Y012963*
Y012858D02*
X015374Y012753D01*
X015322Y012648D02*
X015374Y012595D01*
Y01249*
X015322Y012438*
X015112*
X015059Y01249*
Y012595*
X015112Y012648*
X015164*
X015217Y012595*
Y012438*
X016673Y01315D02*
Y013464D01*
X016516*
X016463Y013412*
Y013307*
X016516Y013255*
X016673*
X016568D02*
X016463Y01315D01*
X016358Y013412D02*
X016306Y013464D01*
X016201*
X016148Y013412*
Y01336*
X016201Y013307*
X016148Y013255*
Y013202*
X016201Y01315*
X016306*
X016358Y013202*
Y013255*
X016306Y013307*
X016358Y01336*
Y013412*
X016306Y013307D02*
X016201D01*
X015906Y011053D02*
X015591D01*
Y010896*
X015643Y010843*
X015748*
X015801Y010896*
Y011053*
Y010948D02*
X015906Y010843D01*
X015591Y010738D02*
Y010528D01*
X015643*
X015853Y010738*
X015906*
X01503Y011703D02*
X014715D01*
Y011545*
X014767Y011493*
X014872*
X014925Y011545*
Y011703*
Y011598D02*
X01503Y011493D01*
X014715Y011178D02*
Y011388D01*
X014872*
X01482Y011283*
Y01123*
X014872Y011178*
X014977*
X01503Y01123*
Y011335*
X014977Y011388*
X013032Y012362D02*
X012717D01*
Y012205*
X012769Y012152*
X012874*
X012927Y012205*
Y012362*
Y012257D02*
X013032Y012152D01*
Y011837D02*
Y012047D01*
X012822Y011837*
X012769*
X012717Y01189*
Y011995*
X012769Y012047*
X029685Y025066D02*
Y025171D01*
Y025118*
X029948*
X03Y025171*
Y025223*
X029948Y025276*
X03Y024751D02*
Y024961D01*
X02979Y024751*
X029738*
X029685Y024803*
Y024908*
X029738Y024961*
X032408Y020413D02*
X032513D01*
X032461*
Y020151*
X032513Y020098*
X032566*
X032618Y020151*
X032303Y020098D02*
X032198D01*
X032251*
Y020413*
X032303Y020361*
X011526Y020827D02*
Y020512D01*
X011368*
X011316Y020564*
Y020774*
X011368Y020827*
X011526*
X011211Y020512D02*
X011106D01*
X011158*
Y020827*
X011211Y020774*
X018117Y01294D02*
X018169Y012992D01*
X018274*
X018327Y01294*
Y01273*
X018274Y012677*
X018169*
X018117Y01273*
X018012Y012677D02*
X017907D01*
X017959*
Y012992*
X018012Y01294*
X01775Y01273D02*
X017697Y012677D01*
X017592*
X01754Y01273*
Y01294*
X017592Y012992*
X017697*
X01775Y01294*
Y012887*
X017697Y012835*
X01754*
X010961Y014888D02*
X011014Y014941D01*
X011119*
X011171Y014888*
Y014678*
X011119Y014626*
X011014*
X010961Y014678*
X010856D02*
X010804Y014626D01*
X010699*
X010646Y014678*
Y014888*
X010699Y014941*
X010804*
X010856Y014888*
Y014836*
X010804Y014783*
X010646*
X014603Y013205D02*
X014656Y013258D01*
X014761*
X014813Y013205*
Y012995*
X014761Y012943*
X014656*
X014603Y012995*
X014498Y013205D02*
X014446Y013258D01*
X014341*
X014288Y013205*
Y013153*
X014341Y0131*
X014288Y013048*
Y012995*
X014341Y012943*
X014446*
X014498Y012995*
Y013048*
X014446Y0131*
X014498Y013153*
Y013205*
X014446Y0131D02*
X014341D01*
X014642Y017418D02*
X014695Y01747D01*
X0148*
X014852Y017418*
Y017208*
X0148Y017156*
X014695*
X014642Y017208*
X014328Y017156D02*
X014538D01*
X014328Y017365*
Y017418*
X01438Y01747*
X014485*
X014538Y017418*
X014013Y017156D02*
X014223D01*
X014013Y017365*
Y017418*
X014065Y01747*
X01417*
X014223Y017418*
X011437Y012461D02*
Y012198D01*
X011385Y012146*
X01128*
X011227Y012198*
Y012461*
X011122Y012408D02*
X01107Y012461D01*
X010965*
X010912Y012408*
Y012356*
X010965Y012303*
X011017*
X010965*
X010912Y012251*
Y012198*
X010965Y012146*
X01107*
X011122Y012198*
X014072Y012064D02*
X014124Y012116D01*
X014229*
X014282Y012064*
Y011854*
X014229Y011801*
X014124*
X014072Y011854*
X013757Y011801D02*
X013967D01*
X013757Y012011*
Y012064*
X013809Y012116*
X013914*
X013967Y012064*
X013494Y011801D02*
Y012116D01*
X013652Y011959*
X013442*
X017589Y0119D02*
Y012214D01*
X017484Y01211*
X017379Y012214*
Y0119*
X017274D02*
X017169D01*
X017221*
Y012214*
X017274Y012162*
X017428Y010774D02*
X01748Y010827D01*
X017585*
X017638Y010774*
Y010564*
X017585Y010512*
X01748*
X017428Y010564*
X017323Y010512D02*
X017218D01*
X01727*
Y010827*
X017323Y010774*
X016851Y010512D02*
X017061D01*
X016851Y010722*
Y010774*
X016903Y010827*
X017008*
X017061Y010774*
X01688Y016496D02*
Y016811D01*
X016775Y016706*
X01667Y016811*
Y016496*
X016355D02*
X016565D01*
X016355Y016706*
Y016758*
X016408Y016811*
X016513*
X016565Y016758*
X012913Y016093D02*
Y016407D01*
X012756*
X012703Y016355*
Y01625*
X012756Y016197*
X012913*
X012808D02*
X012703Y016093D01*
X012389D02*
X012599D01*
X012389Y016302*
Y016355*
X012441Y016407*
X012546*
X012599Y016355*
X012284Y016407D02*
X012074D01*
Y016355*
X012284Y016145*
Y016093*
X012894Y015423D02*
Y015738D01*
X012736*
X012684Y015686*
Y015581*
X012736Y015528*
X012894*
X012789D02*
X012684Y015423D01*
X012369D02*
X012579D01*
X012369Y015633*
Y015686*
X012421Y015738*
X012526*
X012579Y015686*
X012264D02*
X012212Y015738D01*
X012107*
X012054Y015686*
Y015633*
X012107Y015581*
X012054Y015528*
Y015476*
X012107Y015423*
X012212*
X012264Y015476*
Y015528*
X012212Y015581*
X012264Y015633*
Y015686*
X012212Y015581D02*
X012107D01*
X023993Y013727D02*
X024045Y013779D01*
X02415*
X024203Y013727*
Y013517*
X02415Y013465*
X024045*
X023993Y013517*
X023678Y013779D02*
X023888D01*
Y013622*
X023783Y013674*
X02373*
X023678Y013622*
Y013517*
X02373Y013465*
X023835*
X023888Y013517*
X023573Y013727D02*
X023521Y013779D01*
X023416*
X023363Y013727*
Y013674*
X023416Y013622*
X023363Y01357*
Y013517*
X023416Y013465*
X023521*
X023573Y013517*
Y01357*
X023521Y013622*
X023573Y013674*
Y013727*
X023521Y013622D02*
X023416D01*
X023691Y013032D02*
Y013346D01*
X023534*
X023481Y013294*
Y013189*
X023534Y013136*
X023691*
X023586D02*
X023481Y013032D01*
X023166Y013346D02*
X023376D01*
Y013189*
X023271Y013241*
X023219*
X023166Y013189*
Y013084*
X023219Y013032*
X023324*
X023376Y013084*
X022851Y013346D02*
X023061D01*
Y013189*
X022956Y013241*
X022904*
X022851Y013189*
Y013084*
X022904Y013032*
X023009*
X023061Y013084*
X019941Y014282D02*
Y014596D01*
X019784*
X019731Y014544*
Y014439*
X019784Y014386*
X019941*
X019836D02*
X019731Y014282D01*
X019416Y014596D02*
X019626D01*
Y014439*
X019521Y014491*
X019469*
X019416Y014439*
Y014334*
X019469Y014282*
X019574*
X019626Y014334*
X019311Y014596D02*
X019101D01*
Y014544*
X019311Y014334*
Y014282*
X021998Y014655D02*
Y014393D01*
X021946Y014341*
X021841*
X021788Y014393*
Y014655*
X021683Y014341D02*
X021578D01*
X021631*
Y014655*
X021683Y014603*
X021263Y014341D02*
Y014655D01*
X021421Y014498*
X021211*
X027159Y022349D02*
X027106Y022402D01*
Y022507*
X027159Y022559*
X027369*
X027421Y022507*
Y022402*
X027369Y022349*
X027106Y022034D02*
Y022244D01*
X027264*
X027211Y022139*
Y022087*
X027264Y022034*
X027369*
X027421Y022087*
Y022192*
X027369Y022244*
Y021929D02*
X027421Y021877D01*
Y021772*
X027369Y021719*
X027159*
X027106Y021772*
Y021877*
X027159Y021929*
X027211*
X027264Y021877*
Y021719*
X027142Y021256D02*
X027195Y021309D01*
X0273*
X027352Y021256*
Y021047*
X0273Y020994*
X027195*
X027142Y021047*
X026828Y021309D02*
X026933Y021256D01*
X027037Y021152*
Y021047*
X026985Y020994*
X02688*
X026828Y021047*
Y021099*
X02688Y021152*
X027037*
X026723Y021256D02*
X02667Y021309D01*
X026565*
X026513Y021256*
Y021047*
X026565Y020994*
X02667*
X026723Y021047*
Y021256*
X026404Y025262D02*
X026457Y025315D01*
X026562*
X026614Y025262*
Y025052*
X026562Y025*
X026457*
X026404Y025052*
X026089Y025315D02*
X026194Y025262D01*
X026299Y025157*
Y025052*
X026247Y025*
X026142*
X026089Y025052*
Y025105*
X026142Y025157*
X026299*
X025984Y025D02*
X025879D01*
X025932*
Y025315*
X025984Y025262*
X019892Y018829D02*
Y019144D01*
X019787Y019039*
X019682Y019144*
Y018829*
X019577Y019091D02*
X019524Y019144D01*
X019419*
X019367Y019091*
Y019039*
X019419Y018986*
X019367Y018934*
Y018881*
X019419Y018829*
X019524*
X019577Y018881*
Y018934*
X019524Y018986*
X019577Y019039*
Y019091*
X019524Y018986D02*
X019419D01*
X023593Y023858D02*
Y024173D01*
X023488Y024068*
X023383Y024173*
Y023858*
X023278Y023911D02*
X023225Y023858D01*
X02312*
X023068Y023911*
Y024121*
X02312Y024173*
X023225*
X023278Y024121*
Y024068*
X023225Y024016*
X023068*
X028976Y024331D02*
X029199Y024553D01*
X029088Y024665*
X029013*
X028939Y02459*
Y024516*
X029051Y024405*
X028976Y024479D02*
X028828D01*
X028754Y024553D02*
X02868Y024628D01*
X028717Y02459*
X028939Y024813*
Y024739*
X028754Y024924D02*
Y024999D01*
X02868Y025073*
X028605*
X028568Y025036*
Y024962*
X028605Y024924*
X028568Y024962*
X028494*
X028457Y024924*
Y02485*
X028531Y024776*
X028605*
X018642Y018091D02*
Y018405D01*
X018484*
X018432Y018353*
Y018248*
X018484Y018196*
X018642*
X018537D02*
X018432Y018091D01*
X018117Y018405D02*
X018222Y018353D01*
X018327Y018248*
Y018143*
X018274Y018091*
X018169*
X018117Y018143*
Y018196*
X018169Y018248*
X018327*
X018012Y018353D02*
X01796Y018405D01*
X017855*
X017802Y018353*
Y018143*
X017855Y018091*
X01796*
X018012Y018143*
Y018353*
X018238Y016683D02*
Y016998D01*
X018081*
X018028Y016945*
Y01684*
X018081Y016788*
X018238*
X018133D02*
X018028Y016683D01*
X017713Y016998D02*
X017818Y016945D01*
X017923Y01684*
Y016736*
X017871Y016683*
X017766*
X017713Y016736*
Y016788*
X017766Y01684*
X017923*
X017608Y016683D02*
X017504D01*
X017556*
Y016998*
X017608Y016945*
X02312Y02503D02*
Y025344D01*
X022963*
X02291Y025292*
Y025187*
X022963Y025134*
X02312*
X023015D02*
X02291Y02503D01*
X022595Y025344D02*
X0227Y025292D01*
X022805Y025187*
Y025082*
X022753Y02503*
X022648*
X022595Y025082*
Y025134*
X022648Y025187*
X022805*
X022333Y02503D02*
Y025344D01*
X02249Y025187*
X02228*
X018465Y014724D02*
Y015039D01*
X018307*
X018255Y014987*
Y014882*
X018307Y014829*
X018465*
X01836D02*
X018255Y014724D01*
X01794Y015039D02*
X018045Y014987D01*
X01815Y014882*
Y014777*
X018097Y014724*
X017992*
X01794Y014777*
Y014829*
X017992Y014882*
X01815*
X017835Y015039D02*
X017625D01*
Y014987*
X017835Y014777*
Y014724*
X01811Y016083D02*
Y016398D01*
X017953*
X0179Y016345*
Y01624*
X017953Y016188*
X01811*
X018005D02*
X0179Y016083D01*
X017585Y016398D02*
X01769Y016345D01*
X017795Y01624*
Y016135*
X017743Y016083*
X017638*
X017585Y016135*
Y016188*
X017638Y01624*
X017795*
X017481Y016135D02*
X017428Y016083D01*
X017323*
X017271Y016135*
Y016345*
X017323Y016398*
X017428*
X017481Y016345*
Y016293*
X017428Y01624*
X017271*
X029587Y021742D02*
X029849D01*
X029902Y02169*
Y021585*
X029849Y021532*
X029587*
X029902Y021427D02*
Y021322D01*
Y021375*
X029587*
X029639Y021427*
X029587Y020955D02*
Y021165D01*
X029744*
X029692Y02106*
Y021007*
X029744Y020955*
X029849*
X029902Y021007*
Y021112*
X029849Y021165*
X014928Y009603D02*
X01498Y009655D01*
X015085*
X015138Y009603*
Y00955*
X015085Y009498*
X01498*
X014928Y009445*
Y009393*
X01498Y009341*
X015085*
X015138Y009393*
X014613Y009341D02*
X014823D01*
X014613Y00955*
Y009603*
X014666Y009655*
X01477*
X014823Y009603*
X019173Y019311D02*
Y019626D01*
X019016*
X018963Y019573*
Y019468*
X019016Y019416*
X019173*
X019068D02*
X018963Y019311D01*
X018701D02*
Y019626D01*
X018858Y019468*
X018648*
X018386Y019311D02*
Y019626D01*
X018544Y019468*
X018334*
X018038Y01418D02*
X018091Y014232D01*
X018196*
X018248Y01418*
Y01397*
X018196Y013917*
X018091*
X018038Y01397*
X017933Y014232D02*
X017723D01*
Y01418*
X017933Y01397*
Y013917*
X017618Y01418D02*
X017566Y014232D01*
X017461*
X017408Y01418*
Y01397*
X017461Y013917*
X017566*
X017618Y01397*
Y01418*
X021753Y00858D02*
Y008655D01*
X021827Y008729*
X021901*
X02205Y00858*
Y008506*
X021975Y008432*
X021901*
X021641Y008543D02*
X021493Y008395D01*
X02153Y008358*
X021827*
X021864Y008321*
X021641Y008098D02*
X021567Y008024D01*
X021604Y008061*
X021382Y008284*
X021456*
X021644Y010285D02*
Y0106D01*
X021486*
X021434Y010548*
Y010443*
X021486Y01039*
X021644*
X021539D02*
X021434Y010285D01*
X021329Y0106D02*
X021119D01*
Y010548*
X021329Y010338*
Y010285*
X021014Y010548D02*
X020962Y0106D01*
X020857*
X020804Y010548*
Y010495*
X020857Y010443*
X020909*
X020857*
X020804Y01039*
Y010338*
X020857Y010285*
X020962*
X021014Y010338*
X021706Y009347D02*
X021892Y009161D01*
Y009087*
X021818Y009013*
X021744*
X021558Y009198*
X021706Y008901D02*
X021632Y008827D01*
X021669Y008864*
X021447Y009087*
X021521*
X021484Y008753D02*
Y008679D01*
X02141Y008605*
X021335*
X021187Y008753*
Y008827*
X021261Y008901*
X021335*
X021373Y008864*
Y00879*
X021261Y008679*
X014879Y020955D02*
X014984D01*
X014931*
Y020692*
X014984Y02064*
X015036*
X015089Y020692*
X014564Y020955D02*
X014774D01*
Y020797*
X014669Y02085*
X014616*
X014564Y020797*
Y020692*
X014616Y02064*
X014721*
X014774Y020692*
X012746Y016762D02*
Y017077D01*
X012589*
X012536Y017024*
Y016919*
X012589Y016867*
X012746*
X012641D02*
X012536Y016762D01*
X012431Y017077D02*
X012221D01*
Y017024*
X012431Y016814*
Y016762*
X011906Y017077D02*
X012116D01*
Y016919*
X012011Y016972*
X011959*
X011906Y016919*
Y016814*
X011959Y016762*
X012064*
X012116Y016814*
X012126Y017402D02*
Y017716D01*
X011969*
X011916Y017664*
Y017559*
X011969Y017507*
X012126*
X012021D02*
X011916Y017402D01*
X011811Y017716D02*
X011601D01*
Y017664*
X011811Y017454*
Y017402*
X011496Y017716D02*
X011286D01*
Y017664*
X011496Y017454*
Y017402*
X014101Y009977D02*
X014154Y010029D01*
X014259*
X014311Y009977*
Y009924*
X014259Y009872*
X014154*
X014101Y00982*
Y009767*
X014154Y009715*
X014259*
X014311Y009767*
X013996Y009977D02*
X013944Y010029D01*
X013839*
X013786Y009977*
Y009924*
X013839Y009872*
X013891*
X013839*
X013786Y00982*
Y009767*
X013839Y009715*
X013944*
X013996Y009767*
X031634Y019774D02*
Y019511D01*
X031581Y019459*
X031476*
X031424Y019511*
Y019774*
X031319Y019459D02*
X031214D01*
X031267*
Y019774*
X031319Y019721*
X030847Y019774D02*
X030952Y019721D01*
X031057Y019616*
Y019511*
X031004Y019459*
X030899*
X030847Y019511*
Y019564*
X030899Y019616*
X031057*
X015118Y014521D02*
Y014783D01*
X014856Y014521*
X01479*
X014725Y014587*
Y014718*
X01479Y014783*
Y013878D02*
X014725Y013812D01*
Y013681*
X01479Y013616*
X014856*
X014921Y013681*
Y013747*
Y013681*
X014987Y013616*
X015053*
X015118Y013681*
Y013812*
X015053Y013878*
X017333Y019892D02*
Y020192D01*
X017233Y020092*
X017133Y020192*
Y019892*
X017033Y020192D02*
X016933D01*
X016983*
Y019892*
X017033*
X016933*
X016583Y020142D02*
X016633Y020192D01*
X016733*
X016783Y020142*
Y020092*
X016733Y020042*
X016633*
X016583Y019992*
Y019942*
X016633Y019892*
X016733*
X016783Y019942*
X016333Y020192D02*
X016433D01*
X016483Y020142*
Y019942*
X016433Y019892*
X016333*
X016283Y019942*
Y020142*
X016333Y020192*
X017274Y01939D02*
Y01969D01*
X017174Y01959*
X017074Y01969*
Y01939*
X016824Y01969D02*
X016924D01*
X016974Y01964*
Y01944*
X016924Y01939*
X016824*
X016774Y01944*
Y01964*
X016824Y01969*
X016474Y01964D02*
X016524Y01969D01*
X016624*
X016674Y01964*
Y01959*
X016624Y01954*
X016524*
X016474Y01949*
Y01944*
X016524Y01939*
X016624*
X016674Y01944*
X016374Y01969D02*
X016274D01*
X016324*
Y01939*
X016374*
X016274*
X016877Y019138D02*
X016927Y019188D01*
X017027*
X017077Y019138*
Y018938*
X017027Y018888*
X016927*
X016877Y018938*
X016777Y019188D02*
Y018888D01*
X016577*
X016477Y019188D02*
Y018888D01*
Y018988*
X016277Y019188*
X016427Y019038*
X016277Y018888*
X016572Y018616D02*
X016622Y018666D01*
X016722*
X016772Y018616*
Y018416*
X016722Y018366*
X016622*
X016572Y018416*
X016272Y018616D02*
X016322Y018666D01*
X016422*
X016472Y018616*
Y018566*
X016422Y018516*
X016322*
X016272Y018466*
Y018416*
X016322Y018366*
X016422*
X016472Y018416*
X013117Y018616D02*
X013167Y018666D01*
X013267*
X013317Y018616*
Y018416*
X013267Y018366*
X013167*
X013117Y018416*
X012817Y018616D02*
X012867Y018666D01*
X012967*
X013017Y018616*
Y018566*
X012967Y018516*
X012867*
X012817Y018466*
Y018416*
X012867Y018366*
X012967*
X013017Y018416*
X013117Y019138D02*
X013167Y019188D01*
X013267*
X013317Y019138*
Y018938*
X013267Y018888*
X013167*
X013117Y018938*
X013017Y019188D02*
Y018888D01*
X012817*
X012717Y019188D02*
Y018888D01*
Y018988*
X012517Y019188*
X012667Y019038*
X012517Y018888*
X013317Y01939D02*
Y01969D01*
X013217Y01959*
X013117Y01969*
Y01939*
X012867Y01969D02*
X012967D01*
X013017Y01964*
Y01944*
X012967Y01939*
X012867*
X012817Y01944*
Y01964*
X012867Y01969*
X012517Y01964D02*
X012567Y01969D01*
X012667*
X012717Y01964*
Y01959*
X012667Y01954*
X012567*
X012517Y01949*
Y01944*
X012567Y01939*
X012667*
X012717Y01944*
X012417Y01969D02*
X012317D01*
X012367*
Y01939*
X012417*
X012317*
X013317Y019892D02*
Y020192D01*
X013217Y020092*
X013117Y020192*
Y019892*
X013017Y020192D02*
X012917D01*
X012967*
Y019892*
X013017*
X012917*
X012567Y020142D02*
X012617Y020192D01*
X012717*
X012767Y020142*
Y020092*
X012717Y020042*
X012617*
X012567Y019992*
Y019942*
X012617Y019892*
X012717*
X012767Y019942*
X012317Y020192D02*
X012417D01*
X012467Y020142*
Y019942*
X012417Y019892*
X012317*
X012267Y019942*
Y020142*
X012317Y020192*
X013898Y020851D02*
Y020551D01*
X013748*
X013698Y020601*
Y020801*
X013748Y020851*
X013898*
X013598Y020551D02*
X013498D01*
X013548*
Y020751*
X013598*
X013348Y020551D02*
X013198D01*
X013148Y020601*
X013198Y020651*
X013298*
X013348Y020701*
X013298Y020751*
X013148*
X013048Y020451D02*
Y020751D01*
X012898*
X012848Y020701*
Y020601*
X012898Y020551*
X013048*
X012748D02*
X012648D01*
X012698*
Y020851*
X012748*
X012448Y020751D02*
X012348D01*
X012298Y020701*
Y020551*
X012448*
X012498Y020601*
X012448Y020651*
X012298*
X012198Y020751D02*
Y020601D01*
X012148Y020551*
X011998*
Y020501*
X012048Y020451*
X012098*
X011998Y020551D02*
Y020751D01*
X016808Y020713D02*
X016858Y020763D01*
X016958*
X017008Y020713*
Y020663*
X016958Y020613*
X016858*
X016808Y020563*
Y020513*
X016858Y020463*
X016958*
X017008Y020513*
X016708Y020763D02*
Y020463D01*
X016558*
X016508Y020513*
Y020713*
X016558Y020763*
X016708*
G54D174*
X010817Y021014D02*
X011309D01*
X010817D02*
Y021526D01*
X011309*
X014045Y016171D02*
X014537D01*
Y016683*
X014045D02*
X014537D01*
X014045Y015305D02*
X014537D01*
Y015817D02*
Y015305D01*
X014045Y015817D02*
X014537D01*
X014045Y014026D02*
X014537D01*
Y013514D02*
Y014026D01*
X014045Y013514D02*
X014537D01*
X014045Y014911D02*
X014537D01*
Y0144*
X014045D02*
X014537D01*
G54D175*
X012963Y014094D02*
X012653D01*
Y01394*
X012704Y013888*
X012808*
X012859Y01394*
Y014094*
Y013991D02*
X012963Y013888D01*
X012653Y013785D02*
Y013578D01*
X012704*
X012911Y013785*
X012963*
Y013475D02*
Y013371D01*
Y013423*
X012653*
X012704Y013475*
X012923Y014803D02*
Y015113D01*
X012768*
X012717Y015061*
Y014958*
X012768Y014906*
X012923*
X01282D02*
X012717Y014803D01*
X012613Y015113D02*
X012407D01*
Y015061*
X012613Y014855*
Y014803*
X012303Y015061D02*
X012252Y015113D01*
X012148*
X012097Y015061*
Y014855*
X012148Y014803*
X012252*
X012303Y014855*
Y015061*
X017165Y014852D02*
Y015162D01*
X017062Y015059*
X016959Y015162*
Y014852*
X016855D02*
X016752D01*
X016804*
Y015162*
X016855Y015111*
X016391Y014852D02*
X016597D01*
X016391Y015059*
Y015111*
X016442Y015162*
X016546*
X016597Y015111*
X024498Y010878D02*
X02455Y01093D01*
X024653*
X024705Y010878*
Y010672*
X024653Y01062*
X02455*
X024498Y010672*
X024188Y01093D02*
X024292Y010878D01*
X024395Y010775*
Y010672*
X024343Y01062*
X02424*
X024188Y010672*
Y010723*
X02424Y010775*
X024395*
X024085Y010672D02*
X024033Y01062D01*
X02393*
X023878Y010672*
Y010878*
X02393Y01093*
X024033*
X024085Y010878*
Y010827*
X024033Y010775*
X023878*
X023071Y008063D02*
X023123Y008115D01*
X023226*
X023278Y008063*
Y007857*
X023226Y007805*
X023123*
X023071Y007857*
X022968Y008115D02*
X022761D01*
Y008063*
X022968Y007857*
Y007805*
X022451D02*
X022658D01*
X022451Y008012*
Y008063*
X022503Y008115*
X022606*
X022658Y008063*
X024724Y009744D02*
Y010054D01*
X024569*
X024518Y010002*
Y009899*
X024569Y009847*
X024724*
X024621D02*
X024518Y009744D01*
X024415Y010054D02*
X024208D01*
Y010002*
X024415Y009796*
Y009744*
X023898D02*
X024105D01*
X023898Y009951*
Y010002*
X02395Y010054*
X024053*
X024105Y010002*
X024823Y008789D02*
Y009099D01*
X024668*
X024616Y009048*
Y008944*
X024668Y008893*
X024823*
X02472D02*
X024616Y008789D01*
X024513Y009099D02*
X024306D01*
Y009048*
X024513Y008841*
Y008789*
X024048D02*
Y009099D01*
X024203Y008944*
X023996*
X020834Y009235D02*
X020688Y009089D01*
X020761Y009162*
X02098Y008943*
X020834Y008797D02*
X020615Y009016D01*
X020505Y008906*
Y008833*
X020578Y00876*
X020651*
X020761Y00887*
X020615Y008577D02*
X020542Y008504D01*
X020578Y008541*
X020359Y00876*
X020432*
Y008395D02*
X020359Y008322D01*
X020396Y008358*
X020177Y008577*
X02025*
X014587Y021944D02*
X01469D01*
X014638*
Y021686*
X01469Y021634*
X014742*
X014793Y021686*
X014328Y021634D02*
Y021944D01*
X014483Y021789*
X014277*
G54D176*
X020404Y007736D02*
Y008136D01*
X020204*
X020137Y008069*
Y007936*
X020204Y00787*
X020404*
X02027D02*
X020137Y007736D01*
X019804D02*
X019937D01*
X020004Y007803*
Y007936*
X019937Y008003*
X019804*
X019737Y007936*
Y00787*
X020004*
X019604Y007736D02*
X019404D01*
X019337Y007803*
X019404Y00787*
X019537*
X019604Y007936*
X019537Y008003*
X019337*
X019004Y007736D02*
X019137D01*
X019204Y007803*
Y007936*
X019137Y008003*
X019004*
X018937Y007936*
Y00787*
X019204*
X018737Y008069D02*
Y008003D01*
X018804*
X018671*
X018737*
Y007803*
X018671Y007736*
X020147Y009615D02*
X020213Y009681D01*
X020347*
X020413Y009615*
Y009548*
X020347Y009481*
X020213*
X020147Y009415*
Y009348*
X020213Y009281*
X020347*
X020413Y009348*
X019947Y009615D02*
Y009548D01*
X020014*
X01988*
X019947*
Y009348*
X01988Y009281*
X019614Y009548D02*
X01948D01*
X019414Y009481*
Y009281*
X019614*
X01968Y009348*
X019614Y009415*
X019414*
X019214Y009615D02*
Y009548D01*
X01928*
X019147*
X019214*
Y009348*
X019147Y009281*
X018947D02*
X018747D01*
X018681Y009348*
X018747Y009415*
X018881*
X018947Y009481*
X018881Y009548*
X018681*
M02*