%FSTAX24Y24*%
%MOIN*%
%SFA1B1*%

%IPPOS*%
%ADD67C,0.050000*%
%ADD69C,0.039400*%
%ADD70C,0.086600*%
%ADD72C,0.065000*%
%ADD73C,0.025000*%
%LNee4951_bpm_reva-1*%
%LPD*%
G36*
X034582Y025916D02*
X034803D01*
Y025866*
X034853*
Y025645*
X034902Y025606*
Y024237*
X034853Y024197*
Y023976*
Y023755*
X034902Y023716*
Y022268*
X034853Y022229*
Y022008*
Y021787*
X034902Y021747*
Y0203*
X034853Y02026*
Y020039*
Y019818*
X034902Y019779*
Y018331*
X034853Y018292*
Y018071*
Y01785*
X034902Y01781*
Y016363*
X034853Y016323*
Y016102*
Y015881*
X034902Y015842*
Y014394*
X034853Y014355*
Y014134*
Y013913*
X034902Y013873*
Y012426*
X034853Y012386*
Y012165*
Y011944*
X034902Y011905*
Y010457*
X034853Y010418*
Y010197*
Y009976*
X034902Y009936*
Y008489*
X034853Y008449*
Y008228*
Y008007*
X034902Y007968*
Y00652*
X034853Y006481*
Y00626*
X034803*
Y00621*
X034582*
X034543Y006161*
X032977*
X032938Y00621*
X032495*
X032456Y006161*
X03089*
X030851Y00621*
X030409*
X03037Y006161*
X028804*
X028764Y00621*
X028322*
X028283Y006161*
X026717*
X026678Y00621*
X026236*
X026196Y006161*
X02463*
X024591Y00621*
X024149*
X02411Y006161*
X022544*
X022505Y00621*
X022062*
X022023Y006161*
X020772*
X020733Y00621*
X020291*
X020251Y006161*
X018804*
X018764Y00621*
X018322*
X018283Y006161*
X016717*
X016678Y00621*
X016236*
X016196Y006161*
X01463*
X014591Y00621*
X014149*
X01411Y006161*
X012544*
X012505Y00621*
X012062*
X012023Y006161*
X010457*
X010418Y00621*
X010197*
Y00626*
X010147*
Y006481*
X010098Y00652*
Y007889*
X010147Y007929*
Y00815*
Y008371*
X010098Y00841*
Y009858*
X010147Y009897*
Y010118*
Y010339*
X010098Y010379*
Y011826*
X010147Y011866*
Y012087*
Y012308*
X010098Y012347*
Y013795*
X010147Y013834*
Y014055*
Y014276*
X010098Y014316*
Y015763*
X010147Y015803*
Y016024*
Y016245*
X010098Y016284*
Y017732*
X010147Y017771*
Y017992*
Y018213*
X010098Y018253*
Y0197*
X010147Y01974*
Y019961*
Y020182*
X010098Y020221*
Y021669*
X010147Y021708*
Y021929*
Y02215*
X010098Y02219*
Y023637*
X010147Y023677*
Y023898*
Y024119*
X010098Y024158*
Y025606*
X010147Y025645*
Y025866*
X010197*
Y025916*
X010418*
X010457Y025965*
X011905*
X011944Y025916*
X012386*
X012426Y025965*
X013873*
X013913Y025916*
X014355*
X014394Y025965*
X034543*
X034582Y025916*
G37*
%LNee4951_bpm_reva-2*%
%LPC*%
G36*
X028881Y011298D02*
X028711D01*
Y011129*
X028749Y011136*
X028824Y011186*
X028873Y011261*
X028881Y011298*
G37*
G36*
X022529Y011391D02*
X022491Y011383D01*
X022417Y011333*
X022367Y011259*
X022359Y011221*
X022529*
Y011391*
G37*
G36*
X020946Y011282D02*
Y011113D01*
X021115*
X021108Y011151*
X021058Y011225*
X020983Y011275*
X020946Y011282*
G37*
G36*
X028198Y011298D02*
X028029D01*
X028036Y011261*
X028086Y011186*
X02816Y011136*
X028198Y011129*
Y011298*
G37*
G36*
X022629Y011391D02*
Y011221D01*
X022798*
X022791Y011259*
X022741Y011333*
X022667Y011383*
X022629Y011391*
G37*
G36*
X025039Y011862D02*
X024967Y011847D01*
X024906Y011807*
X024865Y011745*
X024851Y011673*
X024865Y011601*
X024906Y01154*
X024967Y011499*
X025039Y011485*
X025112Y011499*
X025173Y01154*
X025214Y011601*
X025228Y011673*
X025214Y011745*
X025173Y011807*
X025112Y011847*
X025039Y011862*
G37*
G36*
X017707Y011941D02*
X017635Y011926D01*
X017573Y011885*
X017532Y011824*
X017518Y011752*
X017532Y01168*
X017573Y011619*
X017635Y011578*
X017707Y011563*
X017779Y011578*
X01784Y011619*
X017881Y01168*
X017895Y011752*
X017881Y011824*
X01784Y011885*
X017779Y011926*
X017707Y011941*
G37*
G36*
X028198Y011568D02*
X02816Y01156D01*
X028086Y011511*
X028036Y011436*
X028029Y011398*
X028198*
Y011568*
G37*
G36*
X028881Y011712D02*
X028442D01*
X028449Y011674*
X028499Y0116*
X028528Y01158*
Y01153*
X028499Y011511*
X02848Y011481*
X02843*
X02841Y011511*
X028336Y01156*
X028298Y011568*
Y011348*
Y011129*
X028336Y011136*
X02841Y011186*
X02843Y011215*
X02848*
X028499Y011186*
X028574Y011136*
X028611Y011129*
Y011348*
X028661*
Y011398*
X028881*
X028873Y011436*
X028824Y011511*
X028794Y01153*
Y01158*
X028824Y0116*
X028873Y011674*
X028881Y011712*
G37*
G36*
X020846Y011013D02*
X020676D01*
X020684Y010975*
X020733Y010901*
X020808Y010851*
X020846Y010844*
Y011013*
G37*
G36*
X021115D02*
X020946D01*
Y010844*
X020983Y010851*
X021058Y010901*
X021108Y010975*
X021115Y011013*
G37*
G36*
X023798Y010997D02*
X023761Y01099D01*
X023686Y01094*
X023636Y010865*
X023629Y010828*
X023798*
Y010997*
G37*
G36*
X023898D02*
Y010828D01*
X024068*
X02406Y010865*
X024011Y01094*
X023936Y01099*
X023898Y010997*
G37*
G36*
X022529Y011121D02*
X022359D01*
X022367Y011083*
X022417Y011009*
X022491Y010959*
X022529Y010952*
Y011121*
G37*
G36*
X033248Y011439D02*
X033176Y011424D01*
X033115Y011383*
X033074Y011322*
X033059Y01125*
X033074Y011178*
X033115Y011117*
X033176Y011076*
X033248Y011061*
X03332Y011076*
X033381Y011117*
X033422Y011178*
X033437Y01125*
X033422Y011322*
X033381Y011383*
X03332Y011424*
X033248Y011439*
G37*
G36*
X020846Y011282D02*
X020808Y011275D01*
X020733Y011225*
X020684Y011151*
X020676Y011113*
X020846*
Y011282*
G37*
G36*
X022798Y011121D02*
X022629D01*
Y010952*
X022667Y010959*
X022741Y011009*
X022791Y011083*
X022798Y011121*
G37*
G36*
X025039Y01137D02*
X024967Y011355D01*
X024906Y011314*
X024865Y011253*
X024851Y011181*
X024865Y011109*
X024906Y011048*
X024967Y011007*
X025039Y010992*
X025112Y011007*
X025173Y011048*
X025214Y011109*
X025228Y011181*
X025214Y011253*
X025173Y011314*
X025112Y011355*
X025039Y01137*
G37*
G36*
X026476Y012233D02*
X026306D01*
X026314Y012196*
X026363Y012121*
X026438Y012072*
X026476Y012064*
Y012233*
G37*
G36*
X026745D02*
X026576D01*
Y012064*
X026613Y012072*
X026688Y012121*
X026738Y012196*
X026745Y012233*
G37*
G36*
X031289Y012374D02*
X031217Y012359D01*
X031156Y012318*
X031115Y012257*
X031101Y012185*
X031115Y012113*
X031156Y012052*
X031217Y012011*
X031289Y011996*
X031362Y012011*
X031423Y012052*
X031464Y012113*
X031478Y012185*
X031464Y012257*
X031423Y012318*
X031362Y012359*
X031289Y012374*
G37*
G36*
X014793Y012413D02*
X014721Y012399D01*
X01466Y012358*
X014619Y012297*
X014605Y012224*
X014619Y012152*
X01466Y012091*
X014721Y01205*
X014793Y012036*
X014865Y01205*
X014927Y012091*
X014968Y012152*
X014982Y012224*
X014968Y012297*
X014927Y012358*
X014865Y012399*
X014793Y012413*
G37*
G36*
X010856Y012267D02*
X010818Y012259D01*
X010743Y012209*
X010694Y012135*
X010686Y012097*
X010856*
Y012267*
G37*
G36*
X016194Y012283D02*
X016024D01*
Y012113*
X016062Y012121*
X016137Y01217*
X016186Y012245*
X016194Y012283*
G37*
G36*
X010247Y012306D02*
Y012137D01*
X010416*
X010409Y012174*
X010359Y012249*
X010285Y012299*
X010247Y012306*
G37*
G36*
X010956Y012267D02*
Y012097D01*
X011125*
X011117Y012135*
X011068Y012209*
X010993Y012259*
X010956Y012267*
G37*
G36*
X015924Y012283D02*
X015755D01*
X015762Y012245*
X015812Y01217*
X015887Y012121*
X015924Y012113*
Y012283*
G37*
G36*
X011125Y011997D02*
X010956D01*
Y011828*
X010993Y011835*
X011068Y011885*
X011117Y011959*
X011125Y011997*
G37*
G36*
X013399Y012411D02*
X013229D01*
Y012196*
X013234Y012191*
X013227Y012156*
X013241Y012083*
X013282Y012022*
X013343Y011981*
X013415Y011967*
X013488Y011981*
X013549Y012022*
X013572Y012056*
X013604Y01205*
X013622Y012041*
X013635Y011975*
X013676Y011914*
X013737Y011873*
X013809Y011859*
X013881Y011873*
X013942Y011914*
X013983Y011975*
X013998Y012047*
X013983Y012119*
X013942Y012181*
X013881Y012222*
X013809Y012236*
X013737Y012222*
X013676Y012181*
X013653Y012146*
X013621Y012152*
X013603Y012162*
X01359Y012228*
X013549Y012289*
X013488Y01233*
X01343Y012341*
X013422Y012348*
X013401Y012378*
X013395Y012391*
X013399Y012411*
G37*
G36*
X028881Y012125D02*
X028442D01*
X028449Y012087*
X028499Y012013*
X028528Y011993*
Y011944*
X028499Y011924*
X028449Y01185*
X028442Y011812*
X028881*
X028873Y01185*
X028824Y011924*
X028794Y011944*
Y011993*
X028824Y012013*
X028873Y012087*
X028881Y012125*
G37*
G36*
X010856Y011997D02*
X010686D01*
X010694Y011959*
X010743Y011885*
X010818Y011835*
X010856Y011828*
Y011997*
G37*
G36*
X010416Y012037D02*
X010247D01*
Y011867*
X010285Y011875*
X010359Y011924*
X010409Y011999*
X010416Y012037*
G37*
G36*
X015551Y012275D02*
X015479Y012261D01*
X015418Y01222*
X015377Y012159*
X015363Y012087*
X015377Y012014*
X015418Y011953*
X015479Y011912*
X015551Y011898*
X015623Y011912*
X015685Y011953*
X015725Y012014*
X01574Y012087*
X015725Y012159*
X015685Y01222*
X015623Y012261*
X015551Y012275*
G37*
G36*
X034753Y012115D02*
X034584D01*
X034591Y012078*
X034641Y012003*
X034715Y011953*
X034753Y011946*
Y012115*
G37*
G36*
X012499Y012037D02*
X01233D01*
X012337Y011999*
X012387Y011924*
X012461Y011875*
X012499Y011867*
Y012037*
G37*
G36*
X012769D02*
X012599D01*
Y011867*
X012637Y011875*
X012711Y011924*
X012761Y011999*
X012769Y012037*
G37*
G36*
X032757Y010967D02*
Y010798D01*
X032926*
X032919Y010836*
X032869Y01091*
X032794Y01096*
X032757Y010967*
G37*
G36*
X01937Y010878D02*
X019298Y010863D01*
X019237Y010822*
X019196Y010761*
X019181Y010689*
X019196Y010617*
X019237Y010556*
X019298Y010515*
X01937Y0105*
X019442Y010515*
X019503Y010556*
X019544Y010617*
X019559Y010689*
X019544Y010761*
X019503Y010822*
X019442Y010863*
X01937Y010878*
G37*
G36*
X025039D02*
X024967Y010863D01*
X024906Y010822*
X024865Y010761*
X024851Y010689*
X024865Y010617*
X024906Y010556*
X024967Y010515*
X025039Y0105*
X025112Y010515*
X025173Y010556*
X025214Y010617*
X025228Y010689*
X025214Y010761*
X025173Y010822*
X025112Y010863*
X025039Y010878*
G37*
G36*
X034104Y010897D02*
X034032Y010883D01*
X033971Y010842*
X03393Y010781*
X033916Y010709*
X03393Y010636*
X033971Y010575*
X034032Y010534*
X034048Y010531*
Y01053*
X034053Y010479*
X033991Y010438*
X033942Y010363*
X033934Y010326*
X034373*
X034365Y010363*
X034316Y010438*
X034241Y010488*
X034207Y010494*
X034196Y010548*
X034238Y010575*
X034279Y010636*
X034293Y010709*
X034279Y010781*
X034238Y010842*
X034177Y010883*
X034104Y010897*
G37*
G36*
X016142Y011055D02*
X01607Y01104D01*
X016008Y011*
X015967Y010938*
X015953Y010866*
X015967Y010794*
X016008Y010733*
X01607Y010692*
X016101Y010686*
Y010635*
X016054Y010625*
X01598Y010576*
X01593Y010501*
X015922Y010463*
X016361*
X016354Y010501*
X016304Y010576*
X01623Y010625*
X016183Y010635*
Y010686*
X016214Y010692*
X016275Y010733*
X016316Y010794*
X01633Y010866*
X016316Y010938*
X016275Y011*
X016214Y01104*
X016142Y011055*
G37*
G36*
X025531Y010878D02*
X025459Y010863D01*
X025398Y010822*
X025357Y010761*
X025343Y010689*
X025357Y010617*
X025398Y010556*
X025459Y010515*
X025531Y0105*
X025604Y010515*
X025665Y010556*
X025706Y010617*
X02572Y010689*
X025706Y010761*
X025665Y010822*
X025604Y010863*
X025531Y010878*
G37*
G36*
X030564Y010698D02*
X030394D01*
Y010529*
X030432Y010536*
X030507Y010586*
X030556Y01066*
X030564Y010698*
G37*
G36*
X030885D02*
X030716D01*
X030723Y01066*
X030773Y010586*
X030847Y010536*
X030885Y010529*
Y010698*
G37*
G36*
X026024Y010878D02*
X025951Y010863D01*
X02589Y010822*
X025849Y010761*
X025835Y010689*
X025849Y010617*
X02589Y010556*
X025951Y010515*
X026024Y0105*
X026096Y010515*
X026157Y010556*
X026198Y010617*
X026212Y010689*
X026198Y010761*
X026157Y010822*
X026096Y010863*
X026024Y010878*
G37*
G36*
X030294Y010698D02*
X030125D01*
X030133Y01066*
X030182Y010586*
X030257Y010536*
X030294Y010529*
Y010698*
G37*
G36*
X032166Y010338D02*
Y010168D01*
X032336*
X032328Y010206*
X032278Y01028*
X032204Y01033*
X032166Y010338*
G37*
G36*
X015433Y010553D02*
X015361Y010538D01*
X0153Y010498*
X015259Y010436*
X015244Y010364*
X015259Y010292*
X0153Y010231*
X015361Y01019*
X015433Y010176*
X015505Y01019*
X015566Y010231*
X015607Y010292*
X015622Y010364*
X015607Y010436*
X015566Y010498*
X015505Y010538*
X015433Y010553*
G37*
G36*
X030985Y010338D02*
Y010168D01*
X031154*
X031147Y010206*
X031097Y01028*
X031023Y01033*
X030985Y010338*
G37*
G36*
X032066D02*
X032028Y01033D01*
X031954Y01028*
X031904Y010206*
X031897Y010168*
X032066*
Y010338*
G37*
G36*
X016092Y010363D02*
X015922D01*
X01593Y010326*
X01598Y010251*
X016054Y010201*
X016092Y010194*
Y010363*
G37*
G36*
X01742Y010446D02*
X017383Y010438D01*
X017308Y010389*
X017259Y010314*
X017251Y010276*
X01742*
Y010446*
G37*
G36*
X01752D02*
Y010276D01*
X01769*
X017682Y010314*
X017633Y010389*
X017558Y010438*
X01752Y010446*
G37*
G36*
X016361Y010363D02*
X016192D01*
Y010194*
X01623Y010201*
X016304Y010251*
X016354Y010326*
X016361Y010363*
G37*
G36*
X034753Y010416D02*
X034715Y010409D01*
X034641Y010359*
X034591Y010285*
X034584Y010247*
X034753*
Y010416*
G37*
G36*
X030885Y010967D02*
X030847Y01096D01*
X030773Y01091*
X030723Y010836*
X030716Y010798*
X030885*
Y010967*
G37*
G36*
X030985D02*
Y010798D01*
X031154*
X031147Y010836*
X031097Y01091*
X031023Y01096*
X030985Y010967*
G37*
G36*
X030294D02*
X030257Y01096D01*
X030182Y01091*
X030133Y010836*
X030125Y010798*
X030294*
Y010967*
G37*
G36*
X030394D02*
Y010798D01*
X030564*
X030556Y010836*
X030507Y01091*
X030432Y01096*
X030394Y010967*
G37*
G36*
X031476D02*
X031438Y01096D01*
X031363Y01091*
X031314Y010836*
X031306Y010798*
X031476*
Y010967*
G37*
G36*
X032166D02*
Y010798D01*
X032336*
X032328Y010836*
X032278Y01091*
X032204Y01096*
X032166Y010967*
G37*
G36*
X032657D02*
X032619Y01096D01*
X032544Y01091*
X032495Y010836*
X032487Y010798*
X032657*
Y010967*
G37*
G36*
X031576D02*
Y010798D01*
X031745*
X031738Y010836*
X031688Y01091*
X031613Y01096*
X031576Y010967*
G37*
G36*
X032066D02*
X032028Y01096D01*
X031954Y01091*
X031904Y010836*
X031897Y010798*
X032066*
Y010967*
G37*
G36*
X031745Y010698D02*
X031576D01*
Y010529*
X031613Y010536*
X031688Y010586*
X031738Y01066*
X031745Y010698*
G37*
G36*
X032066D02*
X031897D01*
X031904Y01066*
X031954Y010586*
X032028Y010536*
X032066Y010529*
Y010698*
G37*
G36*
X031154D02*
X030985D01*
Y010529*
X031023Y010536*
X031097Y010586*
X031147Y01066*
X031154Y010698*
G37*
G36*
X031476D02*
X031306D01*
X031314Y01066*
X031363Y010586*
X031438Y010536*
X031476Y010529*
Y010698*
G37*
G36*
X032336D02*
X032166D01*
Y010529*
X032204Y010536*
X032278Y010586*
X032328Y01066*
X032336Y010698*
G37*
G36*
X023798Y010728D02*
X023629D01*
X023636Y01069*
X023686Y010615*
X023761Y010566*
X023798Y010558*
Y010728*
G37*
G36*
X024068D02*
X023898D01*
Y010558*
X023936Y010566*
X024011Y010615*
X02406Y01069*
X024068Y010728*
G37*
G36*
X032657Y010698D02*
X032487D01*
X032495Y01066*
X032544Y010586*
X032619Y010536*
X032657Y010529*
Y010698*
G37*
G36*
X032926D02*
X032757D01*
Y010529*
X032794Y010536*
X032869Y010586*
X032919Y01066*
X032926Y010698*
G37*
G36*
X03257Y013566D02*
Y013396D01*
X032739*
X032732Y013434*
X032682Y013509*
X032607Y013558*
X03257Y013566*
G37*
G36*
X019133Y01369D02*
X018964D01*
X018971Y013652*
X019021Y013578*
X019095Y013528*
X019133Y013521*
Y01369*
G37*
G36*
X021073Y01388D02*
X021001Y013865D01*
X020939Y013824*
X020899Y013763*
X020884Y013691*
X020899Y013619*
Y013618*
X020868Y013574*
X020788Y013558*
X020714Y013509*
X020664Y013434*
X020657Y013396*
X021095*
X021088Y013434*
X021074Y013455*
X021099Y013508*
X021145Y013517*
X021206Y013558*
X021247Y013619*
X021261Y013691*
X021247Y013763*
X021206Y013824*
X021145Y013865*
X021073Y01388*
G37*
G36*
X03247Y013566D02*
X032432Y013558D01*
X032357Y013509*
X032308Y013434*
X0323Y013396*
X03247*
Y013566*
G37*
G36*
X019403Y01369D02*
X019233D01*
Y013521*
X019271Y013528*
X019345Y013578*
X019395Y013652*
X019403Y01369*
G37*
G36*
X024409Y014047D02*
X024337Y014033D01*
X024276Y013992*
X024235Y01393*
X024221Y013858*
X024235Y013786*
X024276Y013725*
X024337Y013684*
X024409Y01367*
X024482Y013684*
X024543Y013725*
X024584Y013786*
X024598Y013858*
X024584Y01393*
X024543Y013992*
X024482Y014033*
X024409Y014047*
G37*
G36*
X023346Y013897D02*
X023176D01*
X023184Y013859*
X023233Y013785*
X023308Y013735*
X023346Y013727*
Y013897*
G37*
G36*
X017106Y013818D02*
X016936D01*
X016944Y01378*
X016993Y013706*
X017068Y013656*
X017106Y013649*
Y013818*
G37*
G36*
X017375D02*
X017206D01*
Y013649*
X017243Y013656*
X017318Y013706*
X017367Y01378*
X017375Y013818*
G37*
G36*
X03247Y013296D02*
X0323D01*
X032308Y013259*
X032357Y013184*
X032432Y013135*
X03247Y013127*
Y013296*
G37*
G36*
X032739D02*
X03257D01*
Y013127*
X032607Y013135*
X032682Y013184*
X032732Y013259*
X032739Y013296*
G37*
G36*
X020826D02*
X020657D01*
X020664Y013259*
X020714Y013184*
X020788Y013135*
X020826Y013127*
Y013296*
G37*
G36*
X021095D02*
X020926D01*
Y013127*
X020964Y013135*
X021038Y013184*
X021088Y013259*
X021095Y013296*
G37*
G36*
X028198Y013231D02*
X02816Y013224D01*
X028086Y013174*
X028066Y013145*
X028016*
X027997Y013174*
X027922Y013224*
X027885Y013231*
Y013012*
Y012792*
X027922Y0128*
X027997Y01285*
X028016Y012879*
X028066*
X028086Y01285*
X02816Y0128*
X028198Y012792*
Y013012*
Y013231*
G37*
G36*
X018593Y013683D02*
X01852Y013668D01*
X018459Y013627*
X018418Y013566*
X018404Y013494*
X018418Y013422*
X018459Y013361*
X01852Y01332*
X018593Y013305*
X018665Y01332*
X018726Y013361*
X018767Y013422*
X018781Y013494*
X018767Y013566*
X018726Y013627*
X018665Y013668*
X018593Y013683*
G37*
G36*
X016604Y013712D02*
X016532Y013698D01*
X016471Y013657*
X01643Y013596*
X016416Y013524*
X01643Y013451*
X016471Y01339*
X016532Y013349*
X016604Y013335*
X016677Y013349*
X016738Y01339*
X016779Y013451*
X016793Y013524*
X016779Y013596*
X016738Y013657*
X016677Y013698*
X016604Y013712*
G37*
G36*
X01063Y013525D02*
X010558Y013511D01*
X010497Y01347*
X010456Y013409*
X010441Y013337*
X010456Y013264*
X010497Y013203*
X010558Y013162*
X01063Y013148*
X010702Y013162*
X010763Y013203*
X010804Y013264*
X010819Y013337*
X010804Y013409*
X010763Y01347*
X010702Y013511*
X01063Y013525*
G37*
G36*
X026348Y013643D02*
X026276Y013629D01*
X026215Y013588*
X026174Y013527*
X02616Y013455*
X026174Y013383*
X026215Y013321*
X026276Y01328*
X026348Y013266*
X026421Y01328*
X026482Y013321*
X026523Y013383*
X026537Y013455*
X026523Y013527*
X026482Y013588*
X026421Y013629*
X026348Y013643*
G37*
G36*
X034753Y014353D02*
X034715Y014346D01*
X034641Y014296*
X034591Y014222*
X034584Y014184*
X034753*
Y014353*
G37*
G36*
X010501Y014511D02*
X010463Y014503D01*
X010389Y014454*
X010339Y014379*
X010324Y014301*
X010301Y014281*
X010275Y014269*
X010247Y014275*
Y014055*
Y013836*
X010285Y013843*
X010359Y013893*
X010409Y013967*
X010424Y014045*
X010447Y014065*
X010473Y014078*
X010501Y014072*
Y014291*
Y014511*
G37*
G36*
X013238Y014416D02*
X013166Y014402D01*
X013105Y014361*
X013064Y0143*
X01305Y014227*
X013064Y014155*
X013105Y014094*
X013166Y014053*
X013238Y014039*
X01331Y014053*
X013372Y014094*
X013412Y014155*
X013427Y014227*
X013412Y0143*
X013372Y014361*
X01331Y014402*
X013238Y014416*
G37*
G36*
X010771Y014241D02*
X010601D01*
Y014072*
X010639Y014079*
X010713Y014129*
X010763Y014204*
X010771Y014241*
G37*
G36*
X02063Y014667D02*
X020558Y014653D01*
X020497Y014612*
X020456Y014551*
X020441Y014478*
X020456Y014406*
X020497Y014345*
X020558Y014304*
X02063Y01429*
X020702Y014304*
X020763Y014345*
X020804Y014406*
X020819Y014478*
X020804Y014551*
X020763Y014612*
X020702Y014653*
X02063Y014667*
G37*
G36*
X010601Y014511D02*
Y014341D01*
X010771*
X010763Y014379*
X010713Y014454*
X010639Y014503*
X010601Y014511*
G37*
G36*
X016003Y014757D02*
X015965Y014749D01*
X015891Y0147*
X015841Y014625*
X015834Y014587*
X016003*
Y014757*
G37*
G36*
Y014487D02*
X015834D01*
X015841Y01445*
X015891Y014375*
X015965Y014325*
X016003Y014318*
Y014487*
G37*
G36*
X016273D02*
X016103D01*
Y014318*
X016141Y014325*
X016215Y014375*
X016265Y01445*
X016273Y014487*
G37*
G36*
X032224Y014204D02*
X032152Y01419D01*
X032091Y014149*
X03205Y014088*
X032036Y014016*
X03205Y013944*
X032091Y013882*
X032152Y013841*
X032224Y013827*
X032297Y013841*
X032358Y013882*
X032399Y013944*
X032413Y014016*
X032399Y014088*
X032358Y014149*
X032297Y01419*
X032224Y014204*
G37*
G36*
X029016Y014214D02*
X028944Y0142D01*
X028882Y014159*
X028841Y014098*
X028827Y014026*
X028841Y013953*
X028882Y013892*
X028944Y013851*
X029016Y013837*
X029088Y013851*
X029149Y013892*
X02919Y013953*
X029204Y014026*
X02919Y014098*
X029149Y014159*
X029088Y0142*
X029016Y014214*
G37*
G36*
X023615Y013897D02*
X023446D01*
Y013727*
X023483Y013735*
X023558Y013785*
X023608Y013859*
X023615Y013897*
G37*
G36*
X019134Y014352D02*
X019062Y014338D01*
X019Y014297*
X01896Y014236*
X018945Y014163*
X01896Y014091*
X019Y01403*
X019062Y013989*
X019071Y013936*
X019021Y013902*
X018971Y013828*
X018964Y01379*
X019403*
X019395Y013828*
X019345Y013902*
X019271Y013952*
X019248Y013957*
X019237Y01401*
X019267Y01403*
X019308Y014091*
X019322Y014163*
X019308Y014236*
X019267Y014297*
X019206Y014338*
X019134Y014352*
G37*
G36*
X034753Y014084D02*
X034584D01*
X034591Y014046*
X034641Y013972*
X034715Y013922*
X034753Y013914*
Y014084*
G37*
G36*
X023346Y014166D02*
X023308Y014159D01*
X023233Y014109*
X023184Y014035*
X023176Y013997*
X023346*
Y014166*
G37*
G36*
X023446D02*
Y013997D01*
X023615*
X023608Y014035*
X023558Y014109*
X023483Y014159*
X023446Y014166*
G37*
G36*
X017106Y014088D02*
X017068Y01408D01*
X016993Y01403*
X016944Y013956*
X016936Y013918*
X017106*
Y014088*
G37*
G36*
X017206D02*
Y013918D01*
X017375*
X017367Y013956*
X017318Y01403*
X017243Y01408*
X017206Y014088*
G37*
G36*
X027785Y013231D02*
X027747Y013224D01*
X027672Y013174*
X027623Y0131*
X027615Y013062*
X027785*
Y013231*
G37*
G36*
X026476Y012503D02*
X026438Y012495D01*
X026363Y012446*
X026314Y012371*
X026306Y012333*
X026476*
Y012503*
G37*
G36*
X026576D02*
Y012333D01*
X026745*
X026738Y012371*
X026688Y012446*
X026613Y012495*
X026576Y012503*
G37*
G36*
X034088Y012499D02*
X033918D01*
Y01233*
X033956Y012337*
X03403Y012387*
X03408Y012461*
X034088Y012499*
G37*
G36*
X019331Y012708D02*
X019259Y012694D01*
X019197Y012653*
X019156Y012592*
X019142Y01252*
X019156Y012448*
X019197Y012386*
X019259Y012345*
X019331Y012331*
X019403Y012345*
X019464Y012386*
X019505Y012448*
X019519Y01252*
X019505Y012592*
X019464Y012653*
X019403Y012694*
X019331Y012708*
G37*
G36*
X015924Y012552D02*
X015887Y012545D01*
X015812Y012495*
X015762Y01242*
X015755Y012383*
X015924*
Y012552*
G37*
G36*
X017233Y012641D02*
X017196Y012633D01*
X017121Y012583*
X017072Y012509*
X017064Y012471*
X017233*
Y012641*
G37*
G36*
X017333D02*
Y012471D01*
X017503*
X017495Y012509*
X017446Y012583*
X017371Y012633*
X017333Y012641*
G37*
G36*
X016024Y012552D02*
Y012383D01*
X016194*
X016186Y01242*
X016137Y012495*
X016062Y012545*
X016024Y012552*
G37*
G36*
X014488Y012817D02*
X014416Y012802D01*
X014355Y012761*
X014314Y0127*
X0143Y012628*
X014314Y012556*
X014355Y012495*
X014416Y012454*
X014488Y012439*
X01456Y012454*
X014622Y012495*
X014662Y012556*
X014677Y012628*
X014662Y0127*
X014622Y012761*
X01456Y012802*
X014488Y012817*
G37*
G36*
X017233Y012371D02*
X017064D01*
X017072Y012333*
X017121Y012259*
X017196Y012209*
X017233Y012202*
Y012371*
G37*
G36*
X017503D02*
X017333D01*
Y012202*
X017371Y012209*
X017446Y012259*
X017495Y012333*
X017503Y012371*
G37*
G36*
X01251Y012708D02*
X012438Y012694D01*
X012376Y012653*
X012336Y012592*
X012321Y01252*
X012336Y012448*
X012376Y012386*
X012438Y012345*
X012446Y012344*
X012449Y012334*
X012451Y012292*
X012387Y012249*
X012337Y012174*
X01233Y012137*
X012769*
X012761Y012174*
X012711Y012249*
X012637Y012299*
X01261Y012304*
X012599Y012357*
X012643Y012386*
X012684Y012448*
X012698Y01252*
X012684Y012592*
X012643Y012653*
X012582Y012694*
X01251Y012708*
G37*
G36*
X018691Y012561D02*
X018619Y012546D01*
X018558Y012505*
X018517Y012444*
X018502Y012372*
X018517Y0123*
X018558Y012239*
X018619Y012198*
X018691Y012183*
X018763Y012198*
X018824Y012239*
X018865Y0123*
X01888Y012372*
X018865Y012444*
X018824Y012505*
X018763Y012546*
X018691Y012561*
G37*
G36*
X034753Y012385D02*
X034715Y012377D01*
X034641Y012328*
X034591Y012253*
X034584Y012215*
X034753*
Y012385*
G37*
G36*
X033071Y012639D02*
X032999Y012625D01*
X032937Y012584*
X032897Y012523*
X032882Y012451*
X032897Y012379*
X032937Y012317*
X032999Y012277*
X033071Y012262*
X033143Y012277*
X033204Y012317*
X033245Y012379*
X033259Y012451*
X033245Y012523*
X033204Y012584*
X033143Y012625*
X033071Y012639*
G37*
G36*
X033818Y012499D02*
X033649D01*
X033656Y012461*
X033706Y012387*
X03378Y012337*
X033818Y01233*
Y012499*
G37*
G36*
X028881Y012519D02*
X028442D01*
X028449Y012481*
X028499Y012407*
X028514Y012397*
Y012347*
X028499Y012337*
X028449Y012263*
X028442Y012225*
X028881*
X028873Y012263*
X028824Y012337*
X028809Y012347*
Y012397*
X028824Y012407*
X028873Y012481*
X028881Y012519*
G37*
G36*
X013129Y012411D02*
X01296D01*
X012967Y012373*
X013017Y012298*
X013091Y012249*
X013129Y012241*
Y012411*
G37*
G36*
X019006Y013269D02*
X018934Y013255D01*
X018873Y013214*
X018832Y013153*
X018817Y013081*
X018832Y013009*
X018873Y012947*
X018934Y012906*
X019006Y012892*
X019078Y012906*
X019139Y012947*
X01918Y013009*
X019195Y013081*
X01918Y013153*
X019139Y013214*
X019078Y013255*
X019006Y013269*
G37*
G36*
X019449Y013309D02*
X019377Y013295D01*
X019316Y013254*
X019275Y013193*
X019261Y01312*
X019275Y013048*
X019316Y012987*
X019377Y012946*
X019449Y012932*
X019521Y012946*
X019583Y012987*
X019624Y013048*
X019638Y01312*
X019624Y013193*
X019583Y013254*
X019521Y013295*
X019449Y013309*
G37*
G36*
X027785Y012962D02*
X027615D01*
X027623Y012924*
X027672Y01285*
X027747Y0128*
X027785Y012792*
Y012962*
G37*
G36*
X030079Y013191D02*
X030007Y013176D01*
X029945Y013135*
X029904Y013074*
X02989Y013002*
X029904Y01293*
X029945Y012869*
X030007Y012828*
X030079Y012813*
X030151Y012828*
X030212Y012869*
X030253Y01293*
X030267Y013002*
X030253Y013074*
X030212Y013135*
X030151Y013176*
X030079Y013191*
G37*
G36*
X024823Y013364D02*
X024751Y013349D01*
X024689Y013309*
X024649Y013247*
X024634Y013175*
X024649Y013103*
X024689Y013042*
X024751Y013001*
X024823Y012987*
X024895Y013001*
X024956Y013042*
X024997Y013103*
X025011Y013175*
X024997Y013247*
X024956Y013309*
X024895Y013349*
X024823Y013364*
G37*
G36*
X016043Y013378D02*
X015971Y013363D01*
X01591Y013322*
X015869Y013261*
X015855Y013189*
X015869Y013117*
X01591Y013056*
X015971Y013015*
X016043Y013*
X016115Y013015*
X016177Y013056*
X016218Y013117*
X016232Y013189*
X016218Y013261*
X016177Y013322*
X016115Y013363*
X016043Y013378*
G37*
G36*
X028711Y013221D02*
Y013052D01*
X028881*
X028873Y01309*
X028824Y013164*
X028749Y013214*
X028711Y013221*
G37*
G36*
X014144Y013378D02*
X014072Y013363D01*
X01401Y013322*
X013969Y013261*
X013955Y013189*
X013969Y013117*
X01401Y013056*
X014072Y013015*
X014144Y013*
X014216Y013015*
X014277Y013056*
X014318Y013117*
X014332Y013189*
X014318Y013261*
X014277Y013322*
X014216Y013363*
X014144Y013378*
G37*
G36*
X015157D02*
X015085Y013363D01*
X015024Y013322*
X014983Y013261*
X014969Y013189*
X014983Y013117*
X015024Y013056*
X015085Y013015*
X015157Y013*
X01523Y013015*
X015291Y013056*
X015332Y013117*
X015346Y013189*
X015332Y013261*
X015291Y013322*
X01523Y013363*
X015157Y013378*
G37*
G36*
X033818Y012769D02*
X03378Y012761D01*
X033706Y012711*
X033656Y012637*
X033649Y012599*
X033818*
Y012769*
G37*
G36*
X033918D02*
Y012599D01*
X034088*
X03408Y012637*
X03403Y012711*
X033956Y012761*
X033918Y012769*
G37*
G36*
X013129Y01268D02*
X013091Y012673D01*
X013017Y012623*
X012967Y012548*
X01296Y012511*
X013129*
Y01268*
G37*
G36*
X013229D02*
Y012511D01*
X013399*
X013391Y012548*
X013341Y012623*
X013267Y012673*
X013229Y01268*
G37*
G36*
X028298Y013231D02*
Y013012D01*
Y012792*
X028336Y0128*
X02841Y01285*
X028426Y012874*
X028476*
X028499Y01284*
X028535Y012816*
Y012755*
X028499Y012731*
X028449Y012657*
X028442Y012619*
X028881*
X028873Y012657*
X028824Y012731*
X028787Y012755*
Y012816*
X028824Y01284*
X028873Y012914*
X028881Y012952*
X028661*
Y013002*
X028611*
Y013221*
X028574Y013214*
X028499Y013164*
X028483Y01314*
X028433*
X02841Y013174*
X028336Y013224*
X028298Y013231*
G37*
G36*
X032726Y013092D02*
X032654Y013078D01*
X032593Y013037*
X032552Y012976*
X032538Y012904*
X032552Y012831*
X032593Y01277*
X032654Y012729*
X032726Y012715*
X032799Y012729*
X03286Y01277*
X032901Y012831*
X032915Y012904*
X032901Y012976*
X03286Y013037*
X032799Y013078*
X032726Y013092*
G37*
G36*
X010906Y013141D02*
X010833Y013127D01*
X010772Y013086*
X010731Y013025*
X010717Y012953*
X010731Y012881*
X010772Y012819*
X010833Y012778*
X010906Y012764*
X010978Y012778*
X011039Y012819*
X01108Y012881*
X011094Y012953*
X01108Y013025*
X011039Y013086*
X010978Y013127*
X010906Y013141*
G37*
G36*
X02062Y013043D02*
X020548Y013029D01*
X020487Y012988*
X020446Y012927*
X020431Y012854*
X020446Y012782*
X020487Y012721*
X020548Y01268*
X02062Y012666*
X020692Y01268*
X020753Y012721*
X020794Y012782*
X020809Y012854*
X020794Y012927*
X020753Y012988*
X020692Y013029*
X02062Y013043*
G37*
G36*
X031713Y013053D02*
X03164Y013038D01*
X031579Y012998*
X031538Y012936*
X031524Y012864*
X031538Y012792*
X031579Y012731*
X03164Y01269*
X031713Y012676*
X031785Y01269*
X031846Y012731*
X031887Y012792*
X031901Y012864*
X031887Y012936*
X031846Y012998*
X031785Y013038*
X031713Y013053*
G37*
G36*
X030885Y010338D02*
X030847Y01033D01*
X030773Y01028*
X030723Y010206*
X030716Y010168*
X030885*
Y010338*
G37*
G36*
X028133Y007666D02*
X027963D01*
Y007496*
X028001Y007504*
X028076Y007554*
X028125Y007628*
X028133Y007666*
G37*
G36*
X032745Y007706D02*
X032576D01*
X032583Y007668*
X032633Y007594*
X032707Y007544*
X032745Y007536*
Y007706*
G37*
G36*
X020078Y007745D02*
Y007373D01*
X020449*
X020441Y007434*
X020399Y007537*
X020331Y007626*
X020242Y007694*
X020138Y007737*
X020078Y007745*
G37*
G36*
X027391Y007666D02*
X027221D01*
X027229Y007628*
X027279Y007554*
X027353Y007504*
X027391Y007496*
Y007666*
G37*
G36*
X033015Y007706D02*
X032845D01*
Y007536*
X032883Y007544*
X032957Y007594*
X033007Y007668*
X033015Y007706*
G37*
G36*
X031456Y007719D02*
X031418Y007712D01*
X031344Y007662*
X031294Y007588*
X031286Y00755*
X031456*
Y007719*
G37*
G36*
X031556D02*
Y00755D01*
X031725*
X031718Y007588*
X031668Y007662*
X031594Y007712*
X031556Y007719*
G37*
G36*
X025107D02*
X02507Y007712D01*
X024995Y007662*
X024946Y007588*
X024938Y00755*
X025107*
Y007719*
G37*
G36*
X025207D02*
Y00755D01*
X025377*
X025369Y007588*
X02532Y007662*
X025245Y007712*
X025207Y007719*
G37*
G36*
X015856Y007385D02*
X015818Y007377D01*
X015743Y007328*
X015694Y007253*
X015686Y007215*
X015856*
Y007385*
G37*
G36*
X015956D02*
Y007215D01*
X016125*
X016117Y007253*
X016068Y007328*
X015993Y007377*
X015956Y007385*
G37*
G36*
X02688Y007413D02*
X026808Y007399D01*
X026747Y007358*
X026706Y007297*
X026691Y007224*
X026706Y007152*
X026747Y007091*
X026808Y00705*
X02688Y007036*
X026952Y00705*
X027013Y007091*
X027054Y007152*
X027069Y007224*
X027054Y007297*
X027013Y007358*
X026952Y007399*
X02688Y007413*
G37*
G36*
X031239Y007267D02*
X031202Y007259D01*
X031127Y007209*
X031077Y007135*
X03107Y007097*
X031239*
Y007267*
G37*
G36*
X031456Y00745D02*
X031286D01*
X031294Y007412*
X031344Y007338*
X031379Y007314*
X031397Y007302*
X031377Y007259*
X031353Y007264*
X031339Y007267*
Y007097*
X031509*
X031501Y007135*
X031452Y007209*
X031417Y007233*
X031399Y007245*
X031418Y007288*
X031442Y007283*
X031456Y007281*
Y00745*
G37*
G36*
X031725D02*
X031556D01*
Y007281*
X031594Y007288*
X031668Y007338*
X031718Y007412*
X031725Y00745*
G37*
G36*
X019978Y007745D02*
X019917Y007737D01*
X019813Y007694*
X019725Y007626*
X019656Y007537*
X019614Y007434*
X019606Y007373*
X019978*
Y007745*
G37*
G36*
X025107Y00745D02*
X024938D01*
X024946Y007412*
X024995Y007338*
X02507Y007288*
X025107Y007281*
Y00745*
G37*
G36*
X025377D02*
X025207D01*
Y007281*
X025245Y007288*
X02532Y007338*
X025369Y007412*
X025377Y00745*
G37*
G36*
X027391Y008217D02*
X027221D01*
X027229Y008179*
X027279Y008105*
X027353Y008055*
X027391Y008048*
Y008217*
G37*
G36*
X028133D02*
X027963D01*
Y008048*
X028001Y008055*
X028076Y008105*
X028125Y008179*
X028133Y008217*
G37*
G36*
X012441Y008319D02*
X012369Y008304D01*
X012308Y008263*
X012267Y008202*
X012252Y00813*
X012267Y008058*
X012308Y007997*
X012369Y007956*
X012441Y007941*
X012513Y007956*
X012574Y007997*
X012615Y008058*
X01263Y00813*
X012615Y008202*
X012574Y008263*
X012513Y008304*
X012441Y008319*
G37*
G36*
X034753Y008178D02*
X034584D01*
X034591Y008141*
X034641Y008066*
X034715Y008016*
X034753Y008009*
Y008178*
G37*
G36*
X029385Y008481D02*
X029313Y008467D01*
X029252Y008426*
X029211Y008365*
X029197Y008293*
X029211Y00822*
X029252Y008159*
X029313Y008118*
X029385Y008104*
X029457Y008118*
X029519Y008159*
X029559Y00822*
X029574Y008293*
X029559Y008365*
X029519Y008426*
X029457Y008467*
X029385Y008481*
G37*
G36*
X010247Y008369D02*
Y0082D01*
X010416*
X010409Y008237*
X010359Y008312*
X010285Y008362*
X010247Y008369*
G37*
G36*
X034753Y008448D02*
X034715Y00844D01*
X034641Y008391*
X034591Y008316*
X034584Y008278*
X034753*
Y008448*
G37*
G36*
X014311Y008889D02*
X014239Y008875D01*
X014178Y008834*
X014137Y008773*
X014122Y008701*
X014137Y008629*
X014178Y008567*
X014239Y008527*
X014311Y008512*
X014356Y008521*
X014376Y008474*
X014355Y00846*
X014314Y008399*
X0143Y008327*
X014314Y008255*
X014355Y008193*
X014416Y008153*
X014488Y008138*
X01456Y008153*
X014622Y008193*
X014662Y008255*
X014677Y008327*
X014662Y008399*
X014622Y00846*
X01456Y008501*
X014488Y008515*
X014443Y008506*
X014424Y008554*
X014444Y008567*
X014485Y008629*
X0145Y008701*
X014485Y008773*
X014444Y008834*
X014383Y008875*
X014311Y008889*
G37*
G36*
X033504Y008574D02*
X033432Y00856D01*
X033371Y008519*
X03333Y008458*
X033315Y008386*
X03333Y008314*
X033371Y008252*
X033432Y008212*
X033504Y008197*
X033576Y008212*
X033637Y008252*
X033678Y008314*
X033693Y008386*
X033678Y008458*
X033637Y008519*
X033576Y00856*
X033504Y008574*
G37*
G36*
X027391Y007935D02*
X027353Y007928D01*
X027279Y007878*
X027229Y007804*
X027221Y007766*
X027391*
Y007935*
G37*
G36*
X027963D02*
Y007766D01*
X028133*
X028125Y007804*
X028076Y007878*
X028001Y007928*
X027963Y007935*
G37*
G36*
X014642Y007694D02*
X014575Y007685D01*
X014512Y007659*
X014459Y007618*
X014419Y007567*
X014392Y007563*
X014391*
X014364Y007567*
X014325Y007618*
X014271Y007659*
X014209Y007685*
X014142Y007694*
X014075Y007685*
X014012Y007659*
X013959Y007618*
X013919Y007567*
X013892Y007563*
X013891*
X013864Y007567*
X013825Y007618*
X013771Y007659*
X013709Y007685*
X013642Y007694*
X013575Y007685*
X013512Y007659*
X013459Y007618*
X013419Y007567*
X013392Y007563*
X013391*
X013364Y007567*
X013325Y007618*
X013271Y007659*
X013209Y007685*
X013142Y007694*
X013075Y007685*
X013012Y007659*
X012959Y007618*
X012919Y007567*
X012892Y007563*
X012891*
X012864Y007567*
X012825Y007618*
X012771Y007659*
X012709Y007685*
X012642Y007694*
X012575Y007685*
X012512Y007659*
X012459Y007618*
X012417Y007565*
X012391Y007502*
X012383Y007435*
X012391Y007368*
X012417Y007306*
X012459Y007252*
X01251Y007213*
X012514Y007186*
Y007185*
X01251Y007158*
X012459Y007118*
X012417Y007065*
X012391Y007002*
X012383Y006935*
X012391Y006868*
X012417Y006806*
X012459Y006752*
X012512Y006711*
X012575Y006685*
X012642Y006676*
X012709Y006685*
X012771Y006711*
X012825Y006752*
X012864Y006803*
X012891Y006807*
X012892*
X012919Y006803*
X012959Y006752*
X013012Y006711*
X013075Y006685*
X013142Y006676*
X013209Y006685*
X013271Y006711*
X013325Y006752*
X013336Y006766*
X013344Y006769*
X013398Y006765*
X01343Y006723*
X013492Y006676*
X013564Y006646*
X013592Y006642*
Y006935*
X013692*
Y006642*
X013719Y006646*
X013791Y006676*
X013853Y006723*
X013867Y006741*
X013917*
X01393Y006723*
X013992Y006676*
X014064Y006646*
X014092Y006642*
Y006935*
X014192*
Y006642*
X014219Y006646*
X014291Y006676*
X014353Y006723*
X014385Y006765*
X01444Y006769*
X014447Y006766*
X014459Y006752*
X014512Y006711*
X014575Y006685*
X014642Y006676*
X014709Y006685*
X014771Y006711*
X014825Y006752*
X014866Y006806*
X014892Y006868*
X014901Y006935*
X014892Y007002*
X014866Y007065*
X014825Y007118*
X014774Y007158*
X01477Y007185*
Y007186*
X014774Y007213*
X014825Y007252*
X014866Y007306*
X014892Y007368*
X014901Y007435*
X014892Y007502*
X014866Y007565*
X014825Y007618*
X014771Y007659*
X014709Y007685*
X014642Y007694*
G37*
G36*
X01185Y007994D02*
X011778Y007979D01*
X011717Y007939*
X011676Y007877*
X011662Y007805*
X011676Y007733*
X011717Y007672*
X011778Y007631*
X01185Y007616*
X011923Y007631*
X011984Y007672*
X012025Y007733*
X012039Y007805*
X012025Y007877*
X011984Y007939*
X011923Y007979*
X01185Y007994*
G37*
G36*
X027863Y007935D02*
X027826Y007928D01*
X027751Y007878*
X027703Y007807*
X027682Y007804*
X027673*
X027651Y007807*
X027603Y007878*
X027529Y007928*
X027491Y007935*
Y007716*
Y007496*
X027529Y007504*
X027603Y007554*
X027651Y007625*
X027673Y007628*
X027682*
X027703Y007625*
X027751Y007554*
X027826Y007504*
X027863Y007496*
Y007716*
Y007935*
G37*
G36*
X018691Y00824D02*
X018619Y008225D01*
X018558Y008185*
X018517Y008123*
X018502Y008051*
X018517Y007979*
X018558Y007918*
X018619Y007877*
X018691Y007863*
X018763Y007877*
X018824Y007918*
X018865Y007979*
X01888Y008051*
X018865Y008123*
X018824Y008185*
X018763Y008225*
X018691Y00824*
G37*
G36*
X010416Y0081D02*
X010247D01*
Y00793*
X010285Y007938*
X010359Y007987*
X010409Y008062*
X010416Y0081*
G37*
G36*
X032745Y007975D02*
X032707Y007968D01*
X032633Y007918*
X032583Y007844*
X032576Y007806*
X032745*
Y007975*
G37*
G36*
X032845D02*
Y007806D01*
X033015*
X033007Y007844*
X032957Y007918*
X032883Y007968*
X032845Y007975*
G37*
G36*
X016125Y007115D02*
X015956D01*
Y006946*
X015993Y006953*
X016068Y007003*
X016117Y007078*
X016125Y007115*
G37*
G36*
X022233Y006479D02*
X022196Y006472D01*
X022121Y006422*
X022072Y006348*
X022064Y00631*
X022233*
Y006479*
G37*
G36*
X022333D02*
Y00631D01*
X022503*
X022495Y006348*
X022446Y006422*
X022371Y006472*
X022333Y006479*
G37*
G36*
X020462D02*
X020424Y006472D01*
X02035Y006422*
X0203Y006348*
X020292Y00631*
X020462*
Y006479*
G37*
G36*
X020562D02*
Y00631D01*
X020731*
X020724Y006348*
X020674Y006422*
X0206Y006472*
X020562Y006479*
G37*
G36*
X02432D02*
X024282Y006472D01*
X024208Y006422*
X024158Y006348*
X024151Y00631*
X02432*
Y006479*
G37*
G36*
X026507D02*
Y00631D01*
X026676*
X026669Y006348*
X026619Y006422*
X026544Y006472*
X026507Y006479*
G37*
G36*
X028493D02*
X028456Y006472D01*
X028381Y006422*
X028331Y006348*
X028324Y00631*
X028493*
Y006479*
G37*
G36*
X02442D02*
Y00631D01*
X02459*
X024582Y006348*
X024532Y006422*
X024458Y006472*
X02442Y006479*
G37*
G36*
X026407D02*
X026369Y006472D01*
X026294Y006422*
X026245Y006348*
X026237Y00631*
X026407*
Y006479*
G37*
G36*
X012333D02*
Y00631D01*
X012503*
X012495Y006348*
X012446Y006422*
X012371Y006472*
X012333Y006479*
G37*
G36*
X01432D02*
X014282Y006472D01*
X014208Y006422*
X014158Y006348*
X014151Y00631*
X01432*
Y006479*
G37*
G36*
X010247D02*
Y00631D01*
X010416*
X010409Y006348*
X010359Y006422*
X010285Y006472*
X010247Y006479*
G37*
G36*
X012233D02*
X012196Y006472D01*
X012121Y006422*
X012072Y006348*
X012064Y00631*
X012233*
Y006479*
G37*
G36*
X01442D02*
Y00631D01*
X01459*
X014582Y006348*
X014532Y006422*
X014458Y006472*
X01442Y006479*
G37*
G36*
X018493D02*
X018456Y006472D01*
X018381Y006422*
X018331Y006348*
X018324Y00631*
X018493*
Y006479*
G37*
G36*
X018593D02*
Y00631D01*
X018763*
X018755Y006348*
X018706Y006422*
X018631Y006472*
X018593Y006479*
G37*
G36*
X016407D02*
X016369Y006472D01*
X016294Y006422*
X016245Y006348*
X016237Y00631*
X016407*
Y006479*
G37*
G36*
X016507D02*
Y00631D01*
X016676*
X016669Y006348*
X016619Y006422*
X016544Y006472*
X016507Y006479*
G37*
G36*
X031239Y006997D02*
X03107D01*
X031077Y006959*
X031127Y006885*
X031202Y006835*
X031239Y006828*
Y006997*
G37*
G36*
X031509D02*
X031339D01*
Y006828*
X031377Y006835*
X031452Y006885*
X031501Y006959*
X031509Y006997*
G37*
G36*
X033661Y007848D02*
X033515Y007829D01*
X033379Y007773*
X033262Y007683*
X033172Y007566*
X033116Y00743*
X033097Y007283*
X033116Y007137*
X033172Y007001*
X033262Y006884*
X033379Y006794*
X033515Y006738*
X033661Y006719*
X033808Y006738*
X033944Y006794*
X034061Y006884*
X034151Y007001*
X034207Y007137*
X034226Y007283*
X034207Y00743*
X034151Y007566*
X034061Y007683*
X033944Y007773*
X033808Y007829*
X033661Y007848*
G37*
G36*
X024488Y007108D02*
X024416Y007094D01*
X024355Y007053*
X024314Y006991*
X0243Y006919*
X024314Y006847*
X024355Y006786*
X024416Y006745*
X024488Y006731*
X02456Y006745*
X024622Y006786*
X024662Y006847*
X024677Y006919*
X024662Y006991*
X024622Y007053*
X02456Y007094*
X024488Y007108*
G37*
G36*
X019978Y007273D02*
X019606D01*
X019614Y007212*
X019656Y007109*
X019725Y00702*
X019813Y006952*
X019917Y006909*
X019978Y006901*
Y007273*
G37*
G36*
X030226Y007315D02*
X030154Y0073D01*
X030093Y007259*
X030052Y007198*
X030038Y007126*
X030052Y007054*
X030093Y006993*
X030154Y006952*
X030226Y006937*
X030299Y006952*
X03036Y006993*
X030401Y007054*
X030415Y007126*
X030401Y007198*
X03036Y007259*
X030299Y0073*
X030226Y007315*
G37*
G36*
X015856Y007115D02*
X015686D01*
X015694Y007078*
X015743Y007003*
X015818Y006953*
X015856Y006946*
Y007115*
G37*
G36*
X020449Y007273D02*
X020078D01*
Y006901*
X020138Y006909*
X020242Y006952*
X020331Y00702*
X020399Y007109*
X020441Y007212*
X020449Y007273*
G37*
G36*
X019028Y007711D02*
X018927Y007698D01*
X018834Y007659*
X018753Y007597*
X018691Y007517*
X018653Y007423*
X018639Y007323*
X018653Y007222*
X018691Y007129*
X018753Y007048*
X018834Y006987*
X018927Y006948*
X019028Y006935*
X019128Y006948*
X019222Y006987*
X019302Y007048*
X019364Y007129*
X019402Y007222*
X019416Y007323*
X019402Y007423*
X019364Y007517*
X019302Y007597*
X019222Y007659*
X019128Y007698*
X019028Y007711*
G37*
G36*
X03068Y006479D02*
Y00631D01*
X030849*
X030842Y006348*
X030792Y006422*
X030718Y006472*
X03068Y006479*
G37*
G36*
X032667D02*
X032629Y006472D01*
X032554Y006422*
X032505Y006348*
X032497Y00631*
X032667*
Y006479*
G37*
G36*
X028593D02*
Y00631D01*
X028763*
X028755Y006348*
X028706Y006422*
X028631Y006472*
X028593Y006479*
G37*
G36*
X03058D02*
X030542Y006472D01*
X030468Y006422*
X030418Y006348*
X03041Y00631*
X03058*
Y006479*
G37*
G36*
X032767D02*
Y00631D01*
X032936*
X032928Y006348*
X032879Y006422*
X032804Y006472*
X032767Y006479*
G37*
G36*
X010984Y007681D02*
X010861Y007669D01*
X010742Y007633*
X010632Y007574*
X010536Y007495*
X010457Y007399*
X010399Y00729*
X010363Y007171*
X01035Y007047*
X010363Y006924*
X010399Y006805*
X010457Y006695*
X010536Y006599*
X010632Y00652*
X010742Y006462*
X010861Y006426*
X010984Y006413*
X011108Y006426*
X011227Y006462*
X011336Y00652*
X011432Y006599*
X011511Y006695*
X01157Y006805*
X011606Y006924*
X011618Y007047*
X011606Y007171*
X01157Y00729*
X011511Y007399*
X011432Y007495*
X011336Y007574*
X011227Y007633*
X011108Y007669*
X010984Y007681*
G37*
G36*
X022244Y007848D02*
X022098Y007829D01*
X021962Y007773*
X021845Y007683*
X021755Y007566*
X021699Y00743*
X021679Y007283*
X021699Y007137*
X021755Y007001*
X021845Y006884*
X021962Y006794*
X022098Y006738*
X022244Y006719*
X02239Y006738*
X022527Y006794*
X022643Y006884*
X022733Y007001*
X02279Y007137*
X022809Y007283*
X02279Y00743*
X022733Y007566*
X022643Y007683*
X022527Y007773*
X02239Y007829*
X022244Y007848*
G37*
G36*
X034753Y006479D02*
X034715Y006472D01*
X034641Y006422*
X034591Y006348*
X034584Y00631*
X034753*
Y006479*
G37*
G36*
X023986Y006773D02*
X023914Y006759D01*
X023853Y006718*
X023812Y006657*
X023798Y006585*
X023812Y006512*
X023853Y006451*
X023914Y00641*
X023986Y006396*
X024058Y00641*
X02412Y006451*
X02416Y006512*
X024175Y006585*
X02416Y006657*
X02412Y006718*
X024058Y006759*
X023986Y006773*
G37*
G36*
X031476Y010068D02*
X031306D01*
X031314Y01003*
X031363Y009956*
X031438Y009906*
X031476Y009899*
Y010068*
G37*
G36*
X031745D02*
X031576D01*
Y009899*
X031613Y009906*
X031688Y009956*
X031738Y01003*
X031745Y010068*
G37*
G36*
X030294D02*
X030125D01*
X030133Y01003*
X030182Y009956*
X030257Y009906*
X030294Y009899*
Y010068*
G37*
G36*
X030564D02*
X030394D01*
Y009899*
X030432Y009906*
X030507Y009956*
X030556Y01003*
X030564Y010068*
G37*
G36*
X032657D02*
X032487D01*
X032495Y01003*
X032544Y009956*
X032619Y009906*
X032657Y009899*
Y010068*
G37*
G36*
X030885D02*
X030716D01*
X030723Y01003*
X030773Y009956*
X030847Y009906*
X030885Y009899*
Y010068*
G37*
G36*
X031154D02*
X030985D01*
Y009899*
X031023Y009906*
X031097Y009956*
X031147Y01003*
X031154Y010068*
G37*
G36*
X032926D02*
X032757D01*
Y009899*
X032794Y009906*
X032869Y009956*
X032919Y01003*
X032926Y010068*
G37*
G36*
X010416D02*
X010247D01*
Y009899*
X010285Y009906*
X010359Y009956*
X010409Y01003*
X010416Y010068*
G37*
G36*
X01188Y009726D02*
X011808Y009712D01*
X011747Y009671*
X011706Y00961*
X011691Y009537*
X011706Y009465*
X011747Y009404*
X011808Y009363*
X01188Y009349*
X011952Y009363*
X012013Y009404*
X012054Y009465*
X012069Y009537*
X012054Y00961*
X012013Y009671*
X011952Y009712*
X01188Y009726*
G37*
G36*
X010915Y009746D02*
X010843Y009731D01*
X010782Y00969*
X010741Y009629*
X010727Y009557*
X010741Y009485*
X010782Y009424*
X010843Y009383*
X010915Y009368*
X010988Y009383*
X011049Y009424*
X01109Y009485*
X011104Y009557*
X01109Y009629*
X011049Y00969*
X010988Y009731*
X010915Y009746*
G37*
G36*
X020521Y009517D02*
X020351D01*
X020359Y009479*
X020409Y009405*
X020483Y009355*
X020521Y009347*
Y009517*
G37*
G36*
X02079D02*
X020621D01*
Y009347*
X020659Y009355*
X020733Y009405*
X020783Y009479*
X02079Y009517*
G37*
G36*
X027963Y009589D02*
Y009419D01*
X028133*
X028125Y009457*
X028076Y009532*
X028001Y009581*
X027963Y009589*
G37*
G36*
X020621Y009786D02*
Y009617D01*
X02079*
X020783Y009655*
X020733Y009729*
X020659Y009779*
X020621Y009786*
G37*
G36*
X011919Y010258D02*
X011847Y010243D01*
X011786Y010202*
X011745Y010141*
X011731Y010069*
X011745Y009997*
X011786Y009936*
X011847Y009895*
X011919Y00988*
X011991Y009895*
X012053Y009936*
X012094Y009997*
X012108Y010069*
X012094Y010141*
X012053Y010202*
X011991Y010243*
X011919Y010258*
G37*
G36*
X027391Y009589D02*
X027353Y009581D01*
X027279Y009532*
X027229Y009457*
X027221Y009419*
X027391*
Y009589*
G37*
G36*
X020521Y009786D02*
X020483Y009779D01*
X020409Y009729*
X020359Y009655*
X020351Y009617*
X020521*
Y009786*
G37*
G36*
X030294Y010338D02*
X030257Y01033D01*
X030182Y01028*
X030133Y010206*
X030125Y010168*
X030294*
Y010338*
G37*
G36*
X030394D02*
Y010168D01*
X030564*
X030556Y010206*
X030507Y01028*
X030432Y01033*
X030394Y010338*
G37*
G36*
X034373Y010226D02*
X034204D01*
Y010056*
X034241Y010064*
X034316Y010113*
X034365Y010188*
X034373Y010226*
G37*
G36*
X028819Y010484D02*
X028747Y01047D01*
X028686Y010429*
X028645Y010367*
X02863Y010295*
X028645Y010223*
X028686Y010162*
X028747Y010121*
X028819Y010107*
X028891Y010121*
X028952Y010162*
X028993Y010223*
X029008Y010295*
X028993Y010367*
X028952Y010429*
X028891Y01047*
X028819Y010484*
G37*
G36*
X031476Y010338D02*
X031438Y01033D01*
X031363Y01028*
X031314Y010206*
X031306Y010168*
X031476*
Y010338*
G37*
G36*
X032757D02*
Y010168D01*
X032926*
X032919Y010206*
X032869Y01028*
X032794Y01033*
X032757Y010338*
G37*
G36*
X010247D02*
Y010168D01*
X010416*
X010409Y010206*
X010359Y01028*
X010285Y01033*
X010247Y010338*
G37*
G36*
X031576D02*
Y010168D01*
X031745*
X031738Y010206*
X031688Y01028*
X031613Y01033*
X031576Y010338*
G37*
G36*
X032657D02*
X032619Y01033D01*
X032544Y01028*
X032495Y010206*
X032487Y010168*
X032657*
Y010338*
G37*
G36*
X023858Y010336D02*
X023786Y010322D01*
X023725Y010281*
X023684Y01022*
X02367Y010148*
X023684Y010075*
X023725Y010014*
X023786Y009973*
X023858Y009959*
X02393Y009973*
X023992Y010014*
X024033Y010075*
X024047Y010148*
X024033Y01022*
X023992Y010281*
X02393Y010322*
X023858Y010336*
G37*
G36*
X034753Y010147D02*
X034584D01*
X034591Y010109*
X034641Y010035*
X034715Y009985*
X034753Y009977*
Y010147*
G37*
G36*
X032066Y010068D02*
X031897D01*
X031904Y01003*
X031954Y009956*
X032028Y009906*
X032066Y009899*
Y010068*
G37*
G36*
X032336D02*
X032166D01*
Y009899*
X032204Y009906*
X032278Y009956*
X032328Y01003*
X032336Y010068*
G37*
G36*
X01742Y010176D02*
X017251D01*
X017259Y010139*
X017308Y010064*
X017383Y010014*
X01742Y010007*
Y010176*
G37*
G36*
X016821Y010415D02*
X016749Y010401D01*
X016687Y01036*
X016647Y010299*
X016632Y010226*
X016647Y010154*
X016687Y010093*
X016749Y010052*
X016821Y010038*
X016893Y010052*
X016954Y010093*
X016995Y010154*
X017009Y010226*
X016995Y010299*
X016954Y01036*
X016893Y010401*
X016821Y010415*
G37*
G36*
X034104Y010226D02*
X033934D01*
X033942Y010188*
X033991Y010113*
X034066Y010064*
X034104Y010056*
Y010226*
G37*
G36*
X01769Y010176D02*
X01752D01*
Y010007*
X017558Y010014*
X017633Y010064*
X017682Y010139*
X01769Y010176*
G37*
G36*
X019734Y010385D02*
X019662Y010371D01*
X019601Y01033*
X01956Y010269*
X019546Y010197*
X01956Y010125*
X019601Y010063*
X019662Y010023*
X019734Y010008*
X019806Y010023*
X019868Y010063*
X019909Y010125*
X019923Y010197*
X019909Y010269*
X019868Y01033*
X019806Y010371*
X019734Y010385*
G37*
G36*
X024991Y009501D02*
Y009331D01*
X02516*
X025153Y009369*
X025103Y009444*
X025029Y009493*
X024991Y009501*
G37*
G36*
X027391Y008768D02*
X027221D01*
X027229Y00873*
X027279Y008656*
X027353Y008606*
X027391Y008599*
Y008768*
G37*
G36*
X028133D02*
X027963D01*
Y008599*
X028001Y008606*
X028076Y008656*
X028125Y00873*
X028133Y008768*
G37*
G36*
X03128Y00888D02*
X031207Y008865D01*
X031146Y008824*
X031105Y008763*
X031091Y008691*
X031105Y008619*
X031146Y008558*
X031207Y008517*
X03128Y008502*
X031352Y008517*
X031413Y008558*
X031454Y008619*
X031468Y008691*
X031454Y008763*
X031413Y008824*
X031352Y008865*
X03128Y00888*
G37*
G36*
X030463Y008899D02*
X03039Y008885D01*
X030329Y008844*
X030288Y008783*
X030274Y008711*
X030288Y008638*
X030329Y008577*
X03039Y008536*
X030463Y008522*
X030535Y008536*
X030596Y008577*
X030637Y008638*
X030651Y008711*
X030637Y008783*
X030596Y008844*
X030535Y008885*
X030463Y008899*
G37*
G36*
X022263Y008773D02*
X022225Y008765D01*
X022151Y008715*
X022101Y008641*
X022094Y008603*
X022263*
Y008773*
G37*
G36*
X023741Y008792D02*
Y008623D01*
X02391*
X023903Y008661*
X023853Y008735*
X023779Y008785*
X023741Y008792*
G37*
G36*
X015069Y009067D02*
X014997Y009052D01*
X014936Y009011*
X014895Y00895*
X01488Y008878*
X014895Y008806*
X014936Y008745*
X014997Y008704*
X015069Y008689*
X015141Y008704*
X015202Y008745*
X015243Y008806*
X015258Y008878*
X015243Y00895*
X015202Y009011*
X015141Y009052*
X015069Y009067*
G37*
G36*
X022363Y008773D02*
Y008603D01*
X022532*
X022525Y008641*
X022475Y008715*
X022401Y008765*
X022363Y008773*
G37*
G36*
X023641Y008792D02*
X023603Y008785D01*
X023529Y008735*
X023479Y008661*
X023471Y008623*
X023641*
Y008792*
G37*
G36*
X022263Y008503D02*
X022094D01*
X022101Y008465*
X022151Y008391*
X022225Y008341*
X022263Y008334*
Y008503*
G37*
G36*
X022532D02*
X022363D01*
Y008334*
X022401Y008341*
X022475Y008391*
X022525Y008465*
X022532Y008503*
G37*
G36*
X027391Y008487D02*
X027353Y008479D01*
X027279Y008429*
X027229Y008355*
X027221Y008317*
X027391*
Y008487*
G37*
G36*
X027963D02*
Y008317D01*
X028133*
X028125Y008355*
X028076Y008429*
X028001Y008479*
X027963Y008487*
G37*
G36*
X023641Y008523D02*
X023471D01*
X023479Y008485*
X023529Y008411*
X023603Y008361*
X023641Y008353*
Y008523*
G37*
G36*
X01743Y008592D02*
X017261D01*
X017268Y008554*
X017318Y00848*
X017393Y00843*
X01743Y008422*
Y008592*
G37*
G36*
X0177D02*
X01753D01*
Y008422*
X017568Y00843*
X017643Y00848*
X017692Y008554*
X0177Y008592*
G37*
G36*
X02391Y008523D02*
X023741D01*
Y008353*
X023779Y008361*
X023853Y008411*
X023903Y008485*
X02391Y008523*
G37*
G36*
X027863Y008487D02*
X027826Y008479D01*
X027751Y008429*
X027703Y008358*
X027682Y008355*
X027673*
X027651Y008358*
X027603Y008429*
X027529Y008479*
X027491Y008487*
Y008267*
Y008048*
X027529Y008055*
X027603Y008105*
X027651Y008176*
X027673Y008179*
X027682*
X027703Y008176*
X027751Y008105*
X027826Y008055*
X027863Y008048*
Y008267*
Y008487*
G37*
G36*
X028133Y009319D02*
X027963D01*
Y00915*
X028001Y009158*
X028076Y009207*
X028125Y009282*
X028133Y009319*
G37*
G36*
X027391D02*
X027221D01*
X027229Y009282*
X027279Y009207*
X027353Y009158*
X027391Y00915*
Y009319*
G37*
G36*
X02516Y009232D02*
X024991D01*
Y009062*
X025029Y00907*
X025103Y009119*
X025153Y009194*
X02516Y009232*
G37*
G36*
X027491Y009589D02*
Y009369D01*
Y00915*
X027529Y009158*
X027603Y009207*
X027651Y009279*
X027673Y009282*
X027682*
X027703Y009279*
X027751Y009207*
X027826Y009158*
X027863Y00915*
Y009369*
Y009589*
X027826Y009581*
X027751Y009532*
X027703Y00946*
X027682Y009457*
X027673*
X027651Y00946*
X027603Y009532*
X027529Y009581*
X027491Y009589*
G37*
G36*
X012903Y009481D02*
X012865Y009474D01*
X012791Y009424*
X012741Y00935*
X012733Y009312*
X012903*
Y009481*
G37*
G36*
X029636Y009706D02*
X029564Y009692D01*
X029502Y009651*
X029462Y00959*
X029447Y009518*
X029462Y009446*
X029502Y009384*
X029564Y009343*
X029636Y009329*
X029708Y009343*
X029769Y009384*
X02981Y009446*
X029824Y009518*
X02981Y00959*
X029769Y009651*
X029708Y009692*
X029636Y009706*
G37*
G36*
X024891Y009501D02*
X024853Y009493D01*
X024779Y009444*
X024729Y009369*
X024721Y009331*
X024891*
Y009501*
G37*
G36*
X013003Y009481D02*
Y009312D01*
X013172*
X013165Y00935*
X013115Y009424*
X013041Y009474*
X013003Y009481*
G37*
G36*
X019173Y009706D02*
X019101Y009692D01*
X01904Y009651*
X018999Y00959*
X018985Y009518*
X018999Y009446*
X01904Y009384*
X019101Y009343*
X019173Y009329*
X019245Y009343*
X019307Y009384*
X019347Y009446*
X019362Y009518*
X019347Y00959*
X019307Y009651*
X019245Y009692*
X019173Y009706*
G37*
G36*
X027391Y009038D02*
X027353Y00903D01*
X027279Y00898*
X027229Y008906*
X027221Y008868*
X027391*
Y009038*
G37*
G36*
X027963D02*
Y008868D01*
X028133*
X028125Y008906*
X028076Y00898*
X028001Y00903*
X027963Y009038*
G37*
G36*
X01743Y008861D02*
X017393Y008854D01*
X017318Y008804*
X017268Y00873*
X017261Y008692*
X01743*
Y008861*
G37*
G36*
X01753D02*
Y008692D01*
X0177*
X017692Y00873*
X017643Y008804*
X017568Y008854*
X01753Y008861*
G37*
G36*
X027863Y009038D02*
X027826Y00903D01*
X027751Y00898*
X027703Y008909*
X027682Y008906*
X027673*
X027651Y008909*
X027603Y00898*
X027529Y00903*
X027491Y009038*
Y008818*
Y008599*
X027529Y008606*
X027603Y008656*
X027651Y008728*
X027673Y00873*
X027682*
X027703Y008728*
X027751Y008656*
X027826Y008606*
X027863Y008599*
Y008818*
Y009038*
G37*
G36*
X013172Y009212D02*
X013003D01*
Y009042*
X013041Y00905*
X013115Y0091*
X013165Y009174*
X013172Y009212*
G37*
G36*
X024891Y009232D02*
X024721D01*
X024729Y009194*
X024779Y009119*
X024853Y00907*
X024891Y009062*
Y009232*
G37*
G36*
X033031Y009342D02*
X032959Y009328D01*
X032898Y009287*
X032857Y009226*
X032843Y009154*
X032857Y009081*
X032898Y00902*
X032959Y008979*
X033031Y008965*
X033104Y008979*
X033165Y00902*
X033206Y009081*
X03322Y009154*
X033206Y009226*
X033165Y009287*
X033104Y009328*
X033031Y009342*
G37*
G36*
X012903Y009212D02*
X012733D01*
X012741Y009174*
X012791Y0091*
X012865Y00905*
X012903Y009042*
Y009212*
G37*
G36*
X034753Y022227D02*
X034715Y02222D01*
X034641Y02217*
X034591Y022096*
X034584Y022058*
X034753*
Y022227*
G37*
G36*
X010964Y022247D02*
X010926Y022239D01*
X010852Y02219*
X010802Y022115*
X010794Y022078*
X010964*
Y022247*
G37*
G36*
X01379Y022109D02*
Y02194D01*
X01396*
X013952Y021978*
X013902Y022052*
X013828Y022102*
X01379Y022109*
G37*
G36*
X010247Y022149D02*
Y021979D01*
X010416*
X010409Y022017*
X010359Y022091*
X010285Y022141*
X010247Y022149*
G37*
G36*
X027067Y022482D02*
X026995Y022468D01*
X026934Y022427*
X026893Y022365*
X026878Y022293*
X026893Y022221*
X026934Y02216*
X026995Y022119*
X027067Y022105*
X027139Y022119*
X0272Y02216*
X027241Y022221*
X027256Y022293*
X027241Y022365*
X0272Y022427*
X027139Y022468*
X027067Y022482*
G37*
G36*
X022263Y022326D02*
X022225Y022318D01*
X022151Y022269*
X022101Y022194*
X022094Y022156*
X022263*
Y022326*
G37*
G36*
X022363D02*
Y022156D01*
X022532*
X022525Y022194*
X022475Y022269*
X022401Y022318*
X022363Y022326*
G37*
G36*
X023789Y022306D02*
X023751Y022299D01*
X023676Y022249*
X023627Y022174*
X023619Y022137*
X023789*
Y022306*
G37*
G36*
X023889D02*
Y022137D01*
X024058*
X024051Y022174*
X024001Y022249*
X023926Y022299*
X023889Y022306*
G37*
G36*
X020098Y02207D02*
X02006Y022062D01*
X019985Y022013*
X019936Y021938*
X019928Y0219*
X020098*
Y02207*
G37*
G36*
X020198D02*
Y0219D01*
X020367*
X02036Y021938*
X02031Y022013*
X020235Y022062*
X020198Y02207*
G37*
G36*
X022263Y022056D02*
X022094D01*
X022101Y022019*
X022151Y021944*
X022225Y021894*
X022263Y021887*
Y022056*
G37*
G36*
X022532D02*
X022363D01*
Y021887*
X022401Y021894*
X022475Y021944*
X022525Y022019*
X022532Y022056*
G37*
G36*
X029635Y022096D02*
X029466D01*
X029473Y022058*
X029523Y021983*
X029597Y021934*
X029635Y021926*
Y022096*
G37*
G36*
X0132Y022109D02*
Y02194D01*
X013369*
X013362Y021978*
X013312Y022052*
X013237Y022102*
X0132Y022109*
G37*
G36*
X01369D02*
X013652Y022102D01*
X013578Y022052*
X013528Y021978*
X013521Y02194*
X01369*
Y022109*
G37*
G36*
X029904Y022096D02*
X029735D01*
Y021926*
X029773Y021934*
X029847Y021983*
X029897Y022058*
X029904Y022096*
G37*
G36*
X0131Y022109D02*
X013062Y022102D01*
X012987Y022052*
X012938Y021978*
X01293Y02194*
X0131*
Y022109*
G37*
G36*
X015354Y022745D02*
X015184D01*
X015192Y022707*
X015241Y022633*
X015316Y022583*
X015354Y022576*
Y022745*
G37*
G36*
X015623D02*
X015454D01*
Y022576*
X015491Y022583*
X015566Y022633*
X015615Y022707*
X015623Y022745*
G37*
G36*
X025688Y022716D02*
X025519D01*
X025526Y022678*
X025576Y022604*
X02565Y022554*
X025688Y022546*
Y022716*
G37*
G36*
X025958D02*
X025788D01*
Y022546*
X025826Y022554*
X0259Y022604*
X02595Y022678*
X025958Y022716*
G37*
G36*
X02748Y022794D02*
X02731D01*
X027318Y022757*
X027367Y022682*
X027442Y022633*
X02748Y022625*
Y022794*
G37*
G36*
X018198Y022877D02*
X01816Y022869D01*
X018086Y02282*
X018036Y022745*
X018029Y022707*
X018198*
Y022877*
G37*
G36*
X018298D02*
Y022707D01*
X018467*
X01846Y022745*
X01841Y02282*
X018336Y022869*
X018298Y022877*
G37*
G36*
X027749Y022794D02*
X02758D01*
Y022625*
X027617Y022633*
X027692Y022682*
X027741Y022757*
X027749Y022794*
G37*
G36*
X028051Y023378D02*
X027979Y023363D01*
X027918Y023322*
X027877Y023261*
X027863Y023189*
X027877Y023117*
X027918Y023056*
X027979Y023015*
X028051Y023*
X028087Y023008*
X028118Y022963*
X028093Y022927*
X028079Y022854*
X028093Y022782*
X028134Y022721*
X028196Y02268*
X028268Y022666*
X02834Y02268*
X028401Y022721*
X028442Y022782*
X028456Y022854*
X028442Y022927*
X028401Y022988*
X02834Y023029*
X028268Y023043*
X028231Y023036*
X028201Y023081*
X028225Y023117*
X02824Y023189*
X028225Y023261*
X028185Y023322*
X028123Y023363*
X028051Y023378*
G37*
G36*
X021634Y02259D02*
X021562Y022576D01*
X0215Y022535*
X02146Y022474*
X021445Y022402*
X02146Y022329*
X0215Y022268*
X021562Y022227*
X021634Y022213*
X021706Y022227*
X021767Y022268*
X021808Y022329*
X021822Y022402*
X021808Y022474*
X021767Y022535*
X021706Y022576*
X021634Y02259*
G37*
G36*
X017371Y02244D02*
X017202D01*
X017209Y022402*
X017259Y022328*
X017333Y022278*
X017371Y022271*
Y02244*
G37*
G36*
X029635Y022365D02*
X029597Y022358D01*
X029523Y022308*
X029473Y022233*
X029466Y022196*
X029635*
Y022365*
G37*
G36*
X029735D02*
Y022196D01*
X029904*
X029897Y022233*
X029847Y022308*
X029773Y022358*
X029735Y022365*
G37*
G36*
X017641Y02244D02*
X017471D01*
Y022271*
X017509Y022278*
X017583Y022328*
X017633Y022402*
X017641Y02244*
G37*
G36*
X017371Y02271D02*
X017333Y022702D01*
X017259Y022652*
X017209Y022578*
X017202Y02254*
X017371*
Y02271*
G37*
G36*
X017471D02*
Y02254D01*
X017641*
X017633Y022578*
X017583Y022652*
X017509Y022702*
X017471Y02271*
G37*
G36*
X018198Y022607D02*
X018029D01*
X018036Y02257*
X018086Y022495*
X01816Y022446*
X018198Y022438*
Y022607*
G37*
G36*
X018467D02*
X018298D01*
Y022438*
X018336Y022446*
X01841Y022495*
X01846Y02257*
X018467Y022607*
G37*
G36*
X024058Y022037D02*
X023889D01*
Y021867*
X023926Y021875*
X024001Y021924*
X024051Y021999*
X024058Y022037*
G37*
G36*
X028396Y021488D02*
X028323Y021473D01*
X028262Y021433*
X028221Y021371*
X028207Y021299*
X028221Y021227*
X028262Y021166*
X028323Y021125*
X028396Y021111*
X028468Y021125*
X028529Y021166*
X02857Y021227*
X028584Y021299*
X02857Y021371*
X028529Y021433*
X028468Y021473*
X028396Y021488*
G37*
G36*
X018917Y021508D02*
X018845Y021493D01*
X018784Y021452*
X018743Y021391*
X018729Y021319*
X018743Y021247*
X018784Y021186*
X018845Y021145*
X018917Y02113*
X01899Y021145*
X019051Y021186*
X019092Y021247*
X019106Y021319*
X019092Y021391*
X019051Y021452*
X01899Y021493*
X018917Y021508*
G37*
G36*
X017775Y020938D02*
X017737Y02093D01*
X017663Y020881*
X017613Y020806*
X017605Y020768*
X017775*
Y020938*
G37*
G36*
X014951Y021409D02*
X014879Y021395D01*
X014817Y021354*
X014777Y021293*
X014762Y02122*
X014777Y021148*
X014817Y021087*
X014879Y021046*
X014951Y021032*
X015023Y021046*
X015084Y021087*
X015125Y021148*
X015139Y02122*
X015125Y021293*
X015084Y021354*
X015023Y021395*
X014951Y021409*
G37*
G36*
X033119Y021643D02*
X032638D01*
X03265Y021554*
X032704Y021424*
X032789Y021313*
X0329Y021227*
X03303Y021174*
X033119Y021162*
Y021643*
G37*
G36*
X027411Y021538D02*
X027373Y021531D01*
X027298Y021481*
X027249Y021407*
X027241Y021369*
X027411*
Y021538*
G37*
G36*
X027511D02*
Y021369D01*
X02768*
X027673Y021407*
X027623Y021481*
X027548Y021531*
X027511Y021538*
G37*
G36*
X0337Y021643D02*
X033219D01*
Y021162*
X033308Y021174*
X033438Y021227*
X033549Y021313*
X033635Y021424*
X033689Y021554*
X0337Y021643*
G37*
G36*
X031497Y022186D02*
X030511D01*
Y0212*
X031497*
Y022186*
G37*
G36*
X011732Y020917D02*
X01166Y020903D01*
X011599Y020862*
X011558Y020801*
X011544Y020728*
X011558Y020656*
X011599Y020595*
X01166Y020554*
X011732Y02054*
X011804Y020554*
X011866Y020595*
X011907Y020656*
X011921Y020728*
X011907Y020801*
X011866Y020862*
X011804Y020903*
X011732Y020917*
G37*
G36*
X021999Y020967D02*
X021926Y020953D01*
X021865Y020912*
X021824Y02085*
X02181Y020778*
X021824Y020706*
X021865Y020645*
X021926Y020604*
X021999Y02059*
X022071Y020604*
X022132Y020645*
X022173Y020706*
X022187Y020778*
X022173Y02085*
X022132Y020912*
X022071Y020953*
X021999Y020967*
G37*
G36*
X019351Y020653D02*
Y020483D01*
X019521*
X019513Y020521*
X019463Y020595*
X019389Y020645*
X019351Y020653*
G37*
G36*
X017775Y020668D02*
X017605D01*
X017613Y020631*
X017663Y020556*
X017737Y020507*
X017775Y020499*
Y020668*
G37*
G36*
X014596Y021006D02*
X014524Y020991D01*
X014463Y02095*
X014422Y020889*
X014408Y020817*
X014422Y020745*
X014463Y020684*
X014524Y020643*
X014596Y020628*
X014669Y020643*
X01473Y020684*
X014771Y020745*
X014785Y020817*
X014771Y020889*
X01473Y02095*
X014669Y020991*
X014596Y021006*
G37*
G36*
X02768Y021269D02*
X027241D01*
X027249Y021231*
X027298Y021157*
X027319Y021143*
X027317Y021084*
X027278Y021059*
X027237Y020997*
X027223Y020925*
X027237Y020853*
X027278Y020792*
X027339Y020751*
X027411Y020737*
X027484Y020751*
X027545Y020792*
X027586Y020853*
X0276Y020925*
X027586Y020997*
X027545Y021059*
X027544*
X027555Y021112*
X027623Y021157*
X027673Y021231*
X02768Y021269*
G37*
G36*
X02562Y021143D02*
X025548Y021129D01*
X025487Y021088*
X025446Y021027*
X025431Y020955*
X025446Y020883*
X025487Y020821*
X025548Y02078*
X02562Y020766*
X025692Y02078*
X025753Y020821*
X025794Y020883*
X025809Y020955*
X025794Y021027*
X025753Y021088*
X025692Y021129*
X02562Y021143*
G37*
G36*
X011043Y021006D02*
X010971Y020991D01*
X01091Y02095*
X010869Y020889*
X010855Y020817*
X010869Y020745*
X01091Y020684*
X010971Y020643*
X011043Y020628*
X011115Y020643*
X011177Y020684*
X011218Y020745*
X011232Y020817*
X011218Y020889*
X011177Y02095*
X011115Y020991*
X011043Y021006*
G37*
G36*
X026043Y021114D02*
X025971Y021099D01*
X02591Y021059*
X025869Y020997*
X025855Y020925*
X025869Y020853*
X02591Y020792*
X025971Y020751*
X026043Y020737*
X026115Y020751*
X026177Y020792*
X026218Y020853*
X026232Y020925*
X026218Y020997*
X026177Y021059*
X026115Y021099*
X026043Y021114*
G37*
G36*
X033219Y022224D02*
Y021743D01*
X0337*
X033689Y021832*
X033635Y021962*
X033549Y022073*
X033438Y022159*
X033308Y022212*
X033219Y022224*
G37*
G36*
X034753Y021958D02*
X034584D01*
X034591Y02192*
X034641Y021846*
X034715Y021796*
X034753Y021788*
Y021958*
G37*
G36*
X010416Y021879D02*
X010247D01*
Y02171*
X010285Y021717*
X010359Y021767*
X010409Y021841*
X010416Y021879*
G37*
G36*
X033119Y022224D02*
X03303Y022212D01*
X0329Y022159*
X032789Y022073*
X032704Y021962*
X03265Y021832*
X032638Y021743*
X033119*
Y022224*
G37*
G36*
X010964Y021978D02*
X010794D01*
X010802Y02194*
X010852Y021865*
X010926Y021816*
X010964Y021808*
Y021978*
G37*
G36*
X024577Y022236D02*
X024505Y022222D01*
X024443Y022181*
X024403Y022119*
X024388Y022047*
X024403Y021975*
X024443Y021914*
X024505Y021873*
X024577Y021859*
X024649Y021873*
X02471Y021914*
X024751Y021975*
X024765Y022047*
X024751Y022119*
X02471Y022181*
X024649Y022222*
X024577Y022236*
G37*
G36*
X023789Y022037D02*
X023619D01*
X023627Y021999*
X023676Y021924*
X023751Y021875*
X023789Y021867*
Y022037*
G37*
G36*
X012146Y022206D02*
X012073Y022192D01*
X012012Y022151*
X011971Y02209*
X011957Y022018*
X011971Y021946*
X012012Y021884*
X012073Y021843*
X012146Y021829*
X012218Y021843*
X012279Y021884*
X01232Y021946*
X012334Y022018*
X01232Y02209*
X012279Y022151*
X012218Y022192*
X012146Y022206*
G37*
G36*
X011064Y022247D02*
Y022028D01*
Y021808*
X011102Y021816*
X011176Y021865*
X011201Y021903*
X011261*
X011274Y021884*
X011335Y021843*
X011407Y021829*
X01148Y021843*
X011541Y021884*
X011582Y021946*
X011596Y022018*
X011582Y02209*
X011541Y022151*
X01148Y022192*
X011407Y022206*
X011335Y022192*
X011274Y022151*
X011268Y022141*
X011208Y022142*
X011176Y02219*
X011102Y022239*
X011064Y022247*
G37*
G36*
X023327Y021882D02*
X023255Y021867D01*
X023193Y021826*
X023153Y021765*
X023138Y021693*
X023153Y021621*
X023193Y02156*
X023255Y021519*
X023327Y021504*
X023399Y021519*
X02346Y02156*
X023501Y021621*
X023515Y021693*
X023501Y021765*
X02346Y021826*
X023399Y021867*
X023327Y021882*
G37*
G36*
X020098Y0218D02*
X019928D01*
X019936Y021763*
X019985Y021688*
X02006Y021638*
X020098Y021631*
Y0218*
G37*
G36*
X013395Y021544D02*
X013225D01*
X013233Y021507*
X013283Y021432*
X013357Y021383*
X013395Y021375*
Y021544*
G37*
G36*
X013664D02*
X013495D01*
Y021375*
X013533Y021383*
X013607Y021432*
X013657Y021507*
X013664Y021544*
G37*
G36*
X020367Y0218D02*
X020198D01*
Y021631*
X020235Y021638*
X02031Y021688*
X02036Y021763*
X020367Y0218*
G37*
G36*
X0131Y02184D02*
X01293D01*
X012938Y021802*
X012987Y021728*
X013062Y021678*
X0131Y02167*
Y02184*
G37*
G36*
X01396D02*
X01379D01*
Y02167*
X013828Y021678*
X013902Y021728*
X013952Y021802*
X01396Y02184*
G37*
G36*
X013383D02*
X0132D01*
Y021656*
X013211Y021644*
X013395*
Y021828*
X013383Y02184*
G37*
G36*
X01369D02*
X013506D01*
X013495Y021828*
Y021644*
X013679*
X01369Y021656*
Y02184*
G37*
G36*
X02558Y024934D02*
X025542Y024927D01*
X025468Y024877*
X025418Y024802*
X02541Y024765*
X02558*
Y024934*
G37*
G36*
X02568D02*
Y024765D01*
X025849*
X025842Y024802*
X025792Y024877*
X025718Y024927*
X02568Y024934*
G37*
G36*
X022185Y025051D02*
X022113Y025036D01*
X022052Y024996*
X022011Y024934*
X021996Y024862*
X022011Y02479*
X022052Y024729*
X022113Y024688*
X022185Y024674*
X022257Y024688*
X022318Y024729*
X022359Y02479*
X022374Y024862*
X022359Y024934*
X022318Y024996*
X022257Y025036*
X022185Y025051*
G37*
G36*
X024094Y0251D02*
X024022Y025086D01*
X023961Y025045*
X02392Y024984*
X023906Y024911*
X02392Y024839*
X023961Y024778*
X024022Y024737*
X024094Y024723*
X024167Y024737*
X024228Y024778*
X024269Y024839*
X024283Y024911*
X024269Y024984*
X024228Y025045*
X024167Y025086*
X024094Y0251*
G37*
G36*
X010865Y02496D02*
X010696D01*
X010703Y024922*
X010753Y024848*
X010828Y024798*
X010865Y02479*
Y02496*
G37*
G36*
X015643D02*
X015473D01*
Y02479*
X015511Y024798*
X015585Y024848*
X015635Y024922*
X015643Y02496*
G37*
G36*
X013109Y024983D02*
X013072Y024976D01*
X012997Y024926*
X012947Y024852*
X01294Y024814*
X013109*
Y024983*
G37*
G36*
X011135Y02496D02*
X010965D01*
Y02479*
X011003Y024798*
X011078Y024848*
X011127Y024922*
X011135Y02496*
G37*
G36*
X015373D02*
X015204D01*
X015211Y024922*
X015261Y024848*
X015335Y024798*
X015373Y02479*
Y02496*
G37*
G36*
X013109Y024714D02*
X01294D01*
X012947Y024676*
X012997Y024602*
X013072Y024552*
X013109Y024544*
Y024714*
G37*
G36*
X013379D02*
X013209D01*
Y024544*
X013247Y024552*
X013322Y024602*
X013371Y024676*
X013379Y024714*
G37*
G36*
X033119Y024941D02*
X03303Y024929D01*
X0329Y024875*
X032789Y02479*
X032704Y024678*
X03265Y024549*
X032638Y024459*
X033119*
Y024941*
G37*
G36*
X033219D02*
Y024459D01*
X0337*
X033689Y024549*
X033635Y024678*
X033549Y02479*
X033438Y024875*
X033308Y024929*
X033219Y024941*
G37*
G36*
X016702Y024733D02*
X016533D01*
X01654Y024696*
X01659Y024621*
X016664Y024572*
X016702Y024564*
Y024733*
G37*
G36*
X021115Y024763D02*
X020946D01*
Y024594*
X020983Y024601*
X021058Y024651*
X021108Y024725*
X021115Y024763*
G37*
G36*
X018159Y024895D02*
X018121Y024887D01*
X018046Y024837*
X017997Y024763*
X017979Y024675*
X017981Y024668*
X017934Y024649*
X017899Y0247*
X017838Y024741*
X017766Y024756*
X017694Y024741*
X017632Y0247*
X017591Y024639*
X017577Y024567*
X017591Y024495*
X017632Y024434*
X017694Y024393*
X017766Y024378*
X017838Y024393*
X017899Y024434*
X01794Y024495*
X017954Y024565*
X01796Y024568*
X018003Y024578*
X018046Y024513*
X018121Y024463*
X018159Y024456*
Y024675*
Y024895*
G37*
G36*
X016971Y024733D02*
X016802D01*
Y024564*
X01684Y024572*
X016914Y024621*
X016964Y024696*
X016971Y024733*
G37*
G36*
X020846Y024763D02*
X020676D01*
X020684Y024725*
X020733Y024651*
X020808Y024601*
X020846Y024594*
Y024763*
G37*
G36*
X023002Y025445D02*
X02293Y02543D01*
X022869Y025389*
X022828Y025328*
X022813Y025256*
X022828Y025184*
X022869Y025123*
X02293Y025082*
X023002Y025067*
X023074Y025082*
X023135Y025123*
X023176Y025184*
X023191Y025256*
X023176Y025328*
X023135Y025389*
X023074Y02543*
X023002Y025445*
G37*
G36*
X010416Y025816D02*
X010247D01*
Y025647*
X010285Y025654*
X010359Y025704*
X010409Y025778*
X010416Y025816*
G37*
G36*
X015373Y025229D02*
X015335Y025222D01*
X015261Y025172*
X015211Y025098*
X015204Y02506*
X015373*
Y025229*
G37*
G36*
X015473D02*
Y02506D01*
X015643*
X015635Y025098*
X015585Y025172*
X015511Y025222*
X015473Y025229*
G37*
G36*
X012115Y025816D02*
X011946D01*
X011953Y025778*
X012003Y025704*
X012078Y025654*
X012115Y025647*
Y025816*
G37*
G36*
X014353D02*
X014184D01*
Y025647*
X014222Y025654*
X014296Y025704*
X014346Y025778*
X014353Y025816*
G37*
G36*
X034753D02*
X034584D01*
X034591Y025778*
X034641Y025704*
X034715Y025654*
X034753Y025647*
Y025816*
G37*
G36*
X012385D02*
X012215D01*
Y025647*
X012253Y025654*
X012328Y025704*
X012377Y025778*
X012385Y025816*
G37*
G36*
X014084D02*
X013914D01*
X013922Y025778*
X013972Y025704*
X014046Y025654*
X014084Y025647*
Y025816*
G37*
G36*
X016702Y025003D02*
X016664Y024995D01*
X01659Y024946*
X01654Y024871*
X016533Y024833*
X016702*
Y025003*
G37*
G36*
X016802D02*
Y024833D01*
X016971*
X016964Y024871*
X016914Y024946*
X01684Y024995*
X016802Y025003*
G37*
G36*
X013209Y024983D02*
Y024814D01*
X013379*
X013371Y024852*
X013322Y024926*
X013247Y024976*
X013209Y024983*
G37*
G36*
X029537Y025208D02*
X029465Y025194D01*
X029404Y025153*
X029363Y025092*
X029349Y02502*
X029363Y024948*
X029404Y024886*
X029465Y024845*
X029537Y024831*
X02961Y024845*
X029671Y024886*
X029712Y024948*
X029726Y02502*
X029712Y025092*
X029671Y025153*
X02961Y025194*
X029537Y025208*
G37*
G36*
X020846Y025032D02*
X020808Y025025D01*
X020733Y024975*
X020684Y024901*
X020676Y024863*
X020846*
Y025032*
G37*
G36*
X010865Y025229D02*
X010828Y025222D01*
X010753Y025172*
X010703Y025098*
X010696Y02506*
X010865*
Y025229*
G37*
G36*
X010965D02*
Y02506D01*
X011135*
X011127Y025098*
X011078Y025172*
X011003Y025222*
X010965Y025229*
G37*
G36*
X020946Y025032D02*
Y024863D01*
X021115*
X021108Y024901*
X021058Y024975*
X020983Y025025*
X020946Y025032*
G37*
G36*
X024656Y025356D02*
X024583Y025342D01*
X024522Y025301*
X024481Y02524*
X024467Y025167*
X024481Y025095*
X024522Y025034*
X024583Y024993*
X024656Y024979*
X024728Y024993*
X024789Y025034*
X02483Y025095*
X024844Y025167*
X02483Y02524*
X024789Y025301*
X024728Y025342*
X024656Y025356*
G37*
G36*
X018259Y024895D02*
Y024675D01*
Y024456*
X018296Y024463*
X018371Y024513*
X018408Y024568*
X018461Y024558*
X018467Y024524*
X018508Y024463*
X01857Y024422*
X018642Y024408*
X018714Y024422*
X018775Y024463*
X018816Y024524*
X01883Y024596*
X018816Y024669*
X018775Y02473*
X018714Y024771*
X018642Y024785*
X01857Y024771*
X018508Y02473*
X018485Y024695*
X018432Y024706*
X018421Y024763*
X018371Y024837*
X018296Y024887*
X018259Y024895*
G37*
G36*
X024715Y023231D02*
Y023062D01*
X024885*
X024877Y0231*
X024828Y023174*
X024753Y023224*
X024715Y023231*
G37*
G36*
X020856Y023241D02*
X020818Y023234D01*
X020743Y023184*
X020694Y023109*
X020686Y023072*
X020856*
Y023241*
G37*
G36*
X02752Y023437D02*
X027448Y023422D01*
X027386Y023381*
X027345Y02332*
X027331Y023248*
X027345Y023176*
X027386Y023115*
X027413Y023097*
Y023037*
X027367Y023007*
X027318Y022932*
X02731Y022894*
X027749*
X027741Y022932*
X027692Y023007*
X027637Y023044*
X027632Y023099*
X027633Y023101*
X027653Y023115*
X027694Y023176*
X027708Y023248*
X027694Y02332*
X027653Y023381*
X027592Y023422*
X02752Y023437*
G37*
G36*
X024615Y023231D02*
X024578Y023224D01*
X024503Y023174*
X024453Y0231*
X024446Y023062*
X024615*
Y023231*
G37*
G36*
X020956Y023241D02*
Y023072D01*
X021125*
X021117Y023109*
X021068Y023184*
X020993Y023234*
X020956Y023241*
G37*
G36*
X011387Y023385D02*
X011218D01*
X011225Y023347*
X011275Y023273*
X011349Y023223*
X011387Y023216*
Y023385*
G37*
G36*
X011656D02*
X011487D01*
Y023216*
X011525Y023223*
X011599Y023273*
X011649Y023347*
X011656Y023385*
G37*
G36*
X012303Y024021D02*
X012211Y024003D01*
X012132Y023951*
X01208Y023872*
X012061Y02378*
X01208Y023687*
X012132Y023609*
X012211Y023556*
X012303Y023538*
X012396Y023556*
X012474Y023609*
X012519Y023676*
X012564Y023673*
X012571Y023671*
X012572Y023668*
X012613Y023607*
X012674Y023566*
X012698Y023561*
X012709Y023508*
X012682Y02349*
X012641Y023428*
X012626Y023356*
X012641Y023284*
X012682Y023223*
X012743Y023182*
X012815Y023168*
X012887Y023182*
X012948Y023223*
X012989Y023284*
X013004Y023356*
X012989Y023428*
X012948Y02349*
X012887Y023531*
X012863Y023535*
X012852Y023589*
X012879Y023607*
X01292Y023668*
X012935Y02374*
X01292Y023812*
X012879Y023874*
X012818Y023914*
X012746Y023929*
X012674Y023914*
X012613Y023874*
X012585Y023833*
X012532Y023843*
X012527Y023872*
X012474Y023951*
X012396Y024003*
X012303Y024021*
G37*
G36*
X013258Y023584D02*
X013186Y02357D01*
X013125Y023529*
X013084Y023468*
X013069Y023396*
X013084Y023323*
X013125Y023262*
X013186Y023221*
X013258Y023207*
X01333Y023221*
X013391Y023262*
X013432Y023323*
X013447Y023396*
X013432Y023468*
X013391Y023529*
X01333Y02357*
X013258Y023584*
G37*
G36*
X020856Y022972D02*
X020686D01*
X020694Y022934*
X020743Y022859*
X020818Y02281*
X020856Y022802*
Y022972*
G37*
G36*
X021125D02*
X020956D01*
Y022802*
X020993Y02281*
X021068Y022859*
X021117Y022934*
X021125Y022972*
G37*
G36*
X024615Y022962D02*
X024446D01*
X024453Y022924*
X024503Y02285*
X024578Y0228*
X024615Y022792*
Y022962*
G37*
G36*
X024885D02*
X024715D01*
Y022792*
X024753Y0228*
X024828Y02285*
X024877Y022924*
X024885Y022962*
G37*
G36*
X026319Y023191D02*
X026247Y023176D01*
X026186Y023135*
X026145Y023074*
X02613Y023002*
X026145Y02293*
X026186Y022869*
X026247Y022828*
X026319Y022813*
X026391Y022828*
X026452Y022869*
X026493Y02293*
X026508Y023002*
X026493Y023074*
X026452Y023135*
X026391Y023176*
X026319Y023191*
G37*
G36*
X015354Y023015D02*
X015316Y023007D01*
X015241Y022957*
X015192Y022883*
X015184Y022845*
X015354*
Y023015*
G37*
G36*
X015454D02*
Y022845D01*
X015623*
X015615Y022883*
X015566Y022957*
X015491Y023007*
X015454Y023015*
G37*
G36*
X025688Y022985D02*
X02565Y022978D01*
X025576Y022928*
X025526Y022854*
X025519Y022816*
X025688*
Y022985*
G37*
G36*
X025788D02*
Y022816D01*
X025958*
X02595Y022854*
X0259Y022928*
X025826Y022978*
X025788Y022985*
G37*
G36*
X033119Y024359D02*
X032638D01*
X03265Y02427*
X032704Y024141*
X032789Y024029*
X0329Y023944*
X03303Y02389*
X033119Y023878*
Y024359*
G37*
G36*
X0337D02*
X033219D01*
Y023878*
X033308Y02389*
X033438Y023944*
X033549Y024029*
X033635Y024141*
X033689Y02427*
X0337Y024359*
G37*
G36*
X034753Y023926D02*
X034584D01*
X034591Y023889*
X034641Y023814*
X034715Y023764*
X034753Y023757*
Y023926*
G37*
G36*
X018898Y024293D02*
X018825Y024279D01*
X018764Y024238*
X018723Y024177*
X018709Y024104*
X018723Y024032*
X018764Y023971*
X018825Y02393*
X018898Y023916*
X01897Y02393*
X019019Y023963*
X01906Y023953*
X019074Y023945*
X019078Y023924*
X019119Y023863*
X01918Y023822*
X019252Y023807*
X019324Y023822*
X019385Y023863*
X019426Y023924*
X019441Y023996*
X019426Y024068*
X019385Y024129*
X019324Y02417*
X019252Y024185*
X01918Y02417*
X019131Y024137*
X019089Y024147*
X019076Y024156*
X019072Y024177*
X019031Y024238*
X01897Y024279*
X018898Y024293*
G37*
G36*
X031497Y024903D02*
X030511D01*
Y023916*
X031497*
Y024903*
G37*
G36*
X025849Y024665D02*
X02541D01*
X025418Y024627*
X025468Y024552*
X025496Y024534*
Y024473*
X025467Y024454*
X025426Y024393*
X025412Y024321*
X025426Y024249*
X025467Y024187*
X025528Y024147*
X0256Y024132*
X025673Y024147*
X025734Y024187*
X025775Y024249*
X025789Y024321*
X025775Y024393*
X025734Y024454*
X025729Y024458*
X025735Y024514*
X025792Y024552*
X025842Y024627*
X025849Y024665*
G37*
G36*
X019951Y024588D02*
X019879Y024574D01*
X019817Y024533*
X019777Y024472*
X019762Y0244*
X019777Y024327*
X019817Y024266*
X019879Y024225*
X019951Y024211*
X020023Y024225*
X020084Y024266*
X020125Y024327*
X020139Y0244*
X020125Y024472*
X020084Y024533*
X020023Y024574*
X019951Y024588*
G37*
G36*
X010247Y024117D02*
Y023948D01*
X010416*
X010409Y023985*
X010359Y02406*
X010285Y02411*
X010247Y024117*
G37*
G36*
X034753Y024196D02*
X034715Y024188D01*
X034641Y024139*
X034591Y024064*
X034584Y024026*
X034753*
Y024196*
G37*
G36*
X029577Y023781D02*
X029505Y023767D01*
X029443Y023726*
X029403Y023665*
X029388Y023593*
X029403Y02352*
X029443Y023459*
X029505Y023418*
X029577Y023404*
X029649Y023418*
X02971Y023459*
X029751Y02352*
X029765Y023593*
X029751Y023665*
X02971Y023726*
X029649Y023767*
X029577Y023781*
G37*
G36*
X011387Y023654D02*
X011349Y023647D01*
X011275Y023597*
X011225Y023523*
X011218Y023485*
X011387*
Y023654*
G37*
G36*
X02878Y023594D02*
X028707Y02358D01*
X028646Y023539*
X028605Y023478*
X028591Y023406*
X028605Y023333*
X028646Y023272*
X028707Y023231*
X02878Y023217*
X028852Y023231*
X028913Y023272*
X028954Y023333*
X028968Y023406*
X028954Y023478*
X028913Y023539*
X028852Y02358*
X02878Y023594*
G37*
G36*
X024114Y023742D02*
X024042Y023727D01*
X023981Y023687*
X02394Y023625*
X023926Y023553*
X02394Y023481*
X023981Y02342*
X024042Y023379*
X024114Y023365*
X024186Y023379*
X024248Y02342*
X024288Y023481*
X024303Y023553*
X024288Y023625*
X024248Y023687*
X024186Y023727*
X024114Y023742*
G37*
G36*
X011487Y023654D02*
Y023485D01*
X011656*
X011649Y023523*
X011599Y023597*
X011525Y023647*
X011487Y023654*
G37*
G36*
X024754Y023968D02*
X024682Y023954D01*
X024621Y023913*
X02458Y023852*
X024565Y02378*
X02458Y023707*
X024621Y023646*
X024682Y023605*
X024754Y023591*
X024826Y023605*
X024887Y023646*
X024928Y023707*
X024943Y02378*
X024928Y023852*
X024887Y023913*
X024826Y023954*
X024754Y023968*
G37*
G36*
X010416Y023848D02*
X010247D01*
Y023678*
X010285Y023686*
X010359Y023735*
X010409Y02381*
X010416Y023848*
G37*
G36*
X017283Y02387D02*
X017211Y023855D01*
X01715Y023814*
X017109Y023753*
X017095Y023681*
X017109Y023609*
X01715Y023548*
X017211Y023507*
X017283Y023492*
X017356Y023507*
X017417Y023548*
X017458Y023609*
X017472Y023681*
X017458Y023753*
X017417Y023814*
X017356Y023855*
X017283Y02387*
G37*
G36*
X014035Y024021D02*
X013943Y024003D01*
X013864Y023951*
X013812Y023872*
X013794Y02378*
X013812Y023687*
X013864Y023609*
X013943Y023556*
X014035Y023538*
X014128Y023556*
X014206Y023609*
X014259Y023687*
X014277Y02378*
X014259Y023872*
X014206Y023951*
X014128Y024003*
X014035Y024021*
G37*
G36*
X019251Y020653D02*
X019213Y020645D01*
X019139Y020595*
X019089Y020521*
X019082Y020483*
X019251*
Y020653*
G37*
G36*
X015945Y017088D02*
X015873Y017074D01*
X015812Y017033*
X015771Y016972*
X015756Y0169*
X015771Y016827*
X015812Y016766*
X015873Y016725*
X015945Y016711*
X016017Y016725*
X016078Y016766*
X016119Y016827*
X016134Y0169*
X016119Y016972*
X016078Y017033*
X016017Y017074*
X015945Y017088*
G37*
G36*
X01519Y016958D02*
X01502D01*
Y016788*
X015058Y016796*
X015133Y016846*
X015182Y01692*
X01519Y016958*
G37*
G36*
X025856Y016834D02*
X025818Y016826D01*
X025743Y016776*
X025694Y016702*
X025686Y016664*
X025856*
Y016834*
G37*
G36*
X025956D02*
Y016664D01*
X026125*
X026117Y016702*
X026068Y016776*
X025993Y016826*
X025956Y016834*
G37*
G36*
X023356Y016958D02*
X023186D01*
X023194Y01692*
X023243Y016846*
X023318Y016796*
X023356Y016788*
Y016958*
G37*
G36*
X012972Y017137D02*
X0129Y017123D01*
X012839Y017082*
X012798Y017021*
X012784Y016949*
X012798Y016877*
X012768Y016832*
X012717Y016842*
X012644Y016828*
X012583Y016787*
X012542Y016726*
X012528Y016654*
X012542Y016581*
X012583Y01652*
X012644Y016479*
X012717Y016465*
X012789Y016479*
X01285Y01652*
X012891Y016581*
X012905Y016654*
X012891Y016726*
X012921Y01677*
X012972Y01676*
X013045Y016775*
X013106Y016815*
X013147Y016877*
X013161Y016949*
X013147Y017021*
X013106Y017082*
X013045Y017123*
X012972Y017137*
G37*
G36*
X019892Y017669D02*
X01982Y017655D01*
X019758Y017614*
X019717Y017552*
X019703Y01748*
X019717Y017408*
X019758Y017347*
X01982Y017306*
X01983Y017304*
Y017253*
X01977Y017241*
X019709Y0172*
X019668Y017139*
X019654Y017067*
X019668Y016995*
X019709Y016934*
X01977Y016893*
X019843Y016878*
X019915Y016893*
X019976Y016934*
X020017Y016995*
X020031Y017067*
X020017Y017139*
X019976Y0172*
X019915Y017241*
X019904Y017243*
Y017294*
X019964Y017306*
X020025Y017347*
X020066Y017408*
X02008Y01748*
X020066Y017552*
X020025Y017614*
X019964Y017655*
X019892Y017669*
G37*
G36*
X023625Y016958D02*
X023456D01*
Y016788*
X023493Y016796*
X023568Y016846*
X023617Y01692*
X023625Y016958*
G37*
G36*
X019055Y017344D02*
X018983Y01733D01*
X018922Y017289*
X018881Y017228*
X018866Y017156*
X018881Y017083*
X018922Y017022*
X018945Y017007*
X018943Y016948*
X018893Y016914*
X018843Y01684*
X018836Y016802*
X019275*
X019267Y01684*
X019217Y016914*
X019167Y016948*
X019165Y017007*
X019188Y017022*
X019229Y017083*
X019244Y017156*
X019229Y017228*
X019188Y017289*
X019127Y01733*
X019055Y017344*
G37*
G36*
X020001Y016529D02*
Y016359D01*
X02017*
X020163Y016397*
X020113Y016471*
X020039Y016521*
X020001Y016529*
G37*
G36*
X025856Y016564D02*
X025686D01*
X025694Y016526*
X025743Y016452*
X025818Y016402*
X025856Y016395*
Y016564*
G37*
G36*
X01748Y016645D02*
X017408Y016631D01*
X017347Y01659*
X017306Y016529*
X017292Y016457*
X017306Y016385*
X017347Y016323*
X017408Y016282*
X01748Y016268*
X017552Y016282*
X017614Y016323*
X017655Y016385*
X017669Y016457*
X017655Y016529*
X017614Y01659*
X017552Y016631*
X01748Y016645*
G37*
G36*
X019901Y016529D02*
X019863Y016521D01*
X019789Y016471*
X019739Y016397*
X019731Y016359*
X019901*
Y016529*
G37*
G36*
X026125Y016564D02*
X025956D01*
Y016395*
X025993Y016402*
X026068Y016452*
X026117Y016526*
X026125Y016564*
G37*
G36*
X019005Y016702D02*
X018836D01*
X018843Y016664*
X018893Y01659*
X018967Y01654*
X019005Y016533*
Y016702*
G37*
G36*
X019275D02*
X019105D01*
Y016533*
X019143Y01654*
X019217Y01659*
X019267Y016664*
X019275Y016702*
G37*
G36*
X030295Y016832D02*
X030223Y016818D01*
X030162Y016777*
X030121Y016716*
X030107Y016644*
X030121Y016572*
X030162Y01651*
X030223Y016469*
X030295Y016455*
X030367Y016469*
X030429Y01651*
X03047Y016572*
X030484Y016644*
X03047Y016716*
X030429Y016777*
X030367Y016818*
X030295Y016832*
G37*
G36*
X026535Y016872D02*
X026463Y016857D01*
X026402Y016816*
X026361Y016755*
X026347Y016683*
X026361Y016611*
X026402Y01655*
X026463Y016509*
X026535Y016494*
X026608Y016509*
X026669Y01655*
X02671Y016611*
X026724Y016683*
X02671Y016755*
X026669Y016816*
X026608Y016857*
X026535Y016872*
G37*
G36*
X018366Y01762D02*
X018294Y017605D01*
X018233Y017564*
X018192Y017503*
X018178Y017431*
X018192Y017359*
X018233Y017298*
X018294Y017257*
X018366Y017242*
X018438Y017257*
X0185Y017298*
X01854Y017359*
X018555Y017431*
X01854Y017503*
X0185Y017564*
X018438Y017605*
X018366Y01762*
G37*
G36*
X019459Y017649D02*
X019386Y017635D01*
X019325Y017594*
X019284Y017533*
X01927Y017461*
X019284Y017388*
X019325Y017327*
X019386Y017286*
X019459Y017272*
X019531Y017286*
X019592Y017327*
X019633Y017388*
X019647Y017461*
X019633Y017533*
X019592Y017594*
X019531Y017635*
X019459Y017649*
G37*
G36*
X022404Y017253D02*
X022235D01*
Y017084*
X022273Y017091*
X022347Y017141*
X022397Y017215*
X022404Y017253*
G37*
G36*
X021201Y01758D02*
X021129Y017566D01*
X021067Y017525*
X021027Y017464*
X021012Y017392*
X021027Y01732*
X021067Y017258*
X021129Y017217*
X021201Y017203*
X021273Y017217*
X021334Y017258*
X021375Y01732*
X021389Y017392*
X021375Y017464*
X021334Y017525*
X021273Y017566*
X021201Y01758*
G37*
G36*
X032687Y017689D02*
X032615Y017674D01*
X032554Y017633*
X032513Y017572*
X032498Y0175*
X032513Y017428*
X032554Y017367*
X032615Y017326*
X032687Y017311*
X032759Y017326*
X03282Y017367*
X032861Y017428*
X032876Y0175*
X032861Y017572*
X03282Y017633*
X032759Y017674*
X032687Y017689*
G37*
G36*
X022135Y017523D02*
X022097Y017515D01*
X022023Y017465*
X021973Y017391*
X021966Y017353*
X022135*
Y017523*
G37*
G36*
X022235D02*
Y017353D01*
X022404*
X022397Y017391*
X022347Y017465*
X022273Y017515*
X022235Y017523*
G37*
G36*
X033749Y017483D02*
X033711Y017476D01*
X033637Y017426*
X033587Y017352*
X03358Y017314*
X033749*
Y017483*
G37*
G36*
X033849D02*
Y017314D01*
X034019*
X034011Y017352*
X033961Y017426*
X033887Y017476*
X033849Y017483*
G37*
G36*
X033749Y017214D02*
X03358D01*
X033587Y017176*
X033637Y017102*
X033711Y017052*
X033749Y017044*
Y017214*
G37*
G36*
X034019D02*
X033849D01*
Y017044*
X033887Y017052*
X033961Y017102*
X034011Y017176*
X034019Y017214*
G37*
G36*
X028465Y017305D02*
X028392Y01729D01*
X028331Y01725*
X02829Y017188*
X028276Y017116*
X02829Y017044*
X028331Y016983*
X028392Y016942*
X028465Y016928*
X028537Y016942*
X028598Y016983*
X028639Y017044*
X028653Y017116*
X028639Y017188*
X028598Y01725*
X028537Y01729*
X028465Y017305*
G37*
G36*
X022776Y017403D02*
X022703Y017389D01*
X022642Y017348*
X022601Y017287*
X022587Y017215*
X022601Y017142*
X022642Y017081*
X022703Y01704*
X022776Y017026*
X022848Y01704*
X022909Y017081*
X02295Y017142*
X022964Y017215*
X02295Y017287*
X022909Y017348*
X022848Y017389*
X022776Y017403*
G37*
G36*
X01502Y017227D02*
Y017058D01*
X01519*
X015182Y017096*
X015133Y01717*
X015058Y01722*
X01502Y017227*
G37*
G36*
X01492D02*
X014883Y01722D01*
X014808Y01717*
X014759Y017096*
X014757Y017087*
X014704Y017077*
X0147Y017082*
X014639Y017123*
X014567Y017137*
X014495Y017123*
X014434Y017082*
X014393Y017021*
X014378Y016949*
X014393Y016877*
X014434Y016815*
X014495Y016775*
X014567Y01676*
X014639Y016775*
X0147Y016815*
X014734Y016866*
X014773Y016873*
X014791Y016871*
X014808Y016846*
X014883Y016796*
X01492Y016788*
Y017008*
Y017227*
G37*
G36*
X022135Y017253D02*
X021966D01*
X021973Y017215*
X022023Y017141*
X022097Y017091*
X022135Y017084*
Y017253*
G37*
G36*
X023356Y017227D02*
X023318Y01722D01*
X023243Y01717*
X023194Y017096*
X023186Y017058*
X023356*
Y017227*
G37*
G36*
X023456D02*
Y017058D01*
X023625*
X023617Y017096*
X023568Y01717*
X023493Y01722*
X023456Y017227*
G37*
G36*
X016133Y01641D02*
Y016241D01*
X016302*
X016295Y016279*
X016245Y016353*
X01617Y016403*
X016133Y01641*
G37*
G36*
X023602Y015809D02*
X02353Y015794D01*
X023469Y015753*
X023428Y015692*
X023414Y01562*
X023428Y015548*
X023469Y015487*
X02353Y015446*
X023602Y015431*
X023675Y015446*
X023736Y015487*
X023777Y015548*
X023791Y01562*
X023777Y015692*
X023736Y015753*
X023675Y015794*
X023602Y015809*
G37*
G36*
X027539Y015907D02*
X027467Y015893D01*
X027406Y015852*
X027365Y015791*
X027351Y015718*
X027365Y015646*
X027406Y015585*
X027467Y015544*
X027539Y01553*
X027612Y015544*
X027673Y015585*
X027714Y015646*
X027728Y015718*
X027714Y015791*
X027673Y015852*
X027612Y015893*
X027539Y015907*
G37*
G36*
X010856Y01573D02*
X010784Y015716D01*
X010723Y015675*
X010682Y015614*
X010668Y015541*
X010682Y015469*
X010723Y015408*
X010742Y015395*
Y015335*
X010704Y01531*
X010654Y015235*
X010647Y015198*
X011086*
X011078Y015235*
X011028Y01531*
X010981Y015342*
X01098Y015402*
X01099Y015408*
X011031Y015469*
X011045Y015541*
X011031Y015614*
X01099Y015675*
X010928Y015716*
X010856Y01573*
G37*
G36*
X0194Y015779D02*
X019327Y015765D01*
X019266Y015724*
X019225Y015663*
X019211Y015591*
X019225Y015518*
X019266Y015457*
X019327Y015416*
X0194Y015402*
X019472Y015416*
X019533Y015457*
X019574Y015518*
X019588Y015591*
X019574Y015663*
X019533Y015724*
X019472Y015765*
X0194Y015779*
G37*
G36*
X017056Y015741D02*
X017019Y015734D01*
X016944Y015684*
X016894Y015609*
X016887Y015572*
X017056*
Y015741*
G37*
G36*
X013228Y016173D02*
X013156Y016159D01*
X013095Y016118*
X013054Y016056*
X01304Y015984*
X013054Y015912*
X013095Y015851*
X013156Y01581*
X013228Y015796*
X013301Y01581*
X013362Y015851*
X013403Y015912*
X013417Y015984*
X013403Y016056*
X013362Y016118*
X013301Y016159*
X013228Y016173*
G37*
G36*
X010416Y015974D02*
X010247D01*
Y015804*
X010285Y015812*
X010359Y015861*
X010409Y015936*
X010416Y015974*
G37*
G36*
X017156Y015741D02*
Y015572D01*
X017326*
X017318Y015609*
X017269Y015684*
X017194Y015734*
X017156Y015741*
G37*
G36*
X01872Y01638D02*
X018648Y016365D01*
X018587Y016324*
X018546Y016263*
X018532Y016191*
X018546Y016119*
X01857Y016084*
X01856Y016033*
X018553Y016026*
X018499Y01599*
X018458Y015928*
X018443Y015856*
X018458Y015784*
X018499Y015723*
X01856Y015682*
X018632Y015668*
X018704Y015682*
X018765Y015723*
X018806Y015784*
X018821Y015856*
X018806Y015928*
X018783Y015964*
X018792Y016015*
X0188Y016021*
X018854Y016058*
X018895Y016119*
X018909Y016191*
X018895Y016263*
X018854Y016324*
X018793Y016365*
X01872Y01638*
G37*
G36*
X022018Y015041D02*
X021946Y015027D01*
X021884Y014986*
X021843Y014925*
X021829Y014852*
X021843Y01478*
X021884Y014719*
X021946Y014678*
X022018Y014664*
X02209Y014678*
X022151Y014719*
X022192Y01478*
X022206Y014852*
X022192Y014925*
X022151Y014986*
X02209Y015027*
X022018Y015041*
G37*
G36*
X016329Y015198D02*
X016257Y015184D01*
X016195Y015143*
X016154Y015082*
X01614Y01501*
X016154Y014938*
X016195Y014876*
X016257Y014836*
X016329Y014821*
X016401Y014836*
X016462Y014876*
X016503Y014938*
X016517Y01501*
X016503Y015082*
X016462Y015143*
X016401Y015184*
X016329Y015198*
G37*
G36*
X016103Y014757D02*
Y014587D01*
X016273*
X016265Y014625*
X016215Y0147*
X016141Y014749*
X016103Y014757*
G37*
G36*
X023071Y014982D02*
X022999Y014968D01*
X022937Y014927*
X022897Y014865*
X022882Y014793*
X022897Y014721*
X022937Y01466*
X022999Y014619*
X023071Y014605*
X023143Y014619*
X023204Y01466*
X023245Y014721*
X023259Y014793*
X023245Y014865*
X023204Y014927*
X023143Y014968*
X023071Y014982*
G37*
G36*
X010816Y015098D02*
X010647D01*
X010654Y01506*
X010704Y014985*
X010778Y014936*
X010816Y014928*
Y015098*
G37*
G36*
X03123Y015464D02*
X031158Y01545D01*
X031097Y015409*
X031056Y015348*
X031042Y015276*
X031056Y015203*
X031097Y015142*
X031158Y015101*
X03123Y015087*
X031302Y015101*
X031364Y015142*
X031405Y015203*
X031419Y015276*
X031405Y015348*
X031364Y015409*
X031302Y01545*
X03123Y015464*
G37*
G36*
X024252Y015543D02*
X02418Y015529D01*
X024119Y015488*
X024078Y015427*
X024063Y015354*
X024078Y015282*
X024119Y015221*
X02418Y01518*
X024252Y015166*
X024324Y01518*
X024385Y015221*
X024426Y015282*
X024441Y015354*
X024426Y015427*
X024385Y015488*
X024324Y015529*
X024252Y015543*
G37*
G36*
X011086Y015098D02*
X010916D01*
Y014928*
X010954Y014936*
X011028Y014985*
X011078Y01506*
X011086Y015098*
G37*
G36*
X017326Y015472D02*
X016887D01*
X016894Y015434*
X016944Y015359*
X017019Y01531*
X017075Y015298*
X017099Y015244*
X01709Y01523*
X017075Y015157*
X01709Y015085*
X01713Y015024*
X017192Y014983*
X017264Y014969*
X017336Y014983*
X017397Y015024*
X017438Y015085*
X017452Y015157*
X017438Y01523*
X017397Y015291*
X017336Y015332*
X017313Y015336*
X01729Y015392*
X017318Y015434*
X017326Y015472*
G37*
G36*
X02017Y016259D02*
X020001D01*
Y01609*
X020039Y016097*
X020113Y016147*
X020163Y016221*
X02017Y016259*
G37*
G36*
X022135Y016292D02*
X022097Y016285D01*
X022023Y016235*
X021973Y016161*
X021966Y016123*
X022135*
Y016292*
G37*
G36*
X010247Y016243D02*
Y016074D01*
X010416*
X010409Y016111*
X010359Y016186*
X010285Y016236*
X010247Y016243*
G37*
G36*
X019901Y016259D02*
X019731D01*
X019739Y016221*
X019789Y016147*
X019863Y016097*
X019901Y01609*
Y016259*
G37*
G36*
X022235Y016292D02*
Y016123D01*
X022404*
X022397Y016161*
X022347Y016235*
X022273Y016285*
X022235Y016292*
G37*
G36*
X028515Y016401D02*
Y016231D01*
X028684*
X028677Y016269*
X028627Y016343*
X028552Y016393*
X028515Y016401*
G37*
G36*
X016033Y01641D02*
X015995Y016403D01*
X01592Y016353*
X015871Y016279*
X015863Y016241*
X016033*
Y01641*
G37*
G36*
X034753Y016322D02*
X034715Y016314D01*
X034641Y016265*
X034591Y01619*
X034584Y016152*
X034753*
Y016322*
G37*
G36*
X028415Y016401D02*
X028377Y016393D01*
X028302Y016343*
X028253Y016269*
X028245Y016231*
X028415*
Y016401*
G37*
G36*
X022404Y016023D02*
X022235D01*
Y015853*
X022273Y015861*
X022347Y015911*
X022397Y015985*
X022404Y016023*
G37*
G36*
X034753Y016052D02*
X034584D01*
X034591Y016015*
X034641Y01594*
X034715Y01589*
X034753Y015883*
Y016052*
G37*
G36*
X025069Y016222D02*
X024997Y016208D01*
X024936Y016167*
X024895Y016106*
X02488Y016033*
X024895Y015961*
X024936Y0159*
X024997Y015859*
X025069Y015845*
X025141Y015859*
X025202Y0159*
X025243Y015961*
X025258Y016033*
X025243Y016106*
X025202Y016167*
X025141Y016208*
X025069Y016222*
G37*
G36*
X022135Y016023D02*
X021966D01*
X021973Y015985*
X022023Y015911*
X022097Y015861*
X022135Y015853*
Y016023*
G37*
G36*
X028415Y016131D02*
X028245D01*
X028253Y016093*
X028302Y016019*
X028377Y015969*
X028415Y015962*
Y016131*
G37*
G36*
X016302Y016141D02*
X016133D01*
Y015971*
X01617Y015979*
X016245Y016029*
X016295Y016103*
X016302Y016141*
G37*
G36*
X023652Y016399D02*
X023579Y016385D01*
X023518Y016344*
X023477Y016283*
X023463Y016211*
X023477Y016138*
X023518Y016077*
X023579Y016036*
X023652Y016022*
X023724Y016036*
X023785Y016077*
X023826Y016138*
X02384Y016211*
X023826Y016283*
X023785Y016344*
X023724Y016385*
X023652Y016399*
G37*
G36*
X028684Y016131D02*
X028515D01*
Y015962*
X028552Y015969*
X028627Y016019*
X028677Y016093*
X028684Y016131*
G37*
G36*
X016033Y016141D02*
X015863D01*
X015871Y016103*
X01592Y016029*
X015995Y015979*
X016033Y015971*
Y016141*
G37*
G36*
X028248Y019785D02*
X028176Y019771D01*
X028115Y01973*
X028074Y019669*
X028059Y019596*
X028074Y019524*
X028115Y019463*
X028176Y019422*
X028248Y019408*
X02832Y019422*
X028381Y019463*
X028422Y019524*
X028437Y019596*
X028422Y019669*
X028381Y01973*
X02832Y019771*
X028248Y019785*
G37*
G36*
X022982Y019824D02*
X02291Y01981D01*
X022849Y019769*
X022808Y019708*
X022794Y019636*
X022808Y019564*
X022849Y019502*
X02291Y019462*
X022982Y019447*
X023054Y019462*
X023116Y019502*
X023157Y019564*
X023171Y019636*
X023157Y019708*
X023116Y019769*
X023054Y01981*
X022982Y019824*
G37*
G36*
X019045Y019647D02*
X018973Y019633D01*
X018912Y019592*
X018871Y019531*
X018857Y019459*
X018871Y019386*
X018912Y019325*
X018973Y019284*
X019045Y01927*
X019117Y019284*
X019179Y019325*
X01922Y019386*
X019234Y019459*
X01922Y019531*
X019179Y019592*
X019117Y019633*
X019045Y019647*
G37*
G36*
X027244Y019578D02*
X027172Y019564D01*
X027111Y019523*
X02707Y019462*
X027055Y01939*
X027068Y019329*
X027063Y019325*
X027024Y019303*
X026972Y019338*
X0269Y019352*
X026827Y019338*
X026766Y019297*
X026725Y019236*
X026711Y019163*
X026714Y019149*
X026688Y01913*
X026668Y019123*
X026609Y019168*
X026534Y0192*
X026453Y01921*
X026372Y0192*
X026296Y019168*
X026232Y019119*
X026182Y019054*
X026151Y018979*
X02614Y018898*
X026151Y018817*
X026182Y018741*
X026232Y018677*
X026296Y018627*
X026372Y018596*
X026453Y018585*
X026534Y018596*
X026609Y018627*
X026674Y018677*
X026724Y018741*
X026755Y018817*
X026765Y018898*
X026755Y018977*
X026757Y018981*
X026796Y01901*
X026827Y018989*
X0269Y018975*
X026972Y018989*
X027033Y01903*
X027074Y019091*
X027088Y019163*
X027076Y019224*
X027081Y019228*
X027119Y019251*
X027172Y019216*
X027244Y019201*
X027261Y019205*
X027283Y019158*
X027232Y019119*
X027182Y019054*
X027151Y018979*
X02714Y018898*
X027151Y018817*
X027182Y018741*
X027232Y018677*
X027296Y018627*
X027372Y018596*
X027453Y018585*
X027534Y018596*
X027609Y018627*
X027674Y018677*
X027724Y018741*
X027755Y018817*
X027765Y018898*
X027755Y018979*
X027724Y019054*
X027674Y019119*
X027609Y019168*
X027534Y0192*
X027453Y01921*
X027385Y019201*
X027367Y019249*
X027377Y019256*
X027418Y019318*
X027433Y01939*
X027418Y019462*
X027377Y019523*
X027316Y019564*
X027244Y019578*
G37*
G36*
X014774Y019834D02*
X014701Y01982D01*
X01464Y019779*
X014599Y019718*
X014585Y019646*
X014599Y019573*
X01464Y019512*
X014701Y019471*
X014774Y019457*
X014846Y019471*
X014907Y019512*
X014948Y019573*
X014962Y019646*
X014948Y019718*
X014907Y019779*
X014846Y01982*
X014774Y019834*
G37*
G36*
X029202Y019698D02*
X029164Y01969D01*
X02909Y019641*
X02904Y019566*
X029033Y019528*
X029202*
Y019698*
G37*
G36*
X029302D02*
Y019528D01*
X029471*
X029464Y019566*
X029414Y019641*
X02934Y01969*
X029302Y019698*
G37*
G36*
X017411Y019629D02*
X017373Y019621D01*
X017298Y019572*
X017249Y019497*
X017241Y019459*
X017411*
Y019629*
G37*
G36*
X017511D02*
Y019459D01*
X01768*
X017673Y019497*
X017623Y019572*
X017548Y019621*
X017511Y019629*
G37*
G36*
X024403Y019244D02*
X024361Y019239D01*
X024276Y019203*
X024203Y019147*
X024147Y019074*
X024112Y018989*
X024106Y018948*
X024403*
Y019244*
G37*
G36*
X024503D02*
Y018948D01*
X024799*
X024794Y018989*
X024758Y019074*
X024702Y019147*
X024629Y019203*
X024544Y019239*
X024503Y019244*
G37*
G36*
X013209Y020002D02*
X013136Y019987D01*
X013075Y019946*
X013034Y019885*
X01302Y019813*
X013034Y019741*
X013075Y01968*
X013136Y019639*
X013156Y019635*
Y019584*
X013095Y019543*
X013054Y019482*
X01304Y019409*
X013054Y019337*
X013095Y019276*
X013156Y019235*
X013171Y019232*
X01318Y01918*
X013134Y019149*
X013093Y019088*
X013079Y019016*
X013093Y018944*
X013134Y018882*
X013196Y018841*
X013268Y018827*
X01334Y018841*
X013401Y018882*
X013442Y018944*
X013456Y019016*
X013442Y019088*
X013401Y019149*
X01334Y01919*
X013325Y019193*
X013316Y019246*
X013362Y019276*
X013403Y019337*
X013417Y019409*
X013403Y019482*
X013362Y019543*
X013301Y019584*
X013281Y019588*
Y019639*
X013342Y01968*
X013383Y019741*
X013397Y019813*
X013383Y019885*
X013342Y019946*
X013281Y019987*
X013209Y020002*
G37*
G36*
X022244Y019462D02*
X022098Y019443D01*
X021962Y019387*
X021845Y019297*
X021755Y01918*
X021699Y019044*
X021679Y018898*
X021699Y018751*
X021755Y018615*
X021845Y018498*
X021962Y018408*
X022098Y018352*
X022244Y018333*
X02239Y018352*
X022527Y018408*
X022643Y018498*
X022733Y018615*
X02279Y018751*
X022809Y018898*
X022807Y018916*
X022836Y018933*
X022854Y018938*
X022911Y018901*
X022983Y018886*
X023055Y018901*
X023116Y018941*
X023157Y019003*
X023172Y019075*
X023157Y019147*
X023116Y019208*
X023055Y019249*
X022983Y019263*
X022911Y019249*
X02285Y019208*
X022809Y019147*
X022806Y019135*
X022754Y01913*
X022733Y01918*
X022643Y019297*
X022527Y019387*
X02239Y019443*
X022244Y019462*
G37*
G36*
X01997Y019254D02*
X019898Y019239D01*
X019837Y019198*
X019796Y019137*
Y019135*
X019743Y019125*
X01974Y019129*
X019678Y01917*
X019606Y019185*
X019534Y01917*
X019473Y019129*
X019432Y019068*
X019418Y018996*
X019423Y018967*
X019381Y018925*
X01936Y018929*
X019288Y018914*
X019227Y018874*
X019186Y018812*
X019172Y01874*
X019186Y018668*
X019227Y018607*
X019288Y018566*
X01936Y018552*
X019432Y018566*
X019494Y018607*
X019534Y018668*
X019549Y01874*
X019543Y018769*
X019586Y018812*
X019606Y018807*
X019648Y018816*
X019678Y018771*
X01967Y018759*
X019662Y018721*
X020101*
X020094Y018759*
X020044Y018833*
X020032Y018842*
X020042Y018891*
X020043*
X020104Y018932*
X020145Y018993*
X020159Y019065*
X020145Y019137*
X020104Y019198*
X020043Y019239*
X01997Y019254*
G37*
G36*
X029202Y019428D02*
X029033D01*
X02904Y019391*
X02909Y019316*
X029164Y019266*
X029202Y019259*
Y019428*
G37*
G36*
X029471D02*
X029302D01*
Y019259*
X02934Y019266*
X029414Y019316*
X029464Y019391*
X029471Y019428*
G37*
G36*
X017411Y019359D02*
X017241D01*
X017249Y019322*
X017298Y019247*
X017373Y019197*
X017411Y01919*
Y019359*
G37*
G36*
X01768D02*
X017511D01*
Y01919*
X017548Y019197*
X017623Y019247*
X017673Y019322*
X01768Y019359*
G37*
G36*
X024134Y020553D02*
X024062Y020538D01*
X024Y020498*
X02396Y020436*
X023945Y020364*
X02396Y020292*
X024Y020231*
X024062Y02019*
X024134Y020176*
X024206Y02019*
X024267Y020231*
X024308Y020292*
X024322Y020364*
X024308Y020436*
X024267Y020498*
X024206Y020538*
X024134Y020553*
G37*
G36*
X019251Y020383D02*
X019082D01*
X019089Y020345*
X019139Y020271*
X019213Y020221*
X019251Y020214*
Y020383*
G37*
G36*
X033907Y020435D02*
X033835Y02042D01*
X033774Y020379*
X033733Y020318*
X033719Y020246*
X033733Y020174*
X033774Y020113*
X033835Y020072*
X033907Y020057*
X03398Y020072*
X034041Y020113*
X034082Y020174*
X034096Y020246*
X034082Y020318*
X034041Y020379*
X03398Y02042*
X033907Y020435*
G37*
G36*
X034753Y020259D02*
X034715Y020251D01*
X034641Y020202*
X034591Y020127*
X034584Y020089*
X034753*
Y020259*
G37*
G36*
X019521Y020383D02*
X019351D01*
Y020214*
X019389Y020221*
X019463Y020271*
X019513Y020345*
X019521Y020383*
G37*
G36*
X020492Y020809D02*
X02042Y020794D01*
X020359Y020753*
X020318Y020692*
X020303Y02062*
X020318Y020548*
X020359Y020487*
X02042Y020446*
X020492Y020431*
X020564Y020446*
X020626Y020487*
X020666Y020548*
X020681Y02062*
X020666Y020692*
X020626Y020753*
X020564Y020794*
X020492Y020809*
G37*
G36*
X017875Y020938D02*
Y020719D01*
Y020499*
X017913Y020507*
X017987Y020556*
X018033Y020625*
X018055Y020626*
X018085Y02062*
X018093Y020577*
X018134Y020516*
X018196Y020475*
X018268Y020461*
X01834Y020475*
X018401Y020516*
X018442Y020577*
X018456Y02065*
X018442Y020722*
X018401Y020783*
X01834Y020824*
X018268Y020838*
X018196Y020824*
X018134Y020783*
X018102Y020735*
X01805Y02074*
X018037Y020806*
X017987Y020881*
X017913Y02093*
X017875Y020938*
G37*
G36*
X023465Y02072D02*
X023392Y020706D01*
X023331Y020665*
X02329Y020604*
X023276Y020531*
X02329Y020459*
X023331Y020398*
X023392Y020357*
X023465Y020343*
X023537Y020357*
X023598Y020398*
X023639Y020459*
X023653Y020531*
X023639Y020604*
X023598Y020665*
X023537Y020706*
X023465Y02072*
G37*
G36*
X012421Y02074D02*
X012349Y020725D01*
X012288Y020685*
X012247Y020623*
X012233Y020551*
X012247Y020479*
X012288Y020418*
X012349Y020377*
X012421Y020363*
X012493Y020377*
X012555Y020418*
X012596Y020479*
X01261Y020551*
X012596Y020623*
X012555Y020685*
X012493Y020725*
X012421Y02074*
G37*
G36*
X026536Y020081D02*
X026464Y020067D01*
X026403Y020026*
X026362Y019965*
X026348Y019892*
X026362Y01982*
X026403Y019759*
X026464Y019718*
X026536Y019704*
X026608Y019718*
X02667Y019759*
X026711Y01982*
X026725Y019892*
X026711Y019965*
X02667Y020026*
X026608Y020067*
X026536Y020081*
G37*
G36*
X023848Y02011D02*
X023776Y020096D01*
X023715Y020055*
X023674Y019993*
X02366Y019921*
X023674Y019849*
X023715Y019788*
X023776Y019747*
X023848Y019733*
X023921Y019747*
X023982Y019788*
X024023Y019849*
X024037Y019921*
X024023Y019993*
X023982Y020055*
X023921Y020096*
X023848Y02011*
G37*
G36*
X029685Y019933D02*
X029613Y019918D01*
X029552Y019877*
X029511Y019816*
X029496Y019744*
X029511Y019672*
X029552Y019611*
X029613Y01957*
X029685Y019555*
X029757Y01957*
X029818Y019611*
X029859Y019672*
X029874Y019744*
X029859Y019816*
X029818Y019877*
X029757Y019918*
X029685Y019933*
G37*
G36*
X022126Y020061D02*
X022054Y020046D01*
X021993Y020005*
X021952Y019944*
X021937Y019872*
X021952Y0198*
X021993Y019739*
X022054Y019698*
X022126Y019683*
X022198Y019698*
X022259Y019739*
X0223Y0198*
X022315Y019872*
X0223Y019944*
X022259Y020005*
X022198Y020046*
X022126Y020061*
G37*
G36*
X010416Y019911D02*
X010247D01*
Y019741*
X010285Y019749*
X010359Y019798*
X010409Y019873*
X010416Y019911*
G37*
G36*
X017933Y020385D02*
X017861Y020371D01*
X0178Y02033*
X017759Y020269*
X017744Y020197*
X017759Y020125*
X0178Y020063*
X017861Y020023*
X017933Y020008*
X018005Y020023*
X018066Y020063*
X018107Y020125*
X018122Y020197*
X018107Y020269*
X018066Y02033*
X018005Y020371*
X017933Y020385*
G37*
G36*
X010247Y02018D02*
Y020011D01*
X010416*
X010409Y020048*
X010359Y020123*
X010285Y020173*
X010247Y02018*
G37*
G36*
X034753Y019989D02*
X034584D01*
X034591Y019952*
X034641Y019877*
X034715Y019827*
X034753Y01982*
Y019989*
G37*
G36*
X02122Y020346D02*
X021148Y020332D01*
X021087Y020291*
X021046Y02023*
X021032Y020157*
X021046Y020085*
X021087Y020024*
X021148Y019983*
X02122Y019969*
X021293Y019983*
X021354Y020024*
X021395Y020085*
X021409Y020157*
X021395Y02023*
X021354Y020291*
X021293Y020332*
X02122Y020346*
G37*
G36*
X02376Y019185D02*
X023688Y01917D01*
X023626Y019129*
X023586Y019068*
X023571Y018996*
X023586Y018924*
X023626Y018863*
X023688Y018822*
X02376Y018807*
X023832Y018822*
X023893Y018863*
X023934Y018924*
X023948Y018996*
X023934Y019068*
X023893Y019129*
X023832Y01917*
X02376Y019185*
G37*
G36*
X026676Y018129D02*
X026507D01*
Y01796*
X026544Y017967*
X026619Y018017*
X026669Y018091*
X026676Y018129*
G37*
G36*
X017303Y018358D02*
X017231Y018344D01*
X01717Y018303*
X017129Y018241*
X017115Y018169*
X017129Y018097*
X01717Y018036*
X017231Y017995*
X017303Y017981*
X017375Y017995*
X017437Y018036*
X017477Y018097*
X017492Y018169*
X017477Y018241*
X017437Y018303*
X017375Y018344*
X017303Y018358*
G37*
G36*
X034753Y018021D02*
X034584D01*
X034591Y017983*
X034641Y017909*
X034715Y017859*
X034753Y017851*
Y018021*
G37*
G36*
X026407Y018129D02*
X026237D01*
X026245Y018091*
X026294Y018017*
X026369Y017967*
X026407Y01796*
Y018129*
G37*
G36*
X010247Y018212D02*
Y018042D01*
X010416*
X010409Y01808*
X010359Y018154*
X010285Y018204*
X010247Y018212*
G37*
G36*
X026024Y018515D02*
X025951Y018501D01*
X02589Y01846*
X025849Y018399*
X025835Y018327*
X025849Y018255*
X02589Y018193*
X025951Y018153*
X026024Y018138*
X026096Y018153*
X026157Y018193*
X026189Y018241*
X026216Y018229*
X026407*
Y018399*
X026369Y018391*
X026294Y018341*
X026254Y018281*
X026207Y0183*
X026212Y018327*
X026198Y018399*
X026157Y01846*
X026096Y018501*
X026024Y018515*
G37*
G36*
X026507Y018399D02*
Y018229D01*
X026676*
X026669Y018267*
X026619Y018341*
X026544Y018391*
X026507Y018399*
G37*
G36*
X034753Y01829D02*
X034715Y018283D01*
X034641Y018233*
X034591Y018159*
X034584Y018121*
X034753*
Y01829*
G37*
G36*
X014774Y019352D02*
X014701Y019338D01*
X01464Y019297*
X014599Y019236*
X014585Y019163*
X014599Y019091*
X01464Y01903*
X014673Y019008*
Y018948*
X01465Y018933*
X014609Y018872*
X014595Y018799*
X014609Y018727*
X01465Y018666*
X014712Y018625*
X014742Y018619*
X014748Y018584*
X014747Y018567*
X014689Y018529*
X014649Y018468*
X014634Y018396*
X014649Y018323*
X014689Y018262*
X014751Y018221*
X014823Y018207*
X014895Y018221*
X014956Y018262*
X014997Y018323*
X015011Y018396*
X014997Y018468*
X014956Y018529*
X014895Y01857*
X014865Y018576*
X014858Y018612*
X01486Y018628*
X014917Y018666*
X014958Y018727*
X014972Y018799*
X014958Y018872*
X014917Y018933*
X014884Y018955*
Y019015*
X014907Y01903*
X014948Y019091*
X014962Y019163*
X014948Y019236*
X014907Y019297*
X014846Y019338*
X014774Y019352*
G37*
G36*
X024567Y017836D02*
X024495Y017822D01*
X024434Y017781*
X024393Y01772*
X024378Y017648*
X024393Y017575*
X024434Y017514*
X024495Y017473*
X024567Y017459*
X024639Y017473*
X0247Y017514*
X024741Y017575*
X024756Y017648*
X024741Y01772*
X0247Y017781*
X024639Y017822*
X024567Y017836*
G37*
G36*
X025737Y017838D02*
X0257Y01783D01*
X025625Y01778*
X025575Y017706*
X025568Y017668*
X025737*
Y017838*
G37*
G36*
Y017568D02*
X025568D01*
X025575Y01753*
X025625Y017456*
X0257Y017406*
X025737Y017399*
Y017568*
G37*
G36*
X026007D02*
X025837D01*
Y017399*
X025875Y017406*
X02595Y017456*
X025999Y01753*
X026007Y017568*
G37*
G36*
X025837Y017838D02*
Y017668D01*
X026007*
X025999Y017706*
X02595Y01778*
X025875Y01783*
X025837Y017838*
G37*
G36*
X024134Y018171D02*
X024062Y018157D01*
X024Y018116*
X02396Y018054*
X023945Y017982*
X02396Y01791*
X024Y017849*
X024034Y017827*
X024014Y017779*
X023976Y017787*
X023904Y017773*
X023843Y017732*
X023802Y017671*
X023788Y017598*
X023802Y017526*
X023843Y017465*
X023904Y017424*
X023976Y01741*
X024049Y017424*
X02411Y017465*
X024151Y017526*
X024165Y017598*
X024151Y017671*
X02411Y017732*
X024076Y017754*
X024096Y017801*
X024134Y017794*
X024206Y017808*
X024267Y017849*
X024308Y01791*
X024322Y017982*
X024308Y018054*
X024267Y018116*
X024206Y018157*
X024134Y018171*
G37*
G36*
X021319Y018181D02*
X021247Y018166D01*
X021186Y018125*
X021145Y018064*
X02113Y017992*
X021145Y01792*
X021186Y017859*
X021247Y017818*
X021319Y017803*
X021391Y017818*
X021452Y017859*
X021493Y01792*
X021508Y017992*
X021493Y018064*
X021452Y018125*
X021391Y018166*
X021319Y018181*
G37*
G36*
X029596Y018122D02*
X029524Y018107D01*
X029463Y018066*
X029422Y018005*
X029408Y017933*
X029422Y017861*
X029463Y0178*
X029524Y017759*
X029596Y017744*
X029669Y017759*
X02973Y0178*
X029771Y017861*
X029785Y017933*
X029771Y018005*
X02973Y018066*
X029669Y018107*
X029596Y018122*
G37*
G36*
X010416Y017942D02*
X010247D01*
Y017773*
X010285Y01778*
X010359Y01783*
X010409Y017904*
X010416Y017942*
G37*
G36*
X029453Y01921D02*
X029372Y0192D01*
X029296Y019168*
X029232Y019119*
X029182Y019054*
X029151Y018979*
X02914Y018898*
X029151Y018817*
X029182Y018741*
X029232Y018677*
X029296Y018627*
X029372Y018596*
X029453Y018585*
X029534Y018596*
X029609Y018627*
X029674Y018677*
X029724Y018741*
X029755Y018817*
X029765Y018898*
X029755Y018979*
X029724Y019054*
X029674Y019119*
X029609Y019168*
X029534Y0192*
X029453Y01921*
G37*
G36*
X030453D02*
X030372Y0192D01*
X030296Y019168*
X030232Y019119*
X030182Y019054*
X030151Y018979*
X03014Y018898*
X030151Y018817*
X030182Y018741*
X030232Y018677*
X030296Y018627*
X030372Y018596*
X030453Y018585*
X030534Y018596*
X030609Y018627*
X030674Y018677*
X030724Y018741*
X030755Y018817*
X030765Y018898*
X030755Y018979*
X030724Y019054*
X030674Y019119*
X030609Y019168*
X030534Y0192*
X030453Y01921*
G37*
G36*
X025453D02*
X025372Y0192D01*
X025296Y019168*
X025232Y019119*
X025182Y019054*
X025151Y018979*
X02514Y018898*
X025151Y018817*
X025182Y018741*
X025232Y018677*
X025296Y018627*
X025372Y018596*
X025453Y018585*
X025534Y018596*
X025609Y018627*
X025674Y018677*
X025724Y018741*
X025755Y018817*
X025765Y018898*
X025755Y018979*
X025724Y019054*
X025674Y019119*
X025609Y019168*
X025534Y0192*
X025453Y01921*
G37*
G36*
X028453D02*
X028372Y0192D01*
X028296Y019168*
X028232Y019119*
X028182Y019054*
X028151Y018979*
X02814Y018898*
X028151Y018817*
X028182Y018741*
X028232Y018677*
X028296Y018627*
X028372Y018596*
X028453Y018585*
X028534Y018596*
X028609Y018627*
X028674Y018677*
X028724Y018741*
X028755Y018817*
X028765Y018898*
X028755Y018979*
X028724Y019054*
X028674Y019119*
X028609Y019168*
X028534Y0192*
X028453Y01921*
G37*
G36*
X031763Y019208D02*
X031143D01*
Y018588*
X031763*
Y019208*
G37*
G36*
X016407Y019067D02*
X016335Y019052D01*
X016274Y019011*
X016233Y01895*
X016219Y018878*
X016233Y018806*
X016274Y018745*
X016335Y018704*
X016407Y018689*
X01648Y018704*
X016541Y018745*
X016582Y018806*
X016596Y018878*
X016582Y01895*
X016541Y019011*
X01648Y019052*
X016407Y019067*
G37*
G36*
X010984Y020004D02*
X010861Y019992D01*
X010742Y019956*
X010632Y019897*
X010536Y019818*
X010457Y019722*
X010399Y019613*
X010363Y019494*
X01035Y01937*
X010363Y019246*
X010399Y019127*
X010457Y019018*
X010536Y018922*
X010632Y018843*
X010742Y018784*
X010861Y018748*
X010984Y018736*
X011108Y018748*
X011227Y018784*
X011336Y018843*
X011432Y018922*
X011511Y019018*
X01157Y019127*
X011606Y019246*
X011618Y01937*
X011606Y019494*
X01157Y019613*
X011511Y019722*
X011432Y019818*
X011336Y019897*
X011227Y019956*
X011108Y019992*
X010984Y020004*
G37*
G36*
X018572Y018773D02*
X018534Y018765D01*
X01846Y018715*
X01841Y018641*
X018405Y018613*
X018349Y01859*
X01832Y018609*
X018248Y018624*
X018176Y018609*
X018115Y018568*
X018074Y018507*
X018059Y018435*
X018074Y018363*
X018115Y018302*
X018176Y018261*
X018248Y018246*
X01832Y018261*
X018381Y018302*
X018422Y018363*
Y018364*
X018477Y01838*
X018534Y018341*
X018572Y018334*
Y018553*
Y018773*
G37*
G36*
X018672D02*
Y018603D01*
X018842*
X018834Y018641*
X018784Y018715*
X01871Y018765*
X018672Y018773*
G37*
G36*
X013238Y018781D02*
X013166Y018767D01*
X013105Y018726*
X013064Y018665*
X01305Y018593*
X013064Y01852*
X013105Y018459*
X013166Y018418*
X013238Y018404*
X01331Y018418*
X013372Y018459*
X013412Y01852*
X013427Y018593*
X013412Y018665*
X013372Y018726*
X01331Y018767*
X013238Y018781*
G37*
G36*
X019832Y018621D02*
X019662D01*
X01967Y018583*
X01972Y018509*
X019794Y018459*
X019832Y018452*
Y018621*
G37*
G36*
X033661Y019462D02*
X033515Y019443D01*
X033379Y019387*
X033262Y019297*
X033172Y01918*
X033116Y019044*
X033097Y018898*
X033116Y018751*
X033172Y018615*
X033262Y018498*
X033379Y018408*
X033515Y018352*
X033661Y018333*
X033808Y018352*
X033944Y018408*
X034061Y018498*
X034151Y018615*
X034207Y018751*
X034226Y018898*
X034207Y019044*
X034151Y01918*
X034061Y019297*
X033944Y019387*
X033808Y019443*
X033661Y019462*
G37*
G36*
X018842Y018503D02*
X018672D01*
Y018334*
X01871Y018341*
X018784Y018391*
X018834Y018465*
X018842Y018503*
G37*
G36*
X020101Y018621D02*
X019932D01*
Y018452*
X01997Y018459*
X020044Y018509*
X020094Y018583*
X020101Y018621*
G37*
G36*
X024799Y018848D02*
X024503D01*
Y018551*
X024544Y018557*
X024629Y018592*
X024702Y018648*
X024758Y018721*
X024794Y018806*
X024799Y018848*
G37*
G36*
X024403D02*
X024106D01*
X024112Y018806*
X024147Y018721*
X024203Y018648*
X024276Y018592*
X024361Y018557*
X024403Y018551*
Y018848*
G37*
G36*
X02126Y01883D02*
X021188Y018816D01*
X021126Y018775*
X021086Y018714*
X021071Y018642*
X021086Y01857*
X021126Y018508*
X021188Y018467*
X02126Y018453*
X021332Y018467*
X021393Y018508*
X021434Y01857*
X021448Y018642*
X021434Y018714*
X021393Y018775*
X021332Y018816*
X02126Y01883*
G37*
G36*
X016841Y018889D02*
X016768Y018875D01*
X016707Y018834*
X016666Y018773*
X016652Y018701*
X016666Y018629*
X016707Y018567*
X016768Y018527*
X016841Y018512*
X016913Y018527*
X016974Y018567*
X017015Y018629*
X017029Y018701*
X017015Y018773*
X016974Y018834*
X016913Y018875*
X016841Y018889*
G37*
%LNee4951_bpm_reva-3*%
%LPD*%
G54D67*
X024453Y018898D03*
G54D69*
X013642Y006935D03*
X014142D03*
G54D70*
X033169Y021693D03*
Y024409D03*
G54D72*
X020028Y007323D03*
G54D73*
X020512Y00626D03*
X018543D03*
X016457D03*
X01437D03*
X012283D03*
X022283D03*
X02437D03*
X026457D03*
X028543D03*
X03063D03*
X032717D03*
X010197Y00815D03*
Y010118D03*
Y012087D03*
Y014055D03*
Y016024D03*
Y017992D03*
Y019961D03*
Y021929D03*
Y023898D03*
X014134Y025866D03*
X012165D03*
X034803Y023976D03*
Y022008D03*
Y020039D03*
Y018071D03*
Y016102D03*
Y014134D03*
Y012165D03*
Y010197D03*
Y008228D03*
X010197Y025866D03*
X034803D03*
Y00626D03*
X010197D03*
X030935Y010118D03*
X018209Y024675D03*
X017283Y012421D03*
X02563Y024715D03*
X020876Y013346D03*
X01497Y017008D03*
X023691Y008573D03*
X025787Y017618D03*
X023406Y017008D03*
X012953Y009262D03*
X010551Y014291D03*
X010906Y012047D03*
X015906Y007165D03*
X010866Y015148D03*
X023839Y022087D03*
X019301Y020433D03*
X026457Y018179D03*
X019882Y018671D03*
X020571Y009567D03*
X023848Y010778D03*
X022313Y008553D03*
X029252Y019478D03*
X017825Y020719D03*
X025738Y022766D03*
X016083Y016191D03*
X018622Y018553D03*
X019055Y016752D03*
X018248Y022657D03*
X020148Y02185D03*
X017461Y019409D03*
X020906Y023022D03*
X017421Y02249D03*
X016752Y024783D03*
X020896Y024813D03*
Y011063D03*
X013445Y021594D03*
X01374Y02189D03*
X01315D03*
X011014Y022028D03*
X013159Y024764D03*
X010915Y02501D03*
X015423D03*
X015404Y022795D03*
X011437Y023435D03*
X01747Y010226D03*
X01748Y008642D03*
X022579Y011171D03*
X019183Y01374D03*
X016142Y010413D03*
X012549Y012087D03*
X013179Y012461D03*
X015974Y012333D03*
X017156Y013868D03*
X016053Y014537D03*
X017106Y015522D03*
X028248Y011348D03*
X028661D03*
Y011762D03*
X027835Y013012D03*
X028248D03*
X028661Y013002D03*
Y012569D03*
Y012175D03*
X029685Y022146D03*
X027461Y021319D03*
X02753Y022844D03*
X024665Y023012D03*
X022313Y022106D03*
X019951Y016309D03*
X022185Y016073D03*
Y017303D03*
X026526Y012283D03*
X028465Y016181D03*
X033799Y017264D03*
X023396Y013947D03*
X032795Y007756D03*
X034154Y010276D03*
X033868Y012549D03*
X03252Y013346D03*
X031289Y007047D03*
X025157Y0075D03*
X024941Y009281D03*
X025906Y016614D03*
X027913Y008267D03*
X027441D03*
Y008818D03*
X027913D03*
Y009369D03*
X027441D03*
Y007716D03*
X027913D03*
X032116Y010748D03*
X030935D03*
X030344D03*
X031526D03*
X032707D03*
X032116Y010118D03*
X032707D03*
X030344D03*
X031526D03*
X031506Y0075D03*
M02*