%FSTAX24Y24*%
%MOIN*%
%SFA1B1*%

%IPPOS*%
%AMD166*
4,1,4,0.000000,0.047400,-0.047400,0.000000,0.000000,-0.047400,0.047400,0.000000,0.000000,0.047400,0.0*
%
%ADD104R,0.027700X0.031600*%
%ADD105R,0.031600X0.027700*%
%ADD113R,0.039500X0.043400*%
%ADD118R,0.047400X0.074900*%
%ADD119R,0.063100X0.041500*%
%ADD120R,0.078900X0.043400*%
%ADD126R,0.043400X0.039500*%
%ADD128R,0.043400X0.078900*%
%ADD132R,0.031600X0.078900*%
%ADD135C,0.067100*%
%ADD136R,0.057200X0.045400*%
%ADD139R,0.024700X0.019800*%
%ADD140R,0.030600X0.016900*%
%ADD142R,0.027700X0.047400*%
%ADD143R,0.019000X0.063100*%
%ADD145C,0.011900*%
%ADD146C,0.058000*%
%ADD147R,0.058000X0.058000*%
%ADD148C,0.047400*%
%ADD149C,0.094600*%
%ADD150R,0.094600X0.094600*%
%ADD151C,0.073000*%
%ADD152C,0.033000*%
%ADD153R,0.086700X0.106400*%
%ADD154R,0.027700X0.098600*%
%ADD155R,0.021800X0.053300*%
%ADD156R,0.102500X0.037900*%
%ADD157R,0.037900X0.071000*%
%ADD158R,0.049300X0.031600*%
%ADD159R,0.039500X0.051300*%
%ADD160R,0.019800X0.024700*%
%ADD161R,0.016900X0.030600*%
%ADD162R,0.118200X0.094600*%
%ADD163R,0.041500X0.063100*%
%ADD164R,0.090700X0.063100*%
%ADD165R,0.063100X0.090700*%
G04~CAMADD=166~10~0.0~670.3~0.0~0.0~0.0~0.0~0~0.0~0.0~0.0~0.0~0~0.0~0.0~0.0~0.0~0~0.0~0.0~0.0~405.0~670.3~0.0*
%ADD166D166*%
%ADD167R,0.074900X0.047400*%
%ADD168R,0.031600X0.069000*%
%ADD169R,0.061200X0.023700*%
%ADD170R,0.086700X0.055200*%
%LNee4951_bpm_reva-1*%
%LPD*%
G36*
X035Y006063D02*
X01D01*
Y026063*
X035*
Y006063*
G37*
%LNee4951_bpm_reva-2*%
%LPC*%
G36*
X034213Y025669D02*
X010787D01*
X010394Y025276*
Y00685*
X010787Y006457*
X034213*
X034606Y00685*
Y025276*
X034213Y025669*
G37*
%LNee4951_bpm_reva-3*%
%LPD*%
G54D104*
X021358Y010059D03*
X020965D03*
X022136Y008947D03*
X02253D03*
X024744Y02064D03*
X025138D03*
X023179Y010778D03*
X023573D03*
X022657Y008415D03*
X023051D03*
X018022Y013661D03*
X017628D03*
X015157Y017323D03*
X015551D03*
X022205Y013494D03*
X022598D03*
X022205Y014016D03*
X022598D03*
X031919Y011693D03*
X031526D03*
X017638Y012421D03*
X018032D03*
X016093Y012894D03*
X016486D03*
X029222Y012313D03*
X029616D03*
X029222Y012835D03*
X029616D03*
X020994Y014872D03*
X021388D03*
X017205Y017087D03*
X016811D03*
X025157Y018032D03*
X024764D03*
X033386Y010709D03*
X03378D03*
X025315Y01748D03*
X024921D03*
X033219Y013937D03*
X032825D03*
X026102Y024724D03*
X026496D03*
X024154Y020669D03*
X02376D03*
X018465Y017805D03*
X018071D03*
X018061Y017215D03*
X017667D03*
X01815Y015344D03*
X017756D03*
X017884Y015817D03*
X01749D03*
X028848Y019774D03*
X028455D03*
G54D105*
X013012Y017677D03*
Y017283D03*
X012441Y017746D03*
Y017352D03*
X019715Y014045D03*
Y013652D03*
X013868Y012421D03*
Y012815D03*
X013238Y014882D03*
Y014488D03*
Y013573D03*
Y013967D03*
X024104Y012854D03*
Y012461D03*
X024626Y012825D03*
Y012431D03*
X013238Y015728D03*
Y015335D03*
X013228Y01625D03*
Y016644D03*
X016545Y010876D03*
Y010482D03*
X013386Y012709D03*
Y013102D03*
X012913Y012709D03*
Y013102D03*
X015354Y011685D03*
Y011291D03*
X015827D03*
Y011685D03*
X01564Y012531D03*
Y012925D03*
X026181Y017992D03*
Y017598D03*
X022953Y016496D03*
Y01689D03*
X017539Y020709D03*
Y020315D03*
X023553Y012077D03*
Y01247D03*
X019213Y011575D03*
Y011968D03*
X033022Y008386D03*
Y00878D03*
X023661Y017687D03*
Y017293D03*
X026732Y017992D03*
Y017598D03*
X033209Y013356D03*
Y012963D03*
X028455Y01685D03*
Y016457D03*
X027234Y023248D03*
Y022854D03*
X022972Y021703D03*
Y022096D03*
X027726Y020925D03*
Y021319D03*
G54D113*
X019882Y010689D03*
X020394D03*
X021457Y015453D03*
X020945D03*
X023691Y008947D03*
X023179D03*
X014301Y014656D03*
Y01377D03*
Y015561D03*
Y016427D03*
X010886Y014301D03*
X011398D03*
X011053Y02127D03*
X018327Y020197D03*
X018839D03*
X022992Y024715D03*
X02248D03*
G54D118*
X030896Y012579D03*
X032274D03*
G54D119*
X029291Y010974D03*
Y010285D03*
X026683Y011831D03*
Y011142D03*
G54D120*
X033809Y016949D03*
Y015807D03*
G54D126*
X019882Y012028D03*
Y011516D03*
X020157Y014941D03*
Y015453D03*
X023494Y009646D03*
Y010157D03*
X017982Y019144D03*
Y019656D03*
X023396Y014272D03*
Y014783D03*
X027618Y024665D03*
Y024154D03*
X029537Y024449D03*
Y023937D03*
G54D128*
X024537Y02D03*
X025679D03*
G54D132*
X011438Y013336D03*
X012186D03*
X011812Y012549D03*
X033781Y009013D03*
X034155Y009801D03*
X033407D03*
X027246Y015746D03*
X02762Y016533D03*
X026871D03*
X024378Y025052D03*
X024004Y024264D03*
X024753D03*
G54D135*
X02124Y009439D03*
X016811Y017844D03*
X012205Y01438D03*
X019872Y012785D03*
X022215Y015512D03*
G54D136*
X027362Y013484D03*
Y014783D03*
X028425Y013484D03*
Y014783D03*
X02877Y02372D03*
Y02502D03*
G54D139*
X019872Y018046D03*
Y01847D03*
X019203D03*
Y018046D03*
G54D140*
X019902Y018258D03*
X019173D03*
G54D142*
X020374Y025039D03*
X019941D03*
X019508D03*
X019213D03*
X018642D03*
X018209D03*
X017776D03*
X017343D03*
X018937D03*
G54D143*
X026555Y022248D03*
X026358D03*
X026161D03*
X025965D03*
X025768D03*
Y023933D03*
X025965D03*
X026161D03*
X026358D03*
X026555D03*
X028396Y02227D03*
X028593D03*
X028789D03*
X028986D03*
X029183D03*
Y020585D03*
X028986D03*
X028789D03*
X028593D03*
X028396D03*
X023671Y023018D03*
X023868D03*
X024065D03*
X024262D03*
X024459D03*
Y021333D03*
X024262D03*
X024065D03*
X023868D03*
X023671D03*
G54D145*
X014035Y02378D03*
X012303D03*
G54D146*
X027453Y018898D03*
X026453D03*
X025453D03*
X024453D03*
X029453D03*
X028453D03*
X030453D03*
X033661D03*
X022244D03*
Y007283D03*
X033661D03*
G54D147*
X031453Y018898D03*
G54D148*
X010984Y01937D03*
Y007047D03*
X012642Y007435D03*
Y006935D03*
X013142Y007435D03*
Y006935D03*
X013642Y007435D03*
Y006935D03*
X014142Y007435D03*
Y006935D03*
X014642Y007435D03*
Y006935D03*
G54D149*
X033169Y021693D03*
Y024409D03*
G54D150*
X031004Y021693D03*
Y024409D03*
G54D151*
X019028Y007323D03*
X020028D03*
G54D152*
X020512Y00626D03*
X018543D03*
X016457D03*
X01437D03*
X012283D03*
X022283D03*
X02437D03*
X026457D03*
X028543D03*
X03063D03*
X032717D03*
X010197Y00815D03*
Y010118D03*
Y012087D03*
Y014055D03*
Y016024D03*
Y017992D03*
Y019961D03*
Y021929D03*
Y023898D03*
X014134Y025866D03*
X012165D03*
X034803Y023976D03*
Y022008D03*
Y020039D03*
Y018071D03*
Y016102D03*
Y014134D03*
Y012165D03*
Y010197D03*
Y008228D03*
X010197Y025866D03*
X034803D03*
Y00626D03*
X010197D03*
X030935Y010118D03*
X01063Y013337D03*
X018209Y024675D03*
X017283Y012421D03*
X02563Y024715D03*
X033907Y020246D03*
X029537Y02502D03*
X023002Y025256D03*
X020876Y013346D03*
X023976Y017598D03*
X024567Y017648D03*
X024134Y017982D03*
X023652Y016211D03*
X014567Y016949D03*
X01497Y017008D03*
X02376Y018996D03*
X022983Y019075D03*
X023986Y006585D03*
X023691Y008573D03*
X022776Y017215D03*
X023602Y01562D03*
X025787Y017618D03*
X026024Y018327D03*
X023406Y017008D03*
X012972Y016949D03*
X010915Y009557D03*
X012953Y009262D03*
X013809Y012047D03*
X014144Y013189D03*
X014488Y012628D03*
X014793Y012224D03*
X011919Y010069D03*
X01188Y009537D03*
X012441Y00813D03*
X01185Y007805D03*
X010551Y014291D03*
X010906Y012047D03*
X015069Y008878D03*
X014311Y008701D03*
X014488Y008327D03*
X015906Y007165D03*
X012717Y016654D03*
X018691Y008051D03*
X024134Y020364D03*
X010856Y015541D03*
X010866Y015148D03*
X021634Y022402D03*
X020492Y02062D03*
X019606Y018996D03*
X019045Y019459D03*
X01997Y019065D03*
X019892Y01748D03*
X017707Y011752D03*
X016043Y013189D03*
X024577Y022047D03*
X023839Y022087D03*
X019301Y020433D03*
X023848Y019921D03*
X01936Y01874D03*
X016841Y018701D03*
X026457Y018179D03*
X021319Y017992D03*
X018248Y018435D03*
X019459Y017461D03*
X019882Y018671D03*
X016407Y018878D03*
X020571Y009567D03*
X023848Y010778D03*
X023858Y010148D03*
X022313Y008553D03*
X019734Y010197D03*
X024488Y006919D03*
X026536Y019892D03*
X0269Y019163D03*
X029685Y019744D03*
X029252Y019478D03*
X013228Y019409D03*
X013238Y018593D03*
X013268Y019016D03*
X023327Y021693D03*
X017825Y020719D03*
X018268Y02065D03*
X014951Y02122D03*
X014774Y019646D03*
Y019163D03*
X014784Y018799D03*
X014823Y018396D03*
X027244Y01939D03*
X022126Y019872D03*
X028051Y023189D03*
X022982Y019636D03*
X02126Y018642D03*
X019843Y017067D03*
X024656Y025167D03*
X024094Y024911D03*
X026043Y020925D03*
X0256Y024321D03*
X026319Y023002D03*
X025738Y022766D03*
X021999Y020778D03*
X01872Y016191D03*
X0194Y015591D03*
X018691Y012372D03*
X02562Y020955D03*
X018632Y015856D03*
X018366Y017431D03*
X016083Y016191D03*
X016329Y01501D03*
X019331Y01252D03*
X02062Y012854D03*
X028248Y019596D03*
X019449Y01312D03*
X023465Y020531D03*
X019006Y013081D03*
X018593Y013494D03*
X02122Y020157D03*
X017303Y018169D03*
X024252Y015354D03*
X02063Y014478D03*
X022018Y014852D03*
X015551Y012087D03*
X016604Y013524D03*
X021201Y017392D03*
X015945Y0169D03*
X018622Y018553D03*
X019055Y016752D03*
Y017156D03*
X018917Y021319D03*
X018248Y022657D03*
X020148Y02185D03*
X017461Y019409D03*
X017933Y020197D03*
X01937Y010689D03*
X019173Y009518D03*
X020906Y023022D03*
X017421Y02249D03*
X016752Y024783D03*
X020896Y024813D03*
X019252Y023996D03*
X018898Y024104D03*
X017283Y023681D03*
X019951Y0244D03*
X018642Y024596D03*
X017766Y024567D03*
X013209Y019813D03*
X011732Y020728D03*
X011043Y020817D03*
X014596D03*
X020896Y011063D03*
X013445Y021594D03*
X01374Y02189D03*
X01315D03*
X012146Y022018D03*
X011407D03*
X011014Y022028D03*
X012746Y02374D03*
X013159Y024764D03*
X010915Y02501D03*
X015423D03*
X015404Y022795D03*
X011437Y023435D03*
X013258Y023396D03*
X012815Y023356D03*
X012421Y020551D03*
X015157Y013189D03*
X016821Y010226D03*
X01747D03*
X01748Y008642D03*
X022579Y011171D03*
X021073Y013691D03*
X019183Y01374D03*
X013415Y012156D03*
X016142Y010866D03*
Y010413D03*
X015433Y010364D03*
X012549Y012087D03*
X010906Y012953D03*
X01251Y01252D03*
X013179Y012461D03*
X015974Y012333D03*
X017264Y015157D03*
X01748Y016457D03*
X019134Y014163D03*
X017156Y013868D03*
X016053Y014537D03*
X017106Y015522D03*
X013228Y015984D03*
X013238Y014227D03*
X029016Y014026D03*
X024409Y013858D03*
X026348Y013455D03*
X030463Y008711D03*
X029385Y008293D03*
X033031Y009154D03*
X028248Y011348D03*
X028661D03*
Y011762D03*
X027835Y013012D03*
X028248D03*
X028661Y013002D03*
Y012569D03*
Y012175D03*
X026024Y010689D03*
X025531D03*
X025039D03*
Y011181D03*
Y011673D03*
X029685Y022146D03*
X027461Y021319D03*
X027411Y020925D03*
X028396Y021299D03*
X028268Y022854D03*
X029577Y023593D03*
X02878Y023406D03*
X024754Y02378D03*
X02753Y022844D03*
X02752Y023248D03*
X027067Y022293D03*
X022185Y024862D03*
X024114Y023553D03*
X024665Y023012D03*
X022313Y022106D03*
X019951Y016309D03*
X022185Y016073D03*
Y017303D03*
X024823Y013175D03*
X026526Y012283D03*
X027539Y015718D03*
X026535Y016683D03*
X028465Y017116D03*
Y016181D03*
X029596Y017933D03*
X030295Y016644D03*
X032687Y0175D03*
X033799Y017264D03*
X03123Y015276D03*
X030079Y013002D03*
X023396Y013947D03*
X023071Y014793D03*
X030226Y007126D03*
X034104Y010709D03*
X033248Y01125D03*
X032795Y007756D03*
X034154Y010276D03*
X033868Y012549D03*
X03252Y013346D03*
X032726Y012904D03*
X033071Y012451D03*
X031713Y012864D03*
X031289Y012185D03*
X032224Y014016D03*
X031289Y007047D03*
X033504Y008386D03*
X03128Y008691D03*
X029636Y009518D03*
X028819Y010295D03*
X025157Y0075D03*
X024941Y009281D03*
X02688Y007224D03*
X025069Y016033D03*
X025906Y016614D03*
X027913Y008267D03*
X027441D03*
Y008818D03*
X027913D03*
Y009369D03*
X027441D03*
Y007716D03*
X027913D03*
X032116Y010748D03*
X030935D03*
X030344D03*
X031526D03*
X032707D03*
X032116Y010118D03*
X032707D03*
X030344D03*
X031526D03*
X031506Y0075D03*
G54D153*
X011417Y025D03*
X014921D03*
X011417Y022795D03*
X014921D03*
G54D154*
X012539Y022756D03*
X012854D03*
X013169D03*
X013484D03*
X013799D03*
G54D155*
X022688Y009636D03*
X022432D03*
X022176D03*
Y010384D03*
X022432D03*
X022688D03*
G54D156*
X014035Y018035D03*
X015571D03*
X014035Y018535D03*
X015571D03*
X014035Y019035D03*
X015571D03*
X014035Y019535D03*
X015571D03*
X014035Y020035D03*
X015571D03*
G54D157*
X013041Y010876D03*
X012541D03*
X012041D03*
X011541D03*
Y008667D03*
X012041D03*
X012541D03*
X013041D03*
G54D158*
X020364Y013297D03*
Y013671D03*
Y014045D03*
X021427D03*
Y013297D03*
G54D159*
X013789Y014656D03*
Y01377D03*
Y015561D03*
Y016427D03*
X011565Y02127D03*
G54D160*
X016796Y014537D03*
X016373D03*
Y013868D03*
X016796D03*
Y015522D03*
X016373D03*
Y016191D03*
X016796D03*
X016402Y012374D03*
X016826D03*
Y011705D03*
X016402D03*
G54D161*
X016585Y014567D03*
Y013839D03*
Y015492D03*
Y01622D03*
X016614Y012404D03*
Y011675D03*
G54D162*
X017795Y009459D03*
X015906D03*
X017795Y007795D03*
X015906D03*
G54D163*
X027766Y010157D03*
X028455D03*
X026526Y012835D03*
X025837D03*
G54D164*
X029606Y015787D03*
Y01752D03*
X031181Y015787D03*
Y01752D03*
G54D165*
X029892Y014016D03*
X031624D03*
G54D166*
X028985Y008889D03*
X03007Y007804D03*
G54D167*
X032677Y017165D03*
Y015787D03*
G54D168*
X024132Y014488D03*
X024632D03*
X025132D03*
X025632D03*
Y016614D03*
X025132D03*
X024632D03*
X024132D03*
G54D169*
X020492Y017077D03*
Y016821D03*
Y016565D03*
Y016309D03*
X022185D03*
Y016565D03*
Y016821D03*
Y017077D03*
X020886Y012195D03*
Y011939D03*
Y011683D03*
Y011427D03*
X022579D03*
Y011683D03*
Y011939D03*
Y012195D03*
G54D170*
X020915Y024406D03*
Y022654D03*
X016801D03*
Y024406D03*
M02*