%FSTAX24Y24*%
%MOIN*%
%SFA1B1*%

%IPPOS*%
%AMD121*
4,1,4,0.001400,-0.020900,0.020900,-0.001400,-0.001400,0.020900,-0.020900,0.001400,0.001400,-0.020900,0.0*
%
%ADD103R,0.053200X0.047200*%
%ADD104R,0.043400X0.039500*%
%ADD105R,0.031600X0.027700*%
%ADD106R,0.078900X0.055200*%
%ADD107R,0.019000X0.063100*%
%ADD108R,0.063100X0.041500*%
%ADD109R,0.024700X0.019800*%
%ADD110R,0.030600X0.016900*%
%ADD111R,0.027700X0.031600*%
%ADD112R,0.094600X0.145800*%
%ADD113R,0.094600X0.031600*%
%ADD114R,0.057200X0.045400*%
%ADD115C,0.067100*%
%ADD116R,0.025700X0.067100*%
%ADD117R,0.134000X0.104500*%
%ADD118R,0.031600X0.078900*%
%ADD119R,0.094600X0.027700*%
%ADD120R,0.091900X0.126100*%
G04~CAMADD=121~9~0.0~0.0~277.0~316.0~0.0~0.0~0~0.0~0.0~0.0~0.0~0~0.0~0.0~0.0~0.0~0~0.0~0.0~0.0~225.0~418.0~417.0*
%ADD121D121*%
%ADD122R,0.043400X0.078900*%
%ADD123R,0.078900X0.043400*%
%ADD124R,0.078900X0.031600*%
%ADD125R,0.118200X0.216700*%
%ADD126R,0.047400X0.074900*%
%ADD127R,0.039500X0.043400*%
%ADD128R,0.053300X0.021800*%
%ADD129R,0.019800X0.031600*%
%ADD130R,0.031600X0.019800*%
%ADD131R,0.134000X0.134000*%
%ADD132R,0.019800X0.067100*%
%ADD133R,0.067100X0.019800*%
%ADD134R,0.045400X0.057200*%
%ADD135R,0.023900X0.047000*%
%ADD136R,0.023900X0.037900*%
%ADD137R,0.096000X0.075900*%
%ADD138R,0.037900X0.063100*%
%ADD139R,0.087900X0.098200*%
%ADD140R,0.048200X0.048200*%
%ADD141R,0.039500X0.043400*%
%ADD142R,0.043400X0.039500*%
%ADD143R,0.051300X0.082800*%
%ADD144C,0.073000*%
%ADD145R,0.094600X0.094600*%
%ADD146C,0.094600*%
%ADD147C,0.047400*%
%ADD148C,0.058000*%
%ADD149R,0.058000X0.058000*%
%ADD150C,0.011900*%
%ADD151C,0.033000*%
%LNee4951_bpm_reva-1*%
%LPD*%
G36*
X035Y006063D02*
X01D01*
Y026063*
X035*
Y006063*
G37*
%LNee4951_bpm_reva-2*%
%LPC*%
G36*
X034213Y025669D02*
X010787D01*
X010394Y025276*
Y00685*
X010787Y006457*
X034213*
X034606Y00685*
Y025276*
X034213Y025669*
G37*
%LNee4951_bpm_reva-3*%
%LPD*%
G54D103*
X02499Y017972D03*
X025522Y015354D03*
G54D104*
X025344Y023484D03*
Y022972D03*
X029213Y011201D03*
Y011713D03*
G54D105*
X019508Y016033D03*
Y016427D03*
X019498Y017205D03*
Y016811D03*
X023593Y022087D03*
Y021693D03*
X03126Y008179D03*
Y007785D03*
X031762Y008179D03*
Y007785D03*
X032283Y008179D03*
Y007785D03*
X028465Y016713D03*
Y016319D03*
X028474Y017569D03*
Y017175D03*
X024892Y008189D03*
Y007795D03*
X02065Y011782D03*
Y011388D03*
X032795Y008376D03*
Y007982D03*
X025404Y007795D03*
Y008189D03*
X018957Y012037D03*
Y011644D03*
X019754Y019793D03*
Y020187D03*
X018671Y020541D03*
Y020935D03*
X020837Y008888D03*
Y009281D03*
X01748Y009311D03*
Y008917D03*
X011949Y023268D03*
Y022874D03*
X011122Y015541D03*
Y015148D03*
X010906Y012709D03*
Y012315D03*
X018848Y014154D03*
Y01376D03*
X018789Y017146D03*
Y016752D03*
X020915Y023996D03*
Y02439D03*
X018199Y022106D03*
Y021713D03*
X01876Y01814D03*
Y017746D03*
X019301Y020157D03*
Y019764D03*
X011073Y01685D03*
Y016457D03*
X017077Y019715D03*
Y020108D03*
X012667Y018386D03*
Y01878D03*
X012323Y009301D03*
Y008907D03*
X013406Y009193D03*
Y008799D03*
G54D106*
X01997Y009626D03*
X018396D03*
Y008681D03*
X01997D03*
G54D107*
X022904Y021313D03*
X022707D03*
X02251D03*
X022313D03*
X022116D03*
Y022998D03*
X022313D03*
X02251D03*
X022707D03*
X022904D03*
G54D108*
X027972Y022028D03*
Y021339D03*
X033868Y012264D03*
Y011575D03*
X01313Y024961D03*
Y024272D03*
G54D109*
X01998Y018361D03*
Y017938D03*
X02065D03*
Y018361D03*
G54D110*
X019951Y01815D03*
X020679D03*
G54D111*
X022835Y020561D03*
X022441D03*
X023622Y015354D03*
X024016D03*
X025591Y009281D03*
X025197D03*
X027402Y010039D03*
X027008D03*
X031565Y012441D03*
X031959D03*
X02497Y00878D03*
X025364D03*
X030856Y008425D03*
X030463D03*
X017992Y010472D03*
X018386D03*
X01935Y011053D03*
X018957D03*
X011417Y021211D03*
X011024D03*
X018907Y022657D03*
X018514D03*
X011407Y021732D03*
X011014D03*
X016821Y010492D03*
X017215D03*
X011407Y022323D03*
X011014D03*
X018494Y023504D03*
X018888D03*
X015778Y01065D03*
X015384D03*
X019154Y017805D03*
X019547D03*
X028504Y010079D03*
X02811D03*
X032766Y012451D03*
X032372D03*
X016683Y019203D03*
X017077D03*
X021339Y016949D03*
X021732D03*
X011171Y010059D03*
X011565D03*
X011171Y009567D03*
X011565D03*
X011171Y009085D03*
X011565D03*
X011171Y008583D03*
X011565D03*
X012864Y010827D03*
X013258D03*
G54D112*
X028071Y012175D03*
G54D113*
X02563Y011175D03*
Y011675D03*
Y012175D03*
Y012675D03*
Y013175D03*
G54D114*
X026673Y014439D03*
Y015738D03*
X027992Y014311D03*
Y01561D03*
G54D115*
X020748Y021811D03*
X029656Y01252D03*
X030207Y007864D03*
X033612Y008937D03*
X029311Y01D03*
X017343Y021545D03*
G54D116*
X030364Y009291D03*
X03062D03*
X030876D03*
X031132D03*
X031388D03*
X031644D03*
X0319D03*
X032156D03*
X032411D03*
X032667D03*
Y011575D03*
X032411D03*
X032156D03*
X0319D03*
X031644D03*
X031388D03*
X031132D03*
X030876D03*
X03062D03*
X030364D03*
G54D117*
X031516Y010433D03*
G54D118*
X024428Y017005D03*
X02368D03*
X024054Y016218D03*
G54D119*
X028809Y007793D03*
Y008293D03*
Y008793D03*
Y009293D03*
X026545D03*
Y008793D03*
Y008293D03*
Y007793D03*
G54D120*
X027677Y008543D03*
G54D121*
X023069Y017942D03*
X023348Y01822D03*
G54D122*
X025955Y014232D03*
X024813D03*
G54D123*
X025728Y016063D03*
Y017205D03*
X020069Y023927D03*
Y025069D03*
G54D124*
X027517Y016832D03*
Y01758D03*
X02673Y017206D03*
X023437Y024497D03*
X02265Y024123D03*
Y024871D03*
X028989Y022981D03*
Y022233D03*
X029776Y022607D03*
G54D125*
X033642Y015433D03*
X029665D03*
G54D126*
X030935Y007037D03*
X029557D03*
X021506Y013553D03*
X020128D03*
G54D127*
X027421Y00689D03*
X027933D03*
X019793Y020768D03*
X019282D03*
X020846Y020157D03*
X020335D03*
X020482Y019193D03*
X020994D03*
G54D128*
X019665Y021594D03*
Y02185D03*
Y022106D03*
X018917D03*
Y02185D03*
Y021594D03*
X018602Y019665D03*
Y019409D03*
Y019154D03*
X017854D03*
Y019409D03*
Y019665D03*
G54D129*
X014134Y020945D03*
X013937D03*
X01374D03*
X013543D03*
X013346D03*
X01315D03*
X012953D03*
X012756D03*
Y022835D03*
X012953D03*
X01315D03*
X013346D03*
X013543D03*
X01374D03*
X013937D03*
X014134D03*
G54D130*
X0125Y021201D03*
Y021398D03*
Y021594D03*
Y021791D03*
Y021988D03*
Y022185D03*
Y022382D03*
Y022579D03*
X01439D03*
Y022382D03*
Y022185D03*
Y021988D03*
Y021791D03*
Y021594D03*
Y021398D03*
Y021201D03*
G54D131*
X013445Y02189D03*
G54D132*
X016142Y011457D03*
X012598Y01752D03*
X012795D03*
X012992D03*
X013189D03*
X013386D03*
X013583D03*
X01378D03*
X013976D03*
X014173D03*
X01437D03*
X014567D03*
X014764D03*
X014961D03*
X015157D03*
X015354D03*
X015551D03*
X015748D03*
X015945D03*
X016142D03*
X016339D03*
X016535D03*
X016732D03*
X016929D03*
X017126D03*
X017323D03*
Y011457D03*
X017126D03*
X016929D03*
X016732D03*
X016535D03*
X016339D03*
X015945D03*
X015748D03*
X015551D03*
X015354D03*
X015157D03*
X014961D03*
X014764D03*
X014567D03*
X01437D03*
X014173D03*
X013976D03*
X01378D03*
X013583D03*
X013386D03*
X013189D03*
X012992D03*
X012795D03*
X012598D03*
G54D133*
X017992Y01685D03*
Y016654D03*
Y016457D03*
Y01626D03*
Y016063D03*
Y015866D03*
Y015669D03*
Y015472D03*
Y015276D03*
Y015079D03*
Y014882D03*
Y014685D03*
Y014488D03*
Y014291D03*
Y014094D03*
Y013898D03*
Y013701D03*
Y013504D03*
Y013307D03*
Y01311D03*
Y012913D03*
Y012717D03*
Y01252D03*
Y012323D03*
Y012126D03*
X011929D03*
Y012323D03*
Y01252D03*
Y012717D03*
Y012913D03*
Y01311D03*
Y013307D03*
Y013504D03*
Y013701D03*
Y013898D03*
Y014094D03*
Y014291D03*
Y014488D03*
Y014685D03*
Y014882D03*
Y015079D03*
Y015276D03*
Y015472D03*
Y015669D03*
Y015866D03*
Y016063D03*
Y01626D03*
Y016457D03*
Y016654D03*
Y01685D03*
G54D134*
X02065Y01247D03*
X021949D03*
G54D135*
X027957Y023913D03*
X028217D03*
X028476D03*
X028736D03*
G54D136*
X028736Y025089D03*
X028476D03*
X028217D03*
X027957D03*
G54D137*
X028346Y024695D03*
G54D138*
X027065Y021514D03*
X026065Y024215D03*
G54D139*
X026315Y021689D03*
X026815Y024039D03*
G54D140*
X024526Y017972D03*
X025474D03*
X025986Y015354D03*
X025037D03*
G54D141*
X02499Y022185D03*
Y021476D03*
X023593Y023543D03*
Y022835D03*
G54D142*
X021644Y014508D03*
X020935D03*
G54D143*
X012461Y010079D03*
X013406D03*
G54D144*
X020028Y007323D03*
X019028D03*
G54D145*
X031004Y024409D03*
Y021693D03*
G54D146*
X033169Y024409D03*
Y021693D03*
G54D147*
X014642Y006935D03*
Y007435D03*
X014142Y006935D03*
Y007435D03*
X013642Y006935D03*
Y007435D03*
X013142Y006935D03*
Y007435D03*
X012642Y006935D03*
Y007435D03*
X010984Y007047D03*
Y01937D03*
G54D148*
X033661Y007283D03*
X022244D03*
Y018898D03*
X033661D03*
X030453D03*
X028453D03*
X029453D03*
X024453D03*
X025453D03*
X026453D03*
X027453D03*
G54D149*
X031453Y018898D03*
G54D150*
X012303Y02378D03*
X014035D03*
G54D151*
X015728Y014656D03*
X015827Y015463D03*
X010197Y007205D03*
Y009134D03*
Y011102D03*
Y013071D03*
Y015039D03*
Y017008D03*
Y018976D03*
Y020945D03*
Y022913D03*
Y024882D03*
X011181Y025866D03*
X01315D03*
X015118D03*
X016988D03*
X018858D03*
X020728D03*
X022638D03*
X031929D03*
X033858D03*
X034803Y024921D03*
Y022992D03*
Y021024D03*
Y019055D03*
Y017087D03*
Y015118D03*
Y01315D03*
Y011181D03*
Y009213D03*
Y007244D03*
X033819Y00626D03*
X031673D03*
X029596D03*
X02751D03*
X025413D03*
X023327D03*
X021398D03*
X019528D03*
X017559D03*
X015423D03*
X013327D03*
X01126D03*
M02*