%FSTAX24Y24*%
%MOIN*%
%SFA1B1*%

%IPPOS*%
%ADD52C,0.010000*%
%ADD55C,0.030000*%
%ADD67C,0.050000*%
%ADD68R,0.050000X0.050000*%
%ADD69C,0.039400*%
%ADD71R,0.086600X0.086600*%
%ADD73C,0.025000*%
%LNee4951_bpm_reva-1*%
%LPD*%
G36*
X030295Y024931D02*
Y02375D01*
X031722Y022323*
X032244Y021801*
Y021437*
X033819Y019862*
X034746*
X034803Y019851*
X034852Y01986*
X034902Y019834*
Y019626*
Y018283*
X034852Y01825*
X034803Y018259*
X034731Y018245*
X03467Y018204*
X034629Y018143*
X034615Y018071*
X034629Y017999*
X03467Y017937*
X034731Y017897*
X034803Y017882*
X034852Y017892*
X034902Y017859*
Y016315*
X034852Y016281*
X034803Y016291*
X034731Y016277*
X03467Y016236*
X034629Y016175*
X034615Y016102*
X034629Y01603*
X03467Y015969*
X034731Y015928*
X034803Y015914*
X034852Y015923*
X034902Y01589*
Y014346*
X034852Y014313*
X034803Y014322*
X034731Y014308*
X03467Y014267*
X034629Y014206*
X034615Y014134*
X034629Y014062*
X03467Y014*
X034731Y01396*
X034803Y013945*
X034852Y013955*
X034902Y013922*
Y012378*
X034852Y012344*
X034803Y012354*
X034731Y01234*
X03467Y012299*
X034629Y012238*
X034615Y012165*
X034629Y012093*
X03467Y012032*
X034731Y011991*
X034803Y011977*
X034852Y011986*
X034902Y011953*
Y010409*
X034852Y010376*
X034803Y010385*
X034731Y010371*
X03467Y01033*
X034629Y010269*
X034615Y010197*
X034629Y010125*
X03467Y010063*
X034731Y010023*
X034803Y010008*
X034852Y010018*
X034902Y009985*
Y008441*
X034852Y008407*
X034803Y008417*
X034731Y008403*
X03467Y008362*
X034629Y008301*
X034615Y008228*
X034629Y008156*
X03467Y008095*
X034731Y008054*
X034803Y00804*
X034852Y008049*
X034902Y008016*
Y006472*
X034852Y006439*
X034803Y006448*
X034731Y006434*
X03467Y006393*
X034629Y006332*
X034615Y00626*
X034624Y006211*
X034591Y006161*
X032929*
X032896Y006211*
X032905Y00626*
X032891Y006332*
X03285Y006393*
X032789Y006434*
X032717Y006448*
X032644Y006434*
X032583Y006393*
X032542Y006332*
X032528Y00626*
X032538Y006211*
X032504Y006161*
X030842*
X030809Y006211*
X030819Y00626*
X030804Y006332*
X030763Y006393*
X030702Y006434*
X03063Y006448*
X030558Y006434*
X030497Y006393*
X030456Y006332*
X030441Y00626*
X030451Y006211*
X030418Y006161*
X028756*
X028722Y006211*
X028732Y00626*
X028718Y006332*
X028677Y006393*
X028615Y006434*
X028543Y006448*
X028471Y006434*
X02841Y006393*
X028369Y006332*
X028355Y00626*
X028364Y006211*
X028331Y006161*
X026669*
X026636Y006211*
X026645Y00626*
X026631Y006332*
X02659Y006393*
X026529Y006434*
X026457Y006448*
X026408Y006439*
X026358Y006472*
Y01189*
X026299Y011949*
X02499Y013258*
X024956Y013309*
X024895Y013349*
X024823Y013364*
X024751Y013349*
X024717Y013327*
X021081*
X021065Y013346*
X02105Y013419*
X021022Y013462*
X021052Y013507*
X021073Y013502*
X021145Y013517*
X021206Y013558*
X021247Y013619*
X021261Y013691*
X021247Y013763*
X021206Y013824*
X021145Y013865*
X021073Y01388*
X021001Y013865*
X020939Y013824*
X020899Y013763*
X020884Y013691*
X020899Y013619*
X020927Y013576*
X020897Y013531*
X020876Y013535*
X020804Y013521*
X020743Y01348*
X020702Y013419*
X020687Y013346*
X020671Y013327*
X020187*
Y01497*
X021152Y015935*
Y016378*
Y017173*
X02119Y017205*
X021201Y017203*
X021273Y017217*
X021334Y017258*
X021375Y01732*
X021389Y017392*
X021375Y017464*
X021334Y017525*
X021273Y017566*
X021201Y01758*
X02119Y017578*
X021152Y01761*
Y017717*
X022904*
X023219Y018032*
X023916*
X023947Y017993*
X023945Y017982*
X02396Y01791*
X024Y017849*
X024034Y017827*
X024014Y017779*
X023976Y017787*
X023904Y017773*
X023843Y017732*
X023802Y017671*
X023788Y017598*
X023802Y017526*
X023843Y017465*
X023904Y017424*
X023976Y01741*
X024049Y017424*
X02411Y017465*
X024151Y017526*
X024153Y017537*
X024203Y017532*
Y017421*
X02438Y017244*
X024675*
X024961Y01753*
X025679Y018248*
X025854*
X02589Y018193*
X025951Y018153*
X026024Y018138*
X026096Y018153*
X026157Y018193*
X026194Y018248*
X026242*
X026274Y018209*
X026268Y018179*
X026282Y018107*
X026323Y018046*
X026385Y018005*
X026457Y017991*
X026529Y018005*
X02659Y018046*
X026631Y018107*
X026645Y018179*
X026639Y018209*
X026671Y018248*
X031663*
X031939Y018524*
Y019203*
X031713Y019429*
X03127*
X029911Y020787*
Y020797*
X028917*
Y022963*
X028698Y023182*
X028722Y023228*
X02878Y023217*
X028852Y023231*
X028913Y023272*
X028954Y023333*
X028968Y023406*
X028954Y023478*
X028913Y023539*
X028852Y02358*
X02878Y023594*
X028707Y02358*
X028646Y023539*
X028605Y023478*
X028591Y023406*
X028602Y023348*
X028556Y023324*
X02813Y02375*
X024967*
X024943Y02378*
X024928Y023852*
X024887Y023913*
X024826Y023954*
X024754Y023968*
X024682Y023954*
X024621Y023913*
X02458Y023852*
X024565Y02378*
X024541Y02375*
X024094*
X022369Y025475*
X022388Y025522*
X029705*
X030295Y024931*
G37*
G36*
X014678Y025918D02*
X012953Y024193D01*
X012854Y024094*
X012559*
X012439Y023974*
X012396Y024003*
X012303Y024021*
X012211Y024003*
X012132Y023951*
X01208Y023872*
X012061Y02378*
X01208Y023687*
X012132Y023609*
X012211Y023556*
X012303Y023538*
X012324Y023542*
X012362Y02351*
Y023504*
X012559Y023307*
X012636*
X012641Y023284*
X012682Y023223*
X012743Y023182*
X012815Y023168*
X012887Y023182*
X012948Y023223*
X012989Y023284*
X012994Y023307*
X013095*
X013125Y023262*
X013186Y023221*
X013258Y023207*
X01333Y023221*
X013391Y023262*
X013432Y023323*
X013447Y023396*
X013432Y023468*
X013423Y023482*
X013751Y02381*
X013795Y023786*
X013794Y02378*
X013812Y023687*
X013864Y023609*
X013943Y023556*
X014035Y023538*
X014128Y023556*
X014206Y023609*
X014259Y023687*
X014277Y02378*
X014259Y023872*
X014206Y023951*
X014128Y024003*
X014035Y024021*
X014029Y02402*
X014005Y024064*
X015413Y025472*
X015472Y025531*
X021978*
X023931Y023579*
X023926Y023553*
X02394Y023481*
X023981Y02342*
X024042Y023379*
X024114Y023365*
X024186Y023379*
X024248Y02342*
X024288Y023481*
X024293Y023504*
X027972*
X028052Y023425*
X028032Y023374*
X027979Y023363*
X027918Y023322*
X027877Y023261*
X027863Y023189*
X027877Y023117*
X027918Y023056*
X027979Y023015*
X028051Y023*
X028087Y023008*
X028118Y022963*
X028093Y022927*
X028079Y022854*
X028093Y022782*
X028134Y022721*
X028196Y02268*
X028268Y022666*
X02834Y02268*
X028401Y022721*
X028442Y022782*
X028456Y022854*
X028442Y022927*
X028401Y022988*
X02834Y023029*
X028268Y023043*
X028231Y023036*
X028201Y023081*
X028225Y023117*
X028236Y02317*
X028287Y02319*
X028602Y022874*
X02875*
Y020846*
X027569*
X027561Y020853*
X027547Y020875*
X027411*
Y020925*
X027361*
Y021042*
X027321Y021015*
X027316Y021007*
X027266Y021002*
X026378Y02189*
X025098*
X024852Y021644*
X023495*
X023454Y021693*
X023445Y021742*
X023417Y021783*
X023377Y02181*
Y021693*
X023277*
Y02181*
X023237Y021783*
X023209Y021742*
X023199Y021693*
X023158Y021644*
X020261*
X020246Y021693*
X020247Y021694*
X020281Y021717*
X020322Y021778*
X020336Y02185*
X020322Y021923*
X020281Y021984*
X02022Y022025*
X020148Y022039*
X020075Y022025*
X020014Y021984*
X019991Y021949*
X01993Y02194*
X019715Y022156*
X017343*
X015758Y020571*
X014488*
X013622Y019705*
X013414*
X013386Y019755*
X013397Y019813*
X013383Y019885*
X013342Y019946*
X013281Y019987*
X013209Y020002*
X013136Y019987*
X013075Y019946*
X013034Y019885*
X01302Y019813*
X013034Y019741*
X013075Y01968*
X013076Y019671*
X012943Y019537*
Y018425*
X013051Y018317*
X013415*
X014613Y019515*
X01464Y019512*
X014701Y019471*
X014774Y019457*
X014846Y019471*
X014907Y019512*
X014948Y019573*
X014962Y019646*
X014951Y019704*
X014979Y019754*
X016033*
X017746Y021467*
X018823*
X018838Y021417*
X018827Y021409*
X0188Y021369*
X019034*
X019007Y021409*
X018996Y021417*
X019011Y021467*
X019419*
X02001Y020876*
X020207*
Y020049*
X019341Y019183*
Y018925*
X019288Y018914*
X019227Y018874*
X019186Y018812*
X019172Y01874*
X019186Y018668*
X019227Y018607*
X019288Y018566*
X01936Y018552*
X019432Y018566*
X019494Y018607*
X019534Y018668*
X019543Y018711*
X019662*
X019693Y018672*
Y018671*
X019708Y018599*
X019749Y018538*
X01981Y018497*
X019882Y018483*
X019954Y018497*
X019999Y018527*
X020049Y018506*
Y017972*
X02001Y017933*
X019094*
X018696Y018332*
X018709Y018389*
X018755Y01842*
X018796Y018481*
X018811Y018553*
X018796Y018625*
X018755Y018687*
X018694Y018727*
X018622Y018742*
X01855Y018727*
X018489Y018687*
X018458Y01864*
X018401Y018627*
X0181Y018927*
Y0194*
X018455Y019754*
X018553Y019852*
Y020768*
X018435Y020886*
X01814*
X018046Y020792*
X017989Y020806*
X017958Y020852*
X017897Y020893*
X017825Y020907*
X017753Y020893*
X017691Y020852*
X017651Y020791*
X017636Y020719*
X017651Y020646*
X017691Y020585*
X017738Y020554*
X017751Y020497*
X017657Y020404*
Y019833*
X017736Y019754*
Y019695*
Y017638*
X018209Y017165*
X018465*
X01876Y017461*
X01927*
X019284Y017388*
X019325Y017327*
X019386Y017286*
X019459Y017272*
X019531Y017286*
X019592Y017327*
X01971Y017209*
X019709Y0172*
X019668Y017139*
X019654Y017067*
X019668Y016995*
X019709Y016934*
X019744Y01691*
Y016811*
X01938Y016447*
X018553*
X018327Y01622*
Y015718*
X018484Y015561*
X019193*
X019223Y015531*
X019225Y015518*
X019266Y015457*
X019321Y015421*
Y013931*
X019271Y013904*
X019255Y013914*
X019183Y013929*
X019111Y013914*
X01905Y013874*
X019009Y013812*
X018994Y01374*
X019009Y013668*
X01905Y013607*
X019076Y013589*
X019081Y013539*
X018681Y01314*
Y012717*
X018848Y01255*
X018816Y012511*
X018793Y012526*
X018763Y012546*
X018691Y012561*
X018619Y012546*
X018558Y012505*
X018517Y012444*
X018502Y012372*
X018517Y0123*
X018558Y012239*
X018619Y012198*
X018691Y012183*
X018763Y012198*
X018824Y012239*
X018865Y0123*
X01888Y012372*
X018865Y012444*
X01883Y012497*
X018869Y012529*
X019144Y012254*
X019547*
X020443Y01315*
X024639*
X024649Y013103*
X024689Y013042*
X024751Y013001*
X024823Y012987*
X024895Y013001*
X024956Y013042*
X025005Y013047*
X026161Y01189*
X026163Y010795*
X026114Y010779*
X026074Y010806*
Y010689*
Y010572*
X026114Y010599*
X026164Y010584*
X026171Y006197*
X026136Y006161*
X024582*
X024549Y006211*
X024559Y00626*
X024544Y006332*
X024503Y006393*
X024442Y006434*
X024439Y006435*
Y006604*
X024144Y0069*
X023848*
X02375Y006801*
X022613*
X022597Y006849*
X022643Y006884*
X022733Y007001*
X02279Y007137*
X022809Y007283*
X02279Y00743*
X022733Y007566*
X022643Y007683*
X022527Y007773*
X02239Y007829*
X022244Y007848*
X022098Y007829*
X021962Y007773*
X021845Y007683*
X021755Y007566*
X021699Y00743*
X021679Y007283*
X021699Y007137*
X021755Y007001*
X021845Y006884*
X021891Y006849*
X021875Y006801*
X014842*
X014819Y006845*
X014827Y006858*
X014832Y006885*
X014642*
Y006985*
X014832*
X014827Y007012*
X014784Y007077*
X014719Y00712*
X014673Y00713*
X014674Y00718*
X014709Y007185*
X014771Y007211*
X014825Y007252*
X014866Y007306*
X014892Y007368*
X014901Y007435*
X014892Y007502*
X014866Y007565*
X014825Y007618*
X014771Y007659*
X014709Y007685*
X014642Y007694*
X014575Y007685*
X014512Y007659*
X014459Y007618*
X014419Y007567*
X014392Y007563*
X014391*
X014364Y007567*
X014325Y007618*
X014271Y007659*
X014209Y007685*
X014142Y007694*
X014075Y007685*
X014012Y007659*
X013959Y007618*
X013919Y007567*
X013892Y007563*
X013891*
X013864Y007567*
X013825Y007618*
X013771Y007659*
X013709Y007685*
X013642Y007694*
X013575Y007685*
X013512Y007659*
X013459Y007618*
X013419Y007567*
X013392Y007563*
X013391*
X013364Y007567*
X013325Y007618*
X013271Y007659*
X013209Y007685*
X013142Y007694*
X013075Y007685*
X013012Y007659*
X012959Y007618*
X012919Y007567*
X012892Y007563*
X012891*
X012864Y007567*
X012825Y007618*
X012771Y007659*
X012709Y007685*
X012642Y007694*
X012575Y007685*
X012512Y007659*
X012459Y007618*
X012417Y007565*
X012391Y007502*
X012383Y007435*
X012391Y007368*
X012417Y007306*
X012459Y007252*
X01251Y007213*
X012514Y007186*
Y007185*
X01251Y007158*
X012459Y007118*
X012417Y007065*
X012391Y007002*
X012383Y006935*
X012389Y006884*
X012343Y00686*
X012205Y006998*
Y007451*
X012165Y00749*
X012019Y007636*
X011984Y007672*
X012025Y007733*
X012039Y007805*
X012025Y007877*
X011984Y007939*
X011923Y007979*
X01185Y007994*
X011778Y007979*
X011717Y007939*
X011682Y007974*
X010945Y008711*
Y009436*
X010964Y009439*
X011005Y009467*
X011032Y009507*
X010915*
Y009607*
X011032*
X011005Y009647*
X010964Y009675*
X010945Y009679*
Y011866*
X010978Y011873*
X011039Y011914*
X01108Y011975*
X011094Y012047*
X01108Y012119*
X011039Y012181*
X010978Y012222*
X010945Y012228*
Y012833*
X010954Y012835*
X010996Y012863*
X011022Y012903*
X010906*
Y013003*
X011022*
X010996Y013043*
X010954Y01307*
X010945Y013072*
Y013976*
X010714Y014202*
X010725Y014219*
X01074Y014291*
X010725Y014364*
X010685Y014425*
X010623Y014466*
X010551Y01448*
X010479Y014466*
X010458Y014452*
X010098Y014803*
Y015811*
X010148Y015845*
X010197Y015835*
X010269Y015849*
X01033Y01589*
X010371Y015951*
X010385Y016024*
X010371Y016096*
X01033Y016157*
X010269Y016198*
X010197Y016212*
X010148Y016203*
X010098Y016236*
Y01778*
X010148Y017813*
X010197Y017803*
X010269Y017818*
X01033Y017859*
X010371Y01792*
X010385Y017992*
X010371Y018064*
X01033Y018125*
X010269Y018166*
X010197Y018181*
X010148Y018171*
X010098Y018204*
Y018254*
Y019748*
X010148Y019782*
X010197Y019772*
X010269Y019786*
X01033Y019827*
X010371Y019888*
X010385Y019961*
X010371Y020033*
X01033Y020094*
X010269Y020135*
X010197Y020149*
X010148Y02014*
X010098Y020173*
Y021717*
X010148Y02175*
X010197Y021741*
X010269Y021755*
X01033Y021796*
X010371Y021857*
X010385Y021929*
X010371Y022001*
X01033Y022063*
X010269Y022103*
X010197Y022118*
X010148Y022108*
X010098Y022141*
Y023685*
X010148Y023719*
X010197Y023709*
X010269Y023723*
X01033Y023764*
X010371Y023825*
X010385Y023898*
X010371Y02397*
X01033Y024031*
X010269Y024072*
X010197Y024086*
X010148Y024077*
X010098Y02411*
Y025654*
X010148Y025687*
X010197Y025678*
X010269Y025692*
X01033Y025733*
X010371Y025794*
X010385Y025866*
X010376Y025915*
X010409Y025965*
X011953*
X011986Y025915*
X011977Y025866*
X011991Y025794*
X012032Y025733*
X012093Y025692*
X012165Y025678*
X012238Y025692*
X012299Y025733*
X01234Y025794*
X012354Y025866*
X012344Y025915*
X012378Y025965*
X013922*
X013955Y025915*
X013945Y025866*
X01396Y025794*
X014Y025733*
X014062Y025692*
X014134Y025678*
X014206Y025692*
X014267Y025733*
X014308Y025794*
X014322Y025866*
X014313Y025915*
X014346Y025965*
X014659*
X014678Y025918*
G37*
%LNee4951_bpm_reva-2*%
%LPC*%
G36*
X024989Y011131D02*
X024922D01*
X024949Y011091*
X024989Y011064*
Y011131*
G37*
G36*
Y011298D02*
X024949Y011271D01*
X024922Y011231*
X024989*
Y011298*
G37*
G36*
X025156Y011131D02*
X025089D01*
Y011064*
X025129Y011091*
X025156Y011131*
G37*
G36*
X033248Y011439D02*
X033176Y011424D01*
X033115Y011383*
X033074Y011322*
X033059Y01125*
X033074Y011178*
X033115Y011117*
X033176Y011076*
X033248Y011061*
X03332Y011076*
X033381Y011117*
X033422Y011178*
X033437Y01125*
X033422Y011322*
X033381Y011383*
X03332Y011424*
X033248Y011439*
G37*
G36*
X034154Y010826D02*
Y010759D01*
X034221*
X034194Y010799*
X034154Y010826*
G37*
G36*
X034054D02*
X034014Y010799D01*
X033987Y010759*
X034054*
Y010826*
G37*
G36*
X022579Y01136D02*
X022507Y011346D01*
X022445Y011305*
X022404Y011243*
X02239Y011171*
X022404Y011099*
X022445Y011038*
X022507Y010997*
X022579Y010983*
X022651Y010997*
X022712Y011038*
X022753Y011099*
X022767Y011171*
X022753Y011243*
X022712Y011305*
X022651Y011346*
X022579Y01136*
G37*
G36*
X020896Y011252D02*
X020823Y011237D01*
X020762Y011196*
X020721Y011135*
X020707Y011063*
X020721Y010991*
X020762Y01093*
X020823Y010889*
X020896Y010874*
X020968Y010889*
X021029Y01093*
X02107Y010991*
X021084Y011063*
X02107Y011135*
X021029Y011196*
X020968Y011237*
X020896Y011252*
G37*
G36*
X025089Y011298D02*
Y011231D01*
X025156*
X025129Y011271*
X025089Y011298*
G37*
G36*
Y01179D02*
Y011723D01*
X025156*
X025129Y011763*
X025089Y01179*
G37*
G36*
X024989D02*
X024949Y011763D01*
X024922Y011723*
X024989*
Y01179*
G37*
G36*
X012549Y012275D02*
X012477Y012261D01*
X012416Y01222*
X012375Y012159*
X012361Y012087*
X012375Y012014*
X012416Y011953*
X012477Y011912*
X012549Y011898*
X012621Y011912*
X012683Y011953*
X012723Y012014*
X012738Y012087*
X012723Y012159*
X012683Y01222*
X012621Y012261*
X012549Y012275*
G37*
G36*
X013809Y012236D02*
X013737Y012222D01*
X013676Y012181*
X013635Y012119*
X01362Y012047*
X013635Y011975*
X013676Y011914*
X013737Y011873*
X013809Y011859*
X013881Y011873*
X013942Y011914*
X013983Y011975*
X013998Y012047*
X013983Y012119*
X013942Y012181*
X013881Y012222*
X013809Y012236*
G37*
G36*
X024989Y011623D02*
X024922D01*
X024949Y011583*
X024989Y011556*
Y011623*
G37*
G36*
X028661Y012758D02*
X028589Y012743D01*
X028528Y012702*
X028487Y012641*
X028473Y012569*
X028487Y012497*
X028528Y012436*
X028583Y012399*
X028586Y012372*
X028583Y012345*
X028528Y012309*
X028487Y012247*
X028473Y012175*
X028487Y012103*
X028528Y012042*
X028589Y012001*
X028624Y011994*
Y011943*
X028589Y011936*
X028528Y011895*
X028487Y011834*
X028473Y011762*
X028487Y01169*
X028528Y011628*
X028589Y011588*
X028624Y011581*
Y01153*
X028589Y011523*
X028528Y011482*
X028487Y011421*
X02848Y011386*
X028429*
X028422Y011421*
X028381Y011482*
X02832Y011523*
X028248Y011537*
X028176Y011523*
X028115Y011482*
X028074Y011421*
X028059Y011348*
X028074Y011276*
X028115Y011215*
X028176Y011174*
X028248Y01116*
X02832Y011174*
X028381Y011215*
X028422Y011276*
X028429Y011311*
X02848*
X028487Y011276*
X028528Y011215*
X028589Y011174*
X028661Y01116*
X028734Y011174*
X028795Y011215*
X028836Y011276*
X02885Y011348*
X028836Y011421*
X028795Y011482*
X028734Y011523*
X028699Y01153*
Y011581*
X028734Y011588*
X028795Y011628*
X028836Y01169*
X02885Y011762*
X028836Y011834*
X028795Y011895*
X028734Y011936*
X028699Y011943*
Y011994*
X028734Y012001*
X028795Y012042*
X028836Y012103*
X02885Y012175*
X028836Y012247*
X028795Y012309*
X02874Y012345*
X028737Y012372*
X02874Y012399*
X028795Y012436*
X028836Y012497*
X02885Y012569*
X028836Y012641*
X028795Y012702*
X028734Y012743*
X028661Y012758*
G37*
G36*
X017707Y011941D02*
X017635Y011926D01*
X017573Y011885*
X017532Y011824*
X017518Y011752*
X017532Y01168*
X017573Y011619*
X017635Y011578*
X017707Y011563*
X017779Y011578*
X01784Y011619*
X017881Y01168*
X017895Y011752*
X017881Y011824*
X01784Y011885*
X017779Y011926*
X017707Y011941*
G37*
G36*
X025156Y011623D02*
X025089D01*
Y011556*
X025129Y011583*
X025156Y011623*
G37*
G36*
X025974Y010806D02*
X025933Y010779D01*
X025907Y010739*
X025974*
Y010806*
G37*
G36*
X025648Y010639D02*
X025582D01*
Y010572*
X025622Y010599*
X025648Y010639*
G37*
G36*
X025482D02*
X025415D01*
X025441Y010599*
X025482Y010572*
Y010639*
G37*
G36*
X023848Y010966D02*
X023776Y010952D01*
X023715Y010911*
X023674Y01085*
X02366Y010778*
X023674Y010705*
X023715Y010644*
X023776Y010603*
X023848Y010589*
X023921Y010603*
X023982Y010644*
X024023Y010705*
X024037Y010778*
X024023Y01085*
X023982Y010911*
X023921Y010952*
X023848Y010966*
G37*
G36*
X025974Y010639D02*
X025907D01*
X025933Y010599*
X025974Y010572*
Y010639*
G37*
G36*
X025156D02*
X025089D01*
Y010572*
X025129Y010599*
X025156Y010639*
G37*
G36*
X01932D02*
X019253D01*
X01928Y010599*
X01932Y010572*
Y010639*
G37*
G36*
X032707Y010937D02*
X032635Y010922D01*
X032573Y010881*
X032532Y01082*
X032518Y010748*
X032532Y010676*
X032573Y010615*
X032635Y010574*
X032707Y010559*
X032779Y010574*
X03284Y010615*
X032881Y010676*
X032895Y010748*
X032881Y01082*
X03284Y010881*
X032779Y010922*
X032707Y010937*
G37*
G36*
X024989Y010639D02*
X024922D01*
X024949Y010599*
X024989Y010572*
Y010639*
G37*
G36*
X019487D02*
X01942D01*
Y010572*
X01946Y010599*
X019487Y010639*
G37*
G36*
X025089Y010806D02*
Y010739D01*
X025156*
X025129Y010779*
X025089Y010806*
G37*
G36*
X024989D02*
X024949Y010779D01*
X024922Y010739*
X024989*
Y010806*
G37*
G36*
X025582D02*
Y010739D01*
X025648*
X025622Y010779*
X025582Y010806*
G37*
G36*
X025482D02*
X025441Y010779D01*
X025415Y010739*
X025482*
Y010806*
G37*
G36*
X01942D02*
Y010739D01*
X019487*
X01946Y010779*
X01942Y010806*
G37*
G36*
X034221Y010659D02*
X034154D01*
Y010592*
X034194Y010619*
X034221Y010659*
G37*
G36*
X034054D02*
X033987D01*
X034014Y010619*
X034054Y010592*
Y010659*
G37*
G36*
X01932Y010806D02*
X01928Y010779D01*
X019253Y010739*
X01932*
Y010806*
G37*
G36*
X016142Y011055D02*
X01607Y01104D01*
X016008Y011*
X015967Y010938*
X015953Y010866*
X015967Y010794*
X016008Y010733*
X01607Y010692*
X016142Y010678*
X016214Y010692*
X016275Y010733*
X016316Y010794*
X01633Y010866*
X016316Y010938*
X016275Y011*
X016214Y01104*
X016142Y011055*
G37*
G36*
X016043Y013378D02*
X015971Y013363D01*
X01591Y013322*
X015869Y013261*
X015855Y013189*
X015869Y013117*
X01591Y013056*
X015971Y013015*
X016043Y013*
X016115Y013015*
X016177Y013056*
X016218Y013117*
X016232Y013189*
X016218Y013261*
X016177Y013322*
X016115Y013363*
X016043Y013378*
G37*
G36*
X015157D02*
X015085Y013363D01*
X015024Y013322*
X014983Y013261*
X014969Y013189*
X014983Y013117*
X015024Y013056*
X015085Y013015*
X015157Y013*
X01523Y013015*
X015291Y013056*
X015332Y013117*
X015346Y013189*
X015332Y013261*
X015291Y013322*
X01523Y013363*
X015157Y013378*
G37*
G36*
X03252Y013535D02*
X032448Y013521D01*
X032386Y01348*
X032345Y013419*
X032331Y013346*
X032345Y013274*
X032386Y013213*
X032448Y013172*
X03252Y013158*
X032592Y013172*
X032653Y013213*
X032694Y013274*
X032708Y013346*
X032694Y013419*
X032653Y01348*
X032592Y013521*
X03252Y013535*
G37*
G36*
X028248Y0132D02*
X028176Y013186D01*
X028115Y013145*
X028074Y013084*
X028067Y013049*
X028016*
X028009Y013084*
X027968Y013145*
X027907Y013186*
X027835Y0132*
X027762Y013186*
X027701Y013145*
X02766Y013084*
X027646Y013012*
X02766Y01294*
X027701Y012878*
X027762Y012838*
X027835Y012823*
X027907Y012838*
X027968Y012878*
X028009Y01294*
X028016Y012974*
X028067*
X028074Y01294*
X028115Y012878*
X028176Y012838*
X028248Y012823*
X02832Y012838*
X028381Y012878*
X028422Y01294*
X028428Y01297*
X028479*
X028487Y01293*
X028528Y012869*
X028589Y012828*
X028661Y012813*
X028734Y012828*
X028795Y012869*
X028836Y01293*
X02885Y013002*
X028836Y013074*
X028795Y013135*
X028734Y013176*
X028661Y013191*
X028589Y013176*
X028528Y013135*
X028487Y013074*
X028481Y013044*
X02843*
X028422Y013084*
X028381Y013145*
X02832Y013186*
X028248Y0132*
G37*
G36*
X014144Y013378D02*
X014072Y013363D01*
X01401Y013322*
X013969Y013261*
X013955Y013189*
X013969Y013117*
X01401Y013056*
X014072Y013015*
X014144Y013*
X014216Y013015*
X014277Y013056*
X014318Y013117*
X014332Y013189*
X014318Y013261*
X014277Y013322*
X014216Y013363*
X014144Y013378*
G37*
G36*
X030079Y013191D02*
X030007Y013176D01*
X029945Y013135*
X029904Y013074*
X02989Y013002*
X029904Y01293*
X029945Y012869*
X030007Y012828*
X030079Y012813*
X030151Y012828*
X030212Y012869*
X030253Y01293*
X030267Y013002*
X030253Y013074*
X030212Y013135*
X030151Y013176*
X030079Y013191*
G37*
G36*
X020737Y012804D02*
X02067D01*
Y012737*
X02071Y012764*
X020737Y012804*
G37*
G36*
X02067Y012971D02*
Y012904D01*
X020737*
X02071Y012944*
X02067Y012971*
G37*
G36*
X02057D02*
X02053Y012944D01*
X020503Y012904*
X02057*
Y012971*
G37*
G36*
X032224Y014204D02*
X032152Y01419D01*
X032091Y014149*
X03205Y014088*
X032036Y014016*
X03205Y013944*
X032091Y013882*
X032152Y013841*
X032224Y013827*
X032297Y013841*
X032358Y013882*
X032399Y013944*
X032413Y014016*
X032399Y014088*
X032358Y014149*
X032297Y01419*
X032224Y014204*
G37*
G36*
X023396Y014135D02*
X023323Y014121D01*
X023262Y01408*
X023221Y014019*
X023207Y013947*
X023221Y013875*
X023262Y013813*
X023323Y013773*
X023396Y013758*
X023468Y013773*
X023529Y013813*
X02357Y013875*
X023584Y013947*
X02357Y014019*
X023529Y01408*
X023468Y014121*
X023396Y014135*
G37*
G36*
X029133Y013976D02*
X029066D01*
Y013909*
X029106Y013935*
X029133Y013976*
G37*
G36*
X028966D02*
X028899D01*
X028926Y013935*
X028966Y013909*
Y013976*
G37*
G36*
X017156Y014057D02*
X017083Y014042D01*
X017022Y014001*
X016981Y01394*
X016967Y013868*
X016981Y013796*
X017022Y013735*
X017083Y013694*
X017156Y013679*
X017228Y013694*
X017289Y013735*
X01733Y013796*
X017344Y013868*
X01733Y01394*
X017289Y014001*
X017228Y014042*
X017156Y014057*
G37*
G36*
X018593Y013683D02*
X01852Y013668D01*
X018459Y013627*
X018418Y013566*
X018404Y013494*
X018418Y013422*
X018459Y013361*
X01852Y01332*
X018593Y013305*
X018665Y01332*
X018726Y013361*
X018767Y013422*
X018781Y013494*
X018767Y013566*
X018726Y013627*
X018665Y013668*
X018593Y013683*
G37*
G36*
X026348Y013643D02*
X026276Y013629D01*
X026215Y013588*
X026174Y013527*
X02616Y013455*
X026174Y013383*
X026215Y013321*
X026276Y01328*
X026348Y013266*
X026421Y01328*
X026482Y013321*
X026523Y013383*
X026537Y013455*
X026523Y013527*
X026482Y013588*
X026421Y013629*
X026348Y013643*
G37*
G36*
X024409Y014047D02*
X024337Y014033D01*
X024276Y013992*
X024235Y01393*
X024221Y013858*
X024235Y013786*
X024276Y013725*
X024337Y013684*
X024409Y01367*
X024482Y013684*
X024543Y013725*
X024584Y013786*
X024598Y013858*
X024584Y01393*
X024543Y013992*
X024482Y014033*
X024409Y014047*
G37*
G36*
X016604Y013712D02*
X016532Y013698D01*
X016471Y013657*
X01643Y013596*
X016416Y013524*
X01643Y013451*
X016471Y01339*
X016532Y013349*
X016604Y013335*
X016677Y013349*
X016738Y01339*
X016779Y013451*
X016793Y013524*
X016779Y013596*
X016738Y013657*
X016677Y013698*
X016604Y013712*
G37*
G36*
X015974Y012521D02*
X015902Y012507D01*
X015841Y012466*
X0158Y012405*
X015786Y012333*
X0158Y01226*
X015841Y012199*
X015902Y012158*
X015974Y012144*
X016047Y012158*
X016108Y012199*
X016149Y01226*
X016163Y012333*
X016149Y012405*
X016108Y012466*
X016047Y012507*
X015974Y012521*
G37*
G36*
X026526Y012472D02*
X026453Y012458D01*
X026392Y012417*
X026351Y012356*
X026337Y012283*
X026351Y012211*
X026392Y01215*
X026453Y012109*
X026526Y012095*
X026598Y012109*
X026659Y01215*
X0267Y012211*
X026714Y012283*
X0267Y012356*
X026659Y012417*
X026598Y012458*
X026526Y012472*
G37*
G36*
X013465Y012272D02*
Y012206D01*
X013532*
X013505Y012246*
X013465Y012272*
G37*
G36*
X013365D02*
X013325Y012246D01*
X013298Y012206*
X013365*
Y012272*
G37*
G36*
X013532Y012106D02*
X013465D01*
Y012039*
X013505Y012065*
X013532Y012106*
G37*
G36*
X031289Y012374D02*
X031217Y012359D01*
X031156Y012318*
X031115Y012257*
X031101Y012185*
X031115Y012113*
X031156Y012052*
X031217Y012011*
X031289Y011996*
X031362Y012011*
X031423Y012052*
X031464Y012113*
X031478Y012185*
X031464Y012257*
X031423Y012318*
X031362Y012359*
X031289Y012374*
G37*
G36*
X015551Y012275D02*
X015479Y012261D01*
X015418Y01222*
X015377Y012159*
X015363Y012087*
X015377Y012014*
X015418Y011953*
X015479Y011912*
X015551Y011898*
X015623Y011912*
X015685Y011953*
X015725Y012014*
X01574Y012087*
X015725Y012159*
X015685Y01222*
X015623Y012261*
X015551Y012275*
G37*
G36*
X013365Y012106D02*
X013298D01*
X013325Y012065*
X013365Y012039*
Y012106*
G37*
G36*
X014793Y012413D02*
X014721Y012399D01*
X01466Y012358*
X014619Y012297*
X014605Y012224*
X014619Y012152*
X01466Y012091*
X014721Y01205*
X014793Y012036*
X014865Y01205*
X014927Y012091*
X014968Y012152*
X014982Y012224*
X014968Y012297*
X014927Y012358*
X014865Y012399*
X014793Y012413*
G37*
G36*
X031713Y013053D02*
X03164Y013038D01*
X031579Y012998*
X031538Y012936*
X031524Y012864*
X031538Y012792*
X031579Y012731*
X03164Y01269*
X031713Y012676*
X031785Y01269*
X031846Y012731*
X031887Y012792*
X031901Y012864*
X031887Y012936*
X031846Y012998*
X031785Y013038*
X031713Y013053*
G37*
G36*
X014488Y012817D02*
X014416Y012802D01*
X014355Y012761*
X014314Y0127*
X0143Y012628*
X014314Y012556*
X014355Y012495*
X014416Y012454*
X014488Y012439*
X01456Y012454*
X014622Y012495*
X014662Y012556*
X014677Y012628*
X014662Y0127*
X014622Y012761*
X01456Y012802*
X014488Y012817*
G37*
G36*
X02057Y012804D02*
X020503D01*
X02053Y012764*
X02057Y012737*
Y012804*
G37*
G36*
X032726Y013092D02*
X032654Y013078D01*
X032593Y013037*
X032552Y012976*
X032538Y012904*
X032552Y012831*
X032593Y01277*
X032654Y012729*
X032726Y012715*
X032799Y012729*
X03286Y01277*
X032901Y012831*
X032915Y012904*
X032901Y012976*
X03286Y013037*
X032799Y013078*
X032726Y013092*
G37*
G36*
X033868Y012738D02*
X033796Y012723D01*
X033735Y012683*
X033694Y012621*
X033679Y012549*
X033694Y012477*
X033735Y012416*
X033796Y012375*
X033868Y012361*
X03394Y012375*
X034001Y012416*
X034042Y012477*
X034057Y012549*
X034042Y012621*
X034001Y012683*
X03394Y012723*
X033868Y012738*
G37*
G36*
X033071Y012639D02*
X032999Y012625D01*
X032937Y012584*
X032897Y012523*
X032882Y012451*
X032897Y012379*
X032937Y012317*
X032999Y012277*
X033071Y012262*
X033143Y012277*
X033204Y012317*
X033245Y012379*
X033259Y012451*
X033245Y012523*
X033204Y012584*
X033143Y012625*
X033071Y012639*
G37*
G36*
X017283Y01261D02*
X017211Y012596D01*
X01715Y012555*
X017109Y012493*
X017095Y012421*
X017109Y012349*
X01715Y012288*
X017211Y012247*
X017283Y012233*
X017356Y012247*
X017417Y012288*
X017458Y012349*
X017472Y012421*
X017458Y012493*
X017417Y012555*
X017356Y012596*
X017283Y01261*
G37*
G36*
X01251Y012708D02*
X012438Y012694D01*
X012376Y012653*
X012336Y012592*
X012321Y01252*
X012336Y012448*
X012376Y012386*
X012438Y012345*
X01251Y012331*
X012582Y012345*
X012643Y012386*
X012684Y012448*
X012698Y01252*
X012684Y012592*
X012643Y012653*
X012582Y012694*
X01251Y012708*
G37*
G36*
X013179Y012649D02*
X013107Y012635D01*
X013046Y012594*
X013005Y012533*
X012991Y012461*
X013005Y012388*
X013046Y012327*
X013107Y012286*
X013179Y012272*
X013251Y012286*
X013313Y012327*
X013353Y012388*
X013368Y012461*
X013353Y012533*
X013313Y012594*
X013251Y012635*
X013179Y012649*
G37*
G36*
X032116Y010937D02*
X032044Y010922D01*
X031983Y010881*
X031942Y01082*
X031928Y010748*
X031942Y010676*
X031983Y010615*
X032044Y010574*
X032116Y010559*
X032188Y010574*
X03225Y010615*
X03229Y010676*
X032305Y010748*
X03229Y01082*
X03225Y010881*
X032188Y010922*
X032116Y010937*
G37*
G36*
X023691Y008761D02*
X023619Y008747D01*
X023558Y008706*
X023517Y008645*
X023502Y008573*
X023517Y008501*
X023558Y008439*
X023619Y008399*
X023691Y008384*
X023763Y008399*
X023824Y008439*
X023865Y008501*
X02388Y008573*
X023865Y008645*
X023824Y008706*
X023763Y008747*
X023691Y008761*
G37*
G36*
X022313Y008742D02*
X022241Y008727D01*
X02218Y008687*
X022139Y008625*
X022124Y008553*
X022139Y008481*
X02218Y00842*
X022241Y008379*
X022313Y008365*
X022385Y008379*
X022446Y00842*
X022487Y008481*
X022502Y008553*
X022487Y008625*
X022446Y008687*
X022385Y008727*
X022313Y008742*
G37*
G36*
X03128Y00888D02*
X031207Y008865D01*
X031146Y008824*
X031105Y008763*
X031091Y008691*
X031105Y008619*
X031146Y008558*
X031207Y008517*
X03128Y008502*
X031352Y008517*
X031413Y008558*
X031454Y008619*
X031468Y008691*
X031454Y008763*
X031413Y008824*
X031352Y008865*
X03128Y00888*
G37*
G36*
X01748Y00883D02*
X017408Y008816D01*
X017347Y008775*
X017306Y008714*
X017292Y008642*
X017306Y00857*
X017347Y008508*
X017408Y008467*
X01748Y008453*
X017552Y008467*
X017614Y008508*
X017655Y00857*
X017669Y008642*
X017655Y008714*
X017614Y008775*
X017552Y008816*
X01748Y00883*
G37*
G36*
X029435Y00841D02*
Y008343D01*
X029502*
X029475Y008383*
X029435Y00841*
G37*
G36*
X029502Y008243D02*
X029435D01*
Y008176*
X029475Y008203*
X029502Y008243*
G37*
G36*
X029335D02*
X029268D01*
X029295Y008203*
X029335Y008176*
Y008243*
G37*
G36*
Y00841D02*
X029295Y008383D01*
X029268Y008343*
X029335*
Y00841*
G37*
G36*
X033504Y008574D02*
X033432Y00856D01*
X033371Y008519*
X03333Y008458*
X033315Y008386*
X03333Y008314*
X033371Y008252*
X033432Y008212*
X033504Y008197*
X033576Y008212*
X033637Y008252*
X033678Y008314*
X033693Y008386*
X033678Y008458*
X033637Y008519*
X033576Y00856*
X033504Y008574*
G37*
G36*
X030513Y008828D02*
Y008761D01*
X03058*
X030553Y008801*
X030513Y008828*
G37*
G36*
X030413D02*
X030372Y008801D01*
X030346Y008761*
X030413*
Y008828*
G37*
G36*
X033148Y009104D02*
X033082D01*
Y009037*
X033122Y009063*
X033148Y009104*
G37*
G36*
X032982D02*
X032915D01*
X032941Y009063*
X032982Y009037*
Y009104*
G37*
G36*
X015069Y009067D02*
X014997Y009052D01*
X014936Y009011*
X014895Y00895*
X01488Y008878*
X014895Y008806*
X014936Y008745*
X014997Y008704*
X015069Y008689*
X015141Y008704*
X015202Y008745*
X015243Y008806*
X015258Y008878*
X015243Y00895*
X015202Y009011*
X015141Y009052*
X015069Y009067*
G37*
G36*
X03058Y008661D02*
X030513D01*
Y008594*
X030553Y008621*
X03058Y008661*
G37*
G36*
X030413D02*
X030346D01*
X030372Y008621*
X030413Y008594*
Y008661*
G37*
G36*
X027913Y009007D02*
X027841Y008993D01*
X02778Y008952*
X027739Y00889*
X027725Y008818*
X027739Y008746*
X02778Y008685*
X027841Y008644*
X027913Y00863*
X027986Y008644*
X028047Y008685*
X028088Y008746*
X028102Y008818*
X028088Y00889*
X028047Y008952*
X027986Y008993*
X027913Y009007*
G37*
G36*
X027441D02*
X027369Y008993D01*
X027308Y008952*
X027267Y00889*
X027252Y008818*
X027267Y008746*
X027308Y008685*
X027369Y008644*
X027441Y00863*
X027513Y008644*
X027574Y008685*
X027615Y008746*
X02763Y008818*
X027615Y00889*
X027574Y008952*
X027513Y008993*
X027441Y009007*
G37*
G36*
X015906Y007354D02*
X015833Y00734D01*
X015772Y007299*
X015731Y007238*
X015717Y007165*
X015731Y007093*
X015772Y007032*
X015833Y006991*
X015906Y006977*
X015978Y006991*
X016039Y007032*
X01608Y007093*
X016094Y007165*
X01608Y007238*
X016039Y007299*
X015978Y00734*
X015906Y007354*
G37*
G36*
X030226Y007315D02*
X030154Y0073D01*
X030093Y007259*
X030052Y007198*
X030038Y007126*
X030052Y007054*
X030093Y006993*
X030154Y006952*
X030226Y006937*
X030299Y006952*
X03036Y006993*
X030401Y007054*
X030415Y007126*
X030401Y007198*
X03036Y007259*
X030299Y0073*
X030226Y007315*
G37*
G36*
X025157Y007689D02*
X025085Y007674D01*
X025024Y007633*
X024983Y007572*
X024969Y0075*
X024983Y007428*
X025024Y007367*
X025085Y007326*
X025157Y007311*
X02523Y007326*
X025291Y007367*
X025332Y007428*
X025346Y0075*
X025332Y007572*
X025291Y007633*
X02523Y007674*
X025157Y007689*
G37*
G36*
X02688Y007413D02*
X026808Y007399D01*
X026747Y007358*
X026706Y007297*
X026691Y007224*
X026706Y007152*
X026747Y007091*
X026808Y00705*
X02688Y007036*
X026952Y00705*
X027013Y007091*
X027054Y007152*
X027069Y007224*
X027054Y007297*
X027013Y007358*
X026952Y007399*
X02688Y007413*
G37*
G36*
X020028Y007711D02*
X019927Y007698D01*
X019834Y007659*
X019753Y007597*
X019691Y007517*
X019653Y007423*
X019639Y007323*
X019653Y007222*
X019691Y007129*
X019753Y007048*
X019834Y006987*
X019927Y006948*
X020028Y006935*
X020128Y006948*
X020222Y006987*
X020302Y007048*
X020364Y007129*
X020402Y007222*
X020416Y007323*
X020402Y007423*
X020364Y007517*
X020302Y007597*
X020222Y007659*
X020128Y007698*
X020028Y007711*
G37*
G36*
X024488Y007108D02*
X024416Y007094D01*
X024355Y007053*
X024314Y006991*
X0243Y006919*
X024314Y006847*
X024355Y006786*
X024416Y006745*
X024488Y006731*
X02456Y006745*
X024622Y006786*
X024662Y006847*
X024677Y006919*
X024662Y006991*
X024622Y007053*
X02456Y007094*
X024488Y007108*
G37*
G36*
X033661Y007848D02*
X033515Y007829D01*
X033379Y007773*
X033262Y007683*
X033172Y007566*
X033116Y00743*
X033097Y007283*
X033116Y007137*
X033172Y007001*
X033262Y006884*
X033379Y006794*
X033515Y006738*
X033661Y006719*
X033808Y006738*
X033944Y006794*
X034061Y006884*
X034151Y007001*
X034207Y007137*
X034226Y007283*
X034207Y00743*
X034151Y007566*
X034061Y007683*
X033944Y007773*
X033808Y007829*
X033661Y007848*
G37*
G36*
X019028Y007711D02*
X018927Y007698D01*
X018834Y007659*
X018753Y007597*
X018691Y007517*
X018653Y007423*
X018639Y007323*
X018653Y007222*
X018691Y007129*
X018753Y007048*
X018834Y006987*
X018927Y006948*
X019028Y006935*
X019128Y006948*
X019222Y006987*
X019302Y007048*
X019364Y007129*
X019402Y007222*
X019416Y007323*
X019402Y007423*
X019364Y007517*
X019302Y007597*
X019222Y007659*
X019128Y007698*
X019028Y007711*
G37*
G36*
X031289Y007236D02*
X031217Y007222D01*
X031156Y007181*
X031115Y007119*
X031101Y007047*
X031115Y006975*
X031156Y006914*
X031217Y006873*
X031289Y006859*
X031362Y006873*
X031423Y006914*
X031464Y006975*
X031478Y007047*
X031464Y007119*
X031423Y007181*
X031362Y007222*
X031289Y007236*
G37*
G36*
X027441Y008456D02*
X027369Y008441D01*
X027308Y0084*
X027267Y008339*
X027252Y008267*
X027267Y008195*
X027308Y008134*
X027369Y008093*
X027441Y008078*
X027513Y008093*
X027574Y008134*
X027615Y008195*
X02763Y008267*
X027615Y008339*
X027574Y0084*
X027513Y008441*
X027441Y008456*
G37*
G36*
X012441Y008319D02*
X012369Y008304D01*
X012308Y008263*
X012267Y008202*
X012252Y00813*
X012267Y008058*
X012308Y007997*
X012369Y007956*
X012441Y007941*
X012513Y007956*
X012574Y007997*
X012615Y008058*
X01263Y00813*
X012615Y008202*
X012574Y008263*
X012513Y008304*
X012441Y008319*
G37*
G36*
X014311Y008889D02*
X014239Y008875D01*
X014178Y008834*
X014137Y008773*
X014122Y008701*
X014137Y008629*
X014178Y008567*
X014239Y008527*
X014311Y008512*
X014356Y008521*
X014376Y008474*
X014355Y00846*
X014314Y008399*
X0143Y008327*
X014314Y008255*
X014355Y008193*
X014416Y008153*
X014488Y008138*
X01456Y008153*
X014622Y008193*
X014662Y008255*
X014677Y008327*
X014662Y008399*
X014622Y00846*
X01456Y008501*
X014488Y008515*
X014443Y008506*
X014424Y008554*
X014444Y008567*
X014485Y008629*
X0145Y008701*
X014485Y008773*
X014444Y008834*
X014383Y008875*
X014311Y008889*
G37*
G36*
X027913Y008456D02*
X027841Y008441D01*
X02778Y0084*
X027739Y008339*
X027725Y008267*
X027739Y008195*
X02778Y008134*
X027841Y008093*
X027913Y008078*
X027986Y008093*
X028047Y008134*
X028088Y008195*
X028102Y008267*
X028088Y008339*
X028047Y0084*
X027986Y008441*
X027913Y008456*
G37*
G36*
X018691Y00824D02*
X018619Y008225D01*
X018558Y008185*
X018517Y008123*
X018502Y008051*
X018517Y007979*
X018558Y007918*
X018619Y007877*
X018691Y007863*
X018763Y007877*
X018824Y007918*
X018865Y007979*
X01888Y008051*
X018865Y008123*
X018824Y008185*
X018763Y008225*
X018691Y00824*
G37*
G36*
X027441Y007905D02*
X027369Y00789D01*
X027308Y007849*
X027267Y007788*
X027252Y007716*
X027267Y007644*
X027308Y007583*
X027369Y007542*
X027441Y007527*
X027513Y007542*
X027574Y007583*
X027615Y007644*
X02763Y007716*
X027615Y007788*
X027574Y007849*
X027513Y00789*
X027441Y007905*
G37*
G36*
X031506Y007689D02*
X031434Y007674D01*
X031373Y007633*
X031332Y007572*
X031317Y0075*
X031332Y007428*
X031373Y007367*
X031434Y007326*
X031506Y007311*
X031578Y007326*
X031639Y007367*
X03168Y007428*
X031695Y0075*
X03168Y007572*
X031639Y007633*
X031578Y007674*
X031506Y007689*
G37*
G36*
X032795Y007945D02*
X032723Y00793D01*
X032662Y007889*
X032621Y007828*
X032607Y007756*
X032621Y007684*
X032662Y007623*
X032723Y007582*
X032795Y007567*
X032867Y007582*
X032929Y007623*
X03297Y007684*
X032984Y007756*
X03297Y007828*
X032929Y007889*
X032867Y00793*
X032795Y007945*
G37*
G36*
X027913Y007905D02*
X027841Y00789D01*
X02778Y007849*
X027739Y007788*
X027725Y007716*
X027739Y007644*
X02778Y007583*
X027841Y007542*
X027913Y007527*
X027986Y007542*
X028047Y007583*
X028088Y007644*
X028102Y007716*
X028088Y007788*
X028047Y007849*
X027986Y00789*
X027913Y007905*
G37*
G36*
X023808Y010265D02*
X023768Y010238D01*
X023741Y010198*
X023808*
Y010265*
G37*
G36*
X016938Y010176D02*
X016871D01*
Y010109*
X016911Y010136*
X016938Y010176*
G37*
G36*
X016142Y010602D02*
X01607Y010588D01*
X016008Y010547*
X015967Y010486*
X015953Y010413*
X015967Y010341*
X016008Y01028*
X01607Y010239*
X016142Y010225*
X016214Y010239*
X016275Y01028*
X016316Y010341*
X01633Y010413*
X016316Y010486*
X016275Y010547*
X016214Y010588*
X016142Y010602*
G37*
G36*
X023908Y010265D02*
Y010198D01*
X023975*
X023948Y010238*
X023908Y010265*
G37*
G36*
X016771Y010176D02*
X016704D01*
X016731Y010136*
X016771Y010109*
Y010176*
G37*
G36*
X01747Y010415D02*
X017398Y010401D01*
X017337Y01036*
X017296Y010299*
X017282Y010226*
X017296Y010154*
X017337Y010093*
X017398Y010052*
X01747Y010038*
X017543Y010052*
X017604Y010093*
X017645Y010154*
X017659Y010226*
X017645Y010299*
X017604Y01036*
X017543Y010401*
X01747Y010415*
G37*
G36*
X023975Y010098D02*
X023908D01*
Y010031*
X023948Y010058*
X023975Y010098*
G37*
G36*
X028819Y010484D02*
X028747Y01047D01*
X028686Y010429*
X028645Y010367*
X02863Y010295*
X028645Y010223*
X028686Y010162*
X028747Y010121*
X028819Y010107*
X028891Y010121*
X028952Y010162*
X028993Y010223*
X029008Y010295*
X028993Y010367*
X028952Y010429*
X028891Y01047*
X028819Y010484*
G37*
G36*
X034154Y010464D02*
X034081Y01045D01*
X03402Y010409*
X033979Y010348*
X033965Y010276*
X033979Y010203*
X03402Y010142*
X034081Y010101*
X034154Y010087*
X034226Y010101*
X034287Y010142*
X034328Y010203*
X034342Y010276*
X034328Y010348*
X034287Y010409*
X034226Y01045*
X034154Y010464*
G37*
G36*
X030344Y010937D02*
X030272Y010922D01*
X030211Y010881*
X03017Y01082*
X030156Y010748*
X03017Y010676*
X030211Y010615*
X030272Y010574*
X030344Y010559*
X030417Y010574*
X030478Y010615*
X030519Y010676*
X030533Y010748*
X030519Y01082*
X030478Y010881*
X030417Y010922*
X030344Y010937*
G37*
G36*
X015483Y010481D02*
Y010414D01*
X01555*
X015523Y010454*
X015483Y010481*
G37*
G36*
X031526Y010937D02*
X031453Y010922D01*
X031392Y010881*
X031351Y01082*
X031337Y010748*
X031351Y010676*
X031392Y010615*
X031453Y010574*
X031526Y010559*
X031598Y010574*
X031659Y010615*
X0317Y010676*
X031714Y010748*
X0317Y01082*
X031659Y010881*
X031598Y010922*
X031526Y010937*
G37*
G36*
X030935D02*
X030863Y010922D01*
X030802Y010881*
X030761Y01082*
X030746Y010748*
X030761Y010676*
X030802Y010615*
X030863Y010574*
X030935Y010559*
X031007Y010574*
X031068Y010615*
X031109Y010676*
X031124Y010748*
X031109Y01082*
X031068Y010881*
X031007Y010922*
X030935Y010937*
G37*
G36*
X015383Y010481D02*
X015343Y010454D01*
X015316Y010414*
X015383*
Y010481*
G37*
G36*
X01555Y010314D02*
X015483D01*
Y010247*
X015523Y010274*
X01555Y010314*
G37*
G36*
X015383D02*
X015316D01*
X015343Y010274*
X015383Y010247*
Y010314*
G37*
G36*
X016871Y010343D02*
Y010276D01*
X016938*
X016911Y010316*
X016871Y010343*
G37*
G36*
X016771D02*
X016731Y010316D01*
X016704Y010276*
X016771*
Y010343*
G37*
G36*
X019173Y009706D02*
X019101Y009692D01*
X01904Y009651*
X018999Y00959*
X018985Y009518*
X018999Y009446*
X01904Y009384*
X019101Y009343*
X019173Y009329*
X019245Y009343*
X019307Y009384*
X019347Y009446*
X019362Y009518*
X019347Y00959*
X019307Y009651*
X019245Y009692*
X019173Y009706*
G37*
G36*
X033082Y00927D02*
Y009204D01*
X033148*
X033122Y009244*
X033082Y00927*
G37*
G36*
X01188Y009726D02*
X011808Y009712D01*
X011747Y009671*
X011706Y00961*
X011691Y009537*
X011706Y009465*
X011747Y009404*
X011808Y009363*
X01188Y009349*
X011952Y009363*
X012013Y009404*
X012054Y009465*
X012069Y009537*
X012054Y00961*
X012013Y009671*
X011952Y009712*
X01188Y009726*
G37*
G36*
X029636Y009706D02*
X029564Y009692D01*
X029502Y009651*
X029462Y00959*
X029447Y009518*
X029462Y009446*
X029502Y009384*
X029564Y009343*
X029636Y009329*
X029708Y009343*
X029769Y009384*
X02981Y009446*
X029824Y009518*
X02981Y00959*
X029769Y009651*
X029708Y009692*
X029636Y009706*
G37*
G36*
X032982Y00927D02*
X032941Y009244D01*
X032915Y009204*
X032982*
Y00927*
G37*
G36*
X024941Y00947D02*
X024869Y009456D01*
X024808Y009415*
X024767Y009354*
X024752Y009281*
X024767Y009209*
X024808Y009148*
X024869Y009107*
X024941Y009093*
X025013Y009107*
X025074Y009148*
X025115Y009209*
X02513Y009281*
X025115Y009354*
X025074Y009415*
X025013Y009456*
X024941Y00947*
G37*
G36*
X012953Y00945D02*
X012881Y009436D01*
X012819Y009395*
X012778Y009334*
X012764Y009262*
X012778Y00919*
X012819Y009128*
X012881Y009088*
X012953Y009073*
X013025Y009088*
X013086Y009128*
X013127Y00919*
X013141Y009262*
X013127Y009334*
X013086Y009395*
X013025Y009436*
X012953Y00945*
G37*
G36*
X027441Y009558D02*
X027369Y009544D01*
X027308Y009503*
X027267Y009442*
X027252Y009369*
X027267Y009297*
X027308Y009236*
X027369Y009195*
X027441Y009181*
X027513Y009195*
X027574Y009236*
X027615Y009297*
X02763Y009369*
X027615Y009442*
X027574Y009503*
X027513Y009544*
X027441Y009558*
G37*
G36*
X027913D02*
X027841Y009544D01*
X02778Y009503*
X027739Y009442*
X027725Y009369*
X027739Y009297*
X02778Y009236*
X027841Y009195*
X027913Y009181*
X027986Y009195*
X028047Y009236*
X028088Y009297*
X028102Y009369*
X028088Y009442*
X028047Y009503*
X027986Y009544*
X027913Y009558*
G37*
G36*
X032116Y010307D02*
X032044Y010292D01*
X031983Y010251*
X031942Y01019*
X031928Y010118*
X031942Y010046*
X031983Y009985*
X032044Y009944*
X032116Y009929*
X032188Y009944*
X03225Y009985*
X03229Y010046*
X032305Y010118*
X03229Y01019*
X03225Y010251*
X032188Y010292*
X032116Y010307*
G37*
G36*
X030935D02*
X030863Y010292D01*
X030802Y010251*
X030761Y01019*
X030746Y010118*
X030761Y010046*
X030802Y009985*
X030863Y009944*
X030935Y009929*
X031007Y009944*
X031068Y009985*
X031109Y010046*
X031124Y010118*
X031109Y01019*
X031068Y010251*
X031007Y010292*
X030935Y010307*
G37*
G36*
X023808Y010098D02*
X023741D01*
X023768Y010058*
X023808Y010031*
Y010098*
G37*
G36*
X019734Y010385D02*
X019662Y010371D01*
X019601Y01033*
X01956Y010269*
X019546Y010197*
X01956Y010125*
X019601Y010063*
X019662Y010023*
X019734Y010008*
X019806Y010023*
X019868Y010063*
X019909Y010125*
X019923Y010197*
X019909Y010269*
X019868Y01033*
X019806Y010371*
X019734Y010385*
G37*
G36*
X032707Y010307D02*
X032635Y010292D01*
X032573Y010251*
X032532Y01019*
X032518Y010118*
X032532Y010046*
X032573Y009985*
X032635Y009944*
X032707Y009929*
X032779Y009944*
X03284Y009985*
X032881Y010046*
X032895Y010118*
X032881Y01019*
X03284Y010251*
X032779Y010292*
X032707Y010307*
G37*
G36*
X011919Y010258D02*
X011847Y010243D01*
X011786Y010202*
X011745Y010141*
X011731Y010069*
X011745Y009997*
X011786Y009936*
X011847Y009895*
X011919Y00988*
X011991Y009895*
X012053Y009936*
X012094Y009997*
X012108Y010069*
X012094Y010141*
X012053Y010202*
X011991Y010243*
X011919Y010258*
G37*
G36*
X020571Y009756D02*
X020499Y009741D01*
X020437Y0097*
X020397Y009639*
X020382Y009567*
X020397Y009495*
X020437Y009434*
X020499Y009393*
X020571Y009378*
X020643Y009393*
X020704Y009434*
X020745Y009495*
X020759Y009567*
X020745Y009639*
X020704Y0097*
X020643Y009741*
X020571Y009756*
G37*
G36*
X031526Y010307D02*
X031453Y010292D01*
X031392Y010251*
X031351Y01019*
X031337Y010118*
X031351Y010046*
X031392Y009985*
X031453Y009944*
X031526Y009929*
X031598Y009944*
X031659Y009985*
X0317Y010046*
X031714Y010118*
X0317Y01019*
X031659Y010251*
X031598Y010292*
X031526Y010307*
G37*
G36*
X030344D02*
X030272Y010292D01*
X030211Y010251*
X03017Y01019*
X030156Y010118*
X03017Y010046*
X030211Y009985*
X030272Y009944*
X030344Y009929*
X030417Y009944*
X030478Y009985*
X030519Y010046*
X030533Y010118*
X030519Y01019*
X030478Y010251*
X030417Y010292*
X030344Y010307*
G37*
G36*
X019084Y014113D02*
X019017D01*
X019044Y014073*
X019084Y014046*
Y014113*
G37*
G36*
X011014Y022216D02*
X010942Y022202D01*
X01088Y022161*
X01084Y0221*
X010825Y022028*
X01084Y021955*
X01088Y021894*
X010942Y021853*
X011014Y021839*
X011086Y021853*
X011147Y021894*
X011182Y021946*
X011224*
X011235Y021943*
X011274Y021884*
X011335Y021843*
X011407Y021829*
X01148Y021843*
X011541Y021884*
X011582Y021946*
X011596Y022018*
X011582Y02209*
X011541Y022151*
X01148Y022192*
X011407Y022206*
X011335Y022192*
X011274Y022151*
X011239Y022099*
X011198Y0221*
X011186Y022103*
X011147Y022161*
X011086Y022202*
X011014Y022216*
G37*
G36*
X012146Y022206D02*
X012073Y022192D01*
X012012Y022151*
X011971Y02209*
X011957Y022018*
X011971Y021946*
X012012Y021884*
X012073Y021843*
X012146Y021829*
X012218Y021843*
X012279Y021884*
X01232Y021946*
X012334Y022018*
X01232Y02209*
X012279Y022151*
X012218Y022192*
X012146Y022206*
G37*
G36*
X023839Y022275D02*
X023766Y022261D01*
X023705Y02222*
X023664Y022159*
X02365Y022087*
X023664Y022014*
X023705Y021953*
X023766Y021912*
X023839Y021898*
X023911Y021912*
X023972Y021953*
X024013Y022014*
X024027Y022087*
X024013Y022159*
X023972Y02222*
X023911Y022261*
X023839Y022275*
G37*
G36*
X024577Y022236D02*
X024505Y022222D01*
X024443Y022181*
X024403Y022119*
X024388Y022047*
X024403Y021975*
X024443Y021914*
X024505Y021873*
X024577Y021859*
X024649Y021873*
X02471Y021914*
X024751Y021975*
X024765Y022047*
X024751Y022119*
X02471Y022181*
X024649Y022222*
X024577Y022236*
G37*
G36*
X01374Y022078D02*
X013668Y022064D01*
X013607Y022023*
X013566Y021962*
X013552Y02189*
X013566Y021818*
X013592Y021779*
X013556Y021743*
X013517Y021769*
X013445Y021783*
X013373Y021769*
X013334Y021743*
X013298Y021779*
X013324Y021818*
X013338Y02189*
X013324Y021962*
X013283Y022023*
X013222Y022064*
X01315Y022078*
X013077Y022064*
X013016Y022023*
X012975Y021962*
X012961Y02189*
X012975Y021818*
X013016Y021756*
X013077Y021716*
X01315Y021701*
X013222Y021716*
X01326Y021741*
X013296Y021705*
X013271Y021667*
X013256Y021594*
X013271Y021522*
X013312Y021461*
X013373Y02142*
X013445Y021406*
X013517Y02142*
X013578Y021461*
X013619Y021522*
X013634Y021594*
X013619Y021667*
X013593Y021705*
X013629Y021741*
X013668Y021716*
X01374Y021701*
X013812Y021716*
X013874Y021756*
X013914Y021818*
X013929Y02189*
X013914Y021962*
X013874Y022023*
X013812Y022064*
X01374Y022078*
G37*
G36*
X031437Y021643D02*
X031054D01*
Y02126*
X031437*
Y021643*
G37*
G36*
X030954D02*
X030571D01*
Y02126*
X030954*
Y021643*
G37*
G36*
X031437Y022126D02*
X031054D01*
Y021743*
X031437*
Y021912*
Y022126*
G37*
G36*
X030954D02*
X030571D01*
Y021743*
X030954*
Y022126*
G37*
G36*
X025738Y022954D02*
X025666Y02294D01*
X025605Y022899*
X025564Y022838*
X02555Y022766*
X025564Y022694*
X025605Y022632*
X025666Y022591*
X025738Y022577*
X02581Y022591*
X025872Y022632*
X025912Y022694*
X025927Y022766*
X025912Y022838*
X025872Y022899*
X02581Y02294*
X025738Y022954*
G37*
G36*
X018248Y022846D02*
X018176Y022832D01*
X018115Y022791*
X018074Y02273*
X018059Y022657*
X018074Y022585*
X018115Y022524*
X018176Y022483*
X018248Y022469*
X01832Y022483*
X018381Y022524*
X018422Y022585*
X018437Y022657*
X018422Y02273*
X018381Y022791*
X01832Y022832*
X018248Y022846*
G37*
G36*
X02753Y023033D02*
X027457Y023019D01*
X027396Y022978*
X027355Y022917*
X027341Y022844*
X027355Y022772*
X027396Y022711*
X027457Y02267*
X02753Y022656*
X027602Y02267*
X027663Y022711*
X027704Y022772*
X027718Y022844*
X027704Y022917*
X027663Y022978*
X027602Y023019*
X02753Y023033*
G37*
G36*
X015404Y022984D02*
X015331Y02297D01*
X01527Y022929*
X015229Y022867*
X015215Y022795*
X015229Y022723*
X01527Y022662*
X015331Y022621*
X015404Y022607*
X015476Y022621*
X015537Y022662*
X015578Y022723*
X015592Y022795*
X015578Y022867*
X015537Y022929*
X015476Y02297*
X015404Y022984*
G37*
G36*
X017421Y022679D02*
X017349Y022664D01*
X017288Y022624*
X017247Y022562*
X017233Y02249*
X017247Y022418*
X017288Y022357*
X017349Y022316*
X017421Y022302*
X017493Y022316*
X017555Y022357*
X017596Y022418*
X01761Y02249*
X017596Y022562*
X017555Y022624*
X017493Y022664*
X017421Y022679*
G37*
G36*
X029685Y022334D02*
X029613Y02232D01*
X029552Y022279*
X029511Y022218*
X029496Y022146*
X029511Y022073*
X029552Y022012*
X029613Y021971*
X029685Y021957*
X029757Y021971*
X029818Y022012*
X029859Y022073*
X029874Y022146*
X029859Y022218*
X029818Y022279*
X029757Y02232*
X029685Y022334*
G37*
G36*
X022313Y022295D02*
X022241Y022281D01*
X02218Y02224*
X022139Y022178*
X022124Y022106*
X022139Y022034*
X02218Y021973*
X022241Y021932*
X022313Y021918*
X022385Y021932*
X022446Y021973*
X022487Y022034*
X022502Y022106*
X022487Y022178*
X022446Y02224*
X022385Y022281*
X022313Y022295*
G37*
G36*
X021634Y02259D02*
X021562Y022576D01*
X0215Y022535*
X02146Y022474*
X021445Y022402*
X02146Y022329*
X0215Y022268*
X021562Y022227*
X021634Y022213*
X021706Y022227*
X021767Y022268*
X021808Y022329*
X021822Y022402*
X021808Y022474*
X021767Y022535*
X021706Y022576*
X021634Y02259*
G37*
G36*
X027067Y022482D02*
X026995Y022468D01*
X026934Y022427*
X026893Y022365*
X026878Y022293*
X026893Y022221*
X026934Y02216*
X026995Y022119*
X027067Y022105*
X027139Y022119*
X0272Y02216*
X027241Y022221*
X027256Y022293*
X027241Y022365*
X0272Y022427*
X027139Y022468*
X027067Y022482*
G37*
G36*
X019095Y019576D02*
Y019509D01*
X019162*
X019135Y019549*
X019095Y019576*
G37*
G36*
X018995D02*
X018955Y019549D01*
X018928Y019509*
X018995*
Y019576*
G37*
G36*
X012421Y02074D02*
X012349Y020725D01*
X012288Y020685*
X012247Y020623*
X012233Y020551*
X012247Y020479*
X012288Y020418*
X012349Y020377*
X012421Y020363*
X012493Y020377*
X012555Y020418*
X012596Y020479*
X01261Y020551*
X012596Y020623*
X012555Y020685*
X012493Y020725*
X012421Y02074*
G37*
G36*
X019301Y020622D02*
X019229Y020607D01*
X019168Y020566*
X019127Y020505*
X019113Y020433*
X019127Y020361*
X019168Y0203*
X019229Y020259*
X019301Y020244*
X019373Y020259*
X019435Y0203*
X019475Y020361*
X01949Y020433*
X019475Y020505*
X019435Y020566*
X019373Y020607*
X019301Y020622*
G37*
G36*
X019162Y019409D02*
X019095D01*
Y019342*
X019135Y019369*
X019162Y019409*
G37*
G36*
X010984Y020004D02*
X010861Y019992D01*
X010742Y019956*
X010632Y019897*
X010536Y019818*
X010457Y019722*
X010399Y019613*
X010363Y019494*
X01035Y01937*
X010363Y019246*
X010399Y019127*
X010457Y019018*
X010536Y018922*
X010632Y018843*
X010742Y018784*
X010861Y018748*
X010984Y018736*
X011108Y018748*
X011227Y018784*
X011336Y018843*
X011432Y018922*
X011511Y019018*
X01157Y019127*
X011606Y019246*
X011618Y01937*
X011606Y019494*
X01157Y019613*
X011511Y019722*
X011432Y019818*
X011336Y019897*
X011227Y019956*
X011108Y019992*
X010984Y020004*
G37*
G36*
X016407Y019067D02*
X016335Y019052D01*
X016274Y019011*
X016233Y01895*
X016219Y018878*
X016233Y018806*
X016274Y018745*
X016335Y018704*
X016407Y018689*
X01648Y018704*
X016541Y018745*
X016582Y018806*
X016596Y018878*
X016582Y01895*
X016541Y019011*
X01648Y019052*
X016407Y019067*
G37*
G36*
X018995Y019409D02*
X018928D01*
X018955Y019369*
X018995Y019342*
Y019409*
G37*
G36*
X017461Y019598D02*
X017388Y019584D01*
X017327Y019543*
X017286Y019482*
X017272Y019409*
X017286Y019337*
X017327Y019276*
X017388Y019235*
X017461Y019221*
X017533Y019235*
X017594Y019276*
X017635Y019337*
X017649Y019409*
X017635Y019482*
X017594Y019543*
X017533Y019584*
X017461Y019598*
G37*
G36*
X027461Y021508D02*
X027388Y021493D01*
X027327Y021452*
X027286Y021391*
X027272Y021319*
X027286Y021247*
X027327Y021186*
X027388Y021145*
X027461Y02113*
X027533Y021145*
X027594Y021186*
X027635Y021247*
X027649Y021319*
X027635Y021391*
X027594Y021452*
X027533Y021493*
X027461Y021508*
G37*
G36*
X028396Y021488D02*
X028323Y021473D01*
X028262Y021433*
X028221Y021371*
X028207Y021299*
X028221Y021227*
X028262Y021166*
X028323Y021125*
X028396Y021111*
X028468Y021125*
X028529Y021166*
X02857Y021227*
X028584Y021299*
X02857Y021371*
X028529Y021433*
X028468Y021473*
X028396Y021488*
G37*
G36*
X019034Y021269D02*
X018967D01*
Y021202*
X019007Y021229*
X019034Y021269*
G37*
G36*
X018867D02*
X0188D01*
X018827Y021229*
X018867Y021202*
Y021269*
G37*
G36*
X014951Y021409D02*
X014879Y021395D01*
X014817Y021354*
X014777Y021293*
X014762Y02122*
X014777Y021148*
X014817Y021087*
X014879Y021046*
X014951Y021032*
X015023Y021046*
X015084Y021087*
X015125Y021148*
X015139Y02122*
X015125Y021293*
X015084Y021354*
X015023Y021395*
X014951Y021409*
G37*
G36*
X014596Y021006D02*
X014524Y020991D01*
X014463Y02095*
X014422Y020889*
X014408Y020817*
X014422Y020745*
X014463Y020684*
X014524Y020643*
X014596Y020628*
X014669Y020643*
X01473Y020684*
X014771Y020745*
X014785Y020817*
X014771Y020889*
X01473Y02095*
X014669Y020991*
X014596Y021006*
G37*
G36*
X011732Y020917D02*
X01166Y020903D01*
X011599Y020862*
X011558Y020801*
X011544Y020728*
X011558Y020656*
X011599Y020595*
X01166Y020554*
X011732Y02054*
X011804Y020554*
X011866Y020595*
X011907Y020656*
X011921Y020728*
X011907Y020801*
X011866Y020862*
X011804Y020903*
X011732Y020917*
G37*
G36*
X027461Y021042D02*
Y020975D01*
X027528*
X027502Y021015*
X027461Y021042*
G37*
G36*
X011043Y021006D02*
X010971Y020991D01*
X01091Y02095*
X010869Y020889*
X010855Y020817*
X010869Y020745*
X01091Y020684*
X010971Y020643*
X011043Y020628*
X011115Y020643*
X011177Y020684*
X011218Y020745*
X011232Y020817*
X011218Y020889*
X011177Y02095*
X011115Y020991*
X011043Y021006*
G37*
G36*
X024094Y0251D02*
X024022Y025086D01*
X023961Y025045*
X02392Y024984*
X023906Y024911*
X02392Y024839*
X023961Y024778*
X024022Y024737*
X024094Y024723*
X024167Y024737*
X024228Y024778*
X024269Y024839*
X024283Y024911*
X024269Y024984*
X024228Y025045*
X024167Y025086*
X024094Y0251*
G37*
G36*
X022185Y025051D02*
X022113Y025036D01*
X022052Y024996*
X022011Y024934*
X021996Y024862*
X022011Y02479*
X022052Y024729*
X022113Y024688*
X022185Y024674*
X022257Y024688*
X022318Y024729*
X022359Y02479*
X022374Y024862*
X022359Y024934*
X022318Y024996*
X022257Y025036*
X022185Y025051*
G37*
G36*
X015423Y025198D02*
X015351Y025184D01*
X01529Y025143*
X015249Y025082*
X015235Y02501*
X015249Y024938*
X01529Y024876*
X015351Y024836*
X015423Y024821*
X015495Y024836*
X015557Y024876*
X015597Y024938*
X015612Y02501*
X015597Y025082*
X015557Y025143*
X015495Y025184*
X015423Y025198*
G37*
G36*
X010915D02*
X010843Y025184D01*
X010782Y025143*
X010741Y025082*
X010727Y02501*
X010741Y024938*
X010782Y024876*
X010843Y024836*
X010915Y024821*
X010988Y024836*
X011049Y024876*
X01109Y024938*
X011104Y02501*
X01109Y025082*
X011049Y025143*
X010988Y025184*
X010915Y025198*
G37*
G36*
X020896Y025002D02*
X020823Y024987D01*
X020762Y024946*
X020721Y024885*
X020707Y024813*
X020721Y024741*
X020762Y02468*
X020823Y024639*
X020896Y024624*
X020968Y024639*
X021029Y02468*
X02107Y024741*
X021084Y024813*
X02107Y024885*
X021029Y024946*
X020968Y024987*
X020896Y025002*
G37*
G36*
X018209Y024864D02*
X018136Y024849D01*
X018075Y024809*
X018034Y024747*
X01802Y024675*
X018034Y024603*
X018075Y024542*
X018136Y024501*
X018209Y024487*
X018281Y024501*
X018342Y024542*
X018383Y024603*
X018397Y024675*
X018383Y024747*
X018342Y024809*
X018281Y024849*
X018209Y024864*
G37*
G36*
X018642Y024785D02*
X01857Y024771D01*
X018508Y02473*
X018467Y024669*
X018453Y024596*
X018467Y024524*
X018508Y024463*
X01857Y024422*
X018642Y024408*
X018714Y024422*
X018775Y024463*
X018816Y024524*
X01883Y024596*
X018816Y024669*
X018775Y02473*
X018714Y024771*
X018642Y024785*
G37*
G36*
X016752Y024972D02*
X01668Y024958D01*
X016619Y024917*
X016578Y024856*
X016563Y024783*
X016578Y024711*
X016619Y02465*
X01668Y024609*
X016752Y024595*
X016824Y024609*
X016885Y02465*
X016926Y024711*
X016941Y024783*
X016926Y024856*
X016885Y024917*
X016824Y024958*
X016752Y024972*
G37*
G36*
X013159Y024952D02*
X013087Y024938D01*
X013026Y024897*
X012985Y024836*
X012971Y024764*
X012985Y024692*
X013026Y02463*
X013087Y02459*
X013159Y024575*
X013232Y02459*
X013293Y02463*
X013334Y024692*
X013348Y024764*
X013334Y024836*
X013293Y024897*
X013232Y024938*
X013159Y024952*
G37*
G36*
X023119Y025206D02*
X023052D01*
Y025139*
X023092Y025166*
X023119Y025206*
G37*
G36*
X022952D02*
X022885D01*
X022912Y025166*
X022952Y025139*
Y025206*
G37*
G36*
X023052Y025373D02*
Y025306D01*
X023119*
X023092Y025346*
X023052Y025373*
G37*
G36*
X022952D02*
X022912Y025346D01*
X022885Y025306*
X022952*
Y025373*
G37*
G36*
X029587Y025137D02*
Y02507D01*
X029654*
X029628Y02511*
X029587Y025137*
G37*
G36*
X029654Y02497D02*
X029587D01*
Y024903*
X029628Y02493*
X029654Y02497*
G37*
G36*
X029487D02*
X02942D01*
X029447Y02493*
X029487Y024903*
Y02497*
G37*
G36*
Y025137D02*
X029447Y02511D01*
X02942Y02507*
X029487*
Y025137*
G37*
G36*
X024656Y025356D02*
X024583Y025342D01*
X024522Y025301*
X024481Y02524*
X024467Y025167*
X024481Y025095*
X024522Y025034*
X024583Y024993*
X024656Y024979*
X024728Y024993*
X024789Y025034*
X02483Y025095*
X024844Y025167*
X02483Y02524*
X024789Y025301*
X024728Y025342*
X024656Y025356*
G37*
G36*
X02747Y023365D02*
X02743Y023338D01*
X027403Y023298*
X02747*
Y023365*
G37*
G36*
X011437Y023624D02*
X011365Y023609D01*
X011304Y023568*
X011263Y023507*
X011248Y023435*
X011263Y023363*
X011304Y023302*
X011365Y023261*
X011437Y023246*
X011509Y023261*
X01157Y023302*
X011611Y023363*
X011626Y023435*
X011611Y023507*
X01157Y023568*
X011509Y023609*
X011437Y023624*
G37*
G36*
X029577Y023781D02*
X029505Y023767D01*
X029443Y023726*
X029403Y023665*
X029388Y023593*
X029403Y02352*
X029443Y023459*
X029505Y023418*
X029577Y023404*
X029649Y023418*
X02971Y023459*
X029751Y02352*
X029765Y023593*
X029751Y023665*
X02971Y023726*
X029649Y023767*
X029577Y023781*
G37*
G36*
X02757Y023365D02*
Y023298D01*
X027637*
X02761Y023338*
X02757Y023365*
G37*
G36*
X027637Y023198D02*
X02757D01*
Y023131*
X02761Y023158*
X027637Y023198*
G37*
G36*
X024665Y0232D02*
X024593Y023186D01*
X024532Y023145*
X024491Y023084*
X024477Y023012*
X024491Y02294*
X024532Y022878*
X024593Y022838*
X024665Y022823*
X024738Y022838*
X024799Y022878*
X02484Y02294*
X024854Y023012*
X02484Y023084*
X024799Y023145*
X024738Y023186*
X024665Y0232*
G37*
G36*
X026319Y023191D02*
X026247Y023176D01*
X026186Y023135*
X026145Y023074*
X02613Y023002*
X026145Y02293*
X026186Y022869*
X026247Y022828*
X026319Y022813*
X026391Y022828*
X026452Y022869*
X026493Y02293*
X026508Y023002*
X026493Y023074*
X026452Y023135*
X026391Y023176*
X026319Y023191*
G37*
G36*
X02747Y023198D02*
X027403D01*
X02743Y023158*
X02747Y023131*
Y023198*
G37*
G36*
X020906Y02321D02*
X020833Y023196D01*
X020772Y023155*
X020731Y023094*
X020717Y023022*
X020731Y022949*
X020772Y022888*
X020833Y022847*
X020906Y022833*
X020978Y022847*
X021039Y022888*
X02108Y022949*
X021094Y023022*
X02108Y023094*
X021039Y023155*
X020978Y023196*
X020906Y02321*
G37*
G36*
X02563Y024903D02*
X025558Y024889D01*
X025497Y024848*
X025456Y024787*
X025441Y024715*
X025456Y024642*
X025497Y024581*
X025544Y024549*
X025538Y024497*
X025528Y024495*
X025467Y024454*
X025426Y024393*
X025412Y024321*
X025426Y024249*
X025467Y024187*
X025528Y024147*
X0256Y024132*
X025673Y024147*
X025734Y024187*
X025775Y024249*
X025789Y024321*
X025775Y024393*
X025734Y024454*
X025686Y024486*
X025692Y024538*
X025702Y02454*
X025763Y024581*
X025804Y024642*
X025819Y024715*
X025804Y024787*
X025763Y024848*
X025702Y024889*
X02563Y024903*
G37*
G36*
X019302Y024113D02*
Y024046D01*
X019369*
X019342Y024086*
X019302Y024113*
G37*
G36*
X017766Y024756D02*
X017694Y024741D01*
X017632Y0247*
X017591Y024639*
X017577Y024567*
X017591Y024495*
X017632Y024434*
X017694Y024393*
X017766Y024378*
X017838Y024393*
X017899Y024434*
X01794Y024495*
X017954Y024567*
X01794Y024639*
X017899Y0247*
X017838Y024741*
X017766Y024756*
G37*
G36*
X019951Y024588D02*
X019879Y024574D01*
X019817Y024533*
X019777Y024472*
X019762Y0244*
X019777Y024327*
X019817Y024266*
X019879Y024225*
X019951Y024211*
X020023Y024225*
X020084Y024266*
X020125Y024327*
X020139Y0244*
X020125Y024472*
X020084Y024533*
X020023Y024574*
X019951Y024588*
G37*
G36*
X019202Y024113D02*
X019162Y024086D01*
X019135Y024046*
X019202*
Y024113*
G37*
G36*
Y023946D02*
X019135D01*
X019162Y023906*
X019202Y023879*
Y023946*
G37*
G36*
X017283Y02387D02*
X017211Y023855D01*
X01715Y023814*
X017109Y023753*
X017095Y023681*
X017109Y023609*
X01715Y023548*
X017211Y023507*
X017283Y023492*
X017356Y023507*
X017417Y023548*
X017458Y023609*
X017472Y023681*
X017458Y023753*
X017417Y023814*
X017356Y023855*
X017283Y02387*
G37*
G36*
X018898Y024293D02*
X018825Y024279D01*
X018764Y024238*
X018723Y024177*
X018709Y024104*
X018723Y024032*
X018764Y023971*
X018825Y02393*
X018898Y023916*
X01897Y02393*
X019031Y023971*
X019072Y024032*
X019086Y024104*
X019072Y024177*
X019031Y024238*
X01897Y024279*
X018898Y024293*
G37*
G36*
X019369Y023946D02*
X019302D01*
Y023879*
X019342Y023906*
X019369Y023946*
G37*
G36*
X016841Y018889D02*
X016768Y018875D01*
X016707Y018834*
X016666Y018773*
X016652Y018701*
X016666Y018629*
X016707Y018567*
X016768Y018527*
X016841Y018512*
X016913Y018527*
X016974Y018567*
X017015Y018629*
X017029Y018701*
X017015Y018773*
X016974Y018834*
X016913Y018875*
X016841Y018889*
G37*
G36*
X027539Y015907D02*
X027467Y015893D01*
X027406Y015852*
X027365Y015791*
X027351Y015718*
X027365Y015646*
X027406Y015585*
X027467Y015544*
X027539Y01553*
X027612Y015544*
X027673Y015585*
X027714Y015646*
X027728Y015718*
X027714Y015791*
X027673Y015852*
X027612Y015893*
X027539Y015907*
G37*
G36*
X023602Y015809D02*
X02353Y015794D01*
X023469Y015753*
X023428Y015692*
X023414Y01562*
X023428Y015548*
X023469Y015487*
X02353Y015446*
X023602Y015431*
X023675Y015446*
X023736Y015487*
X023777Y015548*
X023791Y01562*
X023777Y015692*
X023736Y015753*
X023675Y015794*
X023602Y015809*
G37*
G36*
X010906Y015658D02*
Y015591D01*
X010973*
X010946Y015631*
X010906Y015658*
G37*
G36*
X010806D02*
X010766Y015631D01*
X010739Y015591*
X010806*
Y015658*
G37*
G36*
X010973Y015491D02*
X010906D01*
Y015424*
X010946Y015451*
X010973Y015491*
G37*
G36*
X03123Y015464D02*
X031158Y01545D01*
X031097Y015409*
X031056Y015348*
X031042Y015276*
X031056Y015203*
X031097Y015142*
X031158Y015101*
X03123Y015087*
X031302Y015101*
X031364Y015142*
X031405Y015203*
X031419Y015276*
X031405Y015348*
X031364Y015409*
X031302Y01545*
X03123Y015464*
G37*
G36*
X017106Y01571D02*
X017034Y015696D01*
X016973Y015655*
X016932Y015594*
X016918Y015522*
X016932Y015449*
X016973Y015388*
X017034Y015347*
X017104Y015333*
X017121Y015306*
X017127Y015286*
X01709Y01523*
X017075Y015157*
X01709Y015085*
X01713Y015024*
X017192Y014983*
X017264Y014969*
X017336Y014983*
X017397Y015024*
X017438Y015085*
X017452Y015157*
X017438Y01523*
X017397Y015291*
X017336Y015332*
X017266Y015346*
X017249Y015373*
X017243Y015393*
X017281Y015449*
X017295Y015522*
X017281Y015594*
X01724Y015655*
X017178Y015696*
X017106Y01571*
G37*
G36*
X010806Y015491D02*
X010739D01*
X010766Y015451*
X010806Y015424*
Y015491*
G37*
G36*
X024252Y015543D02*
X02418Y015529D01*
X024119Y015488*
X024078Y015427*
X024063Y015354*
X024078Y015282*
X024119Y015221*
X02418Y01518*
X024252Y015166*
X024324Y01518*
X024385Y015221*
X024426Y015282*
X024441Y015354*
X024426Y015427*
X024385Y015488*
X024324Y015529*
X024252Y015543*
G37*
G36*
X013178Y016101D02*
X013138Y016074D01*
X013111Y016034*
X013178*
Y016101*
G37*
G36*
X016083Y01638D02*
X01601Y016365D01*
X015949Y016324*
X015908Y016263*
X015894Y016191*
X015908Y016119*
X015949Y016058*
X01601Y016017*
X016083Y016002*
X016155Y016017*
X016216Y016058*
X016257Y016119*
X016271Y016191*
X016257Y016263*
X016216Y016324*
X016155Y016365*
X016083Y01638*
G37*
G36*
X023602Y016161D02*
X023535D01*
X023561Y016121*
X023602Y016094*
Y016161*
G37*
G36*
X013278Y016101D02*
Y016034D01*
X013345*
X013318Y016074*
X013278Y016101*
G37*
G36*
X028465Y01637D02*
X028392Y016355D01*
X028331Y016314*
X02829Y016253*
X028276Y016181*
X02829Y016109*
X028331Y016048*
X028392Y016007*
X028465Y015992*
X028537Y016007*
X028598Y016048*
X028639Y016109*
X028653Y016181*
X028639Y016253*
X028598Y016314*
X028537Y016355*
X028465Y01637*
G37*
G36*
X013178Y015934D02*
X013111D01*
X013138Y015894*
X013178Y015867*
Y015934*
G37*
G36*
X025069Y016222D02*
X024997Y016208D01*
X024936Y016167*
X024895Y016106*
X02488Y016033*
X024895Y015961*
X024936Y0159*
X024997Y015859*
X025069Y015845*
X025141Y015859*
X025202Y0159*
X025243Y015961*
X025258Y016033*
X025243Y016106*
X025202Y016167*
X025141Y016208*
X025069Y016222*
G37*
G36*
X022185Y016261D02*
X022113Y016247D01*
X022052Y016206*
X022011Y016145*
X021996Y016073*
X022011Y016001*
X022052Y015939*
X022113Y015899*
X022185Y015884*
X022257Y015899*
X022318Y015939*
X022359Y016001*
X022374Y016073*
X022359Y016145*
X022318Y016206*
X022257Y016247*
X022185Y016261*
G37*
G36*
X013345Y015934D02*
X013278D01*
Y015867*
X013318Y015894*
X013345Y015934*
G37*
G36*
X019184Y01428D02*
Y014213D01*
X019251*
X019224Y014254*
X019184Y01428*
G37*
G36*
X019084D02*
X019044Y014254D01*
X019017Y014213*
X019084*
Y01428*
G37*
G36*
X013288Y014344D02*
Y014277D01*
X013355*
X013328Y014317*
X013288Y014344*
G37*
G36*
X013188D02*
X013148Y014317D01*
X013121Y014277*
X013188*
Y014344*
G37*
G36*
X013355Y014177D02*
X013288D01*
Y01411*
X013328Y014137*
X013355Y014177*
G37*
G36*
X028966Y014143D02*
X028926Y014116D01*
X028899Y014076*
X028966*
Y014143*
G37*
G36*
X019251Y014113D02*
X019184D01*
Y014046*
X019224Y014073*
X019251Y014113*
G37*
G36*
X013188Y014177D02*
X013121D01*
X013148Y014137*
X013188Y01411*
Y014177*
G37*
G36*
X029066Y014143D02*
Y014076D01*
X029133*
X029106Y014116*
X029066Y014143*
G37*
G36*
X023021Y01491D02*
X022981Y014883D01*
X022954Y014843*
X023021*
Y01491*
G37*
G36*
X016329Y015198D02*
X016257Y015184D01*
X016195Y015143*
X016154Y015082*
X01614Y01501*
X016154Y014938*
X016195Y014876*
X016257Y014836*
X016329Y014821*
X016401Y014836*
X016462Y014876*
X016503Y014938*
X016517Y01501*
X016503Y015082*
X016462Y015143*
X016401Y015184*
X016329Y015198*
G37*
G36*
X010866Y015336D02*
X010794Y015322D01*
X010733Y015281*
X010692Y01522*
X010678Y015148*
X010692Y015075*
X010733Y015014*
X010794Y014973*
X010866Y014959*
X010938Y014973*
X011Y015014*
X01104Y015075*
X011055Y015148*
X01104Y01522*
X011Y015281*
X010938Y015322*
X010866Y015336*
G37*
G36*
X023121Y01491D02*
Y014843D01*
X023188*
X023161Y014883*
X023121Y01491*
G37*
G36*
X023188Y014743D02*
X023121D01*
Y014676*
X023161Y014703*
X023188Y014743*
G37*
G36*
X016053Y014726D02*
X015981Y014712D01*
X01592Y014671*
X015879Y01461*
X015865Y014537*
X015879Y014465*
X01592Y014404*
X015981Y014363*
X016053Y014349*
X016125Y014363*
X016187Y014404*
X016227Y014465*
X016242Y014537*
X016227Y01461*
X016187Y014671*
X016125Y014712*
X016053Y014726*
G37*
G36*
X02063Y014667D02*
X020558Y014653D01*
X020497Y014612*
X020456Y014551*
X020441Y014478*
X020456Y014406*
X020497Y014345*
X020558Y014304*
X02063Y01429*
X020702Y014304*
X020763Y014345*
X020804Y014406*
X020819Y014478*
X020804Y014551*
X020763Y014612*
X020702Y014653*
X02063Y014667*
G37*
G36*
X023021Y014743D02*
X022954D01*
X022981Y014703*
X023021Y014676*
Y014743*
G37*
G36*
X022018Y015041D02*
X021946Y015027D01*
X021884Y014986*
X021843Y014925*
X021829Y014852*
X021843Y01478*
X021884Y014719*
X021946Y014678*
X022018Y014664*
X02209Y014678*
X022151Y014719*
X022192Y01478*
X022206Y014852*
X022192Y014925*
X022151Y014986*
X02209Y015027*
X022018Y015041*
G37*
G36*
X032637Y01745D02*
X03257D01*
X032597Y01741*
X032637Y017383*
Y01745*
G37*
G36*
X019105Y017272D02*
Y017206D01*
X019172*
X019145Y017246*
X019105Y017272*
G37*
G36*
X025787Y017807D02*
X025715Y017792D01*
X025654Y017751*
X025613Y01769*
X025599Y017618*
X025613Y017546*
X025654Y017485*
X025715Y017444*
X025787Y017429*
X02586Y017444*
X025921Y017485*
X025962Y017546*
X025976Y017618*
X025962Y01769*
X025921Y017751*
X02586Y017792*
X025787Y017807*
G37*
G36*
X032804Y01745D02*
X032737D01*
Y017383*
X032777Y01741*
X032804Y01745*
G37*
G36*
X019005Y017272D02*
X018965Y017246D01*
X018938Y017206*
X019005*
Y017272*
G37*
G36*
X019172Y017106D02*
X019105D01*
Y017039*
X019145Y017065*
X019172Y017106*
G37*
G36*
X019005D02*
X018938D01*
X018965Y017065*
X019005Y017039*
Y017106*
G37*
G36*
X022185Y017492D02*
X022113Y017477D01*
X022052Y017437*
X022011Y017375*
X021996Y017303*
X022011Y017231*
X022052Y01717*
X022113Y017129*
X022185Y017115*
X022257Y017129*
X022318Y01717*
X022359Y017231*
X022374Y017303*
X022359Y017375*
X022318Y017437*
X022257Y017477*
X022185Y017492*
G37*
G36*
X033799Y017452D02*
X033727Y017438D01*
X033666Y017397*
X033625Y017336*
X033611Y017264*
X033625Y017192*
X033666Y01713*
X033727Y01709*
X033799Y017075*
X033871Y01709*
X033933Y01713*
X033973Y017192*
X033988Y017264*
X033973Y017336*
X033933Y017397*
X033871Y017438*
X033799Y017452*
G37*
G36*
X029646Y01805D02*
Y017983D01*
X029713*
X029687Y018023*
X029646Y01805*
G37*
G36*
X029546D02*
X029506Y018023D01*
X02948Y017983*
X029546*
Y01805*
G37*
G36*
X033661Y019462D02*
X033515Y019443D01*
X033379Y019387*
X033262Y019297*
X033172Y01918*
X033116Y019044*
X033097Y018898*
X033116Y018751*
X033172Y018615*
X033262Y018498*
X033379Y018408*
X033515Y018352*
X033661Y018333*
X033808Y018352*
X033944Y018408*
X034061Y018498*
X034151Y018615*
X034207Y018751*
X034226Y018898*
X034207Y019044*
X034151Y01918*
X034061Y019297*
X033944Y019387*
X033808Y019443*
X033661Y019462*
G37*
G36*
X014774Y019352D02*
X014701Y019338D01*
X01464Y019297*
X014599Y019236*
X014585Y019163*
X014599Y019091*
X01464Y01903*
X014673Y019008*
Y018948*
X01465Y018933*
X014609Y018872*
X014595Y018799*
X014609Y018727*
X01465Y018666*
X014712Y018625*
X014742Y018619*
X014748Y018584*
X014747Y018567*
X014689Y018529*
X014649Y018468*
X014634Y018396*
X014649Y018323*
X014689Y018262*
X014751Y018221*
X014823Y018207*
X014895Y018221*
X014956Y018262*
X014997Y018323*
X015011Y018396*
X014997Y018468*
X014956Y018529*
X014895Y01857*
X014865Y018576*
X014858Y018612*
X01486Y018628*
X014917Y018666*
X014958Y018727*
X014972Y018799*
X014958Y018872*
X014917Y018933*
X014884Y018955*
Y019015*
X014907Y01903*
X014948Y019091*
X014962Y019163*
X014948Y019236*
X014907Y019297*
X014846Y019338*
X014774Y019352*
G37*
G36*
X017303Y018358D02*
X017231Y018344D01*
X01717Y018303*
X017129Y018241*
X017115Y018169*
X017129Y018097*
X01717Y018036*
X017231Y017995*
X017303Y017981*
X017375Y017995*
X017437Y018036*
X017477Y018097*
X017492Y018169*
X017477Y018241*
X017437Y018303*
X017375Y018344*
X017303Y018358*
G37*
G36*
X032737Y017617D02*
Y01755D01*
X032804*
X032777Y01759*
X032737Y017617*
G37*
G36*
X032637D02*
X032597Y01759D01*
X03257Y01755*
X032637*
Y017617*
G37*
G36*
X029713Y017883D02*
X029646D01*
Y017816*
X029687Y017843*
X029713Y017883*
G37*
G36*
X029546D02*
X02948D01*
X029506Y017843*
X029546Y017816*
Y017883*
G37*
G36*
X026535Y016872D02*
X026463Y016857D01*
X026402Y016816*
X026361Y016755*
X026347Y016683*
X026361Y016611*
X026402Y01655*
X026463Y016509*
X026535Y016494*
X026608Y016509*
X026669Y01655*
X02671Y016611*
X026724Y016683*
X02671Y016755*
X026669Y016816*
X026608Y016857*
X026535Y016872*
G37*
G36*
X030295Y016832D02*
X030223Y016818D01*
X030162Y016777*
X030121Y016716*
X030107Y016644*
X030121Y016572*
X030162Y01651*
X030223Y016469*
X030295Y016455*
X030367Y016469*
X030429Y01651*
X03047Y016572*
X030484Y016644*
X03047Y016716*
X030429Y016777*
X030367Y016818*
X030295Y016832*
G37*
G36*
X015945Y017088D02*
X015873Y017074D01*
X015812Y017033*
X015771Y016972*
X015756Y0169*
X015771Y016827*
X015812Y016766*
X015873Y016725*
X015945Y016711*
X016017Y016725*
X016078Y016766*
X016119Y016827*
X016134Y0169*
X016119Y016972*
X016078Y017033*
X016017Y017074*
X015945Y017088*
G37*
G36*
X019055Y016941D02*
X018983Y016926D01*
X018922Y016885*
X018881Y016824*
X018866Y016752*
X018881Y01668*
X018922Y016619*
X018983Y016578*
X019055Y016563*
X019127Y016578*
X019188Y016619*
X019229Y01668*
X019244Y016752*
X019229Y016824*
X019188Y016885*
X019127Y016926*
X019055Y016941*
G37*
G36*
X025906Y016803D02*
X025833Y016788D01*
X025772Y016748*
X025731Y016686*
X025717Y016614*
X025731Y016542*
X025772Y016481*
X025833Y01644*
X025906Y016426*
X025978Y01644*
X026039Y016481*
X02608Y016542*
X026094Y016614*
X02608Y016686*
X026039Y016748*
X025978Y016788*
X025906Y016803*
G37*
G36*
X023602Y016328D02*
X023561Y016301D01*
X023535Y016261*
X023602*
Y016328*
G37*
G36*
X023768Y016161D02*
X023702D01*
Y016094*
X023742Y016121*
X023768Y016161*
G37*
G36*
X01748Y016645D02*
X017408Y016631D01*
X017347Y01659*
X017306Y016529*
X017292Y016457*
X017306Y016385*
X017347Y016323*
X017408Y016282*
X01748Y016268*
X017552Y016282*
X017614Y016323*
X017655Y016385*
X017669Y016457*
X017655Y016529*
X017614Y01659*
X017552Y016631*
X01748Y016645*
G37*
G36*
X023702Y016328D02*
Y016261D01*
X023768*
X023742Y016301*
X023702Y016328*
G37*
G36*
X014517Y017066D02*
X014477Y017039D01*
X01445Y016999*
X014517*
Y017066*
G37*
G36*
X028465Y017305D02*
X028392Y01729D01*
X028331Y01725*
X02829Y017188*
X028276Y017116*
X02829Y017044*
X028331Y016983*
X028392Y016942*
X028465Y016928*
X028537Y016942*
X028598Y016983*
X028639Y017044*
X028653Y017116*
X028639Y017188*
X028598Y01725*
X028537Y01729*
X028465Y017305*
G37*
G36*
X022776Y017403D02*
X022703Y017389D01*
X022642Y017348*
X022601Y017287*
X022587Y017215*
X022601Y017142*
X022642Y017081*
X022703Y01704*
X022776Y017026*
X022848Y01704*
X022909Y017081*
X02295Y017142*
X022964Y017215*
X02295Y017287*
X022909Y017348*
X022848Y017389*
X022776Y017403*
G37*
G36*
X014617Y017066D02*
Y016999D01*
X014684*
X014657Y017039*
X014617Y017066*
G37*
G36*
X012972Y017137D02*
X0129Y017123D01*
X012839Y017082*
X012798Y017021*
X012784Y016949*
X012798Y016877*
X012768Y016832*
X012717Y016842*
X012644Y016828*
X012583Y016787*
X012542Y016726*
X012528Y016654*
X012542Y016581*
X012583Y01652*
X012644Y016479*
X012717Y016465*
X012789Y016479*
X01285Y01652*
X012891Y016581*
X012905Y016654*
X012891Y016726*
X012921Y01677*
X012972Y01676*
X013045Y016775*
X013106Y016815*
X013147Y016877*
X013161Y016949*
X013147Y017021*
X013106Y017082*
X013045Y017123*
X012972Y017137*
G37*
G36*
X023406Y017197D02*
X023333Y017182D01*
X023272Y017141*
X023231Y01708*
X023217Y017008*
X023231Y016936*
X023272Y016875*
X023333Y016834*
X023406Y016819*
X023478Y016834*
X023539Y016875*
X02358Y016936*
X023594Y017008*
X02358Y01708*
X023539Y017141*
X023478Y017182*
X023406Y017197*
G37*
G36*
X01497D02*
X014898Y017182D01*
X014837Y017141*
X014796Y01708*
X014782Y017008*
X014796Y016936*
X014837Y016875*
X014898Y016834*
X01497Y016819*
X015043Y016834*
X015104Y016875*
X015145Y016936*
X015159Y017008*
X015145Y01708*
X015104Y017141*
X015043Y017182*
X01497Y017197*
G37*
G36*
X014684Y016899D02*
X014617D01*
Y016832*
X014657Y016859*
X014684Y016899*
G37*
G36*
X014517D02*
X01445D01*
X014477Y016859*
X014517Y016832*
Y016899*
G37*
%LNee4951_bpm_reva-3*%
%LPD*%
G54D52*
X012313Y006585D02*
X023986D01*
X012008Y00689D02*
X012313Y006585D01*
X012008Y00689D02*
Y007244D01*
X010591Y008661D02*
X012008Y007244D01*
X010591Y008661D02*
Y013337D01*
X017618Y021614D02*
X019498D01*
X016024Y02002D02*
X017618Y021614D01*
X014744Y02002D02*
X016024D01*
X017512Y021774D02*
X019564D01*
X015918Y02018D02*
X017512Y021774D01*
X014678Y02018D02*
X015918D01*
X017397Y021934D02*
X019631D01*
X015802Y02034D02*
X017397Y021934D01*
X014612Y02034D02*
X015802D01*
X024626Y018356D02*
X024951Y018681D01*
X023199Y018356D02*
X024626D01*
X022835Y017992D02*
X023199Y018356D01*
X023357Y019449D02*
X024035D01*
X022983Y019075D02*
X023357Y019449D01*
X023612Y019282D02*
X024134D01*
X022589Y018258D02*
X023612Y019282D01*
X023957Y019636D02*
X024242Y019921D01*
X022982Y019636D02*
X023957D01*
X024035Y019449D02*
X024341Y019754D01*
X021644Y018258D02*
X022589D01*
X025207Y01936D02*
X025679D01*
X024951Y019104D02*
X025207Y01936D01*
X024951Y018681D02*
Y019104D01*
X025679Y01936D02*
X025935Y019104D01*
Y018848D02*
Y019104D01*
Y018848D02*
X026319Y018465D01*
X026398Y019754D02*
X026536Y019892D01*
X024341Y019754D02*
X026398D01*
X026496Y019567D02*
X0269Y019163D01*
X024419Y019567D02*
X026496D01*
X024134Y019282D02*
X024419Y019567D01*
X024242Y019921D02*
X025423D01*
X026024Y020522*
X021319Y017992D02*
X022835D01*
X020492Y020039D02*
Y02062D01*
X019606Y019154D02*
X020492Y020039D01*
X019606Y018996D02*
Y019154D01*
X020226Y017008D02*
Y019213D01*
X020404Y019124D02*
X020876Y019596D01*
X020404Y016388D02*
Y019124D01*
X019409Y016191D02*
X020226Y017008D01*
X019872Y015856D02*
X020404Y016388D01*
X019892Y01748D02*
Y017569D01*
X019685Y017776D02*
X019892Y017569D01*
X022648Y019921D02*
X023848D01*
X022462Y020107D02*
X022648Y019921D01*
X021928Y020107D02*
X022462D01*
X026319Y018465D02*
X02802D01*
X018907Y017776D02*
X019685D01*
X018248Y018435D02*
X018907Y017776D01*
X017913Y017884D02*
Y019515D01*
X018268Y01987D02*
Y02065D01*
X017913Y019515D02*
X018268Y01987D01*
X017913Y017884D02*
X018366Y017431D01*
X02802Y018465D02*
X028453Y018898D01*
X026324Y021678D02*
X027392Y02061D01*
X026257Y021518D02*
X027325Y02045D01*
X026166Y021358D02*
X027608Y019916D01*
X025335Y021358D02*
X026166D01*
X027325Y02045D02*
X029638D01*
X025268Y021518D02*
X026257D01*
X025202Y021678D02*
X026324D01*
X027392Y02061D02*
X029715D01*
X026024Y020522D02*
Y020906D01*
X030423Y018927D02*
Y019665D01*
X029638Y02045D02*
X030423Y019665D01*
X031427Y018898D02*
X031453D01*
X029715Y02061D02*
X031427Y018898D01*
X030423Y018927D02*
X030453Y018898D01*
X027453D02*
X027608Y019053D01*
Y019916*
X026536Y019883D02*
Y019892D01*
X026535Y019882D02*
X026536Y019883D01*
X029685Y019744D02*
Y019783D01*
X020148Y021417D02*
X024941D01*
X020081Y021257D02*
X025007D01*
X019631Y021934D02*
X020148Y021417D01*
X013681Y019409D02*
X014612Y02034D01*
X013228Y019409D02*
X013681D01*
X019498Y021614D02*
X020015Y021097D01*
X013317Y018593D02*
X014744Y02002D01*
X013238Y018593D02*
X013317D01*
X019564Y021774D02*
X020081Y021257D01*
X013514Y019016D02*
X014678Y02018D01*
X013268Y019016D02*
X013514D01*
X024941Y021417D02*
X025202Y021678D01*
X025007Y021257D02*
X025268Y021518D01*
X025073Y021097D02*
X025335Y021358D01*
X020015Y021097D02*
X025073D01*
X025463Y020797D02*
X02562Y020955D01*
X023327Y020797D02*
X025463D01*
X023071Y020541D02*
X023327Y020797D01*
X020226Y019213D02*
X020679Y019665D01*
X020741Y01892D02*
X021928Y020107D01*
X022057Y019872D02*
X022126D01*
X021998Y019813D02*
X022057Y019872D01*
X019724Y015148D02*
X020741Y016164D01*
Y01892*
X020581Y019045D02*
X021821Y020285D01*
X020581Y016329D02*
Y019045D01*
X019528Y015276D02*
X020581Y016329D01*
X020906Y01873D02*
X021993Y019818D01*
X020906Y016033D02*
Y01873D01*
X019961Y015089D02*
X020906Y016033D01*
X02126Y018642D02*
X021644Y018258D01*
X026024Y020906D02*
X026043Y020925D01*
X021063Y020768D02*
X022009D01*
X021999Y020778D02*
X022009Y020768D01*
X020679Y020384D02*
X021063Y020768D01*
X020679Y019665D02*
Y020384D01*
X01872Y016191D02*
X019409D01*
X021161Y020541D02*
X023071D01*
X020876Y020256D02*
X021161Y020541D01*
X020876Y019596D02*
Y020256D01*
X018632Y015856D02*
X019872D01*
X021993Y019818D02*
X021998Y019813D01*
X023219Y020285D02*
X023465Y020531D01*
X021821Y020285D02*
X023219D01*
X019961Y01315D02*
Y015089D01*
X019331Y01252D02*
X019961Y01315D01*
X019724Y013396D02*
Y015148D01*
X019449Y01312D02*
X019724Y013396D01*
X019528Y013602D02*
Y015276D01*
X019006Y013081D02*
X019528Y013602D01*
G54D55*
X034006Y020344D02*
Y024715D01*
X032913Y025807D02*
X034006Y024715D01*
X015128Y025807D02*
X032913D01*
X033907Y020246D02*
X034006Y020344D01*
X013061Y02374D02*
X015128Y025807D01*
X024567Y017648D02*
X025453Y018533D01*
Y018898*
X012746Y02374D02*
X013061D01*
G54D67*
X027453Y018898D03*
X025453D03*
X028453D03*
X030453D03*
G54D68*
X031453Y018898D03*
G54D69*
X014642Y006935D03*
G54D71*
X031004Y021693D03*
G54D73*
X01063Y013337D03*
X033907Y020246D03*
X029537Y02502D03*
X023002Y025256D03*
X024567Y017648D03*
X023652Y016211D03*
X014567Y016949D03*
X022983Y019075D03*
X023986Y006585D03*
X010915Y009557D03*
X010856Y015541D03*
X020492Y02062D03*
X019606Y018996D03*
X019045Y019459D03*
X019892Y01748D03*
X023848Y019921D03*
X021319Y017992D03*
X018248Y018435D03*
X023858Y010148D03*
X026536Y019892D03*
X0269Y019163D03*
X029685Y019744D03*
X013228Y019409D03*
X013238Y018593D03*
X013268Y019016D03*
X023327Y021693D03*
X018268Y02065D03*
X022126Y019872D03*
X022982Y019636D03*
X02126Y018642D03*
X026043Y020925D03*
X021999Y020778D03*
X01872Y016191D03*
X02562Y020955D03*
X018632Y015856D03*
X018366Y017431D03*
X019331Y01252D03*
X02062Y012854D03*
X019449Y01312D03*
X023465Y020531D03*
X019006Y013081D03*
X019055Y017156D03*
X018917Y021319D03*
X01937Y010689D03*
X019252Y023996D03*
X012746Y02374D03*
X016821Y010226D03*
X013415Y012156D03*
X015433Y010364D03*
X010906Y012953D03*
X019134Y014163D03*
X013228Y015984D03*
X013238Y014227D03*
X029016Y014026D03*
X030463Y008711D03*
X029385Y008293D03*
X033031Y009154D03*
X026024Y010689D03*
X025531D03*
X025039D03*
Y011181D03*
Y011673D03*
X027411Y020925D03*
X02752Y023248D03*
X029596Y017933D03*
X032687Y0175D03*
X023071Y014793D03*
X034104Y010709D03*
M02*