%FSTAX24Y24*%
%MOIN*%
%SFA1B1*%

%IPPOS*%
%AMD36*
4,1,4,0.001400,-0.015300,0.015300,-0.001400,-0.001400,0.015300,-0.015300,0.001400,0.001400,-0.015300,0.0*
%
%ADD10R,0.043300X0.074800*%
%ADD11R,0.019700X0.023600*%
%ADD12R,0.023600X0.019700*%
%ADD13R,0.035400X0.031500*%
%ADD14R,0.031500X0.035400*%
%ADD15R,0.045300X0.013800*%
%ADD16R,0.040200X0.040200*%
%ADD17R,0.079900X0.090200*%
%ADD18R,0.029900X0.055100*%
%ADD19R,0.070900X0.023600*%
%ADD20R,0.031500X0.035400*%
%ADD21R,0.088000X0.067900*%
%ADD22R,0.015900X0.029900*%
%ADD23R,0.015900X0.039000*%
%ADD24R,0.037400X0.049200*%
%ADD25R,0.039400X0.066900*%
%ADD26R,0.055100X0.033500*%
%ADD27R,0.070900X0.035400*%
%ADD28R,0.059100X0.011800*%
%ADD29R,0.011800X0.059100*%
%ADD30R,0.126000X0.126000*%
%ADD31R,0.023600X0.011800*%
%ADD32R,0.011800X0.023600*%
%ADD33R,0.035400X0.031500*%
%ADD34R,0.110200X0.208700*%
%ADD35R,0.035400X0.070900*%
G04~CAMADD=36~9~0.0~0.0~197.0~236.0~0.0~0.0~0~0.0~0.0~0.0~0.0~0~0.0~0.0~0.0~0.0~0~0.0~0.0~0.0~225.0~306.0~305.0*
%ADD36D36*%
%ADD37R,0.083900X0.118100*%
%ADD38R,0.086600X0.019700*%
%ADD39R,0.023600X0.070900*%
%ADD40R,0.126000X0.096500*%
%ADD41R,0.017700X0.059100*%
%ADD42C,0.059100*%
%ADD43R,0.049200X0.037400*%
%ADD44R,0.086600X0.023600*%
%ADD45R,0.086600X0.137800*%
%ADD46R,0.019700X0.014800*%
%ADD47R,0.025600X0.011800*%
%ADD48R,0.039400X0.019700*%
%ADD49R,0.019700X0.039400*%
%ADD50R,0.011000X0.055100*%
%ADD51R,0.070900X0.047200*%
%ADD52C,0.010000*%
%ADD53C,0.020000*%
%ADD54C,0.015000*%
%ADD55C,0.030000*%
%ADD56C,0.040000*%
%ADD57C,0.025000*%
%ADD58C,0.018000*%
%ADD59C,0.031500*%
%ADD60C,0.040200*%
%ADD61C,0.019700*%
%ADD62R,0.118100X0.196900*%
%ADD63R,0.128000X0.137800*%
%ADD64R,0.110200X0.220500*%
%ADD65R,0.283500X0.126000*%
%ADD66C,0.003900*%
%ADD67C,0.050000*%
%ADD68R,0.050000X0.050000*%
%ADD69C,0.039400*%
%ADD70C,0.086600*%
%ADD71R,0.086600X0.086600*%
%ADD72C,0.065000*%
%ADD73C,0.025000*%
%LNee4951_bpm_reva-1*%
%LPD*%
G36*
X035Y006063D02*
X01D01*
Y008386*
Y026063*
X035*
Y006063*
G37*
%LNee4951_bpm_reva-2*%
%LPC*%
G36*
X023808Y008523D02*
X023741D01*
Y008456*
X023781Y008483*
X023808Y008523*
G37*
G36*
X022263Y00867D02*
X022223Y008643D01*
X022196Y008603*
X022263*
Y00867*
G37*
G36*
X022363D02*
Y008603D01*
X02243*
X022403Y008643*
X022363Y00867*
G37*
G36*
X022263Y008503D02*
X022196D01*
X022223Y008463*
X022263Y008436*
Y008503*
G37*
G36*
X02243D02*
X022363D01*
Y008436*
X022403Y008463*
X02243Y008503*
G37*
G36*
X023641Y008523D02*
X023574D01*
X023601Y008483*
X023641Y008456*
Y008523*
G37*
G36*
Y00869D02*
X023601Y008663D01*
X023574Y008623*
X023641*
Y00869*
G37*
G36*
X034753Y010147D02*
X034686D01*
X034713Y010107*
X034753Y01008*
Y010147*
G37*
G36*
X03492D02*
X034853D01*
Y01008*
X034893Y010107*
X03492Y010147*
G37*
G36*
X010147Y010235D02*
X010107Y010208D01*
X01008Y010168*
X010147*
Y010235*
G37*
G36*
X023741Y00869D02*
Y008623D01*
X023808*
X023781Y008663*
X023741Y00869*
G37*
G36*
X010147Y010068D02*
X01008D01*
X010107Y010028*
X010147Y010001*
Y010068*
G37*
G36*
X010314D02*
X010247D01*
Y010001*
X010287Y010028*
X010314Y010068*
G37*
G36*
X034853Y008345D02*
Y008278D01*
X03492*
X034893Y008318*
X034853Y008345*
G37*
G36*
X015956Y007282D02*
Y007215D01*
X016022*
X015996Y007255*
X015956Y007282*
G37*
G36*
X019978Y007644D02*
X019943Y007639D01*
X019864Y007607*
X019796Y007554*
X019744Y007487*
X019711Y007408*
X019707Y007373*
X019978*
Y007644*
G37*
G36*
X020078D02*
Y007373D01*
X020349*
X020344Y007408*
X020311Y007487*
X020259Y007554*
X020191Y007607*
X020112Y007639*
X020078Y007644*
G37*
G36*
X015856Y007115D02*
X015789D01*
X015815Y007075*
X015856Y007048*
Y007115*
G37*
G36*
X016022D02*
X015956D01*
Y007048*
X015996Y007075*
X016022Y007115*
G37*
G36*
X015856Y007282D02*
X015815Y007255D01*
X015789Y007215*
X015856*
Y007282*
G37*
G36*
X010147Y0081D02*
X01008D01*
X010107Y008059*
X010147Y008033*
Y0081*
G37*
G36*
Y008267D02*
X010107Y00824D01*
X01008Y0082*
X010147*
Y008267*
G37*
G36*
X010247D02*
Y0082D01*
X010314*
X010287Y00824*
X010247Y008267*
G37*
G36*
X034753Y008345D02*
X034713Y008318D01*
X034686Y008278*
X034753*
Y008345*
G37*
G36*
X010314Y0081D02*
X010247D01*
Y008033*
X010287Y008059*
X010314Y0081*
G37*
G36*
X034753Y008178D02*
X034686D01*
X034713Y008138*
X034753Y008111*
Y008178*
G37*
G36*
X03492D02*
X034853D01*
Y008111*
X034893Y008138*
X03492Y008178*
G37*
G36*
X010247Y010235D02*
Y010168D01*
X010314*
X010287Y010208*
X010247Y010235*
G37*
G36*
X010147Y014005D02*
X01008D01*
X010107Y013965*
X010147Y013938*
Y014005*
G37*
G36*
X010314D02*
X010247D01*
Y013938*
X010287Y013965*
X010314Y014005*
G37*
G36*
X023346Y014064D02*
X023306Y014037D01*
X023279Y013997*
X023346*
Y014064*
G37*
G36*
X034853Y012282D02*
Y012215D01*
X03492*
X034893Y012255*
X034853Y012282*
G37*
G36*
X023346Y013897D02*
X023279D01*
X023306Y013857*
X023346Y01383*
Y013897*
G37*
G36*
X023513D02*
X023446D01*
Y01383*
X023486Y013857*
X023513Y013897*
G37*
G36*
X023446Y014064D02*
Y013997D01*
X023513*
X023486Y014037*
X023446Y014064*
G37*
G36*
X010247Y014172D02*
Y014105D01*
X010314*
X010287Y014145*
X010247Y014172*
G37*
G36*
X034753Y014251D02*
X034713Y014224D01*
X034686Y014184*
X034753*
Y014251*
G37*
G36*
X034853D02*
Y014184D01*
X03492*
X034893Y014224*
X034853Y014251*
G37*
G36*
X034753Y014084D02*
X034686D01*
X034713Y014044*
X034753Y014017*
Y014084*
G37*
G36*
X03492D02*
X034853D01*
Y014017*
X034893Y014044*
X03492Y014084*
G37*
G36*
X010147Y014172D02*
X010107Y014145D01*
X01008Y014105*
X010147*
Y014172*
G37*
G36*
X034753Y012282D02*
X034713Y012255D01*
X034686Y012215*
X034753*
Y012282*
G37*
G36*
X022529Y011121D02*
X022462D01*
X022489Y011081*
X022529Y011054*
Y011121*
G37*
G36*
X022696D02*
X022629D01*
Y011054*
X022669Y011081*
X022696Y011121*
G37*
G36*
X022529Y011288D02*
X022489Y011261D01*
X022462Y011221*
X022529*
Y011288*
G37*
G36*
X034753Y010314D02*
X034713Y010287D01*
X034686Y010247*
X034753*
Y010314*
G37*
G36*
X034853D02*
Y010247D01*
X03492*
X034893Y010287*
X034853Y010314*
G37*
G36*
X023798Y010728D02*
X023732D01*
X023758Y010687*
X023798Y010661*
Y010728*
G37*
G36*
X022629Y011288D02*
Y011221D01*
X022696*
X022669Y011261*
X022629Y011288*
G37*
G36*
X03492Y012115D02*
X034853D01*
Y012048*
X034893Y012075*
X03492Y012115*
G37*
G36*
X010147Y012204D02*
X010107Y012177D01*
X01008Y012137*
X010147*
Y012204*
G37*
G36*
X010247D02*
Y012137D01*
X010314*
X010287Y012177*
X010247Y012204*
G37*
G36*
X010147Y012037D02*
X01008D01*
X010107Y011996*
X010147Y01197*
Y012037*
G37*
G36*
X010314D02*
X010247D01*
Y01197*
X010287Y011996*
X010314Y012037*
G37*
G36*
X034753Y012115D02*
X034686D01*
X034713Y012075*
X034753Y012048*
Y012115*
G37*
G36*
X020349Y007273D02*
X020078D01*
Y007002*
X020112Y007006*
X020191Y007039*
X020259Y007091*
X020311Y007159*
X020344Y007238*
X020349Y007273*
G37*
G36*
X026574Y00621D02*
X026507D01*
Y006143*
X026547Y00617*
X026574Y00621*
G37*
G36*
X028493D02*
X028426D01*
X028453Y00617*
X028493Y006143*
Y00621*
G37*
G36*
X02866D02*
X028593D01*
Y006143*
X028633Y00617*
X02866Y00621*
G37*
G36*
X02432D02*
X024253D01*
X02428Y00617*
X02432Y006143*
Y00621*
G37*
G36*
X024487D02*
X02442D01*
Y006143*
X02446Y00617*
X024487Y00621*
G37*
G36*
X026407D02*
X02634D01*
X026367Y00617*
X026407Y006143*
Y00621*
G37*
G36*
X03058D02*
X030513D01*
X03054Y00617*
X03058Y006143*
Y00621*
G37*
G36*
X034753D02*
X034686D01*
X034713Y00617*
X034753Y006143*
Y00621*
G37*
G36*
X03492D02*
X034853D01*
Y006143*
X034893Y00617*
X03492Y00621*
G37*
G36*
X010147Y006377D02*
X010107Y00635D01*
X01008Y00631*
X010147*
Y006377*
G37*
G36*
X030747Y00621D02*
X03068D01*
Y006143*
X03072Y00617*
X030747Y00621*
G37*
G36*
X032667D02*
X0326D01*
X032626Y00617*
X032667Y006143*
Y00621*
G37*
G36*
X032833D02*
X032767D01*
Y006143*
X032807Y00617*
X032833Y00621*
G37*
G36*
X0224D02*
X022333D01*
Y006143*
X022374Y00617*
X0224Y00621*
G37*
G36*
X0124D02*
X012333D01*
Y006143*
X012374Y00617*
X0124Y00621*
G37*
G36*
X01432D02*
X014253D01*
X01428Y00617*
X01432Y006143*
Y00621*
G37*
G36*
X014487D02*
X01442D01*
Y006143*
X01446Y00617*
X014487Y00621*
G37*
G36*
X010147D02*
X01008D01*
X010107Y00617*
X010147Y006143*
Y00621*
G37*
G36*
X010314D02*
X010247D01*
Y006143*
X010287Y00617*
X010314Y00621*
G37*
G36*
X012233D02*
X012167D01*
X012193Y00617*
X012233Y006143*
Y00621*
G37*
G36*
X016407D02*
X01634D01*
X016367Y00617*
X016407Y006143*
Y00621*
G37*
G36*
X020462D02*
X020395D01*
X020422Y00617*
X020462Y006143*
Y00621*
G37*
G36*
X020629D02*
X020562D01*
Y006143*
X020602Y00617*
X020629Y00621*
G37*
G36*
X022233D02*
X022167D01*
X022193Y00617*
X022233Y006143*
Y00621*
G37*
G36*
X016574D02*
X016507D01*
Y006143*
X016547Y00617*
X016574Y00621*
G37*
G36*
X018493D02*
X018426D01*
X018453Y00617*
X018493Y006143*
Y00621*
G37*
G36*
X01866D02*
X018593D01*
Y006143*
X018633Y00617*
X01866Y00621*
G37*
G36*
X010247Y006377D02*
Y00631D01*
X010314*
X010287Y00635*
X010247Y006377*
G37*
G36*
X028593D02*
Y00631D01*
X02866*
X028633Y00635*
X028593Y006377*
G37*
G36*
X03058D02*
X03054Y00635D01*
X030513Y00631*
X03058*
Y006377*
G37*
G36*
X03068D02*
Y00631D01*
X030747*
X03072Y00635*
X03068Y006377*
G37*
G36*
X026407D02*
X026367Y00635D01*
X02634Y00631*
X026407*
Y006377*
G37*
G36*
X026507D02*
Y00631D01*
X026574*
X026547Y00635*
X026507Y006377*
G37*
G36*
X028493D02*
X028453Y00635D01*
X028426Y00631*
X028493*
Y006377*
G37*
G36*
X032667D02*
X032626Y00635D01*
X0326Y00631*
X032667*
Y006377*
G37*
G36*
X010984Y007681D02*
X010861Y007669D01*
X010742Y007633*
X010632Y007574*
X010536Y007495*
X010457Y007399*
X010399Y00729*
X010363Y007171*
X01035Y007047*
X010363Y006924*
X010399Y006805*
X010457Y006695*
X010536Y006599*
X010632Y00652*
X010742Y006462*
X010861Y006426*
X010984Y006413*
X011108Y006426*
X011227Y006462*
X011336Y00652*
X011432Y006599*
X011511Y006695*
X01157Y006805*
X011606Y006924*
X011618Y007047*
X011606Y007171*
X01157Y00729*
X011511Y007399*
X011432Y007495*
X011336Y007574*
X011227Y007633*
X011108Y007669*
X010984Y007681*
G37*
G36*
X022244Y007848D02*
X022098Y007829D01*
X021962Y007773*
X021845Y007683*
X021755Y007566*
X021699Y00743*
X021679Y007283*
X021699Y007137*
X021755Y007001*
X021845Y006884*
X02195Y006803*
X021962Y006794*
X022098Y006738*
X022244Y006719*
X02239Y006738*
X022527Y006794*
X022643Y006884*
X022733Y007001*
X02279Y007137*
X022809Y007283*
X02279Y00743*
X022733Y007566*
X022643Y007683*
X022527Y007773*
X02239Y007829*
X022244Y007848*
G37*
G36*
X019978Y007273D02*
X019707D01*
X019711Y007238*
X019744Y007159*
X019796Y007091*
X019864Y007039*
X019943Y007006*
X019978Y007002*
Y007273*
G37*
G36*
X032767Y006377D02*
Y00631D01*
X032833*
X032807Y00635*
X032767Y006377*
G37*
G36*
X034753D02*
X034713Y00635D01*
X034686Y00631*
X034753*
Y006377*
G37*
G36*
X034853D02*
Y00631D01*
X03492*
X034893Y00635*
X034853Y006377*
G37*
G36*
X02442D02*
Y00631D01*
X024487*
X02446Y00635*
X02442Y006377*
G37*
G36*
X01442D02*
Y00631D01*
X014487*
X01446Y00635*
X01442Y006377*
G37*
G36*
X016407D02*
X016367Y00635D01*
X01634Y00631*
X016407*
Y006377*
G37*
G36*
X016507D02*
Y00631D01*
X016574*
X016547Y00635*
X016507Y006377*
G37*
G36*
X012233D02*
X012193Y00635D01*
X012167Y00631*
X012233*
Y006377*
G37*
G36*
X012333D02*
Y00631D01*
X0124*
X012374Y00635*
X012333Y006377*
G37*
G36*
X01432D02*
X01428Y00635D01*
X014253Y00631*
X01432*
Y006377*
G37*
G36*
X018493D02*
X018453Y00635D01*
X018426Y00631*
X018493*
Y006377*
G37*
G36*
X022233D02*
X022193Y00635D01*
X022167Y00631*
X022233*
Y006377*
G37*
G36*
X022333D02*
Y00631D01*
X0224*
X022374Y00635*
X022333Y006377*
G37*
G36*
X02432D02*
X02428Y00635D01*
X024253Y00631*
X02432*
Y006377*
G37*
G36*
X018593D02*
Y00631D01*
X01866*
X018633Y00635*
X018593Y006377*
G37*
G36*
X020462D02*
X020422Y00635D01*
X020395Y00631*
X020462*
Y006377*
G37*
G36*
X020562D02*
Y00631D01*
X020629*
X020602Y00635*
X020562Y006377*
G37*
G36*
X016702Y024733D02*
X016635D01*
X016662Y024693*
X016702Y024667*
Y024733*
G37*
G36*
X016869D02*
X016802D01*
Y024667*
X016842Y024693*
X016869Y024733*
G37*
G36*
X033219Y02484D02*
Y024459D01*
X0336*
X033591Y024523*
X033548Y024628*
X033478Y024718*
X033388Y024788*
X033282Y024831*
X033219Y02484*
G37*
G36*
X034853Y024093D02*
Y024026D01*
X03492*
X034893Y024067*
X034853Y024093*
G37*
G36*
X033119Y02484D02*
X033056Y024831D01*
X032951Y024788*
X03286Y024718*
X032791Y024628*
X032747Y024523*
X032739Y024459*
X033119*
Y02484*
G37*
G36*
X011032Y02496D02*
X010965D01*
Y024893*
X011005Y02492*
X011032Y02496*
G37*
G36*
X015373D02*
X015306D01*
X015333Y02492*
X015373Y024893*
Y02496*
G37*
G36*
X010865D02*
X010798D01*
X010825Y02492*
X010865Y024893*
Y02496*
G37*
G36*
X016702Y0249D02*
X016662Y024874D01*
X016635Y024833*
X016702*
Y0249*
G37*
G36*
X016802D02*
Y024833D01*
X016869*
X016842Y024874*
X016802Y0249*
G37*
G36*
X034753Y024093D02*
X034713Y024067D01*
X034686Y024026*
X034753*
Y024093*
G37*
G36*
X010314Y023848D02*
X010247D01*
Y023781*
X010287Y023808*
X010314Y023848*
G37*
G36*
X034753Y023926D02*
X034686D01*
X034713Y023886*
X034753Y023859*
Y023926*
G37*
G36*
X010147Y023848D02*
X01008D01*
X010107Y023808*
X010147Y023781*
Y023848*
G37*
G36*
X034753Y022125D02*
X034713Y022098D01*
X034686Y022058*
X034753*
Y022125*
G37*
G36*
X034853D02*
Y022058D01*
X03492*
X034893Y022098*
X034853Y022125*
G37*
G36*
X033119Y024359D02*
X032739D01*
X032747Y024296*
X032791Y024191*
X03286Y024101*
X032951Y024031*
X033056Y023988*
X033119Y023979*
Y024359*
G37*
G36*
X0336D02*
X033219D01*
Y023979*
X033282Y023988*
X033388Y024031*
X033478Y024101*
X033548Y024191*
X033591Y024296*
X0336Y024359*
G37*
G36*
X010247Y024015D02*
Y023948D01*
X010314*
X010287Y023988*
X010247Y024015*
G37*
G36*
X03492Y023926D02*
X034853D01*
Y023859*
X034893Y023886*
X03492Y023926*
G37*
G36*
X010147Y024015D02*
X010107Y023988D01*
X01008Y023948*
X010147*
Y024015*
G37*
G36*
X01554Y02496D02*
X015473D01*
Y024893*
X015513Y02492*
X01554Y02496*
G37*
G36*
X010247Y025983D02*
Y025916D01*
X010314*
X010287Y025956*
X010247Y025983*
G37*
G36*
X012115D02*
X012075Y025956D01*
X012048Y025916*
X012115*
Y025983*
G37*
G36*
X010147D02*
X010107Y025956D01*
X01008Y025916*
X010147*
Y025983*
G37*
G36*
X034753Y025816D02*
X034686D01*
X034713Y025776*
X034753Y025749*
Y025816*
G37*
G36*
X03492D02*
X034853D01*
Y025749*
X034893Y025776*
X03492Y025816*
G37*
G36*
X034753Y025983D02*
X034713Y025956D01*
X034686Y025916*
X034753*
Y025983*
G37*
G36*
X034853D02*
Y025916D01*
X03492*
X034893Y025956*
X034853Y025983*
G37*
G36*
X014184D02*
Y025916D01*
X014251*
X014224Y025956*
X014184Y025983*
G37*
G36*
X012215D02*
Y025916D01*
X012282*
X012255Y025956*
X012215Y025983*
G37*
G36*
X014084D02*
X014044Y025956D01*
X014017Y025916*
X014084*
Y025983*
G37*
G36*
X014251Y025816D02*
X014184D01*
Y025749*
X014224Y025776*
X014251Y025816*
G37*
G36*
X015473Y025127D02*
Y02506D01*
X01554*
X015513Y0251*
X015473Y025127*
G37*
G36*
X031339Y025669D02*
X023858D01*
X023465Y025276*
X023187*
X023176Y025328*
X023135Y025389*
X023074Y02543*
X023002Y025445*
X02293Y02543*
X022869Y025389*
X022828Y025328*
X022817Y025276*
X021102*
X020866Y025512*
X019331*
X018858Y025039*
X017717*
X015748Y023071*
X014961*
X014567Y023465*
Y023701*
Y024488*
X013898Y025157*
Y025276*
X012323*
X010591Y023543*
Y020394*
X010939Y020045*
X010922Y019998*
X010861Y019992*
X010742Y019956*
X010632Y019897*
X010536Y019818*
X010457Y019722*
X010399Y019613*
X010363Y019494*
X01035Y01937*
X010363Y019246*
X010399Y019127*
X010457Y019018*
X010536Y018922*
X010632Y018843*
X010742Y018784*
X010861Y018748*
X010984Y018736*
X011108Y018748*
X011141Y018758*
X011181Y018729*
Y017835*
X010394Y017047*
Y008661*
X012205Y00685*
X012399*
X012417Y006806*
X012459Y006752*
X012512Y006711*
X012575Y006685*
X012642Y006676*
X012709Y006685*
X012771Y006711*
X012825Y006752*
X012864Y006803*
X012881Y006806*
X012903*
X012919Y006803*
X012959Y006752*
X013012Y006711*
X013075Y006685*
X013142Y006676*
X013209Y006685*
X013271Y006711*
X013325Y006752*
X013366Y006806*
X013385Y00685*
X013462*
X0135Y006793*
X013565Y00675*
X013592Y006744*
Y006935*
X013692*
Y006744*
X013719Y00675*
X013784Y006793*
X013822Y00685*
X013962*
X014Y006793*
X014065Y00675*
X014092Y006744*
Y006935*
X014192*
Y006744*
X014219Y00675*
X014284Y006793*
X014322Y00685*
X014399*
X014417Y006806*
X014459Y006752*
X014512Y006711*
X014575Y006685*
X014642Y006676*
X014709Y006685*
X014771Y006711*
X014825Y006752*
X014866Y006806*
X014885Y00685*
X015128*
X015125Y006857*
X015472Y007205*
Y009567*
X015709Y009803*
X016968*
X017205Y009567*
Y008386*
X018733Y006857*
X018731Y00685*
X019409*
X019606Y007047*
Y007677*
X02Y008071*
X020787*
X021181Y008465*
X021339Y008622*
Y01122*
Y011496*
X021772Y011929*
X022323*
X022441Y012047*
Y012953*
X022008Y013386*
Y014449*
X022283Y014724*
Y015*
X022087Y015197*
X021811*
X021457Y014843*
X019685*
X019528Y015*
Y015236*
X019646Y015354*
X019882*
X020669Y016142*
Y016496*
X020748Y016575*
X021811*
X022205Y016968*
X022598*
X022795Y016772*
Y015197*
Y015079*
X022938Y014936*
X022937Y014927*
X022897Y014865*
X022882Y014793*
X022897Y014721*
X022937Y01466*
X022999Y014619*
X023071Y014605*
X023143Y014619*
X023204Y01466*
X023213Y014661*
X023701Y014173*
Y011102*
X023851Y010953*
X02385Y010948*
X023831Y010902*
X0238Y010895*
X023758Y010868*
X023732Y010828*
X023848*
Y010778*
X023898*
Y010652*
X023937Y010631*
Y010372*
X023887Y010331*
X023858Y010336*
X023786Y010322*
X023725Y010281*
X023684Y01022*
X02367Y010148*
X023684Y010075*
X023725Y010014*
X023786Y009973*
X023858Y009959*
X023887Y009965*
X023937Y009924*
Y009803*
Y007244*
X023622Y006929*
Y006457*
X023849*
X023853Y006451*
X023914Y00641*
X023986Y006396*
X024058Y00641*
X02412Y006451*
X024123Y006457*
X024606*
X025197Y007047*
X026417*
X027008Y006457*
X031339*
X03189Y007008*
X033071*
X033109Y007046*
X033158Y007036*
X033172Y007001*
X033262Y006884*
X033379Y006794*
X033515Y006738*
X033661Y006719*
X033808Y006738*
X033944Y006794*
X034061Y006884*
X034151Y007001*
X034207Y007137*
X034226Y007283*
X034207Y00743*
X034151Y007566*
X034061Y007683*
X033944Y007773*
X033909Y007787*
X033899Y007836*
X034409Y008346*
Y020551*
X034213Y020748*
X032835*
X032244Y021339*
Y024764*
X031339Y025669*
G37*
G36*
X015373Y025127D02*
X015333Y0251D01*
X015306Y02506*
X015373*
Y025127*
G37*
G36*
X010865D02*
X010825Y0251D01*
X010798Y02506*
X010865*
Y025127*
G37*
G36*
X010965D02*
Y02506D01*
X011032*
X011005Y0251*
X010965Y025127*
G37*
G36*
X012282Y025816D02*
X012215D01*
Y025749*
X012255Y025776*
X012282Y025816*
G37*
G36*
X014084D02*
X014017D01*
X014044Y025776*
X014084Y025749*
Y025816*
G37*
G36*
X012115D02*
X012048D01*
X012075Y025776*
X012115Y025749*
Y025816*
G37*
G36*
X010147D02*
X01008D01*
X010107Y025776*
X010147Y025749*
Y025816*
G37*
G36*
X010314D02*
X010247D01*
Y025749*
X010287Y025776*
X010314Y025816*
G37*
G36*
X010247Y022046D02*
Y021979D01*
X010314*
X010287Y022019*
X010247Y022046*
G37*
G36*
X010147Y020078D02*
X010107Y020051D01*
X01008Y020011*
X010147*
Y020078*
G37*
G36*
X010247D02*
Y020011D01*
X010314*
X010287Y020051*
X010247Y020078*
G37*
G36*
X034753Y019989D02*
X034686D01*
X034713Y019949*
X034753Y019922*
Y019989*
G37*
G36*
X03492D02*
X034853D01*
Y019922*
X034893Y019949*
X03492Y019989*
G37*
G36*
X034853Y016219D02*
Y016152D01*
X03492*
X034893Y016192*
X034853Y016219*
G37*
G36*
X034753Y020156D02*
X034713Y020129D01*
X034686Y020089*
X034753*
Y020156*
G37*
G36*
X034853D02*
Y020089D01*
X03492*
X034893Y020129*
X034853Y020156*
G37*
G36*
X034753Y016219D02*
X034713Y016192D01*
X034686Y016152*
X034753*
Y016219*
G37*
G36*
X022235Y01619D02*
Y016123D01*
X022302*
X022275Y016163*
X022235Y01619*
G37*
G36*
X010314Y019911D02*
X010247D01*
Y019844*
X010287Y019871*
X010314Y019911*
G37*
G36*
X034753Y018188D02*
X034713Y018161D01*
X034686Y018121*
X034753*
Y018188*
G37*
G36*
X034853D02*
Y018121D01*
X03492*
X034893Y018161*
X034853Y018188*
G37*
G36*
X010147Y018109D02*
X010107Y018082D01*
X01008Y018042*
X010147*
Y018109*
G37*
G36*
X010247D02*
Y018042D01*
X010314*
X010287Y018082*
X010247Y018109*
G37*
G36*
X03492Y018021D02*
X034853D01*
Y017954*
X034893Y017981*
X03492Y018021*
G37*
G36*
X010147Y017942D02*
X01008D01*
X010107Y017902*
X010147Y017875*
Y017942*
G37*
G36*
Y019911D02*
X01008D01*
X010107Y019871*
X010147Y019844*
Y019911*
G37*
G36*
X034753Y018021D02*
X034686D01*
X034713Y017981*
X034753Y017954*
Y018021*
G37*
G36*
X010314Y017942D02*
X010247D01*
Y017875*
X010287Y017902*
X010314Y017942*
G37*
G36*
X022135Y01619D02*
X022095Y016163D01*
X022068Y016123*
X022135*
Y01619*
G37*
G36*
X010147Y015974D02*
X01008D01*
X010107Y015934*
X010147Y015907*
Y015974*
G37*
G36*
X033219Y022123D02*
Y021743D01*
X0336*
X033591Y021806*
X033548Y021911*
X033478Y022002*
X033388Y022071*
X033282Y022115*
X033219Y022123*
G37*
G36*
X010314Y015974D02*
X010247D01*
Y015907*
X010287Y015934*
X010314Y015974*
G37*
G36*
X033119Y022123D02*
X033056Y022115D01*
X032951Y022071*
X03286Y022002*
X032791Y021911*
X032747Y021806*
X032739Y021743*
X033119*
Y022123*
G37*
G36*
X010147Y021879D02*
X01008D01*
X010107Y021839*
X010147Y021812*
Y021879*
G37*
G36*
X03492Y021958D02*
X034853D01*
Y021891*
X034893Y021918*
X03492Y021958*
G37*
G36*
X010147Y022046D02*
X010107Y022019D01*
X01008Y021979*
X010147*
Y022046*
G37*
G36*
X010314Y021879D02*
X010247D01*
Y021812*
X010287Y021839*
X010314Y021879*
G37*
G36*
X034753Y021958D02*
X034686D01*
X034713Y021918*
X034753Y021891*
Y021958*
G37*
G36*
X022135Y016023D02*
X022068D01*
X022095Y015983*
X022135Y015956*
Y016023*
G37*
G36*
X03492Y016052D02*
X034853D01*
Y015985*
X034893Y016012*
X03492Y016052*
G37*
G36*
X034753D02*
X034686D01*
X034713Y016012*
X034753Y015985*
Y016052*
G37*
G36*
X010247Y016141D02*
Y016074D01*
X010314*
X010287Y016114*
X010247Y016141*
G37*
G36*
X010147D02*
X010107Y016114D01*
X01008Y016074*
X010147*
Y016141*
G37*
G36*
X0336Y021643D02*
X033219D01*
Y021263*
X033282Y021271*
X033388Y021315*
X033478Y021384*
X033548Y021475*
X033591Y02158*
X0336Y021643*
G37*
G36*
X022302Y016023D02*
X022235D01*
Y015956*
X022275Y015983*
X022302Y016023*
G37*
G36*
X033119Y021643D02*
X032739D01*
X032747Y02158*
X032791Y021475*
X03286Y021384*
X032951Y021315*
X033056Y021271*
X033119Y021263*
Y021643*
G37*
%LNee4951_bpm_reva-3*%
%LPD*%
G36*
X024892Y017953D02*
Y017854D01*
X024793Y017756*
Y017569*
X024734Y01751*
X024341*
X023986Y017864*
Y018061*
X024124Y018199*
X024774*
X024892Y017953*
G37*
G36*
X031644Y022126D02*
Y020876D01*
X030866Y020098*
X024193*
X024099Y020193*
X024123Y020239*
X024134Y020237*
X024183Y020246*
X024224Y020274*
X024251Y020314*
X024134*
Y020413*
X024094*
Y02061*
X024193Y020709*
X028799*
X029016Y020925*
Y020984*
Y021039*
Y021535*
X029086Y021605*
X029213Y021732*
X029793*
X030187Y022126*
X030384Y022323*
X031447*
X031644Y022126*
G37*
G36*
X031634Y024852D02*
Y023976D01*
X03018Y022523*
X03013Y022544*
Y022557*
X029776*
Y022657*
X03013*
Y022725*
X029862*
Y02376*
X029272Y02435*
X028834*
X028786Y024355*
Y0244*
Y024645*
X028346*
X027906*
Y024408*
X027857Y024388*
X027539Y024705*
X025827*
X025819Y024715*
X025804Y024787*
X025763Y024848*
X025702Y024889*
X02563Y024903*
X025558Y024889*
X025497Y024848*
X025456Y024787*
X025441Y024715*
X025456Y024642*
X025465Y024628*
X025315Y024478*
X024134*
X024035Y02438*
X023792*
Y024447*
X023437*
Y024497*
X023387*
Y024622*
X023372Y024661*
X024055Y025344*
X031142*
X031634Y024852*
G37*
%LNee4951_bpm_reva-4*%
%LPC*%
G36*
X028296Y025238D02*
X028267D01*
Y025139*
X028296*
Y025238*
G37*
G36*
X028426D02*
X028397D01*
Y025139*
X028426*
Y025238*
G37*
G36*
X028556D02*
X028526D01*
Y025139*
X028556*
Y025238*
G37*
G36*
X024706Y025284D02*
Y025217D01*
X024772*
X024746Y025257*
X024706Y025284*
G37*
G36*
X024606D02*
X024565Y025257D01*
X024539Y025217*
X024606*
Y025284*
G37*
G36*
X028167Y025238D02*
X028137D01*
Y025139*
X028167*
Y025238*
G37*
G36*
X031437Y024843D02*
X031054D01*
Y024459*
X031437*
Y024843*
G37*
G36*
X030954Y021643D02*
X030571D01*
Y02126*
X030954*
Y021643*
G37*
G36*
X023792Y024615D02*
X023487D01*
Y024547*
X023792*
Y024615*
G37*
G36*
X024044Y024861D02*
X023978D01*
X024004Y024821*
X024044Y024794*
Y024861*
G37*
G36*
X028556Y025039D02*
X028476D01*
X028397*
Y025034*
X028396*
Y024745*
X028786*
Y024939*
X028816*
Y025039*
X028736*
X028656*
Y025034*
X028556*
Y025039*
G37*
G36*
X030954Y024843D02*
X030571D01*
Y024459*
X030954*
Y024843*
G37*
G36*
Y024359D02*
X030571D01*
Y023976*
X030954*
Y024359*
G37*
G36*
X031437Y022126D02*
X031054D01*
Y021743*
X031437*
Y022126*
G37*
G36*
Y024359D02*
X031054D01*
Y023976*
X031437*
Y024359*
G37*
G36*
Y021643D02*
X031054D01*
Y02126*
X031437*
Y021643*
G37*
G36*
X030954Y022126D02*
X030571D01*
Y021743*
X030954*
Y022126*
G37*
G36*
X027907Y025238D02*
X027877D01*
Y025139*
X027907*
Y025238*
G37*
G36*
X024772Y025117D02*
X024706D01*
Y02505*
X024746Y025077*
X024772Y025117*
G37*
G36*
X028686Y025238D02*
X028656D01*
Y025139*
X028686*
Y025238*
G37*
G36*
X028816D02*
X028786D01*
Y025139*
X028816*
Y025238*
G37*
G36*
X028036D02*
X028007D01*
Y025139*
X028036*
Y025238*
G37*
G36*
X024606Y025117D02*
X024539D01*
X024565Y025077*
X024606Y02505*
Y025117*
G37*
G36*
X029537Y025208D02*
X029465Y025194D01*
X029404Y025153*
X029363Y025092*
X029349Y02502*
X029363Y024948*
X029404Y024886*
X029465Y024845*
X029537Y024831*
X02961Y024845*
X029671Y024886*
X029712Y024948*
X029726Y02502*
X029712Y025092*
X029671Y025153*
X02961Y025194*
X029537Y025208*
G37*
G36*
X024211Y024861D02*
X024144D01*
Y024794*
X024185Y024821*
X024211Y024861*
G37*
G36*
X024044Y025028D02*
X024004Y025002D01*
X023978Y024961*
X024044*
Y025028*
G37*
G36*
X028296Y025039D02*
X028217D01*
X028137*
Y025034*
X028036*
Y025039*
X027957*
X027877*
Y024939*
X027906*
Y024745*
X028296*
Y025034*
Y025039*
G37*
G36*
X024144Y025028D02*
Y024961D01*
X024211*
X024185Y025002*
X024144Y025028*
G37*
%LNee4951_bpm_reva-5*%
%LPD*%
G54D10*
X013406Y010079D03*
X012461D03*
G54D11*
X013169Y008789D03*
X012776D03*
X013218Y009262D03*
X013612D03*
X012687D03*
X012293D03*
X011565Y008583D03*
X011171D03*
X011565Y009085D03*
X011171D03*
X011565Y009567D03*
X011171D03*
X011565Y010059D03*
X011171D03*
X021732Y016949D03*
X021339D03*
X017077Y019203D03*
X016683D03*
X032372Y012451D03*
X032766D03*
X02811Y010079D03*
X028504D03*
X019547Y017805D03*
X019154D03*
X015384Y01065D03*
X015778D03*
X018888Y023504D03*
X018494D03*
X011014Y022323D03*
X011407D03*
X017215Y010492D03*
X016821D03*
X011014Y021732D03*
X011407D03*
X018514Y022657D03*
X018907D03*
X011024Y021211D03*
X011417D03*
X018957Y011053D03*
X01935D03*
X018386Y010472D03*
X017992D03*
X030463Y008425D03*
X030856D03*
X025364Y00878D03*
X02497D03*
X031959Y012441D03*
X031565D03*
X020876Y011772D03*
X020482D03*
X027008Y010039D03*
X027402D03*
X025197Y009281D03*
X025591D03*
X024016Y015354D03*
X023622D03*
X022441Y020561D03*
X022835D03*
G54D12*
X012667Y01878D03*
Y018386D03*
X017077Y020108D03*
Y019715D03*
X011073Y016457D03*
Y01685D03*
X019301Y019764D03*
Y020157D03*
X01876Y017746D03*
Y01814D03*
X018199Y021713D03*
Y022106D03*
X020915Y02439D03*
Y023996D03*
X018789Y016752D03*
Y017146D03*
X018848Y01376D03*
Y014154D03*
X010906Y012315D03*
Y012709D03*
X011122Y015148D03*
Y015541D03*
X011949Y022874D03*
Y023268D03*
X01748Y008917D03*
Y009311D03*
X020837Y009281D03*
Y008888D03*
X018671Y020935D03*
Y020541D03*
X019754Y020187D03*
Y019793D03*
X018957Y011644D03*
Y012037D03*
X025404Y008189D03*
Y007795D03*
X032795Y007982D03*
Y008376D03*
X024892Y007795D03*
Y008189D03*
X028465Y01748D03*
Y017874D03*
Y016457D03*
Y01685D03*
X032283Y007785D03*
Y008179D03*
X031762Y007785D03*
Y008179D03*
X03126Y007785D03*
Y008179D03*
X023593Y021693D03*
Y022087D03*
X019498Y016811D03*
Y017205D03*
X019508Y016427D03*
Y016033D03*
G54D13*
X020935Y014508D03*
X021644D03*
G54D14*
X023593Y022835D03*
Y023543D03*
X02499Y021476D03*
Y022185D03*
G54D15*
X017854Y019665D03*
Y019409D03*
Y019154D03*
X018602D03*
Y019409D03*
Y019665D03*
X018917Y021594D03*
Y02185D03*
Y022106D03*
X019665D03*
Y02185D03*
Y021594D03*
G54D16*
X025037Y015354D03*
X025986D03*
X025474Y018002D03*
X024526D03*
G54D17*
X026815Y024039D03*
X026315Y021689D03*
G54D18*
X026065Y024215D03*
X027065Y021514D03*
G54D19*
X029776Y022607D03*
X028989Y022233D03*
Y022981D03*
X02265Y024871D03*
Y024123D03*
X023437Y024497D03*
X02673Y017206D03*
X027517Y01758D03*
Y016832D03*
G54D20*
X020994Y019193D03*
X020482D03*
X020335Y020157D03*
X020846D03*
X019282Y020768D03*
X019793D03*
X027933Y00689D03*
X027421D03*
G54D21*
X028346Y024695D03*
G54D22*
X027957Y025089D03*
X028217D03*
X028476D03*
X028736D03*
G54D23*
X028736Y023913D03*
X028476D03*
X028217D03*
X027957D03*
G54D24*
X021949Y01247D03*
X02065D03*
G54D25*
X020128Y013553D03*
X021506D03*
X029557Y007037D03*
X030935D03*
G54D26*
X013169Y023789D03*
Y024478D03*
X033868Y011575D03*
Y012264D03*
X027972Y021339D03*
Y022028D03*
G54D27*
X020069Y025069D03*
Y023927D03*
X025728Y017205D03*
Y016063D03*
G54D28*
X011929Y01685D03*
Y016654D03*
Y016457D03*
Y01626D03*
Y016063D03*
Y015866D03*
Y015669D03*
Y015472D03*
Y015276D03*
Y015079D03*
Y014882D03*
Y014685D03*
Y014488D03*
Y014291D03*
Y014094D03*
Y013898D03*
Y013701D03*
Y013504D03*
Y013307D03*
Y01311D03*
Y012913D03*
Y012717D03*
Y01252D03*
Y012323D03*
Y012126D03*
X017992D03*
Y012323D03*
Y01252D03*
Y012717D03*
Y012913D03*
Y01311D03*
Y013307D03*
Y013504D03*
Y013701D03*
Y013898D03*
Y014094D03*
Y014291D03*
Y014488D03*
Y014685D03*
Y014882D03*
Y015079D03*
Y015276D03*
Y015472D03*
Y015669D03*
Y015866D03*
Y016063D03*
Y01626D03*
Y016457D03*
Y016654D03*
Y01685D03*
G54D29*
X012598Y011457D03*
X012795D03*
X012992D03*
X013189D03*
X013386D03*
X013583D03*
X01378D03*
X013976D03*
X014173D03*
X01437D03*
X014567D03*
X014764D03*
X014961D03*
X015157D03*
X015354D03*
X015551D03*
X015748D03*
X015945D03*
X016339D03*
X016535D03*
X016732D03*
X016929D03*
X017126D03*
X017323D03*
Y01752D03*
X017126D03*
X016929D03*
X016732D03*
X016535D03*
X016339D03*
X016142D03*
X015945D03*
X015748D03*
X015551D03*
X015354D03*
X015157D03*
X014961D03*
X014764D03*
X014567D03*
X01437D03*
X014173D03*
X013976D03*
X01378D03*
X013583D03*
X013386D03*
X013189D03*
X012992D03*
X012795D03*
X012598D03*
X016142Y011457D03*
G54D30*
X013445Y02189D03*
G54D31*
X01439Y021201D03*
Y021398D03*
Y021594D03*
Y021791D03*
Y021988D03*
Y022185D03*
Y022382D03*
Y022579D03*
X0125D03*
Y022382D03*
Y022185D03*
Y021988D03*
Y021791D03*
Y021594D03*
Y021398D03*
Y021201D03*
G54D32*
X014134Y022835D03*
X013937D03*
X01374D03*
X013543D03*
X013346D03*
X01315D03*
X012953D03*
X012756D03*
Y020945D03*
X012953D03*
X01315D03*
X013346D03*
X013543D03*
X01374D03*
X013937D03*
X014134D03*
G54D33*
X029213Y011713D03*
Y011201D03*
X025344Y022972D03*
Y023484D03*
G54D34*
X029665Y015433D03*
X033642D03*
G54D35*
X024813Y014232D03*
X025955D03*
G54D36*
X023348Y01822D03*
X023069Y017942D03*
G54D37*
X027677Y008543D03*
G54D38*
X026545Y007793D03*
Y008293D03*
Y008793D03*
Y009293D03*
X028809D03*
Y008793D03*
Y008293D03*
Y007793D03*
G54D39*
X024054Y016218D03*
X02368Y017005D03*
X024428D03*
G54D40*
X031516Y010433D03*
G54D41*
X030364Y011575D03*
X03062D03*
X030876D03*
X031132D03*
X031388D03*
X031644D03*
X0319D03*
X032156D03*
X032411D03*
X032667D03*
Y009291D03*
X032411D03*
X032156D03*
X0319D03*
X031644D03*
X031388D03*
X031132D03*
X030876D03*
X03062D03*
X030364D03*
G54D42*
X017343Y021545D03*
X029311Y01D03*
X033612Y008937D03*
X030207Y007864D03*
X029656Y01252D03*
X020748Y021811D03*
G54D43*
X027992Y01561D03*
Y014311D03*
X02689Y01561D03*
Y014311D03*
G54D44*
X02563Y013175D03*
Y012675D03*
Y012175D03*
Y011675D03*
Y011175D03*
G54D45*
X028071Y012175D03*
G54D46*
X02065Y018361D03*
Y017938D03*
X01998D03*
Y018361D03*
G54D47*
X020679Y01815D03*
X019951D03*
G54D48*
X026644Y02061D03*
Y020886D03*
X02502Y02061D03*
Y020886D03*
X024429Y02061D03*
Y020886D03*
G54D49*
X029134Y021299D03*
X028858D03*
G54D50*
X022904Y022998D03*
X022707D03*
X02251D03*
X022313D03*
X022116D03*
Y021313D03*
X022313D03*
X02251D03*
X022707D03*
X022904D03*
G54D51*
X019833Y008642D03*
X018258D03*
Y009587D03*
X019833D03*
G54D52*
X013543Y021791D02*
X01439D01*
X018839Y019665D02*
X019045Y019459D01*
X024428Y017005D02*
Y017147D01*
X023976Y017598D02*
X024428Y017147D01*
X023514Y018376D02*
X025399D01*
X023371Y018233D02*
X023514Y018376D01*
X014577Y016949D02*
X014764Y017136D01*
X014567Y016949D02*
X014577D01*
X014764Y017136D02*
Y01752D01*
X014961Y017018D02*
X01497Y017008D01*
X025813Y018327D02*
X026024D01*
X025602Y018538D02*
X025813Y018327D01*
X025399Y018376D02*
X025474Y018301D01*
X022628Y018169D02*
X022996Y018538D01*
X025474Y018002D02*
Y018301D01*
X02376Y018996D02*
X023907D01*
X02435Y019439*
X022766Y01938D02*
X023209D01*
X023602Y01562D02*
X023622Y0156D01*
Y015354D02*
Y0156D01*
X022776Y017608D02*
X023095Y017928D01*
X022776Y017215D02*
Y017608D01*
X022996Y018538D02*
X025602D01*
X023406Y017008D02*
X023677D01*
X02368Y017005*
X012992Y016968D02*
Y01752D01*
X012972Y016949D02*
X012992Y016968D01*
X014961Y017018D02*
Y01752D01*
X030994Y007785D02*
X03126D01*
X030856Y007923D02*
X030994Y007785D01*
X030856Y007923D02*
Y008425D01*
X017687Y021713D02*
X018199D01*
X017589Y021614D02*
X017687Y021713D01*
X010915Y009557D02*
X010925Y009567D01*
X020531Y021594D02*
X020748Y021811D01*
X019665Y021594D02*
X020531D01*
X018819Y020945D02*
X018996Y020768D01*
X01875Y020945D02*
X018819D01*
X013612Y009262D02*
D01*
Y009016D02*
Y009262D01*
X013386Y008789D02*
X013612Y009016D01*
X013169Y008789D02*
X013386D01*
X012559D02*
X012776D01*
X012293Y009055D02*
X012559Y008789D01*
X012293Y009055D02*
Y009262D01*
X012461Y010079D02*
X012992Y01061D01*
Y011457*
X012461Y009606D02*
Y010079D01*
X012293Y009439D02*
X012461Y009606D01*
X012293Y009262D02*
Y009439D01*
X012953Y009262D02*
X013218D01*
X012687D02*
X012953D01*
X013612D02*
D01*
Y009557*
X013406Y009764D02*
X013612Y009557D01*
X013406Y009764D02*
Y010079D01*
Y01061*
X013189Y010827D02*
X013406Y01061D01*
X013189Y010827D02*
Y011457D01*
X013819Y012057D02*
Y014134D01*
X013809Y012047D02*
X013819Y012057D01*
X012392Y015866D02*
X014144Y014114D01*
Y013189D02*
Y014114D01*
X014488Y012628D02*
Y014065D01*
X01249Y016063D02*
X014488Y014065D01*
X014783Y012234D02*
X014793Y012224D01*
X012559Y01626D02*
X014783Y014035D01*
Y012234D02*
Y014035D01*
X011929Y012323D02*
X012313D01*
X013386Y011821D02*
Y012106D01*
X012283Y015669D02*
X013819Y014134D01*
X011929Y015669D02*
X012283D01*
X011929Y015866D02*
X012392D01*
X011929Y016063D02*
X01249D01*
X011929Y01626D02*
X012559D01*
X010925Y009567D02*
X011171D01*
Y010059*
Y009085D02*
Y009567D01*
Y008583D02*
Y009085D01*
X011565Y010059D02*
X011909D01*
X011919Y010069*
X011565Y009567D02*
X011594Y009537D01*
X01188*
X011565Y009085D02*
X012441Y008209D01*
Y00813D02*
Y008209D01*
X011565Y008091D02*
Y008583D01*
Y008091D02*
X01185Y007805D01*
X015069Y008878D02*
Y009094D01*
X014961Y009203D02*
X015069Y009094D01*
X014961Y009203D02*
Y011457D01*
X014311Y008701D02*
Y00872D01*
X01437Y00878*
Y011457*
X014567Y008406D02*
Y011457D01*
X014488Y008327D02*
X014567Y008406D01*
X014764Y007646D02*
Y011457D01*
X014553Y007435D02*
X014764Y007646D01*
X013976Y008287D02*
X014144Y00812D01*
Y007526D02*
Y00812D01*
X014053Y007435D02*
X014144Y007526D01*
X013976Y008287D02*
Y009252D01*
X014173Y009449*
X012601Y016976D02*
Y01752D01*
X012598D02*
X012601D01*
Y016976D02*
X012717Y01686D01*
Y016654D02*
Y01686D01*
X012667Y018848D02*
X013228Y019409D01*
X012667Y01878D02*
Y018848D01*
Y018386D02*
X012795Y018258D01*
Y01752D02*
Y018258D01*
X012215Y019232D02*
X01374Y020758D01*
X012215Y017215D02*
Y019232D01*
Y017215D02*
X012441Y016988D01*
X012008Y019331D02*
X012431Y019754D01*
X012008Y016929D02*
Y019331D01*
X011929Y01685D02*
X012008Y016929D01*
X011752Y019852D02*
X012008Y020108D01*
X011752Y01753D02*
Y019852D01*
X011073Y01685D02*
X011752Y01753D01*
X012441Y016772D02*
Y016988D01*
X012323Y016654D02*
X012441Y016772D01*
X011929Y016654D02*
X012323D01*
X012431Y019754D02*
Y020541D01*
X014173Y009449D02*
Y011457D01*
X018694Y008077D02*
X019028Y007744D01*
Y007323D02*
Y007744D01*
X010856Y015541D02*
X011122D01*
X010866Y015148D02*
X011122D01*
X011447Y015276D02*
X011929D01*
X011319Y015148D02*
X011447Y015276D01*
X011122Y015148D02*
X011319D01*
X011122Y015541D02*
X011407D01*
X011476Y015472*
X011929*
X021634Y019921D02*
Y022402D01*
X021703Y024862D02*
X022185D01*
X02128Y024439D02*
X021703Y024862D01*
X02128Y021407D02*
Y024439D01*
X020492Y02062D02*
X02128Y021407D01*
X019606Y018152D02*
Y018996D01*
X019626Y0194D02*
X020167D01*
X01936Y019134D02*
X019626Y0194D01*
X01936Y01874D02*
Y019134D01*
X019075Y019094D02*
X01954Y01956D01*
X019075Y018524D02*
Y019094D01*
X01954Y01956D02*
X020039D01*
X019085Y019488D02*
X019114Y019459D01*
X019045D02*
X019114D01*
X01997Y019065D02*
Y019104D01*
X020059Y019193*
X01998Y018361D02*
Y018573D01*
X019882Y018671D02*
X01998Y018573D01*
Y018361D02*
X019985Y018366D01*
X020226*
X020406Y018186*
Y018061D02*
Y018186D01*
Y018061D02*
X020529Y017938D01*
X02065*
X019606Y018152D02*
X01982Y017938D01*
X01998*
X019951Y01815D02*
X020118D01*
X020246Y018022*
Y017766D02*
Y018022D01*
X020197Y017717D02*
X020246Y017766D01*
X019774Y017717D02*
X020197D01*
X019685Y017805D02*
X019774Y017717D01*
X019547Y017805D02*
X019685D01*
X020915Y017648D02*
Y018061D01*
X020827Y01815D02*
X020915Y018061D01*
X020679Y01815D02*
X020827D01*
X020325Y017057D02*
X020915Y017648D01*
X017343Y012116D02*
X017707Y011752D01*
X017116Y012116D02*
X017343D01*
X016043Y013189D02*
X017116Y012116D01*
X024577Y02189D02*
Y022047D01*
Y02189D02*
X024587Y02188D01*
X023593Y022087D02*
X023839D01*
X021467Y019754D02*
X021634Y019921D01*
X020234Y019754D02*
X021467D01*
X020039Y01956D02*
X020234Y019754D01*
X020285Y020157D02*
X020374D01*
X01998Y019764D02*
X020374Y020157D01*
X019774Y019764D02*
X01998D01*
X018602Y019665D02*
X018839D01*
X019301Y020433D02*
Y02063D01*
Y020098D02*
Y020433D01*
X019163Y020768D02*
X019301Y02063D01*
X018996Y020768D02*
X019163D01*
X020167Y0194D02*
X020315Y019547D01*
X022598*
X019075Y018524D02*
X019154Y018445D01*
Y017805D02*
Y018445D01*
X019094Y017746D02*
X019154Y017805D01*
X02562Y019439D02*
X025935Y019124D01*
X02435Y019439D02*
X02562D01*
X023465Y019636D02*
X026021D01*
X023209Y01938D02*
X023465Y019636D01*
X026021D02*
X026208Y019449D01*
X027185*
X026368Y019656D02*
X028189D01*
X026122Y019902D02*
X026368Y019656D01*
X023848Y019902D02*
X026122D01*
X023848D02*
Y019921D01*
X019085Y019488D02*
X019301Y019705D01*
X016811Y018701D02*
X016841D01*
X016535Y018425D02*
X016811Y018701D01*
X025935Y01877D02*
Y019124D01*
Y01877D02*
X02625Y018455D01*
X02901*
X029453Y018898*
X018174Y018509D02*
X018248Y018435D01*
X01716Y018509D02*
X018174D01*
X016732Y018081D02*
X01716Y018509D01*
X016732Y01752D02*
Y018081D01*
X022087Y017303D02*
X022185D01*
X021732Y016949D02*
X022087Y017303D01*
X021201Y017392D02*
X021339Y017254D01*
Y016949D02*
Y017254D01*
X017431Y019439D02*
X017461Y019409D01*
X017431Y019439D02*
Y019961D01*
X017283Y020108D02*
X017431Y019961D01*
X017077Y020108D02*
X017283D01*
X017077Y019715D02*
D01*
Y019203D02*
Y019715D01*
X016535Y01752D02*
Y018425D01*
X017126Y019154D02*
X017854D01*
X017077Y019203D02*
X017126Y019154D01*
X016407Y018927D02*
X016683Y019203D01*
X016407Y018878D02*
Y018927D01*
X016142Y018701D02*
X016319Y018878D01*
X016407*
X020571Y009547D02*
Y009567D01*
Y009547D02*
X020837Y009281D01*
X019852Y009567D02*
X020571D01*
X019833Y009587D02*
X019852Y009567D01*
X019734Y010197D02*
Y013258D01*
X019498Y013494D02*
X019734Y013258D01*
X018593Y013494D02*
X019498D01*
X024498Y006929D02*
Y01375D01*
X024488Y006919D02*
X024498Y006929D01*
X02439Y013858D02*
X024498Y01375D01*
X029537Y019892D02*
X029685Y019744D01*
X026536Y019892D02*
X029537D01*
X028189Y019656D02*
X028248Y019596D01*
X027185Y019449D02*
X027244Y01939D01*
X013189Y018543D02*
X013238Y018593D01*
X013189Y01752D02*
Y018543D01*
X023327Y021604D02*
Y021693D01*
X023035Y021313D02*
X023327Y021604D01*
Y021693D02*
X023593D01*
X018268Y02065D02*
X018278Y020659D01*
Y021142*
X018199Y02122D02*
X018278Y021142D01*
X018199Y02122D02*
Y021713D01*
X014774Y021398D02*
X014951Y02122D01*
X016024Y020315D02*
Y02248D01*
X014872Y019163D02*
X016024Y020315D01*
X014774Y019163D02*
X014872D01*
X015807Y020384D02*
Y022608D01*
X015069Y019646D02*
X015807Y020384D01*
X014774Y019646D02*
X015069D01*
X014537D02*
X014774D01*
X013671Y01878D02*
X014537Y019646D01*
X014459Y019163D02*
X014774D01*
X013848Y018553D02*
X014459Y019163D01*
X014528Y018799D02*
X014784D01*
X01378Y018051D02*
X014528Y018799D01*
X01435Y018396D02*
X014823D01*
X014282Y018327D02*
X01435Y018396D01*
X014282Y018317D02*
Y018327D01*
X013976Y018012D02*
X014282Y018317D01*
X014331Y018081D02*
X015138D01*
X014173Y017923D02*
X014331Y018081D01*
X014784Y018799D02*
X01626Y020276D01*
X015207Y018396D02*
X016476Y019665D01*
X014823Y018396D02*
X015207D01*
X016476Y019665D02*
Y022146D01*
X016636Y019579D02*
Y022069D01*
X015138Y018081D02*
X016636Y019579D01*
X022598Y019547D02*
X022766Y01938D01*
X020059Y019193D02*
X020482D01*
X020994Y018907D02*
Y019173D01*
X022126Y019872D02*
X0225D01*
X01626Y020276D02*
Y022175D01*
X028051Y023189D02*
X028406D01*
X028614Y022981*
X028989*
X020994Y018907D02*
X02126Y018642D01*
X019803Y017067D02*
X019843D01*
X019537Y016801D02*
X019803Y017067D01*
X019508Y016801D02*
X019537D01*
X020325Y01622D02*
Y017057D01*
X019695Y015591D02*
X020325Y01622D01*
X02188Y018169D02*
X022628D01*
X021688Y018361D02*
X02188Y018169D01*
X02065Y018361D02*
X021688D01*
X026014Y020925D02*
X026043D01*
X025728Y021211D02*
X026014Y020925D01*
X025728Y021211D02*
Y022283D01*
X026014Y022569*
Y022963*
X025758Y023219D02*
X026014Y022963D01*
X025758Y023219D02*
Y023819D01*
X0256Y023976D02*
X025758Y023819D01*
X0256Y023976D02*
Y024321D01*
X026065Y023266D02*
X026262Y023069D01*
X026065Y023266D02*
Y024215D01*
X019862Y018691D02*
X019882Y018671D01*
X021999Y020778D02*
X022116Y020896D01*
Y021313*
X018652Y01626D02*
X01872Y016191D01*
X017992Y01626D02*
X018652D01*
X0194Y015591D02*
X019695D01*
X017992Y01252D02*
X018543D01*
X018691Y012372*
X018681Y012037D02*
X018957D01*
X018396Y012323D02*
X018681Y012037D01*
X017992Y012323D02*
X018396D01*
X018622Y015866D02*
X018632Y015856D01*
X017992Y015866D02*
X018622D01*
X018041Y017431D02*
X018366D01*
X016811Y016201D02*
X018041Y017431D01*
X016811Y013829D02*
Y016201D01*
Y013829D02*
X016919Y01372D01*
Y013159D02*
Y01372D01*
Y013159D02*
X017559Y01252D01*
X017992*
X016604Y016289D02*
X017323Y017008D01*
X016604Y013524D02*
Y016289D01*
X016357Y016298D02*
X017126Y017067D01*
X016357Y015038D02*
Y016298D01*
X016329Y01501D02*
X016357Y015038D01*
X022835Y020561D02*
X022844Y020551D01*
Y020217D02*
Y020551D01*
X0225Y019872D02*
X022844Y020217D01*
X019222Y012628D02*
X019331Y01252D01*
X01876Y012628D02*
X019222D01*
X02062Y0125D02*
Y012854D01*
Y0125D02*
X02065Y01247D01*
X018671Y012717D02*
X01876Y012628D01*
X017992Y012717D02*
X018671D01*
X019449Y01312D02*
D01*
Y013051D02*
Y01312D01*
X019213Y012815D02*
X019449Y013051D01*
X018829Y012815D02*
X019213D01*
X01873Y012913D02*
X018829Y012815D01*
X017992Y012913D02*
X01873D01*
X019006Y013081D02*
Y013091D01*
X018986Y01311D02*
X019006Y013091D01*
X018986Y01311D02*
D01*
X017992D02*
X018986D01*
X017992Y013504D02*
X018002Y013494D01*
X018593*
X020876Y011083D02*
X020896Y011063D01*
X020876Y011083D02*
Y011772D01*
X02065Y012146D02*
Y01247D01*
X020482Y011978D02*
X02065Y012146D01*
X020482Y011772D02*
Y011978D01*
X020846Y020157D02*
X02122D01*
X016142Y01752D02*
Y018701D01*
X017126Y017067D02*
Y017992D01*
X017303Y018169*
X017323Y01752D02*
X017549Y017746D01*
X01876*
X019094*
X019498Y017205D02*
Y017441D01*
X019675Y016033D02*
X019951Y016309D01*
X019508Y016033D02*
X019675D01*
X019508Y016427D02*
Y016801D01*
X017992Y016457D02*
X019478D01*
X019508Y016427*
X02063Y014478D02*
X020659Y014508D01*
X021033*
X021988Y014852D02*
X022018D01*
X021644Y014508D02*
X021988Y014852D01*
X015551Y012087D02*
Y016181D01*
Y012057D02*
Y012087D01*
X015561Y012077*
Y012047D02*
Y012077D01*
X015551Y012057D02*
X015561Y012047D01*
X015551Y016181D02*
X016035Y016665D01*
X016604Y013524D02*
X016624D01*
X016035Y016665D02*
X016042D01*
X016339Y016961*
Y01752*
X015945Y0169D02*
D01*
Y01752D01*
X016142D02*
D01*
X018622Y018553D02*
X01876Y018415D01*
Y01814D02*
Y018415D01*
X019055Y016752D02*
D01*
X018789D02*
X019055D01*
X019045Y017146D02*
X019055Y017156D01*
X018789Y017146D02*
X019045D01*
X018573Y016752D02*
X018789D01*
X018474Y016654D02*
X018573Y016752D01*
X017992Y016654D02*
X018474D01*
Y017146D02*
X018789D01*
X018179Y01685D02*
X018474Y017146D01*
X017992Y01685D02*
X018179D01*
X017854Y019154D02*
X018602D01*
X018917Y021319D02*
Y021594D01*
Y02185*
X018248Y022657D02*
X018514D01*
X018917Y022106D02*
X019665D01*
Y02185D02*
X020148D01*
X018199Y022106D02*
D01*
X018917*
X018907Y022657D02*
X018917Y022648D01*
Y022106D02*
Y022648D01*
X019783Y020659D02*
Y021161D01*
X019665Y02128D02*
X019783Y021161D01*
X019665Y02128D02*
Y021594D01*
X018602Y019665D02*
X018632Y019695D01*
Y020531*
X019783Y020659D02*
X020285Y020157D01*
X019301D02*
X019715D01*
X018602Y019409D02*
Y019665D01*
X017461Y019409D02*
X017854D01*
Y020118D02*
X017933Y020197D01*
X017854Y019665D02*
Y020118D01*
X019331Y010689D02*
X01935Y010709D01*
Y011053*
X018957Y010236D02*
Y011053D01*
Y010236D02*
X019173Y01002D01*
X019331Y010689D02*
X01937D01*
X018888Y009144D02*
Y00997D01*
X018386Y010472D02*
X018888Y00997D01*
X019173Y009518D02*
Y01002D01*
X018888Y009144D02*
X01939Y008642D01*
X019833*
X017992Y010472D02*
Y011142D01*
X017677Y011457D02*
X017992Y011142D01*
X017323Y011457D02*
X017677D01*
X017992Y011506D02*
X018386Y011112D01*
X017992Y011506D02*
Y012126D01*
X018386Y010472D02*
Y011112D01*
X018081Y023514D02*
X018484D01*
X016636Y022069D02*
X018081Y023514D01*
X016476Y022146D02*
X018691Y02436D01*
X019951*
X01626Y022175D02*
X018642Y024557D01*
X020896Y024813D02*
X020915Y024793D01*
Y02439D02*
Y024793D01*
X020138Y023996D02*
X020915D01*
X020069Y023927D02*
X020138Y023996D01*
X02064Y025069D02*
X020896Y024813D01*
X020069Y025069D02*
X02064D01*
X019872Y023996D02*
X019882Y024006D01*
X019252Y023996D02*
X019872D01*
X018888Y024094D02*
X018898Y024104D01*
X018888Y023504D02*
Y024094D01*
X018484Y023514D02*
X018494Y023504D01*
X014173Y01752D02*
Y017923D01*
X016024Y02248D02*
X017283Y02374D01*
Y023681D02*
Y02374D01*
X019951Y02436D02*
Y0244D01*
X018642Y024557D02*
Y024596D01*
X015807Y022608D02*
X017766Y024567D01*
X013976Y01752D02*
Y018012D01*
X01378Y01752D02*
Y018051D01*
X013848Y018376D02*
Y018553D01*
X013671Y018533D02*
Y01878D01*
X013386Y018248D02*
X013671Y018533D01*
X013386Y01752D02*
Y018248D01*
X013583Y01811D02*
X013848Y018376D01*
X013583Y01752D02*
Y01811D01*
X01374Y020758D02*
Y020945D01*
X014764Y01752D02*
D01*
X012421Y020551D02*
X012431Y020541D01*
X011732Y022657D02*
X011949Y022874D01*
X011732Y020728D02*
Y022657D01*
X011024Y020837D02*
X011043Y020817D01*
X011024Y020837D02*
Y021211D01*
X012008Y020108D02*
Y021641D01*
X0119Y02175D02*
Y022224D01*
Y02175D02*
X012008Y021641D01*
X01439Y021398D02*
X014774D01*
X01439Y021024D02*
X014596Y020817D01*
X01439Y021024D02*
Y021201D01*
X012146Y022018D02*
X012313Y022185D01*
X0119Y022224D02*
X012057Y022382D01*
X012313Y022185D02*
X0125D01*
X012057Y022382D02*
X0125D01*
X011014Y022028D02*
Y022323D01*
Y021732D02*
Y022028D01*
Y021732D02*
D01*
X013169Y024478D02*
Y024754D01*
X013159Y024764D02*
X013169Y024754D01*
X011437Y023435D02*
X011604Y023268D01*
X011949*
X013153Y022835D02*
Y023291D01*
X013258Y023396*
X012815Y023356D02*
X012953Y023219D01*
Y022835D02*
Y023219D01*
X012756Y021201D02*
X012953Y021398D01*
X0125Y021201D02*
X012756D01*
X012953Y021398D02*
X013445Y02189D01*
X012953Y020945D02*
Y021398D01*
X012756Y022579D02*
X013346Y021988D01*
X0125Y022579D02*
X012756D01*
X0125Y021988D02*
X013346D01*
X012717Y022874D02*
X012756Y022835D01*
X011949Y022874D02*
X012717D01*
X01439Y021398D02*
D01*
X012421Y020551D02*
D01*
X011073Y016457D02*
D01*
X011929*
X015157Y011457D02*
Y013189D01*
X016821Y010226D02*
D01*
Y010492*
X01747Y010226D02*
Y010236D01*
X017215Y010492D02*
X01747Y010236D01*
X017126Y010915D02*
Y011457D01*
Y010915D02*
X017215Y010827D01*
Y010492D02*
Y010827D01*
X016821Y010492D02*
Y010827D01*
X016929Y010935*
Y011457*
X018258Y009587D02*
Y00999D01*
X017992Y010256D02*
X018258Y00999D01*
X017992Y010256D02*
Y010472D01*
X020591Y008642D02*
X020837Y008888D01*
X019833Y008642D02*
X020591D01*
X01748Y009311D02*
X017756Y009587D01*
X018258*
X01748Y008642D02*
X018258D01*
X01748D02*
Y008917D01*
X018957Y011053D02*
Y011644D01*
X021506Y012913D02*
X021949Y01247D01*
X021506Y012913D02*
Y013553D01*
X021368Y013691D02*
X021506Y013553D01*
X021073Y013691D02*
X021368D01*
X018848Y01376D02*
X018868Y01374D01*
X019183*
X013386Y011821D02*
D01*
Y011457D02*
Y011821D01*
X015354Y010709D02*
X015433Y01063D01*
X015945Y011063D02*
X016142Y010866D01*
X015945Y011063D02*
Y011457D01*
X015827Y01063D02*
Y010718D01*
X015551Y010994D02*
X015827Y010718D01*
X015551Y010994D02*
Y011457D01*
X015827Y01063D02*
X015925D01*
X016142Y010413*
X015433Y010364D02*
Y01063D01*
X015354Y010709D02*
Y011457D01*
X011287Y012315D02*
X011476Y012126D01*
X010906Y012315D02*
X011287D01*
X011476Y012126D02*
X011929D01*
X012313Y012323D02*
X012549Y012087D01*
X010906Y012047D02*
D01*
Y012315D01*
Y012953D02*
D01*
Y012709D02*
Y012953D01*
Y012709D02*
X011921D01*
X01251Y01252D02*
D01*
X011929D02*
X01251D01*
X017323Y017008D02*
Y01752D01*
X017264Y015157D02*
X017283D01*
X017451Y015325*
Y016063*
X017648Y01626*
X017992*
X01748Y016457D02*
X017992D01*
X017156Y013868D02*
X017185Y013898D01*
X017992*
X018573Y01376D02*
X018848D01*
X018435Y013898D02*
X018573Y01376D01*
X017992Y013898D02*
X018435D01*
X019124Y014154D02*
X019134Y014163D01*
X018848Y014154D02*
X019124D01*
X018553D02*
X018848D01*
X018494Y014094D02*
X018553Y014154D01*
X017992Y014094D02*
X018494D01*
X025344Y020512D02*
X025354Y020502D01*
X025344Y020512D02*
Y022972D01*
X02439Y013858D02*
X024409D01*
X025049Y02378D02*
X025344Y023484D01*
X024754Y02378D02*
X025049D01*
X030463Y008711D02*
D01*
Y008425D02*
Y008711D01*
X028661Y011348D02*
X028789Y01122D01*
X029193*
X029213Y011201*
X028396Y021299D02*
D01*
X029447Y022981D02*
X029577Y02311D01*
Y023593*
X028989Y022981D02*
X029447D01*
X028736Y023449D02*
Y023913D01*
Y023449D02*
X02878Y023406D01*
X027065Y022291D02*
X027067Y022293D01*
X027065Y021514D02*
Y022291D01*
X022193Y024871D02*
X02265D01*
X022185Y024862D02*
X022193Y024871D01*
X024587Y02188D02*
X02499Y021476D01*
X022507Y022998D02*
Y023314D01*
X022657Y023465*
X023661*
X022707Y022998D02*
D01*
X022904*
X022116Y022303D02*
Y022998D01*
Y022303D02*
X022313Y022106D01*
Y021313D02*
D01*
Y022106D01*
X022904Y021313D02*
X023035D01*
X022835Y020561D02*
Y020768D01*
X022707Y020896D02*
X022835Y020768D01*
X022707Y020896D02*
Y021313D01*
X022441Y020561D02*
X022461Y020581D01*
Y020886*
X02251Y020935*
Y021313*
X026535Y016683D02*
X02689Y016329D01*
Y01561D02*
Y016329D01*
X026535Y017012D02*
X02673Y017206D01*
X026535Y016683D02*
Y017012D01*
X027517Y016832D02*
X027536Y01685D01*
X028465*
Y017116D02*
Y01748D01*
Y017116D02*
D01*
Y01685D02*
Y017116D01*
Y016181D02*
Y016457D01*
Y016181D02*
D01*
X03062Y011575D02*
Y011949D01*
X033337Y010207D02*
Y011161D01*
X033248Y01125D02*
X033337Y011161D01*
Y010207D02*
X034055Y009488D01*
Y008543D02*
Y009488D01*
X032933Y007421D02*
X034055Y008543D01*
X032923Y007431D02*
X032933Y007421D01*
X032618Y007431D02*
X032923D01*
X032283Y007766D02*
X032618Y007431D01*
X032283Y007766D02*
Y007785D01*
X032795Y007756D02*
D01*
Y007982*
X032411Y00874D02*
X032785Y008366D01*
X032411Y00874D02*
Y009291D01*
X032372Y012549D02*
X032726Y012904D01*
X032372Y012451D02*
Y012549D01*
X032766Y012451D02*
X033071D01*
X032156Y011575D02*
Y012106D01*
X032372Y012323*
Y012451*
X031959Y012441D02*
Y012618D01*
X031713Y012864D02*
X031959Y012618D01*
X03189Y011585D02*
Y012185D01*
X031959Y012254*
X03189Y011585D02*
X0319Y011575D01*
X031959Y012254D02*
Y012441D01*
X031565Y012205D02*
Y012441D01*
Y012205D02*
X031644Y012126D01*
Y011575D02*
Y012126D01*
X030226Y007126D02*
Y007992D01*
X029426Y008793D02*
X030226Y007992D01*
X032156Y008337D02*
X032298Y008194D01*
X032156Y008337D02*
Y009291D01*
X031762Y008179D02*
X0319Y008317D01*
X031644Y008543D02*
Y009291D01*
X03127Y008169D02*
X031644Y008543D01*
X029803Y011565D02*
X030364D01*
X029656Y011713D02*
X029803Y011565D01*
X029213Y011713D02*
X029656D01*
X030354Y011565D02*
X030364Y011575D01*
X033504Y008386D02*
Y008789D01*
X03128Y008691D02*
X031388Y008799D01*
Y009291*
X029636Y009518D02*
Y009675D01*
X029311Y01D02*
X029636Y009675D01*
X028809Y009293D02*
Y009577D01*
X028504Y009882D02*
X028809Y009577D01*
X028504Y009882D02*
Y010079D01*
X028711Y010404D02*
X028819Y010295D01*
X027766Y010404D02*
X028711D01*
X027402Y010039D02*
X027766Y010404D01*
X027913Y009369D02*
Y009882D01*
X02811Y010079*
X026545Y009577D02*
X027008Y010039D01*
X026545Y009293D02*
Y009577D01*
X024892Y007766D02*
Y007795D01*
Y007766D02*
X025157Y0075D01*
Y007549*
X025404Y007795*
X024892Y008189D02*
Y008474D01*
X02497Y008553*
Y00878*
X025377Y008215D02*
Y008793D01*
Y008215D02*
X025404Y008189D01*
X025377Y008793D02*
X026545D01*
X024941Y009281D02*
X025197D01*
X025602Y009293D02*
X026545D01*
X02688Y007224D02*
X027215Y00689D01*
X026545Y007559D02*
X02688Y007224D01*
X028809Y008793D02*
X029426D01*
X028809Y007539D02*
Y007793D01*
X028159Y00689D02*
X028809Y007539D01*
X027933Y00689D02*
X028159D01*
X026545Y007559D02*
Y007793D01*
X027215Y00689D02*
X027421D01*
X024428Y016675D02*
Y017005D01*
Y016675D02*
X025069Y016033D01*
X025906Y016614D02*
X025925Y016634D01*
X0319Y008317D02*
Y009291D01*
X03126Y007785D02*
X031506Y007539D01*
X031752Y007785D02*
X031762D01*
X031506Y007539D02*
X031752Y007785D01*
G54D53*
X028159Y017874D02*
X028465D01*
X027866Y01758D02*
X028159Y017874D01*
X027517Y01758D02*
X027866D01*
X033898Y020246D02*
X033907D01*
X031939Y018287D02*
X033898Y020246D01*
X020866Y013356D02*
X020876Y013346D01*
X02065Y013356D02*
X020866D01*
X020453Y013553D02*
X02065Y013356D01*
X020128Y013553D02*
X020453D01*
X02374Y017982D02*
X024134D01*
X023121Y017363D02*
X02374Y017982D01*
X023986Y006585D02*
Y007018D01*
X024222Y007254*
Y011053*
X024016Y01126D02*
X024222Y011053D01*
X024016Y01126D02*
Y014291D01*
X023121Y015187D02*
X024016Y014291D01*
X023121Y015187D02*
Y017363D01*
X02938Y018287D02*
X031939D01*
X028967Y017874D02*
X02938Y018287D01*
X028465Y017874D02*
X028967D01*
X024262Y021427D02*
Y022264D01*
X024114Y023012D02*
X024941Y022185D01*
X02499*
X011407Y022018D02*
Y022323D01*
Y021732D02*
Y022018D01*
Y021732D02*
D01*
X01312Y02374D02*
X013169Y023789D01*
X012746Y02374D02*
X01312D01*
X023593Y022933D02*
X024262Y022264D01*
X02626Y013455D02*
X026348D01*
X025965Y01375D02*
X02626Y013455D01*
X02563Y012675D02*
Y013175D01*
X024262Y021427D02*
X024429Y02126D01*
Y020974D02*
Y02126D01*
X024114Y023012D02*
Y023553D01*
X02499Y021476D02*
X02502Y021447D01*
Y020886D02*
Y021447D01*
X02265Y024123D02*
X023003D01*
X023661Y023465*
X025965Y01375D02*
Y01437D01*
X026417Y012175D02*
X026526Y012283D01*
X02563Y012175D02*
X026417D01*
X027648Y01561D02*
X027992D01*
X027539Y015718D02*
X027648Y01561D01*
X029596Y017933D02*
X029606D01*
X03123Y013484D02*
Y015276D01*
X030616Y01287D02*
X03123Y013484D01*
X030616Y011953D02*
Y01287D01*
Y011953D02*
X03062Y011949D01*
X030876Y012077D02*
X030935Y012136D01*
X026545Y008293D02*
X027427D01*
G54D54*
X024006Y015354D02*
X025037D01*
X011407Y02122D02*
Y021732D01*
X022933Y022904D02*
X023514D01*
X027972Y022559D02*
X028268Y022854D01*
X027972Y022028D02*
Y022559D01*
X029656Y012579D02*
X030079Y013002D01*
X029656Y01252D02*
Y012579D01*
X033868Y012264D02*
Y012549D01*
X032667Y011575D02*
X033888D01*
X031388D02*
Y012087D01*
X031289Y012185D02*
X031388Y012087D01*
G54D55*
X025561Y017195D02*
X02564D01*
X025335Y017421D02*
X025561Y017195D01*
X025335Y017421D02*
Y017726D01*
X025474Y017866*
Y018002*
X026585Y014616D02*
Y014852D01*
Y014616D02*
X02689Y014311D01*
X026083Y015354D02*
X026585Y014852D01*
X025728Y015896D02*
Y016063D01*
X025187Y015354D02*
X025728Y015896D01*
X025037Y015354D02*
X025187D01*
X025986D02*
X026083D01*
X02689Y014311D02*
X027992D01*
X029665Y016014D02*
X030295Y016644D01*
X029665Y015433D02*
Y016014D01*
G54D56*
X026299Y021299D02*
X026629Y020969D01*
X027957Y023913D02*
X028346D01*
X026941D02*
X027957D01*
X026815Y024039D02*
X026941Y023913D01*
X026299Y021673D02*
X026315Y021689D01*
X026299Y021299D02*
Y021673D01*
G54D57*
X024823Y013175D02*
Y01437D01*
X02939Y008297D02*
X029567Y00812D01*
Y006949D02*
Y00812D01*
Y006949D02*
X029665Y00685D01*
X028396Y021299D02*
X02876D01*
X028012D02*
X028396D01*
X027972Y022028D02*
X028178Y022233D01*
X028989*
X027972Y021339D02*
X028012Y021299D01*
X024823Y013175D02*
X02563D01*
X030935Y012726D02*
X033642Y015433D01*
X030935Y012136D02*
Y012726D01*
G54D58*
X030876Y011575D02*
Y012077D01*
X03128Y007037D02*
X031289Y007047D01*
X030935Y007037D02*
X03128D01*
X029385Y008293D02*
X02939Y008297D01*
X028809Y008293D02*
X029385D01*
X030876Y00997D02*
X031339Y010433D01*
X031516D02*
X031978D01*
X032411Y010866*
Y011575*
X031132Y010817D02*
X031516Y010433D01*
X031132Y010817D02*
Y011575D01*
Y010049D02*
X031516Y010433D01*
X031132Y009291D02*
Y010049D01*
X031339Y010433D02*
X031516D01*
X030876Y009291D02*
Y00997D01*
X030364Y010098D02*
X03062Y009843D01*
X030344Y010118D02*
X030364Y010098D01*
X03062Y009291D02*
Y009843D01*
X030364Y009291D02*
Y010098D01*
X032667Y010079D02*
X032707Y010118D01*
X032667Y009291D02*
Y010079D01*
G54D59*
X02564Y017195D02*
X025709D01*
G54D60*
X025037Y015354D02*
X025986D01*
X024526Y018002D02*
X025474D01*
G54D61*
X026742Y02061D02*
Y020886D01*
X026545Y02061D02*
Y020876D01*
X028858Y021398D02*
X029134D01*
X028868Y021201D02*
X029134D01*
X025118Y02061D02*
Y020886D01*
X024921Y02061D02*
Y020876D01*
X024528Y02061D02*
Y020886D01*
X024331Y02061D02*
Y020876D01*
G54D62*
X028228Y012175D03*
G54D63*
X025522Y011201D03*
G54D64*
X027677Y008543D03*
G54D65*
X031526Y010433D03*
G54D66*
X014035Y02378D03*
X012303D03*
G54D67*
X027453Y018898D03*
X026453D03*
X025453D03*
X024453D03*
X029453D03*
X028453D03*
X030453D03*
X033661D03*
X022244D03*
Y007283D03*
X033661D03*
G54D68*
X031453Y018898D03*
G54D69*
X010984Y01937D03*
Y007047D03*
X012642Y007435D03*
Y006935D03*
X013142Y007435D03*
Y006935D03*
X013642Y007435D03*
Y006935D03*
X014142Y007435D03*
Y006935D03*
X014642Y007435D03*
Y006935D03*
G54D70*
X033169Y021693D03*
Y024409D03*
G54D71*
X031004Y021693D03*
Y024409D03*
G54D72*
X019028Y007323D03*
X020028D03*
G54D73*
X020512Y00626D03*
X018543D03*
X016457D03*
X01437D03*
X012283D03*
X022283D03*
X02437D03*
X026457D03*
X028543D03*
X03063D03*
X032717D03*
X010197Y00815D03*
Y010118D03*
Y012087D03*
Y014055D03*
Y016024D03*
Y017992D03*
Y019961D03*
Y021929D03*
Y023898D03*
X014134Y025866D03*
X012165D03*
X034803Y023976D03*
Y022008D03*
Y020039D03*
Y018071D03*
Y016102D03*
Y014134D03*
Y012165D03*
Y010197D03*
Y008228D03*
X010197Y025866D03*
X034803D03*
Y00626D03*
X010197D03*
X030935Y010118D03*
X01063Y013337D03*
X018209Y024675D03*
X017283Y012421D03*
X02563Y024715D03*
X033907Y020246D03*
X029537Y02502D03*
X023002Y025256D03*
X020876Y013346D03*
X023976Y017598D03*
X024567Y017648D03*
X024134Y017982D03*
X023652Y016211D03*
X014567Y016949D03*
X01497Y017008D03*
X02376Y018996D03*
X022983Y019075D03*
X023986Y006585D03*
X023691Y008573D03*
X022776Y017215D03*
X023602Y01562D03*
X025787Y017618D03*
X026024Y018327D03*
X023406Y017008D03*
X012972Y016949D03*
X010915Y009557D03*
X012953Y009262D03*
X013809Y012047D03*
X014144Y013189D03*
X014488Y012628D03*
X014793Y012224D03*
X011919Y010069D03*
X01188Y009537D03*
X012441Y00813D03*
X01185Y007805D03*
X010551Y014291D03*
X010906Y012047D03*
X015069Y008878D03*
X014311Y008701D03*
X014488Y008327D03*
X015906Y007165D03*
X012717Y016654D03*
X018691Y008051D03*
X024134Y020364D03*
X010856Y015541D03*
X010866Y015148D03*
X021634Y022402D03*
X020492Y02062D03*
X019606Y018996D03*
X019045Y019459D03*
X01997Y019065D03*
X019892Y01748D03*
X017707Y011752D03*
X016043Y013189D03*
X024577Y022047D03*
X023839Y022087D03*
X019301Y020433D03*
X023848Y019921D03*
X01936Y01874D03*
X016841Y018701D03*
X026457Y018179D03*
X021319Y017992D03*
X018248Y018435D03*
X019459Y017461D03*
X019882Y018671D03*
X016407Y018878D03*
X020571Y009567D03*
X023848Y010778D03*
X023858Y010148D03*
X022313Y008553D03*
X019734Y010197D03*
X024488Y006919D03*
X026536Y019892D03*
X0269Y019163D03*
X029685Y019744D03*
X029252Y019478D03*
X013228Y019409D03*
X013238Y018593D03*
X013268Y019016D03*
X023327Y021693D03*
X017825Y020719D03*
X018268Y02065D03*
X014951Y02122D03*
X014774Y019646D03*
Y019163D03*
X014784Y018799D03*
X014823Y018396D03*
X027244Y01939D03*
X022126Y019872D03*
X028051Y023189D03*
X022982Y019636D03*
X02126Y018642D03*
X019843Y017067D03*
X024656Y025167D03*
X024094Y024911D03*
X026043Y020925D03*
X0256Y024321D03*
X026319Y023002D03*
X025738Y022766D03*
X021999Y020778D03*
X01872Y016191D03*
X0194Y015591D03*
X018691Y012372D03*
X02562Y020955D03*
X018632Y015856D03*
X018366Y017431D03*
X016083Y016191D03*
X016329Y01501D03*
X019331Y01252D03*
X02062Y012854D03*
X028248Y019596D03*
X019449Y01312D03*
X023465Y020531D03*
X019006Y013081D03*
X018593Y013494D03*
X02122Y020157D03*
X017303Y018169D03*
X024252Y015354D03*
X02063Y014478D03*
X022018Y014852D03*
X015551Y012087D03*
X016604Y013524D03*
X021201Y017392D03*
X015945Y0169D03*
X018622Y018553D03*
X019055Y016752D03*
Y017156D03*
X018917Y021319D03*
X018248Y022657D03*
X020148Y02185D03*
X017461Y019409D03*
X017933Y020197D03*
X01937Y010689D03*
X019173Y009518D03*
X020906Y023022D03*
X017421Y02249D03*
X016752Y024783D03*
X020896Y024813D03*
X019252Y023996D03*
X018898Y024104D03*
X017283Y023681D03*
X019951Y0244D03*
X018642Y024596D03*
X017766Y024567D03*
X013209Y019813D03*
X011732Y020728D03*
X011043Y020817D03*
X014596D03*
X020896Y011063D03*
X013445Y021594D03*
X01374Y02189D03*
X01315D03*
X012146Y022018D03*
X011407D03*
X011014Y022028D03*
X012746Y02374D03*
X013159Y024764D03*
X010915Y02501D03*
X015423D03*
X015404Y022795D03*
X011437Y023435D03*
X013258Y023396D03*
X012815Y023356D03*
X012421Y020551D03*
X015157Y013189D03*
X016821Y010226D03*
X01747D03*
X01748Y008642D03*
X022579Y011171D03*
X021073Y013691D03*
X019183Y01374D03*
X013415Y012156D03*
X016142Y010866D03*
Y010413D03*
X015433Y010364D03*
X012549Y012087D03*
X010906Y012953D03*
X01251Y01252D03*
X013179Y012461D03*
X015974Y012333D03*
X017264Y015157D03*
X01748Y016457D03*
X019134Y014163D03*
X017156Y013868D03*
X016053Y014537D03*
X017106Y015522D03*
X013228Y015984D03*
X013238Y014227D03*
X029016Y014026D03*
X024409Y013858D03*
X026348Y013455D03*
X030463Y008711D03*
X029385Y008293D03*
X033031Y009154D03*
X028248Y011348D03*
X028661D03*
Y011762D03*
X027835Y013012D03*
X028248D03*
X028661Y013002D03*
Y012569D03*
Y012175D03*
X026024Y010689D03*
X025531D03*
X025039D03*
Y011181D03*
Y011673D03*
X029685Y022146D03*
X027461Y021319D03*
X027411Y020925D03*
X028396Y021299D03*
X028268Y022854D03*
X029577Y023593D03*
X02878Y023406D03*
X024754Y02378D03*
X02753Y022844D03*
X02752Y023248D03*
X027067Y022293D03*
X022185Y024862D03*
X024114Y023553D03*
X024665Y023012D03*
X022313Y022106D03*
X019951Y016309D03*
X022185Y016073D03*
Y017303D03*
X024823Y013175D03*
X026526Y012283D03*
X027539Y015718D03*
X026535Y016683D03*
X028465Y017116D03*
Y016181D03*
X029596Y017933D03*
X030295Y016644D03*
X032687Y0175D03*
X033799Y017264D03*
X03123Y015276D03*
X030079Y013002D03*
X023396Y013947D03*
X023071Y014793D03*
X030226Y007126D03*
X034104Y010709D03*
X033248Y01125D03*
X032795Y007756D03*
X034154Y010276D03*
X033868Y012549D03*
X03252Y013346D03*
X032726Y012904D03*
X033071Y012451D03*
X031713Y012864D03*
X031289Y012185D03*
X032224Y014016D03*
X031289Y007047D03*
X033504Y008386D03*
X03128Y008691D03*
X029636Y009518D03*
X028819Y010295D03*
X025157Y0075D03*
X024941Y009281D03*
X02688Y007224D03*
X025069Y016033D03*
X025906Y016614D03*
X027913Y008267D03*
X027441D03*
Y008818D03*
X027913D03*
Y009369D03*
X027441D03*
Y007716D03*
X027913D03*
X032116Y010748D03*
X030935D03*
X030344D03*
X031526D03*
X032707D03*
X032116Y010118D03*
X032707D03*
X030344D03*
X031526D03*
X031506Y0075D03*
M02*