%FSTAX24Y24*%
%MOIN*%
%SFA1B1*%

%IPPOS*%
%ADD9500C,0.010000*%
%ADD9501C,0.025000*%
%ADD9502C,0.025600*%
%ADD9503C,0.035400*%
%ADD9504C,0.039400*%
%ADD9505C,0.055100*%
%ADD9506C,0.100000*%
%ADD9507C,0.114200*%
%LNee4951_bpm_reva-1*%
%LPD*%
G54D9500*
X010197Y00626D03*
Y007205D03*
Y00815D03*
Y009134D03*
Y010118D03*
Y011102D03*
Y012087D03*
Y013071D03*
X01063Y013337D03*
X010906Y012953D03*
X010197Y014055D03*
Y015039D03*
X013238Y014227D03*
X013179Y012461D03*
X013415Y012156D03*
X013809Y012047D03*
X012549Y012087D03*
X01251Y01252D03*
X014144Y013189D03*
X014488Y012953D03*
X014803Y012638D03*
X015157Y013189D03*
X015177Y013593D03*
X015551Y012087D03*
X015433Y010364D03*
X015069Y008878D03*
X014311Y008701D03*
X014488Y008327D03*
X01376Y009065D03*
X012894Y009409D03*
X01188Y009537D03*
X011919Y010069D03*
X010915Y009557D03*
X01185Y007805D03*
X012441Y00813D03*
X012283Y00626D03*
X01126D03*
X013327D03*
X01437D03*
X015423D03*
X016457D03*
X017559D03*
X018543D03*
X019528D03*
X020512D03*
X021398D03*
X022283D03*
X023327D03*
X023986Y006585D03*
X02437Y00626D03*
X024488Y006919D03*
X025157Y0075D03*
X025413Y00626D03*
X026457D03*
X02751D03*
X028543D03*
X029596D03*
X03063D03*
X030226Y007126D03*
X030463Y008711D03*
X029385Y008293D03*
X029636Y009518D03*
X030344Y010118D03*
X030935D03*
Y010748D03*
X030344D03*
X028819Y010295D03*
X028661Y011348D03*
Y011762D03*
Y012175D03*
Y012569D03*
Y013002D03*
X028248Y013012D03*
X027835D03*
Y011348D03*
X028248D03*
X027913Y009369D03*
X027441D03*
Y008818D03*
X027913D03*
Y008267D03*
X027441D03*
Y007716D03*
X027913D03*
X02688Y007224D03*
X024941Y009281D03*
X024961Y010728D03*
Y011181D03*
Y011673D03*
X025453Y010738D03*
X025945D03*
X026526Y012283D03*
X026348Y013455D03*
X025354Y013583D03*
X024823Y013175D03*
X024409Y013858D03*
X023396Y013947D03*
X023976Y015079D03*
X023602Y01562D03*
X022018Y014852D03*
X02063Y014478D03*
X021073Y013691D03*
X02062Y012854D03*
X019449Y01312D03*
X019006Y013081D03*
X018593Y013494D03*
X019183Y01374D03*
X019134Y014163D03*
X0194Y015591D03*
X017106Y015522D03*
X017264Y015157D03*
X017254Y014715D03*
X017156Y013868D03*
X016604Y013524D03*
X016043Y013189D03*
X015974Y012333D03*
X017283Y012421D03*
X017638Y011811D03*
X018691Y012372D03*
X019331Y01252D03*
X01937Y010689D03*
X019734Y010197D03*
X019173Y009518D03*
X020571Y009567D03*
X020896Y011063D03*
X022579Y011171D03*
X022657Y012726D03*
X023848Y010778D03*
X023858Y010148D03*
X023691Y008573D03*
X022313Y008553D03*
X018691Y008051D03*
X01747Y010226D03*
X016821D03*
X016142Y010413D03*
Y010866D03*
X016053Y014537D03*
X016329Y01501D03*
X026841Y015246D03*
X027235Y015247D03*
X029045Y014203D03*
X030079Y013002D03*
X030354Y015394D03*
X030935Y015384D03*
X031329D03*
X031722D03*
X031644Y014567D03*
X032037D03*
Y014173D03*
Y01378D03*
X03252Y013346D03*
X032726Y012904D03*
X033071Y012451D03*
X033248Y01125D03*
X032707Y010748D03*
X032116D03*
X031526D03*
Y010118D03*
X032116D03*
X032707D03*
X033031Y009154D03*
X033504Y008386D03*
X032795Y007756D03*
X032717Y00626D03*
X031673D03*
X033819D03*
X034803D03*
Y007244D03*
Y008228D03*
Y009213D03*
Y010197D03*
Y011181D03*
Y012165D03*
Y01315D03*
Y014134D03*
Y015118D03*
X03125Y014567D03*
X031713Y012864D03*
X031289Y012185D03*
X03128Y008691D03*
X034104Y010709D03*
X034803Y016102D03*
Y017087D03*
Y018071D03*
Y019055D03*
Y020039D03*
X034085Y02001D03*
X033789Y020305D03*
X033494Y020699D03*
X034085D03*
X034803Y021024D03*
Y022008D03*
Y022992D03*
Y023976D03*
Y024921D03*
Y025866D03*
X033858D03*
X032913D03*
X031929D03*
X031614Y021063D03*
Y020571D03*
X031722Y015778D03*
X030354Y015787D03*
Y016181D03*
X030344Y016594D03*
X029951D03*
X029557D03*
X028839Y016821D03*
X028465Y016043D03*
X026535Y016683D03*
X025906Y016614D03*
X025787Y017618D03*
X026024Y018327D03*
X026457Y018179D03*
X02751Y018189D03*
X027244Y01939D03*
X0269Y019163D03*
X026536Y019892D03*
X026594Y020295D03*
Y020689D03*
Y021083D03*
X026201D03*
Y020689D03*
Y020295D03*
X025768Y020896D03*
X025492Y021191D03*
X024577Y022047D03*
X023839Y022087D03*
X023327Y021693D03*
X023465Y020531D03*
X024134Y020364D03*
X023848Y019921D03*
X02376Y018996D03*
X022983Y019075D03*
X022982Y019636D03*
X022126Y019872D03*
X021999Y020778D03*
X02122Y020157D03*
X020492Y02062D03*
X019301Y020433D03*
X019045Y019459D03*
X019606Y018996D03*
X01997Y019065D03*
X019882Y018671D03*
X01936Y01874D03*
X018622Y018553D03*
X018248Y018435D03*
X018366Y017431D03*
X019055Y017156D03*
Y016752D03*
X01872Y016191D03*
X018632Y015856D03*
X01748Y016457D03*
X017303Y018169D03*
X016841Y018701D03*
X016407Y018878D03*
X017461Y019409D03*
X017933Y020197D03*
X018268Y02065D03*
X018917Y021319D03*
X020148Y02185D03*
X021634Y022402D03*
X021703Y022972D03*
Y023514D03*
X022215Y023494D03*
X022608Y02374D03*
X021703Y024055D03*
X022185Y024862D03*
X023002Y025256D03*
X022638Y025866D03*
X021693D03*
X020728D03*
X019803D03*
X018858D03*
X017913D03*
X016988D03*
X016024D03*
X017283Y023681D03*
X017766Y024094D03*
X018898Y024104D03*
X019252Y023996D03*
X019951Y0244D03*
X018642Y024596D03*
X018248Y022657D03*
X022313Y022106D03*
X023238Y022904D03*
X024114Y023553D03*
X024754Y02378D03*
X024665Y023012D03*
X024941Y022717D03*
X025738Y022766D03*
X026319Y023002D03*
X02753Y022844D03*
X02752Y023248D03*
X028051Y023189D03*
X028268Y022854D03*
X029114Y023415D03*
X029577Y023593D03*
X029035Y024547D03*
Y024872D03*
Y025197D03*
X028593D03*
Y024872D03*
Y024547D03*
X02812D03*
Y024872D03*
Y025197D03*
X027677D03*
Y024872D03*
X027687Y024547D03*
X02563Y024715D03*
X0256Y024321D03*
X024656Y025167D03*
X024094Y024911D03*
X023583Y025866D03*
X027067Y022293D03*
X027441Y021496D03*
X027402Y021102D03*
X027382Y020689D03*
Y020295D03*
X027776Y020098D03*
Y020492D03*
X028396Y021299D03*
X029754Y021063D03*
Y021555D03*
X030374D03*
Y021063D03*
Y020571D03*
X030994D03*
X031004Y021063D03*
X030374Y022047D03*
X029685Y022146D03*
X029754Y020571D03*
X029685Y019744D03*
X029252Y019478D03*
X028228Y019409D03*
X029213Y017913D03*
X029606D03*
X03D03*
X024567Y017648D03*
X023976Y017598D03*
X024134Y017982D03*
X023435Y017008D03*
X022776Y017215D03*
X022185Y017303D03*
X021201Y017392D03*
X021319Y017992D03*
X02126Y018642D03*
X019892Y01748D03*
X019459Y017461D03*
X019843Y017067D03*
X019951Y016309D03*
X022185Y016073D03*
X025069Y016033D03*
X015945Y0169D03*
X01497Y017008D03*
X014567Y016949D03*
X014951Y016289D03*
X013228Y015984D03*
X012717Y016654D03*
X012972Y016949D03*
X013238Y018593D03*
X013268Y019016D03*
X013228Y019409D03*
X013209Y019813D03*
X012421Y020551D03*
X011732Y020728D03*
X01123Y020738D03*
X010197Y020945D03*
Y021929D03*
Y022913D03*
Y023898D03*
Y024882D03*
Y025866D03*
X011181D03*
X012165D03*
X01315D03*
X014134D03*
X015118D03*
X013356Y023848D03*
X012894D03*
X012815Y023356D03*
X013258Y023396D03*
X012618Y024252D03*
X012146Y022018D03*
X011407D03*
X01315Y02189D03*
X01374D03*
X013445Y021594D03*
X014951Y02122D03*
X014596Y020817D03*
X014783Y020266D03*
X014774Y019646D03*
Y019163D03*
X014784Y018799D03*
X014823Y018396D03*
X010197Y017992D03*
Y017008D03*
Y016024D03*
X011122Y015758D03*
X010197Y018976D03*
Y019961D03*
G54D9501*
X031453Y018898D03*
X030453D03*
X029453D03*
X028453D03*
X027453D03*
X026453D03*
X025453D03*
X024453D03*
G54D9502*
X012642Y006935D03*
X013142D03*
X013642D03*
X014142D03*
X014642D03*
Y007435D03*
X014142D03*
X013642D03*
X013142D03*
X012642D03*
G54D9503*
X012303Y02378D03*
X014035D03*
G54D9504*
X019028Y007323D03*
X020028D03*
G54D9505*
X033169Y021693D03*
Y024409D03*
X031004D03*
Y021693D03*
G54D9506*
X022244Y007283D03*
X033661D03*
Y018898D03*
X022244D03*
G54D9507*
X010984Y007047D03*
Y01937D03*
M02*