M48
;Layer_Color=9474304
;FILE_FORMAT=2:4
INCH,LZ
;TYPE=PLATED
T1F00S00C0.0100
T2F00S00C0.0250
T3F00S00C0.0256
T4F00S00C0.0354
T5F00S00C0.0394
T6F00S00C0.0551
T7F00S00C0.1000
T8F00S00C0.1142
%
T01
X010197Y00626
Y007205
Y00815
Y009134
Y010118
Y011102
Y012087
Y013071
X01063Y013337
X010906Y012953
X010197Y014055
Y015039
X013238Y014227
X013179Y012461
X013415Y012156
X013809Y012047
X012549Y012087
X01251Y01252
X014488Y012953
X014419Y013278
X015157Y013189
X015177Y013593
X014803Y012638
X015551Y012087
X015433Y010364
X015069Y008878
X014311Y008701
X014488Y008327
X01376Y009065
X012894Y009409
X01188Y009537
X011919Y010069
X010915Y009557
X01185Y007805
X012441Y00813
X012283Y00626
X01126
X013327
X01437
X015423
X016457
X017559
X018543
X019528
X020512
X021398
X022283
X023327
X023986Y006585
X02437Y00626
X024488Y006919
X025157Y0075
X025413Y00626
X026457
X02751
X028543
X029596
X03063
X030226Y007126
X030463Y008711
X029385Y008293
X029636Y009518
X030344Y010118
X030935Y010118
Y010748
X030344
X028819Y010295
X028661Y011348
Y011762
Y012175
Y012569
Y013002
X028248Y013012
X027835
Y011348
X028248
X027913Y009369
X027441Y009369
Y008818
X027913
Y008267
X027441
X027441Y007716
X027913
X02688Y007224
X024941Y009281
X024961Y010728
Y011181
Y011673
X025453Y010738
X025945
X026526Y012283
X026348Y013455
X025354Y013583
X024823Y013175
X024409Y013858
X023396Y013947
X023976Y015079
X023602Y01562
X022018Y014852
X02063Y014478
X021073Y013691
X02062Y012854
X019449Y01312
X019006Y013081
X018593Y013494
X019183Y01374
X019134Y014163
X0194Y015591
X017106Y015522
X017264Y015157
X017254Y014715
X017156Y013868
X016604Y013524
X016043Y013189
X015974Y012333
X017283Y012421
X017638Y011811
X018691Y012372
X019331Y01252
X01937Y010689
X019734Y010197
X019173Y009518
X020571Y009567
X020896Y011063
X022579Y011171
X022657Y012726
X023848Y010778
X023858Y010148
X023691Y008573
X022313Y008553
X018691Y008051
X01747Y010226
X016821
X016142Y010413
X01626Y010758
X016348Y014833
X015728Y014656
X015827Y015463
X026841Y015246
X027235Y015247
X029045Y014203
X030079Y013002
X030354Y015394
X030935Y015384
X031329
X031722
X031644Y014567
X032037
Y014173
Y01378
X03252Y013346
X032726Y012904
X033071Y012451
X033248Y01125
X032707Y010748
X032116
X031526
Y010118
X032116Y010118
X032707Y010118
X033031Y009154
X033504Y008386
X032795Y007756
X032717Y00626
X031673
X033819
X034803
Y007244
Y008228
Y009213
Y010197
Y011181
Y012165
Y01315
Y014134
Y015118
X03125Y014567
X031713Y012864
X031289Y012185
X03128Y008691
X034104Y010709
X034803Y016102
Y017087
Y018071
Y019055
Y020039
X034085Y02001
X033789Y020305
X033494Y020699
X034085
X034803Y021024
Y022008
Y022992
Y023976
Y024921
Y025866
X033858
X032913
X031929
X031614Y021063
Y020571
X031722Y015778
X030354Y015787
Y016181
X030344Y016594
X029951
X029557
X028839Y016821
X028465Y016043
X029213Y017913
X029606
X03
X029685Y019744
X029252Y019478
X028228Y019409
X027244Y01939
X0269Y019163
X026536Y019892
X026594Y020295
Y020689
Y021083
X026201
Y020689
Y020295
X025768Y020896
X025492Y021191
X024577Y022047
X023839Y022087
X023327Y021693
X023465Y020531
X024134Y020364
X023848Y019921
X02376Y018996
X022983Y019075
X022982Y019636
X022126Y019872
X021999Y020778
X02122Y020157
X020492Y02062
X019301Y020433
X019045Y019459
X019606Y018996
X01997Y019065
X019882Y018671
X01936Y01874
X018622Y018553
X018248Y018435
X018366Y017431
X019055Y017156
Y016752
X01872Y016191
X018632Y015856
X01748Y016457
X017303Y018169
X016841Y018701
X016407Y018878
X017461Y019409
X017933Y020197
X018268Y02065
X018917Y021319
X020148Y02185
X021634Y022402
X021703Y022972
Y023514
X022215Y023494
X022608Y02374
X021703Y024055
X022185Y024862
X023002Y025256
X022638Y025866
X021693
X020728
X019803
X018858
X017913
X016988
X016024
X017283Y023681
X017766Y024094
X018898Y024104
X019252Y023996
X019951Y0244
X018642Y024596
X018248Y022657
X022313Y022106
X023238Y022904
X024114Y023553
X024754Y02378
X024665Y023012
X024941Y022717
X025738Y022766
X026319Y023002
X02753Y022844
X02752Y023248
X028051Y023189
X028268Y022854
X029114Y023415
X029577Y023593
X029035Y024547
Y024872
Y025197
X028593
Y024872
Y024547
X02812
Y024872
Y025197
X027677
Y024872
X027687Y024547
X02563Y024715
X0256Y024321
X024656Y025167
X024094Y024911
X023583Y025866
X027067Y022293
X027441Y021496
X027402Y021102
X027382Y020689
Y020295
X027776Y020098
Y020492
X028396Y021299
X029754Y021063
Y021555
X030374
Y021063
Y020571
X030994
X031004Y021063
X030374Y022047
X029685Y022146
X029754Y020571
X02751Y018189
X026457Y018179
X026024Y018327
X025787Y017618
X025906Y016614
X026535Y016762
X025069Y016033
X024567Y017648
X023976Y017598
X024134Y017982
X023435Y017008
X022776Y017215
X022185Y017303
X021201Y017392
X021319Y017992
X02126Y018642
X019892Y01748
X019459Y017461
X019843Y017067
X019951Y016309
X022185Y016073
X015945Y0169
X01497Y017008
X014567Y016949
X014951Y016289
X013228Y015984
X012717Y016654
X012972Y016949
X013238Y018593
X013268Y019016
X013228Y019409
X013209Y019813
X012421Y020551
X011732Y020728
X01123Y020738
X010197Y020945
Y021929
Y022913
Y023898
Y024882
Y025866
X011181
X012165
X01315
X014134
X015118
X013356Y023848
X012894
X012815Y023356
X013258Y023396
X012618Y024252
X012146Y022018
X011407Y022018
X01315Y02189
X01374
X013445Y021594
X014951Y02122
X014596Y020817
X014783Y020266
X014774Y019646
Y019163
X014784Y018799
X014823Y018396
X010197Y017992
Y017008
Y016024
X011122Y015758
X010197Y018976
Y019961
T02
X031453Y018898
X030453
X029453
X028453
X027453
X026453
X025453
X024453
T03
X012642Y006935
X013142
X013642
X014142
X014642
Y007435
X014142
X013642
X013142
X012642
T04
X012303Y02378
X014035
T05
X019028Y007323
X020028
T06
X033169Y021693
Y024409
X031004
Y021693
T07
X022244Y007283
X033661
X033661Y018898
X022244
T08
X010984Y007047
Y01937
M30
