G04 Layer_Physical_Order=3*
G04 Layer_Color=36540*
%FSTAX24Y24*%
%MOIN*%
G70*
G01*
G75*
%ADD52C,0.0100*%
%ADD55C,0.0300*%
%ADD67C,0.0500*%
%ADD68R,0.0500X0.0500*%
%ADD69C,0.0394*%
%ADD71R,0.0866X0.0866*%
%ADD73C,0.0250*%
G36*
X030295Y024931D02*
Y02375D01*
X031722Y022323D01*
X031722D01*
X032244Y021801D01*
X032244Y021437D01*
X033819Y019862D01*
X034746D01*
X034803Y019851D01*
X034852Y01986D01*
X034902Y019834D01*
Y019626D01*
Y018283D01*
X034852Y01825D01*
X034803Y018259D01*
X034731Y018245D01*
X03467Y018204D01*
X034629Y018143D01*
X034615Y018071D01*
X034629Y017999D01*
X03467Y017937D01*
X034731Y017897D01*
X034803Y017882D01*
X034852Y017892D01*
X034902Y017859D01*
Y016315D01*
X034852Y016281D01*
X034803Y016291D01*
X034731Y016277D01*
X03467Y016236D01*
X034629Y016175D01*
X034615Y016102D01*
X034629Y01603D01*
X03467Y015969D01*
X034731Y015928D01*
X034803Y015914D01*
X034852Y015923D01*
X034902Y01589D01*
Y014346D01*
X034852Y014313D01*
X034803Y014322D01*
X034731Y014308D01*
X03467Y014267D01*
X034629Y014206D01*
X034615Y014134D01*
X034629Y014062D01*
X03467Y014D01*
X034731Y01396D01*
X034803Y013945D01*
X034852Y013955D01*
X034902Y013922D01*
Y012378D01*
X034852Y012344D01*
X034803Y012354D01*
X034731Y01234D01*
X03467Y012299D01*
X034629Y012238D01*
X034615Y012165D01*
X034629Y012093D01*
X03467Y012032D01*
X034731Y011991D01*
X034803Y011977D01*
X034852Y011986D01*
X034902Y011953D01*
Y010409D01*
X034852Y010376D01*
X034803Y010385D01*
X034731Y010371D01*
X03467Y01033D01*
X034629Y010269D01*
X034615Y010197D01*
X034629Y010125D01*
X03467Y010063D01*
X034731Y010023D01*
X034803Y010008D01*
X034852Y010018D01*
X034902Y009985D01*
Y008441D01*
X034852Y008407D01*
X034803Y008417D01*
X034731Y008403D01*
X03467Y008362D01*
X034629Y008301D01*
X034615Y008228D01*
X034629Y008156D01*
X03467Y008095D01*
X034731Y008054D01*
X034803Y00804D01*
X034852Y008049D01*
X034902Y008016D01*
Y006472D01*
X034852Y006439D01*
X034803Y006448D01*
X034731Y006434D01*
X03467Y006393D01*
X034629Y006332D01*
X034615Y00626D01*
X034624Y006211D01*
X034591Y006161D01*
X032929D01*
X032896Y006211D01*
X032905Y00626D01*
X032891Y006332D01*
X03285Y006393D01*
X032789Y006434D01*
X032717Y006448D01*
X032644Y006434D01*
X032583Y006393D01*
X032542Y006332D01*
X032528Y00626D01*
X032538Y006211D01*
X032504Y006161D01*
X030842D01*
X030809Y006211D01*
X030819Y00626D01*
X030804Y006332D01*
X030763Y006393D01*
X030702Y006434D01*
X03063Y006448D01*
X030558Y006434D01*
X030497Y006393D01*
X030456Y006332D01*
X030441Y00626D01*
X030451Y006211D01*
X030418Y006161D01*
X028756D01*
X028722Y006211D01*
X028732Y00626D01*
X028718Y006332D01*
X028677Y006393D01*
X028615Y006434D01*
X028543Y006448D01*
X028471Y006434D01*
X02841Y006393D01*
X028369Y006332D01*
X028355Y00626D01*
X028364Y006211D01*
X028331Y006161D01*
X026669D01*
X026636Y006211D01*
X026645Y00626D01*
X026631Y006332D01*
X02659Y006393D01*
X026529Y006434D01*
X026457Y006448D01*
X026408Y006439D01*
X026358Y006472D01*
Y01189D01*
X026299Y011949D01*
X02499Y013258D01*
X024956Y013309D01*
X024895Y013349D01*
X024823Y013364D01*
X024751Y013349D01*
X024717Y013327D01*
X021081D01*
X021065Y013346D01*
X02105Y013419D01*
X021022Y013462D01*
X021052Y013507D01*
X021073Y013502D01*
X021145Y013517D01*
X021206Y013558D01*
X021247Y013619D01*
X021261Y013691D01*
X021247Y013763D01*
X021206Y013824D01*
X021145Y013865D01*
X021073Y01388D01*
X021001Y013865D01*
X020939Y013824D01*
X020899Y013763D01*
X020884Y013691D01*
X020899Y013619D01*
X020927Y013576D01*
X020897Y013531D01*
X020876Y013535D01*
X020804Y013521D01*
X020743Y01348D01*
X020702Y013419D01*
X020687Y013346D01*
X020671Y013327D01*
X020187D01*
Y01497D01*
X021152Y015935D01*
Y016378D01*
Y017173D01*
X02119Y017205D01*
X021201Y017203D01*
X021273Y017217D01*
X021334Y017258D01*
X021375Y01732D01*
X021389Y017392D01*
X021375Y017464D01*
X021334Y017525D01*
X021273Y017566D01*
X021201Y01758D01*
X02119Y017578D01*
X021152Y01761D01*
Y017717D01*
X022904D01*
X023219Y018032D01*
X023916D01*
X023947Y017993D01*
X023945Y017982D01*
X02396Y01791D01*
X024Y017849D01*
X024034Y017827D01*
X024014Y017779D01*
X023976Y017787D01*
X023904Y017773D01*
X023843Y017732D01*
X023802Y017671D01*
X023788Y017598D01*
X023802Y017526D01*
X023843Y017465D01*
X023904Y017424D01*
X023976Y01741D01*
X024049Y017424D01*
X02411Y017465D01*
X024151Y017526D01*
X024153Y017537D01*
X024203Y017532D01*
Y017421D01*
X02438Y017244D01*
X024675D01*
X024961Y01753D01*
X025679Y018248D01*
X025854D01*
X02589Y018193D01*
X025951Y018153D01*
X026024Y018138D01*
X026096Y018153D01*
X026157Y018193D01*
X026194Y018248D01*
X026242D01*
X026274Y018209D01*
X026268Y018179D01*
X026282Y018107D01*
X026323Y018046D01*
X026385Y018005D01*
X026457Y017991D01*
X026529Y018005D01*
X02659Y018046D01*
X026631Y018107D01*
X026645Y018179D01*
X026639Y018209D01*
X026671Y018248D01*
X031663D01*
X031939Y018524D01*
Y019203D01*
X031713Y019429D01*
X03127D01*
X029911Y020787D01*
Y020797D01*
X028917D01*
Y022963D01*
X028698Y023182D01*
X028722Y023228D01*
X02878Y023217D01*
X028852Y023231D01*
X028913Y023272D01*
X028954Y023333D01*
X028968Y023406D01*
X028954Y023478D01*
X028913Y023539D01*
X028852Y02358D01*
X02878Y023594D01*
X028707Y02358D01*
X028646Y023539D01*
X028605Y023478D01*
X028591Y023406D01*
X028602Y023348D01*
X028556Y023324D01*
X02813Y02375D01*
X024967D01*
X024943Y02378D01*
X024928Y023852D01*
X024887Y023913D01*
X024826Y023954D01*
X024754Y023968D01*
X024682Y023954D01*
X024621Y023913D01*
X02458Y023852D01*
X024565Y02378D01*
X024541Y02375D01*
X024094D01*
X022369Y025475D01*
X022388Y025522D01*
X029705D01*
X030295Y024931D01*
D02*
G37*
G36*
X014678Y025918D02*
X012953Y024193D01*
X012854Y024094D01*
X012559D01*
X012439Y023974D01*
X012396Y024003D01*
X012303Y024021D01*
X012211Y024003D01*
X012132Y023951D01*
X01208Y023872D01*
X012061Y02378D01*
X01208Y023687D01*
X012132Y023609D01*
X012211Y023556D01*
X012303Y023538D01*
X012324Y023542D01*
X012362Y02351D01*
Y023504D01*
X012559Y023307D01*
X012636D01*
X012641Y023284D01*
X012682Y023223D01*
X012743Y023182D01*
X012815Y023168D01*
X012887Y023182D01*
X012948Y023223D01*
X012989Y023284D01*
X012994Y023307D01*
X013095D01*
X013125Y023262D01*
X013186Y023221D01*
X013258Y023207D01*
X01333Y023221D01*
X013391Y023262D01*
X013432Y023323D01*
X013447Y023396D01*
X013432Y023468D01*
X013423Y023482D01*
X013751Y02381D01*
X013795Y023786D01*
X013794Y02378D01*
X013812Y023687D01*
X013864Y023609D01*
X013943Y023556D01*
X014035Y023538D01*
X014128Y023556D01*
X014206Y023609D01*
X014259Y023687D01*
X014277Y02378D01*
X014259Y023872D01*
X014206Y023951D01*
X014128Y024003D01*
X014035Y024021D01*
X014029Y02402D01*
X014005Y024064D01*
X015413Y025472D01*
X015472Y025531D01*
X021978D01*
X023931Y023579D01*
X023926Y023553D01*
X02394Y023481D01*
X023981Y02342D01*
X024042Y023379D01*
X024114Y023365D01*
X024186Y023379D01*
X024248Y02342D01*
X024288Y023481D01*
X024293Y023504D01*
X027972D01*
X028052Y023425D01*
X028032Y023374D01*
X027979Y023363D01*
X027918Y023322D01*
X027877Y023261D01*
X027863Y023189D01*
X027877Y023117D01*
X027918Y023056D01*
X027979Y023015D01*
X028051Y023D01*
X028087Y023008D01*
X028118Y022963D01*
X028093Y022927D01*
X028079Y022854D01*
X028093Y022782D01*
X028134Y022721D01*
X028196Y02268D01*
X028268Y022666D01*
X02834Y02268D01*
X028401Y022721D01*
X028442Y022782D01*
X028456Y022854D01*
X028442Y022927D01*
X028401Y022988D01*
X02834Y023029D01*
X028268Y023043D01*
X028231Y023036D01*
X028201Y023081D01*
X028225Y023117D01*
X028236Y02317D01*
X028287Y02319D01*
X028602Y022874D01*
X02875Y022874D01*
X02875Y020846D01*
X027569Y020846D01*
X027561Y020853D01*
X027547Y020875D01*
X027411D01*
Y020925D01*
X027361D01*
Y021042D01*
X027321Y021015D01*
X027316Y021007D01*
X027266Y021002D01*
X026378Y02189D01*
X025098D01*
X024852Y021644D01*
X023495D01*
X023454Y021693D01*
X023445Y021742D01*
X023417Y021783D01*
X023377Y02181D01*
Y021693D01*
X023277D01*
Y02181D01*
X023237Y021783D01*
X023209Y021742D01*
X023199Y021693D01*
X023158Y021644D01*
X020261D01*
X020246Y021693D01*
X020247Y021694D01*
X020281Y021717D01*
X020322Y021778D01*
X020336Y02185D01*
X020322Y021923D01*
X020281Y021984D01*
X02022Y022025D01*
X020148Y022039D01*
X020075Y022025D01*
X020014Y021984D01*
X019991Y021949D01*
X01993Y02194D01*
X019715Y022156D01*
X017343D01*
X015758Y020571D01*
X014488D01*
X013622Y019705D01*
X013414D01*
X013386Y019755D01*
X013397Y019813D01*
X013383Y019885D01*
X013342Y019946D01*
X013281Y019987D01*
X013209Y020002D01*
X013136Y019987D01*
X013075Y019946D01*
X013034Y019885D01*
X01302Y019813D01*
X013034Y019741D01*
X013075Y01968D01*
X013076Y019671D01*
X012943Y019537D01*
Y018425D01*
X013051Y018317D01*
X013415D01*
X014613Y019515D01*
X01464Y019512D01*
X014701Y019471D01*
X014774Y019457D01*
X014846Y019471D01*
X014907Y019512D01*
X014948Y019573D01*
X014962Y019646D01*
X014951Y019704D01*
X014979Y019754D01*
X016033D01*
X017746Y021467D01*
X018823D01*
X018838Y021417D01*
X018827Y021409D01*
X0188Y021369D01*
X019034D01*
X019007Y021409D01*
X018996Y021417D01*
X019011Y021467D01*
X019419D01*
X02001Y020876D01*
X020207D01*
Y020049D01*
X019341Y019183D01*
Y018925D01*
X019288Y018914D01*
X019227Y018874D01*
X019186Y018812D01*
X019172Y01874D01*
X019186Y018668D01*
X019227Y018607D01*
X019288Y018566D01*
X01936Y018552D01*
X019432Y018566D01*
X019494Y018607D01*
X019534Y018668D01*
X019543Y018711D01*
X019662D01*
X019693Y018672D01*
X019693Y018671D01*
X019708Y018599D01*
X019749Y018538D01*
X01981Y018497D01*
X019882Y018483D01*
X019954Y018497D01*
X019999Y018527D01*
X020049Y018506D01*
Y017972D01*
X02001Y017933D01*
X019094D01*
X018696Y018332D01*
X018709Y018389D01*
X018755Y01842D01*
X018796Y018481D01*
X018811Y018553D01*
X018796Y018625D01*
X018755Y018687D01*
X018694Y018727D01*
X018622Y018742D01*
X01855Y018727D01*
X018489Y018687D01*
X018458Y01864D01*
X018401Y018627D01*
X0181Y018927D01*
Y0194D01*
X018455Y019754D01*
X018553Y019852D01*
Y020768D01*
X018435Y020886D01*
X01814D01*
X018046Y020792D01*
X017989Y020806D01*
X017958Y020852D01*
X017897Y020893D01*
X017825Y020907D01*
X017753Y020893D01*
X017691Y020852D01*
X017651Y020791D01*
X017636Y020719D01*
X017651Y020646D01*
X017691Y020585D01*
X017738Y020554D01*
X017751Y020497D01*
X017657Y020404D01*
Y019833D01*
X017736Y019754D01*
Y019695D01*
Y017638D01*
X018209Y017165D01*
X018465D01*
X01876Y017461D01*
X01927D01*
X019284Y017388D01*
X019325Y017327D01*
X019386Y017286D01*
X019459Y017272D01*
X019531Y017286D01*
X019592Y017327D01*
X01971Y017209D01*
X019709Y0172D01*
X019668Y017139D01*
X019654Y017067D01*
X019668Y016995D01*
X019709Y016934D01*
X019744Y01691D01*
Y016811D01*
X01938Y016447D01*
X018553D01*
X018327Y01622D01*
Y015718D01*
X018484Y015561D01*
X019193D01*
X019223Y015531D01*
X019225Y015518D01*
X019266Y015457D01*
X019321Y015421D01*
Y013931D01*
X019271Y013904D01*
X019255Y013914D01*
X019183Y013929D01*
X019111Y013914D01*
X01905Y013874D01*
X019009Y013812D01*
X018994Y01374D01*
X019009Y013668D01*
X01905Y013607D01*
X019076Y013589D01*
X019081Y013539D01*
X018681Y01314D01*
Y012717D01*
X018848Y01255D01*
X018816Y012511D01*
X018793Y012526D01*
X018763Y012546D01*
X018691Y012561D01*
X018619Y012546D01*
X018558Y012505D01*
X018517Y012444D01*
X018502Y012372D01*
X018517Y0123D01*
X018558Y012239D01*
X018619Y012198D01*
X018691Y012183D01*
X018763Y012198D01*
X018824Y012239D01*
X018865Y0123D01*
X01888Y012372D01*
X018865Y012444D01*
X01883Y012497D01*
X018869Y012529D01*
X019144Y012254D01*
X019547D01*
X020443Y01315D01*
X024639D01*
X024649Y013103D01*
X024689Y013042D01*
X024751Y013001D01*
X024823Y012987D01*
X024895Y013001D01*
X024956Y013042D01*
X025005Y013047D01*
X026161Y01189D01*
X026163Y010795D01*
X026114Y010779D01*
X026074Y010806D01*
Y010689D01*
Y010572D01*
X026114Y010599D01*
X026164Y010584D01*
X026171Y006197D01*
X026136Y006161D01*
X024582D01*
X024549Y006211D01*
X024559Y00626D01*
X024544Y006332D01*
X024503Y006393D01*
X024442Y006434D01*
X024439Y006435D01*
Y006604D01*
X024144Y0069D01*
X023848D01*
X02375Y006801D01*
X022613D01*
X022597Y006849D01*
X022643Y006884D01*
X022733Y007001D01*
X02279Y007137D01*
X022809Y007283D01*
X02279Y00743D01*
X022733Y007566D01*
X022643Y007683D01*
X022527Y007773D01*
X02239Y007829D01*
X022244Y007848D01*
X022098Y007829D01*
X021962Y007773D01*
X021845Y007683D01*
X021755Y007566D01*
X021699Y00743D01*
X021679Y007283D01*
X021699Y007137D01*
X021755Y007001D01*
X021845Y006884D01*
X021891Y006849D01*
X021875Y006801D01*
X014842D01*
X014819Y006845D01*
X014827Y006858D01*
X014832Y006885D01*
X014642D01*
Y006985D01*
X014832D01*
X014827Y007012D01*
X014784Y007077D01*
X014719Y00712D01*
X014673Y00713D01*
X014674Y00718D01*
X014709Y007185D01*
X014771Y007211D01*
X014825Y007252D01*
X014866Y007306D01*
X014892Y007368D01*
X014901Y007435D01*
X014892Y007502D01*
X014866Y007565D01*
X014825Y007618D01*
X014771Y007659D01*
X014709Y007685D01*
X014642Y007694D01*
X014575Y007685D01*
X014512Y007659D01*
X014459Y007618D01*
X014419Y007567D01*
X014392Y007563D01*
X014391D01*
X014364Y007567D01*
X014325Y007618D01*
X014271Y007659D01*
X014209Y007685D01*
X014142Y007694D01*
X014075Y007685D01*
X014012Y007659D01*
X013959Y007618D01*
X013919Y007567D01*
X013892Y007563D01*
X013891D01*
X013864Y007567D01*
X013825Y007618D01*
X013771Y007659D01*
X013709Y007685D01*
X013642Y007694D01*
X013575Y007685D01*
X013512Y007659D01*
X013459Y007618D01*
X013419Y007567D01*
X013392Y007563D01*
X013391D01*
X013364Y007567D01*
X013325Y007618D01*
X013271Y007659D01*
X013209Y007685D01*
X013142Y007694D01*
X013075Y007685D01*
X013012Y007659D01*
X012959Y007618D01*
X012919Y007567D01*
X012892Y007563D01*
X012891D01*
X012864Y007567D01*
X012825Y007618D01*
X012771Y007659D01*
X012709Y007685D01*
X012642Y007694D01*
X012575Y007685D01*
X012512Y007659D01*
X012459Y007618D01*
X012417Y007565D01*
X012391Y007502D01*
X012383Y007435D01*
X012391Y007368D01*
X012417Y007306D01*
X012459Y007252D01*
X01251Y007213D01*
X012514Y007186D01*
Y007185D01*
X01251Y007158D01*
X012459Y007118D01*
X012417Y007065D01*
X012391Y007002D01*
X012383Y006935D01*
X012389Y006884D01*
X012343Y00686D01*
X012205Y006998D01*
Y007451D01*
X012165Y00749D01*
X012019Y007636D01*
X011984Y007672D01*
X012025Y007733D01*
X012039Y007805D01*
X012025Y007877D01*
X011984Y007939D01*
X011923Y007979D01*
X01185Y007994D01*
X011778Y007979D01*
X011717Y007939D01*
X011682Y007974D01*
X010945Y008711D01*
Y009436D01*
X010964Y009439D01*
X011005Y009467D01*
X011032Y009507D01*
X010915D01*
Y009607D01*
X011032D01*
X011005Y009647D01*
X010964Y009675D01*
X010945Y009679D01*
Y011866D01*
X010978Y011873D01*
X011039Y011914D01*
X01108Y011975D01*
X011094Y012047D01*
X01108Y012119D01*
X011039Y012181D01*
X010978Y012222D01*
X010945Y012228D01*
Y012833D01*
X010954Y012835D01*
X010996Y012863D01*
X011022Y012903D01*
X010906D01*
Y013003D01*
X011022D01*
X010996Y013043D01*
X010954Y01307D01*
X010945Y013072D01*
Y013976D01*
X010714Y014202D01*
X010725Y014219D01*
X01074Y014291D01*
X010725Y014364D01*
X010685Y014425D01*
X010623Y014466D01*
X010551Y01448D01*
X010479Y014466D01*
X010458Y014452D01*
X010098Y014803D01*
Y015811D01*
X010148Y015845D01*
X010197Y015835D01*
X010269Y015849D01*
X01033Y01589D01*
X010371Y015951D01*
X010385Y016024D01*
X010371Y016096D01*
X01033Y016157D01*
X010269Y016198D01*
X010197Y016212D01*
X010148Y016203D01*
X010098Y016236D01*
Y01778D01*
X010148Y017813D01*
X010197Y017803D01*
X010269Y017818D01*
X01033Y017859D01*
X010371Y01792D01*
X010385Y017992D01*
X010371Y018064D01*
X01033Y018125D01*
X010269Y018166D01*
X010197Y018181D01*
X010148Y018171D01*
X010098Y018204D01*
Y018254D01*
Y019748D01*
X010148Y019782D01*
X010197Y019772D01*
X010269Y019786D01*
X01033Y019827D01*
X010371Y019888D01*
X010385Y019961D01*
X010371Y020033D01*
X01033Y020094D01*
X010269Y020135D01*
X010197Y020149D01*
X010148Y02014D01*
X010098Y020173D01*
Y021717D01*
X010148Y02175D01*
X010197Y021741D01*
X010269Y021755D01*
X01033Y021796D01*
X010371Y021857D01*
X010385Y021929D01*
X010371Y022001D01*
X01033Y022063D01*
X010269Y022103D01*
X010197Y022118D01*
X010148Y022108D01*
X010098Y022141D01*
Y023685D01*
X010148Y023719D01*
X010197Y023709D01*
X010269Y023723D01*
X01033Y023764D01*
X010371Y023825D01*
X010385Y023898D01*
X010371Y02397D01*
X01033Y024031D01*
X010269Y024072D01*
X010197Y024086D01*
X010148Y024077D01*
X010098Y02411D01*
Y025654D01*
X010148Y025687D01*
X010197Y025678D01*
X010269Y025692D01*
X01033Y025733D01*
X010371Y025794D01*
X010385Y025866D01*
X010376Y025915D01*
X010409Y025965D01*
X011953D01*
X011986Y025915D01*
X011977Y025866D01*
X011991Y025794D01*
X012032Y025733D01*
X012093Y025692D01*
X012165Y025678D01*
X012238Y025692D01*
X012299Y025733D01*
X01234Y025794D01*
X012354Y025866D01*
X012344Y025915D01*
X012378Y025965D01*
X013922D01*
X013955Y025915D01*
X013945Y025866D01*
X01396Y025794D01*
X014Y025733D01*
X014062Y025692D01*
X014134Y025678D01*
X014206Y025692D01*
X014267Y025733D01*
X014308Y025794D01*
X014322Y025866D01*
X014313Y025915D01*
X014346Y025965D01*
X014659D01*
X014678Y025918D01*
D02*
G37*
%LPC*%
G36*
X024989Y011131D02*
X024922D01*
X024949Y011091D01*
X024989Y011064D01*
Y011131D01*
D02*
G37*
G36*
Y011298D02*
X024949Y011271D01*
X024922Y011231D01*
X024989D01*
Y011298D01*
D02*
G37*
G36*
X025156Y011131D02*
X025089D01*
Y011064D01*
X025129Y011091D01*
X025156Y011131D01*
D02*
G37*
G36*
X033248Y011439D02*
X033176Y011424D01*
X033115Y011383D01*
X033074Y011322D01*
X033059Y01125D01*
X033074Y011178D01*
X033115Y011117D01*
X033176Y011076D01*
X033248Y011061D01*
X03332Y011076D01*
X033381Y011117D01*
X033422Y011178D01*
X033437Y01125D01*
X033422Y011322D01*
X033381Y011383D01*
X03332Y011424D01*
X033248Y011439D01*
D02*
G37*
G36*
X034154Y010826D02*
Y010759D01*
X034221D01*
X034194Y010799D01*
X034154Y010826D01*
D02*
G37*
G36*
X034054D02*
X034014Y010799D01*
X033987Y010759D01*
X034054D01*
Y010826D01*
D02*
G37*
G36*
X022579Y01136D02*
X022507Y011346D01*
X022445Y011305D01*
X022404Y011243D01*
X02239Y011171D01*
X022404Y011099D01*
X022445Y011038D01*
X022507Y010997D01*
X022579Y010983D01*
X022651Y010997D01*
X022712Y011038D01*
X022753Y011099D01*
X022767Y011171D01*
X022753Y011243D01*
X022712Y011305D01*
X022651Y011346D01*
X022579Y01136D01*
D02*
G37*
G36*
X020896Y011252D02*
X020823Y011237D01*
X020762Y011196D01*
X020721Y011135D01*
X020707Y011063D01*
X020721Y010991D01*
X020762Y01093D01*
X020823Y010889D01*
X020896Y010874D01*
X020968Y010889D01*
X021029Y01093D01*
X02107Y010991D01*
X021084Y011063D01*
X02107Y011135D01*
X021029Y011196D01*
X020968Y011237D01*
X020896Y011252D01*
D02*
G37*
G36*
X025089Y011298D02*
Y011231D01*
X025156D01*
X025129Y011271D01*
X025089Y011298D01*
D02*
G37*
G36*
Y01179D02*
Y011723D01*
X025156D01*
X025129Y011763D01*
X025089Y01179D01*
D02*
G37*
G36*
X024989D02*
X024949Y011763D01*
X024922Y011723D01*
X024989D01*
Y01179D01*
D02*
G37*
G36*
X012549Y012275D02*
X012477Y012261D01*
X012416Y01222D01*
X012375Y012159D01*
X012361Y012087D01*
X012375Y012014D01*
X012416Y011953D01*
X012477Y011912D01*
X012549Y011898D01*
X012621Y011912D01*
X012683Y011953D01*
X012723Y012014D01*
X012738Y012087D01*
X012723Y012159D01*
X012683Y01222D01*
X012621Y012261D01*
X012549Y012275D01*
D02*
G37*
G36*
X013809Y012236D02*
X013737Y012222D01*
X013676Y012181D01*
X013635Y012119D01*
X01362Y012047D01*
X013635Y011975D01*
X013676Y011914D01*
X013737Y011873D01*
X013809Y011859D01*
X013881Y011873D01*
X013942Y011914D01*
X013983Y011975D01*
X013998Y012047D01*
X013983Y012119D01*
X013942Y012181D01*
X013881Y012222D01*
X013809Y012236D01*
D02*
G37*
G36*
X024989Y011623D02*
X024922D01*
X024949Y011583D01*
X024989Y011556D01*
Y011623D01*
D02*
G37*
G36*
X028661Y012758D02*
X028589Y012743D01*
X028528Y012702D01*
X028487Y012641D01*
X028473Y012569D01*
X028487Y012497D01*
X028528Y012436D01*
X028583Y012399D01*
X028586Y012372D01*
X028583Y012345D01*
X028528Y012309D01*
X028487Y012247D01*
X028473Y012175D01*
X028487Y012103D01*
X028528Y012042D01*
X028589Y012001D01*
X028624Y011994D01*
Y011943D01*
X028589Y011936D01*
X028528Y011895D01*
X028487Y011834D01*
X028473Y011762D01*
X028487Y01169D01*
X028528Y011628D01*
X028589Y011588D01*
X028624Y011581D01*
Y01153D01*
X028589Y011523D01*
X028528Y011482D01*
X028487Y011421D01*
X02848Y011386D01*
X028429D01*
X028422Y011421D01*
X028381Y011482D01*
X02832Y011523D01*
X028248Y011537D01*
X028176Y011523D01*
X028115Y011482D01*
X028074Y011421D01*
X028059Y011348D01*
X028074Y011276D01*
X028115Y011215D01*
X028176Y011174D01*
X028248Y01116D01*
X02832Y011174D01*
X028381Y011215D01*
X028422Y011276D01*
X028429Y011311D01*
X02848D01*
X028487Y011276D01*
X028528Y011215D01*
X028589Y011174D01*
X028661Y01116D01*
X028734Y011174D01*
X028795Y011215D01*
X028836Y011276D01*
X02885Y011348D01*
X028836Y011421D01*
X028795Y011482D01*
X028734Y011523D01*
X028699Y01153D01*
Y011581D01*
X028734Y011588D01*
X028795Y011628D01*
X028836Y01169D01*
X02885Y011762D01*
X028836Y011834D01*
X028795Y011895D01*
X028734Y011936D01*
X028699Y011943D01*
Y011994D01*
X028734Y012001D01*
X028795Y012042D01*
X028836Y012103D01*
X02885Y012175D01*
X028836Y012247D01*
X028795Y012309D01*
X02874Y012345D01*
X028737Y012372D01*
X02874Y012399D01*
X028795Y012436D01*
X028836Y012497D01*
X02885Y012569D01*
X028836Y012641D01*
X028795Y012702D01*
X028734Y012743D01*
X028661Y012758D01*
D02*
G37*
G36*
X017707Y011941D02*
X017635Y011926D01*
X017573Y011885D01*
X017532Y011824D01*
X017518Y011752D01*
X017532Y01168D01*
X017573Y011619D01*
X017635Y011578D01*
X017707Y011563D01*
X017779Y011578D01*
X01784Y011619D01*
X017881Y01168D01*
X017895Y011752D01*
X017881Y011824D01*
X01784Y011885D01*
X017779Y011926D01*
X017707Y011941D01*
D02*
G37*
G36*
X025156Y011623D02*
X025089D01*
Y011556D01*
X025129Y011583D01*
X025156Y011623D01*
D02*
G37*
G36*
X025974Y010806D02*
X025933Y010779D01*
X025907Y010739D01*
X025974D01*
Y010806D01*
D02*
G37*
G36*
X025648Y010639D02*
X025582D01*
Y010572D01*
X025622Y010599D01*
X025648Y010639D01*
D02*
G37*
G36*
X025482D02*
X025415D01*
X025441Y010599D01*
X025482Y010572D01*
Y010639D01*
D02*
G37*
G36*
X023848Y010966D02*
X023776Y010952D01*
X023715Y010911D01*
X023674Y01085D01*
X02366Y010778D01*
X023674Y010705D01*
X023715Y010644D01*
X023776Y010603D01*
X023848Y010589D01*
X023921Y010603D01*
X023982Y010644D01*
X024023Y010705D01*
X024037Y010778D01*
X024023Y01085D01*
X023982Y010911D01*
X023921Y010952D01*
X023848Y010966D01*
D02*
G37*
G36*
X025974Y010639D02*
X025907D01*
X025933Y010599D01*
X025974Y010572D01*
Y010639D01*
D02*
G37*
G36*
X025156D02*
X025089D01*
Y010572D01*
X025129Y010599D01*
X025156Y010639D01*
D02*
G37*
G36*
X01932D02*
X019253D01*
X01928Y010599D01*
X01932Y010572D01*
Y010639D01*
D02*
G37*
G36*
X032707Y010937D02*
X032635Y010922D01*
X032573Y010881D01*
X032532Y01082D01*
X032518Y010748D01*
X032532Y010676D01*
X032573Y010615D01*
X032635Y010574D01*
X032707Y010559D01*
X032779Y010574D01*
X03284Y010615D01*
X032881Y010676D01*
X032895Y010748D01*
X032881Y01082D01*
X03284Y010881D01*
X032779Y010922D01*
X032707Y010937D01*
D02*
G37*
G36*
X024989Y010639D02*
X024922D01*
X024949Y010599D01*
X024989Y010572D01*
Y010639D01*
D02*
G37*
G36*
X019487D02*
X01942D01*
Y010572D01*
X01946Y010599D01*
X019487Y010639D01*
D02*
G37*
G36*
X025089Y010806D02*
Y010739D01*
X025156D01*
X025129Y010779D01*
X025089Y010806D01*
D02*
G37*
G36*
X024989D02*
X024949Y010779D01*
X024922Y010739D01*
X024989D01*
Y010806D01*
D02*
G37*
G36*
X025582D02*
Y010739D01*
X025648D01*
X025622Y010779D01*
X025582Y010806D01*
D02*
G37*
G36*
X025482D02*
X025441Y010779D01*
X025415Y010739D01*
X025482D01*
Y010806D01*
D02*
G37*
G36*
X01942D02*
Y010739D01*
X019487D01*
X01946Y010779D01*
X01942Y010806D01*
D02*
G37*
G36*
X034221Y010659D02*
X034154D01*
Y010592D01*
X034194Y010619D01*
X034221Y010659D01*
D02*
G37*
G36*
X034054D02*
X033987D01*
X034014Y010619D01*
X034054Y010592D01*
Y010659D01*
D02*
G37*
G36*
X01932Y010806D02*
X01928Y010779D01*
X019253Y010739D01*
X01932D01*
Y010806D01*
D02*
G37*
G36*
X016142Y011055D02*
X01607Y01104D01*
X016008Y011D01*
X015967Y010938D01*
X015953Y010866D01*
X015967Y010794D01*
X016008Y010733D01*
X01607Y010692D01*
X016142Y010678D01*
X016214Y010692D01*
X016275Y010733D01*
X016316Y010794D01*
X01633Y010866D01*
X016316Y010938D01*
X016275Y011D01*
X016214Y01104D01*
X016142Y011055D01*
D02*
G37*
G36*
X016043Y013378D02*
X015971Y013363D01*
X01591Y013322D01*
X015869Y013261D01*
X015855Y013189D01*
X015869Y013117D01*
X01591Y013056D01*
X015971Y013015D01*
X016043Y013D01*
X016115Y013015D01*
X016177Y013056D01*
X016218Y013117D01*
X016232Y013189D01*
X016218Y013261D01*
X016177Y013322D01*
X016115Y013363D01*
X016043Y013378D01*
D02*
G37*
G36*
X015157D02*
X015085Y013363D01*
X015024Y013322D01*
X014983Y013261D01*
X014969Y013189D01*
X014983Y013117D01*
X015024Y013056D01*
X015085Y013015D01*
X015157Y013D01*
X01523Y013015D01*
X015291Y013056D01*
X015332Y013117D01*
X015346Y013189D01*
X015332Y013261D01*
X015291Y013322D01*
X01523Y013363D01*
X015157Y013378D01*
D02*
G37*
G36*
X03252Y013535D02*
X032448Y013521D01*
X032386Y01348D01*
X032345Y013419D01*
X032331Y013346D01*
X032345Y013274D01*
X032386Y013213D01*
X032448Y013172D01*
X03252Y013158D01*
X032592Y013172D01*
X032653Y013213D01*
X032694Y013274D01*
X032708Y013346D01*
X032694Y013419D01*
X032653Y01348D01*
X032592Y013521D01*
X03252Y013535D01*
D02*
G37*
G36*
X028248Y0132D02*
X028176Y013186D01*
X028115Y013145D01*
X028074Y013084D01*
X028067Y013049D01*
X028016D01*
X028009Y013084D01*
X027968Y013145D01*
X027907Y013186D01*
X027835Y0132D01*
X027762Y013186D01*
X027701Y013145D01*
X02766Y013084D01*
X027646Y013012D01*
X02766Y01294D01*
X027701Y012878D01*
X027762Y012838D01*
X027835Y012823D01*
X027907Y012838D01*
X027968Y012878D01*
X028009Y01294D01*
X028016Y012974D01*
X028067D01*
X028074Y01294D01*
X028115Y012878D01*
X028176Y012838D01*
X028248Y012823D01*
X02832Y012838D01*
X028381Y012878D01*
X028422Y01294D01*
X028428Y01297D01*
X028479D01*
X028487Y01293D01*
X028528Y012869D01*
X028589Y012828D01*
X028661Y012813D01*
X028734Y012828D01*
X028795Y012869D01*
X028836Y01293D01*
X02885Y013002D01*
X028836Y013074D01*
X028795Y013135D01*
X028734Y013176D01*
X028661Y013191D01*
X028589Y013176D01*
X028528Y013135D01*
X028487Y013074D01*
X028481Y013044D01*
X02843D01*
X028422Y013084D01*
X028381Y013145D01*
X02832Y013186D01*
X028248Y0132D01*
D02*
G37*
G36*
X014144Y013378D02*
X014072Y013363D01*
X01401Y013322D01*
X013969Y013261D01*
X013955Y013189D01*
X013969Y013117D01*
X01401Y013056D01*
X014072Y013015D01*
X014144Y013D01*
X014216Y013015D01*
X014277Y013056D01*
X014318Y013117D01*
X014332Y013189D01*
X014318Y013261D01*
X014277Y013322D01*
X014216Y013363D01*
X014144Y013378D01*
D02*
G37*
G36*
X030079Y013191D02*
X030007Y013176D01*
X029945Y013135D01*
X029904Y013074D01*
X02989Y013002D01*
X029904Y01293D01*
X029945Y012869D01*
X030007Y012828D01*
X030079Y012813D01*
X030151Y012828D01*
X030212Y012869D01*
X030253Y01293D01*
X030267Y013002D01*
X030253Y013074D01*
X030212Y013135D01*
X030151Y013176D01*
X030079Y013191D01*
D02*
G37*
G36*
X020737Y012804D02*
X02067D01*
Y012737D01*
X02071Y012764D01*
X020737Y012804D01*
D02*
G37*
G36*
X02067Y012971D02*
Y012904D01*
X020737D01*
X02071Y012944D01*
X02067Y012971D01*
D02*
G37*
G36*
X02057D02*
X02053Y012944D01*
X020503Y012904D01*
X02057D01*
Y012971D01*
D02*
G37*
G36*
X032224Y014204D02*
X032152Y01419D01*
X032091Y014149D01*
X03205Y014088D01*
X032036Y014016D01*
X03205Y013944D01*
X032091Y013882D01*
X032152Y013841D01*
X032224Y013827D01*
X032297Y013841D01*
X032358Y013882D01*
X032399Y013944D01*
X032413Y014016D01*
X032399Y014088D01*
X032358Y014149D01*
X032297Y01419D01*
X032224Y014204D01*
D02*
G37*
G36*
X023396Y014135D02*
X023323Y014121D01*
X023262Y01408D01*
X023221Y014019D01*
X023207Y013947D01*
X023221Y013875D01*
X023262Y013813D01*
X023323Y013773D01*
X023396Y013758D01*
X023468Y013773D01*
X023529Y013813D01*
X02357Y013875D01*
X023584Y013947D01*
X02357Y014019D01*
X023529Y01408D01*
X023468Y014121D01*
X023396Y014135D01*
D02*
G37*
G36*
X029133Y013976D02*
X029066D01*
Y013909D01*
X029106Y013935D01*
X029133Y013976D01*
D02*
G37*
G36*
X028966D02*
X028899D01*
X028926Y013935D01*
X028966Y013909D01*
Y013976D01*
D02*
G37*
G36*
X017156Y014057D02*
X017083Y014042D01*
X017022Y014001D01*
X016981Y01394D01*
X016967Y013868D01*
X016981Y013796D01*
X017022Y013735D01*
X017083Y013694D01*
X017156Y013679D01*
X017228Y013694D01*
X017289Y013735D01*
X01733Y013796D01*
X017344Y013868D01*
X01733Y01394D01*
X017289Y014001D01*
X017228Y014042D01*
X017156Y014057D01*
D02*
G37*
G36*
X018593Y013683D02*
X01852Y013668D01*
X018459Y013627D01*
X018418Y013566D01*
X018404Y013494D01*
X018418Y013422D01*
X018459Y013361D01*
X01852Y01332D01*
X018593Y013305D01*
X018665Y01332D01*
X018726Y013361D01*
X018767Y013422D01*
X018781Y013494D01*
X018767Y013566D01*
X018726Y013627D01*
X018665Y013668D01*
X018593Y013683D01*
D02*
G37*
G36*
X026348Y013643D02*
X026276Y013629D01*
X026215Y013588D01*
X026174Y013527D01*
X02616Y013455D01*
X026174Y013383D01*
X026215Y013321D01*
X026276Y01328D01*
X026348Y013266D01*
X026421Y01328D01*
X026482Y013321D01*
X026523Y013383D01*
X026537Y013455D01*
X026523Y013527D01*
X026482Y013588D01*
X026421Y013629D01*
X026348Y013643D01*
D02*
G37*
G36*
X024409Y014047D02*
X024337Y014033D01*
X024276Y013992D01*
X024235Y01393D01*
X024221Y013858D01*
X024235Y013786D01*
X024276Y013725D01*
X024337Y013684D01*
X024409Y01367D01*
X024482Y013684D01*
X024543Y013725D01*
X024584Y013786D01*
X024598Y013858D01*
X024584Y01393D01*
X024543Y013992D01*
X024482Y014033D01*
X024409Y014047D01*
D02*
G37*
G36*
X016604Y013712D02*
X016532Y013698D01*
X016471Y013657D01*
X01643Y013596D01*
X016416Y013524D01*
X01643Y013451D01*
X016471Y01339D01*
X016532Y013349D01*
X016604Y013335D01*
X016677Y013349D01*
X016738Y01339D01*
X016779Y013451D01*
X016793Y013524D01*
X016779Y013596D01*
X016738Y013657D01*
X016677Y013698D01*
X016604Y013712D01*
D02*
G37*
G36*
X015974Y012521D02*
X015902Y012507D01*
X015841Y012466D01*
X0158Y012405D01*
X015786Y012333D01*
X0158Y01226D01*
X015841Y012199D01*
X015902Y012158D01*
X015974Y012144D01*
X016047Y012158D01*
X016108Y012199D01*
X016149Y01226D01*
X016163Y012333D01*
X016149Y012405D01*
X016108Y012466D01*
X016047Y012507D01*
X015974Y012521D01*
D02*
G37*
G36*
X026526Y012472D02*
X026453Y012458D01*
X026392Y012417D01*
X026351Y012356D01*
X026337Y012283D01*
X026351Y012211D01*
X026392Y01215D01*
X026453Y012109D01*
X026526Y012095D01*
X026598Y012109D01*
X026659Y01215D01*
X0267Y012211D01*
X026714Y012283D01*
X0267Y012356D01*
X026659Y012417D01*
X026598Y012458D01*
X026526Y012472D01*
D02*
G37*
G36*
X013465Y012272D02*
Y012206D01*
X013532D01*
X013505Y012246D01*
X013465Y012272D01*
D02*
G37*
G36*
X013365D02*
X013325Y012246D01*
X013298Y012206D01*
X013365D01*
Y012272D01*
D02*
G37*
G36*
X013532Y012106D02*
X013465D01*
Y012039D01*
X013505Y012065D01*
X013532Y012106D01*
D02*
G37*
G36*
X031289Y012374D02*
X031217Y012359D01*
X031156Y012318D01*
X031115Y012257D01*
X031101Y012185D01*
X031115Y012113D01*
X031156Y012052D01*
X031217Y012011D01*
X031289Y011996D01*
X031362Y012011D01*
X031423Y012052D01*
X031464Y012113D01*
X031478Y012185D01*
X031464Y012257D01*
X031423Y012318D01*
X031362Y012359D01*
X031289Y012374D01*
D02*
G37*
G36*
X015551Y012275D02*
X015479Y012261D01*
X015418Y01222D01*
X015377Y012159D01*
X015363Y012087D01*
X015377Y012014D01*
X015418Y011953D01*
X015479Y011912D01*
X015551Y011898D01*
X015623Y011912D01*
X015685Y011953D01*
X015725Y012014D01*
X01574Y012087D01*
X015725Y012159D01*
X015685Y01222D01*
X015623Y012261D01*
X015551Y012275D01*
D02*
G37*
G36*
X013365Y012106D02*
X013298D01*
X013325Y012065D01*
X013365Y012039D01*
Y012106D01*
D02*
G37*
G36*
X014793Y012413D02*
X014721Y012399D01*
X01466Y012358D01*
X014619Y012297D01*
X014605Y012224D01*
X014619Y012152D01*
X01466Y012091D01*
X014721Y01205D01*
X014793Y012036D01*
X014865Y01205D01*
X014927Y012091D01*
X014968Y012152D01*
X014982Y012224D01*
X014968Y012297D01*
X014927Y012358D01*
X014865Y012399D01*
X014793Y012413D01*
D02*
G37*
G36*
X031713Y013053D02*
X03164Y013038D01*
X031579Y012998D01*
X031538Y012936D01*
X031524Y012864D01*
X031538Y012792D01*
X031579Y012731D01*
X03164Y01269D01*
X031713Y012676D01*
X031785Y01269D01*
X031846Y012731D01*
X031887Y012792D01*
X031901Y012864D01*
X031887Y012936D01*
X031846Y012998D01*
X031785Y013038D01*
X031713Y013053D01*
D02*
G37*
G36*
X014488Y012817D02*
X014416Y012802D01*
X014355Y012761D01*
X014314Y0127D01*
X0143Y012628D01*
X014314Y012556D01*
X014355Y012495D01*
X014416Y012454D01*
X014488Y012439D01*
X01456Y012454D01*
X014622Y012495D01*
X014662Y012556D01*
X014677Y012628D01*
X014662Y0127D01*
X014622Y012761D01*
X01456Y012802D01*
X014488Y012817D01*
D02*
G37*
G36*
X02057Y012804D02*
X020503D01*
X02053Y012764D01*
X02057Y012737D01*
Y012804D01*
D02*
G37*
G36*
X032726Y013092D02*
X032654Y013078D01*
X032593Y013037D01*
X032552Y012976D01*
X032538Y012904D01*
X032552Y012831D01*
X032593Y01277D01*
X032654Y012729D01*
X032726Y012715D01*
X032799Y012729D01*
X03286Y01277D01*
X032901Y012831D01*
X032915Y012904D01*
X032901Y012976D01*
X03286Y013037D01*
X032799Y013078D01*
X032726Y013092D01*
D02*
G37*
G36*
X033868Y012738D02*
X033796Y012723D01*
X033735Y012683D01*
X033694Y012621D01*
X033679Y012549D01*
X033694Y012477D01*
X033735Y012416D01*
X033796Y012375D01*
X033868Y012361D01*
X03394Y012375D01*
X034001Y012416D01*
X034042Y012477D01*
X034057Y012549D01*
X034042Y012621D01*
X034001Y012683D01*
X03394Y012723D01*
X033868Y012738D01*
D02*
G37*
G36*
X033071Y012639D02*
X032999Y012625D01*
X032937Y012584D01*
X032897Y012523D01*
X032882Y012451D01*
X032897Y012379D01*
X032937Y012317D01*
X032999Y012277D01*
X033071Y012262D01*
X033143Y012277D01*
X033204Y012317D01*
X033245Y012379D01*
X033259Y012451D01*
X033245Y012523D01*
X033204Y012584D01*
X033143Y012625D01*
X033071Y012639D01*
D02*
G37*
G36*
X017283Y01261D02*
X017211Y012596D01*
X01715Y012555D01*
X017109Y012493D01*
X017095Y012421D01*
X017109Y012349D01*
X01715Y012288D01*
X017211Y012247D01*
X017283Y012233D01*
X017356Y012247D01*
X017417Y012288D01*
X017458Y012349D01*
X017472Y012421D01*
X017458Y012493D01*
X017417Y012555D01*
X017356Y012596D01*
X017283Y01261D01*
D02*
G37*
G36*
X01251Y012708D02*
X012438Y012694D01*
X012376Y012653D01*
X012336Y012592D01*
X012321Y01252D01*
X012336Y012448D01*
X012376Y012386D01*
X012438Y012345D01*
X01251Y012331D01*
X012582Y012345D01*
X012643Y012386D01*
X012684Y012448D01*
X012698Y01252D01*
X012684Y012592D01*
X012643Y012653D01*
X012582Y012694D01*
X01251Y012708D01*
D02*
G37*
G36*
X013179Y012649D02*
X013107Y012635D01*
X013046Y012594D01*
X013005Y012533D01*
X012991Y012461D01*
X013005Y012388D01*
X013046Y012327D01*
X013107Y012286D01*
X013179Y012272D01*
X013251Y012286D01*
X013313Y012327D01*
X013353Y012388D01*
X013368Y012461D01*
X013353Y012533D01*
X013313Y012594D01*
X013251Y012635D01*
X013179Y012649D01*
D02*
G37*
G36*
X032116Y010937D02*
X032044Y010922D01*
X031983Y010881D01*
X031942Y01082D01*
X031928Y010748D01*
X031942Y010676D01*
X031983Y010615D01*
X032044Y010574D01*
X032116Y010559D01*
X032188Y010574D01*
X03225Y010615D01*
X03229Y010676D01*
X032305Y010748D01*
X03229Y01082D01*
X03225Y010881D01*
X032188Y010922D01*
X032116Y010937D01*
D02*
G37*
G36*
X023691Y008761D02*
X023619Y008747D01*
X023558Y008706D01*
X023517Y008645D01*
X023502Y008573D01*
X023517Y008501D01*
X023558Y008439D01*
X023619Y008399D01*
X023691Y008384D01*
X023763Y008399D01*
X023824Y008439D01*
X023865Y008501D01*
X02388Y008573D01*
X023865Y008645D01*
X023824Y008706D01*
X023763Y008747D01*
X023691Y008761D01*
D02*
G37*
G36*
X022313Y008742D02*
X022241Y008727D01*
X02218Y008687D01*
X022139Y008625D01*
X022124Y008553D01*
X022139Y008481D01*
X02218Y00842D01*
X022241Y008379D01*
X022313Y008365D01*
X022385Y008379D01*
X022446Y00842D01*
X022487Y008481D01*
X022502Y008553D01*
X022487Y008625D01*
X022446Y008687D01*
X022385Y008727D01*
X022313Y008742D01*
D02*
G37*
G36*
X03128Y00888D02*
X031207Y008865D01*
X031146Y008824D01*
X031105Y008763D01*
X031091Y008691D01*
X031105Y008619D01*
X031146Y008558D01*
X031207Y008517D01*
X03128Y008502D01*
X031352Y008517D01*
X031413Y008558D01*
X031454Y008619D01*
X031468Y008691D01*
X031454Y008763D01*
X031413Y008824D01*
X031352Y008865D01*
X03128Y00888D01*
D02*
G37*
G36*
X01748Y00883D02*
X017408Y008816D01*
X017347Y008775D01*
X017306Y008714D01*
X017292Y008642D01*
X017306Y00857D01*
X017347Y008508D01*
X017408Y008467D01*
X01748Y008453D01*
X017552Y008467D01*
X017614Y008508D01*
X017655Y00857D01*
X017669Y008642D01*
X017655Y008714D01*
X017614Y008775D01*
X017552Y008816D01*
X01748Y00883D01*
D02*
G37*
G36*
X029435Y00841D02*
Y008343D01*
X029502D01*
X029475Y008383D01*
X029435Y00841D01*
D02*
G37*
G36*
X029502Y008243D02*
X029435D01*
Y008176D01*
X029475Y008203D01*
X029502Y008243D01*
D02*
G37*
G36*
X029335D02*
X029268D01*
X029295Y008203D01*
X029335Y008176D01*
Y008243D01*
D02*
G37*
G36*
Y00841D02*
X029295Y008383D01*
X029268Y008343D01*
X029335D01*
Y00841D01*
D02*
G37*
G36*
X033504Y008574D02*
X033432Y00856D01*
X033371Y008519D01*
X03333Y008458D01*
X033315Y008386D01*
X03333Y008314D01*
X033371Y008252D01*
X033432Y008212D01*
X033504Y008197D01*
X033576Y008212D01*
X033637Y008252D01*
X033678Y008314D01*
X033693Y008386D01*
X033678Y008458D01*
X033637Y008519D01*
X033576Y00856D01*
X033504Y008574D01*
D02*
G37*
G36*
X030513Y008828D02*
Y008761D01*
X03058D01*
X030553Y008801D01*
X030513Y008828D01*
D02*
G37*
G36*
X030413D02*
X030372Y008801D01*
X030346Y008761D01*
X030413D01*
Y008828D01*
D02*
G37*
G36*
X033148Y009104D02*
X033082D01*
Y009037D01*
X033122Y009063D01*
X033148Y009104D01*
D02*
G37*
G36*
X032982D02*
X032915D01*
X032941Y009063D01*
X032982Y009037D01*
Y009104D01*
D02*
G37*
G36*
X015069Y009067D02*
X014997Y009052D01*
X014936Y009011D01*
X014895Y00895D01*
X01488Y008878D01*
X014895Y008806D01*
X014936Y008745D01*
X014997Y008704D01*
X015069Y008689D01*
X015141Y008704D01*
X015202Y008745D01*
X015243Y008806D01*
X015258Y008878D01*
X015243Y00895D01*
X015202Y009011D01*
X015141Y009052D01*
X015069Y009067D01*
D02*
G37*
G36*
X03058Y008661D02*
X030513D01*
Y008594D01*
X030553Y008621D01*
X03058Y008661D01*
D02*
G37*
G36*
X030413D02*
X030346D01*
X030372Y008621D01*
X030413Y008594D01*
Y008661D01*
D02*
G37*
G36*
X027913Y009007D02*
X027841Y008993D01*
X02778Y008952D01*
X027739Y00889D01*
X027725Y008818D01*
X027739Y008746D01*
X02778Y008685D01*
X027841Y008644D01*
X027913Y00863D01*
X027986Y008644D01*
X028047Y008685D01*
X028088Y008746D01*
X028102Y008818D01*
X028088Y00889D01*
X028047Y008952D01*
X027986Y008993D01*
X027913Y009007D01*
D02*
G37*
G36*
X027441D02*
X027369Y008993D01*
X027308Y008952D01*
X027267Y00889D01*
X027252Y008818D01*
X027267Y008746D01*
X027308Y008685D01*
X027369Y008644D01*
X027441Y00863D01*
X027513Y008644D01*
X027574Y008685D01*
X027615Y008746D01*
X02763Y008818D01*
X027615Y00889D01*
X027574Y008952D01*
X027513Y008993D01*
X027441Y009007D01*
D02*
G37*
G36*
X015906Y007354D02*
X015833Y00734D01*
X015772Y007299D01*
X015731Y007238D01*
X015717Y007165D01*
X015731Y007093D01*
X015772Y007032D01*
X015833Y006991D01*
X015906Y006977D01*
X015978Y006991D01*
X016039Y007032D01*
X01608Y007093D01*
X016094Y007165D01*
X01608Y007238D01*
X016039Y007299D01*
X015978Y00734D01*
X015906Y007354D01*
D02*
G37*
G36*
X030226Y007315D02*
X030154Y0073D01*
X030093Y007259D01*
X030052Y007198D01*
X030038Y007126D01*
X030052Y007054D01*
X030093Y006993D01*
X030154Y006952D01*
X030226Y006937D01*
X030299Y006952D01*
X03036Y006993D01*
X030401Y007054D01*
X030415Y007126D01*
X030401Y007198D01*
X03036Y007259D01*
X030299Y0073D01*
X030226Y007315D01*
D02*
G37*
G36*
X025157Y007689D02*
X025085Y007674D01*
X025024Y007633D01*
X024983Y007572D01*
X024969Y0075D01*
X024983Y007428D01*
X025024Y007367D01*
X025085Y007326D01*
X025157Y007311D01*
X02523Y007326D01*
X025291Y007367D01*
X025332Y007428D01*
X025346Y0075D01*
X025332Y007572D01*
X025291Y007633D01*
X02523Y007674D01*
X025157Y007689D01*
D02*
G37*
G36*
X02688Y007413D02*
X026808Y007399D01*
X026747Y007358D01*
X026706Y007297D01*
X026691Y007224D01*
X026706Y007152D01*
X026747Y007091D01*
X026808Y00705D01*
X02688Y007036D01*
X026952Y00705D01*
X027013Y007091D01*
X027054Y007152D01*
X027069Y007224D01*
X027054Y007297D01*
X027013Y007358D01*
X026952Y007399D01*
X02688Y007413D01*
D02*
G37*
G36*
X020028Y007711D02*
X019927Y007698D01*
X019834Y007659D01*
X019753Y007597D01*
X019691Y007517D01*
X019653Y007423D01*
X019639Y007323D01*
X019653Y007222D01*
X019691Y007129D01*
X019753Y007048D01*
X019834Y006987D01*
X019927Y006948D01*
X020028Y006935D01*
X020128Y006948D01*
X020222Y006987D01*
X020302Y007048D01*
X020364Y007129D01*
X020402Y007222D01*
X020416Y007323D01*
X020402Y007423D01*
X020364Y007517D01*
X020302Y007597D01*
X020222Y007659D01*
X020128Y007698D01*
X020028Y007711D01*
D02*
G37*
G36*
X024488Y007108D02*
X024416Y007094D01*
X024355Y007053D01*
X024314Y006991D01*
X0243Y006919D01*
X024314Y006847D01*
X024355Y006786D01*
X024416Y006745D01*
X024488Y006731D01*
X02456Y006745D01*
X024622Y006786D01*
X024662Y006847D01*
X024677Y006919D01*
X024662Y006991D01*
X024622Y007053D01*
X02456Y007094D01*
X024488Y007108D01*
D02*
G37*
G36*
X033661Y007848D02*
X033515Y007829D01*
X033379Y007773D01*
X033262Y007683D01*
X033172Y007566D01*
X033116Y00743D01*
X033097Y007283D01*
X033116Y007137D01*
X033172Y007001D01*
X033262Y006884D01*
X033379Y006794D01*
X033515Y006738D01*
X033661Y006719D01*
X033808Y006738D01*
X033944Y006794D01*
X034061Y006884D01*
X034151Y007001D01*
X034207Y007137D01*
X034226Y007283D01*
X034207Y00743D01*
X034151Y007566D01*
X034061Y007683D01*
X033944Y007773D01*
X033808Y007829D01*
X033661Y007848D01*
D02*
G37*
G36*
X019028Y007711D02*
X018927Y007698D01*
X018834Y007659D01*
X018753Y007597D01*
X018691Y007517D01*
X018653Y007423D01*
X018639Y007323D01*
X018653Y007222D01*
X018691Y007129D01*
X018753Y007048D01*
X018834Y006987D01*
X018927Y006948D01*
X019028Y006935D01*
X019128Y006948D01*
X019222Y006987D01*
X019302Y007048D01*
X019364Y007129D01*
X019402Y007222D01*
X019416Y007323D01*
X019402Y007423D01*
X019364Y007517D01*
X019302Y007597D01*
X019222Y007659D01*
X019128Y007698D01*
X019028Y007711D01*
D02*
G37*
G36*
X031289Y007236D02*
X031217Y007222D01*
X031156Y007181D01*
X031115Y007119D01*
X031101Y007047D01*
X031115Y006975D01*
X031156Y006914D01*
X031217Y006873D01*
X031289Y006859D01*
X031362Y006873D01*
X031423Y006914D01*
X031464Y006975D01*
X031478Y007047D01*
X031464Y007119D01*
X031423Y007181D01*
X031362Y007222D01*
X031289Y007236D01*
D02*
G37*
G36*
X027441Y008456D02*
X027369Y008441D01*
X027308Y0084D01*
X027267Y008339D01*
X027252Y008267D01*
X027267Y008195D01*
X027308Y008134D01*
X027369Y008093D01*
X027441Y008078D01*
X027513Y008093D01*
X027574Y008134D01*
X027615Y008195D01*
X02763Y008267D01*
X027615Y008339D01*
X027574Y0084D01*
X027513Y008441D01*
X027441Y008456D01*
D02*
G37*
G36*
X012441Y008319D02*
X012369Y008304D01*
X012308Y008263D01*
X012267Y008202D01*
X012252Y00813D01*
X012267Y008058D01*
X012308Y007997D01*
X012369Y007956D01*
X012441Y007941D01*
X012513Y007956D01*
X012574Y007997D01*
X012615Y008058D01*
X01263Y00813D01*
X012615Y008202D01*
X012574Y008263D01*
X012513Y008304D01*
X012441Y008319D01*
D02*
G37*
G36*
X014311Y008889D02*
X014239Y008875D01*
X014178Y008834D01*
X014137Y008773D01*
X014122Y008701D01*
X014137Y008629D01*
X014178Y008567D01*
X014239Y008527D01*
X014311Y008512D01*
X014356Y008521D01*
X014376Y008474D01*
X014355Y00846D01*
X014314Y008399D01*
X0143Y008327D01*
X014314Y008255D01*
X014355Y008193D01*
X014416Y008153D01*
X014488Y008138D01*
X01456Y008153D01*
X014622Y008193D01*
X014662Y008255D01*
X014677Y008327D01*
X014662Y008399D01*
X014622Y00846D01*
X01456Y008501D01*
X014488Y008515D01*
X014443Y008506D01*
X014424Y008554D01*
X014444Y008567D01*
X014485Y008629D01*
X0145Y008701D01*
X014485Y008773D01*
X014444Y008834D01*
X014383Y008875D01*
X014311Y008889D01*
D02*
G37*
G36*
X027913Y008456D02*
X027841Y008441D01*
X02778Y0084D01*
X027739Y008339D01*
X027725Y008267D01*
X027739Y008195D01*
X02778Y008134D01*
X027841Y008093D01*
X027913Y008078D01*
X027986Y008093D01*
X028047Y008134D01*
X028088Y008195D01*
X028102Y008267D01*
X028088Y008339D01*
X028047Y0084D01*
X027986Y008441D01*
X027913Y008456D01*
D02*
G37*
G36*
X018691Y00824D02*
X018619Y008225D01*
X018558Y008185D01*
X018517Y008123D01*
X018502Y008051D01*
X018517Y007979D01*
X018558Y007918D01*
X018619Y007877D01*
X018691Y007863D01*
X018763Y007877D01*
X018824Y007918D01*
X018865Y007979D01*
X01888Y008051D01*
X018865Y008123D01*
X018824Y008185D01*
X018763Y008225D01*
X018691Y00824D01*
D02*
G37*
G36*
X027441Y007905D02*
X027369Y00789D01*
X027308Y007849D01*
X027267Y007788D01*
X027252Y007716D01*
X027267Y007644D01*
X027308Y007583D01*
X027369Y007542D01*
X027441Y007527D01*
X027513Y007542D01*
X027574Y007583D01*
X027615Y007644D01*
X02763Y007716D01*
X027615Y007788D01*
X027574Y007849D01*
X027513Y00789D01*
X027441Y007905D01*
D02*
G37*
G36*
X031506Y007689D02*
X031434Y007674D01*
X031373Y007633D01*
X031332Y007572D01*
X031317Y0075D01*
X031332Y007428D01*
X031373Y007367D01*
X031434Y007326D01*
X031506Y007311D01*
X031578Y007326D01*
X031639Y007367D01*
X03168Y007428D01*
X031695Y0075D01*
X03168Y007572D01*
X031639Y007633D01*
X031578Y007674D01*
X031506Y007689D01*
D02*
G37*
G36*
X032795Y007945D02*
X032723Y00793D01*
X032662Y007889D01*
X032621Y007828D01*
X032607Y007756D01*
X032621Y007684D01*
X032662Y007623D01*
X032723Y007582D01*
X032795Y007567D01*
X032867Y007582D01*
X032929Y007623D01*
X03297Y007684D01*
X032984Y007756D01*
X03297Y007828D01*
X032929Y007889D01*
X032867Y00793D01*
X032795Y007945D01*
D02*
G37*
G36*
X027913Y007905D02*
X027841Y00789D01*
X02778Y007849D01*
X027739Y007788D01*
X027725Y007716D01*
X027739Y007644D01*
X02778Y007583D01*
X027841Y007542D01*
X027913Y007527D01*
X027986Y007542D01*
X028047Y007583D01*
X028088Y007644D01*
X028102Y007716D01*
X028088Y007788D01*
X028047Y007849D01*
X027986Y00789D01*
X027913Y007905D01*
D02*
G37*
G36*
X023808Y010265D02*
X023768Y010238D01*
X023741Y010198D01*
X023808D01*
Y010265D01*
D02*
G37*
G36*
X016938Y010176D02*
X016871D01*
Y010109D01*
X016911Y010136D01*
X016938Y010176D01*
D02*
G37*
G36*
X016142Y010602D02*
X01607Y010588D01*
X016008Y010547D01*
X015967Y010486D01*
X015953Y010413D01*
X015967Y010341D01*
X016008Y01028D01*
X01607Y010239D01*
X016142Y010225D01*
X016214Y010239D01*
X016275Y01028D01*
X016316Y010341D01*
X01633Y010413D01*
X016316Y010486D01*
X016275Y010547D01*
X016214Y010588D01*
X016142Y010602D01*
D02*
G37*
G36*
X023908Y010265D02*
Y010198D01*
X023975D01*
X023948Y010238D01*
X023908Y010265D01*
D02*
G37*
G36*
X016771Y010176D02*
X016704D01*
X016731Y010136D01*
X016771Y010109D01*
Y010176D01*
D02*
G37*
G36*
X01747Y010415D02*
X017398Y010401D01*
X017337Y01036D01*
X017296Y010299D01*
X017282Y010226D01*
X017296Y010154D01*
X017337Y010093D01*
X017398Y010052D01*
X01747Y010038D01*
X017543Y010052D01*
X017604Y010093D01*
X017645Y010154D01*
X017659Y010226D01*
X017645Y010299D01*
X017604Y01036D01*
X017543Y010401D01*
X01747Y010415D01*
D02*
G37*
G36*
X023975Y010098D02*
X023908D01*
Y010031D01*
X023948Y010058D01*
X023975Y010098D01*
D02*
G37*
G36*
X028819Y010484D02*
X028747Y01047D01*
X028686Y010429D01*
X028645Y010367D01*
X02863Y010295D01*
X028645Y010223D01*
X028686Y010162D01*
X028747Y010121D01*
X028819Y010107D01*
X028891Y010121D01*
X028952Y010162D01*
X028993Y010223D01*
X029008Y010295D01*
X028993Y010367D01*
X028952Y010429D01*
X028891Y01047D01*
X028819Y010484D01*
D02*
G37*
G36*
X034154Y010464D02*
X034081Y01045D01*
X03402Y010409D01*
X033979Y010348D01*
X033965Y010276D01*
X033979Y010203D01*
X03402Y010142D01*
X034081Y010101D01*
X034154Y010087D01*
X034226Y010101D01*
X034287Y010142D01*
X034328Y010203D01*
X034342Y010276D01*
X034328Y010348D01*
X034287Y010409D01*
X034226Y01045D01*
X034154Y010464D01*
D02*
G37*
G36*
X030344Y010937D02*
X030272Y010922D01*
X030211Y010881D01*
X03017Y01082D01*
X030156Y010748D01*
X03017Y010676D01*
X030211Y010615D01*
X030272Y010574D01*
X030344Y010559D01*
X030417Y010574D01*
X030478Y010615D01*
X030519Y010676D01*
X030533Y010748D01*
X030519Y01082D01*
X030478Y010881D01*
X030417Y010922D01*
X030344Y010937D01*
D02*
G37*
G36*
X015483Y010481D02*
Y010414D01*
X01555D01*
X015523Y010454D01*
X015483Y010481D01*
D02*
G37*
G36*
X031526Y010937D02*
X031453Y010922D01*
X031392Y010881D01*
X031351Y01082D01*
X031337Y010748D01*
X031351Y010676D01*
X031392Y010615D01*
X031453Y010574D01*
X031526Y010559D01*
X031598Y010574D01*
X031659Y010615D01*
X0317Y010676D01*
X031714Y010748D01*
X0317Y01082D01*
X031659Y010881D01*
X031598Y010922D01*
X031526Y010937D01*
D02*
G37*
G36*
X030935D02*
X030863Y010922D01*
X030802Y010881D01*
X030761Y01082D01*
X030746Y010748D01*
X030761Y010676D01*
X030802Y010615D01*
X030863Y010574D01*
X030935Y010559D01*
X031007Y010574D01*
X031068Y010615D01*
X031109Y010676D01*
X031124Y010748D01*
X031109Y01082D01*
X031068Y010881D01*
X031007Y010922D01*
X030935Y010937D01*
D02*
G37*
G36*
X015383Y010481D02*
X015343Y010454D01*
X015316Y010414D01*
X015383D01*
Y010481D01*
D02*
G37*
G36*
X01555Y010314D02*
X015483D01*
Y010247D01*
X015523Y010274D01*
X01555Y010314D01*
D02*
G37*
G36*
X015383D02*
X015316D01*
X015343Y010274D01*
X015383Y010247D01*
Y010314D01*
D02*
G37*
G36*
X016871Y010343D02*
Y010276D01*
X016938D01*
X016911Y010316D01*
X016871Y010343D01*
D02*
G37*
G36*
X016771D02*
X016731Y010316D01*
X016704Y010276D01*
X016771D01*
Y010343D01*
D02*
G37*
G36*
X019173Y009706D02*
X019101Y009692D01*
X01904Y009651D01*
X018999Y00959D01*
X018985Y009518D01*
X018999Y009446D01*
X01904Y009384D01*
X019101Y009343D01*
X019173Y009329D01*
X019245Y009343D01*
X019307Y009384D01*
X019347Y009446D01*
X019362Y009518D01*
X019347Y00959D01*
X019307Y009651D01*
X019245Y009692D01*
X019173Y009706D01*
D02*
G37*
G36*
X033082Y00927D02*
Y009204D01*
X033148D01*
X033122Y009244D01*
X033082Y00927D01*
D02*
G37*
G36*
X01188Y009726D02*
X011808Y009712D01*
X011747Y009671D01*
X011706Y00961D01*
X011691Y009537D01*
X011706Y009465D01*
X011747Y009404D01*
X011808Y009363D01*
X01188Y009349D01*
X011952Y009363D01*
X012013Y009404D01*
X012054Y009465D01*
X012069Y009537D01*
X012054Y00961D01*
X012013Y009671D01*
X011952Y009712D01*
X01188Y009726D01*
D02*
G37*
G36*
X029636Y009706D02*
X029564Y009692D01*
X029502Y009651D01*
X029462Y00959D01*
X029447Y009518D01*
X029462Y009446D01*
X029502Y009384D01*
X029564Y009343D01*
X029636Y009329D01*
X029708Y009343D01*
X029769Y009384D01*
X02981Y009446D01*
X029824Y009518D01*
X02981Y00959D01*
X029769Y009651D01*
X029708Y009692D01*
X029636Y009706D01*
D02*
G37*
G36*
X032982Y00927D02*
X032941Y009244D01*
X032915Y009204D01*
X032982D01*
Y00927D01*
D02*
G37*
G36*
X024941Y00947D02*
X024869Y009456D01*
X024808Y009415D01*
X024767Y009354D01*
X024752Y009281D01*
X024767Y009209D01*
X024808Y009148D01*
X024869Y009107D01*
X024941Y009093D01*
X025013Y009107D01*
X025074Y009148D01*
X025115Y009209D01*
X02513Y009281D01*
X025115Y009354D01*
X025074Y009415D01*
X025013Y009456D01*
X024941Y00947D01*
D02*
G37*
G36*
X012953Y00945D02*
X012881Y009436D01*
X012819Y009395D01*
X012778Y009334D01*
X012764Y009262D01*
X012778Y00919D01*
X012819Y009128D01*
X012881Y009088D01*
X012953Y009073D01*
X013025Y009088D01*
X013086Y009128D01*
X013127Y00919D01*
X013141Y009262D01*
X013127Y009334D01*
X013086Y009395D01*
X013025Y009436D01*
X012953Y00945D01*
D02*
G37*
G36*
X027441Y009558D02*
X027369Y009544D01*
X027308Y009503D01*
X027267Y009442D01*
X027252Y009369D01*
X027267Y009297D01*
X027308Y009236D01*
X027369Y009195D01*
X027441Y009181D01*
X027513Y009195D01*
X027574Y009236D01*
X027615Y009297D01*
X02763Y009369D01*
X027615Y009442D01*
X027574Y009503D01*
X027513Y009544D01*
X027441Y009558D01*
D02*
G37*
G36*
X027913Y009558D02*
X027841Y009544D01*
X02778Y009503D01*
X027739Y009442D01*
X027725Y009369D01*
X027739Y009297D01*
X02778Y009236D01*
X027841Y009195D01*
X027913Y009181D01*
X027986Y009195D01*
X028047Y009236D01*
X028088Y009297D01*
X028102Y009369D01*
X028088Y009442D01*
X028047Y009503D01*
X027986Y009544D01*
X027913Y009558D01*
D02*
G37*
G36*
X032116Y010307D02*
X032044Y010292D01*
X031983Y010251D01*
X031942Y01019D01*
X031928Y010118D01*
X031942Y010046D01*
X031983Y009985D01*
X032044Y009944D01*
X032116Y009929D01*
X032188Y009944D01*
X03225Y009985D01*
X03229Y010046D01*
X032305Y010118D01*
X03229Y01019D01*
X03225Y010251D01*
X032188Y010292D01*
X032116Y010307D01*
D02*
G37*
G36*
X030935D02*
X030863Y010292D01*
X030802Y010251D01*
X030761Y01019D01*
X030746Y010118D01*
X030761Y010046D01*
X030802Y009985D01*
X030863Y009944D01*
X030935Y009929D01*
X031007Y009944D01*
X031068Y009985D01*
X031109Y010046D01*
X031124Y010118D01*
X031109Y01019D01*
X031068Y010251D01*
X031007Y010292D01*
X030935Y010307D01*
D02*
G37*
G36*
X023808Y010098D02*
X023741D01*
X023768Y010058D01*
X023808Y010031D01*
Y010098D01*
D02*
G37*
G36*
X019734Y010385D02*
X019662Y010371D01*
X019601Y01033D01*
X01956Y010269D01*
X019546Y010197D01*
X01956Y010125D01*
X019601Y010063D01*
X019662Y010023D01*
X019734Y010008D01*
X019806Y010023D01*
X019868Y010063D01*
X019909Y010125D01*
X019923Y010197D01*
X019909Y010269D01*
X019868Y01033D01*
X019806Y010371D01*
X019734Y010385D01*
D02*
G37*
G36*
X032707Y010307D02*
X032635Y010292D01*
X032573Y010251D01*
X032532Y01019D01*
X032518Y010118D01*
X032532Y010046D01*
X032573Y009985D01*
X032635Y009944D01*
X032707Y009929D01*
X032779Y009944D01*
X03284Y009985D01*
X032881Y010046D01*
X032895Y010118D01*
X032881Y01019D01*
X03284Y010251D01*
X032779Y010292D01*
X032707Y010307D01*
D02*
G37*
G36*
X011919Y010258D02*
X011847Y010243D01*
X011786Y010202D01*
X011745Y010141D01*
X011731Y010069D01*
X011745Y009997D01*
X011786Y009936D01*
X011847Y009895D01*
X011919Y00988D01*
X011991Y009895D01*
X012053Y009936D01*
X012094Y009997D01*
X012108Y010069D01*
X012094Y010141D01*
X012053Y010202D01*
X011991Y010243D01*
X011919Y010258D01*
D02*
G37*
G36*
X020571Y009756D02*
X020499Y009741D01*
X020437Y0097D01*
X020397Y009639D01*
X020382Y009567D01*
X020397Y009495D01*
X020437Y009434D01*
X020499Y009393D01*
X020571Y009378D01*
X020643Y009393D01*
X020704Y009434D01*
X020745Y009495D01*
X020759Y009567D01*
X020745Y009639D01*
X020704Y0097D01*
X020643Y009741D01*
X020571Y009756D01*
D02*
G37*
G36*
X031526Y010307D02*
X031453Y010292D01*
X031392Y010251D01*
X031351Y01019D01*
X031337Y010118D01*
X031351Y010046D01*
X031392Y009985D01*
X031453Y009944D01*
X031526Y009929D01*
X031598Y009944D01*
X031659Y009985D01*
X0317Y010046D01*
X031714Y010118D01*
X0317Y01019D01*
X031659Y010251D01*
X031598Y010292D01*
X031526Y010307D01*
D02*
G37*
G36*
X030344D02*
X030272Y010292D01*
X030211Y010251D01*
X03017Y01019D01*
X030156Y010118D01*
X03017Y010046D01*
X030211Y009985D01*
X030272Y009944D01*
X030344Y009929D01*
X030417Y009944D01*
X030478Y009985D01*
X030519Y010046D01*
X030533Y010118D01*
X030519Y01019D01*
X030478Y010251D01*
X030417Y010292D01*
X030344Y010307D01*
D02*
G37*
G36*
X019084Y014113D02*
X019017D01*
X019044Y014073D01*
X019084Y014046D01*
Y014113D01*
D02*
G37*
G36*
X011014Y022216D02*
X010942Y022202D01*
X01088Y022161D01*
X01084Y0221D01*
X010825Y022028D01*
X01084Y021955D01*
X01088Y021894D01*
X010942Y021853D01*
X011014Y021839D01*
X011086Y021853D01*
X011147Y021894D01*
X011182Y021946D01*
X011224Y021946D01*
X011235Y021943D01*
X011274Y021884D01*
X011335Y021843D01*
X011407Y021829D01*
X01148Y021843D01*
X011541Y021884D01*
X011582Y021946D01*
X011596Y022018D01*
X011582Y02209D01*
X011541Y022151D01*
X01148Y022192D01*
X011407Y022206D01*
X011335Y022192D01*
X011274Y022151D01*
X011239Y022099D01*
X011198Y0221D01*
X011186Y022103D01*
X011147Y022161D01*
X011086Y022202D01*
X011014Y022216D01*
D02*
G37*
G36*
X012146Y022206D02*
X012073Y022192D01*
X012012Y022151D01*
X011971Y02209D01*
X011957Y022018D01*
X011971Y021946D01*
X012012Y021884D01*
X012073Y021843D01*
X012146Y021829D01*
X012218Y021843D01*
X012279Y021884D01*
X01232Y021946D01*
X012334Y022018D01*
X01232Y02209D01*
X012279Y022151D01*
X012218Y022192D01*
X012146Y022206D01*
D02*
G37*
G36*
X023839Y022275D02*
X023766Y022261D01*
X023705Y02222D01*
X023664Y022159D01*
X02365Y022087D01*
X023664Y022014D01*
X023705Y021953D01*
X023766Y021912D01*
X023839Y021898D01*
X023911Y021912D01*
X023972Y021953D01*
X024013Y022014D01*
X024027Y022087D01*
X024013Y022159D01*
X023972Y02222D01*
X023911Y022261D01*
X023839Y022275D01*
D02*
G37*
G36*
X024577Y022236D02*
X024505Y022222D01*
X024443Y022181D01*
X024403Y022119D01*
X024388Y022047D01*
X024403Y021975D01*
X024443Y021914D01*
X024505Y021873D01*
X024577Y021859D01*
X024649Y021873D01*
X02471Y021914D01*
X024751Y021975D01*
X024765Y022047D01*
X024751Y022119D01*
X02471Y022181D01*
X024649Y022222D01*
X024577Y022236D01*
D02*
G37*
G36*
X01374Y022078D02*
X013668Y022064D01*
X013607Y022023D01*
X013566Y021962D01*
X013552Y02189D01*
X013566Y021818D01*
X013592Y021779D01*
X013556Y021743D01*
X013517Y021769D01*
X013445Y021783D01*
X013373Y021769D01*
X013334Y021743D01*
X013298Y021779D01*
X013324Y021818D01*
X013338Y02189D01*
X013324Y021962D01*
X013283Y022023D01*
X013222Y022064D01*
X01315Y022078D01*
X013077Y022064D01*
X013016Y022023D01*
X012975Y021962D01*
X012961Y02189D01*
X012975Y021818D01*
X013016Y021756D01*
X013077Y021716D01*
X01315Y021701D01*
X013222Y021716D01*
X01326Y021741D01*
X013296Y021705D01*
X013271Y021667D01*
X013256Y021594D01*
X013271Y021522D01*
X013312Y021461D01*
X013373Y02142D01*
X013445Y021406D01*
X013517Y02142D01*
X013578Y021461D01*
X013619Y021522D01*
X013634Y021594D01*
X013619Y021667D01*
X013593Y021705D01*
X013629Y021741D01*
X013668Y021716D01*
X01374Y021701D01*
X013812Y021716D01*
X013874Y021756D01*
X013914Y021818D01*
X013929Y02189D01*
X013914Y021962D01*
X013874Y022023D01*
X013812Y022064D01*
X01374Y022078D01*
D02*
G37*
G36*
X031437Y021643D02*
X031054D01*
Y02126D01*
X031437D01*
Y021643D01*
D02*
G37*
G36*
X030954D02*
X030571D01*
Y02126D01*
Y02126D01*
X030954D01*
Y021643D01*
D02*
G37*
G36*
X031437Y022126D02*
X031054D01*
Y021743D01*
X031437D01*
Y021912D01*
Y022126D01*
D02*
G37*
G36*
X030954D02*
X030571D01*
Y021743D01*
X030954D01*
Y022126D01*
D02*
G37*
G36*
X025738Y022954D02*
X025666Y02294D01*
X025605Y022899D01*
X025564Y022838D01*
X02555Y022766D01*
X025564Y022694D01*
X025605Y022632D01*
X025666Y022591D01*
X025738Y022577D01*
X02581Y022591D01*
X025872Y022632D01*
X025912Y022694D01*
X025927Y022766D01*
X025912Y022838D01*
X025872Y022899D01*
X02581Y02294D01*
X025738Y022954D01*
D02*
G37*
G36*
X018248Y022846D02*
X018176Y022832D01*
X018115Y022791D01*
X018074Y02273D01*
X018059Y022657D01*
X018074Y022585D01*
X018115Y022524D01*
X018176Y022483D01*
X018248Y022469D01*
X01832Y022483D01*
X018381Y022524D01*
X018422Y022585D01*
X018437Y022657D01*
X018422Y02273D01*
X018381Y022791D01*
X01832Y022832D01*
X018248Y022846D01*
D02*
G37*
G36*
X02753Y023033D02*
X027457Y023019D01*
X027396Y022978D01*
X027355Y022917D01*
X027341Y022844D01*
X027355Y022772D01*
X027396Y022711D01*
X027457Y02267D01*
X02753Y022656D01*
X027602Y02267D01*
X027663Y022711D01*
X027704Y022772D01*
X027718Y022844D01*
X027704Y022917D01*
X027663Y022978D01*
X027602Y023019D01*
X02753Y023033D01*
D02*
G37*
G36*
X015404Y022984D02*
X015331Y02297D01*
X01527Y022929D01*
X015229Y022867D01*
X015215Y022795D01*
X015229Y022723D01*
X01527Y022662D01*
X015331Y022621D01*
X015404Y022607D01*
X015476Y022621D01*
X015537Y022662D01*
X015578Y022723D01*
X015592Y022795D01*
X015578Y022867D01*
X015537Y022929D01*
X015476Y02297D01*
X015404Y022984D01*
D02*
G37*
G36*
X017421Y022679D02*
X017349Y022664D01*
X017288Y022624D01*
X017247Y022562D01*
X017233Y02249D01*
X017247Y022418D01*
X017288Y022357D01*
X017349Y022316D01*
X017421Y022302D01*
X017493Y022316D01*
X017555Y022357D01*
X017596Y022418D01*
X01761Y02249D01*
X017596Y022562D01*
X017555Y022624D01*
X017493Y022664D01*
X017421Y022679D01*
D02*
G37*
G36*
X029685Y022334D02*
X029613Y02232D01*
X029552Y022279D01*
X029511Y022218D01*
X029496Y022146D01*
X029511Y022073D01*
X029552Y022012D01*
X029613Y021971D01*
X029685Y021957D01*
X029757Y021971D01*
X029818Y022012D01*
X029859Y022073D01*
X029874Y022146D01*
X029859Y022218D01*
X029818Y022279D01*
X029757Y02232D01*
X029685Y022334D01*
D02*
G37*
G36*
X022313Y022295D02*
X022241Y022281D01*
X02218Y02224D01*
X022139Y022178D01*
X022124Y022106D01*
X022139Y022034D01*
X02218Y021973D01*
X022241Y021932D01*
X022313Y021918D01*
X022385Y021932D01*
X022446Y021973D01*
X022487Y022034D01*
X022502Y022106D01*
X022487Y022178D01*
X022446Y02224D01*
X022385Y022281D01*
X022313Y022295D01*
D02*
G37*
G36*
X021634Y02259D02*
X021562Y022576D01*
X0215Y022535D01*
X02146Y022474D01*
X021445Y022402D01*
X02146Y022329D01*
X0215Y022268D01*
X021562Y022227D01*
X021634Y022213D01*
X021706Y022227D01*
X021767Y022268D01*
X021808Y022329D01*
X021822Y022402D01*
X021808Y022474D01*
X021767Y022535D01*
X021706Y022576D01*
X021634Y02259D01*
D02*
G37*
G36*
X027067Y022482D02*
X026995Y022468D01*
X026934Y022427D01*
X026893Y022365D01*
X026878Y022293D01*
X026893Y022221D01*
X026934Y02216D01*
X026995Y022119D01*
X027067Y022105D01*
X027139Y022119D01*
X0272Y02216D01*
X027241Y022221D01*
X027256Y022293D01*
X027241Y022365D01*
X0272Y022427D01*
X027139Y022468D01*
X027067Y022482D01*
D02*
G37*
G36*
X019095Y019576D02*
Y019509D01*
X019162D01*
X019135Y019549D01*
X019095Y019576D01*
D02*
G37*
G36*
X018995D02*
X018955Y019549D01*
X018928Y019509D01*
X018995D01*
Y019576D01*
D02*
G37*
G36*
X012421Y02074D02*
X012349Y020725D01*
X012288Y020685D01*
X012247Y020623D01*
X012233Y020551D01*
X012247Y020479D01*
X012288Y020418D01*
X012349Y020377D01*
X012421Y020363D01*
X012493Y020377D01*
X012555Y020418D01*
X012596Y020479D01*
X01261Y020551D01*
X012596Y020623D01*
X012555Y020685D01*
X012493Y020725D01*
X012421Y02074D01*
D02*
G37*
G36*
X019301Y020622D02*
X019229Y020607D01*
X019168Y020566D01*
X019127Y020505D01*
X019113Y020433D01*
X019127Y020361D01*
X019168Y0203D01*
X019229Y020259D01*
X019301Y020244D01*
X019373Y020259D01*
X019435Y0203D01*
X019475Y020361D01*
X01949Y020433D01*
X019475Y020505D01*
X019435Y020566D01*
X019373Y020607D01*
X019301Y020622D01*
D02*
G37*
G36*
X019162Y019409D02*
X019095D01*
Y019342D01*
X019135Y019369D01*
X019162Y019409D01*
D02*
G37*
G36*
X010984Y020004D02*
X010861Y019992D01*
X010742Y019956D01*
X010632Y019897D01*
X010536Y019818D01*
X010457Y019722D01*
X010399Y019613D01*
X010363Y019494D01*
X01035Y01937D01*
X010363Y019246D01*
X010399Y019127D01*
X010457Y019018D01*
X010536Y018922D01*
X010632Y018843D01*
X010742Y018784D01*
X010861Y018748D01*
X010984Y018736D01*
X011108Y018748D01*
X011227Y018784D01*
X011336Y018843D01*
X011432Y018922D01*
X011511Y019018D01*
X01157Y019127D01*
X011606Y019246D01*
X011618Y01937D01*
X011606Y019494D01*
X01157Y019613D01*
X011511Y019722D01*
X011432Y019818D01*
X011336Y019897D01*
X011227Y019956D01*
X011108Y019992D01*
X010984Y020004D01*
D02*
G37*
G36*
X016407Y019067D02*
X016335Y019052D01*
X016274Y019011D01*
X016233Y01895D01*
X016219Y018878D01*
X016233Y018806D01*
X016274Y018745D01*
X016335Y018704D01*
X016407Y018689D01*
X01648Y018704D01*
X016541Y018745D01*
X016582Y018806D01*
X016596Y018878D01*
X016582Y01895D01*
X016541Y019011D01*
X01648Y019052D01*
X016407Y019067D01*
D02*
G37*
G36*
X018995Y019409D02*
X018928D01*
X018955Y019369D01*
X018995Y019342D01*
Y019409D01*
D02*
G37*
G36*
X017461Y019598D02*
X017388Y019584D01*
X017327Y019543D01*
X017286Y019482D01*
X017272Y019409D01*
X017286Y019337D01*
X017327Y019276D01*
X017388Y019235D01*
X017461Y019221D01*
X017533Y019235D01*
X017594Y019276D01*
X017635Y019337D01*
X017649Y019409D01*
X017635Y019482D01*
X017594Y019543D01*
X017533Y019584D01*
X017461Y019598D01*
D02*
G37*
G36*
X027461Y021508D02*
X027388Y021493D01*
X027327Y021452D01*
X027286Y021391D01*
X027272Y021319D01*
X027286Y021247D01*
X027327Y021186D01*
X027388Y021145D01*
X027461Y02113D01*
X027533Y021145D01*
X027594Y021186D01*
X027635Y021247D01*
X027649Y021319D01*
X027635Y021391D01*
X027594Y021452D01*
X027533Y021493D01*
X027461Y021508D01*
D02*
G37*
G36*
X028396Y021488D02*
X028323Y021473D01*
X028262Y021433D01*
X028221Y021371D01*
X028207Y021299D01*
X028221Y021227D01*
X028262Y021166D01*
X028323Y021125D01*
X028396Y021111D01*
X028468Y021125D01*
X028529Y021166D01*
X02857Y021227D01*
X028584Y021299D01*
X02857Y021371D01*
X028529Y021433D01*
X028468Y021473D01*
X028396Y021488D01*
D02*
G37*
G36*
X019034Y021269D02*
X018967D01*
Y021202D01*
X019007Y021229D01*
X019034Y021269D01*
D02*
G37*
G36*
X018867D02*
X0188D01*
X018827Y021229D01*
X018867Y021202D01*
Y021269D01*
D02*
G37*
G36*
X014951Y021409D02*
X014879Y021395D01*
X014817Y021354D01*
X014777Y021293D01*
X014762Y02122D01*
X014777Y021148D01*
X014817Y021087D01*
X014879Y021046D01*
X014951Y021032D01*
X015023Y021046D01*
X015084Y021087D01*
X015125Y021148D01*
X015139Y02122D01*
X015125Y021293D01*
X015084Y021354D01*
X015023Y021395D01*
X014951Y021409D01*
D02*
G37*
G36*
X014596Y021006D02*
X014524Y020991D01*
X014463Y02095D01*
X014422Y020889D01*
X014408Y020817D01*
X014422Y020745D01*
X014463Y020684D01*
X014524Y020643D01*
X014596Y020628D01*
X014669Y020643D01*
X01473Y020684D01*
X014771Y020745D01*
X014785Y020817D01*
X014771Y020889D01*
X01473Y02095D01*
X014669Y020991D01*
X014596Y021006D01*
D02*
G37*
G36*
X011732Y020917D02*
X01166Y020903D01*
X011599Y020862D01*
X011558Y020801D01*
X011544Y020728D01*
X011558Y020656D01*
X011599Y020595D01*
X01166Y020554D01*
X011732Y02054D01*
X011804Y020554D01*
X011866Y020595D01*
X011907Y020656D01*
X011921Y020728D01*
X011907Y020801D01*
X011866Y020862D01*
X011804Y020903D01*
X011732Y020917D01*
D02*
G37*
G36*
X027461Y021042D02*
Y020975D01*
X027528D01*
X027502Y021015D01*
X027461Y021042D01*
D02*
G37*
G36*
X011043Y021006D02*
X010971Y020991D01*
X01091Y02095D01*
X010869Y020889D01*
X010855Y020817D01*
X010869Y020745D01*
X01091Y020684D01*
X010971Y020643D01*
X011043Y020628D01*
X011115Y020643D01*
X011177Y020684D01*
X011218Y020745D01*
X011232Y020817D01*
X011218Y020889D01*
X011177Y02095D01*
X011115Y020991D01*
X011043Y021006D01*
D02*
G37*
G36*
X024094Y0251D02*
X024022Y025086D01*
X023961Y025045D01*
X02392Y024984D01*
X023906Y024911D01*
X02392Y024839D01*
X023961Y024778D01*
X024022Y024737D01*
X024094Y024723D01*
X024167Y024737D01*
X024228Y024778D01*
X024269Y024839D01*
X024283Y024911D01*
X024269Y024984D01*
X024228Y025045D01*
X024167Y025086D01*
X024094Y0251D01*
D02*
G37*
G36*
X022185Y025051D02*
X022113Y025036D01*
X022052Y024996D01*
X022011Y024934D01*
X021996Y024862D01*
X022011Y02479D01*
X022052Y024729D01*
X022113Y024688D01*
X022185Y024674D01*
X022257Y024688D01*
X022318Y024729D01*
X022359Y02479D01*
X022374Y024862D01*
X022359Y024934D01*
X022318Y024996D01*
X022257Y025036D01*
X022185Y025051D01*
D02*
G37*
G36*
X015423Y025198D02*
X015351Y025184D01*
X01529Y025143D01*
X015249Y025082D01*
X015235Y02501D01*
X015249Y024938D01*
X01529Y024876D01*
X015351Y024836D01*
X015423Y024821D01*
X015495Y024836D01*
X015557Y024876D01*
X015597Y024938D01*
X015612Y02501D01*
X015597Y025082D01*
X015557Y025143D01*
X015495Y025184D01*
X015423Y025198D01*
D02*
G37*
G36*
X010915D02*
X010843Y025184D01*
X010782Y025143D01*
X010741Y025082D01*
X010727Y02501D01*
X010741Y024938D01*
X010782Y024876D01*
X010843Y024836D01*
X010915Y024821D01*
X010988Y024836D01*
X011049Y024876D01*
X01109Y024938D01*
X011104Y02501D01*
X01109Y025082D01*
X011049Y025143D01*
X010988Y025184D01*
X010915Y025198D01*
D02*
G37*
G36*
X020896Y025002D02*
X020823Y024987D01*
X020762Y024946D01*
X020721Y024885D01*
X020707Y024813D01*
X020721Y024741D01*
X020762Y02468D01*
X020823Y024639D01*
X020896Y024624D01*
X020968Y024639D01*
X021029Y02468D01*
X02107Y024741D01*
X021084Y024813D01*
X02107Y024885D01*
X021029Y024946D01*
X020968Y024987D01*
X020896Y025002D01*
D02*
G37*
G36*
X018209Y024864D02*
X018136Y024849D01*
X018075Y024809D01*
X018034Y024747D01*
X01802Y024675D01*
X018034Y024603D01*
X018075Y024542D01*
X018136Y024501D01*
X018209Y024487D01*
X018281Y024501D01*
X018342Y024542D01*
X018383Y024603D01*
X018397Y024675D01*
X018383Y024747D01*
X018342Y024809D01*
X018281Y024849D01*
X018209Y024864D01*
D02*
G37*
G36*
X018642Y024785D02*
X01857Y024771D01*
X018508Y02473D01*
X018467Y024669D01*
X018453Y024596D01*
X018467Y024524D01*
X018508Y024463D01*
X01857Y024422D01*
X018642Y024408D01*
X018714Y024422D01*
X018775Y024463D01*
X018816Y024524D01*
X01883Y024596D01*
X018816Y024669D01*
X018775Y02473D01*
X018714Y024771D01*
X018642Y024785D01*
D02*
G37*
G36*
X016752Y024972D02*
X01668Y024958D01*
X016619Y024917D01*
X016578Y024856D01*
X016563Y024783D01*
X016578Y024711D01*
X016619Y02465D01*
X01668Y024609D01*
X016752Y024595D01*
X016824Y024609D01*
X016885Y02465D01*
X016926Y024711D01*
X016941Y024783D01*
X016926Y024856D01*
X016885Y024917D01*
X016824Y024958D01*
X016752Y024972D01*
D02*
G37*
G36*
X013159Y024952D02*
X013087Y024938D01*
X013026Y024897D01*
X012985Y024836D01*
X012971Y024764D01*
X012985Y024692D01*
X013026Y02463D01*
X013087Y02459D01*
X013159Y024575D01*
X013232Y02459D01*
X013293Y02463D01*
X013334Y024692D01*
X013348Y024764D01*
X013334Y024836D01*
X013293Y024897D01*
X013232Y024938D01*
X013159Y024952D01*
D02*
G37*
G36*
X023119Y025206D02*
X023052D01*
Y025139D01*
X023092Y025166D01*
X023119Y025206D01*
D02*
G37*
G36*
X022952D02*
X022885D01*
X022912Y025166D01*
X022952Y025139D01*
Y025206D01*
D02*
G37*
G36*
X023052Y025373D02*
Y025306D01*
X023119D01*
X023092Y025346D01*
X023052Y025373D01*
D02*
G37*
G36*
X022952D02*
X022912Y025346D01*
X022885Y025306D01*
X022952D01*
Y025373D01*
D02*
G37*
G36*
X029587Y025137D02*
Y02507D01*
X029654D01*
X029628Y02511D01*
X029587Y025137D01*
D02*
G37*
G36*
X029654Y02497D02*
X029587D01*
Y024903D01*
X029628Y02493D01*
X029654Y02497D01*
D02*
G37*
G36*
X029487D02*
X02942D01*
X029447Y02493D01*
X029487Y024903D01*
Y02497D01*
D02*
G37*
G36*
Y025137D02*
X029447Y02511D01*
X02942Y02507D01*
X029487D01*
Y025137D01*
D02*
G37*
G36*
X024656Y025356D02*
X024583Y025342D01*
X024522Y025301D01*
X024481Y02524D01*
X024467Y025167D01*
X024481Y025095D01*
X024522Y025034D01*
X024583Y024993D01*
X024656Y024979D01*
X024728Y024993D01*
X024789Y025034D01*
X02483Y025095D01*
X024844Y025167D01*
X02483Y02524D01*
X024789Y025301D01*
X024728Y025342D01*
X024656Y025356D01*
D02*
G37*
G36*
X02747Y023365D02*
X02743Y023338D01*
X027403Y023298D01*
X02747D01*
Y023365D01*
D02*
G37*
G36*
X011437Y023624D02*
X011365Y023609D01*
X011304Y023568D01*
X011263Y023507D01*
X011248Y023435D01*
X011263Y023363D01*
X011304Y023302D01*
X011365Y023261D01*
X011437Y023246D01*
X011509Y023261D01*
X01157Y023302D01*
X011611Y023363D01*
X011626Y023435D01*
X011611Y023507D01*
X01157Y023568D01*
X011509Y023609D01*
X011437Y023624D01*
D02*
G37*
G36*
X029577Y023781D02*
X029505Y023767D01*
X029443Y023726D01*
X029403Y023665D01*
X029388Y023593D01*
X029403Y02352D01*
X029443Y023459D01*
X029505Y023418D01*
X029577Y023404D01*
X029649Y023418D01*
X02971Y023459D01*
X029751Y02352D01*
X029765Y023593D01*
X029751Y023665D01*
X02971Y023726D01*
X029649Y023767D01*
X029577Y023781D01*
D02*
G37*
G36*
X02757Y023365D02*
Y023298D01*
X027637D01*
X02761Y023338D01*
X02757Y023365D01*
D02*
G37*
G36*
X027637Y023198D02*
X02757D01*
Y023131D01*
X02761Y023158D01*
X027637Y023198D01*
D02*
G37*
G36*
X024665Y0232D02*
X024593Y023186D01*
X024532Y023145D01*
X024491Y023084D01*
X024477Y023012D01*
X024491Y02294D01*
X024532Y022878D01*
X024593Y022838D01*
X024665Y022823D01*
X024738Y022838D01*
X024799Y022878D01*
X02484Y02294D01*
X024854Y023012D01*
X02484Y023084D01*
X024799Y023145D01*
X024738Y023186D01*
X024665Y0232D01*
D02*
G37*
G36*
X026319Y023191D02*
X026247Y023176D01*
X026186Y023135D01*
X026145Y023074D01*
X02613Y023002D01*
X026145Y02293D01*
X026186Y022869D01*
X026247Y022828D01*
X026319Y022813D01*
X026391Y022828D01*
X026452Y022869D01*
X026493Y02293D01*
X026508Y023002D01*
X026493Y023074D01*
X026452Y023135D01*
X026391Y023176D01*
X026319Y023191D01*
D02*
G37*
G36*
X02747Y023198D02*
X027403D01*
X02743Y023158D01*
X02747Y023131D01*
Y023198D01*
D02*
G37*
G36*
X020906Y02321D02*
X020833Y023196D01*
X020772Y023155D01*
X020731Y023094D01*
X020717Y023022D01*
X020731Y022949D01*
X020772Y022888D01*
X020833Y022847D01*
X020906Y022833D01*
X020978Y022847D01*
X021039Y022888D01*
X02108Y022949D01*
X021094Y023022D01*
X02108Y023094D01*
X021039Y023155D01*
X020978Y023196D01*
X020906Y02321D01*
D02*
G37*
G36*
X02563Y024903D02*
X025558Y024889D01*
X025497Y024848D01*
X025456Y024787D01*
X025441Y024715D01*
X025456Y024642D01*
X025497Y024581D01*
X025544Y024549D01*
X025538Y024497D01*
X025528Y024495D01*
X025467Y024454D01*
X025426Y024393D01*
X025412Y024321D01*
X025426Y024249D01*
X025467Y024187D01*
X025528Y024147D01*
X0256Y024132D01*
X025673Y024147D01*
X025734Y024187D01*
X025775Y024249D01*
X025789Y024321D01*
X025775Y024393D01*
X025734Y024454D01*
X025686Y024486D01*
X025692Y024538D01*
X025702Y02454D01*
X025763Y024581D01*
X025804Y024642D01*
X025819Y024715D01*
X025804Y024787D01*
X025763Y024848D01*
X025702Y024889D01*
X02563Y024903D01*
D02*
G37*
G36*
X019302Y024113D02*
Y024046D01*
X019369D01*
X019342Y024086D01*
X019302Y024113D01*
D02*
G37*
G36*
X017766Y024756D02*
X017694Y024741D01*
X017632Y0247D01*
X017591Y024639D01*
X017577Y024567D01*
X017591Y024495D01*
X017632Y024434D01*
X017694Y024393D01*
X017766Y024378D01*
X017838Y024393D01*
X017899Y024434D01*
X01794Y024495D01*
X017954Y024567D01*
X01794Y024639D01*
X017899Y0247D01*
X017838Y024741D01*
X017766Y024756D01*
D02*
G37*
G36*
X019951Y024588D02*
X019879Y024574D01*
X019817Y024533D01*
X019777Y024472D01*
X019762Y0244D01*
X019777Y024327D01*
X019817Y024266D01*
X019879Y024225D01*
X019951Y024211D01*
X020023Y024225D01*
X020084Y024266D01*
X020125Y024327D01*
X020139Y0244D01*
X020125Y024472D01*
X020084Y024533D01*
X020023Y024574D01*
X019951Y024588D01*
D02*
G37*
G36*
X019202Y024113D02*
X019162Y024086D01*
X019135Y024046D01*
X019202D01*
Y024113D01*
D02*
G37*
G36*
Y023946D02*
X019135D01*
X019162Y023906D01*
X019202Y023879D01*
Y023946D01*
D02*
G37*
G36*
X017283Y02387D02*
X017211Y023855D01*
X01715Y023814D01*
X017109Y023753D01*
X017095Y023681D01*
X017109Y023609D01*
X01715Y023548D01*
X017211Y023507D01*
X017283Y023492D01*
X017356Y023507D01*
X017417Y023548D01*
X017458Y023609D01*
X017472Y023681D01*
X017458Y023753D01*
X017417Y023814D01*
X017356Y023855D01*
X017283Y02387D01*
D02*
G37*
G36*
X018898Y024293D02*
X018825Y024279D01*
X018764Y024238D01*
X018723Y024177D01*
X018709Y024104D01*
X018723Y024032D01*
X018764Y023971D01*
X018825Y02393D01*
X018898Y023916D01*
X01897Y02393D01*
X019031Y023971D01*
X019072Y024032D01*
X019086Y024104D01*
X019072Y024177D01*
X019031Y024238D01*
X01897Y024279D01*
X018898Y024293D01*
D02*
G37*
G36*
X019369Y023946D02*
X019302D01*
Y023879D01*
X019342Y023906D01*
X019369Y023946D01*
D02*
G37*
G36*
X016841Y018889D02*
X016768Y018875D01*
X016707Y018834D01*
X016666Y018773D01*
X016652Y018701D01*
X016666Y018629D01*
X016707Y018567D01*
X016768Y018527D01*
X016841Y018512D01*
X016913Y018527D01*
X016974Y018567D01*
X017015Y018629D01*
X017029Y018701D01*
X017015Y018773D01*
X016974Y018834D01*
X016913Y018875D01*
X016841Y018889D01*
D02*
G37*
G36*
X027539Y015907D02*
X027467Y015893D01*
X027406Y015852D01*
X027365Y015791D01*
X027351Y015718D01*
X027365Y015646D01*
X027406Y015585D01*
X027467Y015544D01*
X027539Y01553D01*
X027612Y015544D01*
X027673Y015585D01*
X027714Y015646D01*
X027728Y015718D01*
X027714Y015791D01*
X027673Y015852D01*
X027612Y015893D01*
X027539Y015907D01*
D02*
G37*
G36*
X023602Y015809D02*
X02353Y015794D01*
X023469Y015753D01*
X023428Y015692D01*
X023414Y01562D01*
X023428Y015548D01*
X023469Y015487D01*
X02353Y015446D01*
X023602Y015431D01*
X023675Y015446D01*
X023736Y015487D01*
X023777Y015548D01*
X023791Y01562D01*
X023777Y015692D01*
X023736Y015753D01*
X023675Y015794D01*
X023602Y015809D01*
D02*
G37*
G36*
X010906Y015658D02*
Y015591D01*
X010973D01*
X010946Y015631D01*
X010906Y015658D01*
D02*
G37*
G36*
X010806D02*
X010766Y015631D01*
X010739Y015591D01*
X010806D01*
Y015658D01*
D02*
G37*
G36*
X010973Y015491D02*
X010906D01*
Y015424D01*
X010946Y015451D01*
X010973Y015491D01*
D02*
G37*
G36*
X03123Y015464D02*
X031158Y01545D01*
X031097Y015409D01*
X031056Y015348D01*
X031042Y015276D01*
X031056Y015203D01*
X031097Y015142D01*
X031158Y015101D01*
X03123Y015087D01*
X031302Y015101D01*
X031364Y015142D01*
X031405Y015203D01*
X031419Y015276D01*
X031405Y015348D01*
X031364Y015409D01*
X031302Y01545D01*
X03123Y015464D01*
D02*
G37*
G36*
X017106Y01571D02*
X017034Y015696D01*
X016973Y015655D01*
X016932Y015594D01*
X016918Y015522D01*
X016932Y015449D01*
X016973Y015388D01*
X017034Y015347D01*
X017104Y015333D01*
X017121Y015306D01*
X017127Y015286D01*
X01709Y01523D01*
X017075Y015157D01*
X01709Y015085D01*
X01713Y015024D01*
X017192Y014983D01*
X017264Y014969D01*
X017336Y014983D01*
X017397Y015024D01*
X017438Y015085D01*
X017452Y015157D01*
X017438Y01523D01*
X017397Y015291D01*
X017336Y015332D01*
X017266Y015346D01*
X017249Y015373D01*
X017243Y015393D01*
X017281Y015449D01*
X017295Y015522D01*
X017281Y015594D01*
X01724Y015655D01*
X017178Y015696D01*
X017106Y01571D01*
D02*
G37*
G36*
X010806Y015491D02*
X010739D01*
X010766Y015451D01*
X010806Y015424D01*
Y015491D01*
D02*
G37*
G36*
X024252Y015543D02*
X02418Y015529D01*
X024119Y015488D01*
X024078Y015427D01*
X024063Y015354D01*
X024078Y015282D01*
X024119Y015221D01*
X02418Y01518D01*
X024252Y015166D01*
X024324Y01518D01*
X024385Y015221D01*
X024426Y015282D01*
X024441Y015354D01*
X024426Y015427D01*
X024385Y015488D01*
X024324Y015529D01*
X024252Y015543D01*
D02*
G37*
G36*
X013178Y016101D02*
X013138Y016074D01*
X013111Y016034D01*
X013178D01*
Y016101D01*
D02*
G37*
G36*
X016083Y01638D02*
X01601Y016365D01*
X015949Y016324D01*
X015908Y016263D01*
X015894Y016191D01*
X015908Y016119D01*
X015949Y016058D01*
X01601Y016017D01*
X016083Y016002D01*
X016155Y016017D01*
X016216Y016058D01*
X016257Y016119D01*
X016271Y016191D01*
X016257Y016263D01*
X016216Y016324D01*
X016155Y016365D01*
X016083Y01638D01*
D02*
G37*
G36*
X023602Y016161D02*
X023535D01*
X023561Y016121D01*
X023602Y016094D01*
Y016161D01*
D02*
G37*
G36*
X013278Y016101D02*
Y016034D01*
X013345D01*
X013318Y016074D01*
X013278Y016101D01*
D02*
G37*
G36*
X028465Y01637D02*
X028392Y016355D01*
X028331Y016314D01*
X02829Y016253D01*
X028276Y016181D01*
X02829Y016109D01*
X028331Y016048D01*
X028392Y016007D01*
X028465Y015992D01*
X028537Y016007D01*
X028598Y016048D01*
X028639Y016109D01*
X028653Y016181D01*
X028639Y016253D01*
X028598Y016314D01*
X028537Y016355D01*
X028465Y01637D01*
D02*
G37*
G36*
X013178Y015934D02*
X013111D01*
X013138Y015894D01*
X013178Y015867D01*
Y015934D01*
D02*
G37*
G36*
X025069Y016222D02*
X024997Y016208D01*
X024936Y016167D01*
X024895Y016106D01*
X02488Y016033D01*
X024895Y015961D01*
X024936Y0159D01*
X024997Y015859D01*
X025069Y015845D01*
X025141Y015859D01*
X025202Y0159D01*
X025243Y015961D01*
X025258Y016033D01*
X025243Y016106D01*
X025202Y016167D01*
X025141Y016208D01*
X025069Y016222D01*
D02*
G37*
G36*
X022185Y016261D02*
X022113Y016247D01*
X022052Y016206D01*
X022011Y016145D01*
X021996Y016073D01*
X022011Y016001D01*
X022052Y015939D01*
X022113Y015899D01*
X022185Y015884D01*
X022257Y015899D01*
X022318Y015939D01*
X022359Y016001D01*
X022374Y016073D01*
X022359Y016145D01*
X022318Y016206D01*
X022257Y016247D01*
X022185Y016261D01*
D02*
G37*
G36*
X013345Y015934D02*
X013278D01*
Y015867D01*
X013318Y015894D01*
X013345Y015934D01*
D02*
G37*
G36*
X019184Y01428D02*
Y014213D01*
X019251D01*
X019224Y014254D01*
X019184Y01428D01*
D02*
G37*
G36*
X019084D02*
X019044Y014254D01*
X019017Y014213D01*
X019084D01*
Y01428D01*
D02*
G37*
G36*
X013288Y014344D02*
Y014277D01*
X013355D01*
X013328Y014317D01*
X013288Y014344D01*
D02*
G37*
G36*
X013188D02*
X013148Y014317D01*
X013121Y014277D01*
X013188D01*
Y014344D01*
D02*
G37*
G36*
X013355Y014177D02*
X013288D01*
Y01411D01*
X013328Y014137D01*
X013355Y014177D01*
D02*
G37*
G36*
X028966Y014143D02*
X028926Y014116D01*
X028899Y014076D01*
X028966D01*
Y014143D01*
D02*
G37*
G36*
X019251Y014113D02*
X019184D01*
Y014046D01*
X019224Y014073D01*
X019251Y014113D01*
D02*
G37*
G36*
X013188Y014177D02*
X013121D01*
X013148Y014137D01*
X013188Y01411D01*
Y014177D01*
D02*
G37*
G36*
X029066Y014143D02*
Y014076D01*
X029133D01*
X029106Y014116D01*
X029066Y014143D01*
D02*
G37*
G36*
X023021Y01491D02*
X022981Y014883D01*
X022954Y014843D01*
X023021D01*
Y01491D01*
D02*
G37*
G36*
X016329Y015198D02*
X016257Y015184D01*
X016195Y015143D01*
X016154Y015082D01*
X01614Y01501D01*
X016154Y014938D01*
X016195Y014876D01*
X016257Y014836D01*
X016329Y014821D01*
X016401Y014836D01*
X016462Y014876D01*
X016503Y014938D01*
X016517Y01501D01*
X016503Y015082D01*
X016462Y015143D01*
X016401Y015184D01*
X016329Y015198D01*
D02*
G37*
G36*
X010866Y015336D02*
X010794Y015322D01*
X010733Y015281D01*
X010692Y01522D01*
X010678Y015148D01*
X010692Y015075D01*
X010733Y015014D01*
X010794Y014973D01*
X010866Y014959D01*
X010938Y014973D01*
X011Y015014D01*
X01104Y015075D01*
X011055Y015148D01*
X01104Y01522D01*
X011Y015281D01*
X010938Y015322D01*
X010866Y015336D01*
D02*
G37*
G36*
X023121Y01491D02*
Y014843D01*
X023188D01*
X023161Y014883D01*
X023121Y01491D01*
D02*
G37*
G36*
X023188Y014743D02*
X023121D01*
Y014676D01*
X023161Y014703D01*
X023188Y014743D01*
D02*
G37*
G36*
X016053Y014726D02*
X015981Y014712D01*
X01592Y014671D01*
X015879Y01461D01*
X015865Y014537D01*
X015879Y014465D01*
X01592Y014404D01*
X015981Y014363D01*
X016053Y014349D01*
X016125Y014363D01*
X016187Y014404D01*
X016227Y014465D01*
X016242Y014537D01*
X016227Y01461D01*
X016187Y014671D01*
X016125Y014712D01*
X016053Y014726D01*
D02*
G37*
G36*
X02063Y014667D02*
X020558Y014653D01*
X020497Y014612D01*
X020456Y014551D01*
X020441Y014478D01*
X020456Y014406D01*
X020497Y014345D01*
X020558Y014304D01*
X02063Y01429D01*
X020702Y014304D01*
X020763Y014345D01*
X020804Y014406D01*
X020819Y014478D01*
X020804Y014551D01*
X020763Y014612D01*
X020702Y014653D01*
X02063Y014667D01*
D02*
G37*
G36*
X023021Y014743D02*
X022954D01*
X022981Y014703D01*
X023021Y014676D01*
Y014743D01*
D02*
G37*
G36*
X022018Y015041D02*
X021946Y015027D01*
X021884Y014986D01*
X021843Y014925D01*
X021829Y014852D01*
X021843Y01478D01*
X021884Y014719D01*
X021946Y014678D01*
X022018Y014664D01*
X02209Y014678D01*
X022151Y014719D01*
X022192Y01478D01*
X022206Y014852D01*
X022192Y014925D01*
X022151Y014986D01*
X02209Y015027D01*
X022018Y015041D01*
D02*
G37*
G36*
X032637Y01745D02*
X03257D01*
X032597Y01741D01*
X032637Y017383D01*
Y01745D01*
D02*
G37*
G36*
X019105Y017272D02*
Y017206D01*
X019172D01*
X019145Y017246D01*
X019105Y017272D01*
D02*
G37*
G36*
X025787Y017807D02*
X025715Y017792D01*
X025654Y017751D01*
X025613Y01769D01*
X025599Y017618D01*
X025613Y017546D01*
X025654Y017485D01*
X025715Y017444D01*
X025787Y017429D01*
X02586Y017444D01*
X025921Y017485D01*
X025962Y017546D01*
X025976Y017618D01*
X025962Y01769D01*
X025921Y017751D01*
X02586Y017792D01*
X025787Y017807D01*
D02*
G37*
G36*
X032804Y01745D02*
X032737D01*
Y017383D01*
X032777Y01741D01*
X032804Y01745D01*
D02*
G37*
G36*
X019005Y017272D02*
X018965Y017246D01*
X018938Y017206D01*
X019005D01*
Y017272D01*
D02*
G37*
G36*
X019172Y017106D02*
X019105D01*
Y017039D01*
X019145Y017065D01*
X019172Y017106D01*
D02*
G37*
G36*
X019005D02*
X018938D01*
X018965Y017065D01*
X019005Y017039D01*
Y017106D01*
D02*
G37*
G36*
X022185Y017492D02*
X022113Y017477D01*
X022052Y017437D01*
X022011Y017375D01*
X021996Y017303D01*
X022011Y017231D01*
X022052Y01717D01*
X022113Y017129D01*
X022185Y017115D01*
X022257Y017129D01*
X022318Y01717D01*
X022359Y017231D01*
X022374Y017303D01*
X022359Y017375D01*
X022318Y017437D01*
X022257Y017477D01*
X022185Y017492D01*
D02*
G37*
G36*
X033799Y017452D02*
X033727Y017438D01*
X033666Y017397D01*
X033625Y017336D01*
X033611Y017264D01*
X033625Y017192D01*
X033666Y01713D01*
X033727Y01709D01*
X033799Y017075D01*
X033871Y01709D01*
X033933Y01713D01*
X033973Y017192D01*
X033988Y017264D01*
X033973Y017336D01*
X033933Y017397D01*
X033871Y017438D01*
X033799Y017452D01*
D02*
G37*
G36*
X029646Y01805D02*
Y017983D01*
X029713D01*
X029687Y018023D01*
X029646Y01805D01*
D02*
G37*
G36*
X029546D02*
X029506Y018023D01*
X02948Y017983D01*
X029546D01*
Y01805D01*
D02*
G37*
G36*
X033661Y019462D02*
X033515Y019443D01*
X033379Y019387D01*
X033262Y019297D01*
X033172Y01918D01*
X033116Y019044D01*
X033097Y018898D01*
X033116Y018751D01*
X033172Y018615D01*
X033262Y018498D01*
X033379Y018408D01*
X033515Y018352D01*
X033661Y018333D01*
X033808Y018352D01*
X033944Y018408D01*
X034061Y018498D01*
X034151Y018615D01*
X034207Y018751D01*
X034226Y018898D01*
X034207Y019044D01*
X034151Y01918D01*
X034061Y019297D01*
X033944Y019387D01*
X033808Y019443D01*
X033661Y019462D01*
D02*
G37*
G36*
X014774Y019352D02*
X014701Y019338D01*
X01464Y019297D01*
X014599Y019236D01*
X014585Y019163D01*
X014599Y019091D01*
X01464Y01903D01*
X014673Y019008D01*
Y018948D01*
X01465Y018933D01*
X014609Y018872D01*
X014595Y018799D01*
X014609Y018727D01*
X01465Y018666D01*
X014712Y018625D01*
X014742Y018619D01*
X014748Y018584D01*
X014747Y018567D01*
X014689Y018529D01*
X014649Y018468D01*
X014634Y018396D01*
X014649Y018323D01*
X014689Y018262D01*
X014751Y018221D01*
X014823Y018207D01*
X014895Y018221D01*
X014956Y018262D01*
X014997Y018323D01*
X015011Y018396D01*
X014997Y018468D01*
X014956Y018529D01*
X014895Y01857D01*
X014865Y018576D01*
X014858Y018612D01*
X01486Y018628D01*
X014917Y018666D01*
X014958Y018727D01*
X014972Y018799D01*
X014958Y018872D01*
X014917Y018933D01*
X014884Y018955D01*
Y019015D01*
X014907Y01903D01*
X014948Y019091D01*
X014962Y019163D01*
X014948Y019236D01*
X014907Y019297D01*
X014846Y019338D01*
X014774Y019352D01*
D02*
G37*
G36*
X017303Y018358D02*
X017231Y018344D01*
X01717Y018303D01*
X017129Y018241D01*
X017115Y018169D01*
X017129Y018097D01*
X01717Y018036D01*
X017231Y017995D01*
X017303Y017981D01*
X017375Y017995D01*
X017437Y018036D01*
X017477Y018097D01*
X017492Y018169D01*
X017477Y018241D01*
X017437Y018303D01*
X017375Y018344D01*
X017303Y018358D01*
D02*
G37*
G36*
X032737Y017617D02*
Y01755D01*
X032804D01*
X032777Y01759D01*
X032737Y017617D01*
D02*
G37*
G36*
X032637D02*
X032597Y01759D01*
X03257Y01755D01*
X032637D01*
Y017617D01*
D02*
G37*
G36*
X029713Y017883D02*
X029646D01*
Y017816D01*
X029687Y017843D01*
X029713Y017883D01*
D02*
G37*
G36*
X029546D02*
X02948D01*
X029506Y017843D01*
X029546Y017816D01*
Y017883D01*
D02*
G37*
G36*
X026535Y016872D02*
X026463Y016857D01*
X026402Y016816D01*
X026361Y016755D01*
X026347Y016683D01*
X026361Y016611D01*
X026402Y01655D01*
X026463Y016509D01*
X026535Y016494D01*
X026608Y016509D01*
X026669Y01655D01*
X02671Y016611D01*
X026724Y016683D01*
X02671Y016755D01*
X026669Y016816D01*
X026608Y016857D01*
X026535Y016872D01*
D02*
G37*
G36*
X030295Y016832D02*
X030223Y016818D01*
X030162Y016777D01*
X030121Y016716D01*
X030107Y016644D01*
X030121Y016572D01*
X030162Y01651D01*
X030223Y016469D01*
X030295Y016455D01*
X030367Y016469D01*
X030429Y01651D01*
X03047Y016572D01*
X030484Y016644D01*
X03047Y016716D01*
X030429Y016777D01*
X030367Y016818D01*
X030295Y016832D01*
D02*
G37*
G36*
X015945Y017088D02*
X015873Y017074D01*
X015812Y017033D01*
X015771Y016972D01*
X015756Y0169D01*
X015771Y016827D01*
X015812Y016766D01*
X015873Y016725D01*
X015945Y016711D01*
X016017Y016725D01*
X016078Y016766D01*
X016119Y016827D01*
X016134Y0169D01*
X016119Y016972D01*
X016078Y017033D01*
X016017Y017074D01*
X015945Y017088D01*
D02*
G37*
G36*
X019055Y016941D02*
X018983Y016926D01*
X018922Y016885D01*
X018881Y016824D01*
X018866Y016752D01*
X018881Y01668D01*
X018922Y016619D01*
X018983Y016578D01*
X019055Y016563D01*
X019127Y016578D01*
X019188Y016619D01*
X019229Y01668D01*
X019244Y016752D01*
X019229Y016824D01*
X019188Y016885D01*
X019127Y016926D01*
X019055Y016941D01*
D02*
G37*
G36*
X025906Y016803D02*
X025833Y016788D01*
X025772Y016748D01*
X025731Y016686D01*
X025717Y016614D01*
X025731Y016542D01*
X025772Y016481D01*
X025833Y01644D01*
X025906Y016426D01*
X025978Y01644D01*
X026039Y016481D01*
X02608Y016542D01*
X026094Y016614D01*
X02608Y016686D01*
X026039Y016748D01*
X025978Y016788D01*
X025906Y016803D01*
D02*
G37*
G36*
X023602Y016328D02*
X023561Y016301D01*
X023535Y016261D01*
X023602D01*
Y016328D01*
D02*
G37*
G36*
X023768Y016161D02*
X023702D01*
Y016094D01*
X023742Y016121D01*
X023768Y016161D01*
D02*
G37*
G36*
X01748Y016645D02*
X017408Y016631D01*
X017347Y01659D01*
X017306Y016529D01*
X017292Y016457D01*
X017306Y016385D01*
X017347Y016323D01*
X017408Y016282D01*
X01748Y016268D01*
X017552Y016282D01*
X017614Y016323D01*
X017655Y016385D01*
X017669Y016457D01*
X017655Y016529D01*
X017614Y01659D01*
X017552Y016631D01*
X01748Y016645D01*
D02*
G37*
G36*
X023702Y016328D02*
Y016261D01*
X023768D01*
X023742Y016301D01*
X023702Y016328D01*
D02*
G37*
G36*
X014517Y017066D02*
X014477Y017039D01*
X01445Y016999D01*
X014517D01*
Y017066D01*
D02*
G37*
G36*
X028465Y017305D02*
X028392Y01729D01*
X028331Y01725D01*
X02829Y017188D01*
X028276Y017116D01*
X02829Y017044D01*
X028331Y016983D01*
X028392Y016942D01*
X028465Y016928D01*
X028537Y016942D01*
X028598Y016983D01*
X028639Y017044D01*
X028653Y017116D01*
X028639Y017188D01*
X028598Y01725D01*
X028537Y01729D01*
X028465Y017305D01*
D02*
G37*
G36*
X022776Y017403D02*
X022703Y017389D01*
X022642Y017348D01*
X022601Y017287D01*
X022587Y017215D01*
X022601Y017142D01*
X022642Y017081D01*
X022703Y01704D01*
X022776Y017026D01*
X022848Y01704D01*
X022909Y017081D01*
X02295Y017142D01*
X022964Y017215D01*
X02295Y017287D01*
X022909Y017348D01*
X022848Y017389D01*
X022776Y017403D01*
D02*
G37*
G36*
X014617Y017066D02*
Y016999D01*
X014684D01*
X014657Y017039D01*
X014617Y017066D01*
D02*
G37*
G36*
X012972Y017137D02*
X0129Y017123D01*
X012839Y017082D01*
X012798Y017021D01*
X012784Y016949D01*
X012798Y016877D01*
X012768Y016832D01*
X012717Y016842D01*
X012644Y016828D01*
X012583Y016787D01*
X012542Y016726D01*
X012528Y016654D01*
X012542Y016581D01*
X012583Y01652D01*
X012644Y016479D01*
X012717Y016465D01*
X012789Y016479D01*
X01285Y01652D01*
X012891Y016581D01*
X012905Y016654D01*
X012891Y016726D01*
X012921Y01677D01*
X012972Y01676D01*
X013045Y016775D01*
X013106Y016815D01*
X013147Y016877D01*
X013161Y016949D01*
X013147Y017021D01*
X013106Y017082D01*
X013045Y017123D01*
X012972Y017137D01*
D02*
G37*
G36*
X023406Y017197D02*
X023333Y017182D01*
X023272Y017141D01*
X023231Y01708D01*
X023217Y017008D01*
X023231Y016936D01*
X023272Y016875D01*
X023333Y016834D01*
X023406Y016819D01*
X023478Y016834D01*
X023539Y016875D01*
X02358Y016936D01*
X023594Y017008D01*
X02358Y01708D01*
X023539Y017141D01*
X023478Y017182D01*
X023406Y017197D01*
D02*
G37*
G36*
X01497D02*
X014898Y017182D01*
X014837Y017141D01*
X014796Y01708D01*
X014782Y017008D01*
X014796Y016936D01*
X014837Y016875D01*
X014898Y016834D01*
X01497Y016819D01*
X015043Y016834D01*
X015104Y016875D01*
X015145Y016936D01*
X015159Y017008D01*
X015145Y01708D01*
X015104Y017141D01*
X015043Y017182D01*
X01497Y017197D01*
D02*
G37*
G36*
X014684Y016899D02*
X014617D01*
Y016832D01*
X014657Y016859D01*
X014684Y016899D01*
D02*
G37*
G36*
X014517D02*
X01445D01*
X014477Y016859D01*
X014517Y016832D01*
Y016899D01*
D02*
G37*
%LPD*%
D52*
X012313Y006585D02*
X023986D01*
X012008Y00689D02*
X012313Y006585D01*
X012008Y00689D02*
Y007244D01*
X010591Y008661D02*
X012008Y007244D01*
X010591Y008661D02*
Y013337D01*
X017618Y021614D02*
X019498D01*
X016024Y02002D02*
X017618Y021614D01*
X014744Y02002D02*
X016024D01*
X017512Y021774D02*
X019564D01*
X015918Y02018D02*
X017512Y021774D01*
X014678Y02018D02*
X015918D01*
X017397Y021934D02*
X019631D01*
X015802Y02034D02*
X017397Y021934D01*
X014612Y02034D02*
X015802D01*
X024626Y018356D02*
X024951Y018681D01*
X023199Y018356D02*
X024626D01*
X022835Y017992D02*
X023199Y018356D01*
X023357Y019449D02*
X024035D01*
X022983Y019075D02*
X023357Y019449D01*
X023612Y019282D02*
X024134D01*
X022589Y018258D02*
X023612Y019282D01*
X023957Y019636D02*
X024242Y019921D01*
X022982Y019636D02*
X023957D01*
X024035Y019449D02*
X024341Y019754D01*
X021644Y018258D02*
X022589D01*
X025207Y01936D02*
X025679D01*
X024951Y019104D02*
X025207Y01936D01*
X024951Y018681D02*
Y019104D01*
X025679Y01936D02*
X025935Y019104D01*
Y018848D02*
Y019104D01*
Y018848D02*
X026319Y018465D01*
X026398Y019754D02*
X026536Y019892D01*
X024341Y019754D02*
X026398D01*
X026496Y019567D02*
X0269Y019163D01*
X024419Y019567D02*
X026496D01*
X024134Y019282D02*
X024419Y019567D01*
X024242Y019921D02*
X025423D01*
X026024Y020522D01*
X021319Y017992D02*
X022835D01*
X020492Y020039D02*
Y02062D01*
X019606Y019154D02*
X020492Y020039D01*
X019606Y018996D02*
Y019154D01*
X020226Y017008D02*
Y019213D01*
X020404Y019124D02*
X020876Y019596D01*
X020404Y016388D02*
Y019124D01*
X019409Y016191D02*
X020226Y017008D01*
X019872Y015856D02*
X020404Y016388D01*
X019892Y01748D02*
Y017569D01*
X019685Y017776D02*
X019892Y017569D01*
X022648Y019921D02*
X023848D01*
X022462Y020107D02*
X022648Y019921D01*
X021928Y020107D02*
X022462D01*
X026319Y018465D02*
X02802D01*
X018907Y017776D02*
X019685D01*
X018248Y018435D02*
X018907Y017776D01*
X017913Y017884D02*
Y019515D01*
X018268Y01987D02*
Y02065D01*
X017913Y019515D02*
X018268Y01987D01*
X017913Y017884D02*
X018366Y017431D01*
X02802Y018465D02*
X028453Y018898D01*
X026324Y021678D02*
X027392Y02061D01*
X026257Y021518D02*
X027325Y02045D01*
X026166Y021358D02*
X027608Y019916D01*
X025335Y021358D02*
X026166D01*
X027325Y02045D02*
X029638D01*
X025268Y021518D02*
X026257D01*
X025202Y021678D02*
X026324D01*
X027392Y02061D02*
X029715D01*
X026024Y020522D02*
Y020906D01*
X030423Y018927D02*
Y019665D01*
X029638Y02045D02*
X030423Y019665D01*
X031427Y018898D02*
X031453D01*
X029715Y02061D02*
X031427Y018898D01*
X030423Y018927D02*
X030453Y018898D01*
X027453D02*
X027608Y019053D01*
Y019916D01*
X026536Y019883D02*
Y019892D01*
X026535Y019882D02*
X026536Y019883D01*
X029685Y019744D02*
Y019783D01*
X020148Y021417D02*
X024941D01*
X020081Y021257D02*
X025007D01*
X019631Y021934D02*
X020148Y021417D01*
X013681Y019409D02*
X014612Y02034D01*
X013228Y019409D02*
X013681D01*
X019498Y021614D02*
X020015Y021097D01*
X013317Y018593D02*
X014744Y02002D01*
X013238Y018593D02*
X013317D01*
X019564Y021774D02*
X020081Y021257D01*
X013514Y019016D02*
X014678Y02018D01*
X013268Y019016D02*
X013514D01*
X024941Y021417D02*
X025202Y021678D01*
X025007Y021257D02*
X025268Y021518D01*
X025073Y021097D02*
X025335Y021358D01*
X020015Y021097D02*
X025073D01*
X025463Y020797D02*
X02562Y020955D01*
X023327Y020797D02*
X025463D01*
X023071Y020541D02*
X023327Y020797D01*
X020226Y019213D02*
X020679Y019665D01*
X020741Y01892D02*
X021928Y020107D01*
X022057Y019872D02*
X022126D01*
X021998Y019813D02*
X022057Y019872D01*
X019724Y015148D02*
X020741Y016164D01*
Y01892D01*
X020581Y019045D02*
X021821Y020285D01*
X020581Y016329D02*
Y019045D01*
X019528Y015276D02*
X020581Y016329D01*
X020906Y01873D02*
X021993Y019818D01*
X020906Y016033D02*
Y01873D01*
X019961Y015089D02*
X020906Y016033D01*
X02126Y018642D02*
X021644Y018258D01*
X026024Y020906D02*
X026043Y020925D01*
X021063Y020768D02*
X022009D01*
X021999Y020778D02*
X022009Y020768D01*
X020679Y020384D02*
X021063Y020768D01*
X020679Y019665D02*
Y020384D01*
X01872Y016191D02*
X019409D01*
X021161Y020541D02*
X023071D01*
X020876Y020256D02*
X021161Y020541D01*
X020876Y019596D02*
Y020256D01*
X018632Y015856D02*
X019872D01*
X021993Y019818D02*
X021998Y019813D01*
X023219Y020285D02*
X023465Y020531D01*
X021821Y020285D02*
X023219D01*
X019961Y01315D02*
Y015089D01*
X019331Y01252D02*
X019961Y01315D01*
X019724Y013396D02*
Y015148D01*
X019449Y01312D02*
X019724Y013396D01*
X019528Y013602D02*
Y015276D01*
X019006Y013081D02*
X019528Y013602D01*
D55*
X034006Y020344D02*
Y024715D01*
X032913Y025807D02*
X034006Y024715D01*
X015128Y025807D02*
X032913D01*
X033907Y020246D02*
X034006Y020344D01*
X013061Y02374D02*
X015128Y025807D01*
X024567Y017648D02*
X025453Y018533D01*
Y018898D01*
X012746Y02374D02*
X013061D01*
D67*
X027453Y018898D02*
D03*
X025453D02*
D03*
X028453D02*
D03*
X030453D02*
D03*
D68*
X031453D02*
D03*
D69*
X014642Y006935D02*
D03*
D71*
X031004Y021693D02*
D03*
D73*
X01063Y013337D02*
D03*
X033907Y020246D02*
D03*
X029537Y02502D02*
D03*
X023002Y025256D02*
D03*
X024567Y017648D02*
D03*
X023652Y016211D02*
D03*
X014567Y016949D02*
D03*
X022983Y019075D02*
D03*
X023986Y006585D02*
D03*
X010915Y009557D02*
D03*
X010856Y015541D02*
D03*
X020492Y02062D02*
D03*
X019606Y018996D02*
D03*
X019045Y019459D02*
D03*
X019892Y01748D02*
D03*
X023848Y019921D02*
D03*
X021319Y017992D02*
D03*
X018248Y018435D02*
D03*
X023858Y010148D02*
D03*
X026536Y019892D02*
D03*
X0269Y019163D02*
D03*
X029685Y019744D02*
D03*
X013228Y019409D02*
D03*
X013238Y018593D02*
D03*
X013268Y019016D02*
D03*
X023327Y021693D02*
D03*
X018268Y02065D02*
D03*
X022126Y019872D02*
D03*
X022982Y019636D02*
D03*
X02126Y018642D02*
D03*
X026043Y020925D02*
D03*
X021999Y020778D02*
D03*
X01872Y016191D02*
D03*
X02562Y020955D02*
D03*
X018632Y015856D02*
D03*
X018366Y017431D02*
D03*
X019331Y01252D02*
D03*
X02062Y012854D02*
D03*
X019449Y01312D02*
D03*
X023465Y020531D02*
D03*
X019006Y013081D02*
D03*
X019055Y017156D02*
D03*
X018917Y021319D02*
D03*
X01937Y010689D02*
D03*
X019252Y023996D02*
D03*
X012746Y02374D02*
D03*
X016821Y010226D02*
D03*
X013415Y012156D02*
D03*
X015433Y010364D02*
D03*
X010906Y012953D02*
D03*
X019134Y014163D02*
D03*
X013228Y015984D02*
D03*
X013238Y014227D02*
D03*
X029016Y014026D02*
D03*
X030463Y008711D02*
D03*
X029385Y008293D02*
D03*
X033031Y009154D02*
D03*
X026024Y010689D02*
D03*
X025531D02*
D03*
X025039D02*
D03*
Y011181D02*
D03*
Y011673D02*
D03*
X027411Y020925D02*
D03*
X02752Y023248D02*
D03*
X029596Y017933D02*
D03*
X032687Y0175D02*
D03*
X023071Y014793D02*
D03*
X034104Y010709D02*
D03*
M02*
