G04 Layer_Color=255*
%FSTAX24Y24*%
%MOIN*%
G70*
G01*
G75*
%ADD10R,0.0354X0.0315*%
%ADD11R,0.0236X0.0197*%
%ADD13R,0.0110X0.0551*%
%ADD14R,0.0551X0.0335*%
%ADD15R,0.0197X0.0148*%
%ADD16R,0.0256X0.0118*%
%ADD17R,0.0197X0.0236*%
%ADD20R,0.0492X0.0374*%
%ADD21C,0.0591*%
%ADD24R,0.0236X0.0709*%
%ADD28R,0.0354X0.0709*%
%ADD29R,0.0709X0.0354*%
%ADD32R,0.0394X0.0669*%
%ADD33R,0.0315X0.0354*%
%ADD63C,0.0650*%
%ADD64R,0.0866X0.0866*%
%ADD65C,0.0866*%
%ADD66C,0.0394*%
%ADD67C,0.0500*%
%ADD68R,0.0500X0.0500*%
%ADD69C,0.0039*%
G04:AMPARAMS|DCode=71|XSize=37.4mil|YSize=49.2mil|CornerRadius=0mil|HoleSize=0mil|Usage=FLASHONLY|Rotation=135.000|XOffset=0mil|YOffset=0mil|HoleType=Round|Shape=Rectangle|*
%AMROTATEDRECTD71*
4,1,4,0.0306,0.0042,-0.0042,-0.0306,-0.0306,-0.0042,0.0042,0.0306,0.0306,0.0042,0.0*
%
%ADD71ROTATEDRECTD71*%

%ADD72R,0.0787X0.0472*%
%ADD73R,0.0197X0.0394*%
%ADD74R,0.0532X0.0157*%
%ADD75R,0.0236X0.0610*%
%ADD76R,0.0669X0.0394*%
%ADD77P,0.0835X4X360.0*%
%ADD78R,0.0551X0.0827*%
%ADD79R,0.0827X0.0551*%
%ADD80R,0.0335X0.0551*%
%ADD81R,0.1102X0.0866*%
%ADD82R,0.0315X0.0433*%
%ADD83R,0.0148X0.0197*%
%ADD84R,0.0118X0.0256*%
%ADD85R,0.0413X0.0236*%
%ADD86R,0.0299X0.0630*%
%ADD87R,0.0945X0.0299*%
%ADD88R,0.0138X0.0453*%
%ADD89R,0.0197X0.0906*%
%ADD90R,0.0787X0.0984*%
D10*
X029537Y023937D02*
D03*
Y024449D02*
D03*
X027776Y023612D02*
D03*
Y024124D02*
D03*
X023396Y014783D02*
D03*
Y014272D02*
D03*
X017982Y019656D02*
D03*
Y019144D02*
D03*
X023494Y010157D02*
D03*
Y009646D02*
D03*
X020157Y015453D02*
D03*
Y014941D02*
D03*
X019882Y011516D02*
D03*
Y012028D02*
D03*
D11*
X027726Y021319D02*
D03*
Y020925D02*
D03*
X022972Y022096D02*
D03*
Y021703D02*
D03*
X027234Y022854D02*
D03*
Y023248D02*
D03*
X028455Y016457D02*
D03*
Y01685D02*
D03*
X033209Y012963D02*
D03*
Y013356D02*
D03*
X026732Y017598D02*
D03*
Y017992D02*
D03*
X023661Y017293D02*
D03*
Y017687D02*
D03*
X033022Y00878D02*
D03*
Y008386D02*
D03*
X019213Y011968D02*
D03*
Y011575D02*
D03*
X023553Y01247D02*
D03*
Y012077D02*
D03*
X017539Y020315D02*
D03*
Y020709D02*
D03*
X022953Y01689D02*
D03*
Y016496D02*
D03*
X026181Y017598D02*
D03*
Y017992D02*
D03*
X01564Y012925D02*
D03*
Y012531D02*
D03*
X015827Y011685D02*
D03*
Y011291D02*
D03*
X015354Y011291D02*
D03*
Y011685D02*
D03*
X012913Y013102D02*
D03*
Y012709D02*
D03*
X013386Y013102D02*
D03*
Y012709D02*
D03*
X016545Y010482D02*
D03*
X016545Y010876D02*
D03*
X013228Y016644D02*
D03*
Y01625D02*
D03*
X013238Y015335D02*
D03*
Y015728D02*
D03*
X024626Y012431D02*
D03*
Y012825D02*
D03*
X024104Y012461D02*
D03*
Y012854D02*
D03*
X013238Y013967D02*
D03*
Y013573D02*
D03*
Y014488D02*
D03*
Y014882D02*
D03*
X013868Y012815D02*
D03*
Y012421D02*
D03*
X019715Y013652D02*
D03*
Y014045D02*
D03*
X012441Y017352D02*
D03*
Y017746D02*
D03*
X013012Y017283D02*
D03*
Y017677D02*
D03*
D13*
X023671Y021333D02*
D03*
X023868Y021333D02*
D03*
X024065D02*
D03*
X024262D02*
D03*
X024459Y021333D02*
D03*
Y023018D02*
D03*
X024262Y023018D02*
D03*
X024065D02*
D03*
X023868D02*
D03*
X023671Y023018D02*
D03*
X028396Y020585D02*
D03*
X028593Y020585D02*
D03*
X028789D02*
D03*
X028986D02*
D03*
X029183Y020585D02*
D03*
Y02227D02*
D03*
X028986Y02227D02*
D03*
X028789D02*
D03*
X028593D02*
D03*
X028396Y02227D02*
D03*
X026555Y023933D02*
D03*
X026358Y023933D02*
D03*
X026161D02*
D03*
X025965D02*
D03*
X025768Y023933D02*
D03*
X025768Y022248D02*
D03*
X025965Y022248D02*
D03*
X026161D02*
D03*
X026358D02*
D03*
X026555D02*
D03*
D14*
X026683Y011142D02*
D03*
Y011831D02*
D03*
X029291Y010285D02*
D03*
Y010974D02*
D03*
D15*
X019203Y018046D02*
D03*
Y01847D02*
D03*
X019872D02*
D03*
Y018046D02*
D03*
D16*
X019173Y018258D02*
D03*
X019902D02*
D03*
D17*
X028455Y019774D02*
D03*
X028848D02*
D03*
X01749Y015817D02*
D03*
X017884D02*
D03*
X017756Y015344D02*
D03*
X01815D02*
D03*
X017667Y017215D02*
D03*
X018061D02*
D03*
X018071Y017805D02*
D03*
X018465D02*
D03*
X02376Y020669D02*
D03*
X024154D02*
D03*
X026496Y024724D02*
D03*
X026102D02*
D03*
X032825Y013937D02*
D03*
X033219D02*
D03*
X024921Y01748D02*
D03*
X025315D02*
D03*
X03378Y010709D02*
D03*
X033386D02*
D03*
X024764Y018032D02*
D03*
X025157D02*
D03*
X016811Y017087D02*
D03*
X017205D02*
D03*
X021388Y014872D02*
D03*
X020994D02*
D03*
X029616Y012835D02*
D03*
X029222Y012835D02*
D03*
X029616Y012313D02*
D03*
X029222D02*
D03*
X016486Y012894D02*
D03*
X016093D02*
D03*
X018032Y012421D02*
D03*
X017638D02*
D03*
X031526Y011693D02*
D03*
X031919D02*
D03*
X022598Y014016D02*
D03*
X022205D02*
D03*
X022598Y013494D02*
D03*
X022205D02*
D03*
X015551Y017323D02*
D03*
X015157D02*
D03*
X017628Y013661D02*
D03*
X018022D02*
D03*
X023051Y008415D02*
D03*
X022657D02*
D03*
X023573Y010778D02*
D03*
X023179D02*
D03*
X025138Y02064D02*
D03*
X024744D02*
D03*
X02253Y008947D02*
D03*
X022136D02*
D03*
X020965Y010059D02*
D03*
X021358D02*
D03*
D20*
X028425Y014783D02*
D03*
Y013484D02*
D03*
X027362Y014724D02*
D03*
X027362Y013425D02*
D03*
D21*
X022215Y015512D02*
D03*
X019872Y012785D02*
D03*
X012205Y01438D02*
D03*
X016811Y017844D02*
D03*
X02124Y009439D02*
D03*
D24*
X024753Y024264D02*
D03*
X024004D02*
D03*
X024378Y025052D02*
D03*
X026871Y016533D02*
D03*
X02762D02*
D03*
X027246Y015746D02*
D03*
X033407Y009801D02*
D03*
X034155Y009801D02*
D03*
X033781Y009013D02*
D03*
X011812Y012549D02*
D03*
X012186Y013336D02*
D03*
X011438D02*
D03*
D28*
X02565Y02D02*
D03*
X024508D02*
D03*
D29*
X033809Y015807D02*
D03*
Y016949D02*
D03*
D32*
X032274Y012579D02*
D03*
X030896D02*
D03*
D33*
X02248Y024715D02*
D03*
X022992D02*
D03*
X018839Y020197D02*
D03*
X018327D02*
D03*
X011053Y02127D02*
D03*
X011398Y014301D02*
D03*
X010886D02*
D03*
X014301Y016427D02*
D03*
X014301Y015561D02*
D03*
Y01377D02*
D03*
Y014656D02*
D03*
X023179Y008947D02*
D03*
X023691D02*
D03*
X020945Y015453D02*
D03*
X021457D02*
D03*
X020394Y010689D02*
D03*
X019882D02*
D03*
D63*
X020028Y007323D02*
D03*
X019028D02*
D03*
D64*
X031004Y024409D02*
D03*
Y021693D02*
D03*
D65*
X033169Y024409D02*
D03*
Y021693D02*
D03*
D66*
X014642Y006935D02*
D03*
Y007435D02*
D03*
X014142Y006935D02*
D03*
Y007435D02*
D03*
X013642Y006935D02*
D03*
Y007435D02*
D03*
X013142Y006935D02*
D03*
Y007435D02*
D03*
X012642Y006935D02*
D03*
Y007435D02*
D03*
X010984Y007047D02*
D03*
Y01937D02*
D03*
D67*
X033661Y007283D02*
D03*
X022244D02*
D03*
X022244Y018898D02*
D03*
X033661D02*
D03*
X030453D02*
D03*
X028453D02*
D03*
X029453D02*
D03*
X024453D02*
D03*
X025453D02*
D03*
X026453D02*
D03*
X027453D02*
D03*
D68*
X031453D02*
D03*
D69*
X012303Y02378D02*
D03*
X014035D02*
D03*
D71*
X028507Y023855D02*
D03*
X029426Y022936D02*
D03*
D72*
X016801Y024406D02*
D03*
Y022654D02*
D03*
X020915D02*
D03*
Y024406D02*
D03*
D73*
X018937Y025039D02*
D03*
X017343D02*
D03*
X017776D02*
D03*
X018209D02*
D03*
X018642D02*
D03*
X019213D02*
D03*
X019508D02*
D03*
X019941D02*
D03*
X020374D02*
D03*
D74*
X022579Y012195D02*
D03*
Y011939D02*
D03*
Y011683D02*
D03*
Y011427D02*
D03*
X020886D02*
D03*
Y011683D02*
D03*
Y011939D02*
D03*
Y012195D02*
D03*
X022185Y017077D02*
D03*
Y016821D02*
D03*
Y016565D02*
D03*
Y016309D02*
D03*
X020492D02*
D03*
Y016565D02*
D03*
Y016821D02*
D03*
Y017077D02*
D03*
D75*
X024132Y016614D02*
D03*
X024632D02*
D03*
X025132D02*
D03*
X025632D02*
D03*
Y014488D02*
D03*
X025132D02*
D03*
X024632D02*
D03*
X024132D02*
D03*
D76*
X032677Y015787D02*
D03*
X032677Y017165D02*
D03*
D77*
X03007Y007804D02*
D03*
X028985Y008889D02*
D03*
D78*
X031624Y014016D02*
D03*
X029892D02*
D03*
D79*
X031181Y01752D02*
D03*
Y015787D02*
D03*
X029606Y01752D02*
D03*
X029606Y015787D02*
D03*
D80*
X025837Y012835D02*
D03*
X026526D02*
D03*
X028455Y010157D02*
D03*
X027766D02*
D03*
D81*
X015906Y007795D02*
D03*
X017795D02*
D03*
X015906Y009459D02*
D03*
X017795D02*
D03*
D82*
X011565Y02127D02*
D03*
X013789Y016427D02*
D03*
Y015561D02*
D03*
Y01377D02*
D03*
Y014656D02*
D03*
D83*
X016402Y011705D02*
D03*
X016826D02*
D03*
Y012374D02*
D03*
X016402D02*
D03*
X016796Y016191D02*
D03*
X016373D02*
D03*
Y015522D02*
D03*
X016796D02*
D03*
Y013868D02*
D03*
X016373D02*
D03*
Y014537D02*
D03*
X016796D02*
D03*
D84*
X016614Y011675D02*
D03*
X016614Y012404D02*
D03*
X016585Y01622D02*
D03*
Y015492D02*
D03*
Y013839D02*
D03*
Y014567D02*
D03*
D85*
X021427Y013297D02*
D03*
Y014045D02*
D03*
X020364D02*
D03*
X020364Y013671D02*
D03*
X020364Y013297D02*
D03*
D86*
X013041Y008667D02*
D03*
X012541Y008667D02*
D03*
X012041D02*
D03*
X011541Y008667D02*
D03*
X011541Y010876D02*
D03*
X012041D02*
D03*
X012541D02*
D03*
X013041D02*
D03*
D87*
X015571Y020035D02*
D03*
X014035D02*
D03*
X015571Y019535D02*
D03*
X014035D02*
D03*
X015571Y019035D02*
D03*
X014035D02*
D03*
X015571Y018535D02*
D03*
X014035D02*
D03*
X015571Y018035D02*
D03*
X014035D02*
D03*
D88*
X022688Y010384D02*
D03*
X022432D02*
D03*
X022176D02*
D03*
Y009636D02*
D03*
X022432D02*
D03*
X022688D02*
D03*
D89*
X013799Y022756D02*
D03*
X013484D02*
D03*
X013169D02*
D03*
X012854D02*
D03*
X012539D02*
D03*
D90*
X014921Y022795D02*
D03*
X011417D02*
D03*
X014921Y025D02*
D03*
X011417D02*
D03*
M02*
