G04 Layer_Color=128*
%FSTAX24Y24*%
%MOIN*%
G70*
G01*
G75*
%ADD177C,0.0020*%
D177*
X013858Y02378D02*
X014213D01*
X014035Y023602D02*
Y023957D01*
X012126Y02378D02*
X01248D01*
X012303Y023602D02*
Y023957D01*
X027328Y018898D02*
X027578D01*
X027453Y018773D02*
Y019023D01*
X026328Y018898D02*
X026578D01*
X026453Y018773D02*
Y019023D01*
X025328Y018898D02*
X025578D01*
X025453Y018773D02*
Y019023D01*
X024328Y018898D02*
X024578D01*
X024453Y018773D02*
Y019023D01*
X029328Y018898D02*
X029578D01*
X029453Y018773D02*
Y019023D01*
X031328Y018898D02*
X031578D01*
X031453Y018773D02*
Y019023D01*
X028328Y018898D02*
X028578D01*
X028453Y018773D02*
Y019023D01*
X030328Y018898D02*
X030578D01*
X030453Y018773D02*
Y019023D01*
X033161Y018898D02*
X034161D01*
X033661Y018398D02*
Y019398D01*
X021744Y018898D02*
X022744D01*
X022244Y018398D02*
Y019398D01*
X021744Y007283D02*
X022744D01*
X022244Y006783D02*
Y007783D01*
X033161Y007283D02*
X034161D01*
X033661Y006783D02*
Y007783D01*
X010413Y01937D02*
X011555D01*
X010984Y018799D02*
Y019941D01*
X010413Y007047D02*
X011555D01*
X010984Y006476D02*
Y007618D01*
X012514Y007435D02*
X01277D01*
X012642Y007307D02*
Y007563D01*
X012514Y006935D02*
X01277D01*
X012642Y006807D02*
Y007063D01*
X013014Y007435D02*
X01327D01*
X013142Y007307D02*
Y007563D01*
X013014Y006935D02*
X01327D01*
X013142Y006807D02*
Y007063D01*
X013514Y007435D02*
X01377D01*
X013642Y007307D02*
Y007563D01*
X013514Y006935D02*
X01377D01*
X013642Y006807D02*
Y007063D01*
X014014Y007435D02*
X01427D01*
X014142Y007307D02*
Y007563D01*
X014014Y006935D02*
X01427D01*
X014142Y006807D02*
Y007063D01*
X014514Y007435D02*
X01477D01*
X014642Y007307D02*
Y007563D01*
X014514Y006935D02*
X01477D01*
X014642Y006807D02*
Y007063D01*
X032894Y021693D02*
X033445D01*
X033169Y021417D02*
Y021969D01*
X030728Y021693D02*
X03128D01*
X031004Y021417D02*
Y021969D01*
X032894Y024409D02*
X033445D01*
X033169Y024134D02*
Y024685D01*
X030728Y024409D02*
X03128D01*
X031004Y024134D02*
Y024685D01*
X018831Y007323D02*
X019224D01*
X019028Y007126D02*
Y00752D01*
X019831Y007323D02*
X020224D01*
X020028Y007126D02*
Y00752D01*
X020462Y00626D02*
X020562D01*
X020512Y00621D02*
Y00631D01*
X018493Y00626D02*
X018593D01*
X018543Y00621D02*
Y00631D01*
X016407Y00626D02*
X016507D01*
X016457Y00621D02*
Y00631D01*
X01432Y00626D02*
X01442D01*
X01437Y00621D02*
Y00631D01*
X012233Y00626D02*
X012333D01*
X012283Y00621D02*
Y00631D01*
X022233Y00626D02*
X022333D01*
X022283Y00621D02*
Y00631D01*
X02432Y00626D02*
X02442D01*
X02437Y00621D02*
Y00631D01*
X026407Y00626D02*
X026507D01*
X026457Y00621D02*
Y00631D01*
X028493Y00626D02*
X028593D01*
X028543Y00621D02*
Y00631D01*
X03058Y00626D02*
X03068D01*
X03063Y00621D02*
Y00631D01*
X032667Y00626D02*
X032767D01*
X032717Y00621D02*
Y00631D01*
X010147Y00815D02*
X010247D01*
X010197Y0081D02*
Y0082D01*
X010147Y010118D02*
X010247D01*
X010197Y010068D02*
Y010168D01*
X010147Y012087D02*
X010247D01*
X010197Y012037D02*
Y012137D01*
X010147Y014055D02*
X010247D01*
X010197Y014005D02*
Y014105D01*
X010147Y016024D02*
X010247D01*
X010197Y015974D02*
Y016074D01*
X010147Y017992D02*
X010247D01*
X010197Y017942D02*
Y018042D01*
X010147Y019961D02*
X010247D01*
X010197Y019911D02*
Y020011D01*
X010147Y021929D02*
X010247D01*
X010197Y021879D02*
Y021979D01*
X010147Y023898D02*
X010247D01*
X010197Y023848D02*
Y023948D01*
X014084Y025866D02*
X014184D01*
X014134Y025816D02*
Y025916D01*
X012115Y025866D02*
X012215D01*
X012165Y025816D02*
Y025916D01*
X034753Y023976D02*
X034853D01*
X034803Y023926D02*
Y024026D01*
X034753Y022008D02*
X034853D01*
X034803Y021958D02*
Y022058D01*
X034753Y020039D02*
X034853D01*
X034803Y019989D02*
Y020089D01*
X034753Y018071D02*
X034853D01*
X034803Y018021D02*
Y018121D01*
X034753Y016102D02*
X034853D01*
X034803Y016052D02*
Y016152D01*
X034753Y014134D02*
X034853D01*
X034803Y014084D02*
Y014184D01*
X034753Y012165D02*
X034853D01*
X034803Y012115D02*
Y012215D01*
X034753Y010197D02*
X034853D01*
X034803Y010147D02*
Y010247D01*
X034753Y008228D02*
X034853D01*
X034803Y008178D02*
Y008278D01*
X010147Y025866D02*
X010247D01*
X010197Y025816D02*
Y025916D01*
X034753Y025866D02*
X034853D01*
X034803Y025816D02*
Y025916D01*
X034753Y00626D02*
X034853D01*
X034803Y00621D02*
Y00631D01*
X010147Y00626D02*
X010247D01*
X010197Y00621D02*
Y00631D01*
X030885Y010118D02*
X030985D01*
X030935Y010068D02*
Y010168D01*
X01058Y013337D02*
X01068D01*
X01063Y013287D02*
Y013387D01*
X018159Y024675D02*
X018259D01*
X018209Y024625D02*
Y024725D01*
X017233Y012421D02*
X017333D01*
X017283Y012371D02*
Y012471D01*
X02558Y024715D02*
X02568D01*
X02563Y024665D02*
Y024765D01*
X033857Y020246D02*
X033957D01*
X033907Y020196D02*
Y020296D01*
X029487Y02502D02*
X029587D01*
X029537Y02497D02*
Y02507D01*
X022952Y025256D02*
X023052D01*
X023002Y025206D02*
Y025306D01*
X020826Y013346D02*
X020926D01*
X020876Y013296D02*
Y013396D01*
X023926Y017598D02*
X024026D01*
X023976Y017548D02*
Y017648D01*
X024517Y017648D02*
X024617D01*
X024567Y017598D02*
Y017698D01*
X024084Y017982D02*
X024184D01*
X024134Y017932D02*
Y018032D01*
X023602Y016211D02*
X023702D01*
X023652Y016161D02*
Y016261D01*
X014517Y016949D02*
X014617D01*
X014567Y016899D02*
Y016999D01*
X01492Y017008D02*
X01502D01*
X01497Y016958D02*
Y017058D01*
X02371Y018996D02*
X02381D01*
X02376Y018946D02*
Y019046D01*
X022933Y019075D02*
X023033D01*
X022983Y019025D02*
Y019125D01*
X023936Y006585D02*
X024036D01*
X023986Y006535D02*
Y006635D01*
X023641Y008573D02*
X023741D01*
X023691Y008523D02*
Y008623D01*
X022726Y017215D02*
X022826D01*
X022776Y017165D02*
Y017265D01*
X023552Y01562D02*
X023652D01*
X023602Y01557D02*
Y01567D01*
X025737Y017618D02*
X025837D01*
X025787Y017568D02*
Y017668D01*
X025974Y018327D02*
X026074D01*
X026024Y018277D02*
Y018377D01*
X023356Y017008D02*
X023456D01*
X023406Y016958D02*
Y017058D01*
X012922Y016949D02*
X013022D01*
X012972Y016899D02*
Y016999D01*
X010865Y009557D02*
X010965D01*
X010915Y009507D02*
Y009607D01*
X012903Y009262D02*
X013003D01*
X012953Y009212D02*
Y009312D01*
X013759Y012047D02*
X013859D01*
X013809Y011997D02*
Y012097D01*
X014094Y013189D02*
X014194D01*
X014144Y013139D02*
Y013239D01*
X014438Y012628D02*
X014538D01*
X014488Y012578D02*
Y012678D01*
X014743Y012224D02*
X014843D01*
X014793Y012174D02*
Y012274D01*
X011869Y010069D02*
X011969D01*
X011919Y010019D02*
Y010119D01*
X01183Y009537D02*
X01193D01*
X01188Y009487D02*
Y009587D01*
X012391Y00813D02*
X012491D01*
X012441Y00808D02*
Y00818D01*
X0118Y007805D02*
X0119D01*
X01185Y007755D02*
Y007855D01*
X010501Y014291D02*
X010601D01*
X010551Y014241D02*
Y014341D01*
X010856Y012047D02*
X010956D01*
X010906Y011997D02*
Y012097D01*
X015019Y008878D02*
X015119D01*
X015069Y008828D02*
Y008928D01*
X014261Y008701D02*
X014361D01*
X014311Y008651D02*
Y008751D01*
X014438Y008327D02*
X014538D01*
X014488Y008277D02*
Y008377D01*
X015856Y007165D02*
X015956D01*
X015906Y007115D02*
Y007215D01*
X012667Y016654D02*
X012767D01*
X012717Y016604D02*
Y016704D01*
X018641Y008051D02*
X018741D01*
X018691Y008001D02*
Y008101D01*
X024084Y020364D02*
X024184D01*
X024134Y020314D02*
Y020414D01*
X010806Y015541D02*
X010906D01*
X010856Y015491D02*
Y015591D01*
X010816Y015148D02*
X010916D01*
X010866Y015098D02*
Y015198D01*
X021584Y022402D02*
X021684D01*
X021634Y022352D02*
Y022452D01*
X020442Y02062D02*
X020542D01*
X020492Y02057D02*
Y02067D01*
X019556Y018996D02*
X019656D01*
X019606Y018946D02*
Y019046D01*
X018995Y019459D02*
X019095D01*
X019045Y019409D02*
Y019509D01*
X01992Y019065D02*
X02002D01*
X01997Y019015D02*
Y019115D01*
X019842Y01748D02*
X019942D01*
X019892Y01743D02*
Y01753D01*
X017657Y011752D02*
X017757D01*
X017707Y011702D02*
Y011802D01*
X015993Y013189D02*
X016093D01*
X016043Y013139D02*
Y013239D01*
X024527Y022047D02*
X024627D01*
X024577Y021997D02*
Y022097D01*
X023789Y022087D02*
X023889D01*
X023839Y022037D02*
Y022137D01*
X019251Y020433D02*
X019351D01*
X019301Y020383D02*
Y020483D01*
X023798Y019921D02*
X023898D01*
X023848Y019871D02*
Y019971D01*
X01931Y01874D02*
X01941D01*
X01936Y01869D02*
Y01879D01*
X016791Y018701D02*
X016891D01*
X016841Y018651D02*
Y018751D01*
X026407Y018179D02*
X026507D01*
X026457Y018129D02*
Y018229D01*
X021269Y017992D02*
X021369D01*
X021319Y017942D02*
Y018042D01*
X018198Y018435D02*
X018298D01*
X018248Y018385D02*
Y018485D01*
X019409Y017461D02*
X019509D01*
X019459Y017411D02*
Y017511D01*
X019832Y018671D02*
X019932D01*
X019882Y018621D02*
Y018721D01*
X016357Y018878D02*
X016457D01*
X016407Y018828D02*
Y018928D01*
X020521Y009567D02*
X020621D01*
X020571Y009517D02*
Y009617D01*
X023798Y010778D02*
X023898D01*
X023848Y010728D02*
Y010828D01*
X023808Y010148D02*
X023908D01*
X023858Y010098D02*
Y010198D01*
X022263Y008553D02*
X022363D01*
X022313Y008503D02*
Y008603D01*
X019684Y010197D02*
X019784D01*
X019734Y010147D02*
Y010247D01*
X024438Y006919D02*
X024538D01*
X024488Y006869D02*
Y006969D01*
X026486Y019892D02*
X026586D01*
X026536Y019842D02*
Y019942D01*
X02685Y019163D02*
X02695D01*
X0269Y019113D02*
Y019213D01*
X029635Y019744D02*
X029735D01*
X029685Y019694D02*
Y019794D01*
X029202Y019478D02*
X029302D01*
X029252Y019428D02*
Y019528D01*
X013178Y019409D02*
X013278D01*
X013228Y019359D02*
Y019459D01*
X013188Y018593D02*
X013288D01*
X013238Y018543D02*
Y018643D01*
X013218Y019016D02*
X013318D01*
X013268Y018966D02*
Y019066D01*
X023277Y021693D02*
X023377D01*
X023327Y021643D02*
Y021743D01*
X017775Y020719D02*
X017875D01*
X017825Y020668D02*
Y020768D01*
X018218Y02065D02*
X018318D01*
X018268Y0206D02*
Y0207D01*
X014901Y02122D02*
X015001D01*
X014951Y02117D02*
Y02127D01*
X014724Y019646D02*
X014824D01*
X014774Y019596D02*
Y019696D01*
X014724Y019163D02*
X014824D01*
X014774Y019113D02*
Y019213D01*
X014734Y018799D02*
X014834D01*
X014784Y018749D02*
Y018849D01*
X014773Y018396D02*
X014873D01*
X014823Y018346D02*
Y018446D01*
X027194Y01939D02*
X027294D01*
X027244Y01934D02*
Y01944D01*
X022076Y019872D02*
X022176D01*
X022126Y019822D02*
Y019922D01*
X028001Y023189D02*
X028101D01*
X028051Y023139D02*
Y023239D01*
X022932Y019636D02*
X023032D01*
X022982Y019586D02*
Y019686D01*
X02121Y018642D02*
X02131D01*
X02126Y018592D02*
Y018692D01*
X019793Y017067D02*
X019893D01*
X019843Y017017D02*
Y017117D01*
X024606Y025167D02*
X024706D01*
X024656Y025117D02*
Y025217D01*
X024044Y024911D02*
X024144D01*
X024094Y024861D02*
Y024961D01*
X025993Y020925D02*
X026093D01*
X026043Y020875D02*
Y020975D01*
X02555Y024321D02*
X02565D01*
X0256Y024271D02*
Y024371D01*
X026269Y023002D02*
X026369D01*
X026319Y022952D02*
Y023052D01*
X025688Y022766D02*
X025788D01*
X025738Y022716D02*
Y022816D01*
X021949Y020778D02*
X022049D01*
X021999Y020728D02*
Y020828D01*
X01867Y016191D02*
X01877D01*
X01872Y016141D02*
Y016241D01*
X01935Y015591D02*
X01945D01*
X0194Y015541D02*
Y015641D01*
X018641Y012372D02*
X018741D01*
X018691Y012322D02*
Y012422D01*
X02557Y020955D02*
X02567D01*
X02562Y020905D02*
Y021005D01*
X018582Y015856D02*
X018682D01*
X018632Y015806D02*
Y015906D01*
X018316Y017431D02*
X018416D01*
X018366Y017381D02*
Y017481D01*
X016033Y016191D02*
X016133D01*
X016083Y016141D02*
Y016241D01*
X016279Y01501D02*
X016379D01*
X016329Y01496D02*
Y01506D01*
X019281Y01252D02*
X019381D01*
X019331Y01247D02*
Y01257D01*
X02057Y012854D02*
X02067D01*
X02062Y012804D02*
Y012904D01*
X028198Y019596D02*
X028298D01*
X028248Y019546D02*
Y019646D01*
X019399Y01312D02*
X019499D01*
X019449Y01307D02*
Y01317D01*
X023415Y020531D02*
X023515D01*
X023465Y020482D02*
Y020582D01*
X018956Y013081D02*
X019056D01*
X019006Y013031D02*
Y013131D01*
X018543Y013494D02*
X018643D01*
X018593Y013444D02*
Y013544D01*
X02117Y020157D02*
X02127D01*
X02122Y020107D02*
Y020207D01*
X017253Y018169D02*
X017353D01*
X017303Y018119D02*
Y018219D01*
X024202Y015354D02*
X024302D01*
X024252Y015304D02*
Y015404D01*
X02058Y014478D02*
X02068D01*
X02063Y014428D02*
Y014528D01*
X021968Y014852D02*
X022068D01*
X022018Y014802D02*
Y014902D01*
X015501Y012087D02*
X015601D01*
X015551Y012037D02*
Y012137D01*
X016554Y013524D02*
X016654D01*
X016604Y013474D02*
Y013574D01*
X021151Y017392D02*
X021251D01*
X021201Y017342D02*
Y017442D01*
X015895Y0169D02*
X015995D01*
X015945Y01685D02*
Y01695D01*
X018572Y018553D02*
X018672D01*
X018622Y018503D02*
Y018603D01*
X019005Y016752D02*
X019105D01*
X019055Y016702D02*
Y016802D01*
X019005Y017156D02*
X019105D01*
X019055Y017106D02*
Y017206D01*
X018867Y021319D02*
X018967D01*
X018917Y021269D02*
Y021369D01*
X018198Y022657D02*
X018298D01*
X018248Y022607D02*
Y022707D01*
X020098Y02185D02*
X020198D01*
X020148Y0218D02*
Y0219D01*
X017411Y019409D02*
X017511D01*
X017461Y019359D02*
Y019459D01*
X017883Y020197D02*
X017983D01*
X017933Y020147D02*
Y020247D01*
X01932Y010689D02*
X01942D01*
X01937Y010639D02*
Y010739D01*
X019123Y009518D02*
X019223D01*
X019173Y009468D02*
Y009568D01*
X020856Y023022D02*
X020956D01*
X020906Y022972D02*
Y023072D01*
X017371Y02249D02*
X017471D01*
X017421Y02244D02*
Y02254D01*
X016702Y024783D02*
X016802D01*
X016752Y024733D02*
Y024833D01*
X020846Y024813D02*
X020946D01*
X020896Y024763D02*
Y024863D01*
X019202Y023996D02*
X019302D01*
X019252Y023946D02*
Y024046D01*
X018848Y024104D02*
X018948D01*
X018898Y024054D02*
Y024154D01*
X017233Y023681D02*
X017333D01*
X017283Y023631D02*
Y023731D01*
X019901Y0244D02*
X020001D01*
X019951Y02435D02*
Y02445D01*
X018592Y024596D02*
X018692D01*
X018642Y024546D02*
Y024646D01*
X017716Y024567D02*
X017816D01*
X017766Y024517D02*
Y024617D01*
X013159Y019813D02*
X013259D01*
X013209Y019763D02*
Y019863D01*
X011682Y020728D02*
X011782D01*
X011732Y020678D02*
Y020778D01*
X010993Y020817D02*
X011093D01*
X011043Y020767D02*
Y020867D01*
X014546Y020817D02*
X014646D01*
X014596Y020767D02*
Y020867D01*
X020846Y011063D02*
X020946D01*
X020896Y011013D02*
Y011113D01*
X013395Y021594D02*
X013495D01*
X013445Y021544D02*
Y021644D01*
X01369Y02189D02*
X01379D01*
X01374Y02184D02*
Y02194D01*
X0131Y02189D02*
X0132D01*
X01315Y02184D02*
Y02194D01*
X012096Y022018D02*
X012196D01*
X012146Y021968D02*
Y022068D01*
X011357Y022018D02*
X011457D01*
X011407Y021968D02*
Y022068D01*
X010964Y022028D02*
X011064D01*
X011014Y021978D02*
Y022078D01*
X012696Y02374D02*
X012796D01*
X012746Y02369D02*
Y02379D01*
X013109Y024764D02*
X013209D01*
X013159Y024714D02*
Y024814D01*
X010865Y02501D02*
X010965D01*
X010915Y02496D02*
Y02506D01*
X015373Y02501D02*
X015473D01*
X015423Y02496D02*
Y02506D01*
X015354Y022795D02*
X015454D01*
X015404Y022745D02*
Y022845D01*
X011387Y023435D02*
X011487D01*
X011437Y023385D02*
Y023485D01*
X013208Y023396D02*
X013308D01*
X013258Y023346D02*
Y023446D01*
X012765Y023356D02*
X012865D01*
X012815Y023306D02*
Y023406D01*
X012371Y020551D02*
X012471D01*
X012421Y020501D02*
Y020601D01*
X015107Y013189D02*
X015207D01*
X015157Y013139D02*
Y013239D01*
X016771Y010226D02*
X016871D01*
X016821Y010176D02*
Y010276D01*
X01742Y010226D02*
X01752D01*
X01747Y010176D02*
Y010276D01*
X01743Y008642D02*
X01753D01*
X01748Y008592D02*
Y008692D01*
X022529Y011171D02*
X022629D01*
X022579Y011121D02*
Y011221D01*
X021023Y013691D02*
X021123D01*
X021073Y013641D02*
Y013741D01*
X019133Y01374D02*
X019233D01*
X019183Y01369D02*
Y01379D01*
X013365Y012156D02*
X013465D01*
X013415Y012106D02*
Y012206D01*
X016092Y010866D02*
X016192D01*
X016142Y010816D02*
Y010916D01*
X016092Y010413D02*
X016192D01*
X016142Y010363D02*
Y010463D01*
X015383Y010364D02*
X015483D01*
X015433Y010314D02*
Y010414D01*
X012499Y012087D02*
X012599D01*
X012549Y012037D02*
Y012137D01*
X010856Y012953D02*
X010956D01*
X010906Y012903D02*
Y013003D01*
X01246Y01252D02*
X01256D01*
X01251Y01247D02*
Y01257D01*
X013129Y012461D02*
X013229D01*
X013179Y012411D02*
Y012511D01*
X015924Y012333D02*
X016024D01*
X015974Y012283D02*
Y012383D01*
X017214Y015157D02*
X017314D01*
X017264Y015107D02*
Y015207D01*
X01743Y016457D02*
X01753D01*
X01748Y016407D02*
Y016507D01*
X019084Y014163D02*
X019184D01*
X019134Y014113D02*
Y014213D01*
X017106Y013868D02*
X017206D01*
X017156Y013818D02*
Y013918D01*
X016003Y014537D02*
X016103D01*
X016053Y014487D02*
Y014587D01*
X017056Y015522D02*
X017156D01*
X017106Y015472D02*
Y015572D01*
X013178Y015984D02*
X013278D01*
X013228Y015934D02*
Y016034D01*
X013188Y014227D02*
X013288D01*
X013238Y014177D02*
Y014277D01*
X028966Y014026D02*
X029066D01*
X029016Y013976D02*
Y014076D01*
X024359Y013858D02*
X024459D01*
X024409Y013808D02*
Y013908D01*
X026298Y013455D02*
X026398D01*
X026348Y013405D02*
Y013505D01*
X030413Y008711D02*
X030513D01*
X030463Y008661D02*
Y008761D01*
X029335Y008293D02*
X029435D01*
X029385Y008243D02*
Y008343D01*
X032982Y009154D02*
X033082D01*
X033031Y009104D02*
Y009204D01*
X028198Y011348D02*
X028298D01*
X028248Y011298D02*
Y011398D01*
X028611Y011348D02*
X028711D01*
X028661Y011298D02*
Y011398D01*
X028611Y011762D02*
X028711D01*
X028661Y011712D02*
Y011812D01*
X027785Y013012D02*
X027885D01*
X027835Y012962D02*
Y013062D01*
X028198Y013012D02*
X028298D01*
X028248Y012962D02*
Y013062D01*
X028611Y013002D02*
X028711D01*
X028661Y012952D02*
Y013052D01*
X028611Y012569D02*
X028711D01*
X028661Y012519D02*
Y012619D01*
X028611Y012175D02*
X028711D01*
X028661Y012125D02*
Y012225D01*
X025974Y010689D02*
X026074D01*
X026024Y010639D02*
Y010739D01*
X025482Y010689D02*
X025582D01*
X025531Y010639D02*
Y010739D01*
X024989Y010689D02*
X025089D01*
X025039Y010639D02*
Y010739D01*
X024989Y011181D02*
X025089D01*
X025039Y011131D02*
Y011231D01*
X024989Y011673D02*
X025089D01*
X025039Y011623D02*
Y011723D01*
X029635Y022146D02*
X029735D01*
X029685Y022096D02*
Y022196D01*
X027411Y021319D02*
X027511D01*
X027461Y021269D02*
Y021369D01*
X027361Y020925D02*
X027461D01*
X027411Y020875D02*
Y020975D01*
X028346Y021299D02*
X028446D01*
X028396Y021249D02*
Y021349D01*
X028218Y022854D02*
X028318D01*
X028268Y022804D02*
Y022904D01*
X029527Y023593D02*
X029627D01*
X029577Y023543D02*
Y023643D01*
X02873Y023406D02*
X02883D01*
X02878Y023356D02*
Y023456D01*
X024704Y02378D02*
X024804D01*
X024754Y02373D02*
Y02383D01*
X02748Y022844D02*
X02758D01*
X02753Y022794D02*
Y022894D01*
X02747Y023248D02*
X02757D01*
X02752Y023198D02*
Y023298D01*
X027017Y022293D02*
X027117D01*
X027067Y022243D02*
Y022343D01*
X022135Y024862D02*
X022235D01*
X022185Y024812D02*
Y024912D01*
X024064Y023553D02*
X024164D01*
X024114Y023503D02*
Y023603D01*
X024615Y023012D02*
X024715D01*
X024665Y022962D02*
Y023062D01*
X022263Y022106D02*
X022363D01*
X022313Y022056D02*
Y022156D01*
X019901Y016309D02*
X020001D01*
X019951Y016259D02*
Y016359D01*
X022135Y016073D02*
X022235D01*
X022185Y016023D02*
Y016123D01*
X022135Y017303D02*
X022235D01*
X022185Y017253D02*
Y017353D01*
X024773Y013175D02*
X024873D01*
X024823Y013125D02*
Y013225D01*
X026476Y012283D02*
X026576D01*
X026526Y012233D02*
Y012333D01*
X027489Y015718D02*
X027589D01*
X027539Y015668D02*
Y015769D01*
X026485Y016683D02*
X026585D01*
X026535Y016633D02*
Y016733D01*
X028415Y017116D02*
X028515D01*
X028465Y017066D02*
Y017166D01*
X028415Y016181D02*
X028515D01*
X028465Y016131D02*
Y016231D01*
X029546Y017933D02*
X029646D01*
X029596Y017883D02*
Y017983D01*
X030245Y016644D02*
X030345D01*
X030295Y016594D02*
Y016694D01*
X032637Y0175D02*
X032737D01*
X032687Y01745D02*
Y01755D01*
X033749Y017264D02*
X033849D01*
X033799Y017214D02*
Y017314D01*
X03118Y015276D02*
X03128D01*
X03123Y015226D02*
Y015326D01*
X030029Y013002D02*
X030129D01*
X030079Y012952D02*
Y013052D01*
X023346Y013947D02*
X023446D01*
X023396Y013897D02*
Y013997D01*
X023021Y014793D02*
X023121D01*
X023071Y014743D02*
Y014843D01*
X030176Y007126D02*
X030276D01*
X030226Y007076D02*
Y007176D01*
X034054Y010709D02*
X034154D01*
X034104Y010659D02*
Y010759D01*
X033198Y01125D02*
X033298D01*
X033248Y0112D02*
Y0113D01*
X032745Y007756D02*
X032845D01*
X032795Y007706D02*
Y007806D01*
X034104Y010276D02*
X034204D01*
X034154Y010226D02*
Y010326D01*
X033818Y012549D02*
X033918D01*
X033868Y012499D02*
Y012599D01*
X03247Y013346D02*
X03257D01*
X03252Y013296D02*
Y013396D01*
X032676Y012904D02*
X032776D01*
X032726Y012854D02*
Y012954D01*
X033021Y012451D02*
X033121D01*
X033071Y012401D02*
Y012501D01*
X031663Y012864D02*
X031763D01*
X031713Y012814D02*
Y012914D01*
X031239Y012185D02*
X031339D01*
X031289Y012135D02*
Y012235D01*
X032174Y014016D02*
X032274D01*
X032224Y013966D02*
Y014066D01*
X031239Y007047D02*
X031339D01*
X031289Y006997D02*
Y007097D01*
X033454Y008386D02*
X033554D01*
X033504Y008336D02*
Y008436D01*
X03123Y008691D02*
X03133D01*
X03128Y008641D02*
Y008741D01*
X029586Y009518D02*
X029686D01*
X029636Y009468D02*
Y009568D01*
X028769Y010295D02*
X028869D01*
X028819Y010245D02*
Y010345D01*
X025107Y0075D02*
X025207D01*
X025157Y00745D02*
Y00755D01*
X024891Y009281D02*
X024991D01*
X024941Y009232D02*
Y009331D01*
X02683Y007224D02*
X02693D01*
X02688Y007174D02*
Y007274D01*
X025019Y016033D02*
X025119D01*
X025069Y015983D02*
Y016083D01*
X025856Y016614D02*
X025956D01*
X025906Y016564D02*
Y016664D01*
X027863Y008267D02*
X027963D01*
X027913Y008217D02*
Y008317D01*
X027391Y008267D02*
X027491D01*
X027441Y008217D02*
Y008317D01*
X027391Y008818D02*
X027491D01*
X027441Y008768D02*
Y008868D01*
X027863Y008818D02*
X027963D01*
X027913Y008768D02*
Y008868D01*
X027863Y009369D02*
X027963D01*
X027913Y009319D02*
Y009419D01*
X027391Y009369D02*
X027491D01*
X027441Y009319D02*
Y009419D01*
X027391Y007716D02*
X027491D01*
X027441Y007666D02*
Y007766D01*
X027863Y007716D02*
X027963D01*
X027913Y007666D02*
Y007766D01*
X032066Y010748D02*
X032166D01*
X032116Y010698D02*
Y010798D01*
X030885Y010748D02*
X030985D01*
X030935Y010698D02*
Y010798D01*
X030294Y010748D02*
X030394D01*
X030344Y010698D02*
Y010798D01*
X031476Y010748D02*
X031576D01*
X031526Y010698D02*
Y010798D01*
X032657Y010748D02*
X032757D01*
X032707Y010698D02*
Y010798D01*
X032066Y010118D02*
X032166D01*
X032116Y010068D02*
Y010168D01*
X032657Y010118D02*
X032757D01*
X032707Y010068D02*
Y010168D01*
X030294Y010118D02*
X030394D01*
X030344Y010068D02*
Y010168D01*
X031476Y010118D02*
X031576D01*
X031526Y010068D02*
Y010168D01*
X031456Y0075D02*
X031556D01*
X031506Y00745D02*
Y00755D01*
M02*
