M48
;Layer_Color=9474304
;FILE_FORMAT=2:4
INCH,LZ
;TYPE=PLATED
T1F00S00C0.0100
T2F00S00C0.0250
T3F00S00C0.0256
T4F00S00C0.0354
T5F00S00C0.0394
T6F00S00C0.0551
T7F00S00C0.1000
T8F00S00C0.1142
%
T01
X010197Y00626
Y00815
Y010118
X010915Y009557
X01188Y009537
X011919Y010069
X012953Y009262
X012441Y00813
X01185Y007805
X012283Y00626
X01437
X014488Y008327
X014311Y008701
X015069Y008878
X015433Y010364
X015551Y012087
X014793Y012224
X014488Y012628
X014144Y013189
X015157
X013809Y012047
X013415Y012156
X013179Y012461
X01251Y01252
X012549Y012087
X010906Y012047
X010197Y012087
X010906Y012953
X01063Y013337
X010551Y014291
X010197Y014055
X010866Y015148
X010856Y015541
X013238Y014227
X016053Y014537
X016329Y01501
X017264Y015157
X017106Y015522
X017156Y013868
X016604Y013524
X016043Y013189
X015974Y012333
X017283Y012421
X017707Y011752
X018691Y012372
X019331Y01252
X019449Y01312
X019006Y013081
X018593Y013494
X019183Y01374
X019134Y014163
X0194Y015591
X02063Y014478
X021073Y013691
X020876Y013346
X02062Y012854
X020896Y011063
X022579Y011171
X023848Y010778
X023858Y010148
X025039Y010689
X025531
X026024
X025039Y011181
Y011673
X024823Y013175
X024409Y013858
X023396Y013947
X023071Y014793
X022018Y014852
X023602Y01562
X024252Y015354
X026348Y013455
X026526Y012283
X027835Y013012
X028248
X028661Y013002
Y012569
Y012175
Y011762
Y011348
X028248
X028819Y010295
X029636Y009518
X030344Y010118
X030935Y010118
Y010748
X030344
X030463Y008711
X029385Y008293
X027913Y008267
X027441
Y008818
X027913
Y009369
X027441Y009369
X027441Y007716
X027913
X02688Y007224
X026457Y00626
X02437
X023986Y006585
X024488Y006919
X025157Y0075
X024941Y009281
X023691Y008573
X022313Y008553
X022283Y00626
X020512
X018543
X018691Y008051
X01748Y008642
X01747Y010226
X016821
X016142Y010413
Y010866
X01937Y010689
X019734Y010197
X019173Y009518
X020571Y009567
X015906Y007165
X016457Y00626
X028543
X03063
X030226Y007126
X030079Y013002
X029016Y014026
X03123Y015276
X032224Y014016
X03252Y013346
X032726Y012904
X033071Y012451
X033868Y012549
X034803Y012165
Y014134
Y010197
X034154Y010276
X034104Y010709
X033248Y01125
X032707Y010748
X032116
X031526
Y010118
X032116Y010118
X032707Y010118
X033031Y009154
X033504Y008386
X032795Y007756
X031506Y0075
X031289Y007047
X03128Y008691
X031289Y012185
X031713Y012864
X032717Y00626
X034803
Y008228
Y016102
Y018071
X033799Y017264
X032687Y0175
X033907Y020246
X034803Y020039
Y022008
Y023976
Y025866
X029537Y02502
X029577Y023593
X02878Y023406
X028051Y023189
X028268Y022854
X02753Y022844
X02752Y023248
X027067Y022293
X027461Y021319
X027411Y020925
X028396Y021299
X028248Y019596
X029252Y019478
X029685Y019744
X029596Y017933
X028465Y017116
Y016181
X027539Y015718
X026535Y016683
X025906Y016614
X025787Y017618
X026024Y018327
X026457Y018179
X0269Y019163
X027244Y01939
X026536Y019892
X026043Y020925
X02562Y020955
X025738Y022766
X026319Y023002
X024665Y023012
X024754Y02378
X024114Y023553
X024094Y024911
X024656Y025167
X02563Y024715
X0256Y024321
X024577Y022047
X023839Y022087
X023327Y021693
X023465Y020531
X024134Y020364
X023848Y019921
X02376Y018996
X022983Y019075
X022982Y019636
X022126Y019872
X021999Y020778
X02122Y020157
X020492Y02062
X019301Y020433
X019045Y019459
X019606Y018996
X01997Y019065
X019882Y018671
X01936Y01874
X018622Y018553
X018248Y018435
X018366Y017431
X019055Y017156
Y016752
X01872Y016191
X018632Y015856
X01748Y016457
X016083Y016191
X015945Y0169
X016407Y018878
X016841Y018701
X017303Y018169
X017461Y019409
X017933Y020197
X017825Y020719
X018268Y02065
X018917Y021319
X020148Y02185
X020906Y023022
X021634Y022402
X022313Y022106
X022185Y024862
X023002Y025256
X020896Y024813
X019951Y0244
X019252Y023996
X018898Y024104
X018642Y024596
X018209Y024675
X017766Y024567
X016752Y024783
X017283Y023681
X017421Y02249
X018248Y022657
X019459Y017461
X019892Y01748
X019843Y017067
X019951Y016309
X021201Y017392
X021319Y017992
X02126Y018642
X022185Y017303
X022776Y017215
X023406Y017008
X023652Y016211
X025069Y016033
X024567Y017648
X023976Y017598
X024134Y017982
X022185Y016073
X030295Y016644
X029685Y022146
X015404Y022795
X014951Y02122
X014596Y020817
X014774Y019646
Y019163
X014784Y018799
X014823Y018396
X01497Y017008
X014567Y016949
X012972
X012717Y016654
X013228Y015984
X013238Y018593
X013268Y019016
X013228Y019409
X013209Y019813
X012421Y020551
X011732Y020728
X011043Y020817
X011014Y022028
X011407Y022018
X012146Y022018
X01315Y02189
X01374
X013445Y021594
X013258Y023396
X012815Y023356
X012746Y02374
X013159Y024764
X014134Y025866
X012165
X010197
X010915Y02501
X010197Y023898
X011437Y023435
X010197Y021929
Y019961
Y017992
Y016024
X015423Y02501
T02
X031453Y018898
X030453
X029453
X028453
X027453
X026453
X025453
X024453
T03
X012642Y006935
Y007435
X013142
Y006935
X013642
Y007435
X014142
Y006935
X014642
Y007435
T04
X012303Y02378
X014035
T05
X019028Y007323
X020028
T06
X033169Y021693
Y024409
X031004
Y021693
T07
X022244Y007283
X033661
X033661Y018898
X022244
T08
X010984Y007047
Y01937
M30
