G04 Layer_Physical_Order=4*
G04 Layer_Color=16711680*
%FSTAX24Y24*%
%MOIN*%
G70*
G01*
G75*
%ADD10R,0.0354X0.0315*%
%ADD11R,0.0236X0.0197*%
%ADD13R,0.0110X0.0551*%
%ADD14R,0.0551X0.0335*%
%ADD15R,0.0197X0.0148*%
%ADD16R,0.0256X0.0118*%
%ADD17R,0.0197X0.0236*%
%ADD20R,0.0492X0.0374*%
%ADD21C,0.0591*%
%ADD24R,0.0236X0.0709*%
%ADD28R,0.0354X0.0709*%
%ADD29R,0.0709X0.0354*%
%ADD32R,0.0394X0.0669*%
%ADD33R,0.0315X0.0354*%
%ADD50C,0.0100*%
%ADD53C,0.0200*%
%ADD55C,0.0150*%
%ADD56C,0.0300*%
%ADD57C,0.0400*%
%ADD58C,0.0250*%
%ADD59C,0.0350*%
%ADD60R,0.2835X0.1260*%
%ADD61R,0.1102X0.2205*%
%ADD63C,0.0650*%
%ADD64R,0.0866X0.0866*%
%ADD65C,0.0866*%
%ADD66C,0.0394*%
%ADD67C,0.0500*%
%ADD68R,0.0500X0.0500*%
%ADD69C,0.0039*%
%ADD70C,0.0250*%
G04:AMPARAMS|DCode=71|XSize=37.4mil|YSize=49.2mil|CornerRadius=0mil|HoleSize=0mil|Usage=FLASHONLY|Rotation=135.000|XOffset=0mil|YOffset=0mil|HoleType=Round|Shape=Rectangle|*
%AMROTATEDRECTD71*
4,1,4,0.0306,0.0042,-0.0042,-0.0306,-0.0306,-0.0042,0.0042,0.0306,0.0306,0.0042,0.0*
%
%ADD71ROTATEDRECTD71*%

%ADD72R,0.0787X0.0472*%
%ADD73R,0.0197X0.0394*%
%ADD74R,0.0532X0.0157*%
%ADD75R,0.0236X0.0610*%
%ADD76R,0.0669X0.0394*%
%ADD77P,0.0835X4X360.0*%
%ADD78R,0.0551X0.0827*%
%ADD79R,0.0827X0.0551*%
%ADD80R,0.0335X0.0551*%
%ADD81R,0.1102X0.0866*%
%ADD82R,0.0315X0.0433*%
%ADD83R,0.0148X0.0197*%
%ADD84R,0.0118X0.0256*%
%ADD85R,0.0413X0.0236*%
%ADD86R,0.0299X0.0630*%
%ADD87R,0.0945X0.0299*%
%ADD88R,0.0138X0.0453*%
%ADD89R,0.0197X0.0906*%
%ADD90R,0.0787X0.0984*%
%ADD91C,0.0450*%
G36*
X035Y006063D02*
X01D01*
Y008425D01*
Y026063D01*
X035D01*
Y006063D01*
D02*
G37*
%LPC*%
G36*
X03492Y019989D02*
X034853D01*
Y019922D01*
X034893Y019949D01*
X03492Y019989D01*
D02*
G37*
G36*
X034753D02*
X034686D01*
X034713Y019949D01*
X034753Y019922D01*
Y019989D01*
D02*
G37*
G36*
X027391Y007833D02*
X027351Y007806D01*
X027324Y007766D01*
X027391D01*
Y007833D01*
D02*
G37*
G36*
X010147Y020078D02*
X010107Y020051D01*
X01008Y020011D01*
X010147D01*
Y020078D01*
D02*
G37*
G36*
X032912Y007706D02*
X032845D01*
Y007639D01*
X032885Y007666D01*
X032912Y007706D01*
D02*
G37*
G36*
X010247Y020078D02*
Y020011D01*
X010314D01*
X010287Y020051D01*
X010247Y020078D01*
D02*
G37*
G36*
X032745Y007706D02*
X032678D01*
X032705Y007666D01*
X032745Y007639D01*
Y007706D01*
D02*
G37*
G36*
X010247Y019093D02*
Y019026D01*
X010314D01*
X010287Y019066D01*
X010247Y019093D01*
D02*
G37*
G36*
X034753Y019172D02*
X034713Y019145D01*
X034686Y019105D01*
X034753D01*
Y019172D01*
D02*
G37*
G36*
X03492Y019005D02*
X034853D01*
Y018938D01*
X034893Y018965D01*
X03492Y019005D01*
D02*
G37*
G36*
X010147Y019093D02*
X010107Y019066D01*
X01008Y019026D01*
X010147D01*
Y019093D01*
D02*
G37*
G36*
X010314Y019911D02*
X010247D01*
Y019844D01*
X010287Y019871D01*
X010314Y019911D01*
D02*
G37*
G36*
X027491Y007833D02*
Y007766D01*
X027558D01*
X027531Y007806D01*
X027491Y007833D01*
D02*
G37*
G36*
X034853Y019172D02*
Y019105D01*
X03492D01*
X034893Y019145D01*
X034853Y019172D01*
D02*
G37*
G36*
X010147Y019911D02*
X01008D01*
X010107Y019871D01*
X010147Y019844D01*
Y019911D01*
D02*
G37*
G36*
X034753Y020156D02*
X034713Y020129D01*
X034686Y020089D01*
X034753D01*
Y020156D01*
D02*
G37*
G36*
X020078Y007644D02*
Y007373D01*
X020349D01*
X020344Y007408D01*
X020311Y007487D01*
X020259Y007554D01*
X020191Y007607D01*
X020112Y007639D01*
X020078Y007644D01*
D02*
G37*
G36*
X025107Y00745D02*
X025041D01*
X025067Y00741D01*
X025107Y007383D01*
Y00745D01*
D02*
G37*
G36*
X025274D02*
X025207D01*
Y007383D01*
X025248Y00741D01*
X025274Y00745D01*
D02*
G37*
G36*
X019978Y007644D02*
X019943Y007639D01*
X019864Y007607D01*
X019796Y007554D01*
X019744Y007487D01*
X019711Y007408D01*
X019707Y007373D01*
X019978D01*
Y007644D01*
D02*
G37*
G36*
X016545Y008317D02*
X015266D01*
Y007274D01*
X016545D01*
Y008317D01*
D02*
G37*
G36*
X034753Y007361D02*
X034713Y007334D01*
X034686Y007294D01*
X034753D01*
Y007361D01*
D02*
G37*
G36*
X034853D02*
Y007294D01*
X03492D01*
X034893Y007334D01*
X034853Y007361D01*
D02*
G37*
G36*
X025107Y007617D02*
X025067Y00759D01*
X025041Y00755D01*
X025107D01*
Y007617D01*
D02*
G37*
G36*
X027863Y007666D02*
X027796D01*
X027823Y007626D01*
X027863Y007599D01*
Y007666D01*
D02*
G37*
G36*
X02803D02*
X027963D01*
Y007599D01*
X028004Y007626D01*
X02803Y007666D01*
D02*
G37*
G36*
X034853Y020156D02*
Y020089D01*
X03492D01*
X034893Y020129D01*
X034853Y020156D01*
D02*
G37*
G36*
X027558Y007666D02*
X027491D01*
Y007599D01*
X027531Y007626D01*
X027558Y007666D01*
D02*
G37*
G36*
X025207Y007617D02*
Y00755D01*
X025274D01*
X025248Y00759D01*
X025207Y007617D01*
D02*
G37*
G36*
X020492Y020809D02*
X02042Y020794D01*
X020359Y020753D01*
X020318Y020692D01*
X020303Y02062D01*
X020318Y020548D01*
X020359Y020487D01*
X02042Y020446D01*
X020492Y020431D01*
X020564Y020446D01*
X020626Y020487D01*
X020666Y020548D01*
X020681Y02062D01*
X020666Y020692D01*
X020626Y020753D01*
X020564Y020794D01*
X020492Y020809D01*
D02*
G37*
G36*
X027391Y007666D02*
X027324D01*
X027351Y007626D01*
X027391Y007599D01*
Y007666D01*
D02*
G37*
G36*
X027558Y008217D02*
X027491D01*
Y00815D01*
X027531Y008177D01*
X027558Y008217D01*
D02*
G37*
G36*
X027391D02*
X027324D01*
X027351Y008177D01*
X027391Y00815D01*
Y008217D01*
D02*
G37*
G36*
X034753Y017204D02*
X034713Y017177D01*
X034686Y017137D01*
X034753D01*
Y017204D01*
D02*
G37*
G36*
X034853D02*
Y017137D01*
X03492D01*
X034893Y017177D01*
X034853Y017204D01*
D02*
G37*
G36*
X034753Y018021D02*
X034686D01*
X034713Y017981D01*
X034753Y017954D01*
Y018021D01*
D02*
G37*
G36*
X03492D02*
X034853D01*
Y017954D01*
X034893Y017981D01*
X03492Y018021D01*
D02*
G37*
G36*
X010147Y017942D02*
X01008D01*
X010107Y017902D01*
X010147Y017875D01*
Y017942D01*
D02*
G37*
G36*
X010314D02*
X010247D01*
Y017875D01*
X010287Y017902D01*
X010314Y017942D01*
D02*
G37*
G36*
X02803Y008217D02*
X027963D01*
Y00815D01*
X028004Y008177D01*
X02803Y008217D01*
D02*
G37*
G36*
X027863D02*
X027796D01*
X027823Y008177D01*
X027863Y00815D01*
Y008217D01*
D02*
G37*
G36*
X010314Y016958D02*
X010247D01*
Y016891D01*
X010287Y016918D01*
X010314Y016958D01*
D02*
G37*
G36*
X010147Y008267D02*
X010107Y00824D01*
X01008Y0082D01*
X010147D01*
Y008267D01*
D02*
G37*
G36*
Y017125D02*
X010107Y017098D01*
X01008Y017058D01*
X010147D01*
Y017125D01*
D02*
G37*
G36*
X010247D02*
Y017058D01*
X010314D01*
X010287Y017098D01*
X010247Y017125D01*
D02*
G37*
G36*
X034753Y017037D02*
X034686D01*
X034713Y016996D01*
X034753Y01697D01*
Y017037D01*
D02*
G37*
G36*
X03492D02*
X034853D01*
Y01697D01*
X034893Y016996D01*
X03492Y017037D01*
D02*
G37*
G36*
X027963Y007833D02*
Y007766D01*
X02803D01*
X028004Y007806D01*
X027963Y007833D01*
D02*
G37*
G36*
X027863D02*
X027823Y007806D01*
X027796Y007766D01*
X027863D01*
Y007833D01*
D02*
G37*
G36*
X034753Y018188D02*
X034713Y018161D01*
X034686Y018121D01*
X034753D01*
Y018188D01*
D02*
G37*
G36*
X034853D02*
Y018121D01*
X03492D01*
X034893Y018161D01*
X034853Y018188D01*
D02*
G37*
G36*
X010314Y018926D02*
X010247D01*
Y018859D01*
X010287Y018886D01*
X010314Y018926D01*
D02*
G37*
G36*
X034753Y019005D02*
X034686D01*
X034713Y018965D01*
X034753Y018938D01*
Y019005D01*
D02*
G37*
G36*
X010984Y020004D02*
X010861Y019992D01*
X010742Y019956D01*
X010632Y019897D01*
X010536Y019818D01*
X010457Y019722D01*
X010399Y019613D01*
X010363Y019494D01*
X01035Y01937D01*
X010363Y019246D01*
X010399Y019127D01*
X010457Y019018D01*
X010536Y018922D01*
X010632Y018843D01*
X010742Y018784D01*
X010861Y018748D01*
X010984Y018736D01*
X011108Y018748D01*
X011227Y018784D01*
X011336Y018843D01*
X011432Y018922D01*
X011511Y019018D01*
X01157Y019127D01*
X011606Y019246D01*
X011618Y01937D01*
X011606Y019494D01*
X01157Y019613D01*
X011511Y019722D01*
X011432Y019818D01*
X011336Y019897D01*
X011227Y019956D01*
X011108Y019992D01*
X010984Y020004D01*
D02*
G37*
G36*
X010147Y018926D02*
X01008D01*
X010107Y018886D01*
X010147Y018859D01*
Y018926D01*
D02*
G37*
G36*
X010314Y0081D02*
X010247D01*
Y008033D01*
X010287Y008059D01*
X010314Y0081D01*
D02*
G37*
G36*
X010147D02*
X01008D01*
X010107Y008059D01*
X010147Y008033D01*
Y0081D01*
D02*
G37*
G36*
X03492Y008178D02*
X034853D01*
Y008111D01*
X034893Y008138D01*
X03492Y008178D01*
D02*
G37*
G36*
X034753D02*
X034686D01*
X034713Y008138D01*
X034753Y008111D01*
Y008178D01*
D02*
G37*
G36*
X010147Y018109D02*
X010107Y018082D01*
X01008Y018042D01*
X010147D01*
Y018109D01*
D02*
G37*
G36*
X010247D02*
Y018042D01*
X010314D01*
X010287Y018082D01*
X010247Y018109D01*
D02*
G37*
G36*
X032845Y007873D02*
Y007806D01*
X032912D01*
X032885Y007846D01*
X032845Y007873D01*
D02*
G37*
G36*
X032745D02*
X032705Y007846D01*
X032678Y007806D01*
X032745D01*
Y007873D01*
D02*
G37*
G36*
X028593Y006377D02*
Y00631D01*
X02866D01*
X028633Y00635D01*
X028593Y006377D01*
D02*
G37*
G36*
X033119Y021643D02*
X032739D01*
X032747Y02158D01*
X032791Y021475D01*
X03286Y021384D01*
X032951Y021315D01*
X033056Y021271D01*
X033119Y021263D01*
Y021643D01*
D02*
G37*
G36*
X018917Y021508D02*
X018845Y021493D01*
X018784Y021452D01*
X018743Y021391D01*
X018729Y021319D01*
X018743Y021247D01*
X018784Y021186D01*
X018845Y021145D01*
X018917Y02113D01*
X01899Y021145D01*
X019051Y021186D01*
X019092Y021247D01*
X019106Y021319D01*
X019092Y021391D01*
X019051Y021452D01*
X01899Y021493D01*
X018917Y021508D01*
D02*
G37*
G36*
X029546Y006377D02*
X029506Y00635D01*
X02948Y00631D01*
X029546D01*
Y006377D01*
D02*
G37*
G36*
X02756D02*
Y00631D01*
X027627D01*
X0276Y00635D01*
X02756Y006377D01*
D02*
G37*
G36*
X02746D02*
X02742Y00635D01*
X027393Y00631D01*
X02746D01*
Y006377D01*
D02*
G37*
G36*
X0336Y021643D02*
X033219D01*
Y021263D01*
X033282Y021271D01*
X033388Y021315D01*
X033478Y021384D01*
X033548Y021475D01*
X033591Y02158D01*
X0336Y021643D01*
D02*
G37*
G36*
X028493Y006377D02*
X028453Y00635D01*
X028426Y00631D01*
X028493D01*
Y006377D01*
D02*
G37*
G36*
X032667D02*
X032626Y00635D01*
X0326Y00631D01*
X032667D01*
Y006377D01*
D02*
G37*
G36*
X031723D02*
Y00631D01*
X03179D01*
X031763Y00635D01*
X031723Y006377D01*
D02*
G37*
G36*
X033769D02*
X033729Y00635D01*
X033702Y00631D01*
X033769D01*
Y006377D01*
D02*
G37*
G36*
X032767D02*
Y00631D01*
X032833D01*
X032807Y00635D01*
X032767Y006377D01*
D02*
G37*
G36*
X03058D02*
X03054Y00635D01*
X030513Y00631D01*
X03058D01*
Y006377D01*
D02*
G37*
G36*
X029646D02*
Y00631D01*
X029713D01*
X029687Y00635D01*
X029646Y006377D01*
D02*
G37*
G36*
X031623D02*
X031583Y00635D01*
X031556Y00631D01*
X031623D01*
Y006377D01*
D02*
G37*
G36*
X03068D02*
Y00631D01*
X030747D01*
X03072Y00635D01*
X03068Y006377D01*
D02*
G37*
G36*
X020265Y0218D02*
X020198D01*
Y021733D01*
X020238Y02176D01*
X020265Y0218D01*
D02*
G37*
G36*
X02432Y006377D02*
X02428Y00635D01*
X024253Y00631D01*
X02432D01*
Y006377D01*
D02*
G37*
G36*
X013495Y021711D02*
Y021644D01*
X013562D01*
X013535Y021685D01*
X013495Y021711D01*
D02*
G37*
G36*
X020098Y0218D02*
X020031D01*
X020058Y02176D01*
X020098Y021733D01*
Y0218D01*
D02*
G37*
G36*
X033219Y022123D02*
Y021743D01*
X0336D01*
X033591Y021806D01*
X033548Y021911D01*
X033478Y022002D01*
X033388Y022071D01*
X033282Y022115D01*
X033219Y022123D01*
D02*
G37*
G36*
X0131Y02184D02*
X013033D01*
X013059Y0218D01*
X0131Y021773D01*
Y02184D01*
D02*
G37*
G36*
X033119Y022123D02*
X033056Y022115D01*
X032951Y022071D01*
X03286Y022002D01*
X032791Y021911D01*
X032747Y021806D01*
X032739Y021743D01*
X033119D01*
Y022123D01*
D02*
G37*
G36*
X023377Y006377D02*
Y00631D01*
X023444D01*
X023417Y00635D01*
X023377Y006377D01*
D02*
G37*
G36*
X013562Y021544D02*
X013495D01*
Y021478D01*
X013535Y021504D01*
X013562Y021544D01*
D02*
G37*
G36*
X026407Y006377D02*
X026367Y00635D01*
X02634Y00631D01*
X026407D01*
Y006377D01*
D02*
G37*
G36*
X026507D02*
Y00631D01*
X026574D01*
X026547Y00635D01*
X026507Y006377D01*
D02*
G37*
G36*
X013395Y021544D02*
X013328D01*
X013355Y021504D01*
X013395Y021478D01*
Y021544D01*
D02*
G37*
G36*
X02442Y006377D02*
Y00631D01*
X024487D01*
X02446Y00635D01*
X02442Y006377D01*
D02*
G37*
G36*
X013395Y021711D02*
X013355Y021685D01*
X013328Y021644D01*
X013395D01*
Y021711D01*
D02*
G37*
G36*
X025463Y006377D02*
Y00631D01*
X02553D01*
X025504Y00635D01*
X025463Y006377D01*
D02*
G37*
G36*
X025363D02*
X025323Y00635D01*
X025296Y00631D01*
X025363D01*
Y006377D01*
D02*
G37*
G36*
X013692Y007126D02*
Y006985D01*
X013832D01*
X013827Y007012D01*
X013784Y007077D01*
X013719Y00712D01*
X013692Y007126D01*
D02*
G37*
G36*
X024695Y02565D02*
X022864D01*
X022362Y025148D01*
X022067D01*
X02187Y024951D01*
Y024557D01*
X022165Y024262D01*
X022756D01*
X022953Y024065D01*
Y022884D01*
X022756Y022687D01*
X021526D01*
X021378Y022539D01*
Y022244D01*
X021476Y022146D01*
X02217D01*
X022189Y022122D01*
X022186Y022106D01*
X022195Y022058D01*
X022223Y022016D01*
X022263Y021989D01*
Y022106D01*
X022363D01*
Y021989D01*
X022403Y022016D01*
X022431Y022058D01*
X02244Y022106D01*
X022467Y022128D01*
X022477Y022129D01*
X022628Y021978D01*
Y021585D01*
X022776Y021437D01*
X023169D01*
X023366Y02124D01*
Y020846D01*
X023209Y020689D01*
X022195D01*
X022175Y020719D01*
X022187Y020778D01*
X022173Y02085D01*
X022132Y020912D01*
X022071Y020953D01*
X021999Y020967D01*
X021926Y020953D01*
X021865Y020912D01*
X021824Y02085D01*
X02181Y020778D01*
X021822Y020719D01*
X021802Y020689D01*
X021339D01*
X021043Y020394D01*
X019444D01*
X019425Y020417D01*
X019429Y020433D01*
X019419Y020482D01*
X019391Y020523D01*
X019351Y02055D01*
Y020433D01*
X019251D01*
Y02055D01*
X019211Y020523D01*
X019183Y020482D01*
X019174Y020435D01*
X019166Y02043D01*
X019145Y020421D01*
X018583Y020984D01*
X018189D01*
X01782Y020615D01*
X017717D01*
Y020866D01*
X017362D01*
Y020551D01*
X017205Y020394D01*
Y019508D01*
X017008Y019311D01*
X016516D01*
X016319Y019508D01*
Y020295D01*
X016122Y020492D01*
X015335D01*
Y021299D01*
X015039Y021594D01*
X014744D01*
X014547Y021398D01*
Y021201D01*
X014409Y021063D01*
X011959D01*
Y021654D01*
X012254D01*
X012648Y022047D01*
X013533D01*
X013711Y022224D01*
Y022264D01*
X013937D01*
Y023248D01*
X013711D01*
Y023996D01*
X01313Y024577D01*
X01252Y024567D01*
X01189Y023937D01*
Y022421D01*
X011855Y022393D01*
X011811Y022411D01*
Y022745D01*
X011417D01*
X011024D01*
Y022303D01*
X01112D01*
X011141Y022253D01*
X011053Y022165D01*
Y02188D01*
X011235Y021698D01*
Y021506D01*
X010837D01*
Y021033D01*
X011101D01*
X01112Y020987D01*
X011011Y020878D01*
Y020512D01*
X011208Y020315D01*
X011732D01*
X012126Y019921D01*
Y019016D01*
Y016735D01*
X012817Y016043D01*
Y014958D01*
X012618Y014759D01*
X011265D01*
X011043Y014537D01*
X010669D01*
Y014065D01*
X010899D01*
X010918Y014019D01*
X010394Y013494D01*
Y01315D01*
X010837Y012707D01*
X011637D01*
X011644Y012136D01*
X011988D01*
Y012646D01*
X012038Y012667D01*
X012195Y01251D01*
Y011801D01*
X012028Y011634D01*
X011457D01*
X011152Y011329D01*
Y010295D01*
X01063Y009774D01*
Y008583D01*
X012047Y007165D01*
X012527D01*
X012512Y007159D01*
X012459Y007118D01*
X012417Y007065D01*
X012391Y007002D01*
X012383Y006935D01*
X012391Y006868D01*
X012417Y006806D01*
X012459Y006752D01*
X012512Y006711D01*
X012575Y006685D01*
X012642Y006676D01*
X012709Y006685D01*
X012771Y006711D01*
X012825Y006752D01*
X012866Y006806D01*
X012892Y006867D01*
X012917Y006806D01*
X012959Y006752D01*
X013012Y006711D01*
X013075Y006685D01*
X013142Y006676D01*
X013209Y006685D01*
X013271Y006711D01*
X013325Y006752D01*
X013366Y006806D01*
X013392Y006868D01*
X013401Y006935D01*
X013392Y007002D01*
X013366Y007065D01*
X013325Y007118D01*
X013271Y007159D01*
X013257Y007165D01*
X014527D01*
X014512Y007159D01*
X014459Y007118D01*
X014417Y007065D01*
X014391Y007002D01*
X014383Y006935D01*
X014391Y006868D01*
X014417Y006806D01*
X014459Y006752D01*
X014512Y006711D01*
X014575Y006685D01*
X014642Y006676D01*
X014709Y006685D01*
X014771Y006711D01*
X014825Y006752D01*
X014866Y006806D01*
X014892Y006868D01*
X014901Y006935D01*
X014892Y007002D01*
X014866Y007065D01*
X014825Y007118D01*
X014771Y007159D01*
X014757Y007165D01*
X01498D01*
X015049Y007234D01*
Y008435D01*
X015374Y00876D01*
X016575D01*
X016722Y008907D01*
Y009941D01*
X016614Y010049D01*
X015778D01*
X015669Y010157D01*
Y010768D01*
X015827D01*
X015969Y010625D01*
X016126D01*
X016126Y010625D01*
X016188Y010584D01*
X01626Y010569D01*
X016332Y010584D01*
X016368Y010608D01*
Y010335D01*
X016671D01*
X016647Y010299D01*
X016632Y010226D01*
X016647Y010154D01*
X016687Y010093D01*
X016749Y010052D01*
X016821Y010038D01*
X016893Y010052D01*
X016954Y010093D01*
X016995Y010154D01*
X017009Y010226D01*
X016995Y010299D01*
X016954Y01036D01*
X016893Y010401D01*
X016821Y010415D01*
X016749Y010401D01*
X016722Y010383D01*
Y01064D01*
X016403D01*
X016407Y010646D01*
X016427D01*
X016427Y010646D01*
X01647Y010654D01*
X016506Y010679D01*
X016507Y010679D01*
X016722D01*
X016811Y010768D01*
Y011329D01*
X017077Y011594D01*
X01751D01*
X018278Y010827D01*
X018524Y010581D01*
Y01001D01*
Y009213D01*
Y008809D01*
X018346Y008632D01*
X018091Y008376D01*
X017175D01*
X017047Y008248D01*
X016919Y00812D01*
Y007313D01*
Y007303D01*
X017057Y007165D01*
X018386D01*
X018465Y007087D01*
X018701Y00685D01*
X019213D01*
X019488Y007126D01*
Y009646D01*
X019724Y009882D01*
X020541D01*
X020778Y009646D01*
Y009104D01*
X020984Y008898D01*
X021378D01*
X02157Y008706D01*
X022338D01*
X022411Y00878D01*
X022677D01*
Y009124D01*
X022411D01*
Y009208D01*
X022431Y009227D01*
X022672D01*
X022766Y009134D01*
Y008593D01*
X0225D01*
Y008248D01*
X022795D01*
X022933Y00811D01*
X023297D01*
X023533Y008346D01*
Y008711D01*
X023907D01*
Y009183D01*
X023553D01*
X024163Y009793D01*
Y010207D01*
X023868Y010502D01*
X023573D01*
X023474Y0106D01*
X02373D01*
Y010731D01*
X023731Y010729D01*
X023758Y010687D01*
X023798Y010661D01*
Y010778D01*
Y010894D01*
X023758Y010868D01*
X023731Y010826D01*
X02373Y010825D01*
Y010955D01*
X023415D01*
X023346Y011024D01*
X022785D01*
X022736Y010974D01*
X0225Y010738D01*
X02185D01*
X021476Y010364D01*
X020295D01*
X020236Y010423D01*
Y010453D01*
X02061D01*
Y010925D01*
X020236D01*
Y01122D01*
X020522Y011506D01*
X020561D01*
Y011289D01*
X021211D01*
Y011544D01*
X021212D01*
Y011566D01*
X021348Y011703D01*
Y01247D01*
X020758Y013061D01*
Y013356D01*
X020561Y013553D01*
X020443D01*
Y013553D01*
X020571D01*
Y013621D01*
X020364D01*
Y013721D01*
X020571D01*
Y013789D01*
X02065D01*
X020994Y013445D01*
Y013248D01*
X021093Y01315D01*
X021191Y013051D01*
X022205D01*
X022402Y013248D01*
Y013248D01*
X02247Y013317D01*
X022756D01*
Y013671D01*
X0225D01*
Y013839D01*
X022756D01*
Y014193D01*
X0225D01*
Y014665D01*
X022756Y014921D01*
X022854D01*
X022953Y014823D01*
Y014626D01*
X02315Y014429D01*
X023159D01*
Y014055D01*
X023333D01*
X023306Y014037D01*
X023279Y013997D01*
X023513D01*
X023486Y014037D01*
X023459Y014055D01*
X023632D01*
Y014429D01*
X02374D01*
X023829Y014341D01*
Y012864D01*
X023632Y012667D01*
X02314D01*
X022844Y012372D01*
Y012333D01*
X022254D01*
Y012096D01*
X022156Y011998D01*
Y011604D01*
Y011604D01*
X022254Y011506D01*
Y011289D01*
X022532D01*
X02253Y011289D01*
X022489Y011261D01*
X022462Y011221D01*
X022696D01*
X022669Y011261D01*
X022628Y011289D01*
X022626Y011289D01*
X022904D01*
Y011506D01*
X023307D01*
X023337Y011535D01*
X023533Y011732D01*
X023927D01*
X024026Y011634D01*
X024026D01*
Y010748D01*
X024459Y010315D01*
X02626D01*
X026654Y010709D01*
X027165D01*
X027441Y010433D01*
X027539D01*
Y009823D01*
X027992D01*
Y009882D01*
X028229Y009645D01*
Y007441D01*
X026614D01*
X026378Y007205D01*
X024291D01*
X024134Y007047D01*
Y006811D01*
X024291Y006654D01*
X030276D01*
X031732Y00811D01*
X033711D01*
X034134Y008533D01*
Y009154D01*
X034035Y009252D01*
Y00938D01*
X034331D01*
Y010217D01*
X034035D01*
Y010335D01*
X034134Y010433D01*
X034311D01*
X034409Y010532D01*
X034409Y010965D01*
X033794Y01158D01*
X033794Y014936D01*
X034409Y015551D01*
X034409Y016014D01*
X034075Y016348D01*
X033612D01*
X033514Y016447D01*
Y016703D01*
X034232D01*
Y017195D01*
X033514D01*
X033514Y018353D01*
X033515Y018352D01*
X033661Y018333D01*
X033808Y018352D01*
X033944Y018408D01*
X034061Y018498D01*
X034151Y018615D01*
X034207Y018751D01*
X034226Y018898D01*
X034207Y019044D01*
X034151Y01918D01*
X034061Y019297D01*
X033972Y019365D01*
X034409Y019803D01*
X034409Y020837D01*
X034183Y021063D01*
X03315D01*
X032205Y022008D01*
Y024882D01*
X031614Y025472D01*
X027431D01*
X026939Y02498D01*
X025955D01*
Y02498D01*
X025744Y024769D01*
X02572Y024805D01*
X02568Y024831D01*
Y024715D01*
X02563D01*
Y024665D01*
X025513D01*
X02554Y024624D01*
X025575Y024601D01*
X025561Y024587D01*
X025069D01*
X024872Y024783D01*
Y025472D01*
X024695Y02565D01*
D02*
G37*
G36*
X014192Y007126D02*
Y006985D01*
X014332D01*
X014327Y007012D01*
X014284Y007077D01*
X014219Y00712D01*
X014192Y007126D01*
D02*
G37*
G36*
X014092D02*
X014065Y00712D01*
X014Y007077D01*
X013956Y007012D01*
X013951Y006985D01*
X014092D01*
Y007126D01*
D02*
G37*
G36*
Y006885D02*
X013951D01*
X013956Y006858D01*
X014Y006793D01*
X014065Y00675D01*
X014092Y006744D01*
Y006885D01*
D02*
G37*
G36*
X013832D02*
X013692D01*
Y006744D01*
X013719Y00675D01*
X013784Y006793D01*
X013827Y006858D01*
X013832Y006885D01*
D02*
G37*
G36*
X013592Y007126D02*
X013565Y00712D01*
X0135Y007077D01*
X013456Y007012D01*
X013451Y006985D01*
X013592D01*
Y007126D01*
D02*
G37*
G36*
X014332Y006885D02*
X014192D01*
Y006744D01*
X014219Y00675D01*
X014284Y006793D01*
X014327Y006858D01*
X014332Y006885D01*
D02*
G37*
G36*
X03492Y007194D02*
X034853D01*
Y007127D01*
X034893Y007154D01*
X03492Y007194D01*
D02*
G37*
G36*
X034753D02*
X034686D01*
X034713Y007154D01*
X034753Y007127D01*
Y007194D01*
D02*
G37*
G36*
X010247Y007322D02*
Y007255D01*
X010314D01*
X010287Y007295D01*
X010247Y007322D01*
D02*
G37*
G36*
X010147D02*
X010107Y007295D01*
X01008Y007255D01*
X010147D01*
Y007322D01*
D02*
G37*
G36*
X020349Y007273D02*
X020078D01*
Y007002D01*
X020112Y007006D01*
X020191Y007039D01*
X020259Y007091D01*
X020311Y007159D01*
X020344Y007238D01*
X020349Y007273D01*
D02*
G37*
G36*
X019978D02*
X019707D01*
X019711Y007238D01*
X019744Y007159D01*
X019796Y007091D01*
X019864Y007039D01*
X019943Y007006D01*
X019978Y007002D01*
Y007273D01*
D02*
G37*
G36*
X010314Y007155D02*
X010247D01*
Y007088D01*
X010287Y007115D01*
X010314Y007155D01*
D02*
G37*
G36*
X010147D02*
X01008D01*
X010107Y007115D01*
X010147Y007088D01*
Y007155D01*
D02*
G37*
G36*
X034753Y006377D02*
X034713Y00635D01*
X034686Y00631D01*
X034753D01*
Y006377D01*
D02*
G37*
G36*
X033869D02*
Y00631D01*
X033936D01*
X033909Y00635D01*
X033869Y006377D01*
D02*
G37*
G36*
X023986Y006773D02*
X023914Y006759D01*
X023874Y006732D01*
X023853Y006718D01*
X023812Y006657D01*
X023798Y006585D01*
X023812Y006512D01*
X023853Y006451D01*
X023914Y00641D01*
X023986Y006396D01*
X024058Y00641D01*
X02412Y006451D01*
X02416Y006512D01*
X024175Y006585D01*
X02416Y006657D01*
X02412Y006718D01*
X024098Y006732D01*
X024058Y006759D01*
X023986Y006773D01*
D02*
G37*
G36*
X034853Y006377D02*
Y00631D01*
X03492D01*
X034893Y00635D01*
X034853Y006377D01*
D02*
G37*
G36*
X034753Y021141D02*
X034713Y021114D01*
X034686Y021074D01*
X034753D01*
Y021141D01*
D02*
G37*
G36*
X034853D02*
Y021074D01*
X03492D01*
X034893Y021114D01*
X034853Y021141D01*
D02*
G37*
G36*
X010147Y021062D02*
X010107Y021035D01*
X01008Y020995D01*
X010147D01*
Y021062D01*
D02*
G37*
G36*
X010247D02*
Y020995D01*
X010314D01*
X010287Y021035D01*
X010247Y021062D01*
D02*
G37*
G36*
X034753Y020974D02*
X034686D01*
X034713Y020933D01*
X034753Y020907D01*
Y020974D01*
D02*
G37*
G36*
X03492D02*
X034853D01*
Y020907D01*
X034893Y020933D01*
X03492Y020974D01*
D02*
G37*
G36*
X010147Y020895D02*
X01008D01*
X010107Y020855D01*
X010147Y020828D01*
Y020895D01*
D02*
G37*
G36*
X010314D02*
X010247D01*
Y020828D01*
X010287Y020855D01*
X010314Y020895D01*
D02*
G37*
G36*
X022244Y007848D02*
X022098Y007829D01*
X021962Y007773D01*
X021845Y007683D01*
X021755Y007566D01*
X021699Y00743D01*
X021679Y007283D01*
X021699Y007137D01*
X021755Y007001D01*
X021845Y006884D01*
X021962Y006794D01*
X022098Y006738D01*
X022244Y006719D01*
X02239Y006738D01*
X022527Y006794D01*
X022643Y006884D01*
X022733Y007001D01*
X02279Y007137D01*
X022809Y007283D01*
X02279Y00743D01*
X022733Y007566D01*
X022643Y007683D01*
X022527Y007773D01*
X02239Y007829D01*
X022244Y007848D01*
D02*
G37*
G36*
X010984Y007681D02*
X010861Y007669D01*
X010742Y007633D01*
X010632Y007574D01*
X010536Y007495D01*
X010457Y007399D01*
X010399Y00729D01*
X010363Y007171D01*
X01035Y007047D01*
X010363Y006924D01*
X010399Y006805D01*
X010457Y006695D01*
X010536Y006599D01*
X010632Y00652D01*
X010742Y006462D01*
X010861Y006426D01*
X010984Y006413D01*
X011108Y006426D01*
X011227Y006462D01*
X011336Y00652D01*
X011432Y006599D01*
X011511Y006695D01*
X01157Y006805D01*
X011606Y006924D01*
X011618Y007047D01*
X011606Y007171D01*
X01157Y00729D01*
X011511Y007399D01*
X011432Y007495D01*
X011336Y007574D01*
X011227Y007633D01*
X011108Y007669D01*
X010984Y007681D01*
D02*
G37*
G36*
X013592Y006885D02*
X013451D01*
X013456Y006858D01*
X0135Y006793D01*
X013565Y00675D01*
X013592Y006744D01*
Y006885D01*
D02*
G37*
G36*
X033661Y007848D02*
X033515Y007829D01*
X033379Y007773D01*
X033262Y007683D01*
X033172Y007566D01*
X033116Y00743D01*
X033097Y007283D01*
X033116Y007137D01*
X033172Y007001D01*
X033262Y006884D01*
X033379Y006794D01*
X033515Y006738D01*
X033661Y006719D01*
X033808Y006738D01*
X033944Y006794D01*
X034061Y006884D01*
X034151Y007001D01*
X034207Y007137D01*
X034226Y007283D01*
X034207Y00743D01*
X034151Y007566D01*
X034061Y007683D01*
X033944Y007773D01*
X033808Y007829D01*
X033661Y007848D01*
D02*
G37*
G36*
X010147Y016958D02*
X01008D01*
X010107Y016918D01*
X010147Y016891D01*
Y016958D01*
D02*
G37*
G36*
X034853Y010314D02*
Y010247D01*
X03492D01*
X034893Y010287D01*
X034853Y010314D01*
D02*
G37*
G36*
X01742Y010343D02*
X01738Y010316D01*
X017354Y010276D01*
X01742D01*
Y010343D01*
D02*
G37*
G36*
X01752D02*
Y010276D01*
X017587D01*
X017561Y010316D01*
X01752Y010343D01*
D02*
G37*
G36*
X034753Y010314D02*
X034713Y010287D01*
X034686Y010247D01*
X034753D01*
Y010314D01*
D02*
G37*
G36*
X010247Y010235D02*
Y010168D01*
X010314D01*
X010287Y010208D01*
X010247Y010235D01*
D02*
G37*
G36*
X023513Y013897D02*
X023446D01*
Y01383D01*
X023486Y013857D01*
X023513Y013897D01*
D02*
G37*
G36*
X023346D02*
X023279D01*
X023306Y013857D01*
X023346Y01383D01*
Y013897D01*
D02*
G37*
G36*
X016092Y010363D02*
X016025D01*
X016052Y010323D01*
X016092Y010296D01*
Y010363D01*
D02*
G37*
G36*
X010247Y013188D02*
Y013121D01*
X010314D01*
X010287Y013161D01*
X010247Y013188D01*
D02*
G37*
G36*
X010147D02*
X010107Y013161D01*
X01008Y013121D01*
X010147D01*
Y013188D01*
D02*
G37*
G36*
X016192Y01053D02*
Y010463D01*
X016259D01*
X016232Y010504D01*
X016192Y01053D01*
D02*
G37*
G36*
X034753Y013267D02*
X034713Y01324D01*
X034686Y0132D01*
X034753D01*
Y013267D01*
D02*
G37*
G36*
X016259Y010363D02*
X016192D01*
Y010296D01*
X016232Y010323D01*
X016259Y010363D01*
D02*
G37*
G36*
X016092Y01053D02*
X016052Y010504D01*
X016025Y010463D01*
X016092D01*
Y01053D01*
D02*
G37*
G36*
X034853Y013267D02*
Y0132D01*
X03492D01*
X034893Y01324D01*
X034853Y013267D01*
D02*
G37*
G36*
X010147Y010235D02*
X010107Y010208D01*
X01008Y010168D01*
X010147D01*
Y010235D01*
D02*
G37*
G36*
X03492Y010147D02*
X034853D01*
Y01008D01*
X034893Y010107D01*
X03492Y010147D01*
D02*
G37*
G36*
X01742Y010176D02*
X017354D01*
X01738Y010136D01*
X01742Y010109D01*
Y010176D01*
D02*
G37*
G36*
X017587D02*
X01752D01*
Y010109D01*
X017561Y010136D01*
X017587Y010176D01*
D02*
G37*
G36*
X034753Y010147D02*
X034686D01*
X034713Y010107D01*
X034753Y01008D01*
Y010147D01*
D02*
G37*
G36*
X020621Y009684D02*
Y009617D01*
X020688D01*
X020661Y009657D01*
X020621Y009684D01*
D02*
G37*
G36*
X010147Y010068D02*
X01008D01*
X010107Y010028D01*
X010147Y010001D01*
Y010068D01*
D02*
G37*
G36*
X010314D02*
X010247D01*
Y010001D01*
X010287Y010028D01*
X010314Y010068D01*
D02*
G37*
G36*
X034853Y014251D02*
Y014184D01*
X03492D01*
X034893Y014224D01*
X034853Y014251D01*
D02*
G37*
G36*
X034753Y014084D02*
X034686D01*
X034713Y014044D01*
X034753Y014017D01*
Y014084D01*
D02*
G37*
G36*
X010314Y014005D02*
X010247D01*
Y013938D01*
X010287Y013965D01*
X010314Y014005D01*
D02*
G37*
G36*
X010147D02*
X01008D01*
X010107Y013965D01*
X010147Y013938D01*
Y014005D01*
D02*
G37*
G36*
X03492Y014084D02*
X034853D01*
Y014017D01*
X034893Y014044D01*
X03492Y014084D01*
D02*
G37*
G36*
X034753Y014251D02*
X034713Y014224D01*
X034686Y014184D01*
X034753D01*
Y014251D01*
D02*
G37*
G36*
X010247Y014172D02*
Y014105D01*
X010314D01*
X010287Y014145D01*
X010247Y014172D01*
D02*
G37*
G36*
X010147D02*
X010107Y014145D01*
X01008Y014105D01*
X010147D01*
Y014172D01*
D02*
G37*
G36*
X03492Y0131D02*
X034853D01*
Y013033D01*
X034893Y013059D01*
X03492Y0131D01*
D02*
G37*
G36*
X010314Y011052D02*
X010247D01*
Y010985D01*
X010287Y011012D01*
X010314Y011052D01*
D02*
G37*
G36*
X022529Y011121D02*
X022462D01*
X022489Y011081D01*
X022529Y011054D01*
Y011121D01*
D02*
G37*
G36*
X022696D02*
X022629D01*
Y011054D01*
X022669Y011081D01*
X022696Y011121D01*
D02*
G37*
G36*
X010147Y011052D02*
X01008D01*
X010107Y011012D01*
X010147Y010985D01*
Y011052D01*
D02*
G37*
G36*
X023898Y010894D02*
Y010828D01*
X023965D01*
X023939Y010868D01*
X023898Y010894D01*
D02*
G37*
G36*
X020846Y011013D02*
X020779D01*
X020806Y010973D01*
X020846Y010946D01*
Y011013D01*
D02*
G37*
G36*
X021013D02*
X020946D01*
Y010946D01*
X020986Y010973D01*
X021013Y011013D01*
D02*
G37*
G36*
X034753Y011131D02*
X034686D01*
X034713Y011091D01*
X034753Y011064D01*
Y011131D01*
D02*
G37*
G36*
X034853Y011298D02*
Y011231D01*
X03492D01*
X034893Y011271D01*
X034853Y011298D01*
D02*
G37*
G36*
X034753D02*
X034713Y011271D01*
X034686Y011231D01*
X034753D01*
Y011298D01*
D02*
G37*
G36*
X010247Y011219D02*
Y011152D01*
X010314D01*
X010287Y011192D01*
X010247Y011219D01*
D02*
G37*
G36*
X010147D02*
X010107Y011192D01*
X01008Y011152D01*
X010147D01*
Y011219D01*
D02*
G37*
G36*
X03492Y011131D02*
X034853D01*
Y011064D01*
X034893Y011091D01*
X03492Y011131D01*
D02*
G37*
G36*
X020846Y01118D02*
X020806Y011153D01*
X020779Y011113D01*
X020846D01*
Y01118D01*
D02*
G37*
G36*
X020946D02*
Y011113D01*
X021013D01*
X020986Y011153D01*
X020946Y01118D01*
D02*
G37*
G36*
X010147Y012037D02*
X01008D01*
X010107Y011996D01*
X010147Y01197D01*
Y012037D01*
D02*
G37*
G36*
X022607Y012843D02*
X022567Y012816D01*
X022541Y012776D01*
X022607D01*
Y012843D01*
D02*
G37*
G36*
X022774Y012676D02*
X022707D01*
Y012609D01*
X022748Y012636D01*
X022774Y012676D01*
D02*
G37*
G36*
X022607D02*
X022541D01*
X022567Y012636D01*
X022607Y012609D01*
Y012676D01*
D02*
G37*
G36*
X022707Y012843D02*
Y012776D01*
X022774D01*
X022748Y012816D01*
X022707Y012843D01*
D02*
G37*
G36*
X034753Y0131D02*
X034686D01*
X034713Y013059D01*
X034753Y013033D01*
Y0131D01*
D02*
G37*
G36*
X010314Y013021D02*
X010247D01*
Y012954D01*
X010287Y012981D01*
X010314Y013021D01*
D02*
G37*
G36*
X010147D02*
X01008D01*
X010107Y012981D01*
X010147Y012954D01*
Y013021D01*
D02*
G37*
G36*
X023965Y010728D02*
X023898D01*
Y010661D01*
X023939Y010687D01*
X023965Y010728D01*
D02*
G37*
G36*
X03492Y012115D02*
X034853D01*
Y012048D01*
X034893Y012075D01*
X03492Y012115D01*
D02*
G37*
G36*
X034753D02*
X034686D01*
X034713Y012075D01*
X034753Y012048D01*
Y012115D01*
D02*
G37*
G36*
X010314Y012037D02*
X010247D01*
Y01197D01*
X010287Y011996D01*
X010314Y012037D01*
D02*
G37*
G36*
X010147Y012204D02*
X010107Y012177D01*
X01008Y012137D01*
X010147D01*
Y012204D01*
D02*
G37*
G36*
X034853Y012282D02*
Y012215D01*
X03492D01*
X034893Y012255D01*
X034853Y012282D01*
D02*
G37*
G36*
X034753D02*
X034713Y012255D01*
X034686Y012215D01*
X034753D01*
Y012282D01*
D02*
G37*
G36*
X010247Y012204D02*
Y012137D01*
X010314D01*
X010287Y012177D01*
X010247Y012204D01*
D02*
G37*
G36*
X010147Y014989D02*
X01008D01*
X010107Y014949D01*
X010147Y014922D01*
Y014989D01*
D02*
G37*
G36*
X027491Y008935D02*
Y008868D01*
X027558D01*
X027531Y008908D01*
X027491Y008935D01*
D02*
G37*
G36*
X034853Y016219D02*
Y016152D01*
X03492D01*
X034893Y016192D01*
X034853Y016219D01*
D02*
G37*
G36*
X034753D02*
X034713Y016192D01*
X034686Y016152D01*
X034753D01*
Y016219D01*
D02*
G37*
G36*
X027391Y008935D02*
X027351Y008908D01*
X027324Y008868D01*
X027391D01*
Y008935D01*
D02*
G37*
G36*
X027558Y008768D02*
X027491D01*
Y008701D01*
X027531Y008728D01*
X027558Y008768D01*
D02*
G37*
G36*
X027863D02*
X027796D01*
X027823Y008728D01*
X027863Y008701D01*
Y008768D01*
D02*
G37*
G36*
X02803D02*
X027963D01*
Y008701D01*
X028004Y008728D01*
X02803Y008768D01*
D02*
G37*
G36*
X010247Y016141D02*
Y016074D01*
X010314D01*
X010287Y016114D01*
X010247Y016141D01*
D02*
G37*
G36*
X034753Y016052D02*
X034686D01*
X034713Y016012D01*
X034753Y015985D01*
Y016052D01*
D02*
G37*
G36*
X010314Y015974D02*
X010247D01*
Y015907D01*
X010287Y015934D01*
X010314Y015974D01*
D02*
G37*
G36*
X010147D02*
X01008D01*
X010107Y015934D01*
X010147Y015907D01*
Y015974D01*
D02*
G37*
G36*
X03492Y016052D02*
X034853D01*
Y015985D01*
X034893Y016012D01*
X03492Y016052D01*
D02*
G37*
G36*
X010147Y016141D02*
X010107Y016114D01*
X01008Y016074D01*
X010147D01*
Y016141D01*
D02*
G37*
G36*
X027863Y008935D02*
X027823Y008908D01*
X027796Y008868D01*
X027863D01*
Y008935D01*
D02*
G37*
G36*
X027963D02*
Y008868D01*
X02803D01*
X028004Y008908D01*
X027963Y008935D01*
D02*
G37*
G36*
X027391Y008768D02*
X027324D01*
X027351Y008728D01*
X027391Y008701D01*
Y008768D01*
D02*
G37*
G36*
X027491Y008384D02*
Y008317D01*
X027558D01*
X027531Y008357D01*
X027491Y008384D01*
D02*
G37*
G36*
X027863D02*
X027823Y008357D01*
X027796Y008317D01*
X027863D01*
Y008384D01*
D02*
G37*
G36*
X027963D02*
Y008317D01*
X02803D01*
X028004Y008357D01*
X027963Y008384D01*
D02*
G37*
G36*
X027391D02*
X027351Y008357D01*
X027324Y008317D01*
X027391D01*
Y008384D01*
D02*
G37*
G36*
X010247Y008267D02*
Y0082D01*
X010314D01*
X010287Y00824D01*
X010247Y008267D01*
D02*
G37*
G36*
X034753Y008345D02*
X034713Y008318D01*
X034686Y008278D01*
X034753D01*
Y008345D01*
D02*
G37*
G36*
X034853D02*
Y008278D01*
X03492D01*
X034893Y008318D01*
X034853Y008345D01*
D02*
G37*
G36*
X022263Y008503D02*
X022196D01*
X022223Y008463D01*
X022263Y008436D01*
Y008503D01*
D02*
G37*
G36*
X022363Y00867D02*
Y008603D01*
X02243D01*
X022403Y008643D01*
X022363Y00867D01*
D02*
G37*
G36*
X023641Y00869D02*
X023601Y008663D01*
X023574Y008623D01*
X023641D01*
Y00869D01*
D02*
G37*
G36*
X023741D02*
Y008623D01*
X023808D01*
X023781Y008663D01*
X023741Y00869D01*
D02*
G37*
G36*
X022263Y00867D02*
X022223Y008643D01*
X022196Y008603D01*
X022263D01*
Y00867D01*
D02*
G37*
G36*
X02243Y008503D02*
X022363D01*
Y008436D01*
X022403Y008463D01*
X02243Y008503D01*
D02*
G37*
G36*
X023641Y008523D02*
X023574D01*
X023601Y008483D01*
X023641Y008456D01*
Y008523D01*
D02*
G37*
G36*
X023808D02*
X023741D01*
Y008456D01*
X023781Y008483D01*
X023808Y008523D01*
D02*
G37*
G36*
X018435Y00998D02*
X017156D01*
Y008937D01*
X018435D01*
Y00998D01*
D02*
G37*
G36*
X027491Y009486D02*
Y009419D01*
X027558D01*
X027531Y00946D01*
X027491Y009486D01*
D02*
G37*
G36*
X020521Y009517D02*
X020454D01*
X020481Y009477D01*
X020521Y00945D01*
Y009517D01*
D02*
G37*
G36*
X020688D02*
X020621D01*
Y00945D01*
X020661Y009477D01*
X020688Y009517D01*
D02*
G37*
G36*
X027391Y009486D02*
X027351Y00946D01*
X027324Y009419D01*
X027391D01*
Y009486D01*
D02*
G37*
G36*
X024991Y009398D02*
Y009331D01*
X025058D01*
X025031Y009372D01*
X024991Y009398D01*
D02*
G37*
G36*
X027863Y009486D02*
X027823Y00946D01*
X027796Y009419D01*
X027863D01*
Y009486D01*
D02*
G37*
G36*
X027963D02*
Y009419D01*
X02803D01*
X028004Y00946D01*
X027963Y009486D01*
D02*
G37*
G36*
X034853Y015235D02*
Y015168D01*
X03492D01*
X034893Y015208D01*
X034853Y015235D01*
D02*
G37*
G36*
X03492Y015068D02*
X034853D01*
Y015001D01*
X034893Y015028D01*
X03492Y015068D01*
D02*
G37*
G36*
X034753D02*
X034686D01*
X034713Y015028D01*
X034753Y015001D01*
Y015068D01*
D02*
G37*
G36*
X010314Y014989D02*
X010247D01*
Y014922D01*
X010287Y014949D01*
X010314Y014989D01*
D02*
G37*
G36*
X010147Y015156D02*
X010107Y015129D01*
X01008Y015089D01*
X010147D01*
Y015156D01*
D02*
G37*
G36*
X034753Y015235D02*
X034713Y015208D01*
X034686Y015168D01*
X034753D01*
Y015235D01*
D02*
G37*
G36*
X020521Y009684D02*
X020481Y009657D01*
X020454Y009617D01*
X020521D01*
Y009684D01*
D02*
G37*
G36*
X010247Y015156D02*
Y015089D01*
X010314D01*
X010287Y015129D01*
X010247Y015156D01*
D02*
G37*
G36*
X024891Y009398D02*
X024851Y009372D01*
X024824Y009331D01*
X024891D01*
Y009398D01*
D02*
G37*
G36*
X011122Y015947D02*
X01105Y015932D01*
X010989Y015891D01*
X010948Y01583D01*
X010933Y015758D01*
X010948Y015686D01*
X010989Y015625D01*
X01105Y015584D01*
X011122Y015569D01*
X011194Y015584D01*
X011255Y015625D01*
X011296Y015686D01*
X011311Y015758D01*
X011296Y01583D01*
X011255Y015891D01*
X011194Y015932D01*
X011122Y015947D01*
D02*
G37*
G36*
X024891Y009232D02*
X024824D01*
X024851Y009191D01*
X024891Y009165D01*
Y009232D01*
D02*
G37*
G36*
X025058D02*
X024991D01*
Y009165D01*
X025031Y009191D01*
X025058Y009232D01*
D02*
G37*
G36*
X03492Y009163D02*
X034853D01*
Y009096D01*
X034893Y009122D01*
X03492Y009163D01*
D02*
G37*
G36*
X010147Y009084D02*
X01008D01*
X010107Y009044D01*
X010147Y009017D01*
Y009084D01*
D02*
G37*
G36*
X010314D02*
X010247D01*
Y009017D01*
X010287Y009044D01*
X010314Y009084D01*
D02*
G37*
G36*
X034753Y009163D02*
X034686D01*
X034713Y009122D01*
X034753Y009096D01*
Y009163D01*
D02*
G37*
G36*
X010147Y009251D02*
X010107Y009224D01*
X01008Y009184D01*
X010147D01*
Y009251D01*
D02*
G37*
G36*
X027558Y009319D02*
X027491D01*
Y009253D01*
X027531Y009279D01*
X027558Y009319D01*
D02*
G37*
G36*
X034753Y00933D02*
X034713Y009303D01*
X034686Y009263D01*
X034753D01*
Y00933D01*
D02*
G37*
G36*
X034853D02*
Y009263D01*
X03492D01*
X034893Y009303D01*
X034853Y00933D01*
D02*
G37*
G36*
X027391Y009319D02*
X027324D01*
X027351Y009279D01*
X027391Y009253D01*
Y009319D01*
D02*
G37*
G36*
X010247Y009251D02*
Y009184D01*
X010314D01*
X010287Y009224D01*
X010247Y009251D01*
D02*
G37*
G36*
X027863Y009319D02*
X027796D01*
X027823Y009279D01*
X027863Y009253D01*
Y009319D01*
D02*
G37*
G36*
X02803D02*
X027963D01*
Y009253D01*
X028004Y009279D01*
X02803Y009319D01*
D02*
G37*
G36*
X016574Y00621D02*
X016507D01*
Y006143D01*
X016547Y00617D01*
X016574Y00621D01*
D02*
G37*
G36*
X016407D02*
X01634D01*
X016367Y00617D01*
X016407Y006143D01*
Y00621D01*
D02*
G37*
G36*
X033808Y025983D02*
X033768Y025956D01*
X033741Y025916D01*
X033808D01*
Y025983D01*
D02*
G37*
G36*
X017509Y00621D02*
X017442D01*
X017469Y00617D01*
X017509Y006143D01*
Y00621D01*
D02*
G37*
G36*
X014487D02*
X01442D01*
Y006143D01*
X01446Y00617D01*
X014487Y00621D01*
D02*
G37*
G36*
X01432D02*
X014253D01*
X01428Y00617D01*
X01432Y006143D01*
Y00621D01*
D02*
G37*
G36*
X01554D02*
X015473D01*
Y006143D01*
X015513Y00617D01*
X01554Y00621D01*
D02*
G37*
G36*
X015373D02*
X015306D01*
X015333Y00617D01*
X015373Y006143D01*
Y00621D01*
D02*
G37*
G36*
X034753Y025983D02*
X034713Y025956D01*
X034686Y025916D01*
X034753D01*
Y025983D01*
D02*
G37*
G36*
X011367Y025492D02*
X011024D01*
Y02505D01*
X011367D01*
Y025492D01*
D02*
G37*
G36*
X02061Y025374D02*
X018445D01*
X018307Y025236D01*
X018259D01*
Y025039D01*
X018159D01*
Y025236D01*
X01811D01*
X01811Y025236D01*
Y025236D01*
X018077Y02527D01*
X017972Y025374D01*
Y025374D01*
X017185D01*
X017133Y025322D01*
X017116Y025329D01*
Y024803D01*
X017215Y024705D01*
Y024664D01*
X017195Y024642D01*
X017185Y024642D01*
X016851D01*
Y024406D01*
Y024169D01*
X017185D01*
X017195Y024169D01*
X017215Y024147D01*
Y023957D01*
X017057Y023799D01*
Y023465D01*
X017156Y023366D01*
X019419D01*
X019813Y02376D01*
X020305Y024252D01*
Y024547D01*
X020699Y024941D01*
Y025285D01*
X02061Y025374D01*
D02*
G37*
G36*
X034853Y025983D02*
Y025916D01*
X03492D01*
X034893Y025956D01*
X034853Y025983D01*
D02*
G37*
G36*
X015315Y025492D02*
X014971D01*
Y02505D01*
X015315D01*
Y025492D01*
D02*
G37*
G36*
X033908Y025983D02*
Y025916D01*
X033975D01*
X033948Y025956D01*
X033908Y025983D01*
D02*
G37*
G36*
X014871Y025492D02*
X014528D01*
Y02505D01*
X014871D01*
Y025492D01*
D02*
G37*
G36*
X011811D02*
X011467D01*
Y02505D01*
X011811D01*
Y025492D01*
D02*
G37*
G36*
X010147Y025816D02*
X01008D01*
X010107Y025776D01*
X010147Y025749D01*
Y025816D01*
D02*
G37*
G36*
X010314D02*
X010247D01*
Y025749D01*
X010287Y025776D01*
X010314Y025816D01*
D02*
G37*
G36*
Y00621D02*
X010247D01*
Y006143D01*
X010287Y00617D01*
X010314Y00621D01*
D02*
G37*
G36*
X010147D02*
X01008D01*
X010107Y00617D01*
X010147Y006143D01*
Y00621D01*
D02*
G37*
G36*
X031979Y025983D02*
Y025916D01*
X032046D01*
X032019Y025956D01*
X031979Y025983D01*
D02*
G37*
G36*
X012115Y025816D02*
X012048D01*
X012075Y025776D01*
X012115Y025749D01*
Y025816D01*
D02*
G37*
G36*
X011131D02*
X011064D01*
X011091Y025776D01*
X011131Y025749D01*
Y025816D01*
D02*
G37*
G36*
X011298D02*
X011231D01*
Y025749D01*
X011271Y025776D01*
X011298Y025816D01*
D02*
G37*
G36*
X0124Y00621D02*
X012333D01*
Y006143D01*
X012374Y00617D01*
X0124Y00621D01*
D02*
G37*
G36*
X012233D02*
X012167D01*
X012193Y00617D01*
X012233Y006143D01*
Y00621D01*
D02*
G37*
G36*
X013444D02*
X013377D01*
Y006143D01*
X013417Y00617D01*
X013444Y00621D01*
D02*
G37*
G36*
X013277D02*
X01321D01*
X013237Y00617D01*
X013277Y006143D01*
Y00621D01*
D02*
G37*
G36*
X011377D02*
X01131D01*
Y006143D01*
X01135Y00617D01*
X011377Y00621D01*
D02*
G37*
G36*
X01121D02*
X011143D01*
X01117Y00617D01*
X01121Y006143D01*
Y00621D01*
D02*
G37*
G36*
X032963Y025983D02*
Y025916D01*
X03303D01*
X033004Y025956D01*
X032963Y025983D01*
D02*
G37*
G36*
X032863D02*
X032823Y025956D01*
X032796Y025916D01*
X032863D01*
Y025983D01*
D02*
G37*
G36*
X023444Y00621D02*
X023377D01*
Y006143D01*
X023417Y00617D01*
X023444Y00621D01*
D02*
G37*
G36*
X023277D02*
X02321D01*
X023237Y00617D01*
X023277Y006143D01*
Y00621D01*
D02*
G37*
G36*
X024487D02*
X02442D01*
Y006143D01*
X02446Y00617D01*
X024487Y00621D01*
D02*
G37*
G36*
X02432D02*
X024253D01*
X02428Y00617D01*
X02432Y006143D01*
Y00621D01*
D02*
G37*
G36*
X021515D02*
X021448D01*
Y006143D01*
X021488Y00617D01*
X021515Y00621D01*
D02*
G37*
G36*
X02558Y024831D02*
X02554Y024805D01*
X025513Y024765D01*
X02558D01*
Y024831D01*
D02*
G37*
G36*
X0224Y00621D02*
X022333D01*
Y006143D01*
X022374Y00617D01*
X0224Y00621D01*
D02*
G37*
G36*
X022233D02*
X022167D01*
X022193Y00617D01*
X022233Y006143D01*
Y00621D01*
D02*
G37*
G36*
X027627D02*
X02756D01*
Y006143D01*
X0276Y00617D01*
X027627Y00621D01*
D02*
G37*
G36*
X02746D02*
X027393D01*
X02742Y00617D01*
X02746Y006143D01*
Y00621D01*
D02*
G37*
G36*
X02866D02*
X028593D01*
Y006143D01*
X028633Y00617D01*
X02866Y00621D01*
D02*
G37*
G36*
X028493D02*
X028426D01*
X028453Y00617D01*
X028493Y006143D01*
Y00621D01*
D02*
G37*
G36*
X02553D02*
X025463D01*
Y006143D01*
X025504Y00617D01*
X02553Y00621D01*
D02*
G37*
G36*
X025363D02*
X025296D01*
X025323Y00617D01*
X025363Y006143D01*
Y00621D01*
D02*
G37*
G36*
X026574D02*
X026507D01*
Y006143D01*
X026547Y00617D01*
X026574Y00621D01*
D02*
G37*
G36*
X026407D02*
X02634D01*
X026367Y00617D01*
X026407Y006143D01*
Y00621D01*
D02*
G37*
G36*
X018493D02*
X018426D01*
X018453Y00617D01*
X018493Y006143D01*
Y00621D01*
D02*
G37*
G36*
X017676D02*
X017609D01*
Y006143D01*
X017649Y00617D01*
X017676Y00621D01*
D02*
G37*
G36*
X019478D02*
X019411D01*
X019437Y00617D01*
X019478Y006143D01*
Y00621D01*
D02*
G37*
G36*
X01866D02*
X018593D01*
Y006143D01*
X018633Y00617D01*
X01866Y00621D01*
D02*
G37*
G36*
X034753Y025038D02*
X034713Y025011D01*
X034686Y024971D01*
X034753D01*
Y025038D01*
D02*
G37*
G36*
X034853D02*
Y024971D01*
X03492D01*
X034893Y025011D01*
X034853Y025038D01*
D02*
G37*
G36*
X010147Y024999D02*
X010107Y024972D01*
X01008Y024932D01*
X010147D01*
Y024999D01*
D02*
G37*
G36*
X010247D02*
Y024932D01*
X010314D01*
X010287Y024972D01*
X010247Y024999D01*
D02*
G37*
G36*
X034753Y024871D02*
X034686D01*
X034713Y024831D01*
X034753Y024804D01*
Y024871D01*
D02*
G37*
G36*
X03492D02*
X034853D01*
Y024804D01*
X034893Y024831D01*
X03492Y024871D01*
D02*
G37*
G36*
X010147Y024832D02*
X01008D01*
X010107Y024792D01*
X010147Y024765D01*
Y024832D01*
D02*
G37*
G36*
X010314D02*
X010247D01*
Y024765D01*
X010287Y024792D01*
X010314Y024832D01*
D02*
G37*
G36*
X020462Y00621D02*
X020395D01*
X020422Y00617D01*
X020462Y006143D01*
Y00621D01*
D02*
G37*
G36*
X019644D02*
X019578D01*
Y006143D01*
X019618Y00617D01*
X019644Y00621D01*
D02*
G37*
G36*
X021348D02*
X021281D01*
X021308Y00617D01*
X021348Y006143D01*
Y00621D01*
D02*
G37*
G36*
X020629D02*
X020562D01*
Y006143D01*
X020602Y00617D01*
X020629Y00621D01*
D02*
G37*
G36*
X033975Y025816D02*
X033908D01*
Y025749D01*
X033948Y025776D01*
X033975Y025816D01*
D02*
G37*
G36*
X034753D02*
X034686D01*
X034713Y025776D01*
X034753Y025749D01*
Y025816D01*
D02*
G37*
G36*
X03303D02*
X032963D01*
Y025749D01*
X033004Y025776D01*
X03303Y025816D01*
D02*
G37*
G36*
X033808D02*
X033741D01*
X033768Y025776D01*
X033808Y025749D01*
Y025816D01*
D02*
G37*
G36*
X010247Y025983D02*
Y025916D01*
X010314D01*
X010287Y025956D01*
X010247Y025983D01*
D02*
G37*
G36*
X011131D02*
X011091Y025956D01*
X011064Y025916D01*
X011131D01*
Y025983D01*
D02*
G37*
G36*
X03492Y025816D02*
X034853D01*
Y025749D01*
X034893Y025776D01*
X03492Y025816D01*
D02*
G37*
G36*
X010147Y025983D02*
X010107Y025956D01*
X01008Y025916D01*
X010147D01*
Y025983D01*
D02*
G37*
G36*
X032046Y025816D02*
X031979D01*
Y025749D01*
X032019Y025776D01*
X032046Y025816D01*
D02*
G37*
G36*
X020678Y025983D02*
X020638Y025956D01*
X020611Y025916D01*
X020678D01*
Y025983D01*
D02*
G37*
G36*
X0237Y025816D02*
X023633D01*
Y025749D01*
X023673Y025776D01*
X0237Y025816D01*
D02*
G37*
G36*
X031879D02*
X031812D01*
X031839Y025776D01*
X031879Y025749D01*
Y025816D01*
D02*
G37*
G36*
X018908Y025983D02*
Y025916D01*
X018975D01*
X018948Y025956D01*
X018908Y025983D01*
D02*
G37*
G36*
X032863Y025816D02*
X032796D01*
X032823Y025776D01*
X032863Y025749D01*
Y025816D01*
D02*
G37*
G36*
X019853Y025983D02*
Y025916D01*
X01992D01*
X019893Y025956D01*
X019853Y025983D01*
D02*
G37*
G36*
X019753D02*
X019713Y025956D01*
X019686Y025916D01*
X019753D01*
Y025983D01*
D02*
G37*
G36*
X017038D02*
Y025916D01*
X017105D01*
X017078Y025956D01*
X017038Y025983D01*
D02*
G37*
G36*
X015068D02*
X015028Y025956D01*
X015001Y025916D01*
X015068D01*
Y025983D01*
D02*
G37*
G36*
X014184D02*
Y025916D01*
X014251D01*
X014224Y025956D01*
X014184Y025983D01*
D02*
G37*
G36*
X017863D02*
X017823Y025956D01*
X017796Y025916D01*
X017863D01*
Y025983D01*
D02*
G37*
G36*
X016074D02*
Y025916D01*
X016141D01*
X016114Y025956D01*
X016074Y025983D01*
D02*
G37*
G36*
X015974D02*
X015934Y025956D01*
X015907Y025916D01*
X015974D01*
Y025983D01*
D02*
G37*
G36*
X015168D02*
Y025916D01*
X015235D01*
X015208Y025956D01*
X015168Y025983D01*
D02*
G37*
G36*
X016938D02*
X016898Y025956D01*
X016871Y025916D01*
X016938D01*
Y025983D01*
D02*
G37*
G36*
X012215D02*
Y025916D01*
X012282D01*
X012255Y025956D01*
X012215Y025983D01*
D02*
G37*
G36*
X018808D02*
X018768Y025956D01*
X018741Y025916D01*
X018808D01*
Y025983D01*
D02*
G37*
G36*
X011231D02*
Y025916D01*
X011298D01*
X011271Y025956D01*
X011231Y025983D01*
D02*
G37*
G36*
X012115D02*
X012075Y025956D01*
X012048Y025916D01*
X012115D01*
Y025983D01*
D02*
G37*
G36*
X0132D02*
Y025916D01*
X013267D01*
X01324Y025956D01*
X0132Y025983D01*
D02*
G37*
G36*
X014084D02*
X014044Y025956D01*
X014017Y025916D01*
X014084D01*
Y025983D01*
D02*
G37*
G36*
X017963D02*
Y025916D01*
X01803D01*
X018004Y025956D01*
X017963Y025983D01*
D02*
G37*
G36*
X0131D02*
X013059Y025956D01*
X013033Y025916D01*
X0131D01*
Y025983D01*
D02*
G37*
G36*
X023633D02*
Y025916D01*
X0237D01*
X023673Y025956D01*
X023633Y025983D01*
D02*
G37*
G36*
X023533D02*
X023493Y025956D01*
X023466Y025916D01*
X023533D01*
Y025983D01*
D02*
G37*
G36*
X015974Y025816D02*
X015907D01*
X015934Y025776D01*
X015974Y025749D01*
Y025816D01*
D02*
G37*
G36*
X016141D02*
X016074D01*
Y025749D01*
X016114Y025776D01*
X016141Y025816D01*
D02*
G37*
G36*
X016938D02*
X016871D01*
X016898Y025776D01*
X016938Y025749D01*
Y025816D01*
D02*
G37*
G36*
X017105D02*
X017038D01*
Y025749D01*
X017078Y025776D01*
X017105Y025816D01*
D02*
G37*
G36*
X022688Y025983D02*
Y025916D01*
X022755D01*
X022728Y025956D01*
X022688Y025983D01*
D02*
G37*
G36*
X022588D02*
X022548Y025956D01*
X022521Y025916D01*
X022588D01*
Y025983D01*
D02*
G37*
G36*
X0131Y025816D02*
X013033D01*
X013059Y025776D01*
X0131Y025749D01*
Y025816D01*
D02*
G37*
G36*
X013267D02*
X0132D01*
Y025749D01*
X01324Y025776D01*
X013267Y025816D01*
D02*
G37*
G36*
X012282D02*
X012215D01*
Y025749D01*
X012255Y025776D01*
X012282Y025816D01*
D02*
G37*
G36*
X031879Y025983D02*
X031839Y025956D01*
X031812Y025916D01*
X031879D01*
Y025983D01*
D02*
G37*
G36*
X015068Y025816D02*
X015001D01*
X015028Y025776D01*
X015068Y025749D01*
Y025816D01*
D02*
G37*
G36*
X015235D02*
X015168D01*
Y025749D01*
X015208Y025776D01*
X015235Y025816D01*
D02*
G37*
G36*
X014084D02*
X014017D01*
X014044Y025776D01*
X014084Y025749D01*
Y025816D01*
D02*
G37*
G36*
X014251D02*
X014184D01*
Y025749D01*
X014224Y025776D01*
X014251Y025816D01*
D02*
G37*
G36*
X020845D02*
X020778D01*
Y025749D01*
X020818Y025776D01*
X020845Y025816D01*
D02*
G37*
G36*
X021643D02*
X021576D01*
X021603Y025776D01*
X021643Y025749D01*
Y025816D01*
D02*
G37*
G36*
X01992D02*
X019853D01*
Y025749D01*
X019881Y025768D01*
D01*
X019893Y025776D01*
X01992Y025816D01*
D02*
G37*
G36*
X020678D02*
X020611D01*
X020638Y025776D01*
X020651Y025768D01*
D01*
X020678Y025749D01*
Y025816D01*
D02*
G37*
G36*
X022755D02*
X022688D01*
Y025749D01*
X022728Y025776D01*
X022755Y025816D01*
D02*
G37*
G36*
X023533D02*
X023466D01*
X023493Y025776D01*
X023533Y025749D01*
Y025816D01*
D02*
G37*
G36*
X02181D02*
X021743D01*
Y025749D01*
X021783Y025776D01*
X02181Y025816D01*
D02*
G37*
G36*
X022588D02*
X022521D01*
X022548Y025776D01*
X022588Y025749D01*
Y025816D01*
D02*
G37*
G36*
X020778Y025983D02*
Y025916D01*
X020845D01*
X020818Y025956D01*
X020778Y025983D01*
D02*
G37*
G36*
X017863Y025816D02*
X017796D01*
X017823Y025776D01*
X017836Y025768D01*
D01*
X017863Y025749D01*
Y025816D01*
D02*
G37*
G36*
X021743Y025983D02*
Y025916D01*
X02181D01*
X021783Y025956D01*
X021743Y025983D01*
D02*
G37*
G36*
X021643D02*
X021603Y025956D01*
X021576Y025916D01*
X021643D01*
Y025983D01*
D02*
G37*
G36*
X018975Y025816D02*
X018908D01*
Y025749D01*
X018936Y025768D01*
D01*
X018948Y025776D01*
X018975Y025816D01*
D02*
G37*
G36*
X019753D02*
X019686D01*
X019713Y025776D01*
X019725Y025768D01*
D01*
X019753Y025749D01*
Y025816D01*
D02*
G37*
G36*
X01803D02*
X017963D01*
Y025749D01*
X017991Y025768D01*
D01*
X018004Y025776D01*
X01803Y025816D01*
D02*
G37*
G36*
X018808D02*
X018741D01*
X018768Y025776D01*
X018781Y025768D01*
D01*
X018808Y025749D01*
Y025816D01*
D02*
G37*
G36*
X029546Y00621D02*
X02948D01*
X029506Y00617D01*
X029546Y006143D01*
Y00621D01*
D02*
G37*
G36*
X018298Y022774D02*
Y022707D01*
X018365D01*
X018338Y022748D01*
X018298Y022774D01*
D02*
G37*
G36*
X010147Y022863D02*
X01008D01*
X010107Y022823D01*
X010147Y022796D01*
Y022863D01*
D02*
G37*
G36*
X021309Y02289D02*
X020965D01*
Y022704D01*
X021309D01*
Y02289D01*
D02*
G37*
G36*
X018198Y022774D02*
X018158Y022748D01*
X018131Y022707D01*
X018198D01*
Y022774D01*
D02*
G37*
G36*
X011367Y023287D02*
X011024D01*
Y022845D01*
X011367D01*
Y023287D01*
D02*
G37*
G36*
X014871D02*
X014528D01*
Y022845D01*
X014871D01*
Y023287D01*
D02*
G37*
G36*
X010314Y022863D02*
X010247D01*
Y022796D01*
X010287Y022823D01*
X010314Y022863D01*
D02*
G37*
G36*
X016507Y006377D02*
Y00631D01*
X016574D01*
X016547Y00635D01*
X016507Y006377D01*
D02*
G37*
G36*
X021309Y022604D02*
X020965D01*
Y022417D01*
X021309D01*
Y022604D01*
D02*
G37*
G36*
X018198Y022607D02*
X018131D01*
X018158Y022567D01*
X018198Y022541D01*
Y022607D01*
D02*
G37*
G36*
X017195Y022604D02*
X016851D01*
Y022417D01*
X017195D01*
Y022604D01*
D02*
G37*
G36*
X020865D02*
X020522D01*
Y022417D01*
X020865D01*
Y022604D01*
D02*
G37*
G36*
X016751Y02289D02*
X016407D01*
Y022704D01*
X016751D01*
Y02289D01*
D02*
G37*
G36*
X017195D02*
X016851D01*
Y022704D01*
X017195D01*
Y02289D01*
D02*
G37*
G36*
X018365Y022607D02*
X018298D01*
Y022541D01*
X018338Y022567D01*
X018365Y022607D01*
D02*
G37*
G36*
X020865Y02289D02*
X020522D01*
Y022704D01*
X020865D01*
Y02289D01*
D02*
G37*
G36*
X034753Y023109D02*
X034713Y023082D01*
X034686Y023042D01*
X034753D01*
Y023109D01*
D02*
G37*
G36*
X034853D02*
Y023042D01*
X03492D01*
X034893Y023082D01*
X034853Y023109D01*
D02*
G37*
G36*
X021653Y023089D02*
X021613Y023063D01*
X021586Y023022D01*
X021653D01*
Y023089D01*
D02*
G37*
G36*
X021753D02*
Y023022D01*
X02182D01*
X021793Y023063D01*
X021753Y023089D01*
D02*
G37*
G36*
X021653Y023464D02*
X021586D01*
X021613Y023424D01*
X021653Y023397D01*
Y023464D01*
D02*
G37*
G36*
X02182D02*
X021753D01*
Y023397D01*
X021793Y023424D01*
X02182Y023464D01*
D02*
G37*
G36*
X022165Y023444D02*
X022098D01*
X022124Y023404D01*
X022165Y023377D01*
Y023444D01*
D02*
G37*
G36*
X022331D02*
X022265D01*
Y023377D01*
X022305Y023404D01*
X022331Y023444D01*
D02*
G37*
G36*
X021653Y022922D02*
X021586D01*
X021613Y022882D01*
X021653Y022856D01*
Y022922D01*
D02*
G37*
G36*
X02182D02*
X021753D01*
Y022856D01*
X021793Y022882D01*
X02182Y022922D01*
D02*
G37*
G36*
X011811Y023287D02*
X011467D01*
Y022845D01*
X011811D01*
Y023287D01*
D02*
G37*
G36*
X015315D02*
X014971D01*
Y022845D01*
X015315D01*
Y023287D01*
D02*
G37*
G36*
X010147Y02303D02*
X010107Y023004D01*
X01008Y022963D01*
X010147D01*
Y02303D01*
D02*
G37*
G36*
X010247D02*
Y022963D01*
X010314D01*
X010287Y023004D01*
X010247Y02303D01*
D02*
G37*
G36*
X034753Y022942D02*
X034686D01*
X034713Y022902D01*
X034753Y022875D01*
Y022942D01*
D02*
G37*
G36*
X03492D02*
X034853D01*
Y022875D01*
X034893Y022902D01*
X03492Y022942D01*
D02*
G37*
G36*
X016751Y022604D02*
X016407D01*
Y022417D01*
X016751D01*
Y022604D01*
D02*
G37*
G36*
X022333Y006377D02*
Y00631D01*
X0224D01*
X022374Y00635D01*
X022333Y006377D01*
D02*
G37*
G36*
X022233D02*
X022193Y00635D01*
X022167Y00631D01*
X022233D01*
Y006377D01*
D02*
G37*
G36*
X020198Y021967D02*
Y0219D01*
X020265D01*
X020238Y021941D01*
X020198Y021967D01*
D02*
G37*
G36*
X023277Y006377D02*
X023237Y00635D01*
X02321Y00631D01*
X023277D01*
Y006377D01*
D02*
G37*
G36*
X020562D02*
Y00631D01*
X020629D01*
X020602Y00635D01*
X020562Y006377D01*
D02*
G37*
G36*
X0131Y022007D02*
X013059Y02198D01*
X013033Y02194D01*
X0131D01*
Y022007D01*
D02*
G37*
G36*
X021448Y006377D02*
Y00631D01*
X021515D01*
X021488Y00635D01*
X021448Y006377D01*
D02*
G37*
G36*
X021348D02*
X021308Y00635D01*
X021281Y00631D01*
X021348D01*
Y006377D01*
D02*
G37*
G36*
X013857Y02184D02*
X01379D01*
Y021773D01*
X01383Y0218D01*
X013857Y02184D01*
D02*
G37*
G36*
X010147Y021879D02*
X01008D01*
X010107Y021839D01*
X010147Y021812D01*
Y021879D01*
D02*
G37*
G36*
X013267Y02184D02*
X0132D01*
Y021773D01*
X01324Y0218D01*
X013267Y02184D01*
D02*
G37*
G36*
X01369D02*
X013623D01*
X01365Y0218D01*
X01369Y021773D01*
Y02184D01*
D02*
G37*
G36*
X03492Y021958D02*
X034853D01*
Y021891D01*
X034893Y021918D01*
X03492Y021958D01*
D02*
G37*
G36*
X020098Y021967D02*
X020058Y021941D01*
X020031Y0219D01*
X020098D01*
Y021967D01*
D02*
G37*
G36*
X010314Y021879D02*
X010247D01*
Y021812D01*
X010287Y021839D01*
X010314Y021879D01*
D02*
G37*
G36*
X034753Y021958D02*
X034686D01*
X034713Y021918D01*
X034753Y021891D01*
Y021958D01*
D02*
G37*
G36*
X018593Y006377D02*
Y00631D01*
X01866D01*
X018633Y00635D01*
X018593Y006377D01*
D02*
G37*
G36*
X018493D02*
X018453Y00635D01*
X018426Y00631D01*
X018493D01*
Y006377D01*
D02*
G37*
G36*
X019578D02*
Y00631D01*
X019644D01*
X019618Y00635D01*
X019578Y006377D01*
D02*
G37*
G36*
X019478D02*
X019437Y00635D01*
X019411Y00631D01*
X019478D01*
Y006377D01*
D02*
G37*
G36*
X014871Y022745D02*
X014528D01*
Y022303D01*
X014871D01*
Y022745D01*
D02*
G37*
G36*
X015315D02*
X014971D01*
Y022303D01*
X015315D01*
Y022745D01*
D02*
G37*
G36*
X017609Y006377D02*
Y00631D01*
X017676D01*
X017649Y00635D01*
X017609Y006377D01*
D02*
G37*
G36*
X017509D02*
X017469Y00635D01*
X017442Y00631D01*
X017509D01*
Y006377D01*
D02*
G37*
G36*
X01379Y022007D02*
Y02194D01*
X013857D01*
X01383Y02198D01*
X01379Y022007D01*
D02*
G37*
G36*
X010147Y022046D02*
X010107Y022019D01*
X01008Y021979D01*
X010147D01*
Y022046D01*
D02*
G37*
G36*
X0132Y022007D02*
Y02194D01*
X013267D01*
X01324Y02198D01*
X0132Y022007D01*
D02*
G37*
G36*
X01369D02*
X01365Y02198D01*
X013623Y02194D01*
X01369D01*
Y022007D01*
D02*
G37*
G36*
X034853Y022125D02*
Y022058D01*
X03492D01*
X034893Y022098D01*
X034853Y022125D01*
D02*
G37*
G36*
X020462Y006377D02*
X020422Y00635D01*
X020395Y00631D01*
X020462D01*
Y006377D01*
D02*
G37*
G36*
X010247Y022046D02*
Y021979D01*
X010314D01*
X010287Y022019D01*
X010247Y022046D01*
D02*
G37*
G36*
X034753Y022125D02*
X034713Y022098D01*
X034686Y022058D01*
X034753D01*
Y022125D01*
D02*
G37*
G36*
X016407Y006377D02*
X016367Y00635D01*
X01634Y00631D01*
X016407D01*
Y006377D01*
D02*
G37*
G36*
X010147D02*
X010107Y00635D01*
X01008Y00631D01*
X010147D01*
Y006377D01*
D02*
G37*
G36*
X016751Y024356D02*
X016407D01*
Y024169D01*
X016751D01*
Y024356D01*
D02*
G37*
G36*
X021753Y024172D02*
Y024105D01*
X02182D01*
X021793Y024145D01*
X021753Y024172D01*
D02*
G37*
G36*
X010247Y006377D02*
Y00631D01*
X010314D01*
X010287Y00635D01*
X010247Y006377D01*
D02*
G37*
G36*
X03492Y00621D02*
X034853D01*
Y006143D01*
X034893Y00617D01*
X03492Y00621D01*
D02*
G37*
G36*
X034753D02*
X034686D01*
X034713Y00617D01*
X034753Y006143D01*
Y00621D01*
D02*
G37*
G36*
X020865Y024356D02*
X020522D01*
Y024169D01*
X020865D01*
Y024356D01*
D02*
G37*
G36*
X021309D02*
X020965D01*
Y024169D01*
X021309D01*
Y024356D01*
D02*
G37*
G36*
X021653Y024172D02*
X021613Y024145D01*
X021586Y024105D01*
X021653D01*
Y024172D01*
D02*
G37*
G36*
X01131Y006377D02*
Y00631D01*
X011377D01*
X01135Y00635D01*
X01131Y006377D01*
D02*
G37*
G36*
X01121D02*
X01117Y00635D01*
X011143Y00631D01*
X01121D01*
Y006377D01*
D02*
G37*
G36*
X010147Y024015D02*
X010107Y023988D01*
X01008Y023948D01*
X010147D01*
Y024015D01*
D02*
G37*
G36*
X010247D02*
Y023948D01*
X010314D01*
X010287Y023988D01*
X010247Y024015D01*
D02*
G37*
G36*
X034753Y024093D02*
X034713Y024067D01*
X034686Y024026D01*
X034753D01*
Y024093D01*
D02*
G37*
G36*
X034853D02*
Y024026D01*
X03492D01*
X034893Y024067D01*
X034853Y024093D01*
D02*
G37*
G36*
X033119Y024359D02*
X032739D01*
X032747Y024296D01*
X032791Y024191D01*
X03286Y024101D01*
X032951Y024031D01*
X033056Y023988D01*
X033119Y023979D01*
Y024359D01*
D02*
G37*
G36*
X0336D02*
X033219D01*
Y023979D01*
X033282Y023988D01*
X033388Y024031D01*
X033478Y024101D01*
X033548Y024191D01*
X033591Y024296D01*
X0336Y024359D01*
D02*
G37*
G36*
X033936Y00621D02*
X033869D01*
Y006143D01*
X033909Y00617D01*
X033936Y00621D01*
D02*
G37*
G36*
X029713D02*
X029646D01*
Y006143D01*
X029687Y00617D01*
X029713Y00621D01*
D02*
G37*
G36*
X033219Y02484D02*
Y024459D01*
X0336D01*
X033591Y024523D01*
X033548Y024628D01*
X033478Y024718D01*
X033388Y024788D01*
X033282Y024831D01*
X033219Y02484D01*
D02*
G37*
G36*
X03058Y00621D02*
X030513D01*
X03054Y00617D01*
X03058Y006143D01*
Y00621D01*
D02*
G37*
G36*
X033119Y02484D02*
X033056Y024831D01*
X032951Y024788D01*
X03286Y024718D01*
X032791Y024628D01*
X032747Y024523D01*
X032739Y024459D01*
X033119D01*
Y02484D01*
D02*
G37*
G36*
X014871Y02495D02*
X014528D01*
Y024508D01*
X014871D01*
Y02495D01*
D02*
G37*
G36*
X015315D02*
X014971D01*
Y024508D01*
X015315D01*
Y02495D01*
D02*
G37*
G36*
X011367D02*
X011024D01*
Y024508D01*
X011367D01*
Y02495D01*
D02*
G37*
G36*
X011811D02*
X011467D01*
Y024508D01*
X011811D01*
Y02495D01*
D02*
G37*
G36*
X021309Y024642D02*
X020965D01*
Y024456D01*
X021309D01*
Y024642D01*
D02*
G37*
G36*
X032667Y00621D02*
X0326D01*
X032626Y00617D01*
X032667Y006143D01*
Y00621D01*
D02*
G37*
G36*
X03179D02*
X031723D01*
Y006143D01*
X031763Y00617D01*
X03179Y00621D01*
D02*
G37*
G36*
X033769D02*
X033702D01*
X033729Y00617D01*
X033769Y006143D01*
Y00621D01*
D02*
G37*
G36*
X032833D02*
X032767D01*
Y006143D01*
X032807Y00617D01*
X032833Y00621D01*
D02*
G37*
G36*
X020865Y024642D02*
X020522D01*
Y024456D01*
X020865D01*
Y024642D01*
D02*
G37*
G36*
X016751D02*
X016407D01*
Y024456D01*
X016751D01*
Y024642D01*
D02*
G37*
G36*
X031623Y00621D02*
X031556D01*
X031583Y00617D01*
X031623Y006143D01*
Y00621D01*
D02*
G37*
G36*
X030747D02*
X03068D01*
Y006143D01*
X03072Y00617D01*
X030747Y00621D01*
D02*
G37*
G36*
X01432Y006377D02*
X01428Y00635D01*
X014253Y00631D01*
X01432D01*
Y006377D01*
D02*
G37*
G36*
X010147Y023848D02*
X01008D01*
X010107Y023808D01*
X010147Y023781D01*
Y023848D01*
D02*
G37*
G36*
X015373Y006377D02*
X015333Y00635D01*
X015306Y00631D01*
X015373D01*
Y006377D01*
D02*
G37*
G36*
X01442D02*
Y00631D01*
X014487D01*
X01446Y00635D01*
X01442Y006377D01*
D02*
G37*
G36*
X022658Y023857D02*
Y02379D01*
X022725D01*
X022698Y02383D01*
X022658Y023857D01*
D02*
G37*
G36*
X034753Y023926D02*
X034686D01*
X034713Y023886D01*
X034753Y023859D01*
Y023926D01*
D02*
G37*
G36*
X010314Y023848D02*
X010247D01*
Y023781D01*
X010287Y023808D01*
X010314Y023848D01*
D02*
G37*
G36*
X022558Y023857D02*
X022518Y02383D01*
X022491Y02379D01*
X022558D01*
Y023857D01*
D02*
G37*
G36*
X022265Y023611D02*
Y023544D01*
X022331D01*
X022305Y023584D01*
X022265Y023611D01*
D02*
G37*
G36*
X021653Y023631D02*
X021613Y023604D01*
X021586Y023564D01*
X021653D01*
Y023631D01*
D02*
G37*
G36*
X014035Y024021D02*
X013943Y024003D01*
X013864Y023951D01*
X013812Y023872D01*
X013794Y02378D01*
X013812Y023687D01*
X013864Y023609D01*
X013943Y023556D01*
X014035Y023538D01*
X014128Y023556D01*
X014206Y023609D01*
X014259Y023687D01*
X014277Y02378D01*
X014259Y023872D01*
X014206Y023951D01*
X014128Y024003D01*
X014035Y024021D01*
D02*
G37*
G36*
X022165Y023611D02*
X022124Y023584D01*
X022098Y023544D01*
X022165D01*
Y023611D01*
D02*
G37*
G36*
X022725Y02369D02*
X022658D01*
Y023623D01*
X022698Y02365D01*
X022725Y02369D01*
D02*
G37*
G36*
X015473Y006377D02*
Y00631D01*
X01554D01*
X015513Y00635D01*
X015473Y006377D01*
D02*
G37*
G36*
X021753Y023631D02*
Y023564D01*
X02182D01*
X021793Y023604D01*
X021753Y023631D01*
D02*
G37*
G36*
X022558Y02369D02*
X022491D01*
X022518Y02365D01*
X022558Y023623D01*
Y02369D01*
D02*
G37*
G36*
X03492Y023926D02*
X034853D01*
Y023859D01*
X034893Y023886D01*
X03492Y023926D01*
D02*
G37*
G36*
X02182Y024005D02*
X021753D01*
Y023938D01*
X021793Y023965D01*
X02182Y024005D01*
D02*
G37*
G36*
X012333Y006377D02*
Y00631D01*
X0124D01*
X012374Y00635D01*
X012333Y006377D01*
D02*
G37*
G36*
X021653Y024005D02*
X021586D01*
X021613Y023965D01*
X021653Y023938D01*
Y024005D01*
D02*
G37*
G36*
X012233Y006377D02*
X012193Y00635D01*
X012167Y00631D01*
X012233D01*
Y006377D01*
D02*
G37*
G36*
X013277D02*
X013237Y00635D01*
X01321Y00631D01*
X013277D01*
Y006377D01*
D02*
G37*
G36*
X013377D02*
Y00631D01*
X013444D01*
X013417Y00635D01*
X013377Y006377D01*
D02*
G37*
%LPD*%
G36*
X026161Y012283D02*
Y010512D01*
X024488D01*
X024193Y010807D01*
X024193D01*
Y011791D01*
X024291Y01189D01*
X024587D01*
X025079Y012382D01*
X026063D01*
X026161Y012283D01*
D02*
G37*
G36*
X014783Y010532D02*
X014783Y010138D01*
X015157Y009764D01*
Y00935D01*
Y009341D01*
X015059Y009242D01*
X014173D01*
X013484Y008553D01*
X013386D01*
Y009045D01*
X013287Y009144D01*
X012392Y009144D01*
X012293Y009242D01*
Y010266D01*
X012392Y010364D01*
X013278D01*
X013474Y010561D01*
X013543Y01063D01*
X014685D01*
X014783Y010532D01*
D02*
G37*
G36*
X020166Y016458D02*
Y016426D01*
X020177D01*
Y016181D01*
X020768D01*
Y015787D01*
X020659Y015679D01*
X02061Y01563D01*
Y015394D01*
X020502Y015285D01*
X020394D01*
Y015669D01*
X019921D01*
Y015236D01*
X019961D01*
X019843Y015118D01*
Y014754D01*
Y014587D01*
X019508Y014252D01*
X019498Y014242D01*
Y013976D01*
Y013858D01*
X019606Y01375D01*
X019596D01*
Y013702D01*
X019715D01*
Y013602D01*
X019596D01*
Y013553D01*
X019754D01*
Y013553D01*
X018907D01*
X018524Y013937D01*
X017904D01*
X017785Y013819D01*
Y013839D01*
X01747D01*
Y013484D01*
X017736D01*
Y013425D01*
X017687Y013376D01*
X017047D01*
X01685Y013573D01*
X016732Y013691D01*
Y01373D01*
X016909D01*
Y014006D01*
X016732D01*
Y014026D01*
X017028Y014321D01*
Y014793D01*
X017165Y014931D01*
X017795D01*
X017943Y015079D01*
X019242D01*
X019518Y015354D01*
X019656Y015492D01*
Y015827D01*
Y016319D01*
X019823Y016486D01*
X020138D01*
X020166Y016458D01*
D02*
G37*
G36*
X015039Y017825D02*
X016102D01*
Y018159D01*
X016329Y017933D01*
Y017618D01*
X016545Y017402D01*
Y017008D01*
X016447Y016909D01*
X016348D01*
X016093Y017165D01*
X015876D01*
X015699Y016988D01*
Y016772D01*
X016024Y016447D01*
X016378D01*
X016437Y016388D01*
Y016329D01*
X01626D01*
Y016093D01*
X014961D01*
X014665Y016388D01*
Y016722D01*
X014833Y01689D01*
Y017037D01*
X014854Y017059D01*
X014854Y017058D01*
X015087D01*
X015068Y017087D01*
X015364D01*
X015433Y017156D01*
X015699D01*
Y01749D01*
X015404D01*
Y017461D01*
X015285Y017579D01*
X014803D01*
X014734Y01751D01*
X014134Y016909D01*
X013425D01*
X013297Y017037D01*
Y018012D01*
X013474Y018189D01*
X013504D01*
Y017825D01*
X014567D01*
Y018189D01*
X015039D01*
Y017825D01*
D02*
G37*
G36*
X027077Y015335D02*
X027144D01*
X027118Y015297D01*
X027235D01*
Y015197D01*
X027118D01*
X027145Y015156D01*
X027186Y015129D01*
X027235Y015119D01*
X027272Y015126D01*
X027264Y015118D01*
X027126D01*
X027013Y015005D01*
X026786D01*
X026575Y015217D01*
Y01561D01*
X027067Y016102D01*
X027077D01*
Y015335D01*
D02*
G37*
G36*
X013573Y023967D02*
Y02377D01*
X013415Y023612D01*
X012726D01*
Y023612D01*
X012628Y023514D01*
Y023364D01*
X012626Y023356D01*
X012628Y023348D01*
Y023209D01*
X012589D01*
Y022756D01*
Y022303D01*
X012628D01*
Y022244D01*
X012195Y021811D01*
X011407D01*
X01124Y021978D01*
Y022175D01*
X01127Y022205D01*
X01189D01*
Y022205D01*
X012028Y022343D01*
Y023898D01*
X01252Y02439D01*
X012569Y024439D01*
X0131D01*
X013573Y023967D01*
D02*
G37*
G36*
X029272Y013012D02*
X029065D01*
Y012657D01*
X029321D01*
Y01249D01*
X029065D01*
Y012136D01*
X029321D01*
Y012096D01*
X029508Y011909D01*
X030079D01*
X030089Y0119D01*
X030837D01*
X031722Y011014D01*
X032795D01*
X032844Y011063D01*
X032992D01*
X033061Y010994D01*
Y009646D01*
X033051Y009636D01*
X032441Y009026D01*
X030679D01*
X029813Y009892D01*
Y010719D01*
X029734Y010797D01*
X029626D01*
Y011201D01*
X028957D01*
Y010797D01*
X028671D01*
X028346Y011122D01*
X027756D01*
X027677Y011201D01*
Y01315D01*
X029134D01*
X029272Y013012D01*
D02*
G37*
G36*
X034252Y020768D02*
Y020719D01*
Y019862D01*
X033957Y019567D01*
X033573D01*
X033169Y01997D01*
Y020817D01*
X033268Y020915D01*
X034104D01*
X034252Y020768D01*
D02*
G37*
G36*
X031654Y024921D02*
Y023937D01*
Y023937D01*
X031457Y02374D01*
X030472D01*
Y02374D01*
X030276Y023937D01*
Y024232D01*
X029783Y024724D01*
X029291D01*
X029232Y024665D01*
Y024567D01*
X029132Y024466D01*
X029152Y024497D01*
X029085D01*
Y02443D01*
X029116Y024451D01*
X029035Y02437D01*
X027559D01*
X027461Y024469D01*
Y025256D01*
X027549Y025344D01*
X03123D01*
X031654Y024921D01*
D02*
G37*
G36*
X030896Y014705D02*
Y014587D01*
Y013602D01*
X031093Y013406D01*
X031339D01*
X031437Y013307D01*
Y013209D01*
Y012815D01*
X031732Y01252D01*
Y011634D01*
X031683Y011585D01*
X031673D01*
Y01187D01*
X031378D01*
Y011585D01*
X030896Y012067D01*
X029596D01*
X029528Y012136D01*
X029764D01*
Y01249D01*
X029518D01*
X029518Y012667D01*
X029764D01*
Y013002D01*
X029508D01*
X029213Y013297D01*
X02873D01*
Y01373D01*
X028179D01*
Y013789D01*
X028273Y013883D01*
X029104D01*
X029321Y014099D01*
X029321Y014606D01*
X029518Y014803D01*
X030797D01*
X030896Y014705D01*
D02*
G37*
G36*
X02811Y016782D02*
Y015896D01*
X028671Y015335D01*
Y01503D01*
X02812D01*
Y014557D01*
X02811Y014547D01*
X027667D01*
Y01497D01*
X027264D01*
X027323Y015039D01*
X027392D01*
X02752Y015167D01*
Y016122D01*
X027795D01*
Y01688D01*
X028012D01*
X02811Y016782D01*
D02*
G37*
G36*
X034154Y016053D02*
X033396D01*
Y015571D01*
X034144D01*
X03375Y015177D01*
X030876D01*
X030778Y015276D01*
Y015512D01*
X031131D01*
Y015787D01*
Y016063D01*
X030778D01*
Y016063D01*
X030915Y016201D01*
X034006D01*
X034154Y016053D01*
D02*
G37*
G36*
X030482Y023425D02*
X031575D01*
X031929Y023071D01*
Y021978D01*
X033022Y020886D01*
X033022Y019882D01*
X033287Y019616D01*
Y019317D01*
X033262Y019297D01*
X033172Y01918D01*
X033116Y019044D01*
X033097Y018898D01*
X033116Y018751D01*
X033172Y018615D01*
X033262Y018498D01*
X033287Y018479D01*
Y016585D01*
X033258Y016555D01*
X033022Y016319D01*
X032067D01*
X032037Y016348D01*
X031831Y016555D01*
Y017057D01*
Y017746D01*
X031732Y017844D01*
X031634Y017943D01*
X03065D01*
X0303Y017593D01*
X0303Y017446D01*
X030098Y017244D01*
X03002D01*
Y01747D01*
X029606D01*
X029193D01*
Y017244D01*
X029114D01*
X028878Y01748D01*
Y017943D01*
X02953Y018595D01*
X029534Y018596D01*
X029609Y018627D01*
X029674Y018677D01*
X029724Y018741D01*
X029755Y018817D01*
X029755Y01882D01*
X029961Y019026D01*
Y019518D01*
Y02001D01*
X029705Y020266D01*
X029536Y020435D01*
X029536Y021716D01*
X029646Y021826D01*
X029808D01*
X029961Y021978D01*
Y023071D01*
X029906Y023125D01*
X029906Y023893D01*
X029961Y023947D01*
X030482Y023425D01*
D02*
G37*
G36*
X030768Y01757D02*
X031181D01*
Y01752D01*
X031231D01*
Y017244D01*
X031594D01*
Y016703D01*
X031201Y016309D01*
X030709D01*
X030512Y016112D01*
X030512Y015276D01*
X030413Y015177D01*
X029547D01*
X029213Y015512D01*
X029556D01*
Y015787D01*
Y016063D01*
X029203D01*
Y016644D01*
X029656Y017096D01*
X030148D01*
X030443Y017392D01*
Y01749D01*
X030738Y017785D01*
X030768D01*
Y01757D01*
D02*
G37*
G36*
X032333Y014685D02*
Y013799D01*
X032136Y013602D01*
X0319D01*
Y013966D01*
X031624D01*
X031348D01*
Y013602D01*
X031152D01*
X031053Y013701D01*
Y014724D01*
X031132Y014803D01*
X032215D01*
X032333Y014685D01*
D02*
G37*
%LPC*%
G36*
X025503Y010855D02*
Y010788D01*
X02557D01*
X025543Y010828D01*
X025503Y010855D01*
D02*
G37*
G36*
X025895D02*
X025855Y010828D01*
X025828Y010788D01*
X025895D01*
Y010855D01*
D02*
G37*
G36*
X032657Y010865D02*
X032617Y010838D01*
X03259Y010798D01*
X032657D01*
Y010865D01*
D02*
G37*
G36*
X025403Y010855D02*
X025363Y010828D01*
X025336Y010788D01*
X025403D01*
Y010855D01*
D02*
G37*
G36*
X025011Y010845D02*
Y010778D01*
X025078D01*
X025051Y010818D01*
X025011Y010845D01*
D02*
G37*
G36*
X024911D02*
X024871Y010818D01*
X024844Y010778D01*
X024911D01*
Y010845D01*
D02*
G37*
G36*
X032166Y010865D02*
Y010798D01*
X032233D01*
X032206Y010838D01*
X032166Y010865D01*
D02*
G37*
G36*
X030985D02*
Y010798D01*
X031052D01*
X031025Y010838D01*
X030985Y010865D01*
D02*
G37*
G36*
X030885D02*
X030845Y010838D01*
X030818Y010798D01*
X030885D01*
Y010865D01*
D02*
G37*
G36*
X031476D02*
X031435Y010838D01*
X031409Y010798D01*
X031476D01*
Y010865D01*
D02*
G37*
G36*
X024911Y011131D02*
X024844D01*
X024871Y011091D01*
X024911Y011064D01*
Y011131D01*
D02*
G37*
G36*
X025078D02*
X025011D01*
Y011064D01*
X025051Y011091D01*
X025078Y011131D01*
D02*
G37*
G36*
X030394Y010865D02*
Y010798D01*
X030461D01*
X030435Y010838D01*
X030394Y010865D01*
D02*
G37*
G36*
X032066D02*
X032026Y010838D01*
X031999Y010798D01*
X032066D01*
Y010865D01*
D02*
G37*
G36*
X025995Y010855D02*
Y010788D01*
X026062D01*
X026035Y010828D01*
X025995Y010855D01*
D02*
G37*
G36*
X031576Y010865D02*
Y010798D01*
X031643D01*
X031616Y010838D01*
X031576Y010865D01*
D02*
G37*
G36*
X030294D02*
X030254Y010838D01*
X030228Y010798D01*
X030294D01*
Y010865D01*
D02*
G37*
G36*
X032757D02*
Y010798D01*
X032824D01*
X032797Y010838D01*
X032757Y010865D01*
D02*
G37*
G36*
X030885Y010068D02*
X030818D01*
X030845Y010028D01*
X030885Y010001D01*
Y010068D01*
D02*
G37*
G36*
X031052D02*
X030985D01*
Y010001D01*
X031025Y010028D01*
X031052Y010068D01*
D02*
G37*
G36*
X032824Y010068D02*
X032757D01*
Y010001D01*
X032797Y010028D01*
X032824Y010068D01*
D02*
G37*
G36*
X031643D02*
X031576D01*
Y010001D01*
X031616Y010028D01*
X031643Y010068D01*
D02*
G37*
G36*
X032657D02*
X03259D01*
X032617Y010028D01*
X032657Y010001D01*
Y010068D01*
D02*
G37*
G36*
X032066Y010068D02*
X031999D01*
X032026Y010028D01*
X032066Y010001D01*
Y010068D01*
D02*
G37*
G36*
X031476Y010235D02*
X031435Y010208D01*
X031409Y010168D01*
X031476D01*
Y010235D01*
D02*
G37*
G36*
X031576D02*
Y010168D01*
X031643D01*
X031616Y010208D01*
X031576Y010235D01*
D02*
G37*
G36*
X030394D02*
Y010168D01*
X030461D01*
X030435Y010208D01*
X030394Y010235D01*
D02*
G37*
G36*
X032233Y010068D02*
X032166D01*
Y010001D01*
X032206Y010028D01*
X032233Y010068D01*
D02*
G37*
G36*
X030294Y010235D02*
X030254Y010208D01*
X030228Y010168D01*
X030294D01*
Y010235D01*
D02*
G37*
G36*
X01381Y009182D02*
Y009115D01*
X013877D01*
X01385Y009155D01*
X01381Y009182D01*
D02*
G37*
G36*
X012844Y009359D02*
X012777D01*
X012804Y009319D01*
X012844Y009293D01*
Y009359D01*
D02*
G37*
G36*
X01371Y009182D02*
X01367Y009155D01*
X013643Y009115D01*
X01371D01*
Y009182D01*
D02*
G37*
G36*
Y009015D02*
X013643D01*
X01367Y008975D01*
X01371Y008948D01*
Y009015D01*
D02*
G37*
G36*
X013877D02*
X01381D01*
Y008948D01*
X01385Y008975D01*
X013877Y009015D01*
D02*
G37*
G36*
X013011Y009359D02*
X012944D01*
Y009293D01*
X012984Y009319D01*
X013011Y009359D01*
D02*
G37*
G36*
X030461Y010068D02*
X030394D01*
Y010001D01*
X030435Y010028D01*
X030461Y010068D01*
D02*
G37*
G36*
X031476D02*
X031409D01*
X031435Y010028D01*
X031476Y010001D01*
Y010068D01*
D02*
G37*
G36*
X030294D02*
X030228D01*
X030254Y010028D01*
X030294Y010001D01*
Y010068D01*
D02*
G37*
G36*
X012844Y009526D02*
X012804Y0095D01*
X012777Y009459D01*
X012844D01*
Y009526D01*
D02*
G37*
G36*
X012944D02*
Y009459D01*
X013011D01*
X012984Y0095D01*
X012944Y009526D01*
D02*
G37*
G36*
X030885Y010698D02*
X030818D01*
X030845Y010658D01*
X030885Y010631D01*
Y010698D01*
D02*
G37*
G36*
X031052D02*
X030985D01*
Y010631D01*
X031025Y010658D01*
X031052Y010698D01*
D02*
G37*
G36*
X030461D02*
X030394D01*
Y010631D01*
X030435Y010658D01*
X030461Y010698D01*
D02*
G37*
G36*
X026062Y010688D02*
X025995D01*
Y010621D01*
X026035Y010648D01*
X026062Y010688D01*
D02*
G37*
G36*
X030294Y010698D02*
X030228D01*
X030254Y010658D01*
X030294Y010631D01*
Y010698D01*
D02*
G37*
G36*
X031476D02*
X031409D01*
X031435Y010658D01*
X031476Y010631D01*
Y010698D01*
D02*
G37*
G36*
X032657D02*
X03259D01*
X032617Y010658D01*
X032657Y010631D01*
Y010698D01*
D02*
G37*
G36*
X032824D02*
X032757D01*
Y010631D01*
X032797Y010658D01*
X032824Y010698D01*
D02*
G37*
G36*
X032233D02*
X032166D01*
Y010631D01*
X032206Y010658D01*
X032233Y010698D01*
D02*
G37*
G36*
X031643D02*
X031576D01*
Y010631D01*
X031616Y010658D01*
X031643Y010698D01*
D02*
G37*
G36*
X032066D02*
X031999D01*
X032026Y010658D01*
X032066Y010631D01*
Y010698D01*
D02*
G37*
G36*
X030985Y010235D02*
Y010168D01*
X031052D01*
X031025Y010208D01*
X030985Y010235D01*
D02*
G37*
G36*
X032066D02*
X032026Y010208D01*
X031999Y010168D01*
X032066D01*
Y010235D01*
D02*
G37*
G36*
X030885D02*
X030845Y010208D01*
X030818Y010168D01*
X030885D01*
Y010235D01*
D02*
G37*
G36*
X032657Y010235D02*
X032617Y010208D01*
X03259Y010168D01*
X032657D01*
Y010235D01*
D02*
G37*
G36*
X032757D02*
Y010168D01*
X032824D01*
X032797Y010208D01*
X032757Y010235D01*
D02*
G37*
G36*
X032166Y010235D02*
Y010168D01*
X032233D01*
X032206Y010208D01*
X032166Y010235D01*
D02*
G37*
G36*
X02557Y010688D02*
X025503D01*
Y010621D01*
X025543Y010648D01*
X02557Y010688D01*
D02*
G37*
G36*
X025895D02*
X025828D01*
X025855Y010648D01*
X025895Y010621D01*
Y010688D01*
D02*
G37*
G36*
X025403D02*
X025336D01*
X025363Y010648D01*
X025403Y010621D01*
Y010688D01*
D02*
G37*
G36*
X024911Y010678D02*
X024844D01*
X024871Y010638D01*
X024911Y010611D01*
Y010678D01*
D02*
G37*
G36*
X025078D02*
X025011D01*
Y010611D01*
X025051Y010638D01*
X025078Y010678D01*
D02*
G37*
G36*
X024911Y011298D02*
X024871Y011271D01*
X024844Y011231D01*
X024911D01*
Y011298D01*
D02*
G37*
G36*
X031731Y021013D02*
X031664D01*
Y020946D01*
X031704Y020973D01*
X031731Y021013D01*
D02*
G37*
G36*
X029704Y02118D02*
X029664Y021153D01*
X029637Y021113D01*
X029704D01*
Y02118D01*
D02*
G37*
G36*
X031121Y021013D02*
X031054D01*
Y020946D01*
X031094Y020973D01*
X031121Y021013D01*
D02*
G37*
G36*
X031564D02*
X031497D01*
X031524Y020973D01*
X031564Y020946D01*
Y021013D01*
D02*
G37*
G36*
X029804Y02118D02*
Y021113D01*
X029871D01*
X029844Y021153D01*
X029804Y02118D01*
D02*
G37*
G36*
X030954D02*
X030914Y021153D01*
X030887Y021113D01*
X030954D01*
Y02118D01*
D02*
G37*
G36*
X031054D02*
Y021113D01*
X031121D01*
X031094Y021153D01*
X031054Y02118D01*
D02*
G37*
G36*
X030324D02*
X030284Y021153D01*
X030257Y021113D01*
X030324D01*
Y02118D01*
D02*
G37*
G36*
X030424D02*
Y021113D01*
X030491D01*
X030464Y021153D01*
X030424Y02118D01*
D02*
G37*
G36*
X034035Y020816D02*
X033995Y020789D01*
X033968Y020749D01*
X034035D01*
Y020816D01*
D02*
G37*
G36*
X034135D02*
Y020749D01*
X034202D01*
X034175Y020789D01*
X034135Y020816D01*
D02*
G37*
G36*
X033444D02*
X033404Y020789D01*
X033377Y020749D01*
X033444D01*
Y020816D01*
D02*
G37*
G36*
X033544D02*
Y020749D01*
X033611D01*
X033584Y020789D01*
X033544Y020816D01*
D02*
G37*
G36*
X029704Y021013D02*
X029637D01*
X029664Y020973D01*
X029704Y020946D01*
Y021013D01*
D02*
G37*
G36*
X030491D02*
X030424D01*
Y020946D01*
X030464Y020973D01*
X030491Y021013D01*
D02*
G37*
G36*
X030954D02*
X030887D01*
X030914Y020973D01*
X030954Y020946D01*
Y021013D01*
D02*
G37*
G36*
X029871D02*
X029804D01*
Y020946D01*
X029844Y020973D01*
X029871Y021013D01*
D02*
G37*
G36*
X030324D02*
X030257D01*
X030284Y020973D01*
X030324Y020946D01*
Y021013D01*
D02*
G37*
G36*
X030424Y021672D02*
Y021605D01*
X030491D01*
X030464Y021645D01*
X030424Y021672D01*
D02*
G37*
G36*
X030954Y022126D02*
X030571D01*
Y021743D01*
X030954D01*
Y022126D01*
D02*
G37*
G36*
X029804Y021672D02*
Y021605D01*
X029871D01*
X029844Y021645D01*
X029804Y021672D01*
D02*
G37*
G36*
X030324D02*
X030284Y021645D01*
X030257Y021605D01*
X030324D01*
Y021672D01*
D02*
G37*
G36*
X031437Y022126D02*
X031054D01*
Y021743D01*
X031437D01*
Y022126D01*
D02*
G37*
G36*
X011357Y021968D02*
X011291D01*
X011317Y021928D01*
X011357Y021901D01*
Y021968D01*
D02*
G37*
G36*
X011524D02*
X011457D01*
Y021901D01*
X011498Y021928D01*
X011524Y021968D01*
D02*
G37*
G36*
X012096Y021968D02*
X012029D01*
X012056Y021928D01*
X012096Y021901D01*
Y021968D01*
D02*
G37*
G36*
X012263D02*
X012196D01*
Y021901D01*
X012236Y021928D01*
X012263Y021968D01*
D02*
G37*
G36*
X030954Y021643D02*
X030571D01*
Y02126D01*
X030954D01*
Y021643D01*
D02*
G37*
G36*
X031437D02*
X031054D01*
Y02126D01*
X031437D01*
Y021643D01*
D02*
G37*
G36*
X031564Y02118D02*
X031524Y021153D01*
X031497Y021113D01*
X031564D01*
Y02118D01*
D02*
G37*
G36*
X031664D02*
Y021113D01*
X031731D01*
X031704Y021153D01*
X031664Y02118D01*
D02*
G37*
G36*
X029704Y021505D02*
X029637D01*
X029664Y021465D01*
X029704Y021438D01*
Y021505D01*
D02*
G37*
G36*
X030491D02*
X030424D01*
Y021438D01*
X030464Y021465D01*
X030491Y021505D01*
D02*
G37*
G36*
X029704Y021672D02*
X029664Y021645D01*
X029637Y021605D01*
X029704D01*
Y021672D01*
D02*
G37*
G36*
X029871Y021505D02*
X029804D01*
Y021438D01*
X029844Y021465D01*
X029871Y021505D01*
D02*
G37*
G36*
X030324D02*
X030257D01*
X030284Y021465D01*
X030324Y021438D01*
Y021505D01*
D02*
G37*
G36*
X031664Y020688D02*
Y020621D01*
X031731D01*
X031704Y020661D01*
X031664Y020688D01*
D02*
G37*
G36*
X034035Y020127D02*
X033995Y0201D01*
X033968Y02006D01*
X034035D01*
Y020127D01*
D02*
G37*
G36*
X034135D02*
Y02006D01*
X034202D01*
X034175Y0201D01*
X034135Y020127D01*
D02*
G37*
G36*
X034035Y01996D02*
X033968D01*
X033995Y01992D01*
X034035Y019893D01*
Y01996D01*
D02*
G37*
G36*
X034202D02*
X034135D01*
Y019893D01*
X034175Y01992D01*
X034202Y01996D01*
D02*
G37*
G36*
X033739Y020255D02*
X033672D01*
X033699Y020215D01*
X033739Y020188D01*
Y020255D01*
D02*
G37*
G36*
X033839Y020422D02*
Y020355D01*
X033906D01*
X033879Y020395D01*
X033839Y020422D01*
D02*
G37*
G36*
X029704Y020521D02*
X029637D01*
X029664Y020481D01*
X029704Y020454D01*
Y020521D01*
D02*
G37*
G36*
X033906Y020255D02*
X033839D01*
Y020188D01*
X033879Y020215D01*
X033906Y020255D01*
D02*
G37*
G36*
X033739Y020422D02*
X033699Y020395D01*
X033672Y020355D01*
X033739D01*
Y020422D01*
D02*
G37*
G36*
X029263Y01803D02*
Y017963D01*
X02933D01*
X029303Y018004D01*
X029263Y01803D01*
D02*
G37*
G36*
X029556D02*
X029516Y018004D01*
X029489Y017963D01*
X029556D01*
Y01803D01*
D02*
G37*
G36*
X030117Y017863D02*
X029883D01*
X02991Y017823D01*
X029951Y017796D01*
X029953Y017795D01*
X029653D01*
X029655Y017796D01*
X029696Y017823D01*
X029723Y017863D01*
X029489D01*
X029516Y017823D01*
X029558Y017796D01*
X029559Y017795D01*
X02926D01*
X029261Y017796D01*
X029303Y017823D01*
X02933Y017863D01*
X029096D01*
X029122Y017823D01*
X029164Y017796D01*
X029193Y01779D01*
Y01757D01*
X029606D01*
X03002D01*
Y01779D01*
X030049Y017796D01*
X03009Y017823D01*
X030117Y017863D01*
D02*
G37*
G36*
X029163Y01803D02*
X029122Y018004D01*
X029096Y017963D01*
X029163D01*
Y01803D01*
D02*
G37*
G36*
X029656D02*
Y017963D01*
X029723D01*
X029696Y018004D01*
X029656Y01803D01*
D02*
G37*
G36*
X030453Y01921D02*
X030372Y0192D01*
X030296Y019168D01*
X030232Y019119D01*
X030182Y019054D01*
X030151Y018979D01*
X03014Y018898D01*
X030151Y018817D01*
X030182Y018741D01*
X030232Y018677D01*
X030296Y018627D01*
X030372Y018596D01*
X030453Y018585D01*
X030534Y018596D01*
X030609Y018627D01*
X030674Y018677D01*
X030724Y018741D01*
X030755Y018817D01*
X030765Y018898D01*
X030755Y018979D01*
X030724Y019054D01*
X030674Y019119D01*
X030609Y019168D01*
X030534Y0192D01*
X030453Y01921D01*
D02*
G37*
G36*
X031763Y019208D02*
X031143D01*
Y018588D01*
X031763D01*
Y019208D01*
D02*
G37*
G36*
X02995Y01803D02*
X02991Y018004D01*
X029883Y017963D01*
X02995D01*
Y01803D01*
D02*
G37*
G36*
X03005D02*
Y017963D01*
X030117D01*
X03009Y018004D01*
X03005Y01803D01*
D02*
G37*
G36*
X029704Y020688D02*
X029664Y020661D01*
X029637Y020621D01*
X029704D01*
Y020688D01*
D02*
G37*
G36*
X029804D02*
Y020621D01*
X029871D01*
X029844Y020661D01*
X029804Y020688D01*
D02*
G37*
G36*
X034035Y020649D02*
X033968D01*
X033995Y020609D01*
X034035Y020582D01*
Y020649D01*
D02*
G37*
G36*
X034202D02*
X034135D01*
Y020582D01*
X034175Y020609D01*
X034202Y020649D01*
D02*
G37*
G36*
X030324Y020688D02*
X030284Y020661D01*
X030257Y020621D01*
X030324D01*
Y020688D01*
D02*
G37*
G36*
X031044D02*
Y020621D01*
X031111D01*
X031084Y020661D01*
X031044Y020688D01*
D02*
G37*
G36*
X031564D02*
X031524Y020661D01*
X031497Y020621D01*
X031564D01*
Y020688D01*
D02*
G37*
G36*
X030424D02*
Y020621D01*
X030491D01*
X030464Y020661D01*
X030424Y020688D01*
D02*
G37*
G36*
X030944D02*
X030904Y020661D01*
X030877Y020621D01*
X030944D01*
Y020688D01*
D02*
G37*
G36*
X030491Y020521D02*
X030424D01*
Y020454D01*
X030464Y020481D01*
X030491Y020521D01*
D02*
G37*
G36*
X030944D02*
X030877D01*
X030904Y020481D01*
X030944Y020454D01*
Y020521D01*
D02*
G37*
G36*
X029871D02*
X029804D01*
Y020454D01*
X029844Y020481D01*
X029871Y020521D01*
D02*
G37*
G36*
X030324D02*
X030257D01*
X030284Y020481D01*
X030324Y020454D01*
Y020521D01*
D02*
G37*
G36*
X031111D02*
X031044D01*
Y020454D01*
X031084Y020481D01*
X031111Y020521D01*
D02*
G37*
G36*
X033444Y020649D02*
X033377D01*
X033404Y020609D01*
X033444Y020582D01*
Y020649D01*
D02*
G37*
G36*
X033611D02*
X033544D01*
Y020582D01*
X033584Y020609D01*
X033611Y020649D01*
D02*
G37*
G36*
X031564Y020521D02*
X031497D01*
X031524Y020481D01*
X031564Y020454D01*
Y020521D01*
D02*
G37*
G36*
X031731D02*
X031664D01*
Y020454D01*
X031704Y020481D01*
X031731Y020521D01*
D02*
G37*
G36*
X030324Y021997D02*
X030257D01*
X030284Y021957D01*
X030324Y02193D01*
Y021997D01*
D02*
G37*
G36*
X029152Y024822D02*
X029085D01*
Y024755D01*
X029126Y024782D01*
X029152Y024822D01*
D02*
G37*
G36*
X027627Y024989D02*
X027587Y024962D01*
X02756Y024922D01*
X027627D01*
Y024989D01*
D02*
G37*
G36*
X028709Y024822D02*
X028643D01*
Y024755D01*
X028683Y024782D01*
X028709Y024822D01*
D02*
G37*
G36*
X028985D02*
X028919D01*
X028945Y024782D01*
X028985Y024755D01*
Y024822D01*
D02*
G37*
G36*
X027727Y024989D02*
Y024922D01*
X027794D01*
X027767Y024962D01*
X027727Y024989D01*
D02*
G37*
G36*
X028543D02*
X028502Y024962D01*
X028476Y024922D01*
X028543D01*
Y024989D01*
D02*
G37*
G36*
X028643D02*
Y024922D01*
X028709D01*
X028683Y024962D01*
X028643Y024989D01*
D02*
G37*
G36*
X02807D02*
X02803Y024962D01*
X028003Y024922D01*
X02807D01*
Y024989D01*
D02*
G37*
G36*
X02817D02*
Y024922D01*
X028237D01*
X02821Y024962D01*
X02817Y024989D01*
D02*
G37*
G36*
X028985Y024664D02*
X028945Y024637D01*
X028919Y024597D01*
X028985D01*
Y024664D01*
D02*
G37*
G36*
X029085D02*
Y024597D01*
X029152D01*
X029126Y024637D01*
X029085Y024664D01*
D02*
G37*
G36*
X028543D02*
X028502Y024637D01*
X028476Y024597D01*
X028543D01*
Y024664D01*
D02*
G37*
G36*
X028643D02*
Y024597D01*
X028709D01*
X028683Y024637D01*
X028643Y024664D01*
D02*
G37*
G36*
X027627Y024822D02*
X02756D01*
X027587Y024782D01*
X027627Y024755D01*
Y024822D01*
D02*
G37*
G36*
X028237D02*
X02817D01*
Y024755D01*
X02821Y024782D01*
X028237Y024822D01*
D02*
G37*
G36*
X028543D02*
X028476D01*
X028502Y024782D01*
X028543Y024755D01*
Y024822D01*
D02*
G37*
G36*
X027794D02*
X027727D01*
Y024755D01*
X027767Y024782D01*
X027794Y024822D01*
D02*
G37*
G36*
X02807D02*
X028003D01*
X02803Y024782D01*
X02807Y024755D01*
Y024822D01*
D02*
G37*
G36*
X027727Y025314D02*
Y025247D01*
X027794D01*
X027767Y025287D01*
X027727Y025314D01*
D02*
G37*
G36*
X02807D02*
X02803Y025287D01*
X028003Y025247D01*
X02807D01*
Y025314D01*
D02*
G37*
G36*
X029152Y025147D02*
X029085D01*
Y02508D01*
X029126Y025107D01*
X029152Y025147D01*
D02*
G37*
G36*
X027627Y025314D02*
X027587Y025287D01*
X02756Y025247D01*
X027627D01*
Y025314D01*
D02*
G37*
G36*
X02817D02*
Y025247D01*
X028237D01*
X02821Y025287D01*
X02817Y025314D01*
D02*
G37*
G36*
X028985D02*
X028945Y025287D01*
X028919Y025247D01*
X028985D01*
Y025314D01*
D02*
G37*
G36*
X029085D02*
Y025247D01*
X029152D01*
X029126Y025287D01*
X029085Y025314D01*
D02*
G37*
G36*
X028543D02*
X028502Y025287D01*
X028476Y025247D01*
X028543D01*
Y025314D01*
D02*
G37*
G36*
X028643D02*
Y025247D01*
X028709D01*
X028683Y025287D01*
X028643Y025314D01*
D02*
G37*
G36*
X027627Y025147D02*
X02756D01*
X027587Y025107D01*
X027627Y02508D01*
Y025147D01*
D02*
G37*
G36*
X027794D02*
X027727D01*
Y02508D01*
X027767Y025107D01*
X027794Y025147D01*
D02*
G37*
G36*
X028985Y024989D02*
X028945Y024962D01*
X028919Y024922D01*
X028985D01*
Y024989D01*
D02*
G37*
G36*
X029085D02*
Y024922D01*
X029152D01*
X029126Y024962D01*
X029085Y024989D01*
D02*
G37*
G36*
X02807Y025147D02*
X028003D01*
X02803Y025107D01*
X02807Y02508D01*
Y025147D01*
D02*
G37*
G36*
X028709D02*
X028643D01*
Y02508D01*
X028683Y025107D01*
X028709Y025147D01*
D02*
G37*
G36*
X028985D02*
X028919D01*
X028945Y025107D01*
X028985Y02508D01*
Y025147D01*
D02*
G37*
G36*
X028237D02*
X02817D01*
Y02508D01*
X02821Y025107D01*
X028237Y025147D01*
D02*
G37*
G36*
X028543D02*
X028476D01*
X028502Y025107D01*
X028543Y02508D01*
Y025147D01*
D02*
G37*
G36*
X02817Y024664D02*
Y024597D01*
X028237D01*
X02821Y024637D01*
X02817Y024664D01*
D02*
G37*
G36*
X013011Y023798D02*
X012944D01*
Y023732D01*
X012984Y023758D01*
X013011Y023798D01*
D02*
G37*
G36*
X013306D02*
X013239D01*
X013266Y023758D01*
X013306Y023732D01*
Y023798D01*
D02*
G37*
G36*
X012303Y024021D02*
X012211Y024003D01*
X012132Y023951D01*
X01208Y023872D01*
X012061Y02378D01*
X01208Y023687D01*
X012132Y023609D01*
X012211Y023556D01*
X012303Y023538D01*
X012396Y023556D01*
X012474Y023609D01*
X012527Y023687D01*
X012545Y02378D01*
X012527Y023872D01*
X012474Y023951D01*
X012396Y024003D01*
X012303Y024021D01*
D02*
G37*
G36*
X012844Y023798D02*
X012777D01*
X012804Y023758D01*
X012844Y023732D01*
Y023798D01*
D02*
G37*
G36*
X013473D02*
X013406D01*
Y023732D01*
X013446Y023758D01*
X013473Y023798D01*
D02*
G37*
G36*
X013306Y023965D02*
X013266Y023939D01*
X013239Y023898D01*
X013306D01*
Y023965D01*
D02*
G37*
G36*
X013406D02*
Y023898D01*
X013473D01*
X013446Y023939D01*
X013406Y023965D01*
D02*
G37*
G36*
X012844D02*
X012804Y023939D01*
X012777Y023898D01*
X012844D01*
Y023965D01*
D02*
G37*
G36*
X012944D02*
Y023898D01*
X013011D01*
X012984Y023939D01*
X012944Y023965D01*
D02*
G37*
G36*
X012196Y022135D02*
Y022068D01*
X012263D01*
X012236Y022108D01*
X012196Y022135D01*
D02*
G37*
G36*
X011357Y022135D02*
X011317Y022108D01*
X011291Y022068D01*
X011357D01*
Y022135D01*
D02*
G37*
G36*
X030491Y021997D02*
X030424D01*
Y02193D01*
X030464Y021957D01*
X030491Y021997D01*
D02*
G37*
G36*
X012096Y022135D02*
X012056Y022108D01*
X012029Y022068D01*
X012096D01*
Y022135D01*
D02*
G37*
G36*
X011457Y022135D02*
Y022068D01*
X011524D01*
X011498Y022108D01*
X011457Y022135D01*
D02*
G37*
G36*
X012489Y022706D02*
X012441D01*
Y022303D01*
X012489D01*
Y022706D01*
D02*
G37*
G36*
Y023209D02*
X012441D01*
Y022806D01*
X012489D01*
Y023209D01*
D02*
G37*
G36*
X030324Y022164D02*
X030284Y022137D01*
X030257Y022097D01*
X030324D01*
Y022164D01*
D02*
G37*
G36*
X030424D02*
Y022097D01*
X030491D01*
X030464Y022137D01*
X030424Y022164D01*
D02*
G37*
G36*
X028709Y024497D02*
X028643D01*
Y02443D01*
X028683Y024457D01*
X028709Y024497D01*
D02*
G37*
G36*
X028985D02*
X028919D01*
X028945Y024457D01*
X028985Y02443D01*
Y024497D01*
D02*
G37*
G36*
X028237D02*
X02817D01*
Y02443D01*
X02821Y024457D01*
X028237Y024497D01*
D02*
G37*
G36*
X028543D02*
X028476D01*
X028502Y024457D01*
X028543Y02443D01*
Y024497D01*
D02*
G37*
G36*
X030954Y024843D02*
X030571D01*
Y024459D01*
X030954D01*
Y024843D01*
D02*
G37*
G36*
X027737Y024664D02*
Y024597D01*
X027804D01*
X027777Y024637D01*
X027737Y024664D01*
D02*
G37*
G36*
X02807D02*
X02803Y024637D01*
X028003Y024597D01*
X02807D01*
Y024664D01*
D02*
G37*
G36*
X031437Y024843D02*
X031054D01*
Y024459D01*
X031437D01*
Y024843D01*
D02*
G37*
G36*
X027637Y024664D02*
X027597Y024637D01*
X02757Y024597D01*
X027637D01*
Y024664D01*
D02*
G37*
G36*
X012568Y024202D02*
X012501D01*
X012528Y024162D01*
X012568Y024135D01*
Y024202D01*
D02*
G37*
G36*
X012735D02*
X012668D01*
Y024135D01*
X012708Y024162D01*
X012735Y024202D01*
D02*
G37*
G36*
X030954Y024359D02*
X030571D01*
Y023976D01*
X030954D01*
Y024359D01*
D02*
G37*
G36*
X031437D02*
X031054D01*
Y023976D01*
X031437D01*
Y024359D01*
D02*
G37*
G36*
X012568Y024369D02*
X012528Y024342D01*
X012501Y024302D01*
X012568D01*
Y024369D01*
D02*
G37*
G36*
X027804Y024497D02*
X027737D01*
Y02443D01*
X027777Y024457D01*
X027804Y024497D01*
D02*
G37*
G36*
X02807D02*
X028003D01*
X02803Y024457D01*
X02807Y02443D01*
Y024497D01*
D02*
G37*
G36*
X012668Y024369D02*
Y024302D01*
X012735D01*
X012708Y024342D01*
X012668Y024369D01*
D02*
G37*
G36*
X027637Y024497D02*
X02757D01*
X027597Y024457D01*
X027637Y02443D01*
Y024497D01*
D02*
G37*
G36*
X028198Y013129D02*
X028158Y013102D01*
X028131Y013062D01*
X028198D01*
Y013129D01*
D02*
G37*
G36*
X028298D02*
Y013062D01*
X028365D01*
X028338Y013102D01*
X028298Y013129D01*
D02*
G37*
G36*
X027785D02*
X027745Y013102D01*
X027718Y013062D01*
X027785D01*
Y013129D01*
D02*
G37*
G36*
X027885D02*
Y013062D01*
X027952D01*
X027925Y013102D01*
X027885Y013129D01*
D02*
G37*
G36*
X030236Y014498D02*
X029547D01*
Y013533D01*
X030236D01*
Y014498D01*
D02*
G37*
G36*
X031987Y01373D02*
X03192D01*
X031947Y013689D01*
X031987Y013663D01*
Y01373D01*
D02*
G37*
G36*
X032154D02*
X032087D01*
Y013663D01*
X032128Y013689D01*
X032154Y01373D01*
D02*
G37*
G36*
X019133Y01369D02*
X019066D01*
X019093Y01365D01*
X019133Y013623D01*
Y01369D01*
D02*
G37*
G36*
X0193D02*
X019233D01*
Y013623D01*
X019273Y01365D01*
X0193Y01369D01*
D02*
G37*
G36*
X027952Y012962D02*
X027885D01*
Y012895D01*
X027925Y012922D01*
X027952Y012962D01*
D02*
G37*
G36*
X028198D02*
X028131D01*
X028158Y012922D01*
X028198Y012895D01*
Y012962D01*
D02*
G37*
G36*
X030196Y012952D02*
X030129D01*
Y012885D01*
X030169Y012912D01*
X030196Y012952D01*
D02*
G37*
G36*
X027785Y012962D02*
X027718D01*
X027745Y012922D01*
X027785Y012895D01*
Y012962D01*
D02*
G37*
G36*
X028365D02*
X028298D01*
Y012895D01*
X028338Y012922D01*
X028365Y012962D01*
D02*
G37*
G36*
X030029Y013119D02*
X029989Y013092D01*
X029962Y013052D01*
X030029D01*
Y013119D01*
D02*
G37*
G36*
X030129D02*
Y013052D01*
X030196D01*
X030169Y013092D01*
X030129Y013119D01*
D02*
G37*
G36*
X028611D02*
X028571Y013092D01*
X028544Y013052D01*
X028611D01*
Y013119D01*
D02*
G37*
G36*
X028711D02*
Y013052D01*
X028778D01*
X028752Y013092D01*
X028711Y013119D01*
D02*
G37*
G36*
X031574Y014429D02*
X031348D01*
Y014066D01*
X031574D01*
Y014429D01*
D02*
G37*
G36*
X0319D02*
X031674D01*
Y014066D01*
X0319D01*
Y014429D01*
D02*
G37*
G36*
X031987Y014123D02*
X03192D01*
X031947Y014083D01*
X031987Y014056D01*
Y014123D01*
D02*
G37*
G36*
X032154D02*
X032087D01*
Y014056D01*
X032128Y014083D01*
X032154Y014123D01*
D02*
G37*
G36*
X031987Y01429D02*
X031947Y014263D01*
X03192Y014223D01*
X031987D01*
Y01429D01*
D02*
G37*
G36*
X031367Y014517D02*
X0313D01*
Y01445D01*
X03134Y014477D01*
X031367Y014517D01*
D02*
G37*
G36*
X031594D02*
X031527D01*
X031554Y014477D01*
X031594Y01445D01*
Y014517D01*
D02*
G37*
G36*
X032087Y01429D02*
Y014223D01*
X032154D01*
X032128Y014263D01*
X032087Y01429D01*
D02*
G37*
G36*
X0312Y014517D02*
X031133D01*
X03116Y014477D01*
X0312Y01445D01*
Y014517D01*
D02*
G37*
G36*
X019133Y013857D02*
X019093Y01383D01*
X019066Y01379D01*
X019133D01*
Y013857D01*
D02*
G37*
G36*
X019233D02*
Y01379D01*
X0193D01*
X019273Y01383D01*
X019233Y013857D01*
D02*
G37*
G36*
X017106Y013818D02*
X017039D01*
X017065Y013778D01*
X017106Y013751D01*
Y013818D01*
D02*
G37*
G36*
X017272D02*
X017206D01*
Y013751D01*
X017246Y013778D01*
X017272Y013818D01*
D02*
G37*
G36*
X031987Y013896D02*
X031947Y01387D01*
X03192Y01383D01*
X031987D01*
Y013896D01*
D02*
G37*
G36*
X017206Y013985D02*
Y013918D01*
X017272D01*
X017246Y013958D01*
X017206Y013985D01*
D02*
G37*
G36*
X019134Y014352D02*
X019062Y014338D01*
X019Y014297D01*
X01896Y014236D01*
X018945Y014163D01*
X01896Y014091D01*
X019Y01403D01*
X019062Y013989D01*
X019134Y013975D01*
X019206Y013989D01*
X019267Y01403D01*
X019308Y014091D01*
X019322Y014163D01*
X019308Y014236D01*
X019267Y014297D01*
X019206Y014338D01*
X019134Y014352D01*
D02*
G37*
G36*
X032087Y013896D02*
Y01383D01*
X032154D01*
X032128Y01387D01*
X032087Y013896D01*
D02*
G37*
G36*
X017106Y013985D02*
X017065Y013958D01*
X017039Y013918D01*
X017106D01*
Y013985D01*
D02*
G37*
G36*
X030029Y012952D02*
X029962D01*
X029989Y012912D01*
X030029Y012885D01*
Y012952D01*
D02*
G37*
G36*
X028611Y011465D02*
X028571Y011439D01*
X028544Y011398D01*
X028611D01*
Y011465D01*
D02*
G37*
G36*
X028711D02*
Y011398D01*
X028778D01*
X028752Y011439D01*
X028711Y011465D01*
D02*
G37*
G36*
X028198D02*
X028158Y011439D01*
X028131Y011398D01*
X028198D01*
Y011465D01*
D02*
G37*
G36*
X028298D02*
Y011398D01*
X028365D01*
X028338Y011439D01*
X028298Y011465D01*
D02*
G37*
G36*
X024911Y011623D02*
X024844D01*
X024871Y011583D01*
X024911Y011556D01*
Y011623D01*
D02*
G37*
G36*
X028778Y011712D02*
X028711D01*
Y011645D01*
X028752Y011672D01*
X028778Y011712D01*
D02*
G37*
G36*
X024911Y01179D02*
X024871Y011763D01*
X024844Y011723D01*
X024911D01*
Y01179D01*
D02*
G37*
G36*
X025078Y011623D02*
X025011D01*
Y011556D01*
X025051Y011583D01*
X025078Y011623D01*
D02*
G37*
G36*
X028611Y011712D02*
X028544D01*
X028571Y011672D01*
X028611Y011645D01*
Y011712D01*
D02*
G37*
G36*
X027952Y011298D02*
X027885D01*
Y011231D01*
X027925Y011258D01*
X027952Y011298D01*
D02*
G37*
G36*
X028198D02*
X028131D01*
X028158Y011258D01*
X028198Y011231D01*
Y011298D01*
D02*
G37*
G36*
X025011Y011298D02*
Y011231D01*
X025078D01*
X025051Y011271D01*
X025011Y011298D01*
D02*
G37*
G36*
X027785Y011298D02*
X027718D01*
X027745Y011258D01*
X027785Y011231D01*
Y011298D01*
D02*
G37*
G36*
X028365D02*
X028298D01*
Y011231D01*
X028338Y011258D01*
X028365Y011298D01*
D02*
G37*
G36*
X027785Y011465D02*
X027745Y011439D01*
X027718Y011398D01*
X027785D01*
Y011465D01*
D02*
G37*
G36*
X027885D02*
Y011398D01*
X027952D01*
X027925Y011439D01*
X027885Y011465D01*
D02*
G37*
G36*
X028611Y011298D02*
X028544D01*
X028571Y011258D01*
X028611Y011231D01*
Y011298D01*
D02*
G37*
G36*
X028778D02*
X028711D01*
Y011231D01*
X028752Y011258D01*
X028778Y011298D01*
D02*
G37*
G36*
X031339Y012302D02*
Y012235D01*
X031406D01*
X031379Y012275D01*
X031339Y012302D01*
D02*
G37*
G36*
X028611Y012519D02*
X028544D01*
X028571Y012479D01*
X028611Y012452D01*
Y012519D01*
D02*
G37*
G36*
X028711Y012292D02*
Y012225D01*
X028778D01*
X028752Y012265D01*
X028711Y012292D01*
D02*
G37*
G36*
X031239Y012302D02*
X031199Y012275D01*
X031172Y012235D01*
X031239D01*
Y012302D01*
D02*
G37*
G36*
X028778Y012519D02*
X028711D01*
Y012452D01*
X028752Y012479D01*
X028778Y012519D01*
D02*
G37*
G36*
X028611Y012952D02*
X028544D01*
X028571Y012912D01*
X028611Y012885D01*
Y012952D01*
D02*
G37*
G36*
X028778D02*
X028711D01*
Y012885D01*
X028752Y012912D01*
X028778Y012952D01*
D02*
G37*
G36*
X028611Y012686D02*
X028571Y012659D01*
X028544Y012619D01*
X028611D01*
Y012686D01*
D02*
G37*
G36*
X028711D02*
Y012619D01*
X028778D01*
X028752Y012659D01*
X028711Y012686D01*
D02*
G37*
G36*
Y011879D02*
Y011812D01*
X028778D01*
X028752Y011852D01*
X028711Y011879D01*
D02*
G37*
G36*
X028611Y012125D02*
X028544D01*
X028571Y012085D01*
X028611Y012058D01*
Y012125D01*
D02*
G37*
G36*
X025011Y01179D02*
Y011723D01*
X025078D01*
X025051Y011763D01*
X025011Y01179D01*
D02*
G37*
G36*
X028611Y011879D02*
X028571Y011852D01*
X028544Y011812D01*
X028611D01*
Y011879D01*
D02*
G37*
G36*
X028778Y012125D02*
X028711D01*
Y012058D01*
X028752Y012085D01*
X028778Y012125D01*
D02*
G37*
G36*
X031161Y012982D02*
X03063D01*
Y012175D01*
X031161D01*
Y012982D01*
D02*
G37*
G36*
X028611Y012292D02*
X028571Y012265D01*
X028544Y012225D01*
X028611D01*
Y012292D01*
D02*
G37*
G36*
X031239Y012135D02*
X031172D01*
X031199Y012095D01*
X031239Y012068D01*
Y012135D01*
D02*
G37*
G36*
X031406D02*
X031339D01*
Y012068D01*
X031379Y012095D01*
X031406Y012135D01*
D02*
G37*
G36*
X031761Y014517D02*
X031694D01*
Y01445D01*
X031734Y014477D01*
X031761Y014517D01*
D02*
G37*
G36*
X015068Y016239D02*
X015001D01*
Y016172D01*
X015041Y016199D01*
X015068Y016239D01*
D02*
G37*
G36*
X019901Y016259D02*
X019834D01*
X019861Y016219D01*
X019901Y016192D01*
Y016259D01*
D02*
G37*
G36*
X030471Y016131D02*
X030404D01*
Y016064D01*
X030444Y016091D01*
X030471Y016131D01*
D02*
G37*
G36*
X014901Y016239D02*
X014834D01*
X014861Y016199D01*
X014901Y016172D01*
Y016239D01*
D02*
G37*
G36*
X020068Y016259D02*
X020001D01*
Y016192D01*
X020041Y016219D01*
X020068Y016259D01*
D02*
G37*
G36*
X014901Y016406D02*
X014861Y016379D01*
X014834Y016339D01*
X014901D01*
Y016406D01*
D02*
G37*
G36*
X015001D02*
Y016339D01*
X015068D01*
X015041Y016379D01*
X015001Y016406D01*
D02*
G37*
G36*
X030304Y016298D02*
X030264Y016271D01*
X030237Y016231D01*
X030304D01*
Y016298D01*
D02*
G37*
G36*
X030404D02*
Y016231D01*
X030471D01*
X030444Y016271D01*
X030404Y016298D01*
D02*
G37*
G36*
X031672Y015894D02*
X031632Y015868D01*
X031606Y015828D01*
X031672D01*
Y015894D01*
D02*
G37*
G36*
X031772D02*
Y015828D01*
X031839D01*
X031813Y015868D01*
X031772Y015894D01*
D02*
G37*
G36*
X030304Y015737D02*
X030237D01*
X030264Y015697D01*
X030304Y01567D01*
Y015737D01*
D02*
G37*
G36*
X030471D02*
X030404D01*
Y01567D01*
X030444Y015697D01*
X030471Y015737D01*
D02*
G37*
G36*
X031594Y016063D02*
X031231D01*
Y015837D01*
X031594D01*
Y016063D01*
D02*
G37*
G36*
X03002Y016063D02*
X029656D01*
Y015837D01*
X03002D01*
Y016063D01*
D02*
G37*
G36*
X030304Y016131D02*
X030237D01*
X030264Y016091D01*
X030304Y016064D01*
Y016131D01*
D02*
G37*
G36*
Y015904D02*
X030264Y015878D01*
X030237Y015837D01*
X030304D01*
Y015904D01*
D02*
G37*
G36*
X030404D02*
Y015837D01*
X030471D01*
X030444Y015878D01*
X030404Y015904D01*
D02*
G37*
G36*
X030001Y016711D02*
Y016644D01*
X030068D01*
X030041Y016685D01*
X030001Y016711D01*
D02*
G37*
G36*
X030294D02*
X030254Y016685D01*
X030228Y016644D01*
X030294D01*
Y016711D01*
D02*
G37*
G36*
X029607D02*
Y016644D01*
X029674D01*
X029647Y016685D01*
X029607Y016711D01*
D02*
G37*
G36*
X029901D02*
X029861Y016685D01*
X029834Y016644D01*
X029901D01*
Y016711D01*
D02*
G37*
G36*
X030394D02*
Y016644D01*
X030461D01*
X030435Y016685D01*
X030394Y016711D01*
D02*
G37*
G36*
X033081Y017431D02*
X032274D01*
Y0169D01*
X033081D01*
Y017431D01*
D02*
G37*
G36*
X031131Y01747D02*
X030768D01*
Y017244D01*
X031131D01*
Y01747D01*
D02*
G37*
G36*
X01492Y016958D02*
X014854D01*
X01488Y016918D01*
X01492Y016891D01*
Y016958D01*
D02*
G37*
G36*
X015087D02*
X01502D01*
Y016891D01*
X015061Y016918D01*
X015087Y016958D01*
D02*
G37*
G36*
X029507Y016544D02*
X02944D01*
X029467Y016504D01*
X029507Y016478D01*
Y016544D01*
D02*
G37*
G36*
X029674D02*
X029607D01*
Y016478D01*
X029647Y016504D01*
X029674Y016544D01*
D02*
G37*
G36*
X019901Y016426D02*
X019861Y016399D01*
X019834Y016359D01*
X019901D01*
Y016426D01*
D02*
G37*
G36*
X020001D02*
Y016359D01*
X020068D01*
X020041Y016399D01*
X020001Y016426D01*
D02*
G37*
G36*
X029901Y016544D02*
X029834D01*
X029861Y016504D01*
X029901Y016478D01*
Y016544D01*
D02*
G37*
G36*
X030461D02*
X030394D01*
Y016478D01*
X030435Y016504D01*
X030461Y016544D01*
D02*
G37*
G36*
X029507Y016711D02*
X029467Y016685D01*
X02944Y016644D01*
X029507D01*
Y016711D01*
D02*
G37*
G36*
X030068Y016544D02*
X030001D01*
Y016478D01*
X030041Y016504D01*
X030068Y016544D01*
D02*
G37*
G36*
X030294D02*
X030228D01*
X030254Y016504D01*
X030294Y016478D01*
Y016544D01*
D02*
G37*
G36*
X031839Y015728D02*
X031772D01*
Y015661D01*
X031813Y015687D01*
X031839Y015728D01*
D02*
G37*
G36*
X017304Y014831D02*
Y014765D01*
X017371D01*
X017344Y014805D01*
X017304Y014831D01*
D02*
G37*
G36*
X026791Y015196D02*
X026724D01*
X02675Y015156D01*
X026791Y015129D01*
Y015196D01*
D02*
G37*
G36*
X032087Y014684D02*
Y014617D01*
X032154D01*
X032128Y014657D01*
X032087Y014684D01*
D02*
G37*
G36*
X017204Y014831D02*
X017164Y014805D01*
X017137Y014765D01*
X017204D01*
Y014831D01*
D02*
G37*
G36*
X026957Y015196D02*
X026891D01*
Y015129D01*
X026931Y015156D01*
X026957Y015196D01*
D02*
G37*
G36*
X031279Y015334D02*
X031212D01*
X031239Y015294D01*
X031279Y015267D01*
Y015334D01*
D02*
G37*
G36*
X031446D02*
X031379D01*
Y015267D01*
X031419Y015294D01*
X031446Y015334D01*
D02*
G37*
G36*
X030885D02*
X030818D01*
X030845Y015294D01*
X030885Y015267D01*
Y015334D01*
D02*
G37*
G36*
X031052D02*
X030985D01*
Y015267D01*
X031025Y015294D01*
X031052Y015334D01*
D02*
G37*
G36*
X017204Y014665D02*
X017137D01*
X017164Y014624D01*
X017204Y014598D01*
Y014665D01*
D02*
G37*
G36*
X017371D02*
X017304D01*
Y014598D01*
X017344Y014624D01*
X017371Y014665D01*
D02*
G37*
G36*
X031987Y014517D02*
X03192D01*
X031947Y014477D01*
X031987Y01445D01*
Y014517D01*
D02*
G37*
G36*
X032154D02*
X032087D01*
Y01445D01*
X032128Y014477D01*
X032154Y014517D01*
D02*
G37*
G36*
X0312Y014684D02*
X03116Y014657D01*
X031133Y014617D01*
X0312D01*
Y014684D01*
D02*
G37*
G36*
X031694D02*
Y014617D01*
X031761D01*
X031734Y014657D01*
X031694Y014684D01*
D02*
G37*
G36*
X031987D02*
X031947Y014657D01*
X03192Y014617D01*
X031987D01*
Y014684D01*
D02*
G37*
G36*
X0313D02*
Y014617D01*
X031367D01*
X03134Y014657D01*
X0313Y014684D01*
D02*
G37*
G36*
X031594D02*
X031554Y014657D01*
X031527Y014617D01*
X031594D01*
Y014684D01*
D02*
G37*
G36*
X031772Y015501D02*
Y015434D01*
X031839D01*
X031813Y015474D01*
X031772Y015501D01*
D02*
G37*
G36*
X030304Y015511D02*
X030264Y015484D01*
X030237Y015444D01*
X030304D01*
Y015511D01*
D02*
G37*
G36*
X031379Y015501D02*
Y015434D01*
X031446D01*
X031419Y015474D01*
X031379Y015501D01*
D02*
G37*
G36*
X031672D02*
X031632Y015474D01*
X031606Y015434D01*
X031672D01*
Y015501D01*
D02*
G37*
G36*
X030404Y015511D02*
Y015444D01*
X030471D01*
X030444Y015484D01*
X030404Y015511D01*
D02*
G37*
G36*
X033081Y016053D02*
X032274D01*
Y015522D01*
X033081D01*
Y016053D01*
D02*
G37*
G36*
X031672Y015728D02*
X031606D01*
X031632Y015687D01*
X031672Y015661D01*
Y015728D01*
D02*
G37*
G36*
X031594Y015737D02*
X031231D01*
Y015512D01*
X031594D01*
Y015737D01*
D02*
G37*
G36*
X03002Y015737D02*
X029656D01*
Y015512D01*
X03002D01*
Y015737D01*
D02*
G37*
G36*
X030304Y015344D02*
X030237D01*
X030264Y015304D01*
X030304Y015277D01*
Y015344D01*
D02*
G37*
G36*
X030471D02*
X030404D01*
Y015277D01*
X030444Y015304D01*
X030471Y015344D01*
D02*
G37*
G36*
X031672Y015334D02*
X031606D01*
X031632Y015294D01*
X031672Y015267D01*
Y015334D01*
D02*
G37*
G36*
X031839D02*
X031772D01*
Y015267D01*
X031813Y015294D01*
X031839Y015334D01*
D02*
G37*
G36*
X026791Y015363D02*
X02675Y015336D01*
X026724Y015296D01*
X026791D01*
Y015363D01*
D02*
G37*
G36*
X030985Y015501D02*
Y015434D01*
X031052D01*
X031025Y015474D01*
X030985Y015501D01*
D02*
G37*
G36*
X031279D02*
X031239Y015474D01*
X031212Y015434D01*
X031279D01*
Y015501D01*
D02*
G37*
G36*
X026891Y015363D02*
Y015296D01*
X026957D01*
X026931Y015336D01*
X026891Y015363D01*
D02*
G37*
G36*
X030885Y015501D02*
X030845Y015474D01*
X030818Y015434D01*
X030885D01*
Y015501D01*
D02*
G37*
%LPD*%
D10*
X029537Y023937D02*
D03*
Y024449D02*
D03*
X027776Y023612D02*
D03*
Y024124D02*
D03*
X023396Y014783D02*
D03*
Y014272D02*
D03*
X017982Y019656D02*
D03*
Y019144D02*
D03*
X023494Y010157D02*
D03*
Y009646D02*
D03*
X020157Y015453D02*
D03*
Y014941D02*
D03*
X019882Y011516D02*
D03*
Y012028D02*
D03*
D11*
X027726Y021319D02*
D03*
Y020925D02*
D03*
X022972Y022096D02*
D03*
Y021703D02*
D03*
X027234Y022854D02*
D03*
Y023248D02*
D03*
X028455Y016457D02*
D03*
Y01685D02*
D03*
X033209Y012963D02*
D03*
Y013356D02*
D03*
X026732Y017598D02*
D03*
Y017992D02*
D03*
X023661Y017293D02*
D03*
Y017687D02*
D03*
X033022Y00878D02*
D03*
Y008386D02*
D03*
X019213Y011968D02*
D03*
Y011575D02*
D03*
X023553Y01247D02*
D03*
Y012077D02*
D03*
X017539Y020315D02*
D03*
Y020709D02*
D03*
X022953Y01689D02*
D03*
Y016496D02*
D03*
X026181Y017598D02*
D03*
Y017992D02*
D03*
X01564Y012925D02*
D03*
Y012531D02*
D03*
X015827Y011685D02*
D03*
Y011291D02*
D03*
X015354Y011291D02*
D03*
Y011685D02*
D03*
X012913Y013102D02*
D03*
Y012709D02*
D03*
X013386Y013102D02*
D03*
Y012709D02*
D03*
X016545Y010482D02*
D03*
X016545Y010876D02*
D03*
X013228Y016644D02*
D03*
Y01625D02*
D03*
X013238Y015335D02*
D03*
Y015728D02*
D03*
X024626Y012431D02*
D03*
Y012825D02*
D03*
X024104Y012461D02*
D03*
Y012854D02*
D03*
X013238Y013967D02*
D03*
Y013573D02*
D03*
Y014488D02*
D03*
Y014882D02*
D03*
X013868Y012815D02*
D03*
Y012421D02*
D03*
X019715Y013652D02*
D03*
Y014045D02*
D03*
X012441Y017352D02*
D03*
Y017746D02*
D03*
X013012Y017283D02*
D03*
Y017677D02*
D03*
D13*
X023671Y021333D02*
D03*
X023868Y021333D02*
D03*
X024065D02*
D03*
X024262D02*
D03*
X024459Y021333D02*
D03*
Y023018D02*
D03*
X024262Y023018D02*
D03*
X024065D02*
D03*
X023868D02*
D03*
X023671Y023018D02*
D03*
X028396Y020585D02*
D03*
X028593Y020585D02*
D03*
X028789D02*
D03*
X028986D02*
D03*
X029183Y020585D02*
D03*
Y02227D02*
D03*
X028986Y02227D02*
D03*
X028789D02*
D03*
X028593D02*
D03*
X028396Y02227D02*
D03*
X026555Y023933D02*
D03*
X026358Y023933D02*
D03*
X026161D02*
D03*
X025965D02*
D03*
X025768Y023933D02*
D03*
X025768Y022248D02*
D03*
X025965Y022248D02*
D03*
X026161D02*
D03*
X026358D02*
D03*
X026555D02*
D03*
D14*
X026683Y011142D02*
D03*
Y011831D02*
D03*
X029291Y010285D02*
D03*
Y010974D02*
D03*
D15*
X019203Y018046D02*
D03*
Y01847D02*
D03*
X019872D02*
D03*
Y018046D02*
D03*
D16*
X019173Y018258D02*
D03*
X019902D02*
D03*
D17*
X028455Y019774D02*
D03*
X028848D02*
D03*
X01749Y015817D02*
D03*
X017884D02*
D03*
X017756Y015344D02*
D03*
X01815D02*
D03*
X017667Y017215D02*
D03*
X018061D02*
D03*
X018071Y017805D02*
D03*
X018465D02*
D03*
X02376Y020669D02*
D03*
X024154D02*
D03*
X026496Y024724D02*
D03*
X026102D02*
D03*
X032825Y013937D02*
D03*
X033219D02*
D03*
X024921Y01748D02*
D03*
X025315D02*
D03*
X03378Y010709D02*
D03*
X033386D02*
D03*
X024764Y018032D02*
D03*
X025157D02*
D03*
X016811Y017087D02*
D03*
X017205D02*
D03*
X021388Y014872D02*
D03*
X020994D02*
D03*
X029616Y012835D02*
D03*
X029222Y012835D02*
D03*
X029616Y012313D02*
D03*
X029222D02*
D03*
X016486Y012894D02*
D03*
X016093D02*
D03*
X018032Y012421D02*
D03*
X017638D02*
D03*
X031526Y011693D02*
D03*
X031919D02*
D03*
X022598Y014016D02*
D03*
X022205D02*
D03*
X022598Y013494D02*
D03*
X022205D02*
D03*
X015551Y017323D02*
D03*
X015157D02*
D03*
X017628Y013661D02*
D03*
X018022D02*
D03*
X023051Y008415D02*
D03*
X022657D02*
D03*
X023573Y010778D02*
D03*
X023179D02*
D03*
X025138Y02064D02*
D03*
X024744D02*
D03*
X02253Y008947D02*
D03*
X022136D02*
D03*
X020965Y010059D02*
D03*
X021358D02*
D03*
D20*
X028425Y014783D02*
D03*
Y013484D02*
D03*
X027362Y014724D02*
D03*
X027362Y013425D02*
D03*
D21*
X022215Y015512D02*
D03*
X019872Y012785D02*
D03*
X012205Y01438D02*
D03*
X016811Y017844D02*
D03*
X02124Y009439D02*
D03*
D24*
X024753Y024264D02*
D03*
X024004D02*
D03*
X024378Y025052D02*
D03*
X026871Y016533D02*
D03*
X02762D02*
D03*
X027246Y015746D02*
D03*
X033407Y009801D02*
D03*
X034155Y009801D02*
D03*
X033781Y009013D02*
D03*
X011812Y012549D02*
D03*
X012186Y013336D02*
D03*
X011438D02*
D03*
D28*
X02565Y02D02*
D03*
X024508D02*
D03*
D29*
X033809Y015807D02*
D03*
Y016949D02*
D03*
D32*
X032274Y012579D02*
D03*
X030896D02*
D03*
D33*
X02248Y024715D02*
D03*
X022992D02*
D03*
X018839Y020197D02*
D03*
X018327D02*
D03*
X011053Y02127D02*
D03*
X011398Y014301D02*
D03*
X010886D02*
D03*
X014301Y016427D02*
D03*
X014301Y015561D02*
D03*
Y01377D02*
D03*
Y014656D02*
D03*
X023179Y008947D02*
D03*
X023691D02*
D03*
X020945Y015453D02*
D03*
X021457D02*
D03*
X020394Y010689D02*
D03*
X019882D02*
D03*
D50*
X014301Y014656D02*
X015728D01*
X015827Y015463D02*
X015886Y015522D01*
X016373D01*
X016796Y014537D02*
Y014769D01*
X016467Y015098D02*
X016796Y014769D01*
X015689Y015098D02*
X016467D01*
X015226Y015561D02*
X015689Y015098D01*
X014301Y015561D02*
X015226D01*
X014301D02*
X014341Y015522D01*
X016348Y014833D02*
X016467D01*
X016585Y014715D01*
Y014567D02*
Y014715D01*
X016604Y014262D02*
X016811Y014055D01*
X016467Y014262D02*
X016604D01*
X016373Y014356D02*
X016467Y014262D01*
X016373Y014356D02*
Y014537D01*
X026535Y016683D02*
Y016762D01*
Y016683D02*
X026686Y016533D01*
X014203Y013061D02*
X014282Y01314D01*
X014419Y013278D01*
X016427Y010758D02*
X016545Y010876D01*
X01626Y010758D02*
X016427D01*
X01625D02*
X01626D01*
X015827Y011181D02*
X01625Y010758D01*
X031526Y01187D02*
X031526Y01187D01*
Y011693D02*
Y01187D01*
X031673Y011693D02*
X031673Y011693D01*
X031526Y011693D02*
X031673D01*
X031378Y011693D02*
X031378Y011693D01*
X031526D01*
X024632Y015772D02*
Y016614D01*
Y015772D02*
X025132Y015272D01*
Y014488D02*
Y015272D01*
X025632Y014488D02*
Y015126D01*
Y016614D02*
X025906D01*
X024632D02*
Y017191D01*
X024921Y01748D01*
Y017589D01*
X025157Y017825D01*
Y018032D01*
X025315Y01748D02*
Y0175D01*
Y01748D02*
X025453D01*
X026181Y017992D02*
Y018032D01*
X026654Y017992D02*
X026732D01*
X026181Y017598D02*
X026732D01*
X025069Y015689D02*
X025632Y015126D01*
X025069Y016551D02*
X025132Y016614D01*
X02688Y007224D02*
X029491D01*
X03007Y007804D01*
X028819Y010285D02*
Y010295D01*
X03128Y008691D02*
X032402D01*
X032707Y008386D01*
X033022D01*
X033504D01*
X029291Y009862D02*
X029636Y009518D01*
X029291Y009862D02*
Y010285D01*
X031713Y012864D02*
X031919Y012657D01*
Y011693D02*
Y012657D01*
X031526Y011506D02*
Y011693D01*
X032726Y012904D02*
X032785Y012963D01*
X033209D01*
X03252Y013346D02*
X03253Y013356D01*
X033219Y013366D02*
Y013937D01*
X033209Y013356D02*
X033219Y013366D01*
X032677Y013937D02*
X032825D01*
X031713Y012972D02*
X032677Y013937D01*
X031713Y012864D02*
Y012972D01*
X033504Y008386D02*
X033799Y008681D01*
Y008956D01*
X033742Y009013D02*
X033799Y008956D01*
X033071Y012185D02*
Y012451D01*
Y012185D02*
X033238Y012018D01*
Y01126D02*
Y012018D01*
Y01126D02*
X033248Y01125D01*
X031526Y011506D02*
X031772Y01126D01*
X03315D01*
X03378Y010709D02*
X034104D01*
X03003Y006929D02*
X030226Y007126D01*
X028455Y016191D02*
X028465Y016181D01*
X028455Y016191D02*
Y016457D01*
X026686Y016533D02*
X026871D01*
Y017459D01*
X026732Y017598D02*
X026871Y017459D01*
X023533Y012451D02*
X023553Y01247D01*
X022185Y016565D02*
X022638D01*
X022707Y016496D01*
X022953D01*
X022185Y016821D02*
X022638D01*
X022717Y0169D01*
X022943D01*
X022185Y017077D02*
Y017303D01*
X022185Y017303D02*
X022185Y017303D01*
Y016073D02*
Y016309D01*
X022185Y016073D02*
X022185Y016073D01*
X022323Y022096D02*
X022972D01*
X022313Y022106D02*
X022323Y022096D01*
X023868Y020876D02*
Y021333D01*
X02377Y020778D02*
X023868Y020876D01*
X024065Y020896D02*
Y021333D01*
Y020896D02*
X024134Y020827D01*
Y020669D02*
Y020827D01*
X024459Y023018D02*
X024659D01*
X024665Y023012D01*
X024065Y023018D02*
Y023504D01*
X024114Y023553D01*
X024262Y021333D02*
Y021713D01*
X023671Y023018D02*
X023865D01*
X023671Y023018D02*
X023671Y023018D01*
X022333Y024715D02*
X02248D01*
X022185Y024862D02*
X022333Y024715D01*
X026361Y022248D02*
X026407Y022293D01*
X027067D01*
X026555Y023927D02*
X027234Y023248D01*
X026555Y023927D02*
Y023933D01*
X027234Y023248D02*
X02752D01*
X027234Y022854D02*
X02752D01*
X02753Y022844D01*
X024753Y023781D02*
X024754Y02378D01*
X024753Y023781D02*
Y024264D01*
X026161Y023933D02*
Y02437D01*
X026093Y024439D02*
X026161Y02437D01*
X026093Y024439D02*
Y024715D01*
X026102Y024724D01*
X026358Y023933D02*
Y024301D01*
X026496Y024439D01*
Y024724D01*
X029577Y023593D02*
Y023898D01*
X029537Y023937D02*
X029577Y023898D01*
X028268Y022854D02*
X028642D01*
X028789Y022707D01*
Y02227D02*
Y022707D01*
X028396Y02227D02*
X028593D01*
X028396Y02227D02*
X028396Y02227D01*
X028396Y021299D02*
Y02227D01*
X028789Y020079D02*
Y020585D01*
Y020079D02*
X028848Y02002D01*
Y019774D02*
Y02002D01*
X028593Y020148D02*
Y020585D01*
X028455Y02001D02*
X028593Y020148D01*
X028455Y019774D02*
Y02001D01*
X028986Y020167D02*
Y020585D01*
X027726Y020925D02*
X028055D01*
X028396Y020585D01*
X029183Y02227D02*
X029561D01*
X029685Y022146D01*
X028661Y011348D02*
X028671Y011339D01*
X033022Y00878D02*
Y009144D01*
X033031Y009154D01*
X024409Y013858D02*
X024632Y014081D01*
Y014488D01*
X024754Y018022D02*
X024764Y018032D01*
X028986Y020167D02*
X029252Y019902D01*
X013228Y015738D02*
X013238Y015728D01*
Y013967D02*
Y014227D01*
Y014488D01*
X013228Y015738D02*
Y015984D01*
Y01625D01*
X016796Y015522D02*
X017106D01*
X017106Y015522D01*
X017156Y013868D02*
X017156Y013868D01*
X016673Y016457D02*
X01748D01*
X016575Y016358D02*
X016673Y016457D01*
X016575Y016358D02*
X016585Y016348D01*
Y01622D02*
Y016348D01*
X016654Y015157D02*
X017264D01*
X016585Y015226D02*
X016654Y015157D01*
X016585Y015226D02*
Y015492D01*
Y013543D02*
Y013839D01*
X016614Y012404D02*
Y012657D01*
X016496Y012776D02*
X016614Y012657D01*
X016496Y012776D02*
Y012894D01*
X015839Y012333D02*
X015974D01*
X016016Y012374D01*
X016402D01*
X013179Y012502D02*
X013386Y012709D01*
X013179Y012461D02*
Y012502D01*
X012913Y012709D02*
X012931D01*
X013179Y012461D01*
X012913Y013102D02*
X013386D01*
X016211Y010482D02*
X016545D01*
X016142Y010413D02*
X016211Y010482D01*
X015827Y011181D02*
Y011291D01*
X015354Y010443D02*
Y011291D01*
Y010443D02*
X015433Y010364D01*
X015354Y011685D02*
X015827D01*
X015827Y011685D01*
X016383D01*
X016402Y011705D01*
X019715Y014045D02*
X020364D01*
X020364Y014045D01*
X019715Y013652D02*
X019734Y013671D01*
X021073Y013691D02*
X021427Y014045D01*
X021073Y013691D02*
Y013691D01*
Y013691D02*
X021427Y013337D01*
Y013297D02*
Y013337D01*
Y014045D02*
X022175D01*
X022205Y014016D01*
X022579Y011171D02*
Y011427D01*
X020413Y011939D02*
X020886D01*
X020236Y012116D02*
X020413Y011939D01*
X019892Y012116D02*
X020236D01*
X019882Y012126D02*
X019892Y012116D01*
X020433Y011683D02*
X020886D01*
X019213Y011968D02*
X019724D01*
X019882Y012126D01*
X019213Y011575D02*
X019724D01*
X01747Y010226D02*
X01748Y010236D01*
X01503Y011535D02*
X015179Y011685D01*
X015354D01*
X022205Y013494D02*
Y014016D01*
X019882Y012126D02*
Y012618D01*
X019656Y012844D02*
X019882Y012618D01*
X012815Y022795D02*
Y023356D01*
Y022795D02*
X012854Y022756D01*
X013169D02*
Y023307D01*
X013258Y023396D01*
X011565Y021073D02*
Y02127D01*
X019882Y01063D02*
Y011417D01*
X019882Y01063D02*
X019882Y01063D01*
X020886Y011073D02*
X020896Y011063D01*
X011732Y020728D02*
Y020738D01*
X013209Y019813D02*
X013431Y020035D01*
X014035D01*
X0155Y019606D02*
X015571Y019535D01*
X015512Y019094D02*
X015571Y019035D01*
X017766Y02503D02*
X017776Y025039D01*
X018642Y024596D02*
Y025039D01*
X018642Y025039D01*
X019951Y0244D02*
Y02503D01*
X019941Y025039D02*
X019951Y02503D01*
X017283Y023681D02*
Y023711D01*
X018898Y024104D02*
X018937Y024144D01*
Y025039D01*
X017283Y023711D02*
X0194D01*
X019508Y023819D01*
Y025039D01*
X019213Y024035D02*
Y025039D01*
Y024035D02*
X019252Y023996D01*
X016752Y024455D02*
X016801Y024406D01*
Y022654D02*
X016965Y02249D01*
X017933Y020197D02*
X018327D01*
X017717D02*
X017933D01*
X017598Y020315D02*
X017717Y020197D01*
X016811Y017156D02*
Y017844D01*
X017205Y017087D02*
X017539D01*
X017667Y017215D01*
Y017018D02*
Y017215D01*
Y017018D02*
X017933Y016752D01*
X019055D01*
X015945Y0169D02*
X016211Y016634D01*
X017215D01*
X017323Y016742D01*
X017628D01*
X020492Y017077D02*
X020807Y017392D01*
X021201D01*
X017766Y015325D02*
Y015699D01*
Y015325D02*
X017776Y015315D01*
X017618Y015157D02*
X017776Y015315D01*
X017264Y015157D02*
X017618D01*
X017766Y015699D02*
X017884Y015817D01*
X017402D02*
X01749D01*
X017106Y015522D02*
X017402Y015817D01*
X021555Y015453D02*
Y016654D01*
X021398Y016811D02*
X021555Y016654D01*
X020502Y016811D02*
X021398D01*
X020492Y016821D02*
X020502Y016811D01*
X020492Y016565D02*
X020906D01*
X021004Y016467D01*
Y015837D02*
Y016467D01*
X020896Y015728D02*
X021004Y015837D01*
X020896Y015226D02*
Y015728D01*
Y015226D02*
X020994Y015128D01*
Y014872D02*
Y015128D01*
X021388Y014872D02*
Y015108D01*
X021555Y015276D01*
Y015453D01*
X020157Y014843D02*
X020965D01*
X020994Y014872D01*
X016585Y013543D02*
X016604Y013524D01*
X01564Y012531D02*
X015839Y012333D01*
X015551Y012087D02*
X0156Y012037D01*
X018278Y011959D02*
X019203D01*
X019213Y011968D01*
X017628Y016742D02*
X017904Y016467D01*
X021555Y015453D02*
X022215D01*
X022018Y014852D02*
X022441D01*
X020364Y014213D02*
X02063Y014478D01*
X020364Y014045D02*
Y014213D01*
X019203Y018046D02*
X019335D01*
X019419Y01813D01*
Y018287D01*
X019596Y018465D01*
X019579Y018142D02*
X019695Y018258D01*
X019902D01*
X019579Y017749D02*
Y018142D01*
X018061Y017215D02*
Y017736D01*
X018061Y017736D01*
X017726Y019144D02*
X017982D01*
X017461Y019409D02*
X017726Y019144D01*
X017933Y019705D02*
X017982Y019656D01*
X017933Y019705D02*
Y020197D01*
X018022Y013661D02*
X018386D01*
X018563Y013484D01*
X018573Y013494D01*
X018593D01*
X01874Y013189D02*
X018907Y013356D01*
X020305D01*
X020364Y013297D01*
X028425Y019774D02*
X028455D01*
X02062Y01248D02*
Y012854D01*
Y01248D02*
X020886Y012215D01*
Y012195D02*
Y012215D01*
X018032Y012421D02*
X018642D01*
X018691Y012372D01*
X01815Y015344D02*
X019154D01*
X0194Y015591D01*
X017303Y018169D02*
X018061D01*
Y017736D02*
Y018169D01*
X018612D01*
X018888Y018445D01*
X025896Y023337D02*
X02622D01*
X026358Y023474D01*
Y023933D01*
X025434Y022875D02*
X025896Y023337D01*
X026161Y022248D02*
Y022844D01*
X026319Y023002D01*
X025768Y023933D02*
Y024154D01*
X0256Y024321D02*
X025768Y024154D01*
X024754Y02378D02*
X025197Y023337D01*
X029183Y020285D02*
Y020585D01*
X019872Y018046D02*
X020123D01*
X020207Y01813D01*
X027992Y02313D02*
X028051Y023189D01*
X027992Y022411D02*
Y02313D01*
X018888Y018445D02*
Y018612D01*
X019203Y01847D02*
Y018583D01*
X020207Y01813D02*
Y018819D01*
X019961Y019065D02*
X020207Y018819D01*
X014823Y018396D02*
X014868D01*
X015008Y018535D01*
X015571D01*
X014784Y018799D02*
X015079Y019094D01*
X015512D01*
X015421Y019528D02*
X0155Y019606D01*
X014774Y019163D02*
X015138Y019528D01*
X015421D01*
X014774Y019646D02*
X015163Y020035D01*
X015571D01*
X011732Y020738D02*
X011811Y020817D01*
X014596D01*
X012421Y020551D02*
X012452Y020582D01*
X014765D01*
X014951Y020768D01*
Y02122D01*
X023671Y021333D02*
Y021348D01*
X023327Y021693D02*
X023671Y021348D01*
X022972Y021703D02*
X023317D01*
X023327Y021693D01*
X029252Y019478D02*
Y019902D01*
X029183Y020285D02*
X029685Y019783D01*
Y019744D02*
Y019783D01*
X027077Y019557D02*
X027244Y01939D01*
X0269Y021624D02*
X027805Y02253D01*
X0269Y019163D02*
Y021624D01*
X024488Y006929D02*
X03003D01*
X019734Y010197D02*
X020827D01*
X020965Y010059D01*
X021358D02*
X021486D01*
X021811Y010384D01*
X022176D01*
Y009636D02*
Y010384D01*
X022136Y008947D02*
X022176Y008987D01*
Y009636D01*
X022432Y009251D02*
Y009636D01*
Y009251D02*
X02253Y009154D01*
Y008947D02*
Y009154D01*
X023051Y008415D02*
X023179Y008543D01*
Y008947D01*
X022688Y009636D02*
X023484D01*
X023474Y009626D02*
X023484Y009636D01*
X023474Y009409D02*
Y009626D01*
X023179Y009114D02*
X023474Y009409D01*
X023179Y008947D02*
Y009114D01*
X022432Y010384D02*
X022688D01*
X022924Y010148D02*
X023858D01*
X023494Y010157D02*
X023504Y010148D01*
X023858D01*
X022688Y010384D02*
X022924Y010148D01*
X022688Y010384D02*
Y01065D01*
X022815Y010778D01*
X023179D01*
X020965Y009705D02*
Y010059D01*
Y009705D02*
X021211Y009459D01*
X021476D01*
X021506Y01937D02*
X021772Y019636D01*
X022982D01*
X016407Y018248D02*
Y018878D01*
Y018248D02*
X016811Y017844D01*
X018455Y017736D02*
X018976Y018258D01*
X019173D01*
X019872Y018661D02*
X019882Y018671D01*
X019872Y01847D02*
Y018661D01*
X020482Y017707D02*
X022067D01*
X019459Y017461D02*
Y017628D01*
X019579Y017749D01*
X020335Y017992D02*
X021319D01*
X026181Y018032D02*
X026329Y018179D01*
X026457D01*
X026467D02*
X026654Y017992D01*
X026457Y018179D02*
X026467D01*
X016841Y018701D02*
X018337D01*
X018445Y018809D01*
X019203Y018583D02*
X01936Y01874D01*
X023865Y02268D02*
Y023018D01*
Y02268D02*
X024114Y022431D01*
X024252D01*
X023888Y022087D02*
X024262Y021713D01*
X023839Y022087D02*
X023888D01*
X023868Y022411D02*
X024459Y021821D01*
Y021333D02*
Y021821D01*
X024252Y022431D02*
X024577Y022106D01*
X016437Y013189D02*
X01874D01*
X015157D02*
X015394Y013425D01*
X016201D01*
X016437Y013189D01*
X016093Y012894D02*
Y01314D01*
X016043Y013189D02*
X016093Y01314D01*
X01564Y012894D02*
X016093D01*
X033386Y010709D02*
Y010955D01*
X033583Y011152D01*
Y014518D01*
X03314Y014961D02*
X033583Y014518D01*
X029429Y014961D02*
X03314D01*
X02878Y014311D02*
X029429Y014961D01*
X026339Y014311D02*
X02878D01*
X024132Y015937D02*
Y016614D01*
Y015937D02*
X024882Y015187D01*
Y014075D02*
Y015187D01*
Y014075D02*
X025079Y013878D01*
X025906D01*
X026339Y014311D01*
X019843Y017067D02*
X020482Y017707D01*
X019892Y017549D02*
X020335Y017992D01*
X019892Y01748D02*
Y017549D01*
X019596Y018465D02*
X019892D01*
X019961Y019065D02*
X01997D01*
X018445Y018809D02*
X018789D01*
X019528Y019547D01*
X021407D01*
X018888Y018612D02*
X019646Y01937D01*
X021506D01*
X02185Y022411D02*
X023868D01*
X021634Y022402D02*
X021841D01*
X02185Y022411D01*
X012186Y013336D02*
Y014362D01*
X012205Y01438D01*
X02377Y020669D02*
Y020778D01*
X023465Y020531D02*
X023474Y020541D01*
X023642D01*
X02377Y020669D01*
X023268Y020246D02*
X023642D01*
X02376Y020364D01*
X024134D01*
X024537Y020433D02*
X024744Y02064D01*
X024537Y02D02*
Y020433D01*
X024453Y019915D02*
X024537Y02D01*
X024453Y018898D02*
Y019915D01*
X025453Y018898D02*
X025679Y019124D01*
Y02D01*
X025138Y020541D02*
X025679Y02D01*
X025138Y020541D02*
Y02064D01*
X019173Y008081D02*
Y009518D01*
X018888Y007795D02*
X019173Y008081D01*
X017402Y007795D02*
X018888D01*
X018691Y008051D02*
Y010768D01*
X012441Y016929D02*
Y017352D01*
Y016929D02*
X012717Y016654D01*
X012441Y017746D02*
Y019045D01*
X013209Y019813D01*
X01503Y010197D02*
X015728Y009498D01*
X01503Y010197D02*
Y011535D01*
X015896Y007785D02*
X015906Y007795D01*
X013573Y007352D02*
X013642Y007421D01*
X013142Y007435D02*
Y00763D01*
X013053Y007435D02*
X01314Y007522D01*
X014252Y008327D02*
X014488D01*
X013642Y007717D02*
X014252Y008327D01*
X013642Y007435D02*
Y007717D01*
X014213Y008701D02*
X014311D01*
X013142Y00763D02*
X014213Y008701D01*
X014232Y009026D02*
X014921D01*
X015069Y008878D01*
X011438Y013336D02*
Y01426D01*
X011398Y014301D02*
X011438Y01426D01*
X013041Y008278D02*
Y008667D01*
X012589Y007825D02*
X013041Y008278D01*
X01187Y007825D02*
X012589D01*
X01185Y007805D02*
X01187Y007825D01*
X012541Y00823D02*
Y008667D01*
X012441Y00813D02*
X012541Y00823D01*
X012041Y008667D02*
Y009376D01*
X01188Y009537D02*
X012041Y009376D01*
X011541Y008667D02*
Y009691D01*
X011919Y010069D01*
X013041Y010876D02*
X014528D01*
X011541D02*
Y011217D01*
X011752Y011427D01*
X013415Y012156D02*
X013681Y012421D01*
X013868D01*
X013819Y012766D02*
X013868Y012815D01*
X013443Y012766D02*
X013819D01*
X013386Y012709D02*
X013443Y012766D01*
X01268Y013336D02*
X012913Y013102D01*
X012186Y013336D02*
X01268D01*
X012186Y012843D02*
X01251Y01252D01*
X012186Y012843D02*
Y013336D01*
X012541Y010876D02*
Y011193D01*
X012736Y011388D01*
X014026D01*
X012041Y010876D02*
Y011067D01*
X012569Y011594D01*
X013927D01*
X011752Y011427D02*
X012136D01*
X01249Y011782D01*
X013543D01*
X013927Y011594D02*
X014203Y01187D01*
Y013061D01*
X013543Y011782D02*
X013809Y012047D01*
X012972Y016949D02*
Y017313D01*
X025453Y01748D02*
X025591Y017618D01*
X025787D01*
X022776Y017067D02*
X022943Y0169D01*
X022776Y017067D02*
Y017215D01*
X011438Y013337D02*
X011438Y013336D01*
X022067Y017707D02*
X022983Y018623D01*
Y019075D01*
X014813Y017323D02*
X015157D01*
X014567Y017077D02*
X014813Y017323D01*
X014567Y016949D02*
Y017077D01*
X02376Y018996D02*
Y019301D01*
X021407Y019547D02*
X022028Y020167D01*
X02315Y019911D02*
X02376Y019301D01*
X02252Y019911D02*
X02315D01*
X022264Y020167D02*
X02252Y019911D01*
X022028Y020167D02*
X022264D01*
X02122Y020157D02*
X021575Y020512D01*
X023002D01*
X023268Y020246D01*
X018839Y020197D02*
X0206D01*
X021004Y019793D01*
X021358D01*
X021909Y020344D01*
X022707D01*
X022965Y020086D01*
X02326D01*
X023661Y017687D02*
X023681Y017667D01*
X022953Y016496D02*
X023602Y015846D01*
Y01562D02*
Y015846D01*
X023681Y017667D02*
X023927D01*
X024587Y018032D02*
X024764D01*
X024321Y017766D02*
X024587Y018032D01*
X024321Y017411D02*
Y017766D01*
X024213Y017303D02*
X024321Y017411D01*
X023671Y017303D02*
X024213D01*
X023661Y017293D02*
X023671Y017303D01*
X019724Y011575D02*
X019803Y011496D01*
X020246D01*
X020433Y011683D01*
X017904Y016467D02*
X019252D01*
X019429Y016644D01*
X02003D01*
X020207Y016821D01*
X020492D01*
X019055Y017156D02*
X01939Y016821D01*
X019931D01*
X020187Y017077D01*
X020492D01*
X023012Y024734D02*
Y025246D01*
X023002Y025256D02*
X023012Y025246D01*
X022992Y024715D02*
X023012Y024734D01*
X024035Y018081D02*
Y019311D01*
X02326Y020086D02*
X024035Y019311D01*
Y018081D02*
X024134Y017982D01*
X01374Y02189D02*
X013799Y021949D01*
X011639Y012549D02*
X011812D01*
X025965Y023933D02*
Y024301D01*
X025837Y024429D02*
X025965Y024301D01*
X025837Y024429D02*
Y024518D01*
X02564Y024715D02*
X025837Y024518D01*
X02563Y024715D02*
X02564D01*
X025738Y022766D02*
X025768Y022736D01*
Y022248D02*
Y022736D01*
X017283Y012421D02*
X017638D01*
X027077Y019557D02*
Y021496D01*
X027992Y022411D01*
X027402Y021102D02*
X02747D01*
X027648Y020925D01*
X027726D01*
X027441Y021496D02*
X027549D01*
X027726Y021319D01*
X028228Y019577D02*
X028425Y019774D01*
X028228Y019409D02*
Y019577D01*
X014026Y011388D02*
X014488Y01185D01*
Y012953D01*
X014803Y011152D02*
Y012638D01*
X014528Y010876D02*
X014803Y011152D01*
X017648Y011811D02*
X018691Y010768D01*
X017638Y011811D02*
X017648D01*
X0156Y012037D02*
X017532D01*
X01754Y012046D01*
X01819D01*
X018278Y011959D01*
X013012Y017746D02*
Y018199D01*
X012844Y018366D02*
X013012Y018199D01*
X012844Y018366D02*
Y018701D01*
X013159Y019016D01*
X013268D01*
X013287Y019035D01*
X014035D01*
X013228Y019409D02*
X013354Y019535D01*
X014035D01*
X013238Y018593D02*
X013978D01*
X014035Y018535D01*
X022441Y014852D02*
X022707Y015118D01*
X023976Y015079D02*
X024016Y015118D01*
X022707D02*
X024016D01*
X023661Y016102D02*
X024291Y015472D01*
Y014961D02*
Y015472D01*
X024134Y014803D02*
X024291Y014961D01*
X024132Y014409D02*
X024134Y014411D01*
Y014803D01*
X025197Y021004D02*
Y023337D01*
Y021004D02*
X025541Y020659D01*
X025434Y021249D02*
Y022875D01*
Y021249D02*
X025492Y021191D01*
X025541Y020659D02*
X025748D01*
X025937Y020471D01*
Y018788D02*
Y020471D01*
Y018788D02*
X026024Y018701D01*
Y018327D02*
Y018701D01*
X029114Y023248D02*
X029426Y022936D01*
X029114Y023248D02*
Y023415D01*
X028051Y023612D02*
X028317Y023346D01*
X029045D01*
X029114Y023415D01*
X027776Y023612D02*
X027805D01*
X028051D01*
X027805Y02253D02*
Y023612D01*
X017766Y024094D02*
Y02503D01*
X018199Y025049D02*
X018209Y025039D01*
X027453Y018898D02*
X02752Y018831D01*
X02751Y018821D02*
X02752Y018831D01*
X02751Y018189D02*
Y018821D01*
X028455Y01685D02*
X028465Y01686D01*
X028504Y016821D02*
X028839D01*
X028465Y01686D02*
X028504Y016821D01*
X01123Y020738D02*
X011565Y021073D01*
X011053Y021506D02*
X011053Y021506D01*
X011053Y02127D02*
Y02128D01*
Y021506D01*
X011014Y021319D02*
X011053Y02128D01*
X010837Y02127D02*
X011053D01*
X010837Y02127D02*
X010837Y02127D01*
X011053Y021033D02*
Y02127D01*
Y021033D02*
X011053Y021033D01*
X011053Y02128D02*
X011073Y02126D01*
X013799Y022756D02*
Y023248D01*
X013799Y023248D01*
X013799Y022264D02*
Y022756D01*
Y022264D02*
X013799Y022264D01*
X013799Y022756D02*
X013937D01*
X013937Y022756D01*
X017539Y020709D02*
X017717D01*
X017717Y020709D01*
X017539Y020709D02*
Y020866D01*
X017362Y020709D02*
X017539D01*
X017362Y020709D02*
X017362Y020709D01*
X034154Y010217D02*
X034155Y010215D01*
X034154Y00938D02*
X034155Y009381D01*
X015896Y007785D02*
X015906Y007776D01*
X01748Y009409D02*
Y009459D01*
X011812Y012549D02*
X011988D01*
X011988Y012549D01*
X011812Y012137D02*
Y012549D01*
X011811Y012136D02*
X011812Y012137D01*
X010886Y014301D02*
Y014537D01*
Y014065D02*
Y014301D01*
X010669D02*
X010886D01*
X012642Y007435D02*
X014232Y009026D01*
X029222Y012835D02*
Y012992D01*
X029203Y013012D02*
X029222Y012992D01*
Y012657D02*
Y012835D01*
X029222Y012657D02*
X029222Y012657D01*
X029065Y012835D02*
X029222D01*
X029222Y012313D02*
Y01249D01*
X029222Y01249D02*
X029222Y01249D01*
Y012136D02*
Y012313D01*
X029222Y012136D02*
X029222Y012136D01*
X029065Y012313D02*
X029222D01*
X029065Y012313D02*
X029065Y012313D01*
X029616Y012835D02*
Y013002D01*
Y012136D02*
Y012313D01*
Y012835D01*
Y012313D02*
X029764D01*
X029764Y012313D01*
X029616Y012835D02*
X029764D01*
X029764Y012835D01*
X025069Y016033D02*
Y016551D01*
Y015689D02*
Y016033D01*
X023661Y016102D02*
Y016902D01*
X02367Y016911D01*
X023661Y017293D02*
X02367Y017285D01*
Y016911D02*
Y017285D01*
X02253Y008784D02*
Y008947D01*
X022672D01*
X022657Y008415D02*
Y008593D01*
Y008248D02*
Y008415D01*
X022505D02*
X022657D01*
X0225Y00842D02*
X022505Y008415D01*
X022598Y014016D02*
X022603D01*
X022756D01*
X022603D02*
Y014193D01*
X022598Y013317D02*
X022603Y013322D01*
X022598Y013494D02*
X022603D01*
X022756D01*
X022603Y013322D02*
Y013494D01*
Y014016D01*
X023573Y010778D02*
Y010955D01*
Y0106D02*
Y010778D01*
X023848D01*
X022254Y011427D02*
X022579D01*
X022904D01*
X022569Y011437D02*
X022579Y011427D01*
X022579Y011427D01*
Y012195D02*
Y012328D01*
X022574Y012333D02*
X022579Y012328D01*
X022254Y012195D02*
X022579D01*
X022254Y012195D02*
X022254Y012195D01*
X020886Y011289D02*
Y011427D01*
Y011289D02*
X020886Y011289D01*
X020561Y011427D02*
X021211D01*
X016373Y016191D02*
Y016329D01*
X016368Y016324D02*
X016373Y016329D01*
X016359Y016172D02*
X016368Y016181D01*
X01626Y016172D02*
X016359D01*
X016368Y016181D02*
Y016324D01*
X015551Y017323D02*
Y01749D01*
X015551Y01749D01*
X015551Y017156D02*
Y017323D01*
Y017156D02*
X015551Y017156D01*
X015551Y017323D02*
X015699D01*
X015699Y017323D01*
X020187Y016309D02*
X020492D01*
Y016181D02*
Y016309D01*
X017628Y013661D02*
Y013839D01*
X017628Y013839D02*
X017628Y013839D01*
Y013484D02*
Y013661D01*
X017628Y013484D02*
X017628Y013484D01*
X01747Y013661D02*
X017628D01*
X01747Y013661D02*
X01747Y013661D01*
X016796Y013868D02*
Y014006D01*
X016796Y014006D02*
X016796Y014006D01*
Y013731D02*
Y013868D01*
X016796Y01373D02*
X016796Y013731D01*
Y013868D02*
X016909D01*
X016909Y013868D01*
X016545Y010482D02*
X01655Y010487D01*
X016722D01*
X016545Y010335D02*
Y010482D01*
Y010335D02*
X016545Y010335D01*
X016545Y010482D02*
Y01063D01*
X016545Y01063D01*
D53*
X027766Y009517D02*
X027913Y009369D01*
X028455Y010157D02*
X028583Y010285D01*
X032274Y0131D02*
X03252Y013346D01*
X032274Y012579D02*
Y0131D01*
X033789Y015787D02*
X033809Y015807D01*
X028425Y014783D02*
X028425Y014783D01*
X026526Y011988D02*
X026683Y011831D01*
X026526Y011988D02*
Y012835D01*
X023553Y01247D02*
X023563Y012461D01*
X026476Y011142D02*
X026683D01*
X024004Y023663D02*
X024114Y023553D01*
X024004Y023663D02*
Y024264D01*
X013228Y016644D02*
X013573D01*
X013789Y016427D01*
X013238Y015335D02*
X013563D01*
X013789Y015561D01*
X013238Y014882D02*
X013563D01*
X013789Y014656D01*
X013238Y013573D02*
X013593D01*
X013789Y01377D01*
X019734Y013671D02*
X020364D01*
X012539Y022756D02*
Y02311D01*
X024094Y024911D02*
X024238D01*
X024378Y025052D01*
X024494Y025167D01*
X024656D01*
X01063Y013337D02*
X011438D01*
X023396Y014783D02*
X023837D01*
X024132Y014488D01*
X029537Y024449D02*
X029636D01*
X028238Y024124D02*
X028507Y023855D01*
X027776Y024124D02*
X028238D01*
X029636Y024449D02*
X03001Y024075D01*
Y023681D02*
Y024075D01*
Y023681D02*
X030059Y023632D01*
X034155Y009801D02*
Y010215D01*
Y009381D02*
Y009801D01*
X017795Y009459D02*
X017795D01*
X018425D01*
X028967Y010974D02*
X029291D01*
X028967Y010974D02*
X028967Y010974D01*
X029291D02*
X029616D01*
X029616Y010974D01*
X029291Y010974D02*
Y011191D01*
X029291Y011191D01*
X027766Y009823D02*
Y010157D01*
X027539D02*
X027766D01*
X027539Y010157D02*
X027539Y010157D01*
X031309Y015659D02*
X031437Y015787D01*
X03123Y015738D02*
X031309Y015659D01*
X027667Y016693D02*
X027795D01*
X02762Y016123D02*
Y016533D01*
X027618Y016122D02*
X02762Y016123D01*
X027657Y016378D02*
X027795D01*
X027246Y015257D02*
Y015746D01*
X027235Y015247D02*
X027246Y015257D01*
X027008Y015551D02*
X027126D01*
X027028Y015896D02*
X027126D01*
X026024Y010689D02*
X026476Y011142D01*
X025974Y010738D02*
X026024Y010689D01*
X025945Y010738D02*
X025974D01*
X023159Y014272D02*
X023396D01*
X023159Y014272D02*
X023159Y014272D01*
X023396D02*
X023632D01*
X023632Y014272D01*
X023396Y013947D02*
Y014272D01*
X020394Y010689D02*
Y010925D01*
X020394Y010925D02*
X020394Y010925D01*
Y010472D02*
Y010689D01*
X02061D01*
X014035Y018035D02*
X015571D01*
X016079D01*
X016083Y018032D01*
X013505Y018035D02*
X014035D01*
X013504Y018036D02*
X013505Y018035D01*
X014035Y017825D02*
Y018035D01*
X015571Y017825D02*
Y018035D01*
X015571Y017825D02*
X015571Y017825D01*
X020157Y015453D02*
X020394D01*
X020157D02*
Y015669D01*
X019921Y015453D02*
X020157D01*
D55*
X031289Y012185D02*
Y012185D01*
X03253Y013356D02*
X033209D01*
X033386Y009822D02*
Y010709D01*
Y009822D02*
X033407Y009801D01*
X024665Y012835D02*
X025837D01*
X024665Y012835D02*
X024665Y012835D01*
X022579Y011683D02*
X023159D01*
X023553Y012077D01*
X022579Y011939D02*
X023012D01*
X02311Y012037D01*
Y012313D01*
X023248Y012451D01*
X023533D01*
X023553Y012077D02*
X024429D01*
X024626Y012274D01*
Y012431D01*
X024287Y013175D02*
X024823D01*
X024104Y012992D02*
X024287Y013175D01*
X024104Y012854D02*
Y012992D01*
X023563Y012461D02*
X024104D01*
X025837Y012835D02*
Y012943D01*
X026348Y013455D01*
X0144Y013868D02*
X016373D01*
X014301Y01377D02*
X0144Y013868D01*
X016796Y01594D02*
Y016191D01*
X016713Y015856D02*
X016796Y01594D01*
X014872Y015856D02*
X016713D01*
X014301Y016427D02*
X014872Y015856D01*
X012539Y022411D02*
Y022756D01*
X011555Y022018D02*
X012146D01*
X023691Y008573D02*
Y008947D01*
X018839Y020197D02*
X018937Y020098D01*
X024055Y013976D02*
X024132Y014053D01*
X024055Y013661D02*
Y013976D01*
Y013661D02*
X024173Y013543D01*
X025315D01*
X025354Y013583D01*
X025994D01*
X024132Y014053D02*
Y014409D01*
Y014488D01*
X028507Y023855D02*
X028806Y024154D01*
X029065D01*
X02936Y024449D01*
X029537D01*
X024577Y022352D02*
X024941Y022717D01*
X024577Y022047D02*
Y022106D01*
Y022352D01*
X023238Y022904D02*
Y024469D01*
X022992Y024715D02*
X023238Y024469D01*
X025994Y013583D02*
X026486Y014075D01*
X028917D01*
X029045Y014203D01*
X027362Y014724D02*
Y014961D01*
X023691Y008947D02*
Y009183D01*
X023691Y009183D02*
X023691Y009183D01*
Y008947D02*
X023907D01*
D56*
X028985Y008889D02*
Y008958D01*
X028642Y009301D02*
X028985Y008958D01*
X028642Y009301D02*
Y009724D01*
X028455Y009911D02*
X028642Y009724D01*
X028455Y009911D02*
Y010157D01*
X029606Y015787D02*
Y015955D01*
X032677Y017165D02*
Y017431D01*
X032677Y017431D01*
X032677Y0169D02*
Y017165D01*
Y0169D02*
X032677Y0169D01*
X032677Y017165D02*
X033081D01*
X033081Y017165D01*
X032274Y017165D02*
X032677D01*
X032274Y017165D02*
X032274Y017165D01*
X028425Y013484D02*
Y01373D01*
X028425Y01373D01*
X028425Y013484D02*
X02873D01*
X02873Y013484D01*
X03063Y012579D02*
X03063Y012579D01*
X031161D02*
X031161Y012579D01*
X030896Y012215D02*
Y012579D01*
X030896Y012215D02*
X030896Y012215D01*
X030896Y012982D02*
X030896Y012982D01*
X027362Y014724D02*
X027815D01*
X027982Y014783D02*
X028425D01*
X027963Y014803D02*
X027982Y014783D01*
X028425D02*
Y015029D01*
X028425Y01503D01*
D57*
X015906Y007795D02*
Y008317D01*
Y007274D02*
Y007776D01*
X015266Y007795D02*
X015906D01*
X016545D01*
X017156Y009459D02*
X017156Y009459D01*
X01748D01*
X017795D01*
X017795Y008937D02*
Y009459D01*
Y00998D01*
D58*
X033809Y016949D02*
Y017195D01*
X033809Y017195D01*
X033809Y016703D02*
Y016949D01*
Y016703D02*
X033809Y016703D01*
X033809Y016949D02*
X034232D01*
X034232Y016949D01*
X034155Y009801D02*
X034328D01*
X034331Y009798D01*
X032274Y015787D02*
X032677D01*
X032274Y015787D02*
X032274Y015787D01*
X032677D02*
X033789D01*
X033814Y015812D02*
Y016053D01*
X033809Y015807D02*
X033814Y015812D01*
X033809Y015576D02*
Y015807D01*
Y015576D02*
X033814Y015571D01*
X033789Y015787D02*
X033789Y015787D01*
X032677Y015522D02*
Y015787D01*
Y015522D02*
X032677Y015522D01*
X032677Y015787D02*
Y016053D01*
X032677Y016053D01*
D59*
X028819Y010285D02*
X029291D01*
X028455Y010157D02*
Y010522D01*
X027362Y011053D02*
Y013425D01*
Y011053D02*
X027618Y010797D01*
X028179D01*
X028455Y010522D01*
X028583Y010285D02*
X028819D01*
X03063Y012579D02*
X030896D01*
X031161D01*
X030896D02*
Y012982D01*
D60*
X031526Y010433D02*
D03*
D61*
X027677Y008543D02*
D03*
D63*
X020028Y007323D02*
D03*
X019028D02*
D03*
D64*
X031004Y024409D02*
D03*
Y021693D02*
D03*
D65*
X033169Y024409D02*
D03*
Y021693D02*
D03*
D66*
X014642Y006935D02*
D03*
Y007435D02*
D03*
X014142Y006935D02*
D03*
Y007435D02*
D03*
X013642Y006935D02*
D03*
Y007435D02*
D03*
X013142Y006935D02*
D03*
Y007435D02*
D03*
X012642Y006935D02*
D03*
Y007435D02*
D03*
X010984Y007047D02*
D03*
Y01937D02*
D03*
D67*
X033661Y007283D02*
D03*
X022244D02*
D03*
X022244Y018898D02*
D03*
X033661D02*
D03*
X030453D02*
D03*
X028453D02*
D03*
X029453D02*
D03*
X024453D02*
D03*
X025453D02*
D03*
X026453D02*
D03*
X027453D02*
D03*
D68*
X031453D02*
D03*
D69*
X012303Y02378D02*
D03*
X014035D02*
D03*
D70*
X015728Y014656D02*
D03*
X015827Y015463D02*
D03*
X016348Y014833D02*
D03*
X026535Y016762D02*
D03*
X014419Y013278D02*
D03*
X01626Y010758D02*
D03*
X031526Y010118D02*
D03*
X030344D02*
D03*
X032707D02*
D03*
X032116Y010118D02*
D03*
X032707Y010748D02*
D03*
X031526D02*
D03*
X030344D02*
D03*
X030935D02*
D03*
X032116D02*
D03*
X027913Y007716D02*
D03*
X027441D02*
D03*
X027441Y009369D02*
D03*
X027913Y009369D02*
D03*
Y008818D02*
D03*
X027441D02*
D03*
Y008267D02*
D03*
X027913D02*
D03*
X025906Y016614D02*
D03*
X02688Y007224D02*
D03*
X024941Y009281D02*
D03*
X025157Y0075D02*
D03*
X028819Y010295D02*
D03*
X029636Y009518D02*
D03*
X03128Y008691D02*
D03*
X033504Y008386D02*
D03*
X031289Y012185D02*
D03*
X031713Y012864D02*
D03*
X033071Y012451D02*
D03*
X032726Y012904D02*
D03*
X03252Y013346D02*
D03*
X032795Y007756D02*
D03*
X033248Y01125D02*
D03*
X034104Y010709D02*
D03*
X030226Y007126D02*
D03*
X023396Y013947D02*
D03*
X030079Y013002D02*
D03*
X028465Y016043D02*
D03*
X026526Y012283D02*
D03*
X024823Y013175D02*
D03*
X022185Y017303D02*
D03*
Y016073D02*
D03*
X019951Y016309D02*
D03*
X022313Y022106D02*
D03*
X024665Y023012D02*
D03*
X024114Y023553D02*
D03*
X022185Y024862D02*
D03*
X027067Y022293D02*
D03*
X02752Y023248D02*
D03*
X02753Y022844D02*
D03*
X024754Y02378D02*
D03*
X029577Y023593D02*
D03*
X028268Y022854D02*
D03*
X028396Y021299D02*
D03*
X029685Y022146D02*
D03*
X024961Y011673D02*
D03*
Y011181D02*
D03*
Y010728D02*
D03*
X025453Y010738D02*
D03*
X028661Y012175D02*
D03*
Y012569D02*
D03*
Y013002D02*
D03*
X028248Y013012D02*
D03*
X027835D02*
D03*
X028661Y011762D02*
D03*
Y011348D02*
D03*
X028248D02*
D03*
X033031Y009154D02*
D03*
X029385Y008293D02*
D03*
X030463Y008711D02*
D03*
X026348Y013455D02*
D03*
X024409Y013858D02*
D03*
X013238Y014227D02*
D03*
X013228Y015984D02*
D03*
X017106Y015522D02*
D03*
X017156Y013868D02*
D03*
X019134Y014163D02*
D03*
X01748Y016457D02*
D03*
X017264Y015157D02*
D03*
X015974Y012333D02*
D03*
X013179Y012461D02*
D03*
X01251Y01252D02*
D03*
X010906Y012953D02*
D03*
X012549Y012087D02*
D03*
X015433Y010364D02*
D03*
X016142Y010413D02*
D03*
X013415Y012156D02*
D03*
X019183Y01374D02*
D03*
X021073Y013691D02*
D03*
X022579Y011171D02*
D03*
X01747Y010226D02*
D03*
X016821D02*
D03*
X015157Y013189D02*
D03*
X012421Y020551D02*
D03*
X012815Y023356D02*
D03*
X013258Y023396D02*
D03*
X011407Y022018D02*
D03*
X012146Y022018D02*
D03*
X01315Y02189D02*
D03*
X01374D02*
D03*
X013445Y021594D02*
D03*
X020896Y011063D02*
D03*
X014596Y020817D02*
D03*
X011732Y020728D02*
D03*
X013209Y019813D02*
D03*
X018642Y024596D02*
D03*
X019951Y0244D02*
D03*
X017283Y023681D02*
D03*
X018898Y024104D02*
D03*
X019252Y023996D02*
D03*
X019173Y009518D02*
D03*
X01937Y010689D02*
D03*
X017933Y020197D02*
D03*
X017461Y019409D02*
D03*
X020148Y02185D02*
D03*
X018248Y022657D02*
D03*
X018917Y021319D02*
D03*
X019055Y017156D02*
D03*
Y016752D02*
D03*
X018622Y018553D02*
D03*
X015945Y0169D02*
D03*
X021201Y017392D02*
D03*
X016604Y013524D02*
D03*
X015551Y012087D02*
D03*
X022018Y014852D02*
D03*
X02063Y014478D02*
D03*
X017303Y018169D02*
D03*
X02122Y020157D02*
D03*
X018593Y013494D02*
D03*
X019006Y013081D02*
D03*
X023465Y020531D02*
D03*
X019449Y01312D02*
D03*
X02062Y012854D02*
D03*
X019331Y01252D02*
D03*
X018366Y017431D02*
D03*
X018632Y015856D02*
D03*
X018691Y012372D02*
D03*
X0194Y015591D02*
D03*
X01872Y016191D02*
D03*
X021999Y020778D02*
D03*
X025738Y022766D02*
D03*
X026319Y023002D02*
D03*
X0256Y024321D02*
D03*
X024094Y024911D02*
D03*
X024656Y025167D02*
D03*
X019843Y017067D02*
D03*
X02126Y018642D02*
D03*
X022982Y019636D02*
D03*
X028051Y023189D02*
D03*
X022126Y019872D02*
D03*
X027244Y01939D02*
D03*
X014823Y018396D02*
D03*
X014784Y018799D02*
D03*
X014774Y019163D02*
D03*
Y019646D02*
D03*
X014951Y02122D02*
D03*
X018268Y02065D02*
D03*
X023327Y021693D02*
D03*
X029252Y019478D02*
D03*
X029685Y019744D02*
D03*
X0269Y019163D02*
D03*
X024488Y006919D02*
D03*
X019734Y010197D02*
D03*
X022313Y008553D02*
D03*
X023858Y010148D02*
D03*
X023848Y010778D02*
D03*
X020571Y009567D02*
D03*
X016407Y018878D02*
D03*
X019882Y018671D02*
D03*
X019459Y017461D02*
D03*
X018248Y018435D02*
D03*
X021319Y017992D02*
D03*
X026457Y018179D02*
D03*
X016841Y018701D02*
D03*
X01936Y01874D02*
D03*
X023848Y019921D02*
D03*
X019301Y020433D02*
D03*
X023839Y022087D02*
D03*
X024577Y022047D02*
D03*
X016043Y013189D02*
D03*
X019892Y01748D02*
D03*
X01997Y019065D02*
D03*
X019045Y019459D02*
D03*
X019606Y018996D02*
D03*
X020492Y02062D02*
D03*
X021634Y022402D02*
D03*
X024134Y020364D02*
D03*
X018691Y008051D02*
D03*
X012717Y016654D02*
D03*
X014488Y008327D02*
D03*
X014311Y008701D02*
D03*
X015069Y008878D02*
D03*
X01185Y007805D02*
D03*
X012441Y00813D02*
D03*
X01188Y009537D02*
D03*
X011919Y010069D02*
D03*
X013809Y012047D02*
D03*
X010915Y009557D02*
D03*
X012972Y016949D02*
D03*
X026024Y018327D02*
D03*
X025787Y017618D02*
D03*
X023602Y01562D02*
D03*
X022776Y017215D02*
D03*
X023691Y008573D02*
D03*
X023986Y006585D02*
D03*
X022983Y019075D02*
D03*
X02376Y018996D02*
D03*
X01497Y017008D02*
D03*
X014567Y016949D02*
D03*
X024134Y017982D02*
D03*
X023976Y017598D02*
D03*
X023002Y025256D02*
D03*
X02563Y024715D02*
D03*
X017283Y012421D02*
D03*
X01063Y013337D02*
D03*
X030935Y010118D02*
D03*
X010197Y00626D02*
D03*
X034803D02*
D03*
Y025866D02*
D03*
X010197D02*
D03*
X034803Y008228D02*
D03*
Y010197D02*
D03*
Y012165D02*
D03*
Y014134D02*
D03*
Y016102D02*
D03*
Y018071D02*
D03*
Y020039D02*
D03*
Y022008D02*
D03*
Y023976D02*
D03*
X012165Y025866D02*
D03*
X014134D02*
D03*
X010197Y023898D02*
D03*
Y021929D02*
D03*
Y019961D02*
D03*
Y017992D02*
D03*
Y016024D02*
D03*
Y014055D02*
D03*
Y012087D02*
D03*
Y010118D02*
D03*
Y00815D02*
D03*
X032717Y00626D02*
D03*
X03063D02*
D03*
X028543D02*
D03*
X026457D02*
D03*
X02437D02*
D03*
X022283D02*
D03*
X012283D02*
D03*
X01437D02*
D03*
X016457D02*
D03*
X018543D02*
D03*
X020512D02*
D03*
X027441Y021496D02*
D03*
X027402Y021102D02*
D03*
X028228Y019409D02*
D03*
X014488Y012953D02*
D03*
X014803Y012638D02*
D03*
X017638Y011811D02*
D03*
X013268Y019016D02*
D03*
X013228Y019409D02*
D03*
X013238Y018593D02*
D03*
X025354Y013583D02*
D03*
X023976Y015079D02*
D03*
X025492Y021191D02*
D03*
X025768Y020896D02*
D03*
X026201Y021083D02*
D03*
X026594D02*
D03*
Y020689D02*
D03*
X026201D02*
D03*
X026594Y020295D02*
D03*
X026536Y019892D02*
D03*
X026201Y020295D02*
D03*
X031004Y021063D02*
D03*
X030374D02*
D03*
X031614D02*
D03*
Y020571D02*
D03*
X030994D02*
D03*
X030374D02*
D03*
Y021555D02*
D03*
Y022047D02*
D03*
X029754Y021555D02*
D03*
Y021063D02*
D03*
Y020571D02*
D03*
X027677Y024872D02*
D03*
Y025197D02*
D03*
X029035Y024547D02*
D03*
X027687D02*
D03*
X029035Y025197D02*
D03*
Y024872D02*
D03*
X029114Y023415D02*
D03*
X027382Y020689D02*
D03*
Y020295D02*
D03*
X027776Y020098D02*
D03*
Y020492D02*
D03*
X032913Y025866D02*
D03*
X016024D02*
D03*
X017913D02*
D03*
X019803D02*
D03*
X021693D02*
D03*
X023583D02*
D03*
X024941Y022717D02*
D03*
X023238Y022904D02*
D03*
X017766Y024094D02*
D03*
X012618Y024252D02*
D03*
X013356Y023848D02*
D03*
X012894D02*
D03*
X033494Y020699D02*
D03*
X034085D02*
D03*
X033789Y020305D02*
D03*
X034085Y02001D02*
D03*
X02751Y018189D02*
D03*
X028839Y016821D02*
D03*
X01123Y020738D02*
D03*
X02812Y024547D02*
D03*
Y024872D02*
D03*
Y025197D02*
D03*
X028593D02*
D03*
Y024872D02*
D03*
Y024547D02*
D03*
X022215Y023494D02*
D03*
X022608Y02374D02*
D03*
X021703Y022972D02*
D03*
Y024055D02*
D03*
Y023514D02*
D03*
X011122Y015758D02*
D03*
X029606Y017913D02*
D03*
X029213D02*
D03*
X03D02*
D03*
X030354Y016181D02*
D03*
Y015787D02*
D03*
X030344Y016594D02*
D03*
X029951D02*
D03*
X029557D02*
D03*
X030354Y015394D02*
D03*
X031722Y015384D02*
D03*
Y015778D02*
D03*
X031329Y015384D02*
D03*
X030935D02*
D03*
X032037Y014567D02*
D03*
X031644D02*
D03*
X03125D02*
D03*
X032037Y014173D02*
D03*
Y01378D02*
D03*
X029045Y014203D02*
D03*
X027235Y015247D02*
D03*
X026841Y015246D02*
D03*
X025069Y016033D02*
D03*
X024567Y017648D02*
D03*
X023435Y017008D02*
D03*
X025945Y010738D02*
D03*
X027835Y011348D02*
D03*
X022657Y012726D02*
D03*
X01376Y009065D02*
D03*
X012894Y009409D02*
D03*
X014783Y020266D02*
D03*
X015177Y013593D02*
D03*
X014951Y016289D02*
D03*
X017254Y014715D02*
D03*
X010197Y007205D02*
D03*
Y009134D02*
D03*
Y011102D02*
D03*
Y013071D02*
D03*
Y015039D02*
D03*
Y017008D02*
D03*
Y018976D02*
D03*
Y020945D02*
D03*
Y022913D02*
D03*
Y024882D02*
D03*
X011181Y025866D02*
D03*
X01315D02*
D03*
X015118D02*
D03*
X016988D02*
D03*
X018858D02*
D03*
X020728D02*
D03*
X022638D02*
D03*
X031929D02*
D03*
X033858D02*
D03*
X034803Y024921D02*
D03*
Y022992D02*
D03*
Y021024D02*
D03*
Y019055D02*
D03*
Y017087D02*
D03*
Y015118D02*
D03*
Y01315D02*
D03*
Y011181D02*
D03*
Y009213D02*
D03*
Y007244D02*
D03*
X033819Y00626D02*
D03*
X031673D02*
D03*
X029596D02*
D03*
X02751D02*
D03*
X025413D02*
D03*
X023327D02*
D03*
X021398D02*
D03*
X019528D02*
D03*
X017559D02*
D03*
X015423D02*
D03*
X013327D02*
D03*
X01126D02*
D03*
D71*
X028507Y023855D02*
D03*
X029426Y022936D02*
D03*
D72*
X016801Y024406D02*
D03*
Y022654D02*
D03*
X020915D02*
D03*
Y024406D02*
D03*
D73*
X018937Y025039D02*
D03*
X017343D02*
D03*
X017776D02*
D03*
X018209D02*
D03*
X018642D02*
D03*
X019213D02*
D03*
X019508D02*
D03*
X019941D02*
D03*
X020374D02*
D03*
D74*
X022579Y012195D02*
D03*
Y011939D02*
D03*
Y011683D02*
D03*
Y011427D02*
D03*
X020886D02*
D03*
Y011683D02*
D03*
Y011939D02*
D03*
Y012195D02*
D03*
X022185Y017077D02*
D03*
Y016821D02*
D03*
Y016565D02*
D03*
Y016309D02*
D03*
X020492D02*
D03*
Y016565D02*
D03*
Y016821D02*
D03*
Y017077D02*
D03*
D75*
X024132Y016614D02*
D03*
X024632D02*
D03*
X025132D02*
D03*
X025632D02*
D03*
Y014488D02*
D03*
X025132D02*
D03*
X024632D02*
D03*
X024132D02*
D03*
D76*
X032677Y015787D02*
D03*
X032677Y017165D02*
D03*
D77*
X03007Y007804D02*
D03*
X028985Y008889D02*
D03*
D78*
X031624Y014016D02*
D03*
X029892D02*
D03*
D79*
X031181Y01752D02*
D03*
Y015787D02*
D03*
X029606Y01752D02*
D03*
X029606Y015787D02*
D03*
D80*
X025837Y012835D02*
D03*
X026526D02*
D03*
X028455Y010157D02*
D03*
X027766D02*
D03*
D81*
X015906Y007795D02*
D03*
X017795D02*
D03*
X015906Y009459D02*
D03*
X017795D02*
D03*
D82*
X011565Y02127D02*
D03*
X013789Y016427D02*
D03*
Y015561D02*
D03*
Y01377D02*
D03*
Y014656D02*
D03*
D83*
X016402Y011705D02*
D03*
X016826D02*
D03*
Y012374D02*
D03*
X016402D02*
D03*
X016796Y016191D02*
D03*
X016373D02*
D03*
Y015522D02*
D03*
X016796D02*
D03*
Y013868D02*
D03*
X016373D02*
D03*
Y014537D02*
D03*
X016796D02*
D03*
D84*
X016614Y011675D02*
D03*
X016614Y012404D02*
D03*
X016585Y01622D02*
D03*
Y015492D02*
D03*
Y013839D02*
D03*
Y014567D02*
D03*
D85*
X021427Y013297D02*
D03*
Y014045D02*
D03*
X020364D02*
D03*
X020364Y013671D02*
D03*
X020364Y013297D02*
D03*
D86*
X013041Y008667D02*
D03*
X012541Y008667D02*
D03*
X012041D02*
D03*
X011541Y008667D02*
D03*
X011541Y010876D02*
D03*
X012041D02*
D03*
X012541D02*
D03*
X013041D02*
D03*
D87*
X015571Y020035D02*
D03*
X014035D02*
D03*
X015571Y019535D02*
D03*
X014035D02*
D03*
X015571Y019035D02*
D03*
X014035D02*
D03*
X015571Y018535D02*
D03*
X014035D02*
D03*
X015571Y018035D02*
D03*
X014035D02*
D03*
D88*
X022688Y010384D02*
D03*
X022432D02*
D03*
X022176D02*
D03*
Y009636D02*
D03*
X022432D02*
D03*
X022688D02*
D03*
D89*
X013799Y022756D02*
D03*
X013484D02*
D03*
X013169D02*
D03*
X012854D02*
D03*
X012539D02*
D03*
D90*
X014921Y022795D02*
D03*
X011417D02*
D03*
X014921Y025D02*
D03*
X011417D02*
D03*
D91*
X029892Y013533D02*
Y014016D01*
Y014498D01*
X029547Y014016D02*
X029892D01*
X030236D01*
M02*
