G04 Layer_Physical_Order=2*
G04 Layer_Color=32768*
%FSTAX24Y24*%
%MOIN*%
G70*
G01*
G75*
%ADD63C,0.0650*%
%ADD65C,0.0866*%
%ADD66C,0.0394*%
%ADD67C,0.0500*%
%ADD70C,0.0250*%
G36*
X034582Y025916D02*
X034803D01*
Y025866D01*
X034853D01*
Y025645D01*
X034902Y025606D01*
Y025182D01*
X034853Y025142D01*
Y024921D01*
Y0247D01*
X034902Y024661D01*
Y024237D01*
X034853Y024197D01*
Y023976D01*
Y023755D01*
X034902Y023716D01*
Y023253D01*
X034853Y023213D01*
Y022992D01*
Y022771D01*
X034902Y022732D01*
Y022268D01*
X034853Y022229D01*
Y022008D01*
Y021787D01*
X034902Y021747D01*
Y021284D01*
X034853Y021245D01*
Y021024D01*
Y020803D01*
X034902Y020763D01*
Y0203D01*
X034853Y02026D01*
Y020039D01*
Y019818D01*
X034902Y019779D01*
Y019316D01*
X034853Y019276D01*
Y019055D01*
Y018834D01*
X034902Y018795D01*
Y018331D01*
X034853Y018292D01*
Y018071D01*
Y01785D01*
X034902Y01781D01*
Y017347D01*
X034853Y017308D01*
Y017087D01*
Y016866D01*
X034902Y016826D01*
Y016363D01*
X034853Y016323D01*
Y016102D01*
Y015881D01*
X034902Y015842D01*
Y015379D01*
X034853Y015339D01*
Y015118D01*
Y014897D01*
X034902Y014858D01*
Y014394D01*
X034853Y014355D01*
Y014134D01*
Y013913D01*
X034902Y013873D01*
Y01341D01*
X034853Y013371D01*
Y01315D01*
Y012929D01*
X034902Y012889D01*
Y012426D01*
X034853Y012386D01*
Y012165D01*
Y011944D01*
X034902Y011905D01*
Y011442D01*
X034853Y011402D01*
Y011181D01*
Y01096D01*
X034902Y010921D01*
Y010457D01*
X034853Y010418D01*
Y010197D01*
Y009976D01*
X034902Y009936D01*
Y009473D01*
X034853Y009434D01*
Y009213D01*
Y008992D01*
X034902Y008952D01*
Y008489D01*
X034853Y008449D01*
Y008228D01*
Y008007D01*
X034902Y007968D01*
Y007504D01*
X034853Y007465D01*
Y007244D01*
Y007023D01*
X034902Y006984D01*
Y00652D01*
X034853Y006481D01*
Y00626D01*
X034803D01*
Y00621D01*
X034582D01*
X034543Y006161D01*
X034079D01*
X03404Y00621D01*
X033598D01*
X033558Y006161D01*
X032977D01*
X032938Y00621D01*
X032495D01*
X032456Y006161D01*
X031934D01*
X031894Y00621D01*
X031452D01*
X031413Y006161D01*
X03089D01*
X030851Y00621D01*
X030409D01*
X03037Y006161D01*
X029857D01*
X029818Y00621D01*
X029375D01*
X029336Y006161D01*
X028804D01*
X028764Y00621D01*
X028322D01*
X028283Y006161D01*
X02777D01*
X027731Y00621D01*
X027289D01*
X027249Y006161D01*
X026717D01*
X026678Y00621D01*
X026236D01*
X026196Y006161D01*
X025674D01*
X025634Y00621D01*
X025192D01*
X025153Y006161D01*
X02463D01*
X024591Y00621D01*
X024149D01*
X02411Y006161D01*
X023587D01*
X023548Y00621D01*
X023106D01*
X023066Y006161D01*
X022544D01*
X022505Y00621D01*
X022062D01*
X022023Y006161D01*
X021658D01*
X021619Y00621D01*
X021177D01*
X021137Y006161D01*
X020772D01*
X020733Y00621D01*
X020291D01*
X020251Y006161D01*
X019788D01*
X019749Y00621D01*
X019306D01*
X019267Y006161D01*
X018804D01*
X018764Y00621D01*
X018322D01*
X018283Y006161D01*
X017819D01*
X01778Y00621D01*
X017338D01*
X017299Y006161D01*
X016717D01*
X016678Y00621D01*
X016236D01*
X016196Y006161D01*
X015684D01*
X015644Y00621D01*
X015202D01*
X015163Y006161D01*
X01463D01*
X014591Y00621D01*
X014149D01*
X01411Y006161D01*
X013587D01*
X013548Y00621D01*
X013106D01*
X013066Y006161D01*
X012544D01*
X012505Y00621D01*
X012062D01*
X012023Y006161D01*
X01152D01*
X011481Y00621D01*
X011039D01*
X010999Y006161D01*
X010457D01*
X010418Y00621D01*
X010197D01*
Y00626D01*
X010147D01*
Y006481D01*
X010098Y00652D01*
Y006944D01*
X010147Y006984D01*
Y007205D01*
Y007426D01*
X010098Y007465D01*
Y007889D01*
X010147Y007929D01*
Y00815D01*
Y008371D01*
X010098Y00841D01*
Y008873D01*
X010147Y008913D01*
Y009134D01*
Y009355D01*
X010098Y009394D01*
Y009858D01*
X010147Y009897D01*
Y010118D01*
Y010339D01*
X010098Y010379D01*
Y010842D01*
X010147Y010881D01*
Y011102D01*
Y011323D01*
X010098Y011363D01*
Y011826D01*
X010147Y011866D01*
Y012087D01*
Y012308D01*
X010098Y012347D01*
Y01281D01*
X010147Y01285D01*
Y013071D01*
Y013292D01*
X010098Y013331D01*
Y013795D01*
X010147Y013834D01*
Y014055D01*
Y014276D01*
X010098Y014316D01*
Y014779D01*
X010147Y014818D01*
Y015039D01*
Y01526D01*
X010098Y0153D01*
Y015763D01*
X010147Y015803D01*
Y016024D01*
Y016245D01*
X010098Y016284D01*
Y016747D01*
X010147Y016787D01*
Y017008D01*
Y017229D01*
X010098Y017268D01*
Y017732D01*
X010147Y017771D01*
Y017992D01*
Y018213D01*
X010098Y018253D01*
Y018716D01*
X010147Y018755D01*
Y018976D01*
Y019197D01*
X010098Y019237D01*
Y0197D01*
X010147Y01974D01*
Y019961D01*
Y020182D01*
X010098Y020221D01*
Y020684D01*
X010147Y020724D01*
Y020945D01*
Y021166D01*
X010098Y021205D01*
Y021669D01*
X010147Y021708D01*
Y021929D01*
Y02215D01*
X010098Y02219D01*
Y022653D01*
X010147Y022692D01*
Y022913D01*
Y023134D01*
X010098Y023174D01*
Y023637D01*
X010147Y023677D01*
Y023898D01*
Y024119D01*
X010098Y024158D01*
Y024621D01*
X010147Y024661D01*
Y024882D01*
Y025103D01*
X010098Y025142D01*
Y025606D01*
X010147Y025645D01*
Y025866D01*
X010197D01*
Y025916D01*
X010418D01*
X010457Y025965D01*
X010921D01*
X01096Y025916D01*
X011402D01*
X011442Y025965D01*
X011905D01*
X011944Y025916D01*
X012386D01*
X012426Y025965D01*
X012889D01*
X012929Y025916D01*
X013371D01*
X01341Y025965D01*
X013873D01*
X013913Y025916D01*
X014355D01*
X014394Y025965D01*
X014858D01*
X014897Y025916D01*
X015339D01*
X015379Y025965D01*
X015763D01*
X015803Y025916D01*
X016245D01*
X016284Y025965D01*
X016728D01*
X016767Y025916D01*
X017209D01*
X017249Y025965D01*
X017653D01*
X017692Y025916D01*
X018134D01*
X018174Y025965D01*
X018598D01*
X018637Y025916D01*
X019079D01*
X019119Y025965D01*
X019543D01*
X019582Y025916D01*
X020024D01*
X020064Y025965D01*
X020468D01*
X020507Y025916D01*
X020949D01*
X020989Y025965D01*
X021433D01*
X021472Y025916D01*
X021914D01*
X021953Y025965D01*
X022377D01*
X022417Y025916D01*
X022859D01*
X022898Y025965D01*
X023322D01*
X023362Y025916D01*
X023804D01*
X023843Y025965D01*
X031669D01*
X031708Y025916D01*
X03215D01*
X03219Y025965D01*
X032653D01*
X032692Y025916D01*
X033134D01*
X033174Y025965D01*
X033598D01*
X033637Y025916D01*
X034079D01*
X034119Y025965D01*
X034543D01*
X034582Y025916D01*
D02*
G37*
%LPC*%
G36*
X034753Y011401D02*
X034715Y011393D01*
X034641Y011343D01*
X034591Y011269D01*
X034584Y011231D01*
X034753D01*
Y011401D01*
D02*
G37*
G36*
X027785Y011568D02*
X027747Y01156D01*
X027672Y011511D01*
X027623Y011436D01*
X027615Y011398D01*
X027785D01*
Y011568D01*
D02*
G37*
G36*
X022629Y011391D02*
Y011221D01*
X022798D01*
X022791Y011259D01*
X022741Y011333D01*
X022667Y011383D01*
X022629Y011391D01*
D02*
G37*
G36*
X010247Y011322D02*
Y011152D01*
X010416D01*
X010409Y01119D01*
X010359Y011265D01*
X010285Y011314D01*
X010247Y011322D01*
D02*
G37*
G36*
X022529Y011391D02*
X022491Y011383D01*
X022417Y011333D01*
X022367Y011259D01*
X022359Y011221D01*
X022529D01*
Y011391D01*
D02*
G37*
G36*
X017638Y012D02*
X017566Y011985D01*
X017504Y011944D01*
X017464Y011883D01*
X017449Y011811D01*
X017464Y011739D01*
X017504Y011678D01*
X017566Y011637D01*
X017638Y011622D01*
X01771Y011637D01*
X017771Y011678D01*
X017812Y011739D01*
X017826Y011811D01*
X017812Y011883D01*
X017771Y011944D01*
X01771Y011985D01*
X017638Y012D01*
D02*
G37*
G36*
X028881Y012125D02*
X028442D01*
X028449Y012087D01*
X028499Y012013D01*
X028528Y011993D01*
Y011944D01*
X028499Y011924D01*
X028449Y01185D01*
X028442Y011812D01*
X028881D01*
X028873Y01185D01*
X028824Y011924D01*
X028794Y011944D01*
Y011993D01*
X028824Y012013D01*
X028873Y012087D01*
X028881Y012125D01*
D02*
G37*
G36*
X024961Y011862D02*
X024888Y011847D01*
X024827Y011807D01*
X024786Y011745D01*
X024772Y011673D01*
X024786Y011601D01*
X024827Y01154D01*
X024888Y011499D01*
X024961Y011485D01*
X025033Y011499D01*
X025094Y01154D01*
X025135Y011601D01*
X025149Y011673D01*
X025135Y011745D01*
X025094Y011807D01*
X025033Y011847D01*
X024961Y011862D01*
D02*
G37*
G36*
X028881Y011712D02*
X028442D01*
X028449Y011674D01*
X028499Y0116D01*
X028528Y01158D01*
Y01153D01*
X028499Y011511D01*
X02848Y011481D01*
X02843D01*
X02841Y011511D01*
X028336Y01156D01*
X028298Y011568D01*
Y011348D01*
Y011129D01*
X028336Y011136D01*
X02841Y011186D01*
X02843Y011215D01*
X02848D01*
X028499Y011186D01*
X028574Y011136D01*
X028611Y011129D01*
Y011348D01*
X028661D01*
Y011398D01*
X028881D01*
X028873Y011436D01*
X028824Y011511D01*
X028794Y01153D01*
Y01158D01*
X028824Y0116D01*
X028873Y011674D01*
X028881Y011712D01*
D02*
G37*
G36*
X028198Y011568D02*
X02816Y01156D01*
X028086Y011511D01*
X028066Y011481D01*
X028016D01*
X027997Y011511D01*
X027922Y01156D01*
X027885Y011568D01*
Y011348D01*
Y011129D01*
X027922Y011136D01*
X027997Y011186D01*
X028016Y011215D01*
X028066D01*
X028086Y011186D01*
X02816Y011136D01*
X028198Y011129D01*
Y011348D01*
Y011568D01*
D02*
G37*
G36*
X034753Y011131D02*
X034584D01*
X034591Y011093D01*
X034641Y011019D01*
X034715Y010969D01*
X034753Y010962D01*
Y011131D01*
D02*
G37*
G36*
X024961Y01137D02*
X024888Y011355D01*
X024827Y011314D01*
X024786Y011253D01*
X024772Y011181D01*
X024786Y011109D01*
X024827Y011048D01*
X024888Y011007D01*
X024961Y010992D01*
X025033Y011007D01*
X025094Y011048D01*
X025135Y011109D01*
X025149Y011181D01*
X025135Y011253D01*
X025094Y011314D01*
X025033Y011355D01*
X024961Y01137D01*
D02*
G37*
G36*
X022798Y011121D02*
X022629D01*
Y010952D01*
X022667Y010959D01*
X022741Y011009D01*
X022791Y011083D01*
X022798Y011121D01*
D02*
G37*
G36*
X010416Y011052D02*
X010247D01*
Y010883D01*
X010285Y01089D01*
X010359Y01094D01*
X010409Y011015D01*
X010416Y011052D01*
D02*
G37*
G36*
X022529Y011121D02*
X022359D01*
X022367Y011083D01*
X022417Y011009D01*
X022491Y010959D01*
X022529Y010952D01*
Y011121D01*
D02*
G37*
G36*
X027785Y011298D02*
X027615D01*
X027623Y011261D01*
X027672Y011186D01*
X027747Y011136D01*
X027785Y011129D01*
Y011298D01*
D02*
G37*
G36*
X028881D02*
X028711D01*
Y011129D01*
X028749Y011136D01*
X028824Y011186D01*
X028873Y011261D01*
X028881Y011298D01*
D02*
G37*
G36*
X020946Y011282D02*
Y011113D01*
X021115D01*
X021108Y011151D01*
X021058Y011225D01*
X020983Y011275D01*
X020946Y011282D01*
D02*
G37*
G36*
X033248Y011439D02*
X033176Y011424D01*
X033115Y011383D01*
X033074Y011322D01*
X033059Y01125D01*
X033074Y011178D01*
X033115Y011117D01*
X033176Y011076D01*
X033248Y011061D01*
X03332Y011076D01*
X033381Y011117D01*
X033422Y011178D01*
X033437Y01125D01*
X033422Y011322D01*
X033381Y011383D01*
X03332Y011424D01*
X033248Y011439D01*
D02*
G37*
G36*
X020846Y011282D02*
X020808Y011275D01*
X020733Y011225D01*
X020684Y011151D01*
X020676Y011113D01*
X020846D01*
Y011282D01*
D02*
G37*
G36*
X018691Y012561D02*
X018619Y012546D01*
X018558Y012505D01*
X018517Y012444D01*
X018502Y012372D01*
X018517Y0123D01*
X018558Y012239D01*
X018619Y012198D01*
X018691Y012183D01*
X018763Y012198D01*
X018824Y012239D01*
X018865Y0123D01*
X01888Y012372D01*
X018865Y012444D01*
X018824Y012505D01*
X018763Y012546D01*
X018691Y012561D01*
D02*
G37*
G36*
X017233Y012371D02*
X017064D01*
X017072Y012333D01*
X017121Y012259D01*
X017196Y012209D01*
X017233Y012202D01*
Y012371D01*
D02*
G37*
G36*
X01251Y012708D02*
X012438Y012694D01*
X012376Y012653D01*
X012336Y012592D01*
X012321Y01252D01*
X012336Y012448D01*
X012376Y012386D01*
X012438Y012345D01*
X012446Y012344D01*
X012449Y012334D01*
X012451Y012292D01*
X012387Y012249D01*
X012337Y012174D01*
X01233Y012137D01*
X012769D01*
X012761Y012174D01*
X012711Y012249D01*
X012637Y012299D01*
X01261Y012304D01*
X012599Y012357D01*
X012643Y012386D01*
X012684Y012448D01*
X012698Y01252D01*
X012684Y012592D01*
X012643Y012653D01*
X012582Y012694D01*
X01251Y012708D01*
D02*
G37*
G36*
X016194Y012283D02*
X016024D01*
Y012113D01*
X016062Y012121D01*
X016137Y01217D01*
X016186Y012245D01*
X016194Y012283D01*
D02*
G37*
G36*
X010247Y012306D02*
Y012137D01*
X010416D01*
X010409Y012174D01*
X010359Y012249D01*
X010285Y012299D01*
X010247Y012306D01*
D02*
G37*
G36*
X013129Y012411D02*
X01296D01*
X012967Y012373D01*
X013017Y012298D01*
X013091Y012249D01*
X013129Y012241D01*
Y012411D01*
D02*
G37*
G36*
X033071Y012639D02*
X032999Y012625D01*
X032937Y012584D01*
X032897Y012523D01*
X032882Y012451D01*
X032897Y012379D01*
X032937Y012317D01*
X032999Y012277D01*
X033071Y012262D01*
X033143Y012277D01*
X033204Y012317D01*
X033245Y012379D01*
X033259Y012451D01*
X033245Y012523D01*
X033204Y012584D01*
X033143Y012625D01*
X033071Y012639D01*
D02*
G37*
G36*
X028881Y012519D02*
X028442D01*
X028449Y012481D01*
X028499Y012407D01*
X028514Y012397D01*
Y012347D01*
X028499Y012337D01*
X028449Y012263D01*
X028442Y012225D01*
X028881D01*
X028873Y012263D01*
X028824Y012337D01*
X028809Y012347D01*
Y012397D01*
X028824Y012407D01*
X028873Y012481D01*
X028881Y012519D01*
D02*
G37*
G36*
X017503Y012371D02*
X017333D01*
Y012202D01*
X017371Y012209D01*
X017446Y012259D01*
X017495Y012333D01*
X017503Y012371D01*
D02*
G37*
G36*
X034753Y012385D02*
X034715Y012377D01*
X034641Y012328D01*
X034591Y012253D01*
X034584Y012215D01*
X034753D01*
Y012385D01*
D02*
G37*
G36*
X012769Y012037D02*
X012599D01*
Y011867D01*
X012637Y011875D01*
X012711Y011924D01*
X012761Y011999D01*
X012769Y012037D01*
D02*
G37*
G36*
X015551Y012275D02*
X015479Y012261D01*
X015418Y01222D01*
X015377Y012159D01*
X015363Y012087D01*
X015377Y012014D01*
X015418Y011953D01*
X015479Y011912D01*
X015551Y011898D01*
X015623Y011912D01*
X015685Y011953D01*
X015725Y012014D01*
X01574Y012087D01*
X015725Y012159D01*
X015685Y01222D01*
X015623Y012261D01*
X015551Y012275D01*
D02*
G37*
G36*
X012499Y012037D02*
X01233D01*
X012337Y011999D01*
X012387Y011924D01*
X012461Y011875D01*
X012499Y011867D01*
Y012037D01*
D02*
G37*
G36*
X013399Y012411D02*
X013229D01*
Y012196D01*
X013234Y012191D01*
X013227Y012156D01*
X013241Y012083D01*
X013282Y012022D01*
X013343Y011981D01*
X013415Y011967D01*
X013488Y011981D01*
X013549Y012022D01*
X013572Y012056D01*
X013604Y01205D01*
X013622Y012041D01*
X013635Y011975D01*
X013676Y011914D01*
X013737Y011873D01*
X013809Y011859D01*
X013881Y011873D01*
X013942Y011914D01*
X013983Y011975D01*
X013998Y012047D01*
X013983Y012119D01*
X013942Y012181D01*
X013881Y012222D01*
X013809Y012236D01*
X013737Y012222D01*
X013676Y012181D01*
X013653Y012146D01*
X013621Y012152D01*
X013603Y012162D01*
X01359Y012228D01*
X013549Y012289D01*
X013488Y01233D01*
X01343Y012341D01*
X013422Y012348D01*
X013401Y012378D01*
X013395Y012391D01*
X013399Y012411D01*
D02*
G37*
G36*
X010416Y012037D02*
X010247D01*
Y011867D01*
X010285Y011875D01*
X010359Y011924D01*
X010409Y011999D01*
X010416Y012037D01*
D02*
G37*
G36*
X026745Y012233D02*
X026576D01*
Y012064D01*
X026613Y012072D01*
X026688Y012121D01*
X026738Y012196D01*
X026745Y012233D01*
D02*
G37*
G36*
X015924Y012283D02*
X015755D01*
X015762Y012245D01*
X015812Y01217D01*
X015887Y012121D01*
X015924Y012113D01*
Y012283D01*
D02*
G37*
G36*
X026476Y012233D02*
X026306D01*
X026314Y012196D01*
X026363Y012121D01*
X026438Y012072D01*
X026476Y012064D01*
Y012233D01*
D02*
G37*
G36*
X034753Y012115D02*
X034584D01*
X034591Y012078D01*
X034641Y012003D01*
X034715Y011953D01*
X034753Y011946D01*
Y012115D01*
D02*
G37*
G36*
X031289Y012374D02*
X031217Y012359D01*
X031156Y012318D01*
X031115Y012257D01*
X031101Y012185D01*
X031115Y012113D01*
X031156Y012052D01*
X031217Y012011D01*
X031289Y011996D01*
X031362Y012011D01*
X031423Y012052D01*
X031464Y012113D01*
X031478Y012185D01*
X031464Y012257D01*
X031423Y012318D01*
X031362Y012359D01*
X031289Y012374D01*
D02*
G37*
G36*
X021115Y011013D02*
X020946D01*
Y010844D01*
X020983Y010851D01*
X021058Y010901D01*
X021108Y010975D01*
X021115Y011013D01*
D02*
G37*
G36*
X030564Y010698D02*
X030394D01*
Y010529D01*
X030432Y010536D01*
X030507Y010586D01*
X030556Y01066D01*
X030564Y010698D01*
D02*
G37*
G36*
X030885D02*
X030716D01*
X030723Y01066D01*
X030773Y010586D01*
X030847Y010536D01*
X030885Y010529D01*
Y010698D01*
D02*
G37*
G36*
X030294D02*
X030125D01*
X030133Y01066D01*
X030182Y010586D01*
X030257Y010536D01*
X030294Y010529D01*
Y010698D01*
D02*
G37*
G36*
X01937Y010878D02*
X019298Y010863D01*
X019237Y010822D01*
X019196Y010761D01*
X019181Y010689D01*
X019196Y010617D01*
X019237Y010556D01*
X019298Y010515D01*
X01937Y0105D01*
X019442Y010515D01*
X019503Y010556D01*
X019544Y010617D01*
X019559Y010689D01*
X019544Y010761D01*
X019503Y010822D01*
X019442Y010863D01*
X01937Y010878D01*
D02*
G37*
G36*
X034104Y010897D02*
X034032Y010883D01*
X033971Y010842D01*
X03393Y010781D01*
X033916Y010709D01*
X03393Y010636D01*
X033971Y010575D01*
X034032Y010534D01*
X034104Y01052D01*
X034177Y010534D01*
X034238Y010575D01*
X034279Y010636D01*
X034293Y010709D01*
X034279Y010781D01*
X034238Y010842D01*
X034177Y010883D01*
X034104Y010897D01*
D02*
G37*
G36*
X032066Y010698D02*
X031897D01*
X031904Y01066D01*
X031954Y010586D01*
X032028Y010536D01*
X032066Y010529D01*
Y010698D01*
D02*
G37*
G36*
X032336D02*
X032166D01*
Y010529D01*
X032204Y010536D01*
X032278Y010586D01*
X032328Y01066D01*
X032336Y010698D01*
D02*
G37*
G36*
X031745D02*
X031576D01*
Y010529D01*
X031613Y010536D01*
X031688Y010586D01*
X031738Y01066D01*
X031745Y010698D01*
D02*
G37*
G36*
X031154D02*
X030985D01*
Y010529D01*
X031023Y010536D01*
X031097Y010586D01*
X031147Y01066D01*
X031154Y010698D01*
D02*
G37*
G36*
X031476D02*
X031306D01*
X031314Y01066D01*
X031363Y010586D01*
X031438Y010536D01*
X031476Y010529D01*
Y010698D01*
D02*
G37*
G36*
X015433Y010553D02*
X015361Y010538D01*
X0153Y010498D01*
X015259Y010436D01*
X015244Y010364D01*
X015259Y010292D01*
X0153Y010231D01*
X015361Y01019D01*
X015433Y010176D01*
X015505Y01019D01*
X015566Y010231D01*
X015607Y010292D01*
X015622Y010364D01*
X015607Y010436D01*
X015566Y010498D01*
X015505Y010538D01*
X015433Y010553D01*
D02*
G37*
G36*
X016092Y010363D02*
X015922D01*
X01593Y010326D01*
X01598Y010251D01*
X016054Y010201D01*
X016092Y010194D01*
Y010363D01*
D02*
G37*
G36*
X032166Y010338D02*
Y010168D01*
X032336D01*
X032328Y010206D01*
X032278Y01028D01*
X032204Y01033D01*
X032166Y010338D01*
D02*
G37*
G36*
X030985D02*
Y010168D01*
X031154D01*
X031147Y010206D01*
X031097Y01028D01*
X031023Y01033D01*
X030985Y010338D01*
D02*
G37*
G36*
X032066D02*
X032028Y01033D01*
X031954Y01028D01*
X031904Y010206D01*
X031897Y010168D01*
X032066D01*
Y010338D01*
D02*
G37*
G36*
X01752Y010446D02*
Y010276D01*
X01769D01*
X017682Y010314D01*
X017633Y010389D01*
X017558Y010438D01*
X01752Y010446D01*
D02*
G37*
G36*
X01626Y010947D02*
X016188Y010932D01*
X016126Y010891D01*
X016086Y01083D01*
X016071Y010758D01*
X016086Y010686D01*
X016092Y010675D01*
X016073Y010629D01*
X016054Y010625D01*
X01598Y010576D01*
X01593Y010501D01*
X015922Y010463D01*
X016361D01*
X016354Y010501D01*
X016333Y010533D01*
X016332Y010584D01*
X016347Y010594D01*
X016393Y010625D01*
X016434Y010686D01*
X016448Y010758D01*
X016434Y01083D01*
X016393Y010891D01*
X016332Y010932D01*
X01626Y010947D01*
D02*
G37*
G36*
X01742Y010446D02*
X017383Y010438D01*
X017308Y010389D01*
X017259Y010314D01*
X017251Y010276D01*
X01742D01*
Y010446D01*
D02*
G37*
G36*
X016361Y010363D02*
X016192D01*
Y010194D01*
X01623Y010201D01*
X016304Y010251D01*
X016354Y010326D01*
X016361Y010363D01*
D02*
G37*
G36*
X034753Y010416D02*
X034715Y010409D01*
X034641Y010359D01*
X034591Y010285D01*
X034584Y010247D01*
X034753D01*
Y010416D01*
D02*
G37*
G36*
X032066Y010967D02*
X032028Y01096D01*
X031954Y01091D01*
X031904Y010836D01*
X031897Y010798D01*
X032066D01*
Y010967D01*
D02*
G37*
G36*
X032166D02*
Y010798D01*
X032336D01*
X032328Y010836D01*
X032278Y01091D01*
X032204Y01096D01*
X032166Y010967D01*
D02*
G37*
G36*
X031576D02*
Y010798D01*
X031745D01*
X031738Y010836D01*
X031688Y01091D01*
X031613Y01096D01*
X031576Y010967D01*
D02*
G37*
G36*
X030985D02*
Y010798D01*
X031154D01*
X031147Y010836D01*
X031097Y01091D01*
X031023Y01096D01*
X030985Y010967D01*
D02*
G37*
G36*
X031476D02*
X031438Y01096D01*
X031363Y01091D01*
X031314Y010836D01*
X031306Y010798D01*
X031476D01*
Y010967D01*
D02*
G37*
G36*
X023898Y010997D02*
Y010828D01*
X024068D01*
X02406Y010865D01*
X024011Y01094D01*
X023936Y01099D01*
X023898Y010997D01*
D02*
G37*
G36*
X020846Y011013D02*
X020676D01*
X020684Y010975D01*
X020733Y010901D01*
X020808Y010851D01*
X020846Y010844D01*
Y011013D01*
D02*
G37*
G36*
X023798Y010997D02*
X023761Y01099D01*
X023686Y01094D01*
X023636Y010865D01*
X023629Y010828D01*
X023798D01*
Y010997D01*
D02*
G37*
G36*
X032657Y010967D02*
X032619Y01096D01*
X032544Y01091D01*
X032495Y010836D01*
X032487Y010798D01*
X032657D01*
Y010967D01*
D02*
G37*
G36*
X032757D02*
Y010798D01*
X032926D01*
X032919Y010836D01*
X032869Y01091D01*
X032794Y01096D01*
X032757Y010967D01*
D02*
G37*
G36*
X025453Y010927D02*
X025381Y010912D01*
X025319Y010872D01*
X025278Y01081D01*
X025264Y010738D01*
X025278Y010666D01*
X025319Y010605D01*
X025381Y010564D01*
X025453Y01055D01*
X025525Y010564D01*
X025586Y010605D01*
X025627Y010666D01*
X025641Y010738D01*
X025627Y01081D01*
X025586Y010872D01*
X025525Y010912D01*
X025453Y010927D01*
D02*
G37*
G36*
X025945D02*
X025873Y010912D01*
X025812Y010872D01*
X025771Y01081D01*
X025756Y010738D01*
X025771Y010666D01*
X025812Y010605D01*
X025873Y010564D01*
X025945Y01055D01*
X026017Y010564D01*
X026078Y010605D01*
X026119Y010666D01*
X026134Y010738D01*
X026119Y01081D01*
X026078Y010872D01*
X026017Y010912D01*
X025945Y010927D01*
D02*
G37*
G36*
X024961Y010917D02*
X024888Y010903D01*
X024827Y010862D01*
X024786Y010801D01*
X024772Y010728D01*
X024786Y010656D01*
X024827Y010595D01*
X024888Y010554D01*
X024961Y01054D01*
X025033Y010554D01*
X025094Y010595D01*
X025135Y010656D01*
X025149Y010728D01*
X025135Y010801D01*
X025094Y010862D01*
X025033Y010903D01*
X024961Y010917D01*
D02*
G37*
G36*
X032657Y010698D02*
X032487D01*
X032495Y01066D01*
X032544Y010586D01*
X032619Y010536D01*
X032657Y010529D01*
Y010698D01*
D02*
G37*
G36*
X032926D02*
X032757D01*
Y010529D01*
X032794Y010536D01*
X032869Y010586D01*
X032919Y01066D01*
X032926Y010698D01*
D02*
G37*
G36*
X030394Y010967D02*
Y010798D01*
X030564D01*
X030556Y010836D01*
X030507Y01091D01*
X030432Y01096D01*
X030394Y010967D01*
D02*
G37*
G36*
X030885D02*
X030847Y01096D01*
X030773Y01091D01*
X030723Y010836D01*
X030716Y010798D01*
X030885D01*
Y010967D01*
D02*
G37*
G36*
X030294D02*
X030257Y01096D01*
X030182Y01091D01*
X030133Y010836D01*
X030125Y010798D01*
X030294D01*
Y010967D01*
D02*
G37*
G36*
X023798Y010728D02*
X023629D01*
X023636Y01069D01*
X023686Y010615D01*
X023761Y010566D01*
X023798Y010558D01*
Y010728D01*
D02*
G37*
G36*
X024068D02*
X023898D01*
Y010558D01*
X023936Y010566D01*
X024011Y010615D01*
X02406Y01069D01*
X024068Y010728D01*
D02*
G37*
G36*
X010416Y014005D02*
X010247D01*
Y013836D01*
X010285Y013843D01*
X010359Y013893D01*
X010409Y013967D01*
X010416Y014005D01*
D02*
G37*
G36*
X034753Y014084D02*
X034584D01*
X034591Y014046D01*
X034641Y013972D01*
X034715Y013922D01*
X034753Y013914D01*
Y014084D01*
D02*
G37*
G36*
X019134Y014352D02*
X019062Y014338D01*
X019Y014297D01*
X01896Y014236D01*
X018945Y014163D01*
X01896Y014091D01*
X019Y01403D01*
X019062Y013989D01*
X019071Y013936D01*
X019021Y013902D01*
X018971Y013828D01*
X018964Y01379D01*
X019403D01*
X019395Y013828D01*
X019345Y013902D01*
X019271Y013952D01*
X019248Y013957D01*
X019237Y01401D01*
X019267Y01403D01*
X019308Y014091D01*
X019322Y014163D01*
X019308Y014236D01*
X019267Y014297D01*
X019206Y014338D01*
X019134Y014352D01*
D02*
G37*
G36*
X023346Y013897D02*
X023176D01*
X023184Y013859D01*
X023233Y013785D01*
X023308Y013735D01*
X023346Y013727D01*
Y013897D01*
D02*
G37*
G36*
X023615D02*
X023446D01*
Y013727D01*
X023483Y013735D01*
X023558Y013785D01*
X023608Y013859D01*
X023615Y013897D01*
D02*
G37*
G36*
X023446Y014166D02*
Y013997D01*
X023615D01*
X023608Y014035D01*
X023558Y014109D01*
X023483Y014159D01*
X023446Y014166D01*
D02*
G37*
G36*
X029045Y014391D02*
X028973Y014377D01*
X028912Y014336D01*
X028871Y014275D01*
X028857Y014203D01*
X028871Y014131D01*
X028912Y014069D01*
X028973Y014028D01*
X029045Y014014D01*
X029117Y014028D01*
X029179Y014069D01*
X02922Y014131D01*
X029234Y014203D01*
X02922Y014275D01*
X029179Y014336D01*
X029117Y014377D01*
X029045Y014391D01*
D02*
G37*
G36*
X023346Y014166D02*
X023308Y014159D01*
X023233Y014109D01*
X023184Y014035D01*
X023176Y013997D01*
X023346D01*
Y014166D01*
D02*
G37*
G36*
X017106Y014088D02*
X017068Y01408D01*
X016993Y01403D01*
X016944Y013956D01*
X016936Y013918D01*
X017106D01*
Y014088D01*
D02*
G37*
G36*
X017206D02*
Y013918D01*
X017375D01*
X017367Y013956D01*
X017318Y01403D01*
X017243Y01408D01*
X017206Y014088D01*
D02*
G37*
G36*
X019133Y01369D02*
X018964D01*
X018971Y013652D01*
X019021Y013578D01*
X019095Y013528D01*
X019133Y013521D01*
Y01369D01*
D02*
G37*
G36*
X019403D02*
X019233D01*
Y013521D01*
X019271Y013528D01*
X019345Y013578D01*
X019395Y013652D01*
X019403Y01369D01*
D02*
G37*
G36*
X021073Y01388D02*
X021001Y013865D01*
X020939Y013824D01*
X020899Y013763D01*
X020884Y013691D01*
X020899Y013619D01*
X020939Y013558D01*
X021001Y013517D01*
X021073Y013502D01*
X021145Y013517D01*
X021206Y013558D01*
X021247Y013619D01*
X021261Y013691D01*
X021247Y013763D01*
X021206Y013824D01*
X021145Y013865D01*
X021073Y01388D01*
D02*
G37*
G36*
X03247Y013566D02*
X032432Y013558D01*
X032357Y013509D01*
X032308Y013434D01*
X0323Y013396D01*
X03247D01*
Y013566D01*
D02*
G37*
G36*
X03257D02*
Y013396D01*
X032739D01*
X032732Y013434D01*
X032682Y013509D01*
X032607Y013558D01*
X03257Y013566D01*
D02*
G37*
G36*
X017375Y013818D02*
X017206D01*
Y013649D01*
X017243Y013656D01*
X017318Y013706D01*
X017367Y01378D01*
X017375Y013818D01*
D02*
G37*
G36*
X024409Y014047D02*
X024337Y014033D01*
X024276Y013992D01*
X024235Y01393D01*
X024221Y013858D01*
X024235Y013786D01*
X024276Y013725D01*
X024337Y013684D01*
X024409Y01367D01*
X024482Y013684D01*
X024543Y013725D01*
X024584Y013786D01*
X024598Y013858D01*
X024584Y01393D01*
X024543Y013992D01*
X024482Y014033D01*
X024409Y014047D01*
D02*
G37*
G36*
X017106Y013818D02*
X016936D01*
X016944Y01378D01*
X016993Y013706D01*
X017068Y013656D01*
X017106Y013649D01*
Y013818D01*
D02*
G37*
G36*
X015127Y013812D02*
X015089Y013804D01*
X015015Y013755D01*
X014965Y01368D01*
X014958Y013643D01*
X015127D01*
Y013812D01*
D02*
G37*
G36*
X015227D02*
Y013643D01*
X015397D01*
X015389Y01368D01*
X015339Y013755D01*
X015265Y013804D01*
X015227Y013812D01*
D02*
G37*
G36*
X034753Y015068D02*
X034584D01*
X034591Y01503D01*
X034641Y014956D01*
X034715Y014906D01*
X034753Y014899D01*
Y015068D01*
D02*
G37*
G36*
X010247Y015259D02*
Y015089D01*
X010416D01*
X010409Y015127D01*
X010359Y015202D01*
X010285Y015251D01*
X010247Y015259D01*
D02*
G37*
G36*
X023976Y015267D02*
X023904Y015253D01*
X023843Y015212D01*
X023802Y015151D01*
X023788Y015079D01*
X023802Y015007D01*
X023843Y014945D01*
X023904Y014904D01*
X023976Y01489D01*
X024049Y014904D01*
X02411Y014945D01*
X024151Y015007D01*
X024165Y015079D01*
X024151Y015151D01*
X02411Y015212D01*
X024049Y015253D01*
X023976Y015267D01*
D02*
G37*
G36*
X017326Y015472D02*
X016887D01*
X016894Y015434D01*
X016944Y015359D01*
X017019Y01531D01*
X017075Y015298D01*
X017099Y015244D01*
X01709Y01523D01*
X017075Y015157D01*
X01709Y015085D01*
X01713Y015024D01*
X017192Y014983D01*
X017193Y014983D01*
Y014932D01*
X017166Y014927D01*
X017092Y014877D01*
X017042Y014802D01*
X017034Y014765D01*
X017473D01*
X017466Y014802D01*
X017416Y014877D01*
X017342Y014927D01*
X017324Y01493D01*
Y014981D01*
X017336Y014983D01*
X017397Y015024D01*
X017438Y015085D01*
X017452Y015157D01*
X017438Y01523D01*
X017397Y015291D01*
X017336Y015332D01*
X017313Y015336D01*
X01729Y015392D01*
X017318Y015434D01*
X017326Y015472D01*
D02*
G37*
G36*
X010416Y014989D02*
X010247D01*
Y01482D01*
X010285Y014827D01*
X010359Y014877D01*
X010409Y014952D01*
X010416Y014989D01*
D02*
G37*
G36*
X0194Y015779D02*
X019327Y015765D01*
X019266Y015724D01*
X019225Y015663D01*
X019211Y015591D01*
X019225Y015518D01*
X019266Y015457D01*
X019327Y015416D01*
X0194Y015402D01*
X019472Y015416D01*
X019533Y015457D01*
X019574Y015518D01*
X019588Y015591D01*
X019574Y015663D01*
X019533Y015724D01*
X019472Y015765D01*
X0194Y015779D01*
D02*
G37*
G36*
X023602Y015809D02*
X02353Y015794D01*
X023469Y015753D01*
X023428Y015692D01*
X023414Y01562D01*
X023428Y015548D01*
X023469Y015487D01*
X02353Y015446D01*
X023602Y015431D01*
X023675Y015446D01*
X023736Y015487D01*
X023777Y015548D01*
X023791Y01562D01*
X023777Y015692D01*
X023736Y015753D01*
X023675Y015794D01*
X023602Y015809D01*
D02*
G37*
G36*
X027235Y015435D02*
X027163Y015421D01*
X027102Y01538D01*
X027065Y015324D01*
X027038Y015321D01*
X027011Y015324D01*
X026974Y015379D01*
X026913Y01542D01*
X026841Y015435D01*
X026768Y01542D01*
X026707Y015379D01*
X026666Y015318D01*
X026652Y015246D01*
X026666Y015174D01*
X026707Y015113D01*
X026768Y015072D01*
X026841Y015057D01*
X026913Y015072D01*
X026974Y015113D01*
X027011Y015168D01*
X027037Y015171D01*
X027065Y015168D01*
X027102Y015113D01*
X027163Y015072D01*
X027235Y015058D01*
X027307Y015072D01*
X027368Y015113D01*
X027409Y015174D01*
X027424Y015247D01*
X027409Y015319D01*
X027368Y01538D01*
X027307Y015421D01*
X027235Y015435D01*
D02*
G37*
G36*
X034753Y015338D02*
X034715Y01533D01*
X034641Y01528D01*
X034591Y015206D01*
X034584Y015168D01*
X034753D01*
Y015338D01*
D02*
G37*
G36*
X015827Y015651D02*
X015755Y015637D01*
X015693Y015596D01*
X015653Y015535D01*
X015638Y015463D01*
X015653Y01539D01*
X015693Y015329D01*
X015755Y015288D01*
X015827Y015274D01*
X015899Y015288D01*
X01596Y015329D01*
X016001Y01539D01*
X016015Y015463D01*
X016001Y015535D01*
X01596Y015596D01*
X015899Y015637D01*
X015827Y015651D01*
D02*
G37*
G36*
X02063Y014667D02*
X020558Y014653D01*
X020497Y014612D01*
X020456Y014551D01*
X020441Y014478D01*
X020456Y014406D01*
X020497Y014345D01*
X020558Y014304D01*
X02063Y01429D01*
X020702Y014304D01*
X020763Y014345D01*
X020804Y014406D01*
X020819Y014478D01*
X020804Y014551D01*
X020763Y014612D01*
X020702Y014653D01*
X02063Y014667D01*
D02*
G37*
G36*
X015728Y014844D02*
X015656Y01483D01*
X015595Y014789D01*
X015554Y014728D01*
X01554Y014656D01*
X015554Y014583D01*
X015595Y014522D01*
X015656Y014481D01*
X015728Y014467D01*
X015801Y014481D01*
X015862Y014522D01*
X015903Y014583D01*
X015917Y014656D01*
X015903Y014728D01*
X015862Y014789D01*
X015801Y01483D01*
X015728Y014844D01*
D02*
G37*
G36*
X034753Y014353D02*
X034715Y014346D01*
X034641Y014296D01*
X034591Y014222D01*
X034584Y014184D01*
X034753D01*
Y014353D01*
D02*
G37*
G36*
X013238Y014416D02*
X013166Y014402D01*
X013105Y014361D01*
X013064Y0143D01*
X01305Y014227D01*
X013064Y014155D01*
X013105Y014094D01*
X013166Y014053D01*
X013238Y014039D01*
X01331Y014053D01*
X013372Y014094D01*
X013412Y014155D01*
X013427Y014227D01*
X013412Y0143D01*
X013372Y014361D01*
X01331Y014402D01*
X013238Y014416D01*
D02*
G37*
G36*
X010247Y014275D02*
Y014105D01*
X010416D01*
X010409Y014143D01*
X010359Y014217D01*
X010285Y014267D01*
X010247Y014275D01*
D02*
G37*
G36*
X016348Y015021D02*
X016276Y015007D01*
X016215Y014966D01*
X016174Y014905D01*
X01616Y014833D01*
X016174Y01476D01*
X016215Y014699D01*
X016276Y014658D01*
X016348Y014644D01*
X016421Y014658D01*
X016482Y014699D01*
X016523Y01476D01*
X016537Y014833D01*
X016523Y014905D01*
X016482Y014966D01*
X016421Y015007D01*
X016348Y015021D01*
D02*
G37*
G36*
X022018Y015041D02*
X021946Y015027D01*
X021884Y014986D01*
X021843Y014925D01*
X021829Y014852D01*
X021843Y01478D01*
X021884Y014719D01*
X021946Y014678D01*
X022018Y014664D01*
X02209Y014678D01*
X022151Y014719D01*
X022192Y01478D01*
X022206Y014852D01*
X022192Y014925D01*
X022151Y014986D01*
X02209Y015027D01*
X022018Y015041D01*
D02*
G37*
G36*
X032037Y014756D02*
X031965Y014741D01*
X031904Y0147D01*
X031868Y014646D01*
X031841Y014642D01*
X031813Y014646D01*
X031777Y0147D01*
X031716Y014741D01*
X031644Y014756D01*
X031572Y014741D01*
X03151Y0147D01*
X031474Y014646D01*
X031447Y014642D01*
X03142Y014646D01*
X031383Y0147D01*
X031322Y014741D01*
X03125Y014756D01*
X031178Y014741D01*
X031117Y0147D01*
X031076Y014639D01*
X031061Y014567D01*
X031076Y014495D01*
X031117Y014434D01*
X031178Y014393D01*
X03125Y014378D01*
X031322Y014393D01*
X031383Y014434D01*
X03142Y014488D01*
X031447Y014492D01*
X031474Y014488D01*
X03151Y014434D01*
X031572Y014393D01*
X031644Y014378D01*
X031716Y014393D01*
X031777Y014434D01*
X031813Y014488D01*
X031841Y014492D01*
X031868Y014488D01*
X031904Y014434D01*
X031959Y014397D01*
X031962Y01437D01*
X031959Y014343D01*
X031904Y014307D01*
X031863Y014245D01*
X031849Y014173D01*
X031863Y014101D01*
X031904Y01404D01*
X031959Y014003D01*
X031962Y013976D01*
X031959Y013949D01*
X031904Y013913D01*
X031863Y013852D01*
X031849Y01378D01*
X031863Y013707D01*
X031904Y013646D01*
X031965Y013605D01*
X032037Y013591D01*
X03211Y013605D01*
X032171Y013646D01*
X032212Y013707D01*
X032226Y01378D01*
X032212Y013852D01*
X032171Y013913D01*
X032116Y013949D01*
X032113Y013976D01*
X032116Y014003D01*
X032171Y01404D01*
X032212Y014101D01*
X032226Y014173D01*
X032212Y014245D01*
X032171Y014307D01*
X032116Y014343D01*
X032113Y01437D01*
X032116Y014397D01*
X032171Y014434D01*
X032212Y014495D01*
X032226Y014567D01*
X032212Y014639D01*
X032171Y0147D01*
X03211Y014741D01*
X032037Y014756D01*
D02*
G37*
G36*
X017204Y014665D02*
X017034D01*
X017042Y014627D01*
X017092Y014552D01*
X017166Y014503D01*
X017204Y014495D01*
Y014665D01*
D02*
G37*
G36*
X017473D02*
X017304D01*
Y014495D01*
X017342Y014503D01*
X017416Y014552D01*
X017466Y014627D01*
X017473Y014665D01*
D02*
G37*
G36*
X025354Y013771D02*
X025282Y013757D01*
X025221Y013716D01*
X02518Y013655D01*
X025166Y013583D01*
X02518Y01351D01*
X025221Y013449D01*
X025282Y013408D01*
X025354Y013394D01*
X025427Y013408D01*
X025488Y013449D01*
X025529Y01351D01*
X025543Y013583D01*
X025529Y013655D01*
X025488Y013716D01*
X025427Y013757D01*
X025354Y013771D01*
D02*
G37*
G36*
X02062Y013043D02*
X020548Y013029D01*
X020487Y012988D01*
X020446Y012927D01*
X020431Y012854D01*
X020446Y012782D01*
X020487Y012721D01*
X020548Y01268D01*
X02062Y012666D01*
X020692Y01268D01*
X020753Y012721D01*
X020794Y012782D01*
X020809Y012854D01*
X020794Y012927D01*
X020753Y012988D01*
X020692Y013029D01*
X02062Y013043D01*
D02*
G37*
G36*
X031713Y013053D02*
X03164Y013038D01*
X031579Y012998D01*
X031538Y012936D01*
X031524Y012864D01*
X031538Y012792D01*
X031579Y012731D01*
X03164Y01269D01*
X031713Y012676D01*
X031785Y01269D01*
X031846Y012731D01*
X031887Y012792D01*
X031901Y012864D01*
X031887Y012936D01*
X031846Y012998D01*
X031785Y013038D01*
X031713Y013053D01*
D02*
G37*
G36*
X028298Y013231D02*
Y013012D01*
Y012792D01*
X028336Y0128D01*
X02841Y01285D01*
X028426Y012874D01*
X028476D01*
X028499Y01284D01*
X028535Y012816D01*
Y012755D01*
X028499Y012731D01*
X028449Y012657D01*
X028442Y012619D01*
X028881D01*
X028873Y012657D01*
X028824Y012731D01*
X028787Y012755D01*
Y012816D01*
X028824Y01284D01*
X028873Y012914D01*
X028881Y012952D01*
X028661D01*
Y013002D01*
X028611D01*
Y013221D01*
X028574Y013214D01*
X028499Y013164D01*
X028483Y01314D01*
X028433D01*
X02841Y013174D01*
X028336Y013224D01*
X028298Y013231D01*
D02*
G37*
G36*
X013129Y01268D02*
X013091Y012673D01*
X013017Y012623D01*
X012967Y012548D01*
X01296Y012511D01*
X013129D01*
Y01268D01*
D02*
G37*
G36*
X013229D02*
Y012511D01*
X013399D01*
X013391Y012548D01*
X013341Y012623D01*
X013267Y012673D01*
X013229Y01268D01*
D02*
G37*
G36*
X022607Y012946D02*
X02257Y012938D01*
X022495Y012889D01*
X022446Y012814D01*
X022438Y012776D01*
X022607D01*
Y012946D01*
D02*
G37*
G36*
X022707D02*
Y012776D01*
X022877D01*
X022869Y012814D01*
X02282Y012889D01*
X022745Y012938D01*
X022707Y012946D01*
D02*
G37*
G36*
X014419Y013466D02*
X014347Y013452D01*
X014286Y013411D01*
X014245Y01335D01*
X014231Y013278D01*
X014245Y013205D01*
X014286Y013144D01*
X014322Y01312D01*
X014345Y013096D01*
X014335Y013056D01*
X014314Y013025D01*
X0143Y012953D01*
X014314Y012881D01*
X014355Y012819D01*
X014416Y012778D01*
X014488Y012764D01*
X01456Y012778D01*
X014622Y012819D01*
X014662Y012881D01*
X014677Y012953D01*
X014662Y013025D01*
X014622Y013086D01*
X014586Y01311D01*
X014562Y013134D01*
X014573Y013174D01*
X014594Y013205D01*
X014608Y013278D01*
X014594Y01335D01*
X014553Y013411D01*
X014491Y013452D01*
X014419Y013466D01*
D02*
G37*
G36*
X032726Y013092D02*
X032654Y013078D01*
X032593Y013037D01*
X032552Y012976D01*
X032538Y012904D01*
X032552Y012831D01*
X032593Y01277D01*
X032654Y012729D01*
X032726Y012715D01*
X032799Y012729D01*
X03286Y01277D01*
X032901Y012831D01*
X032915Y012904D01*
X032901Y012976D01*
X03286Y013037D01*
X032799Y013078D01*
X032726Y013092D01*
D02*
G37*
G36*
X010906Y013141D02*
X010833Y013127D01*
X010772Y013086D01*
X010731Y013025D01*
X010717Y012953D01*
X010731Y012881D01*
X010772Y012819D01*
X010833Y012778D01*
X010906Y012764D01*
X010978Y012778D01*
X011039Y012819D01*
X01108Y012881D01*
X011094Y012953D01*
X01108Y013025D01*
X011039Y013086D01*
X010978Y013127D01*
X010906Y013141D01*
D02*
G37*
G36*
X015924Y012552D02*
X015887Y012545D01*
X015812Y012495D01*
X015762Y01242D01*
X015755Y012383D01*
X015924D01*
Y012552D01*
D02*
G37*
G36*
X016024D02*
Y012383D01*
X016194D01*
X016186Y01242D01*
X016137Y012495D01*
X016062Y012545D01*
X016024Y012552D01*
D02*
G37*
G36*
X026576Y012503D02*
Y012333D01*
X026745D01*
X026738Y012371D01*
X026688Y012446D01*
X026613Y012495D01*
X026576Y012503D01*
D02*
G37*
G36*
X019331Y012708D02*
X019259Y012694D01*
X019197Y012653D01*
X019156Y012592D01*
X019142Y01252D01*
X019156Y012448D01*
X019197Y012386D01*
X019259Y012345D01*
X019331Y012331D01*
X019403Y012345D01*
X019464Y012386D01*
X019505Y012448D01*
X019519Y01252D01*
X019505Y012592D01*
X019464Y012653D01*
X019403Y012694D01*
X019331Y012708D01*
D02*
G37*
G36*
X026476Y012503D02*
X026438Y012495D01*
X026363Y012446D01*
X026314Y012371D01*
X026306Y012333D01*
X026476D01*
Y012503D01*
D02*
G37*
G36*
X022607Y012676D02*
X022438D01*
X022446Y012639D01*
X022495Y012564D01*
X02257Y012514D01*
X022607Y012507D01*
Y012676D01*
D02*
G37*
G36*
X022877D02*
X022707D01*
Y012507D01*
X022745Y012514D01*
X02282Y012564D01*
X022869Y012639D01*
X022877Y012676D01*
D02*
G37*
G36*
X017333Y012641D02*
Y012471D01*
X017503D01*
X017495Y012509D01*
X017446Y012583D01*
X017371Y012633D01*
X017333Y012641D01*
D02*
G37*
G36*
X014803Y012826D02*
X014731Y012812D01*
X01467Y012771D01*
X014629Y01271D01*
X014615Y012638D01*
X014629Y012566D01*
X01467Y012504D01*
X014731Y012464D01*
X014803Y012449D01*
X014875Y012464D01*
X014937Y012504D01*
X014977Y012566D01*
X014992Y012638D01*
X014977Y01271D01*
X014937Y012771D01*
X014875Y012812D01*
X014803Y012826D01*
D02*
G37*
G36*
X017233Y012641D02*
X017196Y012633D01*
X017121Y012583D01*
X017072Y012509D01*
X017064Y012471D01*
X017233D01*
Y012641D01*
D02*
G37*
G36*
X032739Y013296D02*
X03257D01*
Y013127D01*
X032607Y013135D01*
X032682Y013184D01*
X032732Y013259D01*
X032739Y013296D01*
D02*
G37*
G36*
X028198Y013231D02*
X02816Y013224D01*
X028086Y013174D01*
X028066Y013145D01*
X028016D01*
X027997Y013174D01*
X027922Y013224D01*
X027885Y013231D01*
Y013012D01*
Y012792D01*
X027922Y0128D01*
X027997Y01285D01*
X028016Y012879D01*
X028066D01*
X028086Y01285D01*
X02816Y0128D01*
X028198Y012792D01*
Y013012D01*
Y013231D01*
D02*
G37*
G36*
X03247Y013296D02*
X0323D01*
X032308Y013259D01*
X032357Y013184D01*
X032432Y013135D01*
X03247Y013127D01*
Y013296D01*
D02*
G37*
G36*
X027785Y013231D02*
X027747Y013224D01*
X027672Y013174D01*
X027623Y0131D01*
X027615Y013062D01*
X027785D01*
Y013231D01*
D02*
G37*
G36*
X010247Y01329D02*
Y013121D01*
X010416D01*
X010409Y013159D01*
X010359Y013233D01*
X010285Y013283D01*
X010247Y01329D01*
D02*
G37*
G36*
X018593Y013683D02*
X01852Y013668D01*
X018459Y013627D01*
X018418Y013566D01*
X018404Y013494D01*
X018418Y013422D01*
X018459Y013361D01*
X01852Y01332D01*
X018593Y013305D01*
X018665Y01332D01*
X018726Y013361D01*
X018767Y013422D01*
X018781Y013494D01*
X018767Y013566D01*
X018726Y013627D01*
X018665Y013668D01*
X018593Y013683D01*
D02*
G37*
G36*
X016604Y013712D02*
X016532Y013698D01*
X016471Y013657D01*
X01643Y013596D01*
X016416Y013524D01*
X01643Y013451D01*
X016471Y01339D01*
X016532Y013349D01*
X016604Y013335D01*
X016677Y013349D01*
X016738Y01339D01*
X016779Y013451D01*
X016793Y013524D01*
X016779Y013596D01*
X016738Y013657D01*
X016677Y013698D01*
X016604Y013712D01*
D02*
G37*
G36*
X026348Y013643D02*
X026276Y013629D01*
X026215Y013588D01*
X026174Y013527D01*
X02616Y013455D01*
X026174Y013383D01*
X026215Y013321D01*
X026276Y01328D01*
X026348Y013266D01*
X026421Y01328D01*
X026482Y013321D01*
X026523Y013383D01*
X026537Y013455D01*
X026523Y013527D01*
X026482Y013588D01*
X026421Y013629D01*
X026348Y013643D01*
D02*
G37*
G36*
X01063Y013525D02*
X010558Y013511D01*
X010497Y01347D01*
X010456Y013409D01*
X010441Y013337D01*
X010456Y013264D01*
X010497Y013203D01*
X010558Y013162D01*
X01063Y013148D01*
X010702Y013162D01*
X010763Y013203D01*
X010804Y013264D01*
X010819Y013337D01*
X010804Y013409D01*
X010763Y01347D01*
X010702Y013511D01*
X01063Y013525D01*
D02*
G37*
G36*
X034753Y013369D02*
X034715Y013362D01*
X034641Y013312D01*
X034591Y013237D01*
X034584Y0132D01*
X034753D01*
Y013369D01*
D02*
G37*
G36*
X019006Y013269D02*
X018934Y013255D01*
X018873Y013214D01*
X018832Y013153D01*
X018817Y013081D01*
X018832Y013009D01*
X018873Y012947D01*
X018934Y012906D01*
X019006Y012892D01*
X019078Y012906D01*
X019139Y012947D01*
X01918Y013009D01*
X019195Y013081D01*
X01918Y013153D01*
X019139Y013214D01*
X019078Y013255D01*
X019006Y013269D01*
D02*
G37*
G36*
X034753Y0131D02*
X034584D01*
X034591Y013062D01*
X034641Y012987D01*
X034715Y012938D01*
X034753Y01293D01*
Y0131D01*
D02*
G37*
G36*
X010416Y013021D02*
X010247D01*
Y012851D01*
X010285Y012859D01*
X010359Y012909D01*
X010409Y012983D01*
X010416Y013021D01*
D02*
G37*
G36*
X027785Y012962D02*
X027615D01*
X027623Y012924D01*
X027672Y01285D01*
X027747Y0128D01*
X027785Y012792D01*
Y012962D01*
D02*
G37*
G36*
X030079Y013191D02*
X030007Y013176D01*
X029945Y013135D01*
X029904Y013074D01*
X02989Y013002D01*
X029904Y01293D01*
X029945Y012869D01*
X030007Y012828D01*
X030079Y012813D01*
X030151Y012828D01*
X030212Y012869D01*
X030253Y01293D01*
X030267Y013002D01*
X030253Y013074D01*
X030212Y013135D01*
X030151Y013176D01*
X030079Y013191D01*
D02*
G37*
G36*
X016043Y013378D02*
X015971Y013363D01*
X01591Y013322D01*
X015869Y013261D01*
X015855Y013189D01*
X015869Y013117D01*
X01591Y013056D01*
X015971Y013015D01*
X016043Y013D01*
X016115Y013015D01*
X016177Y013056D01*
X016218Y013117D01*
X016232Y013189D01*
X016218Y013261D01*
X016177Y013322D01*
X016115Y013363D01*
X016043Y013378D01*
D02*
G37*
G36*
X028711Y013221D02*
Y013052D01*
X028881D01*
X028873Y01309D01*
X028824Y013164D01*
X028749Y013214D01*
X028711Y013221D01*
D02*
G37*
G36*
X015397Y013543D02*
X014958D01*
X014965Y013505D01*
X015015Y01343D01*
X015055Y013403D01*
X015055Y013343D01*
X015024Y013322D01*
X014983Y013261D01*
X014969Y013189D01*
X014983Y013117D01*
X015024Y013056D01*
X015085Y013015D01*
X015157Y013D01*
X01523Y013015D01*
X015291Y013056D01*
X015332Y013117D01*
X015346Y013189D01*
X015332Y013261D01*
X015291Y013322D01*
X015276Y013332D01*
X015273Y013344D01*
X015279Y01339D01*
X015339Y01343D01*
X015389Y013505D01*
X015397Y013543D01*
D02*
G37*
G36*
X019449Y013309D02*
X019377Y013295D01*
X019316Y013254D01*
X019275Y013193D01*
X019261Y01312D01*
X019275Y013048D01*
X019316Y012987D01*
X019377Y012946D01*
X019449Y012932D01*
X019521Y012946D01*
X019583Y012987D01*
X019624Y013048D01*
X019638Y01312D01*
X019624Y013193D01*
X019583Y013254D01*
X019521Y013295D01*
X019449Y013309D01*
D02*
G37*
G36*
X024823Y013364D02*
X024751Y013349D01*
X024689Y013309D01*
X024649Y013247D01*
X024634Y013175D01*
X024649Y013103D01*
X024689Y013042D01*
X024751Y013001D01*
X024823Y012987D01*
X024895Y013001D01*
X024956Y013042D01*
X024997Y013103D01*
X025011Y013175D01*
X024997Y013247D01*
X024956Y013309D01*
X024895Y013349D01*
X024823Y013364D01*
D02*
G37*
G36*
X034753Y007194D02*
X034584D01*
X034591Y007156D01*
X034641Y007082D01*
X034715Y007032D01*
X034753Y007025D01*
Y007194D01*
D02*
G37*
G36*
X02688Y007413D02*
X026808Y007399D01*
X026747Y007358D01*
X026706Y007297D01*
X026691Y007224D01*
X026706Y007152D01*
X026747Y007091D01*
X026808Y00705D01*
X02688Y007036D01*
X026952Y00705D01*
X027013Y007091D01*
X027054Y007152D01*
X027069Y007224D01*
X027054Y007297D01*
X027013Y007358D01*
X026952Y007399D01*
X02688Y007413D01*
D02*
G37*
G36*
X030226Y007315D02*
X030154Y0073D01*
X030093Y007259D01*
X030052Y007198D01*
X030038Y007126D01*
X030052Y007054D01*
X030093Y006993D01*
X030154Y006952D01*
X030226Y006937D01*
X030299Y006952D01*
X03036Y006993D01*
X030401Y007054D01*
X030415Y007126D01*
X030401Y007198D01*
X03036Y007259D01*
X030299Y0073D01*
X030226Y007315D01*
D02*
G37*
G36*
X020449Y007273D02*
X020078D01*
Y006901D01*
X020138Y006909D01*
X020242Y006952D01*
X020331Y00702D01*
X020399Y007109D01*
X020441Y007212D01*
X020449Y007273D01*
D02*
G37*
G36*
X019028Y007711D02*
X018927Y007698D01*
X018834Y007659D01*
X018753Y007597D01*
X018691Y007517D01*
X018653Y007423D01*
X018639Y007323D01*
X018653Y007222D01*
X018691Y007129D01*
X018753Y007048D01*
X018834Y006987D01*
X018927Y006948D01*
X019028Y006935D01*
X019128Y006948D01*
X019222Y006987D01*
X019302Y007048D01*
X019364Y007129D01*
X019402Y007222D01*
X019416Y007323D01*
X019402Y007423D01*
X019364Y007517D01*
X019302Y007597D01*
X019222Y007659D01*
X019128Y007698D01*
X019028Y007711D01*
D02*
G37*
G36*
X010984Y007681D02*
X010861Y007669D01*
X010742Y007633D01*
X010632Y007574D01*
X010536Y007495D01*
X010457Y007399D01*
X010427Y007343D01*
X010377Y00734D01*
X010359Y007367D01*
X010285Y007417D01*
X010247Y007424D01*
Y007205D01*
Y006985D01*
X010285Y006993D01*
X010311Y00701D01*
X010356Y006989D01*
X010363Y006924D01*
X010399Y006805D01*
X010457Y006695D01*
X010536Y006599D01*
X010632Y00652D01*
X010742Y006462D01*
X010861Y006426D01*
X010984Y006413D01*
X011035Y006418D01*
X011063Y006371D01*
X011048Y006348D01*
X01104Y00631D01*
X011479D01*
X011472Y006348D01*
X011422Y006422D01*
X011348Y006472D01*
X011343Y006473D01*
X011341Y00649D01*
X011341Y006524D01*
X011432Y006599D01*
X011511Y006695D01*
X01157Y006805D01*
X011606Y006924D01*
X011618Y007047D01*
X011606Y007171D01*
X01157Y00729D01*
X011511Y007399D01*
X011432Y007495D01*
X011336Y007574D01*
X011227Y007633D01*
X011108Y007669D01*
X010984Y007681D01*
D02*
G37*
G36*
X019978Y007745D02*
X019917Y007737D01*
X019813Y007694D01*
X019725Y007626D01*
X019656Y007537D01*
X019614Y007434D01*
X019606Y007373D01*
X019978D01*
Y007745D01*
D02*
G37*
G36*
X034753Y007464D02*
X034715Y007456D01*
X034641Y007406D01*
X034591Y007332D01*
X034584Y007294D01*
X034753D01*
Y007464D01*
D02*
G37*
G36*
X025107Y00745D02*
X024938D01*
X024946Y007412D01*
X024995Y007338D01*
X02507Y007288D01*
X025107Y007281D01*
Y00745D01*
D02*
G37*
G36*
X025377D02*
X025207D01*
Y007281D01*
X025245Y007288D01*
X02532Y007338D01*
X025369Y007412D01*
X025377Y00745D01*
D02*
G37*
G36*
X033869Y006479D02*
Y00631D01*
X034038D01*
X034031Y006348D01*
X033981Y006422D01*
X033907Y006472D01*
X033869Y006479D01*
D02*
G37*
G36*
X034753D02*
X034715Y006472D01*
X034641Y006422D01*
X034591Y006348D01*
X034584Y00631D01*
X034753D01*
Y006479D01*
D02*
G37*
G36*
X033769D02*
X033731Y006472D01*
X033657Y006422D01*
X033607Y006348D01*
X033599Y00631D01*
X033769D01*
Y006479D01*
D02*
G37*
G36*
X032667D02*
X032629Y006472D01*
X032554Y006422D01*
X032505Y006348D01*
X032497Y00631D01*
X032667D01*
Y006479D01*
D02*
G37*
G36*
X032767D02*
Y00631D01*
X032936D01*
X032928Y006348D01*
X032879Y006422D01*
X032804Y006472D01*
X032767Y006479D01*
D02*
G37*
G36*
X024488Y007108D02*
X024416Y007094D01*
X024355Y007053D01*
X024314Y006991D01*
X0243Y006919D01*
X024314Y006847D01*
X024355Y006786D01*
X024416Y006745D01*
X024488Y006731D01*
X02456Y006745D01*
X024622Y006786D01*
X024662Y006847D01*
X024677Y006919D01*
X024662Y006991D01*
X024622Y007053D01*
X02456Y007094D01*
X024488Y007108D01*
D02*
G37*
G36*
X019978Y007273D02*
X019606D01*
X019614Y007212D01*
X019656Y007109D01*
X019725Y00702D01*
X019813Y006952D01*
X019917Y006909D01*
X019978Y006901D01*
Y007273D01*
D02*
G37*
G36*
X033661Y007848D02*
X033515Y007829D01*
X033379Y007773D01*
X033262Y007683D01*
X033172Y007566D01*
X033116Y00743D01*
X033097Y007283D01*
X033116Y007137D01*
X033172Y007001D01*
X033262Y006884D01*
X033379Y006794D01*
X033515Y006738D01*
X033661Y006719D01*
X033808Y006738D01*
X033944Y006794D01*
X034061Y006884D01*
X034151Y007001D01*
X034207Y007137D01*
X034226Y007283D01*
X034207Y00743D01*
X034151Y007566D01*
X034061Y007683D01*
X033944Y007773D01*
X033808Y007829D01*
X033661Y007848D01*
D02*
G37*
G36*
X023986Y006773D02*
X023914Y006759D01*
X023853Y006718D01*
X023812Y006657D01*
X023798Y006585D01*
X023812Y006512D01*
X023853Y006451D01*
X023914Y00641D01*
X023986Y006396D01*
X024058Y00641D01*
X02412Y006451D01*
X02416Y006512D01*
X024175Y006585D01*
X02416Y006657D01*
X02412Y006718D01*
X024058Y006759D01*
X023986Y006773D01*
D02*
G37*
G36*
X022244Y007848D02*
X022098Y007829D01*
X021962Y007773D01*
X021845Y007683D01*
X021755Y007566D01*
X021699Y00743D01*
X021679Y007283D01*
X021699Y007137D01*
X021755Y007001D01*
X021845Y006884D01*
X021962Y006794D01*
X022098Y006738D01*
X022244Y006719D01*
X02239Y006738D01*
X022527Y006794D01*
X022643Y006884D01*
X022733Y007001D01*
X02279Y007137D01*
X022809Y007283D01*
X02279Y00743D01*
X022733Y007566D01*
X022643Y007683D01*
X022527Y007773D01*
X02239Y007829D01*
X022244Y007848D01*
D02*
G37*
G36*
X032845Y007975D02*
Y007806D01*
X033015D01*
X033007Y007844D01*
X032957Y007918D01*
X032883Y007968D01*
X032845Y007975D01*
D02*
G37*
G36*
X018691Y00824D02*
X018619Y008225D01*
X018558Y008185D01*
X018517Y008123D01*
X018502Y008051D01*
X018517Y007979D01*
X018558Y007918D01*
X018619Y007877D01*
X018691Y007863D01*
X018763Y007877D01*
X018824Y007918D01*
X018865Y007979D01*
X01888Y008051D01*
X018865Y008123D01*
X018824Y008185D01*
X018763Y008225D01*
X018691Y00824D01*
D02*
G37*
G36*
X032745Y007975D02*
X032707Y007968D01*
X032633Y007918D01*
X032583Y007844D01*
X032576Y007806D01*
X032745D01*
Y007975D01*
D02*
G37*
G36*
X027963Y007935D02*
Y007766D01*
X028133D01*
X028125Y007804D01*
X028076Y007878D01*
X028001Y007928D01*
X027963Y007935D01*
D02*
G37*
G36*
X027863D02*
X027826Y007928D01*
X027751Y007878D01*
X027703Y007807D01*
X027682Y007804D01*
X027673D01*
X027651Y007807D01*
X027603Y007878D01*
X027529Y007928D01*
X027491Y007935D01*
Y007716D01*
Y007496D01*
X027529Y007504D01*
X027603Y007554D01*
X027651Y007625D01*
X027673Y007628D01*
X027682D01*
X027703Y007625D01*
X027751Y007554D01*
X027826Y007504D01*
X027863Y007496D01*
Y007716D01*
Y007935D01*
D02*
G37*
G36*
X027391Y008217D02*
X027221D01*
X027229Y008179D01*
X027279Y008105D01*
X027353Y008055D01*
X027391Y008048D01*
Y008217D01*
D02*
G37*
G36*
X028133D02*
X027963D01*
Y008048D01*
X028001Y008055D01*
X028076Y008105D01*
X028125Y008179D01*
X028133Y008217D01*
D02*
G37*
G36*
X034753Y008178D02*
X034584D01*
X034591Y008141D01*
X034641Y008066D01*
X034715Y008016D01*
X034753Y008009D01*
Y008178D01*
D02*
G37*
G36*
X010416Y0081D02*
X010247D01*
Y00793D01*
X010285Y007938D01*
X010359Y007987D01*
X010409Y008062D01*
X010416Y0081D01*
D02*
G37*
G36*
X012441Y008319D02*
X012369Y008304D01*
X012308Y008263D01*
X012267Y008202D01*
X012252Y00813D01*
X012267Y008058D01*
X012308Y007997D01*
X012369Y007956D01*
X012441Y007941D01*
X012513Y007956D01*
X012574Y007997D01*
X012615Y008058D01*
X01263Y00813D01*
X012615Y008202D01*
X012574Y008263D01*
X012513Y008304D01*
X012441Y008319D01*
D02*
G37*
G36*
X032745Y007706D02*
X032576D01*
X032583Y007668D01*
X032633Y007594D01*
X032707Y007544D01*
X032745Y007536D01*
Y007706D01*
D02*
G37*
G36*
X033015D02*
X032845D01*
Y007536D01*
X032883Y007544D01*
X032957Y007594D01*
X033007Y007668D01*
X033015Y007706D01*
D02*
G37*
G36*
X028133Y007666D02*
X027963D01*
Y007496D01*
X028001Y007504D01*
X028076Y007554D01*
X028125Y007628D01*
X028133Y007666D01*
D02*
G37*
G36*
X020078Y007745D02*
Y007373D01*
X020449D01*
X020441Y007434D01*
X020399Y007537D01*
X020331Y007626D01*
X020242Y007694D01*
X020138Y007737D01*
X020078Y007745D01*
D02*
G37*
G36*
X027391Y007666D02*
X027221D01*
X027229Y007628D01*
X027279Y007554D01*
X027353Y007504D01*
X027391Y007496D01*
Y007666D01*
D02*
G37*
G36*
X01185Y007994D02*
X011778Y007979D01*
X011717Y007939D01*
X011676Y007877D01*
X011662Y007805D01*
X011676Y007733D01*
X011717Y007672D01*
X011778Y007631D01*
X01185Y007616D01*
X011923Y007631D01*
X011984Y007672D01*
X012025Y007733D01*
X012039Y007805D01*
X012025Y007877D01*
X011984Y007939D01*
X011923Y007979D01*
X01185Y007994D01*
D02*
G37*
G36*
X027391Y007935D02*
X027353Y007928D01*
X027279Y007878D01*
X027229Y007804D01*
X027221Y007766D01*
X027391D01*
Y007935D01*
D02*
G37*
G36*
X014642Y007694D02*
X014575Y007685D01*
X014512Y007659D01*
X014459Y007618D01*
X014419Y007567D01*
X014392Y007563D01*
X014391D01*
X014364Y007567D01*
X014325Y007618D01*
X014271Y007659D01*
X014209Y007685D01*
X014142Y007694D01*
X014075Y007685D01*
X014012Y007659D01*
X013959Y007618D01*
X013919Y007567D01*
X013892Y007563D01*
X013891D01*
X013864Y007567D01*
X013825Y007618D01*
X013771Y007659D01*
X013709Y007685D01*
X013642Y007694D01*
X013575Y007685D01*
X013512Y007659D01*
X013459Y007618D01*
X013419Y007567D01*
X013392Y007563D01*
X013391D01*
X013364Y007567D01*
X013325Y007618D01*
X013271Y007659D01*
X013209Y007685D01*
X013142Y007694D01*
X013075Y007685D01*
X013012Y007659D01*
X012959Y007618D01*
X012919Y007567D01*
X012892Y007563D01*
X012891D01*
X012864Y007567D01*
X012825Y007618D01*
X012771Y007659D01*
X012709Y007685D01*
X012642Y007694D01*
X012575Y007685D01*
X012512Y007659D01*
X012459Y007618D01*
X012417Y007565D01*
X012391Y007502D01*
X012383Y007435D01*
X012391Y007368D01*
X012417Y007306D01*
X012459Y007252D01*
X01251Y007213D01*
X012514Y007186D01*
Y007185D01*
X01251Y007158D01*
X012459Y007118D01*
X012417Y007065D01*
X012391Y007002D01*
X012383Y006935D01*
X012391Y006868D01*
X012417Y006806D01*
X012459Y006752D01*
X012512Y006711D01*
X012575Y006685D01*
X012642Y006676D01*
X012709Y006685D01*
X012771Y006711D01*
X012825Y006752D01*
X012864Y006803D01*
X012891Y006807D01*
X012892D01*
X012919Y006803D01*
X012959Y006752D01*
X013012Y006711D01*
X013075Y006685D01*
X013142Y006676D01*
X013209Y006685D01*
X013271Y006711D01*
X013325Y006752D01*
X013336Y006766D01*
X013344Y006769D01*
X013398Y006765D01*
X01343Y006723D01*
X013492Y006676D01*
X013564Y006646D01*
X013592Y006642D01*
Y006935D01*
X013692D01*
Y006642D01*
X013719Y006646D01*
X013791Y006676D01*
X013853Y006723D01*
X013867Y006741D01*
X013917D01*
X01393Y006723D01*
X013992Y006676D01*
X014064Y006646D01*
X014092Y006642D01*
Y006935D01*
X014192D01*
Y006642D01*
X014219Y006646D01*
X014291Y006676D01*
X014353Y006723D01*
X014385Y006765D01*
X01444Y006769D01*
X014447Y006766D01*
X014459Y006752D01*
X014512Y006711D01*
X014575Y006685D01*
X014642Y006676D01*
X014709Y006685D01*
X014771Y006711D01*
X014825Y006752D01*
X014866Y006806D01*
X014892Y006868D01*
X014901Y006935D01*
X014892Y007002D01*
X014866Y007065D01*
X014825Y007118D01*
X014774Y007158D01*
X01477Y007185D01*
Y007186D01*
X014774Y007213D01*
X014825Y007252D01*
X014866Y007306D01*
X014892Y007368D01*
X014901Y007435D01*
X014892Y007502D01*
X014866Y007565D01*
X014825Y007618D01*
X014771Y007659D01*
X014709Y007685D01*
X014642Y007694D01*
D02*
G37*
G36*
X025107Y007719D02*
X02507Y007712D01*
X024995Y007662D01*
X024946Y007588D01*
X024938Y00755D01*
X025107D01*
Y007719D01*
D02*
G37*
G36*
X025207D02*
Y00755D01*
X025377D01*
X025369Y007588D01*
X02532Y007662D01*
X025245Y007712D01*
X025207Y007719D01*
D02*
G37*
G36*
X031723Y006479D02*
Y00631D01*
X031893D01*
X031885Y006348D01*
X031835Y006422D01*
X031761Y006472D01*
X031723Y006479D01*
D02*
G37*
G36*
X018493D02*
X018456Y006472D01*
X018381Y006422D01*
X018331Y006348D01*
X018324Y00631D01*
X018493D01*
Y006479D01*
D02*
G37*
G36*
X018593D02*
Y00631D01*
X018763D01*
X018755Y006348D01*
X018706Y006422D01*
X018631Y006472D01*
X018593Y006479D01*
D02*
G37*
G36*
X017609D02*
Y00631D01*
X017779D01*
X017771Y006348D01*
X017721Y006422D01*
X017647Y006472D01*
X017609Y006479D01*
D02*
G37*
G36*
X016507D02*
Y00631D01*
X016676D01*
X016669Y006348D01*
X016619Y006422D01*
X016544Y006472D01*
X016507Y006479D01*
D02*
G37*
G36*
X017509D02*
X017471Y006472D01*
X017397Y006422D01*
X017347Y006348D01*
X01734Y00631D01*
X017509D01*
Y006479D01*
D02*
G37*
G36*
X020562D02*
Y00631D01*
X020731D01*
X020724Y006348D01*
X020674Y006422D01*
X0206Y006472D01*
X020562Y006479D01*
D02*
G37*
G36*
X021348D02*
X02131Y006472D01*
X021235Y006422D01*
X021186Y006348D01*
X021178Y00631D01*
X021348D01*
Y006479D01*
D02*
G37*
G36*
X020462D02*
X020424Y006472D01*
X02035Y006422D01*
X0203Y006348D01*
X020292Y00631D01*
X020462D01*
Y006479D01*
D02*
G37*
G36*
X019478D02*
X01944Y006472D01*
X019365Y006422D01*
X019316Y006348D01*
X019308Y00631D01*
X019478D01*
Y006479D01*
D02*
G37*
G36*
X019578D02*
Y00631D01*
X019747D01*
X01974Y006348D01*
X01969Y006422D01*
X019615Y006472D01*
X019578Y006479D01*
D02*
G37*
G36*
X013277D02*
X013239Y006472D01*
X013165Y006422D01*
X013115Y006348D01*
X013107Y00631D01*
X013277D01*
Y006479D01*
D02*
G37*
G36*
X013377D02*
Y00631D01*
X013546D01*
X013539Y006348D01*
X013489Y006422D01*
X013415Y006472D01*
X013377Y006479D01*
D02*
G37*
G36*
X012333D02*
Y00631D01*
X012503D01*
X012495Y006348D01*
X012446Y006422D01*
X012371Y006472D01*
X012333Y006479D01*
D02*
G37*
G36*
X010247D02*
Y00631D01*
X010416D01*
X010409Y006348D01*
X010359Y006422D01*
X010285Y006472D01*
X010247Y006479D01*
D02*
G37*
G36*
X012233D02*
X012196Y006472D01*
X012121Y006422D01*
X012072Y006348D01*
X012064Y00631D01*
X012233D01*
Y006479D01*
D02*
G37*
G36*
X015473D02*
Y00631D01*
X015643D01*
X015635Y006348D01*
X015585Y006422D01*
X015511Y006472D01*
X015473Y006479D01*
D02*
G37*
G36*
X016407D02*
X016369Y006472D01*
X016294Y006422D01*
X016245Y006348D01*
X016237Y00631D01*
X016407D01*
Y006479D01*
D02*
G37*
G36*
X015373D02*
X015335Y006472D01*
X015261Y006422D01*
X015211Y006348D01*
X015204Y00631D01*
X015373D01*
Y006479D01*
D02*
G37*
G36*
X01432D02*
X014282Y006472D01*
X014208Y006422D01*
X014158Y006348D01*
X014151Y00631D01*
X01432D01*
Y006479D01*
D02*
G37*
G36*
X01442D02*
Y00631D01*
X01459D01*
X014582Y006348D01*
X014532Y006422D01*
X014458Y006472D01*
X01442Y006479D01*
D02*
G37*
G36*
X028493D02*
X028456Y006472D01*
X028381Y006422D01*
X028331Y006348D01*
X028324Y00631D01*
X028493D01*
Y006479D01*
D02*
G37*
G36*
X028593D02*
Y00631D01*
X028763D01*
X028755Y006348D01*
X028706Y006422D01*
X028631Y006472D01*
X028593Y006479D01*
D02*
G37*
G36*
X02756D02*
Y00631D01*
X027729D01*
X027722Y006348D01*
X027672Y006422D01*
X027598Y006472D01*
X02756Y006479D01*
D02*
G37*
G36*
X026507D02*
Y00631D01*
X026676D01*
X026669Y006348D01*
X026619Y006422D01*
X026544Y006472D01*
X026507Y006479D01*
D02*
G37*
G36*
X02746D02*
X027422Y006472D01*
X027348Y006422D01*
X027298Y006348D01*
X02729Y00631D01*
X02746D01*
Y006479D01*
D02*
G37*
G36*
X03068D02*
Y00631D01*
X030849D01*
X030842Y006348D01*
X030792Y006422D01*
X030718Y006472D01*
X03068Y006479D01*
D02*
G37*
G36*
X031623D02*
X031585Y006472D01*
X031511Y006422D01*
X031461Y006348D01*
X031454Y00631D01*
X031623D01*
Y006479D01*
D02*
G37*
G36*
X03058D02*
X030542Y006472D01*
X030468Y006422D01*
X030418Y006348D01*
X03041Y00631D01*
X03058D01*
Y006479D01*
D02*
G37*
G36*
X029546D02*
X029509Y006472D01*
X029434Y006422D01*
X029385Y006348D01*
X029377Y00631D01*
X029546D01*
Y006479D01*
D02*
G37*
G36*
X029646D02*
Y00631D01*
X029816D01*
X029808Y006348D01*
X029759Y006422D01*
X029684Y006472D01*
X029646Y006479D01*
D02*
G37*
G36*
X023277D02*
X023239Y006472D01*
X023165Y006422D01*
X023115Y006348D01*
X023107Y00631D01*
X023277D01*
Y006479D01*
D02*
G37*
G36*
X023377D02*
Y00631D01*
X023546D01*
X023539Y006348D01*
X023489Y006422D01*
X023415Y006472D01*
X023377Y006479D01*
D02*
G37*
G36*
X022333D02*
Y00631D01*
X022503D01*
X022495Y006348D01*
X022446Y006422D01*
X022371Y006472D01*
X022333Y006479D01*
D02*
G37*
G36*
X021448D02*
Y00631D01*
X021617D01*
X02161Y006348D01*
X02156Y006422D01*
X021485Y006472D01*
X021448Y006479D01*
D02*
G37*
G36*
X022233D02*
X022196Y006472D01*
X022121Y006422D01*
X022072Y006348D01*
X022064Y00631D01*
X022233D01*
Y006479D01*
D02*
G37*
G36*
X025463D02*
Y00631D01*
X025633D01*
X025625Y006348D01*
X025576Y006422D01*
X025501Y006472D01*
X025463Y006479D01*
D02*
G37*
G36*
X026407D02*
X026369Y006472D01*
X026294Y006422D01*
X026245Y006348D01*
X026237Y00631D01*
X026407D01*
Y006479D01*
D02*
G37*
G36*
X025363D02*
X025326Y006472D01*
X025251Y006422D01*
X025201Y006348D01*
X025194Y00631D01*
X025363D01*
Y006479D01*
D02*
G37*
G36*
X02432D02*
X024282Y006472D01*
X024208Y006422D01*
X024158Y006348D01*
X024151Y00631D01*
X02432D01*
Y006479D01*
D02*
G37*
G36*
X02442D02*
Y00631D01*
X02459D01*
X024582Y006348D01*
X024532Y006422D01*
X024458Y006472D01*
X02442Y006479D01*
D02*
G37*
G36*
X011919Y010258D02*
X011847Y010243D01*
X011786Y010202D01*
X011745Y010141D01*
X011731Y010069D01*
X011745Y009997D01*
X011786Y009936D01*
X011847Y009895D01*
X011919Y00988D01*
X011991Y009895D01*
X012053Y009936D01*
X012094Y009997D01*
X012108Y010069D01*
X012094Y010141D01*
X012053Y010202D01*
X011991Y010243D01*
X011919Y010258D01*
D02*
G37*
G36*
X030294Y010068D02*
X030125D01*
X030133Y01003D01*
X030182Y009956D01*
X030257Y009906D01*
X030294Y009899D01*
Y010068D01*
D02*
G37*
G36*
X020621Y009786D02*
Y009617D01*
X02079D01*
X020783Y009655D01*
X020733Y009729D01*
X020659Y009779D01*
X020621Y009786D01*
D02*
G37*
G36*
X012944Y009629D02*
Y009459D01*
X013113D01*
X013106Y009497D01*
X013056Y009572D01*
X012981Y009621D01*
X012944Y009629D01*
D02*
G37*
G36*
X020521Y009786D02*
X020483Y009779D01*
X020409Y009729D01*
X020359Y009655D01*
X020351Y009617D01*
X020521D01*
Y009786D01*
D02*
G37*
G36*
X032657Y010068D02*
X032487D01*
X032495Y01003D01*
X032544Y009956D01*
X032619Y009906D01*
X032657Y009899D01*
Y010068D01*
D02*
G37*
G36*
X032926D02*
X032757D01*
Y009899D01*
X032794Y009906D01*
X032869Y009956D01*
X032919Y01003D01*
X032926Y010068D01*
D02*
G37*
G36*
X031745D02*
X031576D01*
Y009899D01*
X031613Y009906D01*
X031688Y009956D01*
X031738Y01003D01*
X031745Y010068D01*
D02*
G37*
G36*
X030564D02*
X030394D01*
Y009899D01*
X030432Y009906D01*
X030507Y009956D01*
X030556Y01003D01*
X030564Y010068D01*
D02*
G37*
G36*
X031476D02*
X031306D01*
X031314Y01003D01*
X031363Y009956D01*
X031438Y009906D01*
X031476Y009899D01*
Y010068D01*
D02*
G37*
G36*
X020521Y009517D02*
X020351D01*
X020359Y009479D01*
X020409Y009405D01*
X020483Y009355D01*
X020521Y009347D01*
Y009517D01*
D02*
G37*
G36*
X02079D02*
X020621D01*
Y009347D01*
X020659Y009355D01*
X020733Y009405D01*
X020783Y009479D01*
X02079Y009517D01*
D02*
G37*
G36*
X024991Y009501D02*
Y009331D01*
X02516D01*
X025153Y009369D01*
X025103Y009444D01*
X025029Y009493D01*
X024991Y009501D01*
D02*
G37*
G36*
X029636Y009706D02*
X029564Y009692D01*
X029502Y009651D01*
X029462Y00959D01*
X029447Y009518D01*
X029462Y009446D01*
X029502Y009384D01*
X029564Y009343D01*
X029636Y009329D01*
X029708Y009343D01*
X029769Y009384D01*
X02981Y009446D01*
X029824Y009518D01*
X02981Y00959D01*
X029769Y009651D01*
X029708Y009692D01*
X029636Y009706D01*
D02*
G37*
G36*
X024891Y009501D02*
X024853Y009493D01*
X024779Y009444D01*
X024729Y009369D01*
X024721Y009331D01*
X024891D01*
Y009501D01*
D02*
G37*
G36*
X027391Y009589D02*
X027353Y009581D01*
X027279Y009532D01*
X027229Y009457D01*
X027221Y009419D01*
X027391D01*
Y009589D01*
D02*
G37*
G36*
X012844Y009629D02*
X012806Y009621D01*
X012731Y009572D01*
X012682Y009497D01*
X012674Y009459D01*
X012844D01*
Y009629D01*
D02*
G37*
G36*
X027963Y009589D02*
Y009419D01*
X028133D01*
X028125Y009457D01*
X028076Y009532D01*
X028001Y009581D01*
X027963Y009589D01*
D02*
G37*
G36*
X01188Y009726D02*
X011808Y009712D01*
X011747Y009671D01*
X011706Y00961D01*
X011691Y009537D01*
X011706Y009465D01*
X011747Y009404D01*
X011808Y009363D01*
X01188Y009349D01*
X011952Y009363D01*
X012013Y009404D01*
X012054Y009465D01*
X012069Y009537D01*
X012054Y00961D01*
X012013Y009671D01*
X011952Y009712D01*
X01188Y009726D01*
D02*
G37*
G36*
X010915Y009746D02*
X010843Y009731D01*
X010782Y00969D01*
X010741Y009629D01*
X010727Y009557D01*
X010741Y009485D01*
X010782Y009424D01*
X010843Y009383D01*
X010915Y009368D01*
X010988Y009383D01*
X011049Y009424D01*
X01109Y009485D01*
X011104Y009557D01*
X01109Y009629D01*
X011049Y00969D01*
X010988Y009731D01*
X010915Y009746D01*
D02*
G37*
G36*
X030394Y010338D02*
Y010168D01*
X030564D01*
X030556Y010206D01*
X030507Y01028D01*
X030432Y01033D01*
X030394Y010338D01*
D02*
G37*
G36*
X031476D02*
X031438Y01033D01*
X031363Y01028D01*
X031314Y010206D01*
X031306Y010168D01*
X031476D01*
Y010338D01*
D02*
G37*
G36*
X030294D02*
X030257Y01033D01*
X030182Y01028D01*
X030133Y010206D01*
X030125Y010168D01*
X030294D01*
Y010338D01*
D02*
G37*
G36*
X016821Y010415D02*
X016749Y010401D01*
X016687Y01036D01*
X016647Y010299D01*
X016632Y010226D01*
X016647Y010154D01*
X016687Y010093D01*
X016749Y010052D01*
X016821Y010038D01*
X016893Y010052D01*
X016954Y010093D01*
X016995Y010154D01*
X017009Y010226D01*
X016995Y010299D01*
X016954Y01036D01*
X016893Y010401D01*
X016821Y010415D01*
D02*
G37*
G36*
X028819Y010484D02*
X028747Y01047D01*
X028686Y010429D01*
X028645Y010367D01*
X02863Y010295D01*
X028645Y010223D01*
X028686Y010162D01*
X028747Y010121D01*
X028819Y010107D01*
X028891Y010121D01*
X028952Y010162D01*
X028993Y010223D01*
X029008Y010295D01*
X028993Y010367D01*
X028952Y010429D01*
X028891Y01047D01*
X028819Y010484D01*
D02*
G37*
G36*
X010247Y010338D02*
Y010168D01*
X010416D01*
X010409Y010206D01*
X010359Y01028D01*
X010285Y01033D01*
X010247Y010338D01*
D02*
G37*
G36*
X030885D02*
X030847Y01033D01*
X030773Y01028D01*
X030723Y010206D01*
X030716Y010168D01*
X030885D01*
Y010338D01*
D02*
G37*
G36*
X032757Y010338D02*
Y010168D01*
X032926D01*
X032919Y010206D01*
X032869Y01028D01*
X032794Y01033D01*
X032757Y010338D01*
D02*
G37*
G36*
X031576D02*
Y010168D01*
X031745D01*
X031738Y010206D01*
X031688Y01028D01*
X031613Y01033D01*
X031576Y010338D01*
D02*
G37*
G36*
X032657D02*
X032619Y01033D01*
X032544Y01028D01*
X032495Y010206D01*
X032487Y010168D01*
X032657D01*
Y010338D01*
D02*
G37*
G36*
X032066Y010068D02*
X031897D01*
X031904Y01003D01*
X031954Y009956D01*
X032028Y009906D01*
X032066Y009899D01*
Y010068D01*
D02*
G37*
G36*
X032336D02*
X032166D01*
Y009899D01*
X032204Y009906D01*
X032278Y009956D01*
X032328Y01003D01*
X032336Y010068D01*
D02*
G37*
G36*
X031154D02*
X030985D01*
Y009899D01*
X031023Y009906D01*
X031097Y009956D01*
X031147Y01003D01*
X031154Y010068D01*
D02*
G37*
G36*
X010416D02*
X010247D01*
Y009899D01*
X010285Y009906D01*
X010359Y009956D01*
X010409Y01003D01*
X010416Y010068D01*
D02*
G37*
G36*
X030885D02*
X030716D01*
X030723Y01003D01*
X030773Y009956D01*
X030847Y009906D01*
X030885Y009899D01*
Y010068D01*
D02*
G37*
G36*
X01769Y010176D02*
X01752D01*
Y010007D01*
X017558Y010014D01*
X017633Y010064D01*
X017682Y010139D01*
X01769Y010176D01*
D02*
G37*
G36*
X019734Y010385D02*
X019662Y010371D01*
X019601Y01033D01*
X01956Y010269D01*
X019546Y010197D01*
X01956Y010125D01*
X019601Y010063D01*
X019662Y010023D01*
X019734Y010008D01*
X019806Y010023D01*
X019868Y010063D01*
X019909Y010125D01*
X019923Y010197D01*
X019909Y010269D01*
X019868Y01033D01*
X019806Y010371D01*
X019734Y010385D01*
D02*
G37*
G36*
X01742Y010176D02*
X017251D01*
X017259Y010139D01*
X017308Y010064D01*
X017383Y010014D01*
X01742Y010007D01*
Y010176D01*
D02*
G37*
G36*
X023858Y010336D02*
X023786Y010322D01*
X023725Y010281D01*
X023684Y01022D01*
X02367Y010148D01*
X023684Y010075D01*
X023725Y010014D01*
X023786Y009973D01*
X023858Y009959D01*
X02393Y009973D01*
X023992Y010014D01*
X024033Y010075D01*
X024047Y010148D01*
X024033Y01022D01*
X023992Y010281D01*
X02393Y010322D01*
X023858Y010336D01*
D02*
G37*
G36*
X034753Y010147D02*
X034584D01*
X034591Y010109D01*
X034641Y010035D01*
X034715Y009985D01*
X034753Y009977D01*
Y010147D01*
D02*
G37*
G36*
X019173Y009706D02*
X019101Y009692D01*
X01904Y009651D01*
X018999Y00959D01*
X018985Y009518D01*
X018999Y009446D01*
X01904Y009384D01*
X019101Y009343D01*
X019173Y009329D01*
X019245Y009343D01*
X019307Y009384D01*
X019347Y009446D01*
X019362Y009518D01*
X019347Y00959D01*
X019307Y009651D01*
X019245Y009692D01*
X019173Y009706D01*
D02*
G37*
G36*
X030463Y008899D02*
X03039Y008885D01*
X030329Y008844D01*
X030288Y008783D01*
X030274Y008711D01*
X030288Y008638D01*
X030329Y008577D01*
X03039Y008536D01*
X030463Y008522D01*
X030535Y008536D01*
X030596Y008577D01*
X030637Y008638D01*
X030651Y008711D01*
X030637Y008783D01*
X030596Y008844D01*
X030535Y008885D01*
X030463Y008899D01*
D02*
G37*
G36*
X027391Y008768D02*
X027221D01*
X027229Y00873D01*
X027279Y008656D01*
X027353Y008606D01*
X027391Y008599D01*
Y008768D01*
D02*
G37*
G36*
X03128Y00888D02*
X031207Y008865D01*
X031146Y008824D01*
X031105Y008763D01*
X031091Y008691D01*
X031105Y008619D01*
X031146Y008558D01*
X031207Y008517D01*
X03128Y008502D01*
X031352Y008517D01*
X031413Y008558D01*
X031454Y008619D01*
X031468Y008691D01*
X031454Y008763D01*
X031413Y008824D01*
X031352Y008865D01*
X03128Y00888D01*
D02*
G37*
G36*
X02391Y008523D02*
X023741D01*
Y008353D01*
X023779Y008361D01*
X023853Y008411D01*
X023903Y008485D01*
X02391Y008523D01*
D02*
G37*
G36*
X027863Y008487D02*
X027826Y008479D01*
X027751Y008429D01*
X027703Y008358D01*
X027682Y008355D01*
X027673D01*
X027651Y008358D01*
X027603Y008429D01*
X027529Y008479D01*
X027491Y008487D01*
Y008267D01*
Y008048D01*
X027529Y008055D01*
X027603Y008105D01*
X027651Y008176D01*
X027673Y008179D01*
X027682D01*
X027703Y008176D01*
X027751Y008105D01*
X027826Y008055D01*
X027863Y008048D01*
Y008267D01*
Y008487D01*
D02*
G37*
G36*
X023641Y008792D02*
X023603Y008785D01*
X023529Y008735D01*
X023479Y008661D01*
X023471Y008623D01*
X023641D01*
Y008792D01*
D02*
G37*
G36*
X023741D02*
Y008623D01*
X02391D01*
X023903Y008661D01*
X023853Y008735D01*
X023779Y008785D01*
X023741Y008792D01*
D02*
G37*
G36*
X022363Y008773D02*
Y008603D01*
X022532D01*
X022525Y008641D01*
X022475Y008715D01*
X022401Y008765D01*
X022363Y008773D01*
D02*
G37*
G36*
X028133Y008768D02*
X027963D01*
Y008599D01*
X028001Y008606D01*
X028076Y008656D01*
X028125Y00873D01*
X028133Y008768D01*
D02*
G37*
G36*
X022263Y008773D02*
X022225Y008765D01*
X022151Y008715D01*
X022101Y008641D01*
X022094Y008603D01*
X022263D01*
Y008773D01*
D02*
G37*
G36*
X010247Y008369D02*
Y0082D01*
X010416D01*
X010409Y008237D01*
X010359Y008312D01*
X010285Y008362D01*
X010247Y008369D01*
D02*
G37*
G36*
X034753Y008448D02*
X034715Y00844D01*
X034641Y008391D01*
X034591Y008316D01*
X034584Y008278D01*
X034753D01*
Y008448D01*
D02*
G37*
G36*
X033504Y008574D02*
X033432Y00856D01*
X033371Y008519D01*
X03333Y008458D01*
X033315Y008386D01*
X03333Y008314D01*
X033371Y008252D01*
X033432Y008212D01*
X033504Y008197D01*
X033576Y008212D01*
X033637Y008252D01*
X033678Y008314D01*
X033693Y008386D01*
X033678Y008458D01*
X033637Y008519D01*
X033576Y00856D01*
X033504Y008574D01*
D02*
G37*
G36*
X029385Y008481D02*
X029313Y008467D01*
X029252Y008426D01*
X029211Y008365D01*
X029197Y008293D01*
X029211Y00822D01*
X029252Y008159D01*
X029313Y008118D01*
X029385Y008104D01*
X029457Y008118D01*
X029519Y008159D01*
X029559Y00822D01*
X029574Y008293D01*
X029559Y008365D01*
X029519Y008426D01*
X029457Y008467D01*
X029385Y008481D01*
D02*
G37*
G36*
X014311Y008889D02*
X014239Y008875D01*
X014178Y008834D01*
X014137Y008773D01*
X014122Y008701D01*
X014137Y008629D01*
X014178Y008567D01*
X014239Y008527D01*
X014311Y008512D01*
X014356Y008521D01*
X014376Y008474D01*
X014355Y00846D01*
X014314Y008399D01*
X0143Y008327D01*
X014314Y008255D01*
X014355Y008193D01*
X014416Y008153D01*
X014488Y008138D01*
X01456Y008153D01*
X014622Y008193D01*
X014662Y008255D01*
X014677Y008327D01*
X014662Y008399D01*
X014622Y00846D01*
X01456Y008501D01*
X014488Y008515D01*
X014443Y008506D01*
X014424Y008554D01*
X014444Y008567D01*
X014485Y008629D01*
X0145Y008701D01*
X014485Y008773D01*
X014444Y008834D01*
X014383Y008875D01*
X014311Y008889D01*
D02*
G37*
G36*
X022532Y008503D02*
X022363D01*
Y008334D01*
X022401Y008341D01*
X022475Y008391D01*
X022525Y008465D01*
X022532Y008503D01*
D02*
G37*
G36*
X023641Y008523D02*
X023471D01*
X023479Y008485D01*
X023529Y008411D01*
X023603Y008361D01*
X023641Y008353D01*
Y008523D01*
D02*
G37*
G36*
X022263Y008503D02*
X022094D01*
X022101Y008465D01*
X022151Y008391D01*
X022225Y008341D01*
X022263Y008334D01*
Y008503D01*
D02*
G37*
G36*
X027391Y008487D02*
X027353Y008479D01*
X027279Y008429D01*
X027229Y008355D01*
X027221Y008317D01*
X027391D01*
Y008487D01*
D02*
G37*
G36*
X027963D02*
Y008317D01*
X028133D01*
X028125Y008355D01*
X028076Y008429D01*
X028001Y008479D01*
X027963Y008487D01*
D02*
G37*
G36*
X027491Y009589D02*
Y009369D01*
Y00915D01*
X027529Y009158D01*
X027603Y009207D01*
X027651Y009279D01*
X027673Y009282D01*
X027682D01*
X027703Y009279D01*
X027751Y009207D01*
X027826Y009158D01*
X027863Y00915D01*
Y009369D01*
Y009589D01*
X027826Y009581D01*
X027751Y009532D01*
X027703Y00946D01*
X027682Y009457D01*
X027673D01*
X027651Y00946D01*
X027603Y009532D01*
X027529Y009581D01*
X027491Y009589D01*
D02*
G37*
G36*
X028133Y009319D02*
X027963D01*
Y00915D01*
X028001Y009158D01*
X028076Y009207D01*
X028125Y009282D01*
X028133Y009319D01*
D02*
G37*
G36*
X01381Y009284D02*
Y009115D01*
X013979D01*
X013972Y009153D01*
X013922Y009227D01*
X013848Y009277D01*
X01381Y009284D01*
D02*
G37*
G36*
X02516Y009232D02*
X024991D01*
Y009062D01*
X025029Y00907D01*
X025103Y009119D01*
X025153Y009194D01*
X02516Y009232D01*
D02*
G37*
G36*
X01371Y009284D02*
X013672Y009277D01*
X013598Y009227D01*
X013548Y009153D01*
X01354Y009115D01*
X01371D01*
Y009284D01*
D02*
G37*
G36*
X013113Y009359D02*
X012944D01*
Y00919D01*
X012981Y009197D01*
X013056Y009247D01*
X013106Y009322D01*
X013113Y009359D01*
D02*
G37*
G36*
X034753Y009432D02*
X034715Y009425D01*
X034641Y009375D01*
X034591Y0093D01*
X034584Y009263D01*
X034753D01*
Y009432D01*
D02*
G37*
G36*
X012844Y009359D02*
X012674D01*
X012682Y009322D01*
X012731Y009247D01*
X012806Y009197D01*
X012844Y00919D01*
Y009359D01*
D02*
G37*
G36*
X027391Y009319D02*
X027221D01*
X027229Y009282D01*
X027279Y009207D01*
X027353Y009158D01*
X027391Y00915D01*
Y009319D01*
D02*
G37*
G36*
X010247Y009353D02*
Y009184D01*
X010416D01*
X010409Y009222D01*
X010359Y009296D01*
X010285Y009346D01*
X010247Y009353D01*
D02*
G37*
G36*
X027391Y009038D02*
X027353Y00903D01*
X027279Y00898D01*
X027229Y008906D01*
X027221Y008868D01*
X027391D01*
Y009038D01*
D02*
G37*
G36*
X027963D02*
Y008868D01*
X028133D01*
X028125Y008906D01*
X028076Y00898D01*
X028001Y00903D01*
X027963Y009038D01*
D02*
G37*
G36*
X013979Y009015D02*
X01381D01*
Y008845D01*
X013848Y008853D01*
X013922Y008903D01*
X013972Y008977D01*
X013979Y009015D01*
D02*
G37*
G36*
X015069Y009067D02*
X014997Y009052D01*
X014936Y009011D01*
X014895Y00895D01*
X01488Y008878D01*
X014895Y008806D01*
X014936Y008745D01*
X014997Y008704D01*
X015069Y008689D01*
X015141Y008704D01*
X015202Y008745D01*
X015243Y008806D01*
X015258Y008878D01*
X015243Y00895D01*
X015202Y009011D01*
X015141Y009052D01*
X015069Y009067D01*
D02*
G37*
G36*
X01371Y009015D02*
X01354D01*
X013548Y008977D01*
X013598Y008903D01*
X013672Y008853D01*
X01371Y008845D01*
Y009015D01*
D02*
G37*
G36*
X034753Y009163D02*
X034584D01*
X034591Y009125D01*
X034641Y00905D01*
X034715Y009001D01*
X034753Y008993D01*
Y009163D01*
D02*
G37*
G36*
X024891Y009232D02*
X024721D01*
X024729Y009194D01*
X024779Y009119D01*
X024853Y00907D01*
X024891Y009062D01*
Y009232D01*
D02*
G37*
G36*
X033031Y009342D02*
X032959Y009328D01*
X032898Y009287D01*
X032857Y009226D01*
X032843Y009154D01*
X032857Y009081D01*
X032898Y00902D01*
X032959Y008979D01*
X033031Y008965D01*
X033104Y008979D01*
X033165Y00902D01*
X033206Y009081D01*
X03322Y009154D01*
X033206Y009226D01*
X033165Y009287D01*
X033104Y009328D01*
X033031Y009342D01*
D02*
G37*
G36*
X027863Y009038D02*
X027826Y00903D01*
X027751Y00898D01*
X027703Y008909D01*
X027682Y008906D01*
X027673D01*
X027651Y008909D01*
X027603Y00898D01*
X027529Y00903D01*
X027491Y009038D01*
Y008818D01*
Y008599D01*
X027529Y008606D01*
X027603Y008656D01*
X027651Y008728D01*
X027673Y00873D01*
X027682D01*
X027703Y008728D01*
X027751Y008656D01*
X027826Y008606D01*
X027863Y008599D01*
Y008818D01*
Y009038D01*
D02*
G37*
G36*
X010416Y009084D02*
X010247D01*
Y008914D01*
X010285Y008922D01*
X010359Y008972D01*
X010409Y009046D01*
X010416Y009084D01*
D02*
G37*
G36*
X018198Y022877D02*
X01816Y022869D01*
X018086Y02282D01*
X018036Y022745D01*
X018029Y022707D01*
X018198D01*
Y022877D01*
D02*
G37*
G36*
X018298D02*
Y022707D01*
X018467D01*
X01846Y022745D01*
X01841Y02282D01*
X018336Y022869D01*
X018298Y022877D01*
D02*
G37*
G36*
X010416Y022863D02*
X010247D01*
Y022694D01*
X010285Y022701D01*
X010359Y022751D01*
X010409Y022826D01*
X010416Y022863D01*
D02*
G37*
G36*
X027749Y022794D02*
X02758D01*
Y022625D01*
X027617Y022633D01*
X027692Y022682D01*
X027741Y022757D01*
X027749Y022794D01*
D02*
G37*
G36*
X028051Y023378D02*
X027979Y023363D01*
X027918Y023322D01*
X027877Y023261D01*
X027863Y023189D01*
X027877Y023117D01*
X027918Y023056D01*
X027979Y023015D01*
X028051Y023D01*
X028087Y023008D01*
X028118Y022963D01*
X028093Y022927D01*
X028079Y022854D01*
X028093Y022782D01*
X028134Y022721D01*
X028196Y02268D01*
X028268Y022666D01*
X02834Y02268D01*
X028401Y022721D01*
X028442Y022782D01*
X028456Y022854D01*
X028442Y022927D01*
X028401Y022988D01*
X02834Y023029D01*
X028268Y023043D01*
X028231Y023036D01*
X028201Y023081D01*
X028225Y023117D01*
X02824Y023189D01*
X028225Y023261D01*
X028185Y023322D01*
X028123Y023363D01*
X028051Y023378D01*
D02*
G37*
G36*
X034753Y022942D02*
X034584D01*
X034591Y022904D01*
X034641Y02283D01*
X034715Y02278D01*
X034753Y022773D01*
Y022942D01*
D02*
G37*
G36*
X024615Y022962D02*
X024446D01*
X024453Y022924D01*
X024503Y02285D01*
X024578Y0228D01*
X024615Y022792D01*
Y022962D01*
D02*
G37*
G36*
X021922Y022922D02*
X021753D01*
Y022753D01*
X021791Y022761D01*
X021865Y02281D01*
X021915Y022885D01*
X021922Y022922D01*
D02*
G37*
G36*
X023238Y023092D02*
X023166Y023078D01*
X023105Y023037D01*
X023064Y022976D01*
X02305Y022904D01*
X023064Y022831D01*
X023105Y02277D01*
X023166Y022729D01*
X023238Y022715D01*
X02331Y022729D01*
X023372Y02277D01*
X023412Y022831D01*
X023427Y022904D01*
X023412Y022976D01*
X023372Y023037D01*
X02331Y023078D01*
X023238Y023092D01*
D02*
G37*
G36*
X021653Y022922D02*
X021483D01*
X021491Y022885D01*
X021541Y02281D01*
X021615Y022761D01*
X021653Y022753D01*
Y022922D01*
D02*
G37*
G36*
X021634Y02259D02*
X021562Y022576D01*
X0215Y022535D01*
X02146Y022474D01*
X021445Y022402D01*
X02146Y022329D01*
X0215Y022268D01*
X021562Y022227D01*
X021634Y022213D01*
X021706Y022227D01*
X021767Y022268D01*
X021808Y022329D01*
X021822Y022402D01*
X021808Y022474D01*
X021767Y022535D01*
X021706Y022576D01*
X021634Y02259D01*
D02*
G37*
G36*
X018198Y022607D02*
X018029D01*
X018036Y02257D01*
X018086Y022495D01*
X01816Y022446D01*
X018198Y022438D01*
Y022607D01*
D02*
G37*
G36*
X029735Y022365D02*
Y022196D01*
X029904D01*
X029897Y022233D01*
X029847Y022308D01*
X029773Y022358D01*
X029735Y022365D01*
D02*
G37*
G36*
X022363Y022326D02*
Y022156D01*
X022532D01*
X022525Y022194D01*
X022475Y022269D01*
X022401Y022318D01*
X022363Y022326D01*
D02*
G37*
G36*
X029635Y022365D02*
X029597Y022358D01*
X029523Y022308D01*
X029473Y022233D01*
X029466Y022196D01*
X029635D01*
Y022365D01*
D02*
G37*
G36*
X025958Y022716D02*
X025788D01*
Y022546D01*
X025826Y022554D01*
X0259Y022604D01*
X02595Y022678D01*
X025958Y022716D01*
D02*
G37*
G36*
X02748Y022794D02*
X02731D01*
X027318Y022757D01*
X027367Y022682D01*
X027442Y022633D01*
X02748Y022625D01*
Y022794D01*
D02*
G37*
G36*
X025688Y022716D02*
X025519D01*
X025526Y022678D01*
X025576Y022604D01*
X02565Y022554D01*
X025688Y022546D01*
Y022716D01*
D02*
G37*
G36*
X018467Y022607D02*
X018298D01*
Y022438D01*
X018336Y022446D01*
X01841Y022495D01*
X01846Y02257D01*
X018467Y022607D01*
D02*
G37*
G36*
X024885Y022962D02*
X024715D01*
Y022792D01*
X024716Y022793D01*
X024759Y02275D01*
X024752Y022717D01*
X024767Y022644D01*
X024808Y022583D01*
X024869Y022542D01*
X024941Y022528D01*
X025013Y022542D01*
X025074Y022583D01*
X025115Y022644D01*
X02513Y022717D01*
X025115Y022789D01*
X025074Y02285D01*
X025013Y022891D01*
X024941Y022905D01*
X02492Y022901D01*
X024914Y022904D01*
X024881Y022944D01*
X024885Y022962D01*
D02*
G37*
G36*
X022165Y023444D02*
X021995D01*
X022003Y023406D01*
X022052Y023332D01*
X022127Y023282D01*
X022165Y023275D01*
Y023444D01*
D02*
G37*
G36*
X022434D02*
X022265D01*
Y023275D01*
X022302Y023282D01*
X022377Y023332D01*
X022427Y023406D01*
X022434Y023444D01*
D02*
G37*
G36*
X029114Y023604D02*
X029042Y02359D01*
X028981Y023549D01*
X02894Y023488D01*
X028926Y023415D01*
X02894Y023343D01*
X028981Y023282D01*
X029042Y023241D01*
X029114Y023227D01*
X029186Y023241D01*
X029248Y023282D01*
X029288Y023343D01*
X029303Y023415D01*
X029288Y023488D01*
X029248Y023549D01*
X029186Y02359D01*
X029114Y023604D01*
D02*
G37*
G36*
X012815Y023545D02*
X012743Y023531D01*
X012682Y02349D01*
X012641Y023428D01*
X012626Y023356D01*
X012641Y023284D01*
X012682Y023223D01*
X012743Y023182D01*
X012815Y023168D01*
X012887Y023182D01*
X012948Y023223D01*
X012989Y023284D01*
X013004Y023356D01*
X012989Y023428D01*
X012948Y02349D01*
X012887Y023531D01*
X012815Y023545D01*
D02*
G37*
G36*
X013258Y023584D02*
X013186Y02357D01*
X013125Y023529D01*
X013084Y023468D01*
X013069Y023396D01*
X013084Y023323D01*
X013125Y023262D01*
X013186Y023221D01*
X013258Y023207D01*
X01333Y023221D01*
X013391Y023262D01*
X013432Y023323D01*
X013447Y023396D01*
X013432Y023468D01*
X013391Y023529D01*
X01333Y02357D01*
X013258Y023584D01*
D02*
G37*
G36*
X029577Y023781D02*
X029505Y023767D01*
X029443Y023726D01*
X029403Y023665D01*
X029388Y023593D01*
X029403Y02352D01*
X029443Y023459D01*
X029505Y023418D01*
X029577Y023404D01*
X029649Y023418D01*
X02971Y023459D01*
X029751Y02352D01*
X029765Y023593D01*
X029751Y023665D01*
X02971Y023726D01*
X029649Y023767D01*
X029577Y023781D01*
D02*
G37*
G36*
X017283Y02387D02*
X017211Y023855D01*
X01715Y023814D01*
X017109Y023753D01*
X017095Y023681D01*
X017109Y023609D01*
X01715Y023548D01*
X017211Y023507D01*
X017283Y023492D01*
X017356Y023507D01*
X017417Y023548D01*
X017458Y023609D01*
X017472Y023681D01*
X017458Y023753D01*
X017417Y023814D01*
X017356Y023855D01*
X017283Y02387D01*
D02*
G37*
G36*
X024114Y023742D02*
X024042Y023727D01*
X023981Y023687D01*
X02394Y023625D01*
X023926Y023553D01*
X02394Y023481D01*
X023981Y02342D01*
X024042Y023379D01*
X024114Y023365D01*
X024186Y023379D01*
X024248Y02342D01*
X024288Y023481D01*
X024303Y023553D01*
X024288Y023625D01*
X024248Y023687D01*
X024186Y023727D01*
X024114Y023742D01*
D02*
G37*
G36*
X021653Y023464D02*
X021483D01*
X021491Y023426D01*
X021541Y023352D01*
X021615Y023302D01*
X021653Y023294D01*
Y023464D01*
D02*
G37*
G36*
X021922D02*
X021753D01*
Y023294D01*
X021791Y023302D01*
X021865Y023352D01*
X021915Y023426D01*
X021922Y023464D01*
D02*
G37*
G36*
X02752Y023437D02*
X027448Y023422D01*
X027386Y023381D01*
X027345Y02332D01*
X027331Y023248D01*
X027345Y023176D01*
X027386Y023115D01*
X027413Y023097D01*
Y023037D01*
X027367Y023007D01*
X027318Y022932D01*
X02731Y022894D01*
X027749D01*
X027741Y022932D01*
X027692Y023007D01*
X027637Y023044D01*
X027632Y023099D01*
X027633Y023101D01*
X027653Y023115D01*
X027694Y023176D01*
X027708Y023248D01*
X027694Y02332D01*
X027653Y023381D01*
X027592Y023422D01*
X02752Y023437D01*
D02*
G37*
G36*
X010247Y023133D02*
Y022963D01*
X010416D01*
X010409Y023001D01*
X010359Y023076D01*
X010285Y023125D01*
X010247Y023133D01*
D02*
G37*
G36*
X025788Y022985D02*
Y022816D01*
X025958D01*
X02595Y022854D01*
X0259Y022928D01*
X025826Y022978D01*
X025788Y022985D01*
D02*
G37*
G36*
X026319Y023191D02*
X026247Y023176D01*
X026186Y023135D01*
X026145Y023074D01*
X02613Y023002D01*
X026145Y02293D01*
X026186Y022869D01*
X026247Y022828D01*
X026319Y022813D01*
X026391Y022828D01*
X026452Y022869D01*
X026493Y02293D01*
X026508Y023002D01*
X026493Y023074D01*
X026452Y023135D01*
X026391Y023176D01*
X026319Y023191D01*
D02*
G37*
G36*
X025688Y022985D02*
X02565Y022978D01*
X025576Y022928D01*
X025526Y022854D01*
X025519Y022816D01*
X025688D01*
Y022985D01*
D02*
G37*
G36*
X024615Y023231D02*
X024578Y023224D01*
X024503Y023174D01*
X024453Y0231D01*
X024446Y023062D01*
X024615D01*
Y023231D01*
D02*
G37*
G36*
X024715D02*
Y023062D01*
X024885D01*
X024877Y0231D01*
X024828Y023174D01*
X024753Y023224D01*
X024715Y023231D01*
D02*
G37*
G36*
X034753Y023212D02*
X034715Y023204D01*
X034641Y023154D01*
X034591Y02308D01*
X034584Y023042D01*
X034753D01*
Y023212D01*
D02*
G37*
G36*
X021653Y023192D02*
X021615Y023184D01*
X021541Y023135D01*
X021491Y02306D01*
X021483Y023022D01*
X021653D01*
Y023192D01*
D02*
G37*
G36*
X021753D02*
Y023022D01*
X021922D01*
X021915Y02306D01*
X021865Y023135D01*
X021791Y023184D01*
X021753Y023192D01*
D02*
G37*
G36*
X022263Y022326D02*
X022225Y022318D01*
X022151Y022269D01*
X022101Y022194D01*
X022094Y022156D01*
X022263D01*
Y022326D01*
D02*
G37*
G36*
X0131Y02184D02*
X01293D01*
X012938Y021802D01*
X012987Y021728D01*
X013062Y021678D01*
X0131Y02167D01*
Y02184D01*
D02*
G37*
G36*
X01396D02*
X01379D01*
Y02167D01*
X013828Y021678D01*
X013902Y021728D01*
X013952Y021802D01*
X01396Y02184D01*
D02*
G37*
G36*
X01369D02*
X013506D01*
X013495Y021828D01*
Y021644D01*
X013679D01*
X01369Y021656D01*
Y02184D01*
D02*
G37*
G36*
X020367Y0218D02*
X020198D01*
Y021631D01*
X020235Y021638D01*
X02031Y021688D01*
X02036Y021763D01*
X020367Y0218D01*
D02*
G37*
G36*
X013383Y02184D02*
X0132D01*
Y021656D01*
X013211Y021644D01*
X013395D01*
Y021828D01*
X013383Y02184D01*
D02*
G37*
G36*
X033219Y022224D02*
Y021743D01*
X0337D01*
X033689Y021832D01*
X033635Y021962D01*
X033549Y022073D01*
X033438Y022159D01*
X033308Y022212D01*
X033219Y022224D01*
D02*
G37*
G36*
X034753Y021958D02*
X034584D01*
X034591Y02192D01*
X034641Y021846D01*
X034715Y021796D01*
X034753Y021788D01*
Y021958D01*
D02*
G37*
G36*
X033119Y022224D02*
X03303Y022212D01*
X0329Y022159D01*
X032789Y022073D01*
X032704Y021962D01*
X03265Y021832D01*
X032638Y021743D01*
X033119D01*
Y022224D01*
D02*
G37*
G36*
X010416Y021879D02*
X010247D01*
Y02171D01*
X010285Y021717D01*
X010359Y021767D01*
X010409Y021841D01*
X010416Y021879D01*
D02*
G37*
G36*
X030374Y022236D02*
X030302Y022222D01*
X030241Y022181D01*
X0302Y022119D01*
X030185Y022047D01*
X0302Y021975D01*
X030241Y021914D01*
X030302Y021873D01*
X030374Y021859D01*
X030446Y021873D01*
X030461Y021883D01*
X030511Y021856D01*
Y021746D01*
X030461Y02172D01*
X030446Y021729D01*
X030374Y021744D01*
X030302Y021729D01*
X030241Y021688D01*
X0302Y021627D01*
X030185Y021555D01*
X0302Y021483D01*
X030241Y021422D01*
X030302Y021381D01*
X030374Y021366D01*
X030446Y021381D01*
X030461Y021391D01*
X030511Y021364D01*
Y021254D01*
X030461Y021227D01*
X030446Y021237D01*
X030374Y021252D01*
X030302Y021237D01*
X030241Y021196D01*
X0302Y021135D01*
X030185Y021063D01*
X0302Y020991D01*
X030241Y02093D01*
X030302Y020889D01*
X030374Y020874D01*
X030446Y020889D01*
X030507Y02093D01*
X030548Y020991D01*
X030563Y021063D01*
X030548Y021135D01*
X030538Y02115D01*
X030565Y0212D01*
X030813D01*
X030839Y02115D01*
X03083Y021135D01*
X030815Y021063D01*
X03083Y020991D01*
X030871Y02093D01*
X030932Y020889D01*
X031004Y020874D01*
X031076Y020889D01*
X031137Y02093D01*
X031178Y020991D01*
X031193Y021063D01*
X031178Y021135D01*
X031168Y02115D01*
X031195Y0212D01*
X031423D01*
X03145Y02115D01*
X03144Y021135D01*
X031426Y021063D01*
X03144Y020991D01*
X031481Y02093D01*
X031542Y020889D01*
X031614Y020874D01*
X031686Y020889D01*
X031748Y02093D01*
X031788Y020991D01*
X031803Y021063D01*
X031788Y021135D01*
X031748Y021196D01*
X031686Y021237D01*
X031614Y021252D01*
X031547Y021238D01*
X031533Y021241D01*
X031497Y02126D01*
Y022186D01*
X030511D01*
X030469Y022206D01*
X030446Y022222D01*
X030374Y022236D01*
D02*
G37*
G36*
X029754Y021744D02*
X029682Y021729D01*
X029621Y021688D01*
X02958Y021627D01*
X029565Y021555D01*
X02958Y021483D01*
X029621Y021422D01*
X029682Y021381D01*
X029754Y021366D01*
X029826Y021381D01*
X029887Y021422D01*
X029928Y021483D01*
X029943Y021555D01*
X029928Y021627D01*
X029887Y021688D01*
X029826Y021729D01*
X029754Y021744D01*
D02*
G37*
G36*
X013395Y021544D02*
X013225D01*
X013233Y021507D01*
X013283Y021432D01*
X013357Y021383D01*
X013395Y021375D01*
Y021544D01*
D02*
G37*
G36*
X0337Y021643D02*
X033219D01*
Y021162D01*
X033308Y021174D01*
X033438Y021227D01*
X033549Y021313D01*
X033635Y021424D01*
X033689Y021554D01*
X0337Y021643D01*
D02*
G37*
G36*
X026594Y021271D02*
X026522Y021257D01*
X026461Y021216D01*
X026425Y021162D01*
X026398Y021158D01*
X026371Y021162D01*
X026334Y021216D01*
X026273Y021257D01*
X026201Y021271D01*
X026129Y021257D01*
X026067Y021216D01*
X026027Y021155D01*
X026012Y021083D01*
X026027Y02101D01*
X026067Y020949D01*
X026122Y020913D01*
X026126Y020886D01*
X026122Y020859D01*
X026067Y020822D01*
X026027Y020761D01*
X026012Y020689D01*
X026027Y020617D01*
X026067Y020556D01*
X026122Y020519D01*
X026126Y020492D01*
X026122Y020465D01*
X026067Y020429D01*
X026027Y020367D01*
X026012Y020295D01*
X026027Y020223D01*
X026067Y020162D01*
X026129Y020121D01*
X026201Y020107D01*
X026273Y020121D01*
X026334Y020162D01*
X026371Y020216D01*
X026398Y02022D01*
X026425Y020216D01*
X026461Y020162D01*
X026513Y020127D01*
X026512Y020088D01*
X026508Y020075D01*
X026464Y020067D01*
X026403Y020026D01*
X026362Y019965D01*
X026348Y019892D01*
X026362Y01982D01*
X026403Y019759D01*
X026464Y019718D01*
X026536Y019704D01*
X026608Y019718D01*
X02667Y019759D01*
X026711Y01982D01*
X026725Y019892D01*
X026711Y019965D01*
X02667Y020026D01*
X026618Y02006D01*
X026619Y020099D01*
X026623Y020112D01*
X026667Y020121D01*
X026728Y020162D01*
X026769Y020223D01*
X026783Y020295D01*
X026769Y020367D01*
X026728Y020429D01*
X026673Y020465D01*
X02667Y020492D01*
X026673Y020519D01*
X026728Y020556D01*
X026769Y020617D01*
X026783Y020689D01*
X026769Y020761D01*
X026728Y020822D01*
X026673Y020859D01*
X02667Y020886D01*
X026673Y020913D01*
X026728Y020949D01*
X026769Y02101D01*
X026783Y021083D01*
X026769Y021155D01*
X026728Y021216D01*
X026667Y021257D01*
X026594Y021271D01*
D02*
G37*
G36*
X033119Y021643D02*
X032638D01*
X03265Y021554D01*
X032704Y021424D01*
X032789Y021313D01*
X0329Y021227D01*
X03303Y021174D01*
X033119Y021162D01*
Y021643D01*
D02*
G37*
G36*
X027491Y021716D02*
Y021546D01*
X02766D01*
X027653Y021584D01*
X027603Y021658D01*
X027529Y021708D01*
X027491Y021716D01*
D02*
G37*
G36*
X020098Y0218D02*
X019928D01*
X019936Y021763D01*
X019985Y021688D01*
X02006Y021638D01*
X020098Y021631D01*
Y0218D01*
D02*
G37*
G36*
X027391Y021716D02*
X027353Y021708D01*
X027279Y021658D01*
X027229Y021584D01*
X027221Y021546D01*
X027391D01*
Y021716D01*
D02*
G37*
G36*
X013664Y021544D02*
X013495D01*
Y021375D01*
X013533Y021383D01*
X013607Y021432D01*
X013657Y021507D01*
X013664Y021544D01*
D02*
G37*
G36*
X023327Y021882D02*
X023255Y021867D01*
X023193Y021826D01*
X023153Y021765D01*
X023138Y021693D01*
X023153Y021621D01*
X023193Y02156D01*
X023255Y021519D01*
X023327Y021504D01*
X023399Y021519D01*
X02346Y02156D01*
X023501Y021621D01*
X023515Y021693D01*
X023501Y021765D01*
X02346Y021826D01*
X023399Y021867D01*
X023327Y021882D01*
D02*
G37*
G36*
X01369Y022109D02*
X013652Y022102D01*
X013578Y022052D01*
X013528Y021978D01*
X013521Y02194D01*
X01369D01*
Y022109D01*
D02*
G37*
G36*
X01379D02*
Y02194D01*
X01396D01*
X013952Y021978D01*
X013902Y022052D01*
X013828Y022102D01*
X01379Y022109D01*
D02*
G37*
G36*
X0132D02*
Y02194D01*
X013369D01*
X013362Y021978D01*
X013312Y022052D01*
X013237Y022102D01*
X0132Y022109D01*
D02*
G37*
G36*
X029904Y022096D02*
X029735D01*
Y021926D01*
X029773Y021934D01*
X029847Y021983D01*
X029897Y022058D01*
X029904Y022096D01*
D02*
G37*
G36*
X0131Y022109D02*
X013062Y022102D01*
X012987Y022052D01*
X012938Y021978D01*
X01293Y02194D01*
X0131D01*
Y022109D01*
D02*
G37*
G36*
X023789Y022306D02*
X023751Y022299D01*
X023676Y022249D01*
X023627Y022174D01*
X023619Y022137D01*
X023789D01*
Y022306D01*
D02*
G37*
G36*
X023889D02*
Y022137D01*
X024058D01*
X024051Y022174D01*
X024001Y022249D01*
X023926Y022299D01*
X023889Y022306D01*
D02*
G37*
G36*
X027067Y022482D02*
X026995Y022468D01*
X026934Y022427D01*
X026893Y022365D01*
X026878Y022293D01*
X026893Y022221D01*
X026934Y02216D01*
X026995Y022119D01*
X027067Y022105D01*
X027139Y022119D01*
X0272Y02216D01*
X027241Y022221D01*
X027256Y022293D01*
X027241Y022365D01*
X0272Y022427D01*
X027139Y022468D01*
X027067Y022482D01*
D02*
G37*
G36*
X010247Y022149D02*
Y021979D01*
X010416D01*
X010409Y022017D01*
X010359Y022091D01*
X010285Y022141D01*
X010247Y022149D01*
D02*
G37*
G36*
X034753Y022227D02*
X034715Y02222D01*
X034641Y02217D01*
X034591Y022096D01*
X034584Y022058D01*
X034753D01*
Y022227D01*
D02*
G37*
G36*
X023789Y022037D02*
X023619D01*
X023627Y021999D01*
X023676Y021924D01*
X023751Y021875D01*
X023789Y021867D01*
Y022037D01*
D02*
G37*
G36*
X024058D02*
X023889D01*
Y021867D01*
X023926Y021875D01*
X024001Y021924D01*
X024051Y021999D01*
X024058Y022037D01*
D02*
G37*
G36*
X024577Y022236D02*
X024505Y022222D01*
X024443Y022181D01*
X024403Y022119D01*
X024388Y022047D01*
X024403Y021975D01*
X024443Y021914D01*
X024505Y021873D01*
X024577Y021859D01*
X024649Y021873D01*
X02471Y021914D01*
X024751Y021975D01*
X024765Y022047D01*
X024751Y022119D01*
X02471Y022181D01*
X024649Y022222D01*
X024577Y022236D01*
D02*
G37*
G36*
X012146Y022206D02*
X012073Y022192D01*
X012012Y022151D01*
X011971Y02209D01*
X011957Y022018D01*
X011971Y021946D01*
X012012Y021884D01*
X012073Y021843D01*
X012146Y021829D01*
X012218Y021843D01*
X012279Y021884D01*
X01232Y021946D01*
X012334Y022018D01*
X01232Y02209D01*
X012279Y022151D01*
X012218Y022192D01*
X012146Y022206D01*
D02*
G37*
G36*
X011407Y022206D02*
X011335Y022192D01*
X011274Y022151D01*
X011233Y02209D01*
X011219Y022018D01*
X011233Y021946D01*
X011274Y021884D01*
X011335Y021843D01*
X011407Y021829D01*
X01148Y021843D01*
X011541Y021884D01*
X011582Y021946D01*
X011596Y022018D01*
X011582Y02209D01*
X011541Y022151D01*
X01148Y022192D01*
X011407Y022206D01*
D02*
G37*
G36*
X020198Y02207D02*
Y0219D01*
X020367D01*
X02036Y021938D01*
X02031Y022013D01*
X020235Y022062D01*
X020198Y02207D01*
D02*
G37*
G36*
X029635Y022096D02*
X029466D01*
X029473Y022058D01*
X029523Y021983D01*
X029597Y021934D01*
X029635Y021926D01*
Y022096D01*
D02*
G37*
G36*
X020098Y02207D02*
X02006Y022062D01*
X019985Y022013D01*
X019936Y021938D01*
X019928Y0219D01*
X020098D01*
Y02207D01*
D02*
G37*
G36*
X022263Y022056D02*
X022094D01*
X022101Y022019D01*
X022151Y021944D01*
X022225Y021894D01*
X022263Y021887D01*
Y022056D01*
D02*
G37*
G36*
X022532D02*
X022363D01*
Y021887D01*
X022401Y021894D01*
X022475Y021944D01*
X022525Y022019D01*
X022532Y022056D01*
D02*
G37*
G36*
X015068Y025816D02*
X014899D01*
X014906Y025778D01*
X014956Y025704D01*
X01503Y025654D01*
X015068Y025647D01*
Y025816D01*
D02*
G37*
G36*
X015338D02*
X015168D01*
Y025647D01*
X015206Y025654D01*
X01528Y025704D01*
X01533Y025778D01*
X015338Y025816D01*
D02*
G37*
G36*
X014353D02*
X014184D01*
Y025647D01*
X014222Y025654D01*
X014296Y025704D01*
X014346Y025778D01*
X014353Y025816D01*
D02*
G37*
G36*
X013369D02*
X0132D01*
Y025647D01*
X013237Y025654D01*
X013312Y025704D01*
X013362Y025778D01*
X013369Y025816D01*
D02*
G37*
G36*
X014084D02*
X013914D01*
X013922Y025778D01*
X013972Y025704D01*
X014046Y025654D01*
X014084Y025647D01*
Y025816D01*
D02*
G37*
G36*
X034078D02*
X033908D01*
Y025647D01*
X033946Y025654D01*
X03402Y025704D01*
X03407Y025778D01*
X034078Y025816D01*
D02*
G37*
G36*
X034753D02*
X034584D01*
X034591Y025778D01*
X034641Y025704D01*
X034715Y025654D01*
X034753Y025647D01*
Y025816D01*
D02*
G37*
G36*
X033808D02*
X033639D01*
X033646Y025778D01*
X033696Y025704D01*
X03377Y025654D01*
X033808Y025647D01*
Y025816D01*
D02*
G37*
G36*
X015974D02*
X015804D01*
X015812Y025778D01*
X015861Y025704D01*
X015936Y025654D01*
X015974Y025647D01*
Y025816D01*
D02*
G37*
G36*
X016243D02*
X016074D01*
Y025647D01*
X016111Y025654D01*
X016186Y025704D01*
X016236Y025778D01*
X016243Y025816D01*
D02*
G37*
G36*
X023002Y025445D02*
X02293Y02543D01*
X022869Y025389D01*
X022828Y025328D01*
X022813Y025256D01*
X022828Y025184D01*
X022869Y025123D01*
X02293Y025082D01*
X023002Y025067D01*
X023074Y025082D01*
X023135Y025123D01*
X023176Y025184D01*
X023191Y025256D01*
X023176Y025328D01*
X023135Y025389D01*
X023074Y02543D01*
X023002Y025445D01*
D02*
G37*
G36*
X010416Y025816D02*
X010247D01*
Y025647D01*
X010285Y025654D01*
X010359Y025704D01*
X010409Y025778D01*
X010416Y025816D01*
D02*
G37*
G36*
X024656Y025356D02*
X024583Y025342D01*
X024522Y025301D01*
X024481Y02524D01*
X024467Y025167D01*
X024481Y025095D01*
X024522Y025034D01*
X024583Y024993D01*
X024656Y024979D01*
X024728Y024993D01*
X024789Y025034D01*
X02483Y025095D01*
X024844Y025167D01*
X02483Y02524D01*
X024789Y025301D01*
X024728Y025342D01*
X024656Y025356D01*
D02*
G37*
G36*
X010247Y025101D02*
Y024932D01*
X010416D01*
X010409Y02497D01*
X010359Y025044D01*
X010285Y025094D01*
X010247Y025101D01*
D02*
G37*
G36*
X034753Y025141D02*
X034715Y025133D01*
X034641Y025083D01*
X034591Y025009D01*
X034584Y024971D01*
X034753D01*
Y025141D01*
D02*
G37*
G36*
X012385Y025816D02*
X012215D01*
Y025647D01*
X012253Y025654D01*
X012328Y025704D01*
X012377Y025778D01*
X012385Y025816D01*
D02*
G37*
G36*
X0131D02*
X01293D01*
X012938Y025778D01*
X012987Y025704D01*
X013062Y025654D01*
X0131Y025647D01*
Y025816D01*
D02*
G37*
G36*
X012115D02*
X011946D01*
X011953Y025778D01*
X012003Y025704D01*
X012078Y025654D01*
X012115Y025647D01*
Y025816D01*
D02*
G37*
G36*
X011131D02*
X010962D01*
X010969Y025778D01*
X011019Y025704D01*
X011093Y025654D01*
X011131Y025647D01*
Y025816D01*
D02*
G37*
G36*
X011401D02*
X011231D01*
Y025647D01*
X011269Y025654D01*
X011343Y025704D01*
X011393Y025778D01*
X011401Y025816D01*
D02*
G37*
G36*
X022857D02*
X022688D01*
Y025647D01*
X022726Y025654D01*
X0228Y025704D01*
X02285Y025778D01*
X022857Y025816D01*
D02*
G37*
G36*
X023533D02*
X023363D01*
X023371Y025778D01*
X02342Y025704D01*
X023495Y025654D01*
X023533Y025647D01*
Y025816D01*
D02*
G37*
G36*
X022588D02*
X022418D01*
X022426Y025778D01*
X022476Y025704D01*
X02255Y025654D01*
X022588Y025647D01*
Y025816D01*
D02*
G37*
G36*
X021643D02*
X021473D01*
X021481Y025778D01*
X021531Y025704D01*
X021605Y025654D01*
X021643Y025647D01*
Y025816D01*
D02*
G37*
G36*
X021912D02*
X021743D01*
Y025647D01*
X021781Y025654D01*
X021855Y025704D01*
X021905Y025778D01*
X021912Y025816D01*
D02*
G37*
G36*
X032863D02*
X032694D01*
X032701Y025778D01*
X032751Y025704D01*
X032826Y025654D01*
X032863Y025647D01*
Y025816D01*
D02*
G37*
G36*
X033133D02*
X032963D01*
Y025647D01*
X033001Y025654D01*
X033076Y025704D01*
X033125Y025778D01*
X033133Y025816D01*
D02*
G37*
G36*
X032149D02*
X031979D01*
Y025647D01*
X032017Y025654D01*
X032091Y025704D01*
X032141Y025778D01*
X032149Y025816D01*
D02*
G37*
G36*
X023802D02*
X023633D01*
Y025647D01*
X02367Y025654D01*
X023745Y025704D01*
X023795Y025778D01*
X023802Y025816D01*
D02*
G37*
G36*
X031879D02*
X03171D01*
X031717Y025778D01*
X031767Y025704D01*
X031841Y025654D01*
X031879Y025647D01*
Y025816D01*
D02*
G37*
G36*
X018133D02*
X017963D01*
Y025647D01*
X018001Y025654D01*
X018076Y025704D01*
X018125Y025778D01*
X018133Y025816D01*
D02*
G37*
G36*
X018808D02*
X018639D01*
X018646Y025778D01*
X018696Y025704D01*
X01877Y025654D01*
X018808Y025647D01*
Y025816D01*
D02*
G37*
G36*
X017863D02*
X017694D01*
X017701Y025778D01*
X017751Y025704D01*
X017826Y025654D01*
X017863Y025647D01*
Y025816D01*
D02*
G37*
G36*
X016938D02*
X016769D01*
X016776Y025778D01*
X016826Y025704D01*
X0169Y025654D01*
X016938Y025647D01*
Y025816D01*
D02*
G37*
G36*
X017208D02*
X017038D01*
Y025647D01*
X017076Y025654D01*
X01715Y025704D01*
X0172Y025778D01*
X017208Y025816D01*
D02*
G37*
G36*
X020678D02*
X020509D01*
X020516Y025778D01*
X020566Y025704D01*
X020641Y025654D01*
X020678Y025647D01*
Y025816D01*
D02*
G37*
G36*
X020948D02*
X020778D01*
Y025647D01*
X020816Y025654D01*
X020891Y025704D01*
X02094Y025778D01*
X020948Y025816D01*
D02*
G37*
G36*
X020023D02*
X019853D01*
Y025647D01*
X019891Y025654D01*
X019965Y025704D01*
X020015Y025778D01*
X020023Y025816D01*
D02*
G37*
G36*
X019078D02*
X018908D01*
Y025647D01*
X018946Y025654D01*
X01902Y025704D01*
X01907Y025778D01*
X019078Y025816D01*
D02*
G37*
G36*
X019753D02*
X019584D01*
X019591Y025778D01*
X019641Y025704D01*
X019715Y025654D01*
X019753Y025647D01*
Y025816D01*
D02*
G37*
G36*
X02568Y024934D02*
Y024765D01*
X025849D01*
X025842Y024802D01*
X025792Y024877D01*
X025718Y024927D01*
X02568Y024934D01*
D02*
G37*
G36*
X022658Y02396D02*
Y02379D01*
X022828D01*
X02282Y023828D01*
X02277Y023902D01*
X022696Y023952D01*
X022658Y02396D01*
D02*
G37*
G36*
X018898Y024293D02*
X018825Y024279D01*
X018764Y024238D01*
X018723Y024177D01*
X018709Y024104D01*
X018723Y024032D01*
X018764Y023971D01*
X018825Y02393D01*
X018898Y023916D01*
X01897Y02393D01*
X019019Y023963D01*
X01906Y023953D01*
X019074Y023945D01*
X019078Y023924D01*
X019119Y023863D01*
X01918Y023822D01*
X019252Y023807D01*
X019324Y023822D01*
X019385Y023863D01*
X019426Y023924D01*
X019441Y023996D01*
X019426Y024068D01*
X019385Y024129D01*
X019324Y02417D01*
X019252Y024185D01*
X01918Y02417D01*
X019131Y024137D01*
X019089Y024147D01*
X019076Y024156D01*
X019072Y024177D01*
X019031Y024238D01*
X01897Y024279D01*
X018898Y024293D01*
D02*
G37*
G36*
X022558Y02396D02*
X02252Y023952D01*
X022446Y023902D01*
X022396Y023828D01*
X022389Y02379D01*
X022558D01*
Y02396D01*
D02*
G37*
G36*
X010416Y023848D02*
X010247D01*
Y023678D01*
X010285Y023686D01*
X010359Y023735D01*
X010409Y02381D01*
X010416Y023848D01*
D02*
G37*
G36*
X034753Y023926D02*
X034584D01*
X034591Y023889D01*
X034641Y023814D01*
X034715Y023764D01*
X034753Y023757D01*
Y023926D01*
D02*
G37*
G36*
X0337Y024359D02*
X033219D01*
Y023878D01*
X033308Y02389D01*
X033438Y023944D01*
X033549Y024029D01*
X033635Y024141D01*
X033689Y02427D01*
X0337Y024359D01*
D02*
G37*
G36*
X017766Y024283D02*
X017694Y024269D01*
X017632Y024228D01*
X017591Y024167D01*
X017577Y024094D01*
X017591Y024022D01*
X017632Y023961D01*
X017694Y02392D01*
X017766Y023906D01*
X017838Y02392D01*
X017899Y023961D01*
X01794Y024022D01*
X017954Y024094D01*
X01794Y024167D01*
X017899Y024228D01*
X017838Y024269D01*
X017766Y024283D01*
D02*
G37*
G36*
X033119Y024359D02*
X032638D01*
X03265Y02427D01*
X032704Y024141D01*
X032789Y024029D01*
X0329Y023944D01*
X03303Y02389D01*
X033119Y023878D01*
Y024359D01*
D02*
G37*
G36*
X021653Y024005D02*
X021483D01*
X021491Y023967D01*
X021541Y023893D01*
X021615Y023843D01*
X021653Y023836D01*
Y024005D01*
D02*
G37*
G36*
X021922D02*
X021753D01*
Y023836D01*
X021791Y023843D01*
X021865Y023893D01*
X021915Y023967D01*
X021922Y024005D01*
D02*
G37*
G36*
X014035Y024021D02*
X013943Y024003D01*
X013864Y023951D01*
X013812Y023872D01*
X013794Y02378D01*
X013812Y023687D01*
X013864Y023609D01*
X013943Y023556D01*
X014035Y023538D01*
X014128Y023556D01*
X014206Y023609D01*
X014259Y023687D01*
X014277Y02378D01*
X014259Y023872D01*
X014206Y023951D01*
X014128Y024003D01*
X014035Y024021D01*
D02*
G37*
G36*
X022165Y023714D02*
X022127Y023706D01*
X022052Y023656D01*
X022003Y023582D01*
X021995Y023544D01*
X022165D01*
Y023714D01*
D02*
G37*
G36*
X012303Y024021D02*
X012211Y024003D01*
X012132Y023951D01*
X01208Y023872D01*
X012061Y02378D01*
X01208Y023687D01*
X012132Y023609D01*
X012211Y023556D01*
X012303Y023538D01*
X012396Y023556D01*
X012474Y023609D01*
X012527Y023687D01*
X012545Y02378D01*
X012527Y023872D01*
X012474Y023951D01*
X012396Y024003D01*
X012303Y024021D01*
D02*
G37*
G36*
X022265Y023714D02*
Y023544D01*
X02247D01*
X022483Y023553D01*
X02252Y023528D01*
X022558Y023521D01*
Y02369D01*
X022353D01*
X02234Y023681D01*
X022302Y023706D01*
X022265Y023714D01*
D02*
G37*
G36*
X022828Y02369D02*
X022658D01*
Y023521D01*
X022696Y023528D01*
X02277Y023578D01*
X02282Y023652D01*
X022828Y02369D01*
D02*
G37*
G36*
X012894Y024037D02*
X012822Y024023D01*
X01276Y023982D01*
X012719Y023921D01*
X012705Y023848D01*
X012719Y023776D01*
X01276Y023715D01*
X012822Y023674D01*
X012894Y02366D01*
X012966Y023674D01*
X013027Y023715D01*
X013068Y023776D01*
X013082Y023848D01*
X013068Y023921D01*
X013027Y023982D01*
X012966Y024023D01*
X012894Y024037D01*
D02*
G37*
G36*
X013356D02*
X013284Y024023D01*
X013223Y023982D01*
X013182Y023921D01*
X013168Y023848D01*
X013182Y023776D01*
X013223Y023715D01*
X013284Y023674D01*
X013356Y02366D01*
X013428Y023674D01*
X01349Y023715D01*
X013531Y023776D01*
X013545Y023848D01*
X013531Y023921D01*
X01349Y023982D01*
X013428Y024023D01*
X013356Y024037D01*
D02*
G37*
G36*
X024754Y023968D02*
X024682Y023954D01*
X024621Y023913D01*
X02458Y023852D01*
X024565Y02378D01*
X02458Y023707D01*
X024621Y023646D01*
X024682Y023605D01*
X024754Y023591D01*
X024826Y023605D01*
X024887Y023646D01*
X024928Y023707D01*
X024943Y02378D01*
X024928Y023852D01*
X024887Y023913D01*
X024826Y023954D01*
X024754Y023968D01*
D02*
G37*
G36*
X021653Y023733D02*
X021615Y023726D01*
X021541Y023676D01*
X021491Y023602D01*
X021483Y023564D01*
X021653D01*
Y023733D01*
D02*
G37*
G36*
X021753D02*
Y023564D01*
X021922D01*
X021915Y023602D01*
X021865Y023676D01*
X021791Y023726D01*
X021753Y023733D01*
D02*
G37*
G36*
X033119Y024941D02*
X03303Y024929D01*
X0329Y024875D01*
X032789Y02479D01*
X032704Y024678D01*
X03265Y024549D01*
X032638Y024459D01*
X033119D01*
Y024941D01*
D02*
G37*
G36*
X033219D02*
Y024459D01*
X0337D01*
X033689Y024549D01*
X033635Y024678D01*
X033549Y02479D01*
X033438Y024875D01*
X033308Y024929D01*
X033219Y024941D01*
D02*
G37*
G36*
X018642Y024785D02*
X01857Y024771D01*
X018508Y02473D01*
X018467Y024669D01*
X018453Y024596D01*
X018467Y024524D01*
X018508Y024463D01*
X01857Y024422D01*
X018642Y024408D01*
X018714Y024422D01*
X018775Y024463D01*
X018816Y024524D01*
X01883Y024596D01*
X018816Y024669D01*
X018775Y02473D01*
X018714Y024771D01*
X018642Y024785D01*
D02*
G37*
G36*
X028593Y025385D02*
X02852Y025371D01*
X028459Y02533D01*
X028418Y025269D01*
X028404Y025197D01*
X028418Y025125D01*
X028459Y025063D01*
X028465Y025059D01*
Y025009D01*
X028459Y025005D01*
X028418Y024944D01*
X028404Y024872D01*
X028418Y0248D01*
X028458Y02474D01*
X028465Y024727D01*
Y024692D01*
X028458Y024679D01*
X028418Y024619D01*
X028404Y024547D01*
X028418Y024475D01*
X028459Y024414D01*
X02852Y024373D01*
X028593Y024359D01*
X028665Y024373D01*
X028726Y024414D01*
X028767Y024475D01*
X028781Y024547D01*
X028767Y024619D01*
X028727Y024679D01*
X02872Y024692D01*
Y024727D01*
X028727Y02474D01*
X028767Y0248D01*
X028781Y024872D01*
X028767Y024944D01*
X028726Y025005D01*
X02872Y025009D01*
Y025059D01*
X028726Y025063D01*
X028767Y025125D01*
X028781Y025197D01*
X028767Y025269D01*
X028726Y02533D01*
X028665Y025371D01*
X028593Y025385D01*
D02*
G37*
G36*
X029035D02*
X028963Y025371D01*
X028902Y02533D01*
X028861Y025269D01*
X028847Y025197D01*
X028861Y025125D01*
X028901Y025065D01*
X028908Y025052D01*
Y025017D01*
X028901Y025004D01*
X028861Y024944D01*
X028847Y024872D01*
X028861Y0248D01*
X028902Y024739D01*
X028908Y024735D01*
Y024685D01*
X028902Y024681D01*
X028861Y024619D01*
X028847Y024547D01*
X028861Y024475D01*
X028902Y024414D01*
X028963Y024373D01*
X029035Y024359D01*
X029108Y024373D01*
X029169Y024414D01*
X02921Y024475D01*
X029224Y024547D01*
X02921Y024619D01*
X029169Y024681D01*
X029163Y024685D01*
Y024735D01*
X029169Y024739D01*
X02921Y0248D01*
X029224Y024872D01*
X02921Y024944D01*
X02917Y025004D01*
X029163Y025017D01*
Y025052D01*
X02917Y025065D01*
X02921Y025125D01*
X029224Y025197D01*
X02921Y025269D01*
X029169Y02533D01*
X029108Y025371D01*
X029035Y025385D01*
D02*
G37*
G36*
X024094Y0251D02*
X024022Y025086D01*
X023961Y025045D01*
X02392Y024984D01*
X023906Y024911D01*
X02392Y024839D01*
X023961Y024778D01*
X024022Y024737D01*
X024094Y024723D01*
X024167Y024737D01*
X024228Y024778D01*
X024269Y024839D01*
X024283Y024911D01*
X024269Y024984D01*
X024228Y025045D01*
X024167Y025086D01*
X024094Y0251D01*
D02*
G37*
G36*
X02558Y024934D02*
X025542Y024927D01*
X025468Y024877D01*
X025418Y024802D01*
X02541Y024765D01*
X02558D01*
Y024934D01*
D02*
G37*
G36*
X034753Y024871D02*
X034584D01*
X034591Y024833D01*
X034641Y024759D01*
X034715Y024709D01*
X034753Y024702D01*
Y024871D01*
D02*
G37*
G36*
X010416Y024832D02*
X010247D01*
Y024662D01*
X010285Y02467D01*
X010359Y02472D01*
X010409Y024794D01*
X010416Y024832D01*
D02*
G37*
G36*
X022185Y025051D02*
X022113Y025036D01*
X022052Y024996D01*
X022011Y024934D01*
X021996Y024862D01*
X022011Y02479D01*
X022052Y024729D01*
X022113Y024688D01*
X022185Y024674D01*
X022257Y024688D01*
X022318Y024729D01*
X022359Y02479D01*
X022374Y024862D01*
X022359Y024934D01*
X022318Y024996D01*
X022257Y025036D01*
X022185Y025051D01*
D02*
G37*
G36*
X012618Y024441D02*
X012546Y024426D01*
X012485Y024385D01*
X012444Y024324D01*
X012429Y024252D01*
X012444Y02418D01*
X012485Y024119D01*
X012546Y024078D01*
X012618Y024063D01*
X01269Y024078D01*
X012751Y024119D01*
X012792Y02418D01*
X012807Y024252D01*
X012792Y024324D01*
X012751Y024385D01*
X01269Y024426D01*
X012618Y024441D01*
D02*
G37*
G36*
X021653Y024275D02*
X021615Y024267D01*
X021541Y024217D01*
X021491Y024143D01*
X021483Y024105D01*
X021653D01*
Y024275D01*
D02*
G37*
G36*
X034753Y024196D02*
X034715Y024188D01*
X034641Y024139D01*
X034591Y024064D01*
X034584Y024026D01*
X034753D01*
Y024196D01*
D02*
G37*
G36*
X031497Y024903D02*
X030511D01*
Y023916D01*
X031497D01*
Y024903D01*
D02*
G37*
G36*
X010247Y024117D02*
Y023948D01*
X010416D01*
X010409Y023985D01*
X010359Y02406D01*
X010285Y02411D01*
X010247Y024117D01*
D02*
G37*
G36*
X027677Y025385D02*
X027605Y025371D01*
X027544Y02533D01*
X027503Y025269D01*
X027489Y025197D01*
X027503Y025125D01*
X027543Y025065D01*
X02755Y025052D01*
Y025017D01*
X027543Y025004D01*
X027503Y024944D01*
X027489Y024872D01*
X027503Y0248D01*
X027544Y024739D01*
X027555Y024731D01*
Y024681D01*
X027554Y024681D01*
X027513Y024619D01*
X027498Y024547D01*
X027513Y024475D01*
X027554Y024414D01*
X027615Y024373D01*
X027687Y024359D01*
X027759Y024373D01*
X02782Y024414D01*
X027861Y024475D01*
X027876Y024547D01*
X027861Y024619D01*
X02782Y024681D01*
X027809Y024688D01*
Y024738D01*
X027811Y024739D01*
X027851Y0248D01*
X027866Y024872D01*
X027851Y024944D01*
X027812Y025004D01*
X027805Y025017D01*
Y025052D01*
X027812Y025065D01*
X027851Y025125D01*
X027866Y025197D01*
X027851Y025269D01*
X027811Y02533D01*
X027749Y025371D01*
X027677Y025385D01*
D02*
G37*
G36*
X02812D02*
X028048Y025371D01*
X027987Y02533D01*
X027946Y025269D01*
X027931Y025197D01*
X027946Y025125D01*
X027987Y025063D01*
X027993Y025059D01*
Y025009D01*
X027987Y025005D01*
X027946Y024944D01*
X027931Y024872D01*
X027946Y0248D01*
X027987Y024739D01*
X027993Y024735D01*
Y024685D01*
X027987Y024681D01*
X027946Y024619D01*
X027931Y024547D01*
X027946Y024475D01*
X027987Y024414D01*
X028048Y024373D01*
X02812Y024359D01*
X028192Y024373D01*
X028253Y024414D01*
X028294Y024475D01*
X028309Y024547D01*
X028294Y024619D01*
X028253Y024681D01*
X028247Y024685D01*
Y024735D01*
X028253Y024739D01*
X028294Y0248D01*
X028309Y024872D01*
X028294Y024944D01*
X028253Y025005D01*
X028247Y025009D01*
Y025059D01*
X028253Y025063D01*
X028294Y025125D01*
X028309Y025197D01*
X028294Y025269D01*
X028253Y02533D01*
X028192Y025371D01*
X02812Y025385D01*
D02*
G37*
G36*
X019951Y024588D02*
X019879Y024574D01*
X019817Y024533D01*
X019777Y024472D01*
X019762Y0244D01*
X019777Y024327D01*
X019817Y024266D01*
X019879Y024225D01*
X019951Y024211D01*
X020023Y024225D01*
X020084Y024266D01*
X020125Y024327D01*
X020139Y0244D01*
X020125Y024472D01*
X020084Y024533D01*
X020023Y024574D01*
X019951Y024588D01*
D02*
G37*
G36*
X021753Y024275D02*
Y024105D01*
X021922D01*
X021915Y024143D01*
X021865Y024217D01*
X021791Y024267D01*
X021753Y024275D01*
D02*
G37*
G36*
X025849Y024665D02*
X02541D01*
X025418Y024627D01*
X025468Y024552D01*
X025496Y024534D01*
Y024473D01*
X025467Y024454D01*
X025426Y024393D01*
X025412Y024321D01*
X025426Y024249D01*
X025467Y024187D01*
X025528Y024147D01*
X0256Y024132D01*
X025673Y024147D01*
X025734Y024187D01*
X025775Y024249D01*
X025789Y024321D01*
X025775Y024393D01*
X025734Y024454D01*
X025729Y024458D01*
X025735Y024514D01*
X025792Y024552D01*
X025842Y024627D01*
X025849Y024665D01*
D02*
G37*
G36*
X034753Y017306D02*
X034715Y017299D01*
X034641Y017249D01*
X034591Y017174D01*
X034584Y017137D01*
X034753D01*
Y017306D01*
D02*
G37*
G36*
X021201Y01758D02*
X021129Y017566D01*
X021067Y017525D01*
X021027Y017464D01*
X021012Y017392D01*
X021027Y01732D01*
X021067Y017258D01*
X021129Y017217D01*
X021201Y017203D01*
X021273Y017217D01*
X021334Y017258D01*
X021375Y01732D01*
X021389Y017392D01*
X021375Y017464D01*
X021334Y017525D01*
X021273Y017566D01*
X021201Y01758D01*
D02*
G37*
G36*
X022404Y017253D02*
X022235D01*
Y017084D01*
X022273Y017091D01*
X022347Y017141D01*
X022397Y017215D01*
X022404Y017253D01*
D02*
G37*
G36*
X01492Y017227D02*
X014883Y01722D01*
X014808Y01717D01*
X014759Y017096D01*
X014757Y017087D01*
X014704Y017077D01*
X0147Y017082D01*
X014639Y017123D01*
X014567Y017137D01*
X014495Y017123D01*
X014434Y017082D01*
X014393Y017021D01*
X014378Y016949D01*
X014393Y016877D01*
X014434Y016815D01*
X014495Y016775D01*
X014567Y01676D01*
X014639Y016775D01*
X0147Y016815D01*
X014734Y016866D01*
X014773Y016873D01*
X014791Y016871D01*
X014808Y016846D01*
X014883Y016796D01*
X01492Y016788D01*
Y017008D01*
Y017227D01*
D02*
G37*
G36*
X022135Y017253D02*
X021966D01*
X021973Y017215D01*
X022023Y017141D01*
X022097Y017091D01*
X022135Y017084D01*
Y017253D01*
D02*
G37*
G36*
X022235Y017523D02*
Y017353D01*
X022404D01*
X022397Y017391D01*
X022347Y017465D01*
X022273Y017515D01*
X022235Y017523D01*
D02*
G37*
G36*
X025737Y017568D02*
X025568D01*
X025575Y01753D01*
X025625Y017456D01*
X0257Y017406D01*
X025737Y017399D01*
Y017568D01*
D02*
G37*
G36*
X022135Y017523D02*
X022097Y017515D01*
X022023Y017465D01*
X021973Y017391D01*
X021966Y017353D01*
X022135D01*
Y017523D01*
D02*
G37*
G36*
X018366Y01762D02*
X018294Y017605D01*
X018233Y017564D01*
X018192Y017503D01*
X018178Y017431D01*
X018192Y017359D01*
X018233Y017298D01*
X018294Y017257D01*
X018366Y017242D01*
X018438Y017257D01*
X0185Y017298D01*
X01854Y017359D01*
X018555Y017431D01*
X01854Y017503D01*
X0185Y017564D01*
X018438Y017605D01*
X018366Y01762D01*
D02*
G37*
G36*
X019459Y017649D02*
X019386Y017635D01*
X019325Y017594D01*
X019284Y017533D01*
X01927Y017461D01*
X019284Y017388D01*
X019325Y017327D01*
X019386Y017286D01*
X019459Y017272D01*
X019531Y017286D01*
X019592Y017327D01*
X019633Y017388D01*
X019647Y017461D01*
X019633Y017533D01*
X019592Y017594D01*
X019531Y017635D01*
X019459Y017649D01*
D02*
G37*
G36*
X034753Y017037D02*
X034584D01*
X034591Y016999D01*
X034641Y016924D01*
X034715Y016875D01*
X034753Y016867D01*
Y017037D01*
D02*
G37*
G36*
X019892Y017669D02*
X01982Y017655D01*
X019758Y017614D01*
X019717Y017552D01*
X019703Y01748D01*
X019717Y017408D01*
X019758Y017347D01*
X01982Y017306D01*
X01983Y017304D01*
Y017253D01*
X01977Y017241D01*
X019709Y0172D01*
X019668Y017139D01*
X019654Y017067D01*
X019668Y016995D01*
X019709Y016934D01*
X01977Y016893D01*
X019843Y016878D01*
X019915Y016893D01*
X019976Y016934D01*
X020017Y016995D01*
X020031Y017067D01*
X020017Y017139D01*
X019976Y0172D01*
X019915Y017241D01*
X019904Y017243D01*
Y017294D01*
X019964Y017306D01*
X020025Y017347D01*
X020066Y017408D01*
X02008Y01748D01*
X020066Y017552D01*
X020025Y017614D01*
X019964Y017655D01*
X019892Y017669D01*
D02*
G37*
G36*
X012972Y017137D02*
X0129Y017123D01*
X012839Y017082D01*
X012798Y017021D01*
X012784Y016949D01*
X012798Y016877D01*
X012768Y016832D01*
X012717Y016842D01*
X012644Y016828D01*
X012583Y016787D01*
X012542Y016726D01*
X012528Y016654D01*
X012542Y016581D01*
X012583Y01652D01*
X012644Y016479D01*
X012717Y016465D01*
X012789Y016479D01*
X01285Y01652D01*
X012891Y016581D01*
X012905Y016654D01*
X012891Y016726D01*
X012921Y01677D01*
X012972Y01676D01*
X013045Y016775D01*
X013106Y016815D01*
X013147Y016877D01*
X013161Y016949D01*
X013147Y017021D01*
X013106Y017082D01*
X013045Y017123D01*
X012972Y017137D01*
D02*
G37*
G36*
X023654Y016958D02*
X023485D01*
Y016788D01*
X023523Y016796D01*
X023597Y016846D01*
X023647Y01692D01*
X023654Y016958D01*
D02*
G37*
G36*
X019055Y017344D02*
X018983Y01733D01*
X018922Y017289D01*
X018881Y017228D01*
X018866Y017156D01*
X018881Y017083D01*
X018922Y017022D01*
X018945Y017007D01*
X018943Y016948D01*
X018893Y016914D01*
X018843Y01684D01*
X018836Y016802D01*
X019275D01*
X019267Y01684D01*
X019217Y016914D01*
X019167Y016948D01*
X019165Y017007D01*
X019188Y017022D01*
X019229Y017083D01*
X019244Y017156D01*
X019229Y017228D01*
X019188Y017289D01*
X019127Y01733D01*
X019055Y017344D01*
D02*
G37*
G36*
X023385Y017227D02*
X023347Y01722D01*
X023273Y01717D01*
X023223Y017096D01*
X023216Y017058D01*
X023385D01*
Y017227D01*
D02*
G37*
G36*
X023485D02*
Y017058D01*
X023654D01*
X023647Y017096D01*
X023597Y01717D01*
X023523Y01722D01*
X023485Y017227D01*
D02*
G37*
G36*
X01502D02*
Y017058D01*
X01519D01*
X015182Y017096D01*
X015133Y01717D01*
X015058Y01722D01*
X01502Y017227D01*
D02*
G37*
G36*
X022776Y017403D02*
X022703Y017389D01*
X022642Y017348D01*
X022601Y017287D01*
X022587Y017215D01*
X022601Y017142D01*
X022642Y017081D01*
X022703Y01704D01*
X022776Y017026D01*
X022848Y01704D01*
X022909Y017081D01*
X02295Y017142D01*
X022964Y017215D01*
X02295Y017287D01*
X022909Y017348D01*
X022848Y017389D01*
X022776Y017403D01*
D02*
G37*
G36*
X010247Y017227D02*
Y017058D01*
X010416D01*
X010409Y017096D01*
X010359Y01717D01*
X010285Y01722D01*
X010247Y017227D01*
D02*
G37*
G36*
Y018212D02*
Y018042D01*
X010416D01*
X010409Y01808D01*
X010359Y018154D01*
X010285Y018204D01*
X010247Y018212D01*
D02*
G37*
G36*
X034753Y01829D02*
X034715Y018283D01*
X034641Y018233D01*
X034591Y018159D01*
X034584Y018121D01*
X034753D01*
Y01829D01*
D02*
G37*
G36*
X02751Y018378D02*
X027438Y018363D01*
X027376Y018322D01*
X027336Y018261D01*
X027321Y018189D01*
X027336Y018117D01*
X027376Y018056D01*
X027438Y018015D01*
X02751Y018D01*
X027582Y018015D01*
X027643Y018056D01*
X027684Y018117D01*
X027698Y018189D01*
X027684Y018261D01*
X027643Y018322D01*
X027582Y018363D01*
X02751Y018378D01*
D02*
G37*
G36*
X017303Y018358D02*
X017231Y018344D01*
X01717Y018303D01*
X017129Y018241D01*
X017115Y018169D01*
X017129Y018097D01*
X01717Y018036D01*
X017231Y017995D01*
X017303Y017981D01*
X017375Y017995D01*
X017437Y018036D01*
X017477Y018097D01*
X017492Y018169D01*
X017477Y018241D01*
X017437Y018303D01*
X017375Y018344D01*
X017303Y018358D01*
D02*
G37*
G36*
X03Y018102D02*
X029928Y018088D01*
X029867Y018047D01*
X02983Y017992D01*
X029803Y017989D01*
X029776Y017992D01*
X02974Y018047D01*
X029678Y018088D01*
X029606Y018102D01*
X029534Y018088D01*
X029473Y018047D01*
X029437Y017992D01*
X029409Y017989D01*
X029382Y017992D01*
X029346Y018047D01*
X029285Y018088D01*
X029213Y018102D01*
X02914Y018088D01*
X029079Y018047D01*
X029038Y017986D01*
X029024Y017913D01*
X029038Y017841D01*
X029079Y01778D01*
X02914Y017739D01*
X029213Y017725D01*
X029285Y017739D01*
X029346Y01778D01*
X029382Y017835D01*
X029409Y017838D01*
X029437Y017835D01*
X029473Y01778D01*
X029534Y017739D01*
X029606Y017725D01*
X029678Y017739D01*
X02974Y01778D01*
X029776Y017835D01*
X029803Y017838D01*
X02983Y017835D01*
X029867Y01778D01*
X029928Y017739D01*
X03Y017725D01*
X030072Y017739D01*
X030133Y01778D01*
X030174Y017841D01*
X030189Y017913D01*
X030174Y017986D01*
X030133Y018047D01*
X030072Y018088D01*
X03Y018102D01*
D02*
G37*
G36*
X033661Y019462D02*
X033515Y019443D01*
X033379Y019387D01*
X033262Y019297D01*
X033172Y01918D01*
X033116Y019044D01*
X033097Y018898D01*
X033116Y018751D01*
X033172Y018615D01*
X033262Y018498D01*
X033379Y018408D01*
X033515Y018352D01*
X033661Y018333D01*
X033808Y018352D01*
X033944Y018408D01*
X034061Y018498D01*
X034151Y018615D01*
X034207Y018751D01*
X034226Y018898D01*
X034207Y019044D01*
X034151Y01918D01*
X034061Y019297D01*
X033944Y019387D01*
X033808Y019443D01*
X033661Y019462D01*
D02*
G37*
G36*
X018842Y018503D02*
X018672D01*
Y018334D01*
X01871Y018341D01*
X018784Y018391D01*
X018834Y018465D01*
X018842Y018503D01*
D02*
G37*
G36*
X026507Y018399D02*
Y018229D01*
X026676D01*
X026669Y018267D01*
X026619Y018341D01*
X026544Y018391D01*
X026507Y018399D01*
D02*
G37*
G36*
X014774Y019352D02*
X014701Y019338D01*
X01464Y019297D01*
X014599Y019236D01*
X014585Y019163D01*
X014599Y019091D01*
X01464Y01903D01*
X014673Y019008D01*
Y018948D01*
X01465Y018933D01*
X014609Y018872D01*
X014595Y018799D01*
X014609Y018727D01*
X01465Y018666D01*
X014712Y018625D01*
X014742Y018619D01*
X014748Y018584D01*
X014747Y018567D01*
X014689Y018529D01*
X014649Y018468D01*
X014634Y018396D01*
X014649Y018323D01*
X014689Y018262D01*
X014751Y018221D01*
X014823Y018207D01*
X014895Y018221D01*
X014956Y018262D01*
X014997Y018323D01*
X015011Y018396D01*
X014997Y018468D01*
X014956Y018529D01*
X014895Y01857D01*
X014865Y018576D01*
X014858Y018612D01*
X01486Y018628D01*
X014917Y018666D01*
X014958Y018727D01*
X014972Y018799D01*
X014958Y018872D01*
X014917Y018933D01*
X014884Y018955D01*
Y019015D01*
X014907Y01903D01*
X014948Y019091D01*
X014962Y019163D01*
X014948Y019236D01*
X014907Y019297D01*
X014846Y019338D01*
X014774Y019352D01*
D02*
G37*
G36*
X026024Y018515D02*
X025951Y018501D01*
X02589Y01846D01*
X025849Y018399D01*
X025835Y018327D01*
X025849Y018255D01*
X02589Y018193D01*
X025951Y018153D01*
X026024Y018138D01*
X026096Y018153D01*
X026157Y018193D01*
X026189Y018241D01*
X026216Y018229D01*
X026407D01*
Y018399D01*
X026369Y018391D01*
X026294Y018341D01*
X026254Y018281D01*
X026207Y0183D01*
X026212Y018327D01*
X026198Y018399D01*
X026157Y01846D01*
X026096Y018501D01*
X026024Y018515D01*
D02*
G37*
G36*
X025837Y017838D02*
Y017668D01*
X026007D01*
X025999Y017706D01*
X02595Y01778D01*
X025875Y01783D01*
X025837Y017838D01*
D02*
G37*
G36*
X010416Y017942D02*
X010247D01*
Y017773D01*
X010285Y01778D01*
X010359Y01783D01*
X010409Y017904D01*
X010416Y017942D01*
D02*
G37*
G36*
X025737Y017838D02*
X0257Y01783D01*
X025625Y01778D01*
X025575Y017706D01*
X025568Y017668D01*
X025737D01*
Y017838D01*
D02*
G37*
G36*
X026007Y017568D02*
X025837D01*
Y017399D01*
X025875Y017406D01*
X02595Y017456D01*
X025999Y01753D01*
X026007Y017568D01*
D02*
G37*
G36*
X024567Y017836D02*
X024495Y017822D01*
X024434Y017781D01*
X024393Y01772D01*
X024378Y017648D01*
X024393Y017575D01*
X024434Y017514D01*
X024495Y017473D01*
X024567Y017459D01*
X024639Y017473D01*
X0247Y017514D01*
X024741Y017575D01*
X024756Y017648D01*
X024741Y01772D01*
X0247Y017781D01*
X024639Y017822D01*
X024567Y017836D01*
D02*
G37*
G36*
X026407Y018129D02*
X026237D01*
X026245Y018091D01*
X026294Y018017D01*
X026369Y017967D01*
X026407Y01796D01*
Y018129D01*
D02*
G37*
G36*
X026676D02*
X026507D01*
Y01796D01*
X026544Y017967D01*
X026619Y018017D01*
X026669Y018091D01*
X026676Y018129D01*
D02*
G37*
G36*
X034753Y018021D02*
X034584D01*
X034591Y017983D01*
X034641Y017909D01*
X034715Y017859D01*
X034753Y017851D01*
Y018021D01*
D02*
G37*
G36*
X024134Y018171D02*
X024062Y018157D01*
X024Y018116D01*
X02396Y018054D01*
X023945Y017982D01*
X02396Y01791D01*
X024Y017849D01*
X024034Y017827D01*
X024014Y017779D01*
X023976Y017787D01*
X023904Y017773D01*
X023843Y017732D01*
X023802Y017671D01*
X023788Y017598D01*
X023802Y017526D01*
X023843Y017465D01*
X023904Y017424D01*
X023976Y01741D01*
X024049Y017424D01*
X02411Y017465D01*
X024151Y017526D01*
X024165Y017598D01*
X024151Y017671D01*
X02411Y017732D01*
X024076Y017754D01*
X024096Y017801D01*
X024134Y017794D01*
X024206Y017808D01*
X024267Y017849D01*
X024308Y01791D01*
X024322Y017982D01*
X024308Y018054D01*
X024267Y018116D01*
X024206Y018157D01*
X024134Y018171D01*
D02*
G37*
G36*
X021319Y018181D02*
X021247Y018166D01*
X021186Y018125D01*
X021145Y018064D01*
X02113Y017992D01*
X021145Y01792D01*
X021186Y017859D01*
X021247Y017818D01*
X021319Y017803D01*
X021391Y017818D01*
X021452Y017859D01*
X021493Y01792D01*
X021508Y017992D01*
X021493Y018064D01*
X021452Y018125D01*
X021391Y018166D01*
X021319Y018181D01*
D02*
G37*
G36*
X023385Y016958D02*
X023216D01*
X023223Y01692D01*
X023273Y016846D01*
X023347Y016796D01*
X023385Y016788D01*
Y016958D01*
D02*
G37*
G36*
X014901Y016239D02*
X014731D01*
X014739Y016202D01*
X014789Y016127D01*
X014863Y016077D01*
X014901Y01607D01*
Y016239D01*
D02*
G37*
G36*
X01517D02*
X015001D01*
Y01607D01*
X015039Y016077D01*
X015113Y016127D01*
X015163Y016202D01*
X01517Y016239D01*
D02*
G37*
G36*
X034753Y016052D02*
X034584D01*
X034591Y016015D01*
X034641Y01594D01*
X034715Y01589D01*
X034753Y015883D01*
Y016052D01*
D02*
G37*
G36*
X022135Y016023D02*
X021966D01*
X021973Y015985D01*
X022023Y015911D01*
X022097Y015861D01*
X022135Y015853D01*
Y016023D01*
D02*
G37*
G36*
X022404D02*
X022235D01*
Y015853D01*
X022273Y015861D01*
X022347Y015911D01*
X022397Y015985D01*
X022404Y016023D01*
D02*
G37*
G36*
X028415Y016263D02*
X028377Y016255D01*
X028302Y016206D01*
X028253Y016131D01*
X028245Y016093D01*
X028415D01*
Y016263D01*
D02*
G37*
G36*
X028515D02*
Y016093D01*
X028684D01*
X028677Y016131D01*
X028627Y016206D01*
X028552Y016255D01*
X028515Y016263D01*
D02*
G37*
G36*
X02017Y016259D02*
X020001D01*
Y01609D01*
X020039Y016097D01*
X020113Y016147D01*
X020163Y016221D01*
X02017Y016259D01*
D02*
G37*
G36*
X010247Y016243D02*
Y016074D01*
X010416D01*
X010409Y016111D01*
X010359Y016186D01*
X010285Y016236D01*
X010247Y016243D01*
D02*
G37*
G36*
X019901Y016259D02*
X019731D01*
X019739Y016221D01*
X019789Y016147D01*
X019863Y016097D01*
X019901Y01609D01*
Y016259D01*
D02*
G37*
G36*
X017156Y015741D02*
Y015572D01*
X017326D01*
X017318Y015609D01*
X017269Y015684D01*
X017194Y015734D01*
X017156Y015741D01*
D02*
G37*
G36*
X01872Y01638D02*
X018648Y016365D01*
X018587Y016324D01*
X018546Y016263D01*
X018532Y016191D01*
X018546Y016119D01*
X01857Y016084D01*
X01856Y016033D01*
X018553Y016026D01*
X018499Y01599D01*
X018458Y015928D01*
X018443Y015856D01*
X018458Y015784D01*
X018499Y015723D01*
X01856Y015682D01*
X018632Y015668D01*
X018704Y015682D01*
X018765Y015723D01*
X018806Y015784D01*
X018821Y015856D01*
X018806Y015928D01*
X018783Y015964D01*
X018792Y016015D01*
X0188Y016021D01*
X018854Y016058D01*
X018895Y016119D01*
X018909Y016191D01*
X018895Y016263D01*
X018854Y016324D01*
X018793Y016365D01*
X01872Y01638D01*
D02*
G37*
G36*
X017056Y015741D02*
X017019Y015734D01*
X016944Y015684D01*
X016894Y015609D01*
X016887Y015572D01*
X017056D01*
Y015741D01*
D02*
G37*
G36*
X031722Y015966D02*
X03165Y015952D01*
X031589Y015911D01*
X031548Y01585D01*
X031534Y015778D01*
X031548Y015705D01*
X031589Y015644D01*
X031644Y015608D01*
X031647Y015581D01*
X031644Y015554D01*
X031589Y015517D01*
X031553Y015463D01*
X031526Y015459D01*
X031499Y015463D01*
X031462Y015517D01*
X031401Y015558D01*
X031329Y015572D01*
X031257Y015558D01*
X031195Y015517D01*
X031159Y015463D01*
X031132Y015459D01*
X031105Y015463D01*
X031068Y015517D01*
X031007Y015558D01*
X030935Y015572D01*
X030863Y015558D01*
X030802Y015517D01*
X030761Y015456D01*
X030746Y015384D01*
X030761Y015312D01*
X030802Y01525D01*
X030863Y01521D01*
X030935Y015195D01*
X031007Y01521D01*
X031068Y01525D01*
X031105Y015305D01*
X031132Y015309D01*
X031159Y015305D01*
X031195Y01525D01*
X031257Y01521D01*
X031329Y015195D01*
X031401Y01521D01*
X031462Y01525D01*
X031499Y015305D01*
X031526Y015309D01*
X031553Y015305D01*
X031589Y01525D01*
X03165Y01521D01*
X031722Y015195D01*
X031795Y01521D01*
X031856Y01525D01*
X031897Y015312D01*
X031911Y015384D01*
X031897Y015456D01*
X031856Y015517D01*
X031801Y015554D01*
X031798Y015581D01*
X031801Y015608D01*
X031856Y015644D01*
X031897Y015705D01*
X031911Y015778D01*
X031897Y01585D01*
X031856Y015911D01*
X031795Y015952D01*
X031722Y015966D01*
D02*
G37*
G36*
X011122Y015947D02*
X01105Y015932D01*
X010989Y015891D01*
X010948Y01583D01*
X010933Y015758D01*
X010948Y015686D01*
X010989Y015625D01*
X01105Y015584D01*
X011122Y015569D01*
X011194Y015584D01*
X011255Y015625D01*
X011296Y015686D01*
X011311Y015758D01*
X011296Y01583D01*
X011255Y015891D01*
X011194Y015932D01*
X011122Y015947D01*
D02*
G37*
G36*
X028684Y015993D02*
X028515D01*
Y015824D01*
X028552Y015831D01*
X028627Y015881D01*
X028677Y015956D01*
X028684Y015993D01*
D02*
G37*
G36*
X025069Y016222D02*
X024997Y016208D01*
X024936Y016167D01*
X024895Y016106D01*
X02488Y016033D01*
X024895Y015961D01*
X024936Y0159D01*
X024997Y015859D01*
X025069Y015845D01*
X025141Y015859D01*
X025202Y0159D01*
X025243Y015961D01*
X025258Y016033D01*
X025243Y016106D01*
X025202Y016167D01*
X025141Y016208D01*
X025069Y016222D01*
D02*
G37*
G36*
X028415Y015993D02*
X028245D01*
X028253Y015956D01*
X028302Y015881D01*
X028377Y015831D01*
X028415Y015824D01*
Y015993D01*
D02*
G37*
G36*
X013228Y016173D02*
X013156Y016159D01*
X013095Y016118D01*
X013054Y016056D01*
X01304Y015984D01*
X013054Y015912D01*
X013095Y015851D01*
X013156Y01581D01*
X013228Y015796D01*
X013301Y01581D01*
X013362Y015851D01*
X013403Y015912D01*
X013417Y015984D01*
X013403Y016056D01*
X013362Y016118D01*
X013301Y016159D01*
X013228Y016173D01*
D02*
G37*
G36*
X010416Y015974D02*
X010247D01*
Y015804D01*
X010285Y015812D01*
X010359Y015861D01*
X010409Y015936D01*
X010416Y015974D01*
D02*
G37*
G36*
X028839Y017009D02*
X028766Y016995D01*
X028705Y016954D01*
X028664Y016893D01*
X02865Y016821D01*
X028664Y016749D01*
X028705Y016687D01*
X028766Y016647D01*
X028839Y016632D01*
X028911Y016647D01*
X028972Y016687D01*
X029013Y016749D01*
X029027Y016821D01*
X029013Y016893D01*
X028972Y016954D01*
X028911Y016995D01*
X028839Y017009D01*
D02*
G37*
G36*
X025856Y016834D02*
X025818Y016826D01*
X025743Y016776D01*
X025694Y016702D01*
X025686Y016664D01*
X025856D01*
Y016834D01*
D02*
G37*
G36*
X026535Y01695D02*
X026463Y016936D01*
X026402Y016895D01*
X026361Y016834D01*
X026347Y016762D01*
X026361Y01669D01*
X026402Y016628D01*
X026463Y016588D01*
X026535Y016573D01*
X026608Y016588D01*
X026669Y016628D01*
X02671Y01669D01*
X026724Y016762D01*
X02671Y016834D01*
X026669Y016895D01*
X026608Y016936D01*
X026535Y01695D01*
D02*
G37*
G36*
X019005Y016702D02*
X018836D01*
X018843Y016664D01*
X018893Y01659D01*
X018967Y01654D01*
X019005Y016533D01*
Y016702D01*
D02*
G37*
G36*
X019275D02*
X019105D01*
Y016533D01*
X019143Y01654D01*
X019217Y01659D01*
X019267Y016664D01*
X019275Y016702D01*
D02*
G37*
G36*
X010416Y016958D02*
X010247D01*
Y016788D01*
X010285Y016796D01*
X010359Y016846D01*
X010409Y01692D01*
X010416Y016958D01*
D02*
G37*
G36*
X01519D02*
X01502D01*
Y016788D01*
X015058Y016796D01*
X015133Y016846D01*
X015182Y01692D01*
X01519Y016958D01*
D02*
G37*
G36*
X015945Y017088D02*
X015873Y017074D01*
X015812Y017033D01*
X015771Y016972D01*
X015756Y0169D01*
X015771Y016827D01*
X015812Y016766D01*
X015873Y016725D01*
X015945Y016711D01*
X016017Y016725D01*
X016078Y016766D01*
X016119Y016827D01*
X016134Y0169D01*
X016119Y016972D01*
X016078Y017033D01*
X016017Y017074D01*
X015945Y017088D01*
D02*
G37*
G36*
X025956Y016834D02*
Y016664D01*
X026125D01*
X026117Y016702D01*
X026068Y016776D01*
X025993Y016826D01*
X025956Y016834D01*
D02*
G37*
G36*
X030344Y016783D02*
X030272Y016769D01*
X030211Y016728D01*
X030175Y016673D01*
X030148Y01667D01*
X030121Y016673D01*
X030084Y016728D01*
X030023Y016769D01*
X029951Y016783D01*
X029879Y016769D01*
X029817Y016728D01*
X029781Y016673D01*
X029754Y01667D01*
X029727Y016673D01*
X02969Y016728D01*
X029629Y016769D01*
X029557Y016783D01*
X029485Y016769D01*
X029424Y016728D01*
X029383Y016667D01*
X029368Y016594D01*
X029383Y016522D01*
X029424Y016461D01*
X029485Y01642D01*
X029557Y016406D01*
X029629Y01642D01*
X02969Y016461D01*
X029727Y016516D01*
X029754Y016519D01*
X029781Y016516D01*
X029817Y016461D01*
X029879Y01642D01*
X029951Y016406D01*
X030023Y01642D01*
X030084Y016461D01*
X030121Y016516D01*
X030148Y016519D01*
X030175Y016516D01*
X030211Y016461D01*
X030272Y01642D01*
X030312Y016412D01*
Y016361D01*
X030282Y016355D01*
X030221Y016314D01*
X03018Y016253D01*
X030166Y016181D01*
X03018Y016109D01*
X030221Y016048D01*
X030275Y016011D01*
X030279Y015984D01*
X030275Y015957D01*
X030221Y015921D01*
X03018Y01586D01*
X030166Y015787D01*
X03018Y015715D01*
X030221Y015654D01*
X030275Y015618D01*
X030279Y015591D01*
X030275Y015563D01*
X030221Y015527D01*
X03018Y015466D01*
X030166Y015394D01*
X03018Y015322D01*
X030221Y01526D01*
X030282Y015219D01*
X030354Y015205D01*
X030427Y015219D01*
X030488Y01526D01*
X030529Y015322D01*
X030543Y015394D01*
X030529Y015466D01*
X030488Y015527D01*
X030433Y015563D01*
X03043Y015591D01*
X030433Y015618D01*
X030488Y015654D01*
X030529Y015715D01*
X030543Y015787D01*
X030529Y01586D01*
X030488Y015921D01*
X030433Y015957D01*
X03043Y015984D01*
X030433Y016011D01*
X030488Y016048D01*
X030529Y016109D01*
X030543Y016181D01*
X030529Y016253D01*
X030488Y016314D01*
X030427Y016355D01*
X030387Y016363D01*
Y016414D01*
X030417Y01642D01*
X030478Y016461D01*
X030519Y016522D01*
X030533Y016594D01*
X030519Y016667D01*
X030478Y016728D01*
X030417Y016769D01*
X030344Y016783D01*
D02*
G37*
G36*
X01748Y016645D02*
X017408Y016631D01*
X017347Y01659D01*
X017306Y016529D01*
X017292Y016457D01*
X017306Y016385D01*
X017347Y016323D01*
X017408Y016282D01*
X01748Y016268D01*
X017552Y016282D01*
X017614Y016323D01*
X017655Y016385D01*
X017669Y016457D01*
X017655Y016529D01*
X017614Y01659D01*
X017552Y016631D01*
X01748Y016645D01*
D02*
G37*
G36*
X014901Y016509D02*
X014863Y016501D01*
X014789Y016452D01*
X014739Y016377D01*
X014731Y016339D01*
X014901D01*
Y016509D01*
D02*
G37*
G36*
X034753Y016322D02*
X034715Y016314D01*
X034641Y016265D01*
X034591Y01619D01*
X034584Y016152D01*
X034753D01*
Y016322D01*
D02*
G37*
G36*
X022135Y016292D02*
X022097Y016285D01*
X022023Y016235D01*
X021973Y016161D01*
X021966Y016123D01*
X022135D01*
Y016292D01*
D02*
G37*
G36*
X022235D02*
Y016123D01*
X022404D01*
X022397Y016161D01*
X022347Y016235D01*
X022273Y016285D01*
X022235Y016292D01*
D02*
G37*
G36*
X025856Y016564D02*
X025686D01*
X025694Y016526D01*
X025743Y016452D01*
X025818Y016402D01*
X025856Y016395D01*
Y016564D01*
D02*
G37*
G36*
X026125D02*
X025956D01*
Y016395D01*
X025993Y016402D01*
X026068Y016452D01*
X026117Y016526D01*
X026125Y016564D01*
D02*
G37*
G36*
X020001Y016529D02*
Y016359D01*
X02017D01*
X020163Y016397D01*
X020113Y016471D01*
X020039Y016521D01*
X020001Y016529D01*
D02*
G37*
G36*
X015001Y016509D02*
Y016339D01*
X01517D01*
X015163Y016377D01*
X015113Y016452D01*
X015039Y016501D01*
X015001Y016509D01*
D02*
G37*
G36*
X019901Y016529D02*
X019863Y016521D01*
X019789Y016471D01*
X019739Y016397D01*
X019731Y016359D01*
X019901D01*
Y016529D01*
D02*
G37*
G36*
X014733Y020485D02*
X014696Y020478D01*
X014621Y020428D01*
X014572Y020354D01*
X014564Y020316D01*
X014733D01*
Y020485D01*
D02*
G37*
G36*
X014833D02*
Y020316D01*
X015003D01*
X014995Y020354D01*
X014946Y020428D01*
X014871Y020478D01*
X014833Y020485D01*
D02*
G37*
G36*
X019521Y020383D02*
X019351D01*
Y020214D01*
X019389Y020221D01*
X019463Y020271D01*
X019513Y020345D01*
X019521Y020383D01*
D02*
G37*
G36*
X024134Y020553D02*
X024062Y020538D01*
X024Y020498D01*
X02396Y020436D01*
X023945Y020364D01*
X02396Y020292D01*
X024Y020231D01*
X024062Y02019D01*
X024134Y020176D01*
X024206Y02019D01*
X024267Y020231D01*
X024308Y020292D01*
X024322Y020364D01*
X024308Y020436D01*
X024267Y020498D01*
X024206Y020538D01*
X024134Y020553D01*
D02*
G37*
G36*
X019251Y020383D02*
X019082D01*
X019089Y020345D01*
X019139Y020271D01*
X019213Y020221D01*
X019251Y020214D01*
Y020383D01*
D02*
G37*
G36*
X030374Y020759D02*
X030302Y020745D01*
X030241Y020704D01*
X0302Y020643D01*
X030185Y020571D01*
X0302Y020499D01*
X030241Y020437D01*
X030302Y020397D01*
X030374Y020382D01*
X030446Y020397D01*
X030507Y020437D01*
X030548Y020499D01*
X030563Y020571D01*
X030548Y020643D01*
X030507Y020704D01*
X030446Y020745D01*
X030374Y020759D01*
D02*
G37*
G36*
X030994D02*
X030922Y020745D01*
X030861Y020704D01*
X03082Y020643D01*
X030805Y020571D01*
X03082Y020499D01*
X030861Y020437D01*
X030922Y020397D01*
X030994Y020382D01*
X031066Y020397D01*
X031127Y020437D01*
X031168Y020499D01*
X031183Y020571D01*
X031168Y020643D01*
X031127Y020704D01*
X031066Y020745D01*
X030994Y020759D01*
D02*
G37*
G36*
X029754D02*
X029682Y020745D01*
X029621Y020704D01*
X02958Y020643D01*
X029565Y020571D01*
X02958Y020499D01*
X029621Y020437D01*
X029682Y020397D01*
X029754Y020382D01*
X029826Y020397D01*
X029887Y020437D01*
X029928Y020499D01*
X029943Y020571D01*
X029928Y020643D01*
X029887Y020704D01*
X029826Y020745D01*
X029754Y020759D01*
D02*
G37*
G36*
X023465Y02072D02*
X023392Y020706D01*
X023331Y020665D01*
X02329Y020604D01*
X023276Y020531D01*
X02329Y020459D01*
X023331Y020398D01*
X023392Y020357D01*
X023465Y020343D01*
X023537Y020357D01*
X023598Y020398D01*
X023639Y020459D01*
X023653Y020531D01*
X023639Y020604D01*
X023598Y020665D01*
X023537Y020706D01*
X023465Y02072D01*
D02*
G37*
G36*
X012421Y02074D02*
X012349Y020725D01*
X012288Y020685D01*
X012247Y020623D01*
X012233Y020551D01*
X012247Y020479D01*
X012288Y020418D01*
X012349Y020377D01*
X012421Y020363D01*
X012493Y020377D01*
X012555Y020418D01*
X012596Y020479D01*
X01261Y020551D01*
X012596Y020623D01*
X012555Y020685D01*
X012493Y020725D01*
X012421Y02074D01*
D02*
G37*
G36*
X02122Y020346D02*
X021148Y020332D01*
X021087Y020291D01*
X021046Y02023D01*
X021032Y020157D01*
X021046Y020085D01*
X021087Y020024D01*
X021148Y019983D01*
X02122Y019969D01*
X021293Y019983D01*
X021354Y020024D01*
X021395Y020085D01*
X021409Y020157D01*
X021395Y02023D01*
X021354Y020291D01*
X021293Y020332D01*
X02122Y020346D01*
D02*
G37*
G36*
X017933Y020385D02*
X017861Y020371D01*
X0178Y02033D01*
X017759Y020269D01*
X017744Y020197D01*
X017759Y020125D01*
X0178Y020063D01*
X017861Y020023D01*
X017933Y020008D01*
X018005Y020023D01*
X018066Y020063D01*
X018107Y020125D01*
X018122Y020197D01*
X018107Y020269D01*
X018066Y02033D01*
X018005Y020371D01*
X017933Y020385D01*
D02*
G37*
G36*
X027776Y020681D02*
X027703Y020666D01*
X027642Y020626D01*
X027601Y020564D01*
X027587Y020492D01*
X027601Y02042D01*
X027642Y020359D01*
X027697Y020322D01*
X0277Y020295D01*
X027697Y020268D01*
X027642Y020232D01*
X027601Y020171D01*
X027587Y020098D01*
X027601Y020026D01*
X027642Y019965D01*
X027703Y019924D01*
X027776Y01991D01*
X027848Y019924D01*
X027909Y019965D01*
X02795Y020026D01*
X027964Y020098D01*
X02795Y020171D01*
X027909Y020232D01*
X027854Y020268D01*
X027851Y020295D01*
X027854Y020322D01*
X027909Y020359D01*
X02795Y02042D01*
X027964Y020492D01*
X02795Y020564D01*
X027909Y020626D01*
X027848Y020666D01*
X027776Y020681D01*
D02*
G37*
G36*
X034753Y019989D02*
X034584D01*
X034591Y019952D01*
X034641Y019877D01*
X034715Y019827D01*
X034753Y01982D01*
Y019989D01*
D02*
G37*
G36*
X033789Y020494D02*
X033717Y020479D01*
X033656Y020438D01*
X033615Y020377D01*
X033601Y020305D01*
X033615Y020233D01*
X033656Y020172D01*
X033717Y020131D01*
X033789Y020116D01*
X033862Y020131D01*
X0339Y020157D01*
X033936Y020121D01*
X03391Y020082D01*
X033896Y02001D01*
X03391Y019938D01*
X033951Y019876D01*
X034012Y019836D01*
X034085Y019821D01*
X034157Y019836D01*
X034218Y019876D01*
X034259Y019938D01*
X034273Y02001D01*
X034259Y020082D01*
X034218Y020143D01*
X034157Y020184D01*
X034085Y020198D01*
X034012Y020184D01*
X033974Y020158D01*
X033938Y020194D01*
X033964Y020233D01*
X033978Y020305D01*
X033964Y020377D01*
X033923Y020438D01*
X033862Y020479D01*
X033789Y020494D01*
D02*
G37*
G36*
X034753Y020259D02*
X034715Y020251D01*
X034641Y020202D01*
X034591Y020127D01*
X034584Y020089D01*
X034753D01*
Y020259D01*
D02*
G37*
G36*
X02766Y021446D02*
X027221D01*
X027229Y021408D01*
X027279Y021334D01*
X027302Y021318D01*
X027302Y021258D01*
X027268Y021236D01*
X027227Y021175D01*
X027213Y021102D01*
X027227Y02103D01*
X027268Y020969D01*
X027329Y020928D01*
X027354Y020923D01*
Y020872D01*
X02731Y020863D01*
X027249Y020822D01*
X027208Y020761D01*
X027193Y020689D01*
X027208Y020617D01*
X027249Y020556D01*
X027303Y020519D01*
X027307Y020492D01*
X027303Y020465D01*
X027249Y020429D01*
X027208Y020367D01*
X027193Y020295D01*
X027208Y020223D01*
X027249Y020162D01*
X02731Y020121D01*
X027382Y020107D01*
X027454Y020121D01*
X027515Y020162D01*
X027556Y020223D01*
X027571Y020295D01*
X027556Y020367D01*
X027515Y020429D01*
X027461Y020465D01*
X027457Y020492D01*
X027461Y020519D01*
X027515Y020556D01*
X027556Y020617D01*
X027571Y020689D01*
X027556Y020761D01*
X027515Y020822D01*
X027454Y020863D01*
X027429Y020868D01*
Y020919D01*
X027474Y020928D01*
X027535Y020969D01*
X027576Y02103D01*
X02759Y021102D01*
X027576Y021175D01*
X027535Y021236D01*
X027532Y021238D01*
X027541Y021292D01*
X027603Y021334D01*
X027653Y021408D01*
X02766Y021446D01*
D02*
G37*
G36*
X015003Y020216D02*
X014833D01*
Y020046D01*
X014871Y020054D01*
X014946Y020104D01*
X014995Y020178D01*
X015003Y020216D01*
D02*
G37*
G36*
X010247Y02018D02*
Y020011D01*
X010416D01*
X010409Y020048D01*
X010359Y020123D01*
X010285Y020173D01*
X010247Y02018D01*
D02*
G37*
G36*
X014733Y020216D02*
X014564D01*
X014572Y020178D01*
X014621Y020104D01*
X014696Y020054D01*
X014733Y020046D01*
Y020216D01*
D02*
G37*
G36*
X034753Y020974D02*
X034584D01*
X034591Y020936D01*
X034641Y020861D01*
X034715Y020812D01*
X034753Y020804D01*
Y020974D01*
D02*
G37*
G36*
X029754Y021252D02*
X029682Y021237D01*
X029621Y021196D01*
X02958Y021135D01*
X029565Y021063D01*
X02958Y020991D01*
X029621Y02093D01*
X029682Y020889D01*
X029754Y020874D01*
X029826Y020889D01*
X029887Y02093D01*
X029928Y020991D01*
X029943Y021063D01*
X029928Y021135D01*
X029887Y021196D01*
X029826Y021237D01*
X029754Y021252D01*
D02*
G37*
G36*
X010416Y020895D02*
X010247D01*
Y020725D01*
X010285Y020733D01*
X010359Y020783D01*
X010409Y020857D01*
X010416Y020895D01*
D02*
G37*
G36*
X014596Y021006D02*
X014524Y020991D01*
X014463Y02095D01*
X014422Y020889D01*
X014408Y020817D01*
X014422Y020745D01*
X014463Y020684D01*
X014524Y020643D01*
X014596Y020628D01*
X014669Y020643D01*
X01473Y020684D01*
X014771Y020745D01*
X014785Y020817D01*
X014771Y020889D01*
X01473Y02095D01*
X014669Y020991D01*
X014596Y021006D01*
D02*
G37*
G36*
X025492Y02138D02*
X02542Y021365D01*
X025359Y021324D01*
X025318Y021263D01*
X025303Y021191D01*
X025318Y021119D01*
X025359Y021058D01*
X02542Y021017D01*
X025492Y021002D01*
X025564Y021017D01*
X025567Y021019D01*
X025603Y020983D01*
X025593Y020968D01*
X025579Y020896D01*
X025593Y020823D01*
X025634Y020762D01*
X025696Y020721D01*
X025768Y020707D01*
X02584Y020721D01*
X025901Y020762D01*
X025942Y020823D01*
X025956Y020896D01*
X025942Y020968D01*
X025901Y021029D01*
X02584Y02107D01*
X025768Y021084D01*
X025696Y02107D01*
X025693Y021068D01*
X025657Y021104D01*
X025666Y021119D01*
X025681Y021191D01*
X025666Y021263D01*
X025626Y021324D01*
X025564Y021365D01*
X025492Y02138D01*
D02*
G37*
G36*
X028396Y021488D02*
X028323Y021473D01*
X028262Y021433D01*
X028221Y021371D01*
X028207Y021299D01*
X028221Y021227D01*
X028262Y021166D01*
X028323Y021125D01*
X028396Y021111D01*
X028468Y021125D01*
X028529Y021166D01*
X02857Y021227D01*
X028584Y021299D01*
X02857Y021371D01*
X028529Y021433D01*
X028468Y021473D01*
X028396Y021488D01*
D02*
G37*
G36*
X018917Y021508D02*
X018845Y021493D01*
X018784Y021452D01*
X018743Y021391D01*
X018729Y021319D01*
X018743Y021247D01*
X018784Y021186D01*
X018845Y021145D01*
X018917Y02113D01*
X01899Y021145D01*
X019051Y021186D01*
X019092Y021247D01*
X019106Y021319D01*
X019092Y021391D01*
X019051Y021452D01*
X01899Y021493D01*
X018917Y021508D01*
D02*
G37*
G36*
X034753Y021243D02*
X034715Y021236D01*
X034641Y021186D01*
X034591Y021111D01*
X034584Y021074D01*
X034753D01*
Y021243D01*
D02*
G37*
G36*
X010247Y021164D02*
Y020995D01*
X010416D01*
X010409Y021033D01*
X010359Y021107D01*
X010285Y021157D01*
X010247Y021164D01*
D02*
G37*
G36*
X014951Y021409D02*
X014879Y021395D01*
X014817Y021354D01*
X014777Y021293D01*
X014762Y02122D01*
X014777Y021148D01*
X014817Y021087D01*
X014879Y021046D01*
X014951Y021032D01*
X015023Y021046D01*
X015084Y021087D01*
X015125Y021148D01*
X015139Y02122D01*
X015125Y021293D01*
X015084Y021354D01*
X015023Y021395D01*
X014951Y021409D01*
D02*
G37*
G36*
X019251Y020653D02*
X019213Y020645D01*
X019139Y020595D01*
X019089Y020521D01*
X019082Y020483D01*
X019251D01*
Y020653D01*
D02*
G37*
G36*
X019351D02*
Y020483D01*
X019521D01*
X019513Y020521D01*
X019463Y020595D01*
X019389Y020645D01*
X019351Y020653D01*
D02*
G37*
G36*
X018268Y020838D02*
X018196Y020824D01*
X018134Y020783D01*
X018093Y020722D01*
X018079Y02065D01*
X018093Y020577D01*
X018134Y020516D01*
X018196Y020475D01*
X018268Y020461D01*
X01834Y020475D01*
X018401Y020516D01*
X018442Y020577D01*
X018456Y02065D01*
X018442Y020722D01*
X018401Y020783D01*
X01834Y020824D01*
X018268Y020838D01*
D02*
G37*
G36*
X031614Y020759D02*
X031542Y020745D01*
X031481Y020704D01*
X03144Y020643D01*
X031426Y020571D01*
X03144Y020499D01*
X031481Y020437D01*
X031542Y020397D01*
X031614Y020382D01*
X031686Y020397D01*
X031748Y020437D01*
X031788Y020499D01*
X031803Y020571D01*
X031788Y020643D01*
X031748Y020704D01*
X031686Y020745D01*
X031614Y020759D01*
D02*
G37*
G36*
X020492Y020809D02*
X02042Y020794D01*
X020359Y020753D01*
X020318Y020692D01*
X020303Y02062D01*
X020318Y020548D01*
X020359Y020487D01*
X02042Y020446D01*
X020492Y020431D01*
X020564Y020446D01*
X020626Y020487D01*
X020666Y020548D01*
X020681Y02062D01*
X020666Y020692D01*
X020626Y020753D01*
X020564Y020794D01*
X020492Y020809D01*
D02*
G37*
G36*
X01123Y020927D02*
X011158Y020912D01*
X011097Y020872D01*
X011056Y02081D01*
X011042Y020738D01*
X011056Y020666D01*
X011097Y020605D01*
X011158Y020564D01*
X01123Y02055D01*
X011302Y020564D01*
X011364Y020605D01*
X011405Y020666D01*
X011419Y020738D01*
X011405Y02081D01*
X011364Y020872D01*
X011302Y020912D01*
X01123Y020927D01*
D02*
G37*
G36*
X021999Y020967D02*
X021926Y020953D01*
X021865Y020912D01*
X021824Y02085D01*
X02181Y020778D01*
X021824Y020706D01*
X021865Y020645D01*
X021926Y020604D01*
X021999Y02059D01*
X022071Y020604D01*
X022132Y020645D01*
X022173Y020706D01*
X022187Y020778D01*
X022173Y02085D01*
X022132Y020912D01*
X022071Y020953D01*
X021999Y020967D01*
D02*
G37*
G36*
X011732Y020917D02*
X01166Y020903D01*
X011599Y020862D01*
X011558Y020801D01*
X011544Y020728D01*
X011558Y020656D01*
X011599Y020595D01*
X01166Y020554D01*
X011732Y02054D01*
X011804Y020554D01*
X011866Y020595D01*
X011907Y020656D01*
X011921Y020728D01*
X011907Y020801D01*
X011866Y020862D01*
X011804Y020903D01*
X011732Y020917D01*
D02*
G37*
G36*
X033494Y020887D02*
X033422Y020873D01*
X033361Y020832D01*
X03332Y020771D01*
X033305Y020699D01*
X03332Y020627D01*
X033361Y020565D01*
X033422Y020525D01*
X033494Y02051D01*
X033566Y020525D01*
X033627Y020565D01*
X033668Y020627D01*
X033683Y020699D01*
X033668Y020771D01*
X033627Y020832D01*
X033566Y020873D01*
X033494Y020887D01*
D02*
G37*
G36*
X034085D02*
X034012Y020873D01*
X033951Y020832D01*
X03391Y020771D01*
X033896Y020699D01*
X03391Y020627D01*
X033951Y020565D01*
X034012Y020525D01*
X034085Y02051D01*
X034157Y020525D01*
X034218Y020565D01*
X034259Y020627D01*
X034273Y020699D01*
X034259Y020771D01*
X034218Y020832D01*
X034157Y020873D01*
X034085Y020887D01*
D02*
G37*
G36*
X010416Y019911D02*
X010247D01*
Y019741D01*
X010285Y019749D01*
X010359Y019798D01*
X010409Y019873D01*
X010416Y019911D01*
D02*
G37*
G36*
X018672Y018773D02*
Y018603D01*
X018842D01*
X018834Y018641D01*
X018784Y018715D01*
X01871Y018765D01*
X018672Y018773D01*
D02*
G37*
G36*
X016407Y019067D02*
X016335Y019052D01*
X016274Y019011D01*
X016233Y01895D01*
X016219Y018878D01*
X016233Y018806D01*
X016274Y018745D01*
X016335Y018704D01*
X016407Y018689D01*
X01648Y018704D01*
X016541Y018745D01*
X016582Y018806D01*
X016596Y018878D01*
X016582Y01895D01*
X016541Y019011D01*
X01648Y019052D01*
X016407Y019067D01*
D02*
G37*
G36*
X018572Y018773D02*
X018534Y018765D01*
X01846Y018715D01*
X01841Y018641D01*
X018405Y018613D01*
X018349Y01859D01*
X01832Y018609D01*
X018248Y018624D01*
X018176Y018609D01*
X018115Y018568D01*
X018074Y018507D01*
X018059Y018435D01*
X018074Y018363D01*
X018115Y018302D01*
X018176Y018261D01*
X018248Y018246D01*
X01832Y018261D01*
X018381Y018302D01*
X018422Y018363D01*
X018422Y018364D01*
X018477Y01838D01*
X018534Y018341D01*
X018572Y018334D01*
Y018553D01*
Y018773D01*
D02*
G37*
G36*
X030453Y01921D02*
X030372Y0192D01*
X030296Y019168D01*
X030232Y019119D01*
X030182Y019054D01*
X030151Y018979D01*
X03014Y018898D01*
X030151Y018817D01*
X030182Y018741D01*
X030232Y018677D01*
X030296Y018627D01*
X030372Y018596D01*
X030453Y018585D01*
X030534Y018596D01*
X030609Y018627D01*
X030674Y018677D01*
X030724Y018741D01*
X030755Y018817D01*
X030765Y018898D01*
X030755Y018979D01*
X030724Y019054D01*
X030674Y019119D01*
X030609Y019168D01*
X030534Y0192D01*
X030453Y01921D01*
D02*
G37*
G36*
X031763Y019208D02*
X031143D01*
Y018588D01*
X031763D01*
Y019208D01*
D02*
G37*
G36*
X022244Y019462D02*
X022098Y019443D01*
X021962Y019387D01*
X021845Y019297D01*
X021755Y01918D01*
X021699Y019044D01*
X021679Y018898D01*
X021699Y018751D01*
X021755Y018615D01*
X021845Y018498D01*
X021962Y018408D01*
X022098Y018352D01*
X022244Y018333D01*
X02239Y018352D01*
X022527Y018408D01*
X022643Y018498D01*
X022733Y018615D01*
X02279Y018751D01*
X022809Y018898D01*
X022807Y018916D01*
X022836Y018933D01*
X022854Y018938D01*
X022911Y018901D01*
X022983Y018886D01*
X023055Y018901D01*
X023116Y018941D01*
X023157Y019003D01*
X023172Y019075D01*
X023157Y019147D01*
X023116Y019208D01*
X023055Y019249D01*
X022983Y019263D01*
X022911Y019249D01*
X02285Y019208D01*
X022809Y019147D01*
X022806Y019135D01*
X022754Y01913D01*
X022733Y01918D01*
X022643Y019297D01*
X022527Y019387D01*
X02239Y019443D01*
X022244Y019462D01*
D02*
G37*
G36*
X024403Y019244D02*
X024361Y019239D01*
X024276Y019203D01*
X024203Y019147D01*
X024147Y019074D01*
X024112Y018989D01*
X024106Y018948D01*
X024403D01*
Y019244D01*
D02*
G37*
G36*
X034753Y019005D02*
X034584D01*
X034591Y018967D01*
X034641Y018893D01*
X034715Y018843D01*
X034753Y018836D01*
Y019005D01*
D02*
G37*
G36*
X02376Y019185D02*
X023688Y01917D01*
X023626Y019129D01*
X023586Y019068D01*
X023571Y018996D01*
X023586Y018924D01*
X023626Y018863D01*
X023688Y018822D01*
X02376Y018807D01*
X023832Y018822D01*
X023893Y018863D01*
X023934Y018924D01*
X023948Y018996D01*
X023934Y019068D01*
X023893Y019129D01*
X023832Y01917D01*
X02376Y019185D01*
D02*
G37*
G36*
X013209Y020002D02*
X013136Y019987D01*
X013075Y019946D01*
X013034Y019885D01*
X01302Y019813D01*
X013034Y019741D01*
X013075Y01968D01*
X013136Y019639D01*
X013156Y019635D01*
Y019584D01*
X013156Y019584D01*
X013095Y019543D01*
X013054Y019482D01*
X01304Y019409D01*
X013054Y019337D01*
X013095Y019276D01*
X013156Y019235D01*
X013171Y019232D01*
X01318Y01918D01*
X013134Y019149D01*
X013093Y019088D01*
X013079Y019016D01*
X013093Y018944D01*
X013134Y018882D01*
X013196Y018841D01*
X013268Y018827D01*
X01334Y018841D01*
X013401Y018882D01*
X013442Y018944D01*
X013456Y019016D01*
X013442Y019088D01*
X013401Y019149D01*
X01334Y01919D01*
X013325Y019193D01*
X013316Y019246D01*
X013362Y019276D01*
X013403Y019337D01*
X013417Y019409D01*
X013403Y019482D01*
X013362Y019543D01*
X013301Y019584D01*
X013281Y019588D01*
Y019639D01*
X013281Y019639D01*
X013342Y01968D01*
X013383Y019741D01*
X013397Y019813D01*
X013383Y019885D01*
X013342Y019946D01*
X013281Y019987D01*
X013209Y020002D01*
D02*
G37*
G36*
X02126Y01883D02*
X021188Y018816D01*
X021126Y018775D01*
X021086Y018714D01*
X021071Y018642D01*
X021086Y01857D01*
X021126Y018508D01*
X021188Y018467D01*
X02126Y018453D01*
X021332Y018467D01*
X021393Y018508D01*
X021434Y01857D01*
X021448Y018642D01*
X021434Y018714D01*
X021393Y018775D01*
X021332Y018816D01*
X02126Y01883D01*
D02*
G37*
G36*
X016841Y018889D02*
X016768Y018875D01*
X016707Y018834D01*
X016666Y018773D01*
X016652Y018701D01*
X016666Y018629D01*
X016707Y018567D01*
X016768Y018527D01*
X016841Y018512D01*
X016913Y018527D01*
X016974Y018567D01*
X017015Y018629D01*
X017029Y018701D01*
X017015Y018773D01*
X016974Y018834D01*
X016913Y018875D01*
X016841Y018889D01*
D02*
G37*
G36*
X020101Y018621D02*
X019932D01*
Y018452D01*
X01997Y018459D01*
X020044Y018509D01*
X020094Y018583D01*
X020101Y018621D01*
D02*
G37*
G36*
X013238Y018781D02*
X013166Y018767D01*
X013105Y018726D01*
X013064Y018665D01*
X01305Y018593D01*
X013064Y01852D01*
X013105Y018459D01*
X013166Y018418D01*
X013238Y018404D01*
X01331Y018418D01*
X013372Y018459D01*
X013412Y01852D01*
X013427Y018593D01*
X013412Y018665D01*
X013372Y018726D01*
X01331Y018767D01*
X013238Y018781D01*
D02*
G37*
G36*
X019832Y018621D02*
X019662D01*
X01967Y018583D01*
X01972Y018509D01*
X019794Y018459D01*
X019832Y018452D01*
Y018621D01*
D02*
G37*
G36*
X028453Y01921D02*
X028372Y0192D01*
X028296Y019168D01*
X028232Y019119D01*
X028182Y019054D01*
X028151Y018979D01*
X02814Y018898D01*
X028151Y018817D01*
X028182Y018741D01*
X028232Y018677D01*
X028296Y018627D01*
X028372Y018596D01*
X028453Y018585D01*
X028534Y018596D01*
X028609Y018627D01*
X028674Y018677D01*
X028724Y018741D01*
X028755Y018817D01*
X028765Y018898D01*
X028755Y018979D01*
X028724Y019054D01*
X028674Y019119D01*
X028609Y019168D01*
X028534Y0192D01*
X028453Y01921D01*
D02*
G37*
G36*
X029453D02*
X029372Y0192D01*
X029296Y019168D01*
X029232Y019119D01*
X029182Y019054D01*
X029151Y018979D01*
X02914Y018898D01*
X029151Y018817D01*
X029182Y018741D01*
X029232Y018677D01*
X029296Y018627D01*
X029372Y018596D01*
X029453Y018585D01*
X029534Y018596D01*
X029609Y018627D01*
X029674Y018677D01*
X029724Y018741D01*
X029755Y018817D01*
X029765Y018898D01*
X029755Y018979D01*
X029724Y019054D01*
X029674Y019119D01*
X029609Y019168D01*
X029534Y0192D01*
X029453Y01921D01*
D02*
G37*
G36*
X025453D02*
X025372Y0192D01*
X025296Y019168D01*
X025232Y019119D01*
X025182Y019054D01*
X025151Y018979D01*
X02514Y018898D01*
X025151Y018817D01*
X025182Y018741D01*
X025232Y018677D01*
X025296Y018627D01*
X025372Y018596D01*
X025453Y018585D01*
X025534Y018596D01*
X025609Y018627D01*
X025674Y018677D01*
X025724Y018741D01*
X025755Y018817D01*
X025765Y018898D01*
X025755Y018979D01*
X025724Y019054D01*
X025674Y019119D01*
X025609Y019168D01*
X025534Y0192D01*
X025453Y01921D01*
D02*
G37*
G36*
X024799Y018848D02*
X024503D01*
Y018551D01*
X024544Y018557D01*
X024629Y018592D01*
X024702Y018648D01*
X024758Y018721D01*
X024794Y018806D01*
X024799Y018848D01*
D02*
G37*
G36*
X024403D02*
X024106D01*
X024112Y018806D01*
X024147Y018721D01*
X024203Y018648D01*
X024276Y018592D01*
X024361Y018557D01*
X024403Y018551D01*
Y018848D01*
D02*
G37*
G36*
X017411Y019629D02*
X017373Y019621D01*
X017298Y019572D01*
X017249Y019497D01*
X017241Y019459D01*
X017411D01*
Y019629D01*
D02*
G37*
G36*
X017511D02*
Y019459D01*
X01768D01*
X017673Y019497D01*
X017623Y019572D01*
X017548Y019621D01*
X017511Y019629D01*
D02*
G37*
G36*
X014774Y019834D02*
X014701Y01982D01*
X01464Y019779D01*
X014599Y019718D01*
X014585Y019646D01*
X014599Y019573D01*
X01464Y019512D01*
X014701Y019471D01*
X014774Y019457D01*
X014846Y019471D01*
X014907Y019512D01*
X014948Y019573D01*
X014962Y019646D01*
X014948Y019718D01*
X014907Y019779D01*
X014846Y01982D01*
X014774Y019834D01*
D02*
G37*
G36*
X027244Y019578D02*
X027172Y019564D01*
X027111Y019523D01*
X02707Y019462D01*
X027055Y01939D01*
X027068Y019329D01*
X027063Y019325D01*
X027024Y019303D01*
X026972Y019338D01*
X0269Y019352D01*
X026827Y019338D01*
X026766Y019297D01*
X026725Y019236D01*
X026711Y019163D01*
X026714Y019149D01*
X026688Y01913D01*
X026668Y019123D01*
X026609Y019168D01*
X026534Y0192D01*
X026453Y01921D01*
X026372Y0192D01*
X026296Y019168D01*
X026232Y019119D01*
X026182Y019054D01*
X026151Y018979D01*
X02614Y018898D01*
X026151Y018817D01*
X026182Y018741D01*
X026232Y018677D01*
X026296Y018627D01*
X026372Y018596D01*
X026453Y018585D01*
X026534Y018596D01*
X026609Y018627D01*
X026674Y018677D01*
X026724Y018741D01*
X026755Y018817D01*
X026765Y018898D01*
X026755Y018977D01*
X026757Y018981D01*
X026796Y01901D01*
X026827Y018989D01*
X0269Y018975D01*
X026972Y018989D01*
X027033Y01903D01*
X027074Y019091D01*
X027088Y019163D01*
X027076Y019224D01*
X027081Y019228D01*
X027119Y019251D01*
X027172Y019216D01*
X027244Y019201D01*
X027261Y019205D01*
X027283Y019158D01*
X027232Y019119D01*
X027182Y019054D01*
X027151Y018979D01*
X02714Y018898D01*
X027151Y018817D01*
X027182Y018741D01*
X027232Y018677D01*
X027296Y018627D01*
X027372Y018596D01*
X027453Y018585D01*
X027534Y018596D01*
X027609Y018627D01*
X027674Y018677D01*
X027724Y018741D01*
X027755Y018817D01*
X027765Y018898D01*
X027755Y018979D01*
X027724Y019054D01*
X027674Y019119D01*
X027609Y019168D01*
X027534Y0192D01*
X027453Y01921D01*
X027385Y019201D01*
X027367Y019249D01*
X027377Y019256D01*
X027418Y019318D01*
X027433Y01939D01*
X027418Y019462D01*
X027377Y019523D01*
X027316Y019564D01*
X027244Y019578D01*
D02*
G37*
G36*
X022982Y019824D02*
X02291Y01981D01*
X022849Y019769D01*
X022808Y019708D01*
X022794Y019636D01*
X022808Y019564D01*
X022849Y019502D01*
X02291Y019462D01*
X022982Y019447D01*
X023054Y019462D01*
X023116Y019502D01*
X023157Y019564D01*
X023171Y019636D01*
X023157Y019708D01*
X023116Y019769D01*
X023054Y01981D01*
X022982Y019824D01*
D02*
G37*
G36*
X022126Y020061D02*
X022054Y020046D01*
X021993Y020005D01*
X021952Y019944D01*
X021937Y019872D01*
X021952Y0198D01*
X021993Y019739D01*
X022054Y019698D01*
X022126Y019683D01*
X022198Y019698D01*
X022259Y019739D01*
X0223Y0198D01*
X022315Y019872D01*
X0223Y019944D01*
X022259Y020005D01*
X022198Y020046D01*
X022126Y020061D01*
D02*
G37*
G36*
X023848Y02011D02*
X023776Y020096D01*
X023715Y020055D01*
X023674Y019993D01*
X02366Y019921D01*
X023674Y019849D01*
X023715Y019788D01*
X023776Y019747D01*
X023848Y019733D01*
X023921Y019747D01*
X023982Y019788D01*
X024023Y019849D01*
X024037Y019921D01*
X024023Y019993D01*
X023982Y020055D01*
X023921Y020096D01*
X023848Y02011D01*
D02*
G37*
G36*
X029685Y019933D02*
X029613Y019918D01*
X029552Y019877D01*
X029511Y019816D01*
X029496Y019744D01*
X029511Y019672D01*
X029552Y019611D01*
X029613Y01957D01*
X029685Y019555D01*
X029757Y01957D01*
X029818Y019611D01*
X029859Y019672D01*
X029874Y019744D01*
X029859Y019816D01*
X029818Y019877D01*
X029757Y019918D01*
X029685Y019933D01*
D02*
G37*
G36*
X029202Y019698D02*
X029164Y01969D01*
X02909Y019641D01*
X02904Y019566D01*
X029033Y019528D01*
X029202D01*
Y019698D01*
D02*
G37*
G36*
X029302D02*
Y019528D01*
X029471D01*
X029464Y019566D01*
X029414Y019641D01*
X02934Y01969D01*
X029302Y019698D01*
D02*
G37*
G36*
X010984Y020004D02*
X010861Y019992D01*
X010742Y019956D01*
X010632Y019897D01*
X010536Y019818D01*
X010457Y019722D01*
X010399Y019613D01*
X010363Y019494D01*
X01035Y01937D01*
X010363Y019246D01*
X010382Y019184D01*
X010339Y019152D01*
X010285Y019188D01*
X010247Y019196D01*
Y018976D01*
Y018757D01*
X010285Y018764D01*
X010359Y018814D01*
X010409Y018889D01*
X010426Y018976D01*
X010426Y018977D01*
X010473Y018999D01*
X010536Y018922D01*
X010632Y018843D01*
X010742Y018784D01*
X010861Y018748D01*
X010984Y018736D01*
X011108Y018748D01*
X011227Y018784D01*
X011336Y018843D01*
X011432Y018922D01*
X011511Y019018D01*
X01157Y019127D01*
X011606Y019246D01*
X011618Y01937D01*
X011606Y019494D01*
X01157Y019613D01*
X011511Y019722D01*
X011432Y019818D01*
X011336Y019897D01*
X011227Y019956D01*
X011108Y019992D01*
X010984Y020004D01*
D02*
G37*
G36*
X017411Y019359D02*
X017241D01*
X017249Y019322D01*
X017298Y019247D01*
X017373Y019197D01*
X017411Y01919D01*
Y019359D01*
D02*
G37*
G36*
X01997Y019254D02*
X019898Y019239D01*
X019837Y019198D01*
X019796Y019137D01*
X019796Y019135D01*
X019743Y019125D01*
X01974Y019129D01*
X019678Y01917D01*
X019606Y019185D01*
X019534Y01917D01*
X019473Y019129D01*
X019432Y019068D01*
X019418Y018996D01*
X019423Y018967D01*
X019381Y018925D01*
X01936Y018929D01*
X019288Y018914D01*
X019227Y018874D01*
X019186Y018812D01*
X019172Y01874D01*
X019186Y018668D01*
X019227Y018607D01*
X019288Y018566D01*
X01936Y018552D01*
X019432Y018566D01*
X019494Y018607D01*
X019534Y018668D01*
X019549Y01874D01*
X019543Y018769D01*
X019586Y018812D01*
X019606Y018807D01*
X019648Y018816D01*
X019678Y018771D01*
X01967Y018759D01*
X019662Y018721D01*
X020101D01*
X020094Y018759D01*
X020044Y018833D01*
X020032Y018842D01*
X020042Y018891D01*
X020043Y018891D01*
X020104Y018932D01*
X020145Y018993D01*
X020159Y019065D01*
X020145Y019137D01*
X020104Y019198D01*
X020043Y019239D01*
X01997Y019254D01*
D02*
G37*
G36*
X024503Y019244D02*
Y018948D01*
X024799D01*
X024794Y018989D01*
X024758Y019074D01*
X024702Y019147D01*
X024629Y019203D01*
X024544Y019239D01*
X024503Y019244D01*
D02*
G37*
G36*
X034753Y019275D02*
X034715Y019267D01*
X034641Y019217D01*
X034591Y019143D01*
X034584Y019105D01*
X034753D01*
Y019275D01*
D02*
G37*
G36*
X029471Y019428D02*
X029302D01*
Y019259D01*
X02934Y019266D01*
X029414Y019316D01*
X029464Y019391D01*
X029471Y019428D01*
D02*
G37*
G36*
X019045Y019647D02*
X018973Y019633D01*
X018912Y019592D01*
X018871Y019531D01*
X018857Y019459D01*
X018871Y019386D01*
X018912Y019325D01*
X018973Y019284D01*
X019045Y01927D01*
X019117Y019284D01*
X019179Y019325D01*
X01922Y019386D01*
X019234Y019459D01*
X01922Y019531D01*
X019179Y019592D01*
X019117Y019633D01*
X019045Y019647D01*
D02*
G37*
G36*
X029202Y019428D02*
X029033D01*
X02904Y019391D01*
X02909Y019316D01*
X029164Y019266D01*
X029202Y019259D01*
Y019428D01*
D02*
G37*
G36*
X01768Y019359D02*
X017511D01*
Y01919D01*
X017548Y019197D01*
X017623Y019247D01*
X017673Y019322D01*
X01768Y019359D01*
D02*
G37*
G36*
X028228Y019598D02*
X028156Y019584D01*
X028095Y019543D01*
X028054Y019482D01*
X02804Y019409D01*
X028054Y019337D01*
X028095Y019276D01*
X028156Y019235D01*
X028228Y019221D01*
X028301Y019235D01*
X028362Y019276D01*
X028403Y019337D01*
X028417Y019409D01*
X028403Y019482D01*
X028362Y019543D01*
X028301Y019584D01*
X028228Y019598D01*
D02*
G37*
%LPD*%
D63*
X020028Y007323D02*
D03*
D65*
X033169Y024409D02*
D03*
Y021693D02*
D03*
D66*
X014142Y006935D02*
D03*
X013642D02*
D03*
D67*
X024453Y018898D02*
D03*
D70*
X031526Y010118D02*
D03*
X030344D02*
D03*
X032707D02*
D03*
X032116Y010118D02*
D03*
X032707Y010748D02*
D03*
X031526D02*
D03*
X030344D02*
D03*
X030935D02*
D03*
X032116D02*
D03*
X027913Y007716D02*
D03*
X027441D02*
D03*
X027441Y009369D02*
D03*
X027913Y009369D02*
D03*
Y008818D02*
D03*
X027441D02*
D03*
Y008267D02*
D03*
X027913D02*
D03*
X025906Y016614D02*
D03*
X024941Y009281D02*
D03*
X025157Y0075D02*
D03*
X03252Y013346D02*
D03*
X032795Y007756D02*
D03*
X023396Y013947D02*
D03*
X028465Y016043D02*
D03*
X026526Y012283D02*
D03*
X022185Y017303D02*
D03*
Y016073D02*
D03*
X019951Y016309D02*
D03*
X022313Y022106D02*
D03*
X024665Y023012D02*
D03*
X02753Y022844D02*
D03*
X029685Y022146D02*
D03*
X028661Y012175D02*
D03*
Y012569D02*
D03*
Y013002D02*
D03*
X028248Y013012D02*
D03*
X027835D02*
D03*
X028661Y011762D02*
D03*
Y011348D02*
D03*
X028248D02*
D03*
X017106Y015522D02*
D03*
X017156Y013868D02*
D03*
X015974Y012333D02*
D03*
X013179Y012461D02*
D03*
X012549Y012087D02*
D03*
X016142Y010413D02*
D03*
X019183Y01374D02*
D03*
X022579Y011171D02*
D03*
X01747Y010226D02*
D03*
X01315Y02189D02*
D03*
X01374D02*
D03*
X013445Y021594D02*
D03*
X020896Y011063D02*
D03*
X017461Y019409D02*
D03*
X020148Y02185D02*
D03*
X018248Y022657D02*
D03*
X019055Y016752D02*
D03*
X018622Y018553D02*
D03*
X025738Y022766D02*
D03*
X029252Y019478D02*
D03*
X022313Y008553D02*
D03*
X023848Y010778D02*
D03*
X020571Y009567D02*
D03*
X019882Y018671D02*
D03*
X026457Y018179D02*
D03*
X019301Y020433D02*
D03*
X023839Y022087D02*
D03*
X025787Y017618D02*
D03*
X023691Y008573D02*
D03*
X01497Y017008D02*
D03*
X02563Y024715D02*
D03*
X017283Y012421D02*
D03*
X030935Y010118D02*
D03*
X010197Y00626D02*
D03*
X034803D02*
D03*
Y025866D02*
D03*
X010197D02*
D03*
X034803Y008228D02*
D03*
Y010197D02*
D03*
Y012165D02*
D03*
Y014134D02*
D03*
Y016102D02*
D03*
Y018071D02*
D03*
Y020039D02*
D03*
Y022008D02*
D03*
Y023976D02*
D03*
X012165Y025866D02*
D03*
X014134D02*
D03*
X010197Y023898D02*
D03*
Y021929D02*
D03*
Y019961D02*
D03*
Y017992D02*
D03*
Y016024D02*
D03*
Y014055D02*
D03*
Y012087D02*
D03*
Y010118D02*
D03*
Y00815D02*
D03*
X032717Y00626D02*
D03*
X03063D02*
D03*
X028543D02*
D03*
X026457D02*
D03*
X02437D02*
D03*
X022283D02*
D03*
X012283D02*
D03*
X01437D02*
D03*
X016457D02*
D03*
X018543D02*
D03*
X020512D02*
D03*
X027441Y021496D02*
D03*
X032913Y025866D02*
D03*
X016024D02*
D03*
X017913D02*
D03*
X019803D02*
D03*
X021693D02*
D03*
X023583D02*
D03*
X022215Y023494D02*
D03*
X022608Y02374D02*
D03*
X021703Y022972D02*
D03*
Y024055D02*
D03*
Y023514D02*
D03*
X023435Y017008D02*
D03*
X027835Y011348D02*
D03*
X022657Y012726D02*
D03*
X01376Y009065D02*
D03*
X012894Y009409D02*
D03*
X014783Y020266D02*
D03*
X015177Y013593D02*
D03*
X014951Y016289D02*
D03*
X017254Y014715D02*
D03*
X010197Y007205D02*
D03*
Y009134D02*
D03*
Y011102D02*
D03*
Y013071D02*
D03*
Y015039D02*
D03*
Y017008D02*
D03*
Y018976D02*
D03*
Y020945D02*
D03*
Y022913D02*
D03*
Y024882D02*
D03*
X011181Y025866D02*
D03*
X01315D02*
D03*
X015118D02*
D03*
X016988D02*
D03*
X018858D02*
D03*
X020728D02*
D03*
X022638D02*
D03*
X031929D02*
D03*
X033858D02*
D03*
X034803Y024921D02*
D03*
Y022992D02*
D03*
Y021024D02*
D03*
Y019055D02*
D03*
Y017087D02*
D03*
Y015118D02*
D03*
Y01315D02*
D03*
Y011181D02*
D03*
Y009213D02*
D03*
Y007244D02*
D03*
X033819Y00626D02*
D03*
X031673D02*
D03*
X029596D02*
D03*
X02751D02*
D03*
X025413D02*
D03*
X023327D02*
D03*
X021398D02*
D03*
X019528D02*
D03*
X017559D02*
D03*
X015423D02*
D03*
X013327D02*
D03*
X01126D02*
D03*
M02*
