G04 Layer_Color=65535*
%FSTAX24Y24*%
%MOIN*%
G70*
G01*
G75*
%ADD50C,0.0100*%
%ADD92C,0.0197*%
%ADD93C,0.0098*%
%ADD94C,0.0394*%
%ADD95C,0.0079*%
%ADD96C,0.0050*%
%ADD97C,0.0059*%
D50*
X018199Y008248D02*
X020167D01*
X018199Y010059D02*
X020167D01*
X0231Y021663D02*
Y022648D01*
X021919Y021663D02*
Y022648D01*
X020528Y006823D02*
Y007823D01*
X018528D02*
X020528D01*
X018528Y006823D02*
Y007823D01*
Y006823D02*
X020528D01*
X018778Y008573D02*
X019028Y008073D01*
X019278Y008573D01*
X018778D02*
X019278D01*
X028238Y013012D02*
Y013465D01*
X025384D02*
X028238D01*
Y010886D02*
Y011339D01*
X025384Y010886D02*
X028238D01*
X030236Y009843D02*
Y011024D01*
X032795Y009843D02*
Y011024D01*
X02689Y007558D02*
X028465D01*
X02689Y009527D02*
X028465D01*
X034016Y016732D02*
Y017795D01*
X029291D02*
X034016D01*
X029291Y016732D02*
Y017795D01*
Y013071D02*
X034016D01*
X029291D02*
Y014134D01*
X034016D02*
X034016Y013071D01*
X019094Y021348D02*
X019488D01*
X019094Y022352D02*
X019488D01*
X012618Y012146D02*
X017303D01*
X012618D02*
Y016535D01*
X012913Y016831D01*
X017303D01*
Y012146D02*
Y016831D01*
X027697Y023986D02*
Y02497D01*
X028996Y023986D02*
Y02497D01*
X025719Y023809D02*
X025719Y021919D01*
X027411D02*
Y023809D01*
X018032Y018907D02*
X018425D01*
X018032Y019911D02*
X018425D01*
X012539Y009587D02*
X013327D01*
X012539Y010571D02*
X013327D01*
X031073Y008445D02*
X031417D01*
X010699Y011624D02*
X010846D01*
X010699Y010689D02*
Y011624D01*
Y010689D02*
X010846D01*
X010699Y011181D02*
X010846D01*
X010502Y010689D02*
X010699Y010886D01*
X010502Y01D02*
Y010689D01*
Y01D02*
X010797Y009705D01*
Y009606D02*
Y009705D01*
Y009606D02*
Y009705D01*
Y009085D02*
Y010059D01*
X010945D01*
X010797Y009567D02*
X010945D01*
X010797Y009085D02*
X010945D01*
D92*
X020797Y010217D02*
G03*
X020797Y010217I-000079J0D01*
G01*
X023346Y023337D02*
G03*
X023346Y023337I-000049J0D01*
G01*
X030034Y009075D02*
G03*
X030034Y009075I-000093J0D01*
G01*
X029252Y007165D02*
G03*
X029252Y007165I-000098J0D01*
G01*
X019961Y02126D02*
G03*
X019961Y02126I-000059J0D01*
G01*
X017677Y02D02*
G03*
X017677Y02I-000059J0D01*
G01*
D93*
X019803Y018543D02*
G03*
X019803Y018543I-000039J0D01*
G01*
D94*
X014685Y020659D02*
G03*
X014685Y020659I-00001J0D01*
G01*
X011663Y017835D02*
G03*
X011663Y017835I-000049J0D01*
G01*
D95*
X020217Y018543D02*
X020413D01*
X020217Y017756D02*
X020413D01*
X027028Y014124D02*
X027067Y014163D01*
X026319Y014124D02*
X027028D01*
X027067Y014163D02*
X027067Y01562D01*
X02628Y014163D02*
Y01562D01*
Y014163D02*
X026319Y014124D01*
X028346Y013996D02*
X028386Y014035D01*
X027638Y013996D02*
X028346Y013996D01*
X028386Y015492D02*
X028386Y014035D01*
X027598D02*
Y015492D01*
Y014035D02*
X027638Y013996D01*
X024644Y016516D02*
X024644Y016336D01*
X024329Y016336D02*
X024644Y016336D01*
X023463Y016336D02*
X023778Y016336D01*
X023463Y016516D02*
X023463Y016336D01*
X026848Y016616D02*
X027028Y016616D01*
X026848Y016616D02*
Y016931D01*
Y017482D02*
Y017797D01*
X027028D01*
X022224Y012077D02*
X022264Y012116D01*
X020768Y012077D02*
X022224D01*
X020768Y012864D02*
X022224D01*
X022264Y012116D02*
Y012825D01*
X022224Y012864D02*
X022264Y012825D01*
X02314Y023906D02*
X023319Y023906D01*
Y024221D01*
Y024772D02*
Y025087D01*
X02314Y025087D02*
X023319Y025087D01*
X029478Y023197D02*
X029658Y023197D01*
Y022882D02*
Y023197D01*
Y022016D02*
Y022331D01*
X029478Y022016D02*
X029658Y022016D01*
D96*
X014311Y020866D02*
X014469Y021024D01*
X014468Y022756D02*
X014469Y022913D01*
X014311Y022913D02*
X014469Y022913D01*
X012421Y022913D02*
X012579Y022913D01*
X012421Y022756D02*
Y022913D01*
Y020866D02*
X012579Y020866D01*
X012421Y020866D02*
Y021024D01*
D97*
X020541Y008494D02*
Y008442D01*
X020646Y008337D01*
X020751Y008442D01*
Y008494D01*
X020646Y008337D02*
Y008179D01*
X021066D02*
X020856D01*
X021066Y008389D01*
Y008442D01*
X021014Y008494D01*
X020909D01*
X020856Y008442D01*
X013829Y010187D02*
Y010134D01*
X013934Y010029D01*
X014039Y010134D01*
Y010187D01*
X013934Y010029D02*
Y009872D01*
X014144D02*
X014249D01*
X014196D01*
Y010187D01*
X014144Y010134D01*
X021447Y022776D02*
X021709D01*
X021762Y022828D01*
Y022933D01*
X021709Y022985D01*
X021447D01*
X021762Y02309D02*
Y023195D01*
Y023143D01*
X021447D01*
X021499Y02309D01*
Y023353D02*
X021447Y023405D01*
Y02351D01*
X021499Y023563D01*
X021552D01*
X021604Y02351D01*
X021657Y023563D01*
X021709D01*
X021762Y02351D01*
Y023405D01*
X021709Y023353D01*
X021657D01*
X021604Y023405D01*
X021552Y023353D01*
X021499D01*
X021604Y023405D02*
Y02351D01*
X019803Y01686D02*
Y017175D01*
X019961D01*
X020013Y017123D01*
Y017018D01*
X019961Y016965D01*
X019803D01*
X019908D02*
X020013Y01686D01*
X020328Y017175D02*
X020118D01*
Y017018D01*
X020223Y01707D01*
X020275D01*
X020328Y017018D01*
Y016913D01*
X020275Y01686D01*
X02017D01*
X020118Y016913D01*
X02059Y01686D02*
Y017175D01*
X020433Y017018D01*
X020643D01*
X02874Y021083D02*
X028425D01*
Y02124D01*
X028478Y021293D01*
X028583D01*
X028635Y02124D01*
Y021083D01*
Y021188D02*
X02874Y021293D01*
Y021398D02*
Y021502D01*
Y02145D01*
X028425D01*
X028478Y021398D01*
X028425Y02166D02*
Y02187D01*
X028478D01*
X028688Y02166D01*
X02874D01*
X02127Y017815D02*
X020955D01*
X02106Y01792D01*
X020955Y018025D01*
X02127D01*
Y01813D02*
Y018235D01*
Y018182D01*
X020955D01*
X021007Y01813D01*
X02127Y018392D02*
Y018497D01*
Y018445D01*
X020955D01*
X021007Y018392D01*
X020928Y007559D02*
X020823D01*
X020876D01*
Y007297D01*
X020823Y007244D01*
X020771D01*
X020719Y007297D01*
X021243Y007559D02*
X021138Y007506D01*
X021033Y007402D01*
Y007297D01*
X021086Y007244D01*
X021191D01*
X021243Y007297D01*
Y007349D01*
X021191Y007402D01*
X021033D01*
X022533Y020262D02*
X02248Y020315D01*
X022375D01*
X022323Y020262D01*
Y020052D01*
X022375Y02D01*
X02248D01*
X022533Y020052D01*
X022848Y020315D02*
X022743Y020262D01*
X022638Y020157D01*
Y020052D01*
X02269Y02D01*
X022795D01*
X022848Y020052D01*
Y020105D01*
X022795Y020157D01*
X022638D01*
X022953Y020315D02*
X023162D01*
Y020262D01*
X022953Y020052D01*
Y02D01*
X023901Y021647D02*
X023849Y021594D01*
Y021489D01*
X023901Y021437D01*
X024111D01*
X024163Y021489D01*
Y021594D01*
X024111Y021647D01*
X023849Y021962D02*
X023901Y021857D01*
X024006Y021752D01*
X024111D01*
X024163Y021804D01*
Y021909D01*
X024111Y021962D01*
X024058D01*
X024006Y021909D01*
Y021752D01*
X023849Y022277D02*
Y022067D01*
X024006D01*
X023953Y022172D01*
Y022224D01*
X024006Y022277D01*
X024111D01*
X024163Y022224D01*
Y022119D01*
X024111Y022067D01*
X024291Y011899D02*
Y011637D01*
X024344Y011585D01*
X024449D01*
X024501Y011637D01*
Y011899D01*
X024606Y011637D02*
X024659Y011585D01*
X024764D01*
X024816Y011637D01*
Y011847D01*
X024764Y011899D01*
X024659D01*
X024606Y011847D01*
Y011795D01*
X024659Y011742D01*
X024816D01*
X026398Y016457D02*
Y016142D01*
X026555D01*
X026608Y016194D01*
Y016404D01*
X026555Y016457D01*
X026398D01*
X026713D02*
X026922D01*
Y016404D01*
X026713Y016194D01*
Y016142D01*
X027677Y016358D02*
Y016043D01*
X027835D01*
X027887Y016096D01*
Y016306D01*
X027835Y016358D01*
X027677D01*
X028149Y016043D02*
Y016358D01*
X027992Y016201D01*
X028202D01*
X020217Y022579D02*
X020426D01*
X020321D01*
Y022264D01*
X020531D02*
Y022579D01*
X020689D01*
X020741Y022526D01*
Y022421D01*
X020689Y022369D01*
X020531D01*
X020846Y022264D02*
X020951D01*
X020899D01*
Y022579D01*
X020846Y022526D01*
X021109D02*
X021161Y022579D01*
X021266D01*
X021319Y022526D01*
Y022316D01*
X021266Y022264D01*
X021161D01*
X021109Y022316D01*
Y022526D01*
X030079Y012648D02*
X030289D01*
X030184D01*
Y012333D01*
X030394D02*
Y012648D01*
X030551D01*
X030604Y012595D01*
Y01249D01*
X030551Y012438D01*
X030394D01*
X030918Y012648D02*
X030708D01*
Y01249D01*
X030813Y012543D01*
X030866D01*
X030918Y01249D01*
Y012385D01*
X030866Y012333D01*
X030761D01*
X030708Y012385D01*
X029453Y008155D02*
X029595Y008296D01*
X029524Y008226D01*
X029736Y008014D01*
X029877Y008155D02*
X029665Y008367D01*
X029771Y008473D01*
X029842Y008473D01*
X029913Y008402D01*
Y008332D01*
X029807Y008226D01*
X030196Y008473D02*
X029983Y008685D01*
X029983Y008473D01*
X030125Y008614D01*
X033366Y009764D02*
X033576D01*
X033471D01*
Y009449D01*
X033681D02*
Y009764D01*
X033838D01*
X033891Y009711D01*
Y009606D01*
X033838Y009554D01*
X033681D01*
X033996Y009711D02*
X034048Y009764D01*
X034153D01*
X034206Y009711D01*
Y009659D01*
X034153Y009606D01*
X034101D01*
X034153D01*
X034206Y009554D01*
Y009501D01*
X034153Y009449D01*
X034048D01*
X033996Y009501D01*
X029035Y010738D02*
X029245D01*
X02914D01*
Y010423D01*
X02935D02*
Y010738D01*
X029508D01*
X02956Y010686D01*
Y010581D01*
X029508Y010528D01*
X02935D01*
X029875Y010423D02*
X029665D01*
X029875Y010633D01*
Y010686D01*
X029823Y010738D01*
X029718D01*
X029665Y010686D01*
X016033Y021713D02*
X016243D01*
X016138D01*
Y021398D01*
X016348D02*
Y021713D01*
X016506D01*
X016558Y02166D01*
Y021555D01*
X016506Y021503D01*
X016348D01*
X016663Y02145D02*
X016716Y021398D01*
X016821D01*
X016873Y02145D01*
Y02166D01*
X016821Y021713D01*
X016716D01*
X016663Y02166D01*
Y021608D01*
X016716Y021555D01*
X016873D01*
X03312Y01063D02*
Y010367D01*
X033173Y010315D01*
X033278D01*
X03333Y010367D01*
Y01063D01*
X033435Y010577D02*
X033487Y01063D01*
X033592D01*
X033645Y010577D01*
Y010525D01*
X033592Y010472D01*
X033645Y01042D01*
Y010367D01*
X033592Y010315D01*
X033487D01*
X033435Y010367D01*
Y01042D01*
X033487Y010472D01*
X033435Y010525D01*
Y010577D01*
X033487Y010472D02*
X033592D01*
X023091Y016053D02*
Y015791D01*
X023143Y015738D01*
X023248D01*
X0233Y015791D01*
Y016053D01*
X023405D02*
X023615D01*
Y016001D01*
X023405Y015791D01*
Y015738D01*
X026014Y010039D02*
Y009777D01*
X026066Y009724D01*
X026171D01*
X026224Y009777D01*
Y010039D01*
X026539D02*
X026329D01*
Y009882D01*
X026434Y009934D01*
X026486D01*
X026539Y009882D01*
Y009777D01*
X026486Y009724D01*
X026381D01*
X026329Y009777D01*
X0225Y015246D02*
Y015561D01*
X022657D01*
X02271Y015508D01*
Y015403D01*
X022657Y015351D01*
X0225D01*
X022605D02*
X02271Y015246D01*
X022972D02*
Y015561D01*
X022815Y015403D01*
X023025D01*
X02334Y015561D02*
X023235Y015508D01*
X02313Y015403D01*
Y015299D01*
X023182Y015246D01*
X023287D01*
X02334Y015299D01*
Y015351D01*
X023287Y015403D01*
X02313D01*
X016427Y018622D02*
Y018937D01*
X016585D01*
X016637Y018884D01*
Y018779D01*
X016585Y018727D01*
X016427D01*
X016532D02*
X016637Y018622D01*
X016899D02*
Y018937D01*
X016742Y018779D01*
X016952D01*
X017267Y018937D02*
X017057D01*
Y018779D01*
X017162Y018832D01*
X017214D01*
X017267Y018779D01*
Y018675D01*
X017214Y018622D01*
X017109D01*
X017057Y018675D01*
X023327Y017382D02*
X023104Y017605D01*
X023215Y017716D01*
X02329D01*
X023364Y017642D01*
X023364Y017567D01*
X023253Y017456D01*
X023327Y01753D02*
X023475D01*
X023661Y017716D02*
X023438Y017938D01*
X023438Y017716D01*
X023587Y017864D01*
Y018013D02*
X023587Y018087D01*
X023661Y018161D01*
X023735D01*
X023772Y018124D01*
Y01805D01*
X023735Y018013D01*
X023772Y01805D01*
X023846Y01805D01*
X023883Y018013D01*
X023883Y017938D01*
X023809Y017864D01*
X023735D01*
X023583Y014085D02*
Y014399D01*
X02374D01*
X023793Y014347D01*
Y014242D01*
X02374Y01419D01*
X023583D01*
X023688D02*
X023793Y014085D01*
X024055D02*
Y014399D01*
X023898Y014242D01*
X024107D01*
X024422Y014085D02*
X024212D01*
X024422Y014295D01*
Y014347D01*
X02437Y014399D01*
X024265D01*
X024212Y014347D01*
X031004Y007461D02*
X030689D01*
Y007618D01*
X030742Y007671D01*
X030847D01*
X030899Y007618D01*
Y007461D01*
Y007566D02*
X031004Y007671D01*
Y007933D02*
X030689D01*
X030847Y007775D01*
Y007985D01*
X031004Y00809D02*
Y008195D01*
Y008143D01*
X030689D01*
X030742Y00809D01*
X032037Y006663D02*
X031723D01*
Y006821D01*
X031775Y006873D01*
X03188D01*
X031932Y006821D01*
Y006663D01*
Y006768D02*
X032037Y006873D01*
Y007136D02*
X031723D01*
X03188Y006978D01*
Y007188D01*
X031775Y007293D02*
X031723Y007346D01*
Y007451D01*
X031775Y007503D01*
X031985D01*
X032037Y007451D01*
Y007346D01*
X031985Y007293D01*
X031775D01*
X03249Y006713D02*
X032175D01*
Y00687D01*
X032228Y006923D01*
X032333D01*
X032385Y00687D01*
Y006713D01*
Y006818D02*
X03249Y006923D01*
X032228Y007027D02*
X032175Y00708D01*
Y007185D01*
X032228Y007237D01*
X03228D01*
X032333Y007185D01*
Y007132D01*
Y007185D01*
X032385Y007237D01*
X032438D01*
X03249Y007185D01*
Y00708D01*
X032438Y007027D01*
X032175Y007342D02*
Y007552D01*
X032228D01*
X032438Y007342D01*
X03249D01*
X0325Y012648D02*
Y012962D01*
X032657D01*
X03271Y01291D01*
Y012805D01*
X032657Y012753D01*
X0325D01*
X032605D02*
X03271Y012648D01*
X032815Y01291D02*
X032867Y012962D01*
X032972D01*
X033025Y01291D01*
Y012858D01*
X032972Y012805D01*
X03292D01*
X032972D01*
X033025Y012753D01*
Y0127D01*
X032972Y012648D01*
X032867D01*
X032815Y0127D01*
X03334Y012962D02*
X03313D01*
Y012805D01*
X033235Y012858D01*
X033287D01*
X03334Y012805D01*
Y0127D01*
X033287Y012648D01*
X033182D01*
X03313Y0127D01*
X029006Y016053D02*
X028691D01*
Y016211D01*
X028744Y016263D01*
X028848D01*
X028901Y016211D01*
Y016053D01*
Y016158D02*
X029006Y016263D01*
X028744Y016368D02*
X028691Y01642D01*
Y016525D01*
X028744Y016578D01*
X028796D01*
X028848Y016525D01*
Y016473D01*
Y016525D01*
X028901Y016578D01*
X028953D01*
X029006Y016525D01*
Y01642D01*
X028953Y016368D01*
X028744Y016683D02*
X028691Y016735D01*
Y01684D01*
X028744Y016893D01*
X028796D01*
X028848Y01684D01*
Y016788D01*
Y01684D01*
X028901Y016893D01*
X028953D01*
X029006Y01684D01*
Y016735D01*
X028953Y016683D01*
X029055Y017244D02*
X02874D01*
Y017402D01*
X028793Y017454D01*
X028898D01*
X02895Y017402D01*
Y017244D01*
Y017349D02*
X029055Y017454D01*
X028793Y017559D02*
X02874Y017611D01*
Y017716D01*
X028793Y017769D01*
X028845D01*
X028898Y017716D01*
Y017664D01*
Y017716D01*
X02895Y017769D01*
X029003D01*
X029055Y017716D01*
Y017611D01*
X029003Y017559D01*
X029055Y018084D02*
Y017874D01*
X028845Y018084D01*
X028793D01*
X02874Y018031D01*
Y017926D01*
X028793Y017874D01*
X025187Y016526D02*
X024872D01*
Y016683D01*
X024925Y016736D01*
X02503D01*
X025082Y016683D01*
Y016526D01*
Y016631D02*
X025187Y016736D01*
X024925Y01684D02*
X024872Y016893D01*
Y016998D01*
X024925Y01705D01*
X024977D01*
X02503Y016998D01*
Y016945D01*
Y016998D01*
X025082Y01705D01*
X025135D01*
X025187Y016998D01*
Y016893D01*
X025135Y01684D01*
X024925Y017155D02*
X024872Y017208D01*
Y017313D01*
X024925Y017365D01*
X025135D01*
X025187Y017313D01*
Y017208D01*
X025135Y017155D01*
X024925D01*
X024587Y007549D02*
X024272D01*
Y007707D01*
X024324Y007759D01*
X024429D01*
X024482Y007707D01*
Y007549D01*
Y007654D02*
X024587Y007759D01*
Y008074D02*
Y007864D01*
X024377Y008074D01*
X024324D01*
X024272Y008022D01*
Y007917D01*
X024324Y007864D01*
X024534Y008179D02*
X024587Y008231D01*
Y008336D01*
X024534Y008389D01*
X024324D01*
X024272Y008336D01*
Y008231D01*
X024324Y008179D01*
X024377D01*
X024429Y008231D01*
Y008389D01*
X024833Y009567D02*
Y009882D01*
X02499D01*
X025043Y009829D01*
Y009724D01*
X02499Y009672D01*
X024833D01*
X024938D02*
X025043Y009567D01*
X025357D02*
X025148D01*
X025357Y009777D01*
Y009829D01*
X025305Y009882D01*
X0252D01*
X025148Y009829D01*
X025672Y009882D02*
X025462D01*
Y009724D01*
X025567Y009777D01*
X02562D01*
X025672Y009724D01*
Y009619D01*
X02562Y009567D01*
X025515D01*
X025462Y009619D01*
X026781Y010354D02*
Y010669D01*
X026939D01*
X026991Y010617D01*
Y010512D01*
X026939Y010459D01*
X026781D01*
X026886D02*
X026991Y010354D01*
X027096D02*
X027201D01*
X027149D01*
Y010669D01*
X027096Y010617D01*
X027569Y010669D02*
X027359D01*
Y010512D01*
X027464Y010564D01*
X027516D01*
X027569Y010512D01*
Y010407D01*
X027516Y010354D01*
X027411D01*
X027359Y010407D01*
X026093Y017559D02*
Y017874D01*
X026197Y017769D01*
X026302Y017874D01*
Y017559D01*
X026617Y017874D02*
X026407D01*
Y017716D01*
X026512Y017769D01*
X026565D01*
X026617Y017716D01*
Y017612D01*
X026565Y017559D01*
X02646D01*
X026407Y017612D01*
X031083Y018327D02*
Y018012D01*
X031293D01*
X031607D02*
X031398D01*
X031607Y018222D01*
Y018274D01*
X031555Y018327D01*
X03145D01*
X031398Y018274D01*
X02076Y012445D02*
X020708Y012497D01*
X020603D01*
X02055Y012445D01*
Y012235D01*
X020603Y012183D01*
X020708D01*
X02076Y012235D01*
X021075Y012497D02*
X020865D01*
Y01234D01*
X02097Y012392D01*
X021023D01*
X021075Y01234D01*
Y012235D01*
X021023Y012183D01*
X020918D01*
X020865Y012235D01*
X02139Y012183D02*
X02118D01*
X02139Y012392D01*
Y012445D01*
X021337Y012497D01*
X021233D01*
X02118Y012445D01*
X016529Y019787D02*
X016476Y019734D01*
Y019629D01*
X016529Y019577D01*
X016739D01*
X016791Y019629D01*
Y019734D01*
X016739Y019787D01*
X016476Y020102D02*
Y019892D01*
X016634D01*
X016581Y019997D01*
Y020049D01*
X016634Y020102D01*
X016739D01*
X016791Y020049D01*
Y019944D01*
X016739Y019892D01*
X016529Y020206D02*
X016476Y020259D01*
Y020364D01*
X016529Y020416D01*
X016739D01*
X016791Y020364D01*
Y020259D01*
X016739Y020206D01*
X016529D01*
X022237Y017034D02*
X022185Y017087D01*
X02208D01*
X022028Y017034D01*
Y016824D01*
X02208Y016772D01*
X022185D01*
X022237Y016824D01*
X0225Y016772D02*
Y017087D01*
X022342Y016929D01*
X022552D01*
X022867Y017087D02*
X022762Y017034D01*
X022657Y016929D01*
Y016824D01*
X02271Y016772D01*
X022815D01*
X022867Y016824D01*
Y016877D01*
X022815Y016929D01*
X022657D01*
X029629Y011273D02*
X029577Y01122D01*
Y011115D01*
X029629Y011063D01*
X029839D01*
X029892Y011115D01*
Y01122D01*
X029839Y011273D01*
X029892Y011535D02*
X029577D01*
X029734Y011378D01*
Y011588D01*
X029629Y011693D02*
X029577Y011745D01*
Y01185D01*
X029629Y011903D01*
X029682D01*
X029734Y01185D01*
Y011798D01*
Y01185D01*
X029787Y011903D01*
X029839D01*
X029892Y01185D01*
Y011745D01*
X029839Y011693D01*
X033291Y008156D02*
X033238Y008209D01*
X033133D01*
X033081Y008156D01*
Y007946D01*
X033133Y007894D01*
X033238D01*
X033291Y007946D01*
X033553Y007894D02*
Y008209D01*
X033396Y008051D01*
X033605D01*
X03392Y007894D02*
X03371D01*
X03392Y008104D01*
Y008156D01*
X033868Y008209D01*
X033763D01*
X03371Y008156D01*
X033173Y011775D02*
X03312Y011722D01*
Y011617D01*
X033173Y011565D01*
X033383D01*
X033435Y011617D01*
Y011722D01*
X033383Y011775D01*
X033435Y012037D02*
X03312D01*
X033278Y01188D01*
Y01209D01*
X033435Y012195D02*
Y0123D01*
Y012247D01*
X03312D01*
X033173Y012195D01*
X031509Y01292D02*
X031457Y012972D01*
X031352D01*
X031299Y01292D01*
Y01271D01*
X031352Y012657D01*
X031457D01*
X031509Y01271D01*
X031772Y012657D02*
Y012972D01*
X031614Y012815D01*
X031824D01*
X031929Y01292D02*
X031981Y012972D01*
X032086D01*
X032139Y01292D01*
Y01271D01*
X032086Y012657D01*
X031981D01*
X031929Y01271D01*
Y01292D01*
X025722Y007779D02*
X025669Y007726D01*
Y007621D01*
X025722Y007569D01*
X025932D01*
X025984Y007621D01*
Y007726D01*
X025932Y007779D01*
X025722Y007884D02*
X025669Y007936D01*
Y008041D01*
X025722Y008094D01*
X025774D01*
X025827Y008041D01*
Y007989D01*
Y008041D01*
X025879Y008094D01*
X025932D01*
X025984Y008041D01*
Y007936D01*
X025932Y007884D01*
X025722Y008199D02*
X025669Y008251D01*
Y008356D01*
X025722Y008409D01*
X025774D01*
X025827Y008356D01*
Y008304D01*
Y008356D01*
X025879Y008409D01*
X025932D01*
X025984Y008356D01*
Y008251D01*
X025932Y008199D01*
X024058Y008934D02*
X024006Y008986D01*
X023901D01*
X023848Y008934D01*
Y008724D01*
X023901Y008671D01*
X024006D01*
X024058Y008724D01*
X024163Y008934D02*
X024216Y008986D01*
X024321D01*
X024373Y008934D01*
Y008881D01*
X024321Y008829D01*
X024268D01*
X024321D01*
X024373Y008776D01*
Y008724D01*
X024321Y008671D01*
X024216D01*
X024163Y008724D01*
X024688Y008671D02*
X024478D01*
X024688Y008881D01*
Y008934D01*
X024636Y008986D01*
X024531D01*
X024478Y008934D01*
X031716Y008717D02*
X031663Y00877D01*
X031558D01*
X031506Y008717D01*
Y008507D01*
X031558Y008455D01*
X031663D01*
X031716Y008507D01*
X032031Y008455D02*
X031821D01*
X032031Y008665D01*
Y008717D01*
X031978Y00877D01*
X031873D01*
X031821Y008717D01*
X032136Y008507D02*
X032188Y008455D01*
X032293D01*
X032346Y008507D01*
Y008717D01*
X032293Y00877D01*
X032188D01*
X032136Y008717D01*
Y008665D01*
X032188Y008612D01*
X032346D01*
X028586Y006857D02*
X028533Y006909D01*
X028428D01*
X028376Y006857D01*
Y006647D01*
X028428Y006594D01*
X028533D01*
X028586Y006647D01*
X028901Y006594D02*
X028691D01*
X028901Y006804D01*
Y006857D01*
X028848Y006909D01*
X028743D01*
X028691Y006857D01*
X029006D02*
X029058Y006909D01*
X029163D01*
X029216Y006857D01*
Y006804D01*
X029163Y006752D01*
X029216Y006699D01*
Y006647D01*
X029163Y006594D01*
X029058D01*
X029006Y006647D01*
Y006699D01*
X029058Y006752D01*
X029006Y006804D01*
Y006857D01*
X029058Y006752D02*
X029163D01*
X026489Y007005D02*
X026437Y007057D01*
X026332D01*
X02628Y007005D01*
Y006795D01*
X026332Y006742D01*
X026437D01*
X026489Y006795D01*
X026804Y006742D02*
X026594D01*
X026804Y006952D01*
Y007005D01*
X026752Y007057D01*
X026647D01*
X026594Y007005D01*
X026909Y007057D02*
X027119D01*
Y007005D01*
X026909Y006795D01*
Y006742D01*
X019291Y022844D02*
Y022582D01*
X019344Y02253D01*
X019449D01*
X019501Y022582D01*
Y022844D01*
X019764Y02253D02*
Y022844D01*
X019606Y022687D01*
X019816D01*
X013661Y023484D02*
Y023222D01*
X013714Y023169D01*
X013819D01*
X013871Y023222D01*
Y023484D01*
X014186Y023169D02*
X013976D01*
X014186Y023379D01*
Y023432D01*
X014134Y023484D01*
X014029D01*
X013976Y023432D01*
X01378Y018366D02*
Y018104D01*
X013832Y018051D01*
X013937D01*
X013989Y018104D01*
Y018366D01*
X014094Y018051D02*
X014199D01*
X014147D01*
Y018366D01*
X014094Y018314D01*
X020098Y02063D02*
Y020945D01*
X020256D01*
X020308Y020892D01*
Y020787D01*
X020256Y020735D01*
X020098D01*
X020203D02*
X020308Y02063D01*
X020623D02*
X020413D01*
X020623Y02084D01*
Y020892D01*
X020571Y020945D01*
X020466D01*
X020413Y020892D01*
X020886Y02063D02*
Y020945D01*
X020728Y020787D01*
X020938D01*
X021201Y02003D02*
Y020344D01*
X021358D01*
X021411Y020292D01*
Y020187D01*
X021358Y020134D01*
X021201D01*
X021306D02*
X021411Y02003D01*
X021726D02*
X021516D01*
X021726Y020239D01*
Y020292D01*
X021673Y020344D01*
X021568D01*
X021516Y020292D01*
X02204Y02003D02*
X02183D01*
X02204Y020239D01*
Y020292D01*
X021988Y020344D01*
X021883D01*
X02183Y020292D01*
X017825Y010807D02*
Y011122D01*
X017982D01*
X018035Y011069D01*
Y010965D01*
X017982Y010912D01*
X017825D01*
X01793D02*
X018035Y010807D01*
X01835D02*
X01814D01*
X01835Y011017D01*
Y011069D01*
X018297Y011122D01*
X018192D01*
X01814Y011069D01*
X018455Y010807D02*
X018559D01*
X018507D01*
Y011122D01*
X018455Y011069D01*
X013593Y010659D02*
Y010974D01*
X01375D01*
X013802Y010922D01*
Y010817D01*
X01375Y010764D01*
X013593D01*
X013697D02*
X013802Y010659D01*
X014117D02*
X013907D01*
X014117Y010869D01*
Y010922D01*
X014065Y010974D01*
X01396D01*
X013907Y010922D01*
X014222D02*
X014275Y010974D01*
X01438D01*
X014432Y010922D01*
Y010712D01*
X01438Y010659D01*
X014275D01*
X014222Y010712D01*
Y010922D01*
X010797Y01628D02*
X010482D01*
Y016437D01*
X010535Y016489D01*
X01064D01*
X010692Y016437D01*
Y01628D01*
Y016384D02*
X010797Y016489D01*
Y016594D02*
Y016699D01*
Y016647D01*
X010482D01*
X010535Y016594D01*
X010745Y016857D02*
X010797Y016909D01*
Y017014D01*
X010745Y017067D01*
X010535D01*
X010482Y017014D01*
Y016909D01*
X010535Y016857D01*
X010587D01*
X01064Y016909D01*
Y017067D01*
X019242Y011634D02*
Y011949D01*
X0194D01*
X019452Y011896D01*
Y011791D01*
X0194Y011739D01*
X019242D01*
X019347D02*
X019452Y011634D01*
X019714D02*
Y011949D01*
X019557Y011791D01*
X019767D01*
X018937Y010482D02*
Y010797D01*
X019094D01*
X019147Y010745D01*
Y01064D01*
X019094Y010587D01*
X018937D01*
X019042D02*
X019147Y010482D01*
X019252Y010745D02*
X019304Y010797D01*
X019409D01*
X019462Y010745D01*
Y010692D01*
X019409Y01064D01*
X019357D01*
X019409D01*
X019462Y010587D01*
Y010535D01*
X019409Y010482D01*
X019304D01*
X019252Y010535D01*
X011004Y02063D02*
Y020945D01*
X011161D01*
X011214Y020892D01*
Y020787D01*
X011161Y020735D01*
X011004D01*
X011109D02*
X011214Y02063D01*
X011319D02*
X011424D01*
X011371D01*
Y020945D01*
X011319Y020892D01*
X019669Y019048D02*
X019616Y018996D01*
Y018891D01*
X019669Y018839D01*
X019879D01*
X019931Y018891D01*
Y018996D01*
X019879Y019048D01*
X019931Y019363D02*
Y019153D01*
X019721Y019363D01*
X019669D01*
X019616Y019311D01*
Y019206D01*
X019669Y019153D01*
X019931Y019468D02*
Y019573D01*
Y019521D01*
X019616D01*
X019669Y019468D01*
X018507Y023195D02*
X018455Y023248D01*
X01835D01*
X018297Y023195D01*
Y022986D01*
X01835Y022933D01*
X018455D01*
X018507Y022986D01*
X018822Y022933D02*
X018612D01*
X018822Y023143D01*
Y023195D01*
X01877Y023248D01*
X018665D01*
X018612Y023195D01*
X018927D02*
X018979Y023248D01*
X019084D01*
X019137Y023195D01*
Y022986D01*
X019084Y022933D01*
X018979D01*
X018927Y022986D01*
Y023195D01*
X017995Y021394D02*
X017943Y021447D01*
X017838D01*
X017785Y021394D01*
Y021184D01*
X017838Y021132D01*
X017943D01*
X017995Y021184D01*
X0181Y021132D02*
X018205D01*
X018153D01*
Y021447D01*
X0181Y021394D01*
X018363D02*
X018415Y021447D01*
X01852D01*
X018573Y021394D01*
Y021342D01*
X01852Y021289D01*
X018573Y021237D01*
Y021184D01*
X01852Y021132D01*
X018415D01*
X018363Y021184D01*
Y021237D01*
X018415Y021289D01*
X018363Y021342D01*
Y021394D01*
X018415Y021289D02*
X01852D01*
X021204Y008901D02*
X021152Y008848D01*
Y008743D01*
X021204Y008691D01*
X021414D01*
X021467Y008743D01*
Y008848D01*
X021414Y008901D01*
X021467Y009006D02*
Y009111D01*
Y009058D01*
X021152D01*
X021204Y009006D01*
X021152Y009268D02*
Y009478D01*
X021204D01*
X021414Y009268D01*
X021467D01*
X016608Y00919D02*
X016555Y009242D01*
X01645D01*
X016398Y00919D01*
Y00898D01*
X01645Y008927D01*
X016555D01*
X016608Y00898D01*
X016712Y008927D02*
X016817D01*
X016765D01*
Y009242D01*
X016712Y00919D01*
X017185Y009242D02*
X01708Y00919D01*
X016975Y009085D01*
Y00898D01*
X017027Y008927D01*
X017132D01*
X017185Y00898D01*
Y009032D01*
X017132Y009085D01*
X016975D01*
X013744Y008812D02*
X013691Y00876D01*
Y008655D01*
X013744Y008602D01*
X013953D01*
X014006Y008655D01*
Y00876D01*
X013953Y008812D01*
X014006Y008917D02*
Y009022D01*
Y00897D01*
X013691D01*
X013744Y008917D01*
X013691Y00939D02*
Y00918D01*
X013848D01*
X013796Y009285D01*
Y009337D01*
X013848Y00939D01*
X013953D01*
X014006Y009337D01*
Y009232D01*
X013953Y00918D01*
X012661Y008773D02*
X012608Y00872D01*
Y008615D01*
X012661Y008563D01*
X012871D01*
X012923Y008615D01*
Y00872D01*
X012871Y008773D01*
X012923Y008878D02*
Y008983D01*
Y00893D01*
X012608D01*
X012661Y008878D01*
X012923Y009298D02*
X012608D01*
X012766Y00914D01*
Y00935D01*
X01145Y0233D02*
X011398Y023248D01*
Y023143D01*
X01145Y023091D01*
X01166D01*
X011713Y023143D01*
Y023248D01*
X01166Y0233D01*
X011713Y023405D02*
Y02351D01*
Y023458D01*
X011398D01*
X01145Y023405D01*
Y023668D02*
X011398Y02372D01*
Y023825D01*
X01145Y023878D01*
X011503D01*
X011555Y023825D01*
Y023773D01*
Y023825D01*
X011608Y023878D01*
X01166D01*
X011713Y023825D01*
Y02372D01*
X01166Y023668D01*
X010545Y021887D02*
X010492Y021939D01*
Y022044D01*
X010545Y022096D01*
X010755D01*
X010807Y022044D01*
Y021939D01*
X010755Y021887D01*
X010807Y021782D02*
Y021677D01*
Y021729D01*
X010492D01*
X010545Y021782D01*
X010807Y021519D02*
Y021414D01*
Y021467D01*
X010492D01*
X010545Y021519D01*
X010604Y015358D02*
X010551Y015305D01*
Y0152D01*
X010604Y015148D01*
X010814D01*
X010866Y0152D01*
Y015305D01*
X010814Y015358D01*
X010551Y015462D02*
Y015672D01*
X010604D01*
X010814Y015462D01*
X010866D01*
X010781Y013202D02*
X010728Y01315D01*
Y013045D01*
X010781Y012992D01*
X010991D01*
X011043Y013045D01*
Y01315D01*
X010991Y013202D01*
X010728Y013517D02*
X010781Y013412D01*
X010886Y013307D01*
X010991D01*
X011043Y013359D01*
Y013464D01*
X010991Y013517D01*
X010938D01*
X010886Y013464D01*
Y013307D01*
X017001Y010125D02*
X016949Y010177D01*
X016844D01*
X016791Y010125D01*
Y009915D01*
X016844Y009862D01*
X016949D01*
X017001Y009915D01*
X017316Y010177D02*
X017106D01*
Y01002D01*
X017211Y010072D01*
X017264D01*
X017316Y01002D01*
Y009915D01*
X017264Y009862D01*
X017159D01*
X017106Y009915D01*
X019216Y013891D02*
X019163Y013839D01*
Y013734D01*
X019216Y013681D01*
X019426D01*
X019478Y013734D01*
Y013839D01*
X019426Y013891D01*
X019478Y014153D02*
X019163D01*
X019321Y013996D01*
Y014206D01*
X018753Y016155D02*
X018701Y016102D01*
Y015997D01*
X018753Y015945D01*
X018963D01*
X019016Y015997D01*
Y016102D01*
X018963Y016155D01*
X018753Y01626D02*
X018701Y016312D01*
Y016417D01*
X018753Y01647D01*
X018806D01*
X018858Y016417D01*
Y016365D01*
Y016417D01*
X018911Y01647D01*
X018963D01*
X019016Y016417D01*
Y016312D01*
X018963Y01626D01*
X021253Y024167D02*
X021201Y024114D01*
Y024009D01*
X021253Y023957D01*
X021463D01*
X021516Y024009D01*
Y024114D01*
X021463Y024167D01*
X021516Y024481D02*
Y024272D01*
X021306Y024481D01*
X021253D01*
X021201Y024429D01*
Y024324D01*
X021253Y024272D01*
X011224Y02288D02*
X011171Y022933D01*
X011066D01*
X011014Y02288D01*
Y022671D01*
X011066Y022618D01*
X011171D01*
X011224Y022671D01*
X011329Y022618D02*
X011434D01*
X011381D01*
Y022933D01*
X011329Y02288D01*
X019275Y024541D02*
X019223Y024488D01*
Y024383D01*
X019275Y024331D01*
X019485D01*
X019537Y024383D01*
Y024488D01*
X019485Y024541D01*
X019537Y024855D02*
Y024646D01*
X019327Y024855D01*
X019275D01*
X019223Y024803D01*
Y024698D01*
X019275Y024646D01*
Y02496D02*
X019223Y025013D01*
Y025118D01*
X019275Y02517D01*
X019327D01*
X01938Y025118D01*
Y025065D01*
Y025118D01*
X019432Y02517D01*
X019485D01*
X019537Y025118D01*
Y025013D01*
X019485Y02496D01*
X018248Y023799D02*
Y024114D01*
X018405D01*
X018458Y024062D01*
Y023957D01*
X018405Y023904D01*
X018248D01*
X018353D02*
X018458Y023799D01*
X018773D02*
X018563D01*
X018773Y024009D01*
Y024062D01*
X01872Y024114D01*
X018615D01*
X018563Y024062D01*
X019088Y024114D02*
X018983Y024062D01*
X018878Y023957D01*
Y023852D01*
X01893Y023799D01*
X019035D01*
X019088Y023852D01*
Y023904D01*
X019035Y023957D01*
X018878D01*
X015358Y010282D02*
X015305Y010335D01*
X0152D01*
X015148Y010282D01*
Y010072D01*
X0152Y01002D01*
X015305D01*
X015358Y010072D01*
X015672Y01002D02*
X015462D01*
X015672Y01023D01*
Y010282D01*
X01562Y010335D01*
X015515D01*
X015462Y010282D01*
X015987Y010335D02*
X015777D01*
Y010177D01*
X015882Y01023D01*
X015935D01*
X015987Y010177D01*
Y010072D01*
X015935Y01002D01*
X01583D01*
X015777Y010072D01*
X013616Y024413D02*
X013563Y02436D01*
Y024255D01*
X013616Y024203D01*
X013825D01*
X013878Y024255D01*
Y02436D01*
X013825Y024413D01*
X013878Y024518D02*
Y024623D01*
Y02457D01*
X013563D01*
X013616Y024518D01*
Y02478D02*
X013563Y024832D01*
Y024937D01*
X013616Y02499D01*
X013825D01*
X013878Y024937D01*
Y024832D01*
X013825Y02478D01*
X013616D01*
X017953Y021841D02*
X017638D01*
Y021998D01*
X01769Y02205D01*
X017795D01*
X017848Y021998D01*
Y021841D01*
Y021946D02*
X017953Y02205D01*
Y022365D02*
Y022155D01*
X017743Y022365D01*
X01769D01*
X017638Y022313D01*
Y022208D01*
X01769Y022155D01*
Y02247D02*
X017638Y022523D01*
Y022628D01*
X01769Y02268D01*
X017743D01*
X017795Y022628D01*
Y022575D01*
Y022628D01*
X017848Y02268D01*
X0179D01*
X017953Y022628D01*
Y022523D01*
X0179Y02247D01*
X022129Y013629D02*
X022077Y013681D01*
X021972D01*
X021919Y013629D01*
Y013419D01*
X021972Y013366D01*
X022077D01*
X022129Y013419D01*
X022444Y013681D02*
X022234D01*
Y013524D01*
X022339Y013576D01*
X022392D01*
X022444Y013524D01*
Y013419D01*
X022392Y013366D01*
X022287D01*
X022234Y013419D01*
X022549Y013681D02*
X022759D01*
Y013629D01*
X022549Y013419D01*
Y013366D01*
X019587Y012648D02*
Y012333D01*
X019744D01*
X019797Y012385D01*
Y012595D01*
X019744Y012648D01*
X019587D01*
X019901Y012333D02*
X020006D01*
X019954D01*
Y012648D01*
X019901Y012595D01*
X020164Y012333D02*
X020269D01*
X020216D01*
Y012648D01*
X020164Y012595D01*
X020896Y014882D02*
Y015197D01*
X021053D01*
X021106Y015144D01*
Y015039D01*
X021053Y014987D01*
X020896D01*
X021001D02*
X021106Y014882D01*
X02142Y015197D02*
X021211D01*
Y015039D01*
X021315Y015092D01*
X021368D01*
X02142Y015039D01*
Y014934D01*
X021368Y014882D01*
X021263D01*
X021211Y014934D01*
X021735Y015197D02*
X02163Y015144D01*
X021525Y015039D01*
Y014934D01*
X021578Y014882D01*
X021683D01*
X021735Y014934D01*
Y014987D01*
X021683Y015039D01*
X021525D01*
X02939Y024439D02*
Y024754D01*
X029495Y024649D01*
X0296Y024754D01*
Y024439D01*
X029705Y024754D02*
X029915D01*
Y024701D01*
X029705Y024491D01*
Y024439D01*
X021762Y025217D02*
Y025531D01*
X021867Y025426D01*
X021972Y025531D01*
Y025217D01*
X022077D02*
X022182D01*
X022129D01*
Y025531D01*
X022077Y025479D01*
X022339D02*
X022392Y025531D01*
X022496D01*
X022549Y025479D01*
Y025269D01*
X022496Y025217D01*
X022392D01*
X022339Y025269D01*
Y025479D01*
X020315Y019547D02*
Y019862D01*
X020472D01*
X020525Y01981D01*
Y019705D01*
X020472Y019652D01*
X020315D01*
X02042D02*
X020525Y019547D01*
X02084Y019862D02*
X02063D01*
Y019705D01*
X020735Y019757D01*
X020787D01*
X02084Y019705D01*
Y0196D01*
X020787Y019547D01*
X020682D01*
X02063Y0196D01*
X020945Y01981D02*
X020997Y019862D01*
X021102D01*
X021155Y01981D01*
Y019757D01*
X021102Y019705D01*
X021155Y019652D01*
Y0196D01*
X021102Y019547D01*
X020997D01*
X020945Y0196D01*
Y019652D01*
X020997Y019705D01*
X020945Y019757D01*
Y01981D01*
X020997Y019705D02*
X021102D01*
X019813Y016063D02*
Y016378D01*
X01997D01*
X020023Y016325D01*
Y01622D01*
X01997Y016168D01*
X019813D01*
X019918D02*
X020023Y016063D01*
X020338Y016378D02*
X020128D01*
Y01622D01*
X020233Y016273D01*
X020285D01*
X020338Y01622D01*
Y016115D01*
X020285Y016063D01*
X02018D01*
X020128Y016115D01*
X020443D02*
X020495Y016063D01*
X0206D01*
X020653Y016115D01*
Y016325D01*
X0206Y016378D01*
X020495D01*
X020443Y016325D01*
Y016273D01*
X020495Y01622D01*
X020653D01*
X02498Y022795D02*
X024665D01*
Y022953D01*
X024718Y023005D01*
X024823D01*
X024875Y022953D01*
Y022795D01*
Y0229D02*
X02498Y023005D01*
X024665Y02332D02*
X024718Y023215D01*
X024823Y02311D01*
X024928D01*
X02498Y023163D01*
Y023268D01*
X024928Y02332D01*
X024875D01*
X024823Y023268D01*
Y02311D01*
X02498Y023635D02*
Y023425D01*
X02477Y023635D01*
X024718D01*
X024665Y023582D01*
Y023477D01*
X024718Y023425D01*
X024675Y021437D02*
X02436D01*
Y021594D01*
X024413Y021647D01*
X024518D01*
X02457Y021594D01*
Y021437D01*
Y021542D02*
X024675Y021647D01*
X02436Y021962D02*
X024413Y021857D01*
X024518Y021752D01*
X024623D01*
X024675Y021804D01*
Y021909D01*
X024623Y021962D01*
X02457D01*
X024518Y021909D01*
Y021752D01*
X024413Y022067D02*
X02436Y022119D01*
Y022224D01*
X024413Y022277D01*
X024465D01*
X024518Y022224D01*
Y022172D01*
Y022224D01*
X02457Y022277D01*
X024623D01*
X024675Y022224D01*
Y022119D01*
X024623Y022067D01*
X024272Y022756D02*
X023957D01*
Y022913D01*
X024009Y022966D01*
X024114D01*
X024167Y022913D01*
Y022756D01*
Y022861D02*
X024272Y022966D01*
X023957Y023281D02*
X024009Y023176D01*
X024114Y023071D01*
X024219D01*
X024272Y023123D01*
Y023228D01*
X024219Y023281D01*
X024167D01*
X024114Y023228D01*
Y023071D01*
X023957Y023596D02*
Y023386D01*
X024114D01*
X024062Y023491D01*
Y023543D01*
X024114Y023596D01*
X024219D01*
X024272Y023543D01*
Y023438D01*
X024219Y023386D01*
X018671Y018661D02*
X018894Y018884D01*
X019005Y018773D01*
Y018699D01*
X018931Y018624D01*
X018857Y018624D01*
X018745Y018736D01*
X01882Y018661D02*
Y018513D01*
X019265D02*
X019154Y01855D01*
X019005D01*
X018931Y018476D01*
Y018402D01*
X019005Y018327D01*
X019079Y018327D01*
X019117Y018365D01*
X019117Y018439D01*
X019005Y01855D01*
X019488Y01829D02*
X019376Y018327D01*
X019228D01*
X019154Y018253D01*
Y018179D01*
X019228Y018105D01*
X019302Y018105D01*
X019339Y018142D01*
X019339Y018216D01*
X019228Y018327D01*
X017648Y017835D02*
Y018149D01*
X017805D01*
X017858Y018097D01*
Y017992D01*
X017805Y01794D01*
X017648D01*
X017753D02*
X017858Y017835D01*
X018172Y018149D02*
X018067Y018097D01*
X017962Y017992D01*
Y017887D01*
X018015Y017835D01*
X01812D01*
X018172Y017887D01*
Y01794D01*
X01812Y017992D01*
X017962D01*
X018277Y018097D02*
X01833Y018149D01*
X018435D01*
X018487Y018097D01*
Y018045D01*
X018435Y017992D01*
X018487Y01794D01*
Y017887D01*
X018435Y017835D01*
X01833D01*
X018277Y017887D01*
Y01794D01*
X01833Y017992D01*
X018277Y018045D01*
Y018097D01*
X01833Y017992D02*
X018435D01*
X029134Y021437D02*
Y021752D01*
X029239Y021647D01*
X029344Y021752D01*
Y021437D01*
X029659Y021752D02*
X029554Y021699D01*
X029449Y021594D01*
Y021489D01*
X029501Y021437D01*
X029606D01*
X029659Y021489D01*
Y021542D01*
X029606Y021594D01*
X029449D01*
X026309Y024754D02*
Y025069D01*
X026466D01*
X026519Y025016D01*
Y024911D01*
X026466Y024859D01*
X026309D01*
X026414D02*
X026519Y024754D01*
X026834Y025069D02*
X026729Y025016D01*
X026624Y024911D01*
Y024806D01*
X026676Y024754D01*
X026781D01*
X026834Y024806D01*
Y024859D01*
X026781Y024911D01*
X026624D01*
X028094Y010646D02*
X028041Y010699D01*
X027936D01*
X027884Y010646D01*
Y010436D01*
X027936Y010384D01*
X028041D01*
X028094Y010436D01*
X028199Y010646D02*
X028251Y010699D01*
X028356D01*
X028409Y010646D01*
Y010594D01*
X028356Y010541D01*
X028304D01*
X028356D01*
X028409Y010489D01*
Y010436D01*
X028356Y010384D01*
X028251D01*
X028199Y010436D01*
X028671Y010384D02*
Y010699D01*
X028514Y010541D01*
X028723D01*
X019186Y018901D02*
X019134Y018848D01*
Y018743D01*
X019186Y018691D01*
X019396D01*
X019449Y018743D01*
Y018848D01*
X019396Y018901D01*
X019134Y019216D02*
X019186Y019111D01*
X019291Y019006D01*
X019396D01*
X019449Y019058D01*
Y019163D01*
X019396Y019216D01*
X019344D01*
X019291Y019163D01*
Y019006D01*
X019449Y019531D02*
Y019321D01*
X019239Y019531D01*
X019186D01*
X019134Y019478D01*
Y019373D01*
X019186Y019321D01*
X017122Y02101D02*
X016937Y020825D01*
Y02075D01*
X017011Y020676D01*
X017085Y020676D01*
X017271Y020862D01*
X017122Y020565D02*
X017196Y020491D01*
X017159Y020528D01*
X017382Y02075D01*
X017308Y02075D01*
X017493Y020565D02*
X017568Y020565D01*
X017642Y020491D01*
Y020416D01*
X017493Y020268D01*
X017419Y020268D01*
X017345Y020342D01*
Y020416D01*
X017493Y020565D01*
X012402Y018209D02*
X012087D01*
Y018366D01*
X012139Y018419D01*
X012244D01*
X012297Y018366D01*
Y018209D01*
Y018314D02*
X012402Y018419D01*
X012087Y018524D02*
Y018733D01*
X012139D01*
X012349Y018524D01*
X012402D01*
X012087Y019048D02*
X012139Y018943D01*
X012244Y018838D01*
X012349D01*
X012402Y018891D01*
Y018996D01*
X012349Y019048D01*
X012297D01*
X012244Y018996D01*
Y018838D01*
X011211Y008012D02*
Y008327D01*
X011368D01*
X011421Y008274D01*
Y008169D01*
X011368Y008117D01*
X011211D01*
X011316D02*
X011421Y008012D01*
X011525Y008327D02*
X011735D01*
Y008274D01*
X011525Y008064D01*
Y008012D01*
X01184Y008274D02*
X011893Y008327D01*
X011998D01*
X01205Y008274D01*
Y008222D01*
X011998Y008169D01*
X01205Y008117D01*
Y008064D01*
X011998Y008012D01*
X011893D01*
X01184Y008064D01*
Y008117D01*
X011893Y008169D01*
X01184Y008222D01*
Y008274D01*
X011893Y008169D02*
X011998D01*
X010994Y010532D02*
Y010846D01*
X011152D01*
X011204Y010794D01*
Y010689D01*
X011152Y010636D01*
X010994D01*
X011099D02*
X011204Y010532D01*
X011309Y010846D02*
X011519D01*
Y010794D01*
X011309Y010584D01*
Y010532D01*
X011624Y010584D02*
X011676Y010532D01*
X011781D01*
X011834Y010584D01*
Y010794D01*
X011781Y010846D01*
X011676D01*
X011624Y010794D01*
Y010741D01*
X011676Y010689D01*
X011834D01*
X010984Y011024D02*
Y011338D01*
X011142D01*
X011194Y011286D01*
Y011181D01*
X011142Y011129D01*
X010984D01*
X011089D02*
X011194Y011024D01*
X011299Y011286D02*
X011352Y011338D01*
X011457D01*
X011509Y011286D01*
Y011234D01*
X011457Y011181D01*
X011509Y011129D01*
Y011076D01*
X011457Y011024D01*
X011352D01*
X011299Y011076D01*
Y011129D01*
X011352Y011181D01*
X011299Y011234D01*
Y011286D01*
X011352Y011181D02*
X011457D01*
X011614Y011286D02*
X011666Y011338D01*
X011771D01*
X011824Y011286D01*
Y011076D01*
X011771Y011024D01*
X011666D01*
X011614Y011076D01*
Y011286D01*
X010984Y011476D02*
Y011791D01*
X011142D01*
X011194Y011739D01*
Y011634D01*
X011142Y011581D01*
X010984D01*
X011089D02*
X011194Y011476D01*
X011299Y011739D02*
X011352Y011791D01*
X011457D01*
X011509Y011739D01*
Y011686D01*
X011457Y011634D01*
X011509Y011581D01*
Y011529D01*
X011457Y011476D01*
X011352D01*
X011299Y011529D01*
Y011581D01*
X011352Y011634D01*
X011299Y011686D01*
Y011739D01*
X011352Y011634D02*
X011457D01*
X011614Y011476D02*
X011719D01*
X011666D01*
Y011791D01*
X011614Y011739D01*
M02*
