G04 Layer_Color=8388736*
%FSTAX24Y24*%
%MOIN*%
G70*
G01*
G75*
%ADD102R,0.0532X0.0472*%
%ADD103R,0.0513X0.0828*%
%ADD104R,0.0277X0.0316*%
%ADD105R,0.0316X0.0277*%
%ADD106R,0.0434X0.0395*%
%ADD107R,0.0395X0.0434*%
%ADD108R,0.0533X0.0218*%
%ADD109R,0.0482X0.0482*%
%ADD110R,0.0879X0.0982*%
%ADD111R,0.0379X0.0631*%
%ADD112R,0.0789X0.0316*%
%ADD113R,0.0395X0.0434*%
%ADD114R,0.0960X0.0759*%
%ADD115R,0.0239X0.0379*%
%ADD116R,0.0239X0.0470*%
%ADD117R,0.0454X0.0572*%
%ADD118R,0.0474X0.0749*%
%ADD119R,0.0631X0.0415*%
%ADD120R,0.0789X0.0434*%
%ADD121R,0.0671X0.0198*%
%ADD122R,0.0198X0.0671*%
%ADD123R,0.1340X0.1340*%
%ADD124R,0.0316X0.0198*%
%ADD125R,0.0198X0.0316*%
%ADD126R,0.0434X0.0395*%
%ADD127R,0.1182X0.2167*%
%ADD128R,0.0434X0.0789*%
G04:AMPARAMS|DCode=129|XSize=27.7mil|YSize=31.6mil|CornerRadius=0mil|HoleSize=0mil|Usage=FLASHONLY|Rotation=225.000|XOffset=0mil|YOffset=0mil|HoleType=Round|Shape=Rectangle|*
%AMROTATEDRECTD129*
4,1,4,-0.0014,0.0210,0.0210,-0.0014,0.0014,-0.0210,-0.0210,0.0014,-0.0014,0.0210,0.0*
%
%ADD129ROTATEDRECTD129*%

%ADD130R,0.0919X0.1261*%
%ADD131R,0.0946X0.0277*%
%ADD132R,0.0316X0.0789*%
%ADD133R,0.1340X0.1045*%
%ADD134R,0.0257X0.0671*%
%ADD135C,0.0671*%
%ADD136R,0.0572X0.0454*%
%ADD137R,0.0946X0.0316*%
%ADD138R,0.0946X0.1458*%
%ADD139R,0.0247X0.0198*%
%ADD140R,0.0306X0.0169*%
%ADD141R,0.0474X0.0277*%
%ADD142R,0.0277X0.0474*%
%ADD143R,0.0190X0.0631*%
%ADD144R,0.0789X0.0552*%
%ADD145C,0.0119*%
%ADD146C,0.0580*%
%ADD147R,0.0580X0.0580*%
%ADD148C,0.0474*%
%ADD149C,0.0946*%
%ADD150R,0.0946X0.0946*%
%ADD151C,0.0730*%
%ADD152C,0.0330*%
G36*
X035Y006063D02*
X01D01*
Y026063D01*
X035D01*
Y006063D01*
D02*
G37*
%LPC*%
G36*
X034213Y025669D02*
X010787D01*
X010394Y025276D01*
Y00685D01*
X010787Y006457D01*
X034213D01*
X034606Y00685D01*
Y025276D01*
X034213Y025669D01*
D02*
G37*
%LPD*%
D102*
X025522Y015354D02*
D03*
X02499Y018002D02*
D03*
D103*
X013406Y010079D02*
D03*
X012461D02*
D03*
D104*
X013169Y008789D02*
D03*
X012776D02*
D03*
X013218Y009262D02*
D03*
X013612D02*
D03*
X012687D02*
D03*
X012293D02*
D03*
X011565Y008583D02*
D03*
X011171D02*
D03*
X011565Y009085D02*
D03*
X011171D02*
D03*
X011565Y009567D02*
D03*
X011171D02*
D03*
X011565Y010059D02*
D03*
X011171D02*
D03*
X021732Y016949D02*
D03*
X021339D02*
D03*
X017077Y019203D02*
D03*
X016683D02*
D03*
X032372Y012451D02*
D03*
X032766D02*
D03*
X02811Y010079D02*
D03*
X028504D02*
D03*
X019547Y017805D02*
D03*
X019154D02*
D03*
X015384Y01065D02*
D03*
X015778D02*
D03*
X018888Y023504D02*
D03*
X018494D02*
D03*
X011014Y022323D02*
D03*
X011407Y022323D02*
D03*
X017215Y010492D02*
D03*
X016821D02*
D03*
X011014Y021732D02*
D03*
X011407D02*
D03*
X018514Y022657D02*
D03*
X018907D02*
D03*
X011024Y021211D02*
D03*
X011417D02*
D03*
X018957Y011053D02*
D03*
X01935D02*
D03*
X018386Y010472D02*
D03*
X017992D02*
D03*
X030463Y008425D02*
D03*
X030856D02*
D03*
X025364Y00878D02*
D03*
X02497D02*
D03*
X031959Y012441D02*
D03*
X031565D02*
D03*
X020876Y011772D02*
D03*
X020482D02*
D03*
X027008Y010039D02*
D03*
X027402D02*
D03*
X025197Y009281D02*
D03*
X025591D02*
D03*
X024016Y015354D02*
D03*
X023622D02*
D03*
X022441Y020561D02*
D03*
X022835D02*
D03*
D105*
X012667Y01878D02*
D03*
Y018386D02*
D03*
X017077Y020108D02*
D03*
Y019715D02*
D03*
X011073Y016457D02*
D03*
Y01685D02*
D03*
X019301Y019764D02*
D03*
Y020157D02*
D03*
X01876Y017746D02*
D03*
Y01814D02*
D03*
X018199Y021713D02*
D03*
Y022106D02*
D03*
X020915Y02439D02*
D03*
Y023996D02*
D03*
X018789Y016752D02*
D03*
Y017146D02*
D03*
X018848Y01376D02*
D03*
X018848Y014154D02*
D03*
X010906Y012315D02*
D03*
Y012709D02*
D03*
X011122Y015148D02*
D03*
Y015541D02*
D03*
X011949Y022874D02*
D03*
Y023268D02*
D03*
X01748Y008917D02*
D03*
Y009311D02*
D03*
X020837Y009281D02*
D03*
Y008888D02*
D03*
X018671Y020935D02*
D03*
Y020541D02*
D03*
X019754Y020187D02*
D03*
Y019793D02*
D03*
X018957Y011644D02*
D03*
Y012037D02*
D03*
X025404Y008189D02*
D03*
Y007795D02*
D03*
X032795Y007982D02*
D03*
Y008376D02*
D03*
X024892Y007795D02*
D03*
Y008189D02*
D03*
X028465Y01748D02*
D03*
Y017874D02*
D03*
X028465Y016457D02*
D03*
Y01685D02*
D03*
X032283Y007785D02*
D03*
Y008179D02*
D03*
X031762Y007785D02*
D03*
Y008179D02*
D03*
X03126Y007785D02*
D03*
Y008179D02*
D03*
X023593Y021693D02*
D03*
Y022087D02*
D03*
X019498Y016811D02*
D03*
X019498Y017205D02*
D03*
X019508Y016427D02*
D03*
Y016033D02*
D03*
D106*
X020935Y014508D02*
D03*
X021644D02*
D03*
D107*
X023593Y022835D02*
D03*
Y023543D02*
D03*
X02499Y021476D02*
D03*
Y022185D02*
D03*
D108*
X017854Y019665D02*
D03*
Y019409D02*
D03*
Y019154D02*
D03*
X018602D02*
D03*
Y019409D02*
D03*
Y019665D02*
D03*
X018917Y021594D02*
D03*
Y02185D02*
D03*
Y022106D02*
D03*
X019665D02*
D03*
Y02185D02*
D03*
Y021594D02*
D03*
D109*
X025037Y015354D02*
D03*
X025986D02*
D03*
X025474Y018002D02*
D03*
X024526D02*
D03*
D110*
X026815Y024039D02*
D03*
X026315Y021689D02*
D03*
D111*
X026065Y024215D02*
D03*
X027065Y021514D02*
D03*
D112*
X029776Y022607D02*
D03*
X028989Y022233D02*
D03*
Y022981D02*
D03*
X02265Y024871D02*
D03*
Y024123D02*
D03*
X023437Y024497D02*
D03*
X02673Y017206D02*
D03*
X027517Y01758D02*
D03*
X027517Y016832D02*
D03*
D113*
X020994Y019193D02*
D03*
X020482D02*
D03*
X020335Y020157D02*
D03*
X020846D02*
D03*
X019282Y020768D02*
D03*
X019793D02*
D03*
X027933Y00689D02*
D03*
X027421D02*
D03*
D114*
X028346Y024695D02*
D03*
D115*
X027957Y025089D02*
D03*
X028217D02*
D03*
X028476D02*
D03*
X028736D02*
D03*
D116*
Y023913D02*
D03*
X028476D02*
D03*
X028217D02*
D03*
X027957D02*
D03*
D117*
X021949Y01247D02*
D03*
X02065D02*
D03*
D118*
X020128Y013553D02*
D03*
X021506D02*
D03*
X029557Y007037D02*
D03*
X030935D02*
D03*
D119*
X013169Y023789D02*
D03*
Y024478D02*
D03*
X033868Y011575D02*
D03*
X033868Y012264D02*
D03*
X027972Y021339D02*
D03*
Y022028D02*
D03*
D120*
X020069Y025069D02*
D03*
Y023927D02*
D03*
X025728Y017205D02*
D03*
Y016063D02*
D03*
D121*
X011929Y01685D02*
D03*
Y016654D02*
D03*
Y016457D02*
D03*
Y01626D02*
D03*
Y016063D02*
D03*
Y015866D02*
D03*
Y015669D02*
D03*
Y015472D02*
D03*
Y015276D02*
D03*
Y015079D02*
D03*
Y014882D02*
D03*
Y014685D02*
D03*
Y014488D02*
D03*
Y014291D02*
D03*
Y014094D02*
D03*
Y013898D02*
D03*
Y013701D02*
D03*
Y013504D02*
D03*
Y013307D02*
D03*
Y01311D02*
D03*
Y012913D02*
D03*
Y012717D02*
D03*
Y01252D02*
D03*
Y012323D02*
D03*
Y012126D02*
D03*
X017992Y012126D02*
D03*
Y012323D02*
D03*
Y01252D02*
D03*
Y012717D02*
D03*
Y012913D02*
D03*
Y01311D02*
D03*
Y013307D02*
D03*
Y013504D02*
D03*
Y013701D02*
D03*
Y013898D02*
D03*
Y014094D02*
D03*
Y014291D02*
D03*
Y014488D02*
D03*
Y014685D02*
D03*
Y014882D02*
D03*
Y015079D02*
D03*
Y015276D02*
D03*
Y015472D02*
D03*
Y015669D02*
D03*
Y015866D02*
D03*
Y016063D02*
D03*
Y01626D02*
D03*
Y016457D02*
D03*
Y016654D02*
D03*
Y01685D02*
D03*
D122*
X012598Y011457D02*
D03*
X012795D02*
D03*
X012992D02*
D03*
X013189D02*
D03*
X013386D02*
D03*
X013583D02*
D03*
X01378D02*
D03*
X013976D02*
D03*
X014173D02*
D03*
X01437D02*
D03*
X014567D02*
D03*
X014764D02*
D03*
X014961D02*
D03*
X015157D02*
D03*
X015354D02*
D03*
X015551D02*
D03*
X015748D02*
D03*
X015945D02*
D03*
X016339D02*
D03*
X016535D02*
D03*
X016732D02*
D03*
X016929D02*
D03*
X017126D02*
D03*
X017323D02*
D03*
X017323Y01752D02*
D03*
X017126D02*
D03*
X016929Y01752D02*
D03*
X016732D02*
D03*
X016535D02*
D03*
X016339D02*
D03*
X016142D02*
D03*
X015945D02*
D03*
X015748D02*
D03*
X015551D02*
D03*
X015354D02*
D03*
X015157D02*
D03*
X014961D02*
D03*
X014764D02*
D03*
X014567D02*
D03*
X01437D02*
D03*
X014173Y01752D02*
D03*
X013976Y01752D02*
D03*
X01378D02*
D03*
X013583D02*
D03*
X013386D02*
D03*
X013189D02*
D03*
X012992Y01752D02*
D03*
X012795D02*
D03*
X012598Y01752D02*
D03*
X016142Y011457D02*
D03*
D123*
X013445Y02189D02*
D03*
D124*
X01439Y021201D02*
D03*
Y021398D02*
D03*
Y021594D02*
D03*
X01439Y021791D02*
D03*
Y021988D02*
D03*
X01439Y022185D02*
D03*
Y022382D02*
D03*
X01439Y022579D02*
D03*
X0125Y022579D02*
D03*
Y022382D02*
D03*
Y022185D02*
D03*
Y021988D02*
D03*
Y021791D02*
D03*
X0125Y021594D02*
D03*
Y021398D02*
D03*
Y021201D02*
D03*
D125*
X014134Y022835D02*
D03*
X013937D02*
D03*
X01374D02*
D03*
X013543Y022835D02*
D03*
X013346D02*
D03*
X01315Y022835D02*
D03*
X012953D02*
D03*
X012756D02*
D03*
Y020945D02*
D03*
X012953D02*
D03*
X01315D02*
D03*
X013346Y020945D02*
D03*
X013543D02*
D03*
X01374D02*
D03*
X013937D02*
D03*
X014134D02*
D03*
D126*
X029213Y011713D02*
D03*
Y011201D02*
D03*
X025344Y022972D02*
D03*
X025344Y023484D02*
D03*
D127*
X029665Y015433D02*
D03*
X033642Y015433D02*
D03*
D128*
X024813Y014232D02*
D03*
X025955D02*
D03*
D129*
X023348Y01822D02*
D03*
X023069Y017942D02*
D03*
D130*
X027677Y008543D02*
D03*
D131*
X026545Y007793D02*
D03*
Y008293D02*
D03*
Y008793D02*
D03*
Y009293D02*
D03*
X028809D02*
D03*
Y008793D02*
D03*
Y008293D02*
D03*
X028809Y007793D02*
D03*
D132*
X024054Y016218D02*
D03*
X02368Y017005D02*
D03*
X024428D02*
D03*
D133*
X031516Y010433D02*
D03*
D134*
X030364Y011575D02*
D03*
X03062D02*
D03*
X030876D02*
D03*
X031132D02*
D03*
X031388D02*
D03*
X031644D02*
D03*
X0319D02*
D03*
X032156D02*
D03*
X032411D02*
D03*
X032667D02*
D03*
Y009291D02*
D03*
X032411Y009291D02*
D03*
X032156Y009291D02*
D03*
X0319D02*
D03*
X031644D02*
D03*
X031388D02*
D03*
X031132D02*
D03*
X030876D02*
D03*
X03062D02*
D03*
X030364D02*
D03*
D135*
X017343Y021545D02*
D03*
X029311Y01D02*
D03*
X033612Y008937D02*
D03*
X030207Y007864D02*
D03*
X029656Y01252D02*
D03*
X020748Y021811D02*
D03*
D136*
X027992Y01561D02*
D03*
X027992Y014311D02*
D03*
X02689Y01561D02*
D03*
Y014311D02*
D03*
D137*
X02563Y013175D02*
D03*
Y012675D02*
D03*
Y012175D02*
D03*
Y011675D02*
D03*
Y011175D02*
D03*
D138*
X028071Y012175D02*
D03*
D139*
X02065Y018361D02*
D03*
Y017938D02*
D03*
X01998D02*
D03*
Y018361D02*
D03*
D140*
X020679Y01815D02*
D03*
X019951D02*
D03*
D141*
X026644Y02061D02*
D03*
Y020886D02*
D03*
X02502Y02061D02*
D03*
Y020886D02*
D03*
X024429Y02061D02*
D03*
Y020886D02*
D03*
D142*
X029134Y021299D02*
D03*
X028858Y021299D02*
D03*
D143*
X022904Y022998D02*
D03*
X022707Y022998D02*
D03*
X02251D02*
D03*
X022313D02*
D03*
X022116Y022998D02*
D03*
Y021313D02*
D03*
X022313Y021313D02*
D03*
X02251D02*
D03*
X022707D02*
D03*
X022904Y021313D02*
D03*
D144*
X019833Y008642D02*
D03*
X018258D02*
D03*
Y009587D02*
D03*
X019833D02*
D03*
D145*
X014035Y02378D02*
D03*
X012303D02*
D03*
D146*
X027453Y018898D02*
D03*
X026453D02*
D03*
X025453D02*
D03*
X024453D02*
D03*
X029453D02*
D03*
X028453D02*
D03*
X030453D02*
D03*
X033661D02*
D03*
X022244D02*
D03*
X022244Y007283D02*
D03*
X033661D02*
D03*
D147*
X031453Y018898D02*
D03*
D148*
X010984Y01937D02*
D03*
Y007047D02*
D03*
X012642Y007435D02*
D03*
Y006935D02*
D03*
X013142Y007435D02*
D03*
Y006935D02*
D03*
X013642Y007435D02*
D03*
Y006935D02*
D03*
X014142Y007435D02*
D03*
Y006935D02*
D03*
X014642Y007435D02*
D03*
Y006935D02*
D03*
D149*
X033169Y021693D02*
D03*
Y024409D02*
D03*
D150*
X031004Y021693D02*
D03*
Y024409D02*
D03*
D151*
X019028Y007323D02*
D03*
X020028D02*
D03*
D152*
X020512Y00626D02*
D03*
X018543D02*
D03*
X016457D02*
D03*
X01437D02*
D03*
X012283D02*
D03*
X022283D02*
D03*
X02437D02*
D03*
X026457D02*
D03*
X028543D02*
D03*
X03063D02*
D03*
X032717D02*
D03*
X010197Y00815D02*
D03*
Y010118D02*
D03*
Y012087D02*
D03*
Y014055D02*
D03*
Y016024D02*
D03*
Y017992D02*
D03*
Y019961D02*
D03*
Y021929D02*
D03*
Y023898D02*
D03*
X014134Y025866D02*
D03*
X012165D02*
D03*
X034803Y023976D02*
D03*
Y022008D02*
D03*
Y020039D02*
D03*
Y018071D02*
D03*
Y016102D02*
D03*
Y014134D02*
D03*
Y012165D02*
D03*
Y010197D02*
D03*
Y008228D02*
D03*
X010197Y025866D02*
D03*
X034803D02*
D03*
Y00626D02*
D03*
X010197D02*
D03*
X030935Y010118D02*
D03*
X01063Y013337D02*
D03*
X018209Y024675D02*
D03*
X017283Y012421D02*
D03*
X02563Y024715D02*
D03*
X033907Y020246D02*
D03*
X029537Y02502D02*
D03*
X023002Y025256D02*
D03*
X020876Y013346D02*
D03*
X023976Y017598D02*
D03*
X024567Y017648D02*
D03*
X024134Y017982D02*
D03*
X023652Y016211D02*
D03*
X014567Y016949D02*
D03*
X01497Y017008D02*
D03*
X02376Y018996D02*
D03*
X022983Y019075D02*
D03*
X023986Y006585D02*
D03*
X023691Y008573D02*
D03*
X022776Y017215D02*
D03*
X023602Y01562D02*
D03*
X025787Y017618D02*
D03*
X026024Y018327D02*
D03*
X023406Y017008D02*
D03*
X012972Y016949D02*
D03*
X010915Y009557D02*
D03*
X012953Y009262D02*
D03*
X013809Y012047D02*
D03*
X014144Y013189D02*
D03*
X014488Y012628D02*
D03*
X014793Y012224D02*
D03*
X011919Y010069D02*
D03*
X01188Y009537D02*
D03*
X012441Y00813D02*
D03*
X01185Y007805D02*
D03*
X010551Y014291D02*
D03*
X010906Y012047D02*
D03*
X015069Y008878D02*
D03*
X014311Y008701D02*
D03*
X014488Y008327D02*
D03*
X015906Y007165D02*
D03*
X012717Y016654D02*
D03*
X018691Y008051D02*
D03*
X024134Y020364D02*
D03*
X010856Y015541D02*
D03*
X010866Y015148D02*
D03*
X021634Y022402D02*
D03*
X020492Y02062D02*
D03*
X019606Y018996D02*
D03*
X019045Y019459D02*
D03*
X01997Y019065D02*
D03*
X019892Y01748D02*
D03*
X017707Y011752D02*
D03*
X016043Y013189D02*
D03*
X024577Y022047D02*
D03*
X023839Y022087D02*
D03*
X019301Y020433D02*
D03*
X023848Y019921D02*
D03*
X01936Y01874D02*
D03*
X016841Y018701D02*
D03*
X026457Y018179D02*
D03*
X021319Y017992D02*
D03*
X018248Y018435D02*
D03*
X019459Y017461D02*
D03*
X019882Y018671D02*
D03*
X016407Y018878D02*
D03*
X020571Y009567D02*
D03*
X023848Y010778D02*
D03*
X023858Y010148D02*
D03*
X022313Y008553D02*
D03*
X019734Y010197D02*
D03*
X024488Y006919D02*
D03*
X026536Y019892D02*
D03*
X0269Y019163D02*
D03*
X029685Y019744D02*
D03*
X029252Y019478D02*
D03*
X013228Y019409D02*
D03*
X013238Y018593D02*
D03*
X013268Y019016D02*
D03*
X023327Y021693D02*
D03*
X017825Y020719D02*
D03*
X018268Y02065D02*
D03*
X014951Y02122D02*
D03*
X014774Y019646D02*
D03*
Y019163D02*
D03*
X014784Y018799D02*
D03*
X014823Y018396D02*
D03*
X027244Y01939D02*
D03*
X022126Y019872D02*
D03*
X028051Y023189D02*
D03*
X022982Y019636D02*
D03*
X02126Y018642D02*
D03*
X019843Y017067D02*
D03*
X024656Y025167D02*
D03*
X024094Y024911D02*
D03*
X026043Y020925D02*
D03*
X0256Y024321D02*
D03*
X026319Y023002D02*
D03*
X025738Y022766D02*
D03*
X021999Y020778D02*
D03*
X01872Y016191D02*
D03*
X0194Y015591D02*
D03*
X018691Y012372D02*
D03*
X02562Y020955D02*
D03*
X018632Y015856D02*
D03*
X018366Y017431D02*
D03*
X016083Y016191D02*
D03*
X016329Y01501D02*
D03*
X019331Y01252D02*
D03*
X02062Y012854D02*
D03*
X028248Y019596D02*
D03*
X019449Y01312D02*
D03*
X023465Y020531D02*
D03*
X019006Y013081D02*
D03*
X018593Y013494D02*
D03*
X02122Y020157D02*
D03*
X017303Y018169D02*
D03*
X024252Y015354D02*
D03*
X02063Y014478D02*
D03*
X022018Y014852D02*
D03*
X015551Y012087D02*
D03*
X016604Y013524D02*
D03*
X021201Y017392D02*
D03*
X015945Y0169D02*
D03*
X018622Y018553D02*
D03*
X019055Y016752D02*
D03*
Y017156D02*
D03*
X018917Y021319D02*
D03*
X018248Y022657D02*
D03*
X020148Y02185D02*
D03*
X017461Y019409D02*
D03*
X017933Y020197D02*
D03*
X01937Y010689D02*
D03*
X019173Y009518D02*
D03*
X020906Y023022D02*
D03*
X017421Y02249D02*
D03*
X016752Y024783D02*
D03*
X020896Y024813D02*
D03*
X019252Y023996D02*
D03*
X018898Y024104D02*
D03*
X017283Y023681D02*
D03*
X019951Y0244D02*
D03*
X018642Y024596D02*
D03*
X017766Y024567D02*
D03*
X013209Y019813D02*
D03*
X011732Y020728D02*
D03*
X011043Y020817D02*
D03*
X014596Y020817D02*
D03*
X020896Y011063D02*
D03*
X013445Y021594D02*
D03*
X01374Y02189D02*
D03*
X01315D02*
D03*
X012146Y022018D02*
D03*
X011407Y022018D02*
D03*
X011014Y022028D02*
D03*
X012746Y02374D02*
D03*
X013159Y024764D02*
D03*
X010915Y02501D02*
D03*
X015423D02*
D03*
X015404Y022795D02*
D03*
X011437Y023435D02*
D03*
X013258Y023396D02*
D03*
X012815Y023356D02*
D03*
X012421Y020551D02*
D03*
X015157Y013189D02*
D03*
X016821Y010226D02*
D03*
X01747D02*
D03*
X01748Y008642D02*
D03*
X022579Y011171D02*
D03*
X021073Y013691D02*
D03*
X019183Y01374D02*
D03*
X013415Y012156D02*
D03*
X016142Y010866D02*
D03*
Y010413D02*
D03*
X015433Y010364D02*
D03*
X012549Y012087D02*
D03*
X010906Y012953D02*
D03*
X01251Y01252D02*
D03*
X013179Y012461D02*
D03*
X015974Y012333D02*
D03*
X017264Y015157D02*
D03*
X01748Y016457D02*
D03*
X019134Y014163D02*
D03*
X017156Y013868D02*
D03*
X016053Y014537D02*
D03*
X017106Y015522D02*
D03*
X013228Y015984D02*
D03*
X013238Y014227D02*
D03*
X029016Y014026D02*
D03*
X024409Y013858D02*
D03*
X026348Y013455D02*
D03*
X030463Y008711D02*
D03*
X029385Y008293D02*
D03*
X033031Y009154D02*
D03*
X028248Y011348D02*
D03*
X028661D02*
D03*
Y011762D02*
D03*
X027835Y013012D02*
D03*
X028248D02*
D03*
X028661Y013002D02*
D03*
Y012569D02*
D03*
Y012175D02*
D03*
X026024Y010689D02*
D03*
X025531D02*
D03*
X025039D02*
D03*
Y011181D02*
D03*
Y011673D02*
D03*
X029685Y022146D02*
D03*
X027461Y021319D02*
D03*
X027411Y020925D02*
D03*
X028396Y021299D02*
D03*
X028268Y022854D02*
D03*
X029577Y023593D02*
D03*
X02878Y023406D02*
D03*
X024754Y02378D02*
D03*
X02753Y022844D02*
D03*
X02752Y023248D02*
D03*
X027067Y022293D02*
D03*
X022185Y024862D02*
D03*
X024114Y023553D02*
D03*
X024665Y023012D02*
D03*
X022313Y022106D02*
D03*
X019951Y016309D02*
D03*
X022185Y016073D02*
D03*
Y017303D02*
D03*
X024823Y013175D02*
D03*
X026526Y012283D02*
D03*
X027539Y015718D02*
D03*
X026535Y016683D02*
D03*
X028465Y017116D02*
D03*
Y016181D02*
D03*
X029596Y017933D02*
D03*
X030295Y016644D02*
D03*
X032687Y0175D02*
D03*
X033799Y017264D02*
D03*
X03123Y015276D02*
D03*
X030079Y013002D02*
D03*
X023396Y013947D02*
D03*
X023071Y014793D02*
D03*
X030226Y007126D02*
D03*
X034104Y010709D02*
D03*
X033248Y01125D02*
D03*
X032795Y007756D02*
D03*
X034154Y010276D02*
D03*
X033868Y012549D02*
D03*
X03252Y013346D02*
D03*
X032726Y012904D02*
D03*
X033071Y012451D02*
D03*
X031713Y012864D02*
D03*
X031289Y012185D02*
D03*
X032224Y014016D02*
D03*
X031289Y007047D02*
D03*
X033504Y008386D02*
D03*
X03128Y008691D02*
D03*
X029636Y009518D02*
D03*
X028819Y010295D02*
D03*
X025157Y0075D02*
D03*
X024941Y009281D02*
D03*
X02688Y007224D02*
D03*
X025069Y016033D02*
D03*
X025906Y016614D02*
D03*
X027913Y008267D02*
D03*
X027441D02*
D03*
Y008818D02*
D03*
X027913D02*
D03*
Y009369D02*
D03*
X027441Y009369D02*
D03*
X027441Y007716D02*
D03*
X027913D02*
D03*
X032116Y010748D02*
D03*
X030935D02*
D03*
X030344D02*
D03*
X031526D02*
D03*
X032707D02*
D03*
X032116Y010118D02*
D03*
X032707Y010118D02*
D03*
X030344D02*
D03*
X031526D02*
D03*
X031506Y0075D02*
D03*
M02*
