G04 Layer_Color=128*
%FSTAX24Y24*%
%MOIN*%
G70*
G01*
G75*
%ADD11R,0.0197X0.0236*%
%ADD12R,0.0236X0.0197*%
%ADD20R,0.0315X0.0354*%
%ADD25R,0.0394X0.0669*%
%ADD26R,0.0551X0.0335*%
%ADD27R,0.0709X0.0354*%
%ADD33R,0.0354X0.0315*%
%ADD35R,0.0354X0.0709*%
%ADD39R,0.0236X0.0709*%
%ADD42C,0.0591*%
%ADD43R,0.0492X0.0374*%
%ADD49R,0.0197X0.0394*%
%ADD50R,0.0110X0.0551*%
%ADD74R,0.0787X0.0984*%
%ADD75R,0.0197X0.0906*%
%ADD76R,0.0138X0.0453*%
%ADD77R,0.0945X0.0299*%
%ADD78R,0.0299X0.0630*%
%ADD79R,0.0413X0.0236*%
%ADD80R,0.0315X0.0433*%
%ADD83R,0.1102X0.0866*%
%ADD84R,0.0335X0.0551*%
%ADD85R,0.0827X0.0551*%
%ADD86R,0.0551X0.0827*%
%ADD87P,0.0835X4X360.0*%
%ADD88R,0.0669X0.0394*%
%ADD89R,0.0236X0.0610*%
%ADD90R,0.0532X0.0157*%
%ADD91R,0.0787X0.0472*%
%ADD100R,0.0177X0.0128*%
%ADD101R,0.0236X0.0098*%
%ADD171R,0.0128X0.0177*%
%ADD172R,0.0098X0.0236*%
D11*
X021358Y010059D02*
D03*
X020965D02*
D03*
X022136Y008947D02*
D03*
X02253D02*
D03*
X024744Y02064D02*
D03*
X025138D02*
D03*
X023179Y010778D02*
D03*
X023573D02*
D03*
X022657Y008415D02*
D03*
X023051D02*
D03*
X018022Y013661D02*
D03*
X017628D02*
D03*
X015157Y017323D02*
D03*
X015551D02*
D03*
X022205Y013494D02*
D03*
X022598D02*
D03*
X022205Y014016D02*
D03*
X022598D02*
D03*
X031919Y011693D02*
D03*
X031526D02*
D03*
X017638Y012421D02*
D03*
X018032D02*
D03*
X016093Y012894D02*
D03*
X016486D02*
D03*
X029222Y012313D02*
D03*
X029616D02*
D03*
X029222Y012835D02*
D03*
X029616Y012835D02*
D03*
X020994Y014872D02*
D03*
X021388D02*
D03*
X017205Y017087D02*
D03*
X016811D02*
D03*
X025157Y018032D02*
D03*
X024764D02*
D03*
X033386Y010709D02*
D03*
X03378D02*
D03*
X025315Y01748D02*
D03*
X024921D02*
D03*
X033219Y013937D02*
D03*
X032825D02*
D03*
X026102Y024724D02*
D03*
X026496D02*
D03*
X024154Y020669D02*
D03*
X02376D02*
D03*
X018465Y017805D02*
D03*
X018071D02*
D03*
X018061Y017215D02*
D03*
X017667D02*
D03*
X01815Y015344D02*
D03*
X017756D02*
D03*
X017884Y015817D02*
D03*
X01749D02*
D03*
X028848Y019774D02*
D03*
X028455D02*
D03*
D12*
X013012Y017677D02*
D03*
Y017283D02*
D03*
X012441Y017746D02*
D03*
Y017352D02*
D03*
X019715Y014045D02*
D03*
Y013652D02*
D03*
X013868Y012421D02*
D03*
Y012815D02*
D03*
X013238Y014882D02*
D03*
Y014488D02*
D03*
Y013573D02*
D03*
Y013967D02*
D03*
X024104Y012854D02*
D03*
Y012461D02*
D03*
X024626Y012825D02*
D03*
Y012431D02*
D03*
X013238Y015728D02*
D03*
Y015335D02*
D03*
X013228Y01625D02*
D03*
Y016644D02*
D03*
X016545Y010876D02*
D03*
X016545Y010482D02*
D03*
X013386Y012709D02*
D03*
Y013102D02*
D03*
X012913Y012709D02*
D03*
Y013102D02*
D03*
X015354Y011685D02*
D03*
Y011291D02*
D03*
X015827Y011291D02*
D03*
Y011685D02*
D03*
X01564Y012531D02*
D03*
Y012925D02*
D03*
X026181Y017992D02*
D03*
Y017598D02*
D03*
X022953Y016496D02*
D03*
Y01689D02*
D03*
X017539Y020709D02*
D03*
Y020315D02*
D03*
X023553Y012077D02*
D03*
Y01247D02*
D03*
X019213Y011575D02*
D03*
Y011968D02*
D03*
X033022Y008386D02*
D03*
Y00878D02*
D03*
X023661Y017687D02*
D03*
Y017293D02*
D03*
X026732Y017992D02*
D03*
Y017598D02*
D03*
X033209Y013356D02*
D03*
Y012963D02*
D03*
X028455Y01685D02*
D03*
Y016457D02*
D03*
X027234Y023248D02*
D03*
Y022854D02*
D03*
X022972Y021703D02*
D03*
Y022096D02*
D03*
X027726Y020925D02*
D03*
Y021319D02*
D03*
D20*
X019882Y010689D02*
D03*
X020394D02*
D03*
X021457Y015453D02*
D03*
X020945D02*
D03*
X023691Y008947D02*
D03*
X023179D02*
D03*
X014301Y014656D02*
D03*
Y01377D02*
D03*
Y015561D02*
D03*
X014301Y016427D02*
D03*
X010886Y014301D02*
D03*
X011398D02*
D03*
X011053Y02127D02*
D03*
X018327Y020197D02*
D03*
X018839D02*
D03*
X022992Y024715D02*
D03*
X02248D02*
D03*
D25*
X030896Y012579D02*
D03*
X032274D02*
D03*
D26*
X029291Y010974D02*
D03*
Y010285D02*
D03*
X026683Y011831D02*
D03*
Y011142D02*
D03*
D27*
X033809Y016949D02*
D03*
Y015807D02*
D03*
D33*
X019882Y012028D02*
D03*
Y011516D02*
D03*
X020157Y014941D02*
D03*
Y015453D02*
D03*
X023494Y009646D02*
D03*
Y010157D02*
D03*
X017982Y019144D02*
D03*
Y019656D02*
D03*
X023396Y014272D02*
D03*
Y014783D02*
D03*
X027618Y024665D02*
D03*
Y024154D02*
D03*
X029537Y024449D02*
D03*
Y023937D02*
D03*
D35*
X024537Y02D02*
D03*
X025679D02*
D03*
D39*
X011438Y013336D02*
D03*
X012186D02*
D03*
X011812Y012549D02*
D03*
X033781Y009013D02*
D03*
X034155Y009801D02*
D03*
X033407Y009801D02*
D03*
X027246Y015746D02*
D03*
X02762Y016533D02*
D03*
X026871D02*
D03*
X024378Y025052D02*
D03*
X024004Y024264D02*
D03*
X024753D02*
D03*
D42*
X02124Y009439D02*
D03*
X016811Y017844D02*
D03*
X012205Y01438D02*
D03*
X019872Y012785D02*
D03*
X022215Y015512D02*
D03*
D43*
X027362Y013484D02*
D03*
X027362Y014783D02*
D03*
X028425Y013484D02*
D03*
Y014783D02*
D03*
X02877Y02372D02*
D03*
X02877Y02502D02*
D03*
D49*
X020374Y025039D02*
D03*
X019941D02*
D03*
X019508D02*
D03*
X019213D02*
D03*
X018642D02*
D03*
X018209D02*
D03*
X017776D02*
D03*
X017343D02*
D03*
X018937D02*
D03*
D50*
X026555Y022248D02*
D03*
X026358D02*
D03*
X026161D02*
D03*
X025965D02*
D03*
X025768Y022248D02*
D03*
X025768Y023933D02*
D03*
X025965Y023933D02*
D03*
X026161D02*
D03*
X026358D02*
D03*
X026555Y023933D02*
D03*
X028396Y02227D02*
D03*
X028593Y02227D02*
D03*
X028789D02*
D03*
X028986D02*
D03*
X029183Y02227D02*
D03*
Y020585D02*
D03*
X028986Y020585D02*
D03*
X028789D02*
D03*
X028593D02*
D03*
X028396Y020585D02*
D03*
X023671Y023018D02*
D03*
X023868Y023018D02*
D03*
X024065D02*
D03*
X024262D02*
D03*
X024459Y023018D02*
D03*
Y021333D02*
D03*
X024262Y021333D02*
D03*
X024065D02*
D03*
X023868D02*
D03*
X023671Y021333D02*
D03*
D74*
X011417Y025D02*
D03*
X014921D02*
D03*
X011417Y022795D02*
D03*
X014921D02*
D03*
D75*
X012539Y022756D02*
D03*
X012854D02*
D03*
X013169D02*
D03*
X013484D02*
D03*
X013799D02*
D03*
D76*
X022688Y009636D02*
D03*
X022432D02*
D03*
X022176D02*
D03*
Y010384D02*
D03*
X022432D02*
D03*
X022688D02*
D03*
D77*
X014035Y018035D02*
D03*
X015571D02*
D03*
X014035Y018535D02*
D03*
X015571D02*
D03*
X014035Y019035D02*
D03*
X015571D02*
D03*
X014035Y019535D02*
D03*
X015571D02*
D03*
X014035Y020035D02*
D03*
X015571D02*
D03*
D78*
X013041Y010876D02*
D03*
X012541D02*
D03*
X012041D02*
D03*
X011541D02*
D03*
X011541Y008667D02*
D03*
X012041Y008667D02*
D03*
X012541D02*
D03*
X013041Y008667D02*
D03*
D79*
X020364Y013297D02*
D03*
X020364Y013671D02*
D03*
X020364Y014045D02*
D03*
X021427D02*
D03*
Y013297D02*
D03*
D80*
X013789Y014656D02*
D03*
Y01377D02*
D03*
Y015561D02*
D03*
Y016427D02*
D03*
X011565Y02127D02*
D03*
D83*
X017795Y009459D02*
D03*
X015906D02*
D03*
X017795Y007795D02*
D03*
X015906D02*
D03*
D84*
X027766Y010157D02*
D03*
X028455D02*
D03*
X026526Y012835D02*
D03*
X025837D02*
D03*
D85*
X029606Y015787D02*
D03*
X029606Y01752D02*
D03*
X031181Y015787D02*
D03*
Y01752D02*
D03*
D86*
X029892Y014016D02*
D03*
X031624D02*
D03*
D87*
X028985Y008889D02*
D03*
X03007Y007804D02*
D03*
D88*
X032677Y017165D02*
D03*
X032677Y015787D02*
D03*
D89*
X024132Y014488D02*
D03*
X024632D02*
D03*
X025132D02*
D03*
X025632D02*
D03*
Y016614D02*
D03*
X025132D02*
D03*
X024632D02*
D03*
X024132D02*
D03*
D90*
X020492Y017077D02*
D03*
Y016821D02*
D03*
Y016565D02*
D03*
Y016309D02*
D03*
X022185D02*
D03*
Y016565D02*
D03*
Y016821D02*
D03*
Y017077D02*
D03*
X020886Y012195D02*
D03*
Y011939D02*
D03*
Y011683D02*
D03*
Y011427D02*
D03*
X022579D02*
D03*
Y011683D02*
D03*
Y011939D02*
D03*
Y012195D02*
D03*
D91*
X020915Y024406D02*
D03*
Y022654D02*
D03*
X016801D02*
D03*
Y024406D02*
D03*
D100*
X019872Y018046D02*
D03*
Y01847D02*
D03*
X019203D02*
D03*
Y018046D02*
D03*
D101*
X019902Y018258D02*
D03*
X019173D02*
D03*
D171*
X016796Y014537D02*
D03*
X016373D02*
D03*
Y013868D02*
D03*
X016796D02*
D03*
Y015522D02*
D03*
X016373D02*
D03*
Y016191D02*
D03*
X016796D02*
D03*
X016402Y012374D02*
D03*
X016826D02*
D03*
Y011705D02*
D03*
X016402D02*
D03*
D172*
X016585Y014567D02*
D03*
Y013839D02*
D03*
Y015492D02*
D03*
Y01622D02*
D03*
X016614Y012404D02*
D03*
X016614Y011675D02*
D03*
M02*
