G04 Layer_Color=65535*
%FSTAX24Y24*%
%MOIN*%
G70*
G01*
G75*
%ADD52C,0.0100*%
%ADD61C,0.0197*%
%ADD92C,0.0394*%
%ADD93C,0.0098*%
%ADD94C,0.0079*%
%ADD95C,0.0050*%
%ADD96C,0.0059*%
D52*
X031073Y008445D02*
X031417D01*
X01248Y009055D02*
X012539Y009016D01*
X013376D01*
X013612Y008927D01*
X011732Y00936D02*
X011959Y009006D01*
X011693Y008858D02*
X01185Y008524D01*
X011614Y021762D02*
X011713Y02187D01*
Y022431D01*
X012539Y010571D02*
X013327D01*
X012539Y009587D02*
X013327D01*
X019813Y016772D02*
X020118Y016693D01*
X018032Y019911D02*
X018425D01*
X018032Y018907D02*
X018425D01*
X027411Y021919D02*
Y023809D01*
X025719Y023809D02*
X025719Y021919D01*
X028996Y023986D02*
Y02497D01*
X027697Y023986D02*
Y02497D01*
X017303Y012146D02*
Y016831D01*
X012913D02*
X017303D01*
X012618Y016535D02*
X012913Y016831D01*
X012618Y012146D02*
Y016535D01*
Y012146D02*
X017303D01*
X019094Y022352D02*
X019488D01*
X019094Y021348D02*
X019488D01*
X034016Y014134D02*
X034016Y013071D01*
X029291D02*
Y014134D01*
Y013071D02*
X034016D01*
X029291Y016732D02*
Y017795D01*
X034016D01*
Y016732D02*
Y017795D01*
X02689Y009527D02*
X028465D01*
X02689Y007558D02*
X028465D01*
X032795Y009843D02*
Y011024D01*
X030236Y009843D02*
Y011024D01*
X025384Y010886D02*
X028238D01*
Y011339D01*
X025384Y013465D02*
X028238D01*
Y013012D02*
Y013465D01*
X018778Y008573D02*
X019278D01*
X019028Y008073D02*
X019278Y008573D01*
X018778D02*
X019028Y008073D01*
X018528Y006823D02*
X020528D01*
X018528D02*
Y007823D01*
X020528D01*
Y006823D02*
Y007823D01*
X021919Y021663D02*
Y022648D01*
X0231Y021663D02*
Y022648D01*
X018061Y01002D02*
X02003D01*
X018061Y008209D02*
X02003D01*
D61*
X017677Y02D02*
G03*
X017677Y02I-000059J0D01*
G01*
X019961Y02126D02*
G03*
X019961Y02126I-000059J0D01*
G01*
X029252Y007165D02*
G03*
X029252Y007165I-000098J0D01*
G01*
X030034Y009075D02*
G03*
X030034Y009075I-000093J0D01*
G01*
X023346Y023337D02*
G03*
X023346Y023337I-000049J0D01*
G01*
X020659Y010177D02*
G03*
X020659Y010177I-000079J0D01*
G01*
D92*
X011663Y017835D02*
G03*
X011663Y017835I-000049J0D01*
G01*
X014685Y020659D02*
G03*
X014685Y020659I-00001J0D01*
G01*
D93*
X019803Y018543D02*
G03*
X019803Y018543I-000039J0D01*
G01*
D94*
X029478Y022016D02*
X029658Y022016D01*
Y022331D01*
Y022882D02*
Y023197D01*
X029478Y023197D02*
X029658Y023197D01*
X02314Y025087D02*
X023319Y025087D01*
Y024772D02*
Y025087D01*
Y023906D02*
Y024221D01*
X02314Y023906D02*
X023319Y023906D01*
X022224Y012864D02*
X022264Y012825D01*
Y012116D02*
Y012825D01*
X020768Y012864D02*
X022224D01*
X020768Y012077D02*
X022224D01*
X022264Y012116D01*
X026848Y017797D02*
X027028D01*
X026848Y017482D02*
Y017797D01*
Y016616D02*
Y016931D01*
Y016616D02*
X027028Y016616D01*
X023463Y016516D02*
X023463Y016336D01*
X023778Y016336D01*
X024329Y016336D02*
X024644Y016336D01*
X024644Y016516D02*
X024644Y016336D01*
X027598Y014035D02*
X027638Y013996D01*
X027598Y014035D02*
Y015492D01*
X028386Y015492D02*
X028386Y014035D01*
X027638Y013996D02*
X028346Y013996D01*
X028386Y014035D01*
X026496D02*
X026535Y013996D01*
X026496Y014035D02*
Y015492D01*
X027283Y014035D02*
X027283Y015492D01*
X026535Y013996D02*
X027244D01*
X027283Y014035D01*
X020217Y017756D02*
X020413D01*
X020217Y018543D02*
X020413D01*
D95*
X012421Y020866D02*
Y021024D01*
Y020866D02*
X012579Y020866D01*
X012421Y022756D02*
Y022913D01*
X012579Y022913D01*
X014311Y022913D02*
X014469Y022913D01*
X014468Y022756D02*
X014469Y022913D01*
X014311Y020866D02*
X014469Y021024D01*
D96*
X013494Y010955D02*
Y010902D01*
X013599Y010797D01*
X013704Y010902D01*
Y010955D01*
X013599Y010797D02*
Y01064D01*
X013809D02*
X013914D01*
X013861D01*
Y010955D01*
X013809Y010902D01*
X013081Y008327D02*
X013303Y008549D01*
X013415Y008438D01*
Y008364D01*
X01334Y00829D01*
X013266Y00829D01*
X013155Y008401D01*
X013229Y008327D02*
Y008178D01*
X013452Y007956D02*
X013303Y008104D01*
X0136D01*
X013637Y008141D01*
Y008215D01*
X013563Y00829D01*
X013489Y00829D01*
X013712Y008067D02*
X013786Y008067D01*
X01386Y007993D01*
Y007919D01*
X013712Y00777D01*
X013637Y00777D01*
X013563Y007844D01*
Y007919D01*
X013712Y008067D01*
X014088Y009711D02*
X014035Y009764D01*
X01393D01*
X013878Y009711D01*
Y009501D01*
X01393Y009449D01*
X014035D01*
X014088Y009501D01*
X014193Y009449D02*
X014298D01*
X014245D01*
Y009764D01*
X014193Y009711D01*
X014665Y009764D02*
X014455D01*
Y009606D01*
X01456Y009659D01*
X014613D01*
X014665Y009606D01*
Y009501D01*
X014613Y009449D01*
X014508D01*
X014455Y009501D01*
X013674Y00869D02*
X013599D01*
X013525Y008616D01*
X013525Y008542D01*
X013674Y008393D01*
X013748D01*
X013822Y008468D01*
X013822Y008542D01*
X013933Y008579D02*
X014007Y008653D01*
X01397Y008616D01*
X013748Y008839D01*
X013748Y008764D01*
X01423Y008876D02*
X014007Y009098D01*
X014007Y008876D01*
X014156Y009024D01*
X010581Y008022D02*
Y008337D01*
X010738D01*
X010791Y008284D01*
Y008179D01*
X010738Y008127D01*
X010581D01*
X010686D02*
X010791Y008022D01*
X010896Y008337D02*
X011105D01*
Y008284D01*
X010896Y008074D01*
Y008022D01*
X01121Y008284D02*
X011263Y008337D01*
X011368D01*
X01142Y008284D01*
Y008232D01*
X011368Y008179D01*
X01142Y008127D01*
Y008074D01*
X011368Y008022D01*
X011263D01*
X01121Y008074D01*
Y008127D01*
X011263Y008179D01*
X01121Y008232D01*
Y008284D01*
X011263Y008179D02*
X011368D01*
X011713Y008228D02*
X011935Y008451D01*
X012047Y00834D01*
Y008265D01*
X011972Y008191D01*
X011898Y008191D01*
X011787Y008303D01*
X011861Y008228D02*
Y00808D01*
X012158Y008228D02*
X012306Y00808D01*
X012269Y008043D01*
X011972D01*
X011935Y008006D01*
X012195Y00782D02*
Y007746D01*
X012269Y007672D01*
X012343Y007672D01*
X012492Y00782D01*
Y007894D01*
X012418Y007969D01*
X012343Y007969D01*
X012306Y007931D01*
X012306Y007857D01*
X012418Y007746D01*
X011959Y008799D02*
X012181Y009022D01*
X012293Y008911D01*
Y008836D01*
X012218Y008762D01*
X012144Y008762D01*
X012033Y008873D01*
X012107Y008799D02*
Y008651D01*
X012367Y008762D02*
X012441Y008762D01*
X012515Y008688D01*
Y008614D01*
X012478Y008577D01*
X012404D01*
X012404Y008502D01*
X012367Y008465D01*
X012293Y008465D01*
X012218Y008539D01*
Y008614D01*
X012256Y008651D01*
X01233D01*
X01233Y008725D01*
X012367Y008762D01*
X01233Y008651D02*
X012404Y008577D01*
X012589Y008539D02*
X012664Y008539D01*
X012738Y008465D01*
Y008391D01*
X012589Y008243D01*
X012515Y008243D01*
X012441Y008317D01*
Y008391D01*
X012589Y008539D01*
X011043Y010364D02*
Y010679D01*
X011201D01*
X011253Y010627D01*
Y010522D01*
X011201Y010469D01*
X011043D01*
X011148D02*
X011253Y010364D01*
X011358Y010627D02*
X011411Y010679D01*
X011516D01*
X011568Y010627D01*
Y010574D01*
X011516Y010522D01*
X011568Y010469D01*
Y010417D01*
X011516Y010364D01*
X011411D01*
X011358Y010417D01*
Y010469D01*
X011411Y010522D01*
X011358Y010574D01*
Y010627D01*
X011411Y010522D02*
X011516D01*
X011673Y010364D02*
X011778D01*
X011725D01*
Y010679D01*
X011673Y010627D01*
X012372Y018268D02*
X012057D01*
Y018425D01*
X01211Y018478D01*
X012215D01*
X012267Y018425D01*
Y018268D01*
Y018373D02*
X012372Y018478D01*
X012057Y018583D02*
Y018792D01*
X01211D01*
X01232Y018583D01*
X012372D01*
X012057Y019107D02*
X01211Y019002D01*
X012215Y018897D01*
X01232D01*
X012372Y01895D01*
Y019055D01*
X01232Y019107D01*
X012267D01*
X012215Y019055D01*
Y018897D01*
X022237Y017034D02*
X022185Y017087D01*
X02208D01*
X022028Y017034D01*
Y016824D01*
X02208Y016772D01*
X022185D01*
X022237Y016824D01*
X0225Y016772D02*
Y017087D01*
X022342Y016929D01*
X022552D01*
X022867Y017087D02*
X022762Y017034D01*
X022657Y016929D01*
Y016824D01*
X02271Y016772D01*
X022815D01*
X022867Y016824D01*
Y016877D01*
X022815Y016929D01*
X022657D01*
X016529Y019787D02*
X016476Y019734D01*
Y019629D01*
X016529Y019577D01*
X016739D01*
X016791Y019629D01*
Y019734D01*
X016739Y019787D01*
X016476Y020102D02*
Y019892D01*
X016634D01*
X016581Y019997D01*
Y020049D01*
X016634Y020102D01*
X016739D01*
X016791Y020049D01*
Y019944D01*
X016739Y019892D01*
X016529Y020206D02*
X016476Y020259D01*
Y020364D01*
X016529Y020416D01*
X016739D01*
X016791Y020364D01*
Y020259D01*
X016739Y020206D01*
X016529D01*
X011152Y017205D02*
X010837D01*
Y017362D01*
X010889Y017415D01*
X010994D01*
X011047Y017362D01*
Y017205D01*
Y01731D02*
X011152Y017415D01*
Y01752D02*
Y017625D01*
Y017572D01*
X010837D01*
X010889Y01752D01*
X011099Y017782D02*
X011152Y017834D01*
Y017939D01*
X011099Y017992D01*
X010889D01*
X010837Y017939D01*
Y017834D01*
X010889Y017782D01*
X010942D01*
X010994Y017834D01*
Y017992D01*
X032953Y012648D02*
Y012962D01*
X03311D01*
X033163Y01291D01*
Y012805D01*
X03311Y012753D01*
X032953D01*
X033058D02*
X033163Y012648D01*
X033268Y01291D02*
X03332Y012962D01*
X033425D01*
X033478Y01291D01*
Y012858D01*
X033425Y012805D01*
X033373D01*
X033425D01*
X033478Y012753D01*
Y0127D01*
X033425Y012648D01*
X03332D01*
X033268Y0127D01*
X033792Y012962D02*
X033582D01*
Y012805D01*
X033687Y012858D01*
X03374D01*
X033792Y012805D01*
Y0127D01*
X03374Y012648D01*
X033635D01*
X033582Y0127D01*
X017122Y02101D02*
X016937Y020825D01*
Y02075D01*
X017011Y020676D01*
X017085Y020676D01*
X017271Y020862D01*
X017122Y020565D02*
X017196Y020491D01*
X017159Y020528D01*
X017382Y02075D01*
X017308Y02075D01*
X017493Y020565D02*
X017568Y020565D01*
X017642Y020491D01*
Y020416D01*
X017493Y020268D01*
X017419Y020268D01*
X017345Y020342D01*
Y020416D01*
X017493Y020565D01*
X018438Y020302D02*
X018386Y020354D01*
X018281D01*
X018228Y020302D01*
Y020092D01*
X018281Y020039D01*
X018386D01*
X018438Y020092D01*
X018753Y020354D02*
X018648Y020302D01*
X018543Y020197D01*
Y020092D01*
X018596Y020039D01*
X018701D01*
X018753Y020092D01*
Y020144D01*
X018701Y020197D01*
X018543D01*
X019068Y020039D02*
X018858D01*
X019068Y020249D01*
Y020302D01*
X019015Y020354D01*
X018911D01*
X018858Y020302D01*
X028094Y010646D02*
X028041Y010699D01*
X027936D01*
X027884Y010646D01*
Y010436D01*
X027936Y010384D01*
X028041D01*
X028094Y010436D01*
X028199Y010646D02*
X028251Y010699D01*
X028356D01*
X028409Y010646D01*
Y010594D01*
X028356Y010541D01*
X028304D01*
X028356D01*
X028409Y010489D01*
Y010436D01*
X028356Y010384D01*
X028251D01*
X028199Y010436D01*
X028671Y010384D02*
Y010699D01*
X028514Y010541D01*
X028723D01*
X026289Y024793D02*
Y025108D01*
X026447D01*
X026499Y025056D01*
Y024951D01*
X026447Y024898D01*
X026289D01*
X026394D02*
X026499Y024793D01*
X026814Y025108D02*
X026709Y025056D01*
X026604Y024951D01*
Y024846D01*
X026657Y024793D01*
X026762D01*
X026814Y024846D01*
Y024898D01*
X026762Y024951D01*
X026604D01*
X029705Y021457D02*
Y021772D01*
X02981Y021667D01*
X029915Y021772D01*
Y021457D01*
X030229Y021772D02*
X030125Y021719D01*
X03002Y021614D01*
Y021509D01*
X030072Y021457D01*
X030177D01*
X030229Y021509D01*
Y021562D01*
X030177Y021614D01*
X03002D01*
X017638Y017874D02*
Y018189D01*
X017795D01*
X017848Y018136D01*
Y018031D01*
X017795Y017979D01*
X017638D01*
X017743D02*
X017848Y017874D01*
X018163Y018189D02*
X018058Y018136D01*
X017953Y018031D01*
Y017926D01*
X018005Y017874D01*
X01811D01*
X018163Y017926D01*
Y017979D01*
X01811Y018031D01*
X017953D01*
X018268Y018136D02*
X01832Y018189D01*
X018425D01*
X018477Y018136D01*
Y018084D01*
X018425Y018031D01*
X018477Y017979D01*
Y017926D01*
X018425Y017874D01*
X01832D01*
X018268Y017926D01*
Y017979D01*
X01832Y018031D01*
X018268Y018084D01*
Y018136D01*
X01832Y018031D02*
X018425D01*
X018809Y018652D02*
X019032Y018874D01*
X019143Y018763D01*
Y018689D01*
X019069Y018614D01*
X018995Y018614D01*
X018883Y018726D01*
X018957Y018652D02*
Y018503D01*
X019403D02*
X019291Y01854D01*
X019143D01*
X019069Y018466D01*
Y018392D01*
X019143Y018318D01*
X019217Y018318D01*
X019254Y018355D01*
X019254Y018429D01*
X019143Y01854D01*
X019625Y018281D02*
X019514Y018318D01*
X019366D01*
X019291Y018243D01*
Y018169D01*
X019366Y018095D01*
X01944Y018095D01*
X019477Y018132D01*
X019477Y018206D01*
X019366Y018318D01*
X023593Y023868D02*
Y024183D01*
X02375D01*
X023802Y02413D01*
Y024026D01*
X02375Y023973D01*
X023593D01*
X023697D02*
X023802Y023868D01*
X024117Y024183D02*
X024012Y02413D01*
X023907Y024026D01*
Y023921D01*
X02396Y023868D01*
X024065D01*
X024117Y023921D01*
Y023973D01*
X024065Y024026D01*
X023907D01*
X024432Y024183D02*
X024222D01*
Y024026D01*
X024327Y024078D01*
X02438D01*
X024432Y024026D01*
Y023921D01*
X02438Y023868D01*
X024275D01*
X024222Y023921D01*
X023819Y022451D02*
Y022766D01*
X023976D01*
X024029Y022713D01*
Y022608D01*
X023976Y022556D01*
X023819D01*
X023924D02*
X024029Y022451D01*
X024344Y022766D02*
X024239Y022713D01*
X024134Y022608D01*
Y022503D01*
X024186Y022451D01*
X024291D01*
X024344Y022503D01*
Y022556D01*
X024291Y022608D01*
X024134D01*
X024449Y022713D02*
X024501Y022766D01*
X024606D01*
X024659Y022713D01*
Y022661D01*
X024606Y022608D01*
X024554D01*
X024606D01*
X024659Y022556D01*
Y022503D01*
X024606Y022451D01*
X024501D01*
X024449Y022503D01*
X025325Y023907D02*
X02501D01*
Y024065D01*
X025062Y024117D01*
X025167D01*
X02522Y024065D01*
Y023907D01*
Y024012D02*
X025325Y024117D01*
X02501Y024432D02*
X025062Y024327D01*
X025167Y024222D01*
X025272D01*
X025325Y024275D01*
Y02438D01*
X025272Y024432D01*
X02522D01*
X025167Y02438D01*
Y024222D01*
X025325Y024747D02*
Y024537D01*
X025115Y024747D01*
X025062D01*
X02501Y024695D01*
Y02459D01*
X025062Y024537D01*
X019803Y015699D02*
Y016014D01*
X019961D01*
X020013Y015961D01*
Y015856D01*
X019961Y015804D01*
X019803D01*
X019908D02*
X020013Y015699D01*
X020328Y016014D02*
X020118D01*
Y015856D01*
X020223Y015909D01*
X020275D01*
X020328Y015856D01*
Y015751D01*
X020275Y015699D01*
X02017D01*
X020118Y015751D01*
X020433D02*
X020485Y015699D01*
X02059D01*
X020643Y015751D01*
Y015961D01*
X02059Y016014D01*
X020485D01*
X020433Y015961D01*
Y015909D01*
X020485Y015856D01*
X020643D01*
X021486Y018996D02*
X021264Y019219D01*
X021375Y01933D01*
X021449D01*
X021523Y019256D01*
X021523Y019182D01*
X021412Y01907D01*
X021486Y019144D02*
X021635D01*
Y01959D02*
X021486Y019441D01*
X021598Y01933D01*
X021635Y019441D01*
X021672Y019478D01*
X021746D01*
X02182Y019404D01*
X02182Y01933D01*
X021746Y019256D01*
X021672D01*
X021746Y019627D02*
X021746Y019701D01*
X02182Y019775D01*
X021894D01*
X021932Y019738D01*
Y019664D01*
X022006Y019664D01*
X022043Y019627D01*
X022043Y019553D01*
X021969Y019478D01*
X021894D01*
X021857Y019516D01*
Y01959D01*
X021783Y01959D01*
X021746Y019627D01*
X021857Y01959D02*
X021932Y019664D01*
X021959Y024055D02*
X021644D01*
X021749Y02416D01*
X021644Y024265D01*
X021959D01*
Y02437D02*
Y024475D01*
Y024422D01*
X021644D01*
X021696Y02437D01*
Y024632D02*
X021644Y024685D01*
Y02479D01*
X021696Y024842D01*
X021906D01*
X021959Y02479D01*
Y024685D01*
X021906Y024632D01*
X021696D01*
X029321Y024439D02*
Y024754D01*
X029426Y024649D01*
X029531Y024754D01*
Y024439D01*
X029636Y024754D02*
X029846D01*
Y024701D01*
X029636Y024491D01*
Y024439D01*
X020896Y014882D02*
Y015197D01*
X021053D01*
X021106Y015144D01*
Y015039D01*
X021053Y014987D01*
X020896D01*
X021001D02*
X021106Y014882D01*
X02142Y015197D02*
X021211D01*
Y015039D01*
X021315Y015092D01*
X021368D01*
X02142Y015039D01*
Y014934D01*
X021368Y014882D01*
X021263D01*
X021211Y014934D01*
X021735Y015197D02*
X02163Y015144D01*
X021525Y015039D01*
Y014934D01*
X021578Y014882D01*
X021683D01*
X021735Y014934D01*
Y014987D01*
X021683Y015039D01*
X021525D01*
X019626Y012638D02*
Y012323D01*
X019783D01*
X019836Y012375D01*
Y012585D01*
X019783Y012638D01*
X019626D01*
X019941Y012323D02*
X020046D01*
X019993D01*
Y012638D01*
X019941Y012585D01*
X020203Y012323D02*
X020308D01*
X020256D01*
Y012638D01*
X020203Y012585D01*
X022119Y013688D02*
X022067Y01374D01*
X021962D01*
X021909Y013688D01*
Y013478D01*
X021962Y013425D01*
X022067D01*
X022119Y013478D01*
X022434Y01374D02*
X022224D01*
Y013583D01*
X022329Y013635D01*
X022382D01*
X022434Y013583D01*
Y013478D01*
X022382Y013425D01*
X022277D01*
X022224Y013478D01*
X022539Y01374D02*
X022749D01*
Y013688D01*
X022539Y013478D01*
Y013425D01*
X017933Y021949D02*
X017618D01*
Y022106D01*
X017671Y022159D01*
X017776D01*
X017828Y022106D01*
Y021949D01*
Y022054D02*
X017933Y022159D01*
Y022474D02*
Y022264D01*
X017723Y022474D01*
X017671D01*
X017618Y022421D01*
Y022316D01*
X017671Y022264D01*
Y022579D02*
X017618Y022631D01*
Y022736D01*
X017671Y022788D01*
X017723D01*
X017776Y022736D01*
Y022683D01*
Y022736D01*
X017828Y022788D01*
X017881D01*
X017933Y022736D01*
Y022631D01*
X017881Y022579D01*
X013901Y024593D02*
X013848Y024646D01*
X013743D01*
X013691Y024593D01*
Y024383D01*
X013743Y024331D01*
X013848D01*
X013901Y024383D01*
X014006Y024331D02*
X014111D01*
X014058D01*
Y024646D01*
X014006Y024593D01*
X014268D02*
X014321Y024646D01*
X014426D01*
X014478Y024593D01*
Y024383D01*
X014426Y024331D01*
X014321D01*
X014268Y024383D01*
Y024593D01*
X014491Y010666D02*
X014439Y010718D01*
X014334D01*
X014282Y010666D01*
Y010456D01*
X014334Y010404D01*
X014439D01*
X014491Y010456D01*
X014806Y010404D02*
X014596D01*
X014806Y010613D01*
Y010666D01*
X014754Y010718D01*
X014649D01*
X014596Y010666D01*
X015121Y010718D02*
X014911D01*
Y010561D01*
X015016Y010613D01*
X015069D01*
X015121Y010561D01*
Y010456D01*
X015069Y010404D01*
X014964D01*
X014911Y010456D01*
X017776Y023799D02*
Y024114D01*
X017933D01*
X017986Y024062D01*
Y023957D01*
X017933Y023904D01*
X017776D01*
X017881D02*
X017986Y023799D01*
X0183D02*
X01809D01*
X0183Y024009D01*
Y024062D01*
X018248Y024114D01*
X018143D01*
X01809Y024062D01*
X018615Y024114D02*
X01851Y024062D01*
X018405Y023957D01*
Y023852D01*
X018458Y023799D01*
X018563D01*
X018615Y023852D01*
Y023904D01*
X018563Y023957D01*
X018405D01*
X019334Y024482D02*
X019282Y024429D01*
Y024324D01*
X019334Y024272D01*
X019544D01*
X019596Y024324D01*
Y024429D01*
X019544Y024482D01*
X019596Y024796D02*
Y024587D01*
X019387Y024796D01*
X019334D01*
X019282Y024744D01*
Y024639D01*
X019334Y024587D01*
Y024901D02*
X019282Y024954D01*
Y025059D01*
X019334Y025111D01*
X019387D01*
X019439Y025059D01*
Y025006D01*
Y025059D01*
X019491Y025111D01*
X019544D01*
X019596Y025059D01*
Y024954D01*
X019544Y024901D01*
X01087Y022848D02*
X010817Y022795D01*
Y02269D01*
X01087Y022638D01*
X011079D01*
X011132Y02269D01*
Y022795D01*
X011079Y022848D01*
X011132Y022953D02*
Y023058D01*
Y023005D01*
X010817D01*
X01087Y022953D01*
X02083Y023448D02*
X020778Y023396D01*
Y023291D01*
X02083Y023238D01*
X02104D01*
X021093Y023291D01*
Y023396D01*
X02104Y023448D01*
X021093Y023763D02*
Y023553D01*
X020883Y023763D01*
X02083D01*
X020778Y02371D01*
Y023606D01*
X02083Y023553D01*
X01897Y016174D02*
X018917Y016122D01*
Y016017D01*
X01897Y015965D01*
X01918D01*
X019232Y016017D01*
Y016122D01*
X01918Y016174D01*
X01897Y016279D02*
X018917Y016332D01*
Y016437D01*
X01897Y016489D01*
X019022D01*
X019075Y016437D01*
Y016384D01*
Y016437D01*
X019127Y016489D01*
X01918D01*
X019232Y016437D01*
Y016332D01*
X01918Y016279D01*
X01897Y014711D02*
X018917Y014764D01*
X018812D01*
X01876Y014711D01*
Y014501D01*
X018812Y014449D01*
X018917D01*
X01897Y014501D01*
X019232Y014449D02*
Y014764D01*
X019075Y014606D01*
X019285D01*
X016903Y009918D02*
X01685Y00997D01*
X016745D01*
X016693Y009918D01*
Y009708D01*
X016745Y009656D01*
X01685D01*
X016903Y009708D01*
X017218Y00997D02*
X017008D01*
Y009813D01*
X017113Y009865D01*
X017165D01*
X017218Y009813D01*
Y009708D01*
X017165Y009656D01*
X01706D01*
X017008Y009708D01*
X010929Y013438D02*
X010876Y013386D01*
Y013281D01*
X010929Y013228D01*
X011138D01*
X011191Y013281D01*
Y013386D01*
X011138Y013438D01*
X010876Y013753D02*
X010929Y013648D01*
X011034Y013543D01*
X011138D01*
X011191Y013596D01*
Y013701D01*
X011138Y013753D01*
X011086D01*
X011034Y013701D01*
Y013543D01*
X011037Y014511D02*
X010984Y014459D01*
Y014354D01*
X011037Y014301D01*
X011247D01*
X011299Y014354D01*
Y014459D01*
X011247Y014511D01*
X010984Y014616D02*
Y014826D01*
X011037D01*
X011247Y014616D01*
X011299D01*
X011421Y022749D02*
X011368Y022697D01*
Y022592D01*
X011421Y022539D01*
X011631D01*
X011683Y022592D01*
Y022697D01*
X011631Y022749D01*
X011683Y022854D02*
Y022959D01*
Y022907D01*
X011368D01*
X011421Y022854D01*
X011683Y023117D02*
Y023222D01*
Y023169D01*
X011368D01*
X011421Y023117D01*
X011574Y024191D02*
Y024265D01*
X0115Y024339D01*
X011426Y024339D01*
X011277Y024191D01*
Y024116D01*
X011351Y024042D01*
X011426Y024042D01*
X011463Y023931D02*
X011537Y023857D01*
X0115Y023894D01*
X011723Y024116D01*
X011648Y024116D01*
X011834Y023931D02*
X011908Y023931D01*
X011982Y023857D01*
Y023782D01*
X011945Y023745D01*
X011871D01*
X011834Y023782D01*
X011871Y023745D01*
Y023671D01*
X011834Y023634D01*
X01176Y023634D01*
X011685Y023708D01*
Y023782D01*
X016608Y00919D02*
X016555Y009242D01*
X01645D01*
X016398Y00919D01*
Y00898D01*
X01645Y008927D01*
X016555D01*
X016608Y00898D01*
X016712Y008927D02*
X016817D01*
X016765D01*
Y009242D01*
X016712Y00919D01*
X017185Y009242D02*
X01708Y00919D01*
X016975Y009085D01*
Y00898D01*
X017027Y008927D01*
X017132D01*
X017185Y00898D01*
Y009032D01*
X017132Y009085D01*
X016975D01*
X021371Y009219D02*
X021319Y009272D01*
X021214D01*
X021161Y009219D01*
Y009009D01*
X021214Y008957D01*
X021319D01*
X021371Y009009D01*
X021476Y008957D02*
X021581D01*
X021529D01*
Y009272D01*
X021476Y009219D01*
X021739Y009272D02*
X021949D01*
Y009219D01*
X021739Y009009D01*
Y008957D01*
X017995Y021394D02*
X017943Y021447D01*
X017838D01*
X017785Y021394D01*
Y021184D01*
X017838Y021132D01*
X017943D01*
X017995Y021184D01*
X0181Y021132D02*
X018205D01*
X018153D01*
Y021447D01*
X0181Y021394D01*
X018363D02*
X018415Y021447D01*
X01852D01*
X018573Y021394D01*
Y021342D01*
X01852Y021289D01*
X018573Y021237D01*
Y021184D01*
X01852Y021132D01*
X018415D01*
X018363Y021184D01*
Y021237D01*
X018415Y021289D01*
X018363Y021342D01*
Y021394D01*
X018415Y021289D02*
X01852D01*
X018507Y023215D02*
X018455Y023268D01*
X01835D01*
X018297Y023215D01*
Y023005D01*
X01835Y022953D01*
X018455D01*
X018507Y023005D01*
X018822Y022953D02*
X018612D01*
X018822Y023163D01*
Y023215D01*
X01877Y023268D01*
X018665D01*
X018612Y023215D01*
X018927D02*
X018979Y023268D01*
X019084D01*
X019137Y023215D01*
Y023005D01*
X019084Y022953D01*
X018979D01*
X018927Y023005D01*
Y023215D01*
X020249Y019829D02*
X020197Y019882D01*
X020092D01*
X020039Y019829D01*
Y019619D01*
X020092Y019567D01*
X020197D01*
X020249Y019619D01*
X020564Y019567D02*
X020354D01*
X020564Y019777D01*
Y019829D01*
X020512Y019882D01*
X020407D01*
X020354Y019829D01*
X020669Y019567D02*
X020774D01*
X020722D01*
Y019882D01*
X020669Y019829D01*
X011683Y021083D02*
Y021398D01*
X01184D01*
X011893Y021345D01*
Y02124D01*
X01184Y021188D01*
X011683D01*
X011788D02*
X011893Y021083D01*
X011998D02*
X012103D01*
X01205D01*
Y021398D01*
X011998Y021345D01*
X019675Y010896D02*
Y011211D01*
X019833D01*
X019885Y011158D01*
Y011053D01*
X019833Y011001D01*
X019675D01*
X01978D02*
X019885Y010896D01*
X01999Y011158D02*
X020043Y011211D01*
X020147D01*
X0202Y011158D01*
Y011106D01*
X020147Y011053D01*
X020095D01*
X020147D01*
X0202Y011001D01*
Y010948D01*
X020147Y010896D01*
X020043D01*
X01999Y010948D01*
X019242Y011634D02*
Y011949D01*
X0194D01*
X019452Y011896D01*
Y011791D01*
X0194Y011739D01*
X019242D01*
X019347D02*
X019452Y011634D01*
X019714D02*
Y011949D01*
X019557Y011791D01*
X019767D01*
X017825Y010807D02*
Y011122D01*
X017982D01*
X018035Y011069D01*
Y010965D01*
X017982Y010912D01*
X017825D01*
X01793D02*
X018035Y010807D01*
X01835D02*
X01814D01*
X01835Y011017D01*
Y011069D01*
X018297Y011122D01*
X018192D01*
X01814Y011069D01*
X018455Y010807D02*
X018559D01*
X018507D01*
Y011122D01*
X018455Y011069D01*
X02122Y020463D02*
X020998Y020685D01*
X021109Y020797D01*
X021183D01*
X021258Y020722D01*
X021258Y020648D01*
X021146Y020537D01*
X02122Y020611D02*
X021369D01*
X021592Y020834D02*
X021443Y020685D01*
Y020982D01*
X021406Y021019D01*
X021332D01*
X021258Y020945D01*
X021258Y020871D01*
X021814Y021056D02*
X021666Y020908D01*
Y021205D01*
X021629Y021242D01*
X021554D01*
X02148Y021168D01*
X02148Y021093D01*
X020217Y020915D02*
Y02123D01*
X020374D01*
X020426Y021178D01*
Y021073D01*
X020374Y02102D01*
X020217D01*
X020321D02*
X020426Y020915D01*
X020741D02*
X020531D01*
X020741Y021125D01*
Y021178D01*
X020689Y02123D01*
X020584D01*
X020531Y021178D01*
X021004Y020915D02*
Y02123D01*
X020846Y021073D01*
X021056D01*
X01378Y018366D02*
Y018104D01*
X013832Y018051D01*
X013937D01*
X013989Y018104D01*
Y018366D01*
X014094Y018051D02*
X014199D01*
X014147D01*
Y018366D01*
X014094Y018314D01*
X013661Y023484D02*
Y023222D01*
X013714Y023169D01*
X013819D01*
X013871Y023222D01*
Y023484D01*
X014186Y023169D02*
X013976D01*
X014186Y023379D01*
Y023432D01*
X014134Y023484D01*
X014029D01*
X013976Y023432D01*
X019301Y022894D02*
Y022631D01*
X019354Y022579D01*
X019459D01*
X019511Y022631D01*
Y022894D01*
X019773Y022579D02*
Y022894D01*
X019616Y022736D01*
X019826D01*
X026489Y007005D02*
X026437Y007057D01*
X026332D01*
X02628Y007005D01*
Y006795D01*
X026332Y006742D01*
X026437D01*
X026489Y006795D01*
X026804Y006742D02*
X026594D01*
X026804Y006952D01*
Y007005D01*
X026752Y007057D01*
X026647D01*
X026594Y007005D01*
X026909Y007057D02*
X027119D01*
Y007005D01*
X026909Y006795D01*
Y006742D01*
X02956Y007789D02*
X029508Y007736D01*
Y007631D01*
X02956Y007579D01*
X02977D01*
X029823Y007631D01*
Y007736D01*
X02977Y007789D01*
X029823Y008104D02*
Y007894D01*
X029613Y008104D01*
X02956D01*
X029508Y008051D01*
Y007946D01*
X02956Y007894D01*
Y008208D02*
X029508Y008261D01*
Y008366D01*
X02956Y008418D01*
X029613D01*
X029665Y008366D01*
X029718Y008418D01*
X02977D01*
X029823Y008366D01*
Y008261D01*
X02977Y008208D01*
X029718D01*
X029665Y008261D01*
X029613Y008208D01*
X02956D01*
X029665Y008261D02*
Y008366D01*
X031716Y008717D02*
X031663Y00877D01*
X031558D01*
X031506Y008717D01*
Y008507D01*
X031558Y008455D01*
X031663D01*
X031716Y008507D01*
X032031Y008455D02*
X031821D01*
X032031Y008665D01*
Y008717D01*
X031978Y00877D01*
X031873D01*
X031821Y008717D01*
X032136Y008507D02*
X032188Y008455D01*
X032293D01*
X032346Y008507D01*
Y008717D01*
X032293Y00877D01*
X032188D01*
X032136Y008717D01*
Y008665D01*
X032188Y008612D01*
X032346D01*
X02433Y009437D02*
Y009511D01*
X024256Y009585D01*
X024182Y009585D01*
X024033Y009437D01*
Y009362D01*
X024107Y009288D01*
X024182Y009288D01*
X024404Y009362D02*
X024478Y009362D01*
X024553Y009288D01*
Y009214D01*
X024516Y009177D01*
X024441D01*
X024404Y009214D01*
X024441Y009177D01*
X024441Y009103D01*
X024404Y009066D01*
X02433Y009066D01*
X024256Y00914D01*
Y009214D01*
X02459Y008806D02*
X024441Y008954D01*
X024738D01*
X024775Y008991D01*
Y009066D01*
X024701Y00914D01*
X024627Y00914D01*
X025712Y007956D02*
X02566Y007903D01*
Y007799D01*
X025712Y007746D01*
X025922D01*
X025974Y007799D01*
Y007903D01*
X025922Y007956D01*
X025712Y008061D02*
X02566Y008113D01*
Y008218D01*
X025712Y008271D01*
X025765D01*
X025817Y008218D01*
Y008166D01*
Y008218D01*
X025869Y008271D01*
X025922D01*
X025974Y008218D01*
Y008113D01*
X025922Y008061D01*
X025712Y008376D02*
X02566Y008428D01*
Y008533D01*
X025712Y008586D01*
X025765D01*
X025817Y008533D01*
Y008481D01*
Y008533D01*
X025869Y008586D01*
X025922D01*
X025974Y008533D01*
Y008428D01*
X025922Y008376D01*
X030574Y012782D02*
X030522Y012835D01*
X030417D01*
X030364Y012782D01*
Y012572D01*
X030417Y01252D01*
X030522D01*
X030574Y012572D01*
X030836Y01252D02*
Y012835D01*
X030679Y012677D01*
X030889D01*
X030994Y012782D02*
X031046Y012835D01*
X031151D01*
X031204Y012782D01*
Y012572D01*
X031151Y01252D01*
X031046D01*
X030994Y012572D01*
Y012782D01*
X033143Y011736D02*
X033091Y011683D01*
Y011578D01*
X033143Y011526D01*
X033353D01*
X033406Y011578D01*
Y011683D01*
X033353Y011736D01*
X033406Y011998D02*
X033091D01*
X033248Y01184D01*
Y01205D01*
X033406Y012155D02*
Y01226D01*
Y012208D01*
X033091D01*
X033143Y012155D01*
X033291Y008156D02*
X033238Y008209D01*
X033133D01*
X033081Y008156D01*
Y007946D01*
X033133Y007894D01*
X033238D01*
X033291Y007946D01*
X033553Y007894D02*
Y008209D01*
X033396Y008051D01*
X033605D01*
X03392Y007894D02*
X03371D01*
X03392Y008104D01*
Y008156D01*
X033868Y008209D01*
X033763D01*
X03371Y008156D01*
X028999Y012277D02*
X028947Y012224D01*
Y012119D01*
X028999Y012067D01*
X029209D01*
X029262Y012119D01*
Y012224D01*
X029209Y012277D01*
X029262Y012539D02*
X028947D01*
X029104Y012382D01*
Y012592D01*
X028999Y012697D02*
X028947Y012749D01*
Y012854D01*
X028999Y012907D01*
X029052D01*
X029104Y012854D01*
Y012802D01*
Y012854D01*
X029157Y012907D01*
X029209D01*
X029262Y012854D01*
Y012749D01*
X029209Y012697D01*
X021381Y011798D02*
X021329Y01185D01*
X021224D01*
X021171Y011798D01*
Y011588D01*
X021224Y011535D01*
X021329D01*
X021381Y011588D01*
X021696Y01185D02*
X021486D01*
Y011693D01*
X021591Y011745D01*
X021644D01*
X021696Y011693D01*
Y011588D01*
X021644Y011535D01*
X021539D01*
X021486Y011588D01*
X022011Y011535D02*
X021801D01*
X022011Y011745D01*
Y011798D01*
X021958Y01185D01*
X021853D01*
X021801Y011798D01*
X031083Y018327D02*
Y018012D01*
X031293D01*
X031607D02*
X031398D01*
X031607Y018222D01*
Y018274D01*
X031555Y018327D01*
X03145D01*
X031398Y018274D01*
X026831Y018189D02*
Y018504D01*
X026936Y018399D01*
X027041Y018504D01*
Y018189D01*
X027355Y018504D02*
X027146D01*
Y018346D01*
X027251Y018399D01*
X027303D01*
X027355Y018346D01*
Y018241D01*
X027303Y018189D01*
X027198D01*
X027146Y018241D01*
X026781Y010354D02*
Y010669D01*
X026939D01*
X026991Y010617D01*
Y010512D01*
X026939Y010459D01*
X026781D01*
X026886D02*
X026991Y010354D01*
X027096D02*
X027201D01*
X027149D01*
Y010669D01*
X027096Y010617D01*
X027569Y010669D02*
X027359D01*
Y010512D01*
X027464Y010564D01*
X027516D01*
X027569Y010512D01*
Y010407D01*
X027516Y010354D01*
X027411D01*
X027359Y010407D01*
X024833Y009567D02*
Y009882D01*
X02499D01*
X025043Y009829D01*
Y009724D01*
X02499Y009672D01*
X024833D01*
X024938D02*
X025043Y009567D01*
X025357D02*
X025148D01*
X025357Y009777D01*
Y009829D01*
X025305Y009882D01*
X0252D01*
X025148Y009829D01*
X025672Y009882D02*
X025462D01*
Y009724D01*
X025567Y009777D01*
X02562D01*
X025672Y009724D01*
Y009619D01*
X02562Y009567D01*
X025515D01*
X025462Y009619D01*
X024567Y007579D02*
X024252D01*
Y007736D01*
X024305Y007789D01*
X024409D01*
X024462Y007736D01*
Y007579D01*
Y007684D02*
X024567Y007789D01*
Y008104D02*
Y007894D01*
X024357Y008104D01*
X024305D01*
X024252Y008051D01*
Y007946D01*
X024305Y007894D01*
X024514Y008208D02*
X024567Y008261D01*
Y008366D01*
X024514Y008418D01*
X024305D01*
X024252Y008366D01*
Y008261D01*
X024305Y008208D01*
X024357D01*
X024409Y008261D01*
Y008418D01*
X025187Y016526D02*
X024872D01*
Y016683D01*
X024925Y016736D01*
X02503D01*
X025082Y016683D01*
Y016526D01*
Y016631D02*
X025187Y016736D01*
X024925Y01684D02*
X024872Y016893D01*
Y016998D01*
X024925Y01705D01*
X024977D01*
X02503Y016998D01*
Y016945D01*
Y016998D01*
X025082Y01705D01*
X025135D01*
X025187Y016998D01*
Y016893D01*
X025135Y01684D01*
X024925Y017155D02*
X024872Y017208D01*
Y017313D01*
X024925Y017365D01*
X025135D01*
X025187Y017313D01*
Y017208D01*
X025135Y017155D01*
X024925D01*
X028278Y01811D02*
Y018425D01*
X028435D01*
X028487Y018373D01*
Y018268D01*
X028435Y018215D01*
X028278D01*
X028383D02*
X028487Y01811D01*
X028592Y018373D02*
X028645Y018425D01*
X02875D01*
X028802Y018373D01*
Y01832D01*
X02875Y018268D01*
X028697D01*
X02875D01*
X028802Y018215D01*
Y018163D01*
X02875Y01811D01*
X028645D01*
X028592Y018163D01*
X029117Y01811D02*
X028907D01*
X029117Y01832D01*
Y018373D01*
X029065Y018425D01*
X02896D01*
X028907Y018373D01*
X029085Y016604D02*
X02877D01*
Y016762D01*
X028822Y016814D01*
X028927D01*
X02898Y016762D01*
Y016604D01*
Y016709D02*
X029085Y016814D01*
X028822Y016919D02*
X02877Y016972D01*
Y017077D01*
X028822Y017129D01*
X028875D01*
X028927Y017077D01*
Y017024D01*
Y017077D01*
X02898Y017129D01*
X029032D01*
X029085Y017077D01*
Y016972D01*
X029032Y016919D01*
X028822Y017234D02*
X02877Y017287D01*
Y017391D01*
X028822Y017444D01*
X028875D01*
X028927Y017391D01*
Y017339D01*
Y017391D01*
X02898Y017444D01*
X029032D01*
X029085Y017391D01*
Y017287D01*
X029032Y017234D01*
X03249Y006713D02*
X032175D01*
Y00687D01*
X032228Y006923D01*
X032333D01*
X032385Y00687D01*
Y006713D01*
Y006818D02*
X03249Y006923D01*
X032228Y007027D02*
X032175Y00708D01*
Y007185D01*
X032228Y007237D01*
X03228D01*
X032333Y007185D01*
Y007132D01*
Y007185D01*
X032385Y007237D01*
X032438D01*
X03249Y007185D01*
Y00708D01*
X032438Y007027D01*
X032175Y007342D02*
Y007552D01*
X032228D01*
X032438Y007342D01*
X03249D01*
X032037Y006663D02*
X031723D01*
Y006821D01*
X031775Y006873D01*
X03188D01*
X031932Y006821D01*
Y006663D01*
Y006768D02*
X032037Y006873D01*
Y007136D02*
X031723D01*
X03188Y006978D01*
Y007188D01*
X031775Y007293D02*
X031723Y007346D01*
Y007451D01*
X031775Y007503D01*
X031985D01*
X032037Y007451D01*
Y007346D01*
X031985Y007293D01*
X031775D01*
X031004Y007461D02*
X030689D01*
Y007618D01*
X030742Y007671D01*
X030847D01*
X030899Y007618D01*
Y007461D01*
Y007566D02*
X031004Y007671D01*
Y007933D02*
X030689D01*
X030847Y007775D01*
Y007985D01*
X031004Y00809D02*
Y008195D01*
Y008143D01*
X030689D01*
X030742Y00809D01*
X023583Y014085D02*
Y014399D01*
X02374D01*
X023793Y014347D01*
Y014242D01*
X02374Y01419D01*
X023583D01*
X023688D02*
X023793Y014085D01*
X024055D02*
Y014399D01*
X023898Y014242D01*
X024107D01*
X024422Y014085D02*
X024212D01*
X024422Y014295D01*
Y014347D01*
X02437Y014399D01*
X024265D01*
X024212Y014347D01*
X02292Y01869D02*
Y019005D01*
X023077D01*
X02313Y018952D01*
Y018847D01*
X023077Y018795D01*
X02292D01*
X023025D02*
X02313Y01869D01*
X023392D02*
Y019005D01*
X023235Y018847D01*
X023445D01*
X02355Y018952D02*
X023602Y019005D01*
X023707D01*
X02376Y018952D01*
Y0189D01*
X023707Y018847D01*
X023655D01*
X023707D01*
X02376Y018795D01*
Y018742D01*
X023707Y01869D01*
X023602D01*
X02355Y018742D01*
X015472Y019075D02*
Y01939D01*
X01563D01*
X015682Y019337D01*
Y019232D01*
X01563Y01918D01*
X015472D01*
X015577D02*
X015682Y019075D01*
X015945D02*
Y01939D01*
X015787Y019232D01*
X015997D01*
X016312Y01939D02*
X016102D01*
Y019232D01*
X016207Y019285D01*
X01626D01*
X016312Y019232D01*
Y019127D01*
X01626Y019075D01*
X016155D01*
X016102Y019127D01*
X0225Y015246D02*
Y015561D01*
X022657D01*
X02271Y015508D01*
Y015403D01*
X022657Y015351D01*
X0225D01*
X022605D02*
X02271Y015246D01*
X022972D02*
Y015561D01*
X022815Y015403D01*
X023025D01*
X02334Y015561D02*
X023235Y015508D01*
X02313Y015403D01*
Y015299D01*
X023182Y015246D01*
X023287D01*
X02334Y015299D01*
Y015351D01*
X023287Y015403D01*
X02313D01*
X026014Y010039D02*
Y009777D01*
X026066Y009724D01*
X026171D01*
X026224Y009777D01*
Y010039D01*
X026539D02*
X026329D01*
Y009882D01*
X026434Y009934D01*
X026486D01*
X026539Y009882D01*
Y009777D01*
X026486Y009724D01*
X026381D01*
X026329Y009777D01*
X023091Y016053D02*
Y015791D01*
X023143Y015738D01*
X023248D01*
X0233Y015791D01*
Y016053D01*
X023405D02*
X023615D01*
Y016001D01*
X023405Y015791D01*
Y015738D01*
X03312Y01063D02*
Y010367D01*
X033173Y010315D01*
X033278D01*
X03333Y010367D01*
Y01063D01*
X033435Y010577D02*
X033487Y01063D01*
X033592D01*
X033645Y010577D01*
Y010525D01*
X033592Y010472D01*
X033645Y01042D01*
Y010367D01*
X033592Y010315D01*
X033487D01*
X033435Y010367D01*
Y01042D01*
X033487Y010472D01*
X033435Y010525D01*
Y010577D01*
X033487Y010472D02*
X033592D01*
X016033Y021713D02*
X016243D01*
X016138D01*
Y021398D01*
X016348D02*
Y021713D01*
X016506D01*
X016558Y02166D01*
Y021555D01*
X016506Y021503D01*
X016348D01*
X016663Y02145D02*
X016716Y021398D01*
X016821D01*
X016873Y02145D01*
Y02166D01*
X016821Y021713D01*
X016716D01*
X016663Y02166D01*
Y021608D01*
X016716Y021555D01*
X016873D01*
X029035Y010738D02*
X029245D01*
X02914D01*
Y010423D01*
X02935D02*
Y010738D01*
X029508D01*
X02956Y010686D01*
Y010581D01*
X029508Y010528D01*
X02935D01*
X029875Y010423D02*
X029665D01*
X029875Y010633D01*
Y010686D01*
X029823Y010738D01*
X029718D01*
X029665Y010686D01*
X033366Y009764D02*
X033576D01*
X033471D01*
Y009449D01*
X033681D02*
Y009764D01*
X033838D01*
X033891Y009711D01*
Y009606D01*
X033838Y009554D01*
X033681D01*
X033996Y009711D02*
X034048Y009764D01*
X034153D01*
X034206Y009711D01*
Y009659D01*
X034153Y009606D01*
X034101D01*
X034153D01*
X034206Y009554D01*
Y009501D01*
X034153Y009449D01*
X034048D01*
X033996Y009501D01*
X029777Y008842D02*
X029871Y008748D01*
X029824Y008795D01*
X029683Y008654D01*
X029777Y008559D02*
X029919Y008701D01*
X029989Y00863D01*
Y008583D01*
X029942Y008536D01*
X029895D01*
X029824Y008607D01*
X029989Y008347D02*
X030131Y008489D01*
X029989D01*
X030084Y008394D01*
X029656Y011171D02*
Y011381D01*
Y011276D01*
X02997D01*
Y011486D02*
X029656D01*
Y011644D01*
X029708Y011696D01*
X029813D01*
X029866Y011644D01*
Y011486D01*
X029656Y012011D02*
Y011801D01*
X029813D01*
X029761Y011906D01*
Y011958D01*
X029813Y012011D01*
X029918D01*
X02997Y011958D01*
Y011853D01*
X029918Y011801D01*
X020217Y022579D02*
X020426D01*
X020321D01*
Y022264D01*
X020531D02*
Y022579D01*
X020689D01*
X020741Y022526D01*
Y022421D01*
X020689Y022369D01*
X020531D01*
X020846Y022264D02*
X020951D01*
X020899D01*
Y022579D01*
X020846Y022526D01*
X021109D02*
X021161Y022579D01*
X021266D01*
X021319Y022526D01*
Y022316D01*
X021266Y022264D01*
X021161D01*
X021109Y022316D01*
Y022526D01*
X027677Y016358D02*
Y016043D01*
X027835D01*
X027887Y016096D01*
Y016306D01*
X027835Y016358D01*
X027677D01*
X028149Y016043D02*
Y016358D01*
X027992Y016201D01*
X028202D01*
X026614Y016329D02*
Y016014D01*
X026772D01*
X026824Y016066D01*
Y016276D01*
X026772Y016329D01*
X026614D01*
X026929D02*
X027139D01*
Y016276D01*
X026929Y016066D01*
Y016014D01*
X024291Y011899D02*
Y011637D01*
X024344Y011585D01*
X024449D01*
X024501Y011637D01*
Y011899D01*
X024606Y011637D02*
X024659Y011585D01*
X024764D01*
X024816Y011637D01*
Y011847D01*
X024764Y011899D01*
X024659D01*
X024606Y011847D01*
Y011795D01*
X024659Y011742D01*
X024816D01*
X023714Y02086D02*
X023662Y020807D01*
Y020702D01*
X023714Y02065D01*
X023924D01*
X023976Y020702D01*
Y020807D01*
X023924Y02086D01*
X023662Y021174D02*
X023714Y021069D01*
X023819Y020964D01*
X023924D01*
X023976Y021017D01*
Y021122D01*
X023924Y021174D01*
X023871D01*
X023819Y021122D01*
Y020964D01*
X023662Y021489D02*
Y021279D01*
X023819D01*
X023766Y021384D01*
Y021437D01*
X023819Y021489D01*
X023924D01*
X023976Y021437D01*
Y021332D01*
X023924Y021279D01*
X022513Y020223D02*
X022461Y020275D01*
X022356D01*
X022303Y020223D01*
Y020013D01*
X022356Y019961D01*
X022461D01*
X022513Y020013D01*
X022828Y020275D02*
X022723Y020223D01*
X022618Y020118D01*
Y020013D01*
X02267Y019961D01*
X022775D01*
X022828Y020013D01*
Y020066D01*
X022775Y020118D01*
X022618D01*
X022933Y020275D02*
X023143D01*
Y020223D01*
X022933Y020013D01*
Y019961D01*
X020968Y007451D02*
X020863D01*
X020915D01*
Y007188D01*
X020863Y007136D01*
X02081D01*
X020758Y007188D01*
X021283Y007451D02*
X021178Y007398D01*
X021073Y007293D01*
Y007188D01*
X021125Y007136D01*
X02123D01*
X021283Y007188D01*
Y007241D01*
X02123Y007293D01*
X021073D01*
X021024Y018159D02*
Y018474D01*
X021129Y018369D01*
X021234Y018474D01*
Y018159D01*
X021338D02*
X021443D01*
X021391D01*
Y018474D01*
X021338Y018422D01*
X021601Y018159D02*
X021706D01*
X021653D01*
Y018474D01*
X021601Y018422D01*
X027776Y020591D02*
Y020905D01*
X027933D01*
X027985Y020853D01*
Y020748D01*
X027933Y020696D01*
X027776D01*
X027881D02*
X027985Y020591D01*
X02809D02*
X028195D01*
X028143D01*
Y020905D01*
X02809Y020853D01*
X028353Y020905D02*
X028563D01*
Y020853D01*
X028353Y020643D01*
Y020591D01*
X020354Y016565D02*
Y01688D01*
X020512D01*
X020564Y016827D01*
Y016722D01*
X020512Y01667D01*
X020354D01*
X020459D02*
X020564Y016565D01*
X020879Y01688D02*
X020669D01*
Y016722D01*
X020774Y016775D01*
X020827D01*
X020879Y016722D01*
Y016617D01*
X020827Y016565D01*
X020722D01*
X020669Y016617D01*
X021141Y016565D02*
Y01688D01*
X020984Y016722D01*
X021194D01*
X021447Y022776D02*
X021709D01*
X021762Y022828D01*
Y022933D01*
X021709Y022985D01*
X021447D01*
X021762Y02309D02*
Y023195D01*
Y023143D01*
X021447D01*
X021499Y02309D01*
Y023353D02*
X021447Y023405D01*
Y02351D01*
X021499Y023563D01*
X021552D01*
X021604Y02351D01*
X021657Y023563D01*
X021709D01*
X021762Y02351D01*
Y023405D01*
X021709Y023353D01*
X021657D01*
X021604Y023405D01*
X021552Y023353D01*
X021499D01*
X021604Y023405D02*
Y02351D01*
X020404Y008455D02*
Y008402D01*
X020508Y008297D01*
X020613Y008402D01*
Y008455D01*
X020508Y008297D02*
Y00814D01*
X020928D02*
X020718D01*
X020928Y00835D01*
Y008402D01*
X020876Y008455D01*
X020771D01*
X020718Y008402D01*
M02*
