G04 Layer_Color=2752767*
%FSTAX24Y24*%
%MOIN*%
G70*
G01*
G75*
%ADD177C,0.0020*%
%ADD178C,0.0027*%
D177*
X013955Y0237D02*
Y02386D01*
X014115D01*
Y0237D01*
X013955D01*
X012223D02*
Y02386D01*
X012383D01*
Y0237D01*
X012223D01*
X033661Y018818D02*
X033581Y018978D01*
X033741D01*
X033661Y018818D01*
X022244D02*
X022164Y018978D01*
X022324D01*
X022244Y018818D01*
X022244Y007203D02*
X022164Y007363D01*
X022324D01*
X022244Y007203D01*
X033661D02*
X033581Y007363D01*
X033741D01*
X033661Y007203D01*
X010984Y01929D02*
X011024Y01933D01*
X011064D01*
X011024Y01937D01*
X011064Y01941D01*
X011024D01*
X010984Y01945D01*
X010944Y01941D01*
X010904D01*
X010944Y01937D01*
X010904Y01933D01*
X010944D01*
X010984Y01929D01*
Y006967D02*
X011024Y007007D01*
X011064D01*
X011024Y007047D01*
X011064Y007087D01*
X011024D01*
X010984Y007127D01*
X010944Y007087D01*
X010904D01*
X010944Y007047D01*
X010904Y007007D01*
X010944D01*
X010984Y006967D01*
X012562Y007355D02*
X012602Y007435D01*
X012562Y007515D01*
X012642Y007475D01*
X012722Y007515D01*
X012682Y007435D01*
X012722Y007355D01*
X012642Y007395D01*
X012562Y007355D01*
Y006855D02*
X012602Y006935D01*
X012562Y007015D01*
X012642Y006975D01*
X012722Y007015D01*
X012682Y006935D01*
X012722Y006855D01*
X012642Y006895D01*
X012562Y006855D01*
X013062Y007355D02*
X013102Y007435D01*
X013062Y007515D01*
X013142Y007475D01*
X013222Y007515D01*
X013182Y007435D01*
X013222Y007355D01*
X013142Y007395D01*
X013062Y007355D01*
Y006855D02*
X013102Y006935D01*
X013062Y007015D01*
X013142Y006975D01*
X013222Y007015D01*
X013182Y006935D01*
X013222Y006855D01*
X013142Y006895D01*
X013062Y006855D01*
X013562Y007355D02*
X013602Y007435D01*
X013562Y007515D01*
X013642Y007475D01*
X013722Y007515D01*
X013682Y007435D01*
X013722Y007355D01*
X013642Y007395D01*
X013562Y007355D01*
Y006855D02*
X013602Y006935D01*
X013562Y007015D01*
X013642Y006975D01*
X013722Y007015D01*
X013682Y006935D01*
X013722Y006855D01*
X013642Y006895D01*
X013562Y006855D01*
X014062Y007355D02*
X014102Y007435D01*
X014062Y007515D01*
X014142Y007475D01*
X014222Y007515D01*
X014182Y007435D01*
X014222Y007355D01*
X014142Y007395D01*
X014062Y007355D01*
Y006855D02*
X014102Y006935D01*
X014062Y007015D01*
X014142Y006975D01*
X014222Y007015D01*
X014182Y006935D01*
X014222Y006855D01*
X014142Y006895D01*
X014062Y006855D01*
X014562Y007355D02*
X014602Y007435D01*
X014562Y007515D01*
X014642Y007475D01*
X014722Y007515D01*
X014682Y007435D01*
X014722Y007355D01*
X014642Y007395D01*
X014562Y007355D01*
Y006855D02*
X014602Y006935D01*
X014562Y007015D01*
X014642Y006975D01*
X014722Y007015D01*
X014682Y006935D01*
X014722Y006855D01*
X014642Y006895D01*
X014562Y006855D01*
X033129Y021653D02*
Y021613D01*
X033209D01*
Y021653D01*
X033249D01*
Y021733D01*
X033209D01*
Y021773D01*
X033129D01*
Y021733D01*
X033089D01*
Y021653D01*
X033129D01*
X030964D02*
Y021613D01*
X031044D01*
Y021653D01*
X031084D01*
Y021733D01*
X031044D01*
Y021773D01*
X030964D01*
Y021733D01*
X030924D01*
Y021653D01*
X030964D01*
X033129Y024369D02*
Y024329D01*
X033209D01*
Y024369D01*
X033249D01*
Y024449D01*
X033209D01*
Y024489D01*
X033129D01*
Y024449D01*
X033089D01*
Y024369D01*
X033129D01*
X030964D02*
Y024329D01*
X031044D01*
Y024369D01*
X031084D01*
Y024449D01*
X031044D01*
Y024489D01*
X030964D01*
Y024449D01*
X030924D01*
Y024369D01*
X030964D01*
X018948Y007243D02*
X018988D01*
X019028Y007283D01*
X019068Y007243D01*
X019108D01*
Y007283D01*
X019068Y007323D01*
X019108Y007363D01*
Y007403D01*
X019068D01*
X019028Y007363D01*
X018988Y007403D01*
X018948D01*
Y007363D01*
X018988Y007323D01*
X018948Y007283D01*
Y007243D01*
X019948D02*
X019988D01*
X020028Y007283D01*
X020068Y007243D01*
X020108D01*
Y007283D01*
X020068Y007323D01*
X020108Y007363D01*
Y007403D01*
X020068D01*
X020028Y007363D01*
X019988Y007403D01*
X019948D01*
Y007363D01*
X019988Y007323D01*
X019948Y007283D01*
Y007243D01*
X020432Y00626D02*
X020512Y00634D01*
X020592Y00626D01*
X020512Y00618D01*
X020432Y00626D01*
X018463D02*
X018543Y00634D01*
X018623Y00626D01*
X018543Y00618D01*
X018463Y00626D01*
X016377D02*
X016457Y00634D01*
X016537Y00626D01*
X016457Y00618D01*
X016377Y00626D01*
X01429D02*
X01437Y00634D01*
X01445Y00626D01*
X01437Y00618D01*
X01429Y00626D01*
X012203D02*
X012283Y00634D01*
X012363Y00626D01*
X012283Y00618D01*
X012203Y00626D01*
X022203D02*
X022283Y00634D01*
X022363Y00626D01*
X022283Y00618D01*
X022203Y00626D01*
X02429D02*
X02437Y00634D01*
X02445Y00626D01*
X02437Y00618D01*
X02429Y00626D01*
X026377D02*
X026457Y00634D01*
X026537Y00626D01*
X026457Y00618D01*
X026377Y00626D01*
X028463D02*
X028543Y00634D01*
X028623Y00626D01*
X028543Y00618D01*
X028463Y00626D01*
X03055D02*
X03063Y00634D01*
X03071Y00626D01*
X03063Y00618D01*
X03055Y00626D01*
X032637D02*
X032717Y00634D01*
X032797Y00626D01*
X032717Y00618D01*
X032637Y00626D01*
X010117Y00815D02*
X010197Y00823D01*
X010277Y00815D01*
X010197Y00807D01*
X010117Y00815D01*
Y010118D02*
X010197Y010198D01*
X010277Y010118D01*
X010197Y010038D01*
X010117Y010118D01*
Y012087D02*
X010197Y012167D01*
X010277Y012087D01*
X010197Y012007D01*
X010117Y012087D01*
Y014055D02*
X010197Y014135D01*
X010277Y014055D01*
X010197Y013975D01*
X010117Y014055D01*
Y016024D02*
X010197Y016104D01*
X010277Y016024D01*
X010197Y015944D01*
X010117Y016024D01*
Y017992D02*
X010197Y018072D01*
X010277Y017992D01*
X010197Y017912D01*
X010117Y017992D01*
Y019961D02*
X010197Y020041D01*
X010277Y019961D01*
X010197Y019881D01*
X010117Y019961D01*
Y021929D02*
X010197Y022009D01*
X010277Y021929D01*
X010197Y021849D01*
X010117Y021929D01*
Y023898D02*
X010197Y023978D01*
X010277Y023898D01*
X010197Y023818D01*
X010117Y023898D01*
X014054Y025866D02*
X014134Y025946D01*
X014214Y025866D01*
X014134Y025786D01*
X014054Y025866D01*
X012085D02*
X012165Y025946D01*
X012245Y025866D01*
X012165Y025786D01*
X012085Y025866D01*
X034723Y023976D02*
X034803Y024056D01*
X034883Y023976D01*
X034803Y023896D01*
X034723Y023976D01*
Y022008D02*
X034803Y022088D01*
X034883Y022008D01*
X034803Y021928D01*
X034723Y022008D01*
Y020039D02*
X034803Y020119D01*
X034883Y020039D01*
X034803Y019959D01*
X034723Y020039D01*
Y018071D02*
X034803Y018151D01*
X034883Y018071D01*
X034803Y017991D01*
X034723Y018071D01*
Y016102D02*
X034803Y016182D01*
X034883Y016102D01*
X034803Y016022D01*
X034723Y016102D01*
Y014134D02*
X034803Y014214D01*
X034883Y014134D01*
X034803Y014054D01*
X034723Y014134D01*
Y012165D02*
X034803Y012245D01*
X034883Y012165D01*
X034803Y012085D01*
X034723Y012165D01*
Y010197D02*
X034803Y010277D01*
X034883Y010197D01*
X034803Y010117D01*
X034723Y010197D01*
Y008228D02*
X034803Y008308D01*
X034883Y008228D01*
X034803Y008148D01*
X034723Y008228D01*
X010117Y025866D02*
X010197Y025946D01*
X010277Y025866D01*
X010197Y025786D01*
X010117Y025866D01*
X034723D02*
X034803Y025946D01*
X034883Y025866D01*
X034803Y025786D01*
X034723Y025866D01*
Y00626D02*
X034803Y00634D01*
X034883Y00626D01*
X034803Y00618D01*
X034723Y00626D01*
X010117D02*
X010197Y00634D01*
X010277Y00626D01*
X010197Y00618D01*
X010117Y00626D01*
X030855Y010118D02*
X030935Y010198D01*
X031015Y010118D01*
X030935Y010038D01*
X030855Y010118D01*
X01055Y013337D02*
X01063Y013417D01*
X01071Y013337D01*
X01063Y013257D01*
X01055Y013337D01*
X018129Y024675D02*
X018209Y024755D01*
X018289Y024675D01*
X018209Y024595D01*
X018129Y024675D01*
X017203Y012421D02*
X017283Y012501D01*
X017363Y012421D01*
X017283Y012341D01*
X017203Y012421D01*
X02555Y024715D02*
X02563Y024795D01*
X02571Y024715D01*
X02563Y024635D01*
X02555Y024715D01*
X033827Y020246D02*
X033907Y020326D01*
X033987Y020246D01*
X033907Y020166D01*
X033827Y020246D01*
X029457Y02502D02*
X029537Y0251D01*
X029617Y02502D01*
X029537Y02494D01*
X029457Y02502D01*
X022922Y025256D02*
X023002Y025336D01*
X023082Y025256D01*
X023002Y025176D01*
X022922Y025256D01*
X020796Y013346D02*
X020876Y013426D01*
X020956Y013346D01*
X020876Y013266D01*
X020796Y013346D01*
X023896Y017598D02*
X023976Y017678D01*
X024056Y017598D01*
X023976Y017518D01*
X023896Y017598D01*
X024487Y017648D02*
X024567Y017728D01*
X024647Y017648D01*
X024567Y017568D01*
X024487Y017648D01*
X024054Y017982D02*
X024134Y018062D01*
X024214Y017982D01*
X024134Y017902D01*
X024054Y017982D01*
X023572Y016211D02*
X023652Y016291D01*
X023732Y016211D01*
X023652Y016131D01*
X023572Y016211D01*
X014487Y016949D02*
X014567Y017029D01*
X014647Y016949D01*
X014567Y016869D01*
X014487Y016949D01*
X01489Y017008D02*
X01497Y017088D01*
X01505Y017008D01*
X01497Y016928D01*
X01489Y017008D01*
X02368Y018996D02*
X02376Y019076D01*
X02384Y018996D01*
X02376Y018916D01*
X02368Y018996D01*
X022903Y019075D02*
X022983Y019155D01*
X023063Y019075D01*
X022983Y018995D01*
X022903Y019075D01*
X023906Y006585D02*
X023986Y006665D01*
X024066Y006585D01*
X023986Y006505D01*
X023906Y006585D01*
X023611Y008573D02*
X023691Y008653D01*
X023771Y008573D01*
X023691Y008493D01*
X023611Y008573D01*
X022696Y017215D02*
X022776Y017295D01*
X022856Y017215D01*
X022776Y017135D01*
X022696Y017215D01*
X023522Y01562D02*
X023602Y0157D01*
X023682Y01562D01*
X023602Y01554D01*
X023522Y01562D01*
X025707Y017618D02*
X025787Y017698D01*
X025867Y017618D01*
X025787Y017538D01*
X025707Y017618D01*
X025944Y018327D02*
X026024Y018407D01*
X026104Y018327D01*
X026024Y018247D01*
X025944Y018327D01*
X023326Y017008D02*
X023406Y017088D01*
X023486Y017008D01*
X023406Y016928D01*
X023326Y017008D01*
X012892Y016949D02*
X012972Y017029D01*
X013052Y016949D01*
X012972Y016869D01*
X012892Y016949D01*
X010835Y009557D02*
X010915Y009637D01*
X010995Y009557D01*
X010915Y009477D01*
X010835Y009557D01*
X012873Y009262D02*
X012953Y009342D01*
X013033Y009262D01*
X012953Y009182D01*
X012873Y009262D01*
X013729Y012047D02*
X013809Y012127D01*
X013889Y012047D01*
X013809Y011967D01*
X013729Y012047D01*
X014064Y013189D02*
X014144Y013269D01*
X014224Y013189D01*
X014144Y013109D01*
X014064Y013189D01*
X014408Y012628D02*
X014488Y012708D01*
X014568Y012628D01*
X014488Y012548D01*
X014408Y012628D01*
X014713Y012224D02*
X014793Y012304D01*
X014873Y012224D01*
X014793Y012144D01*
X014713Y012224D01*
X011839Y010069D02*
X011919Y010149D01*
X011999Y010069D01*
X011919Y009989D01*
X011839Y010069D01*
X0118Y009537D02*
X01188Y009617D01*
X01196Y009537D01*
X01188Y009457D01*
X0118Y009537D01*
X012361Y00813D02*
X012441Y00821D01*
X012521Y00813D01*
X012441Y00805D01*
X012361Y00813D01*
X01177Y007805D02*
X01185Y007885D01*
X01193Y007805D01*
X01185Y007725D01*
X01177Y007805D01*
X010471Y014291D02*
X010551Y014371D01*
X010631Y014291D01*
X010551Y014211D01*
X010471Y014291D01*
X010826Y012047D02*
X010906Y012127D01*
X010986Y012047D01*
X010906Y011967D01*
X010826Y012047D01*
X014989Y008878D02*
X015069Y008958D01*
X015149Y008878D01*
X015069Y008798D01*
X014989Y008878D01*
X014231Y008701D02*
X014311Y008781D01*
X014391Y008701D01*
X014311Y008621D01*
X014231Y008701D01*
X014408Y008327D02*
X014488Y008407D01*
X014568Y008327D01*
X014488Y008247D01*
X014408Y008327D01*
X015826Y007165D02*
X015906Y007245D01*
X015986Y007165D01*
X015906Y007085D01*
X015826Y007165D01*
X012637Y016654D02*
X012717Y016734D01*
X012797Y016654D01*
X012717Y016574D01*
X012637Y016654D01*
X018611Y008051D02*
X018691Y008131D01*
X018771Y008051D01*
X018691Y007971D01*
X018611Y008051D01*
X024054Y020364D02*
X024134Y020444D01*
X024214Y020364D01*
X024134Y020284D01*
X024054Y020364D01*
X010776Y015541D02*
X010856Y015621D01*
X010936Y015541D01*
X010856Y015461D01*
X010776Y015541D01*
X010786Y015148D02*
X010866Y015228D01*
X010946Y015148D01*
X010866Y015068D01*
X010786Y015148D01*
X021554Y022402D02*
X021634Y022482D01*
X021714Y022402D01*
X021634Y022322D01*
X021554Y022402D01*
X020412Y02062D02*
X020492Y0207D01*
X020572Y02062D01*
X020492Y02054D01*
X020412Y02062D01*
X019526Y018996D02*
X019606Y019076D01*
X019686Y018996D01*
X019606Y018916D01*
X019526Y018996D01*
X018965Y019459D02*
X019045Y019539D01*
X019125Y019459D01*
X019045Y019379D01*
X018965Y019459D01*
X01989Y019065D02*
X01997Y019145D01*
X02005Y019065D01*
X01997Y018985D01*
X01989Y019065D01*
X019812Y01748D02*
X019892Y01756D01*
X019972Y01748D01*
X019892Y0174D01*
X019812Y01748D01*
X017627Y011752D02*
X017707Y011832D01*
X017787Y011752D01*
X017707Y011672D01*
X017627Y011752D01*
X015963Y013189D02*
X016043Y013269D01*
X016123Y013189D01*
X016043Y013109D01*
X015963Y013189D01*
X024497Y022047D02*
X024577Y022127D01*
X024657Y022047D01*
X024577Y021967D01*
X024497Y022047D01*
X023759Y022087D02*
X023839Y022167D01*
X023919Y022087D01*
X023839Y022007D01*
X023759Y022087D01*
X019221Y020433D02*
X019301Y020513D01*
X019381Y020433D01*
X019301Y020353D01*
X019221Y020433D01*
X023768Y019921D02*
X023848Y020001D01*
X023928Y019921D01*
X023848Y019841D01*
X023768Y019921D01*
X01928Y01874D02*
X01936Y01882D01*
X01944Y01874D01*
X01936Y01866D01*
X01928Y01874D01*
X016761Y018701D02*
X016841Y018781D01*
X016921Y018701D01*
X016841Y018621D01*
X016761Y018701D01*
X026377Y018179D02*
X026457Y018259D01*
X026537Y018179D01*
X026457Y018099D01*
X026377Y018179D01*
X021239Y017992D02*
X021319Y018072D01*
X021399Y017992D01*
X021319Y017912D01*
X021239Y017992D01*
X018168Y018435D02*
X018248Y018515D01*
X018328Y018435D01*
X018248Y018355D01*
X018168Y018435D01*
X019379Y017461D02*
X019459Y017541D01*
X019539Y017461D01*
X019459Y017381D01*
X019379Y017461D01*
X019802Y018671D02*
X019882Y018751D01*
X019962Y018671D01*
X019882Y018591D01*
X019802Y018671D01*
X016327Y018878D02*
X016407Y018958D01*
X016487Y018878D01*
X016407Y018798D01*
X016327Y018878D01*
X020491Y009567D02*
X020571Y009647D01*
X020651Y009567D01*
X020571Y009487D01*
X020491Y009567D01*
X023768Y010778D02*
X023848Y010858D01*
X023928Y010778D01*
X023848Y010698D01*
X023768Y010778D01*
X023778Y010148D02*
X023858Y010228D01*
X023938Y010148D01*
X023858Y010068D01*
X023778Y010148D01*
X022233Y008553D02*
X022313Y008633D01*
X022393Y008553D01*
X022313Y008473D01*
X022233Y008553D01*
X019654Y010197D02*
X019734Y010277D01*
X019814Y010197D01*
X019734Y010117D01*
X019654Y010197D01*
X024408Y006919D02*
X024488Y006999D01*
X024568Y006919D01*
X024488Y006839D01*
X024408Y006919D01*
X026456Y019892D02*
X026536Y019972D01*
X026616Y019892D01*
X026536Y019812D01*
X026456Y019892D01*
X02682Y019163D02*
X0269Y019243D01*
X02698Y019163D01*
X0269Y019083D01*
X02682Y019163D01*
X029605Y019744D02*
X029685Y019824D01*
X029765Y019744D01*
X029685Y019664D01*
X029605Y019744D01*
X029172Y019478D02*
X029252Y019558D01*
X029332Y019478D01*
X029252Y019398D01*
X029172Y019478D01*
X013148Y019409D02*
X013228Y019489D01*
X013308Y019409D01*
X013228Y019329D01*
X013148Y019409D01*
X013158Y018593D02*
X013238Y018673D01*
X013318Y018593D01*
X013238Y018513D01*
X013158Y018593D01*
X013188Y019016D02*
X013268Y019096D01*
X013348Y019016D01*
X013268Y018936D01*
X013188Y019016D01*
X023247Y021693D02*
X023327Y021773D01*
X023407Y021693D01*
X023327Y021613D01*
X023247Y021693D01*
X017745Y020719D02*
X017825Y020798D01*
X017905Y020719D01*
X017825Y020638D01*
X017745Y020719D01*
X018188Y02065D02*
X018268Y02073D01*
X018348Y02065D01*
X018268Y02057D01*
X018188Y02065D01*
X014871Y02122D02*
X014951Y0213D01*
X015031Y02122D01*
X014951Y02114D01*
X014871Y02122D01*
X014694Y019646D02*
X014774Y019726D01*
X014854Y019646D01*
X014774Y019566D01*
X014694Y019646D01*
Y019163D02*
X014774Y019243D01*
X014854Y019163D01*
X014774Y019083D01*
X014694Y019163D01*
X014704Y018799D02*
X014784Y018879D01*
X014864Y018799D01*
X014784Y018719D01*
X014704Y018799D01*
X014743Y018396D02*
X014823Y018476D01*
X014903Y018396D01*
X014823Y018316D01*
X014743Y018396D01*
X027164Y01939D02*
X027244Y01947D01*
X027324Y01939D01*
X027244Y01931D01*
X027164Y01939D01*
X022046Y019872D02*
X022126Y019952D01*
X022206Y019872D01*
X022126Y019792D01*
X022046Y019872D01*
X027971Y023189D02*
X028051Y023269D01*
X028131Y023189D01*
X028051Y023109D01*
X027971Y023189D01*
X022902Y019636D02*
X022982Y019716D01*
X023062Y019636D01*
X022982Y019556D01*
X022902Y019636D01*
X02118Y018642D02*
X02126Y018722D01*
X02134Y018642D01*
X02126Y018562D01*
X02118Y018642D01*
X019763Y017067D02*
X019843Y017147D01*
X019923Y017067D01*
X019843Y016987D01*
X019763Y017067D01*
X024576Y025167D02*
X024656Y025247D01*
X024736Y025167D01*
X024656Y025087D01*
X024576Y025167D01*
X024014Y024911D02*
X024094Y024991D01*
X024174Y024911D01*
X024094Y024831D01*
X024014Y024911D01*
X025963Y020925D02*
X026043Y021005D01*
X026123Y020925D01*
X026043Y020845D01*
X025963Y020925D01*
X02552Y024321D02*
X0256Y024401D01*
X02568Y024321D01*
X0256Y024241D01*
X02552Y024321D01*
X026239Y023002D02*
X026319Y023082D01*
X026399Y023002D01*
X026319Y022922D01*
X026239Y023002D01*
X025658Y022766D02*
X025738Y022846D01*
X025818Y022766D01*
X025738Y022686D01*
X025658Y022766D01*
X021919Y020778D02*
X021999Y020858D01*
X022079Y020778D01*
X021999Y020698D01*
X021919Y020778D01*
X01864Y016191D02*
X01872Y016271D01*
X0188Y016191D01*
X01872Y016111D01*
X01864Y016191D01*
X01932Y015591D02*
X0194Y015671D01*
X01948Y015591D01*
X0194Y015511D01*
X01932Y015591D01*
X018611Y012372D02*
X018691Y012452D01*
X018771Y012372D01*
X018691Y012292D01*
X018611Y012372D01*
X02554Y020955D02*
X02562Y021035D01*
X0257Y020955D01*
X02562Y020875D01*
X02554Y020955D01*
X018552Y015856D02*
X018632Y015936D01*
X018712Y015856D01*
X018632Y015776D01*
X018552Y015856D01*
X018286Y017431D02*
X018366Y017511D01*
X018446Y017431D01*
X018366Y017351D01*
X018286Y017431D01*
X016003Y016191D02*
X016083Y016271D01*
X016163Y016191D01*
X016083Y016111D01*
X016003Y016191D01*
X016249Y01501D02*
X016329Y01509D01*
X016409Y01501D01*
X016329Y01493D01*
X016249Y01501D01*
X019251Y01252D02*
X019331Y0126D01*
X019411Y01252D01*
X019331Y01244D01*
X019251Y01252D01*
X02054Y012854D02*
X02062Y012934D01*
X0207Y012854D01*
X02062Y012774D01*
X02054Y012854D01*
X028168Y019596D02*
X028248Y019676D01*
X028328Y019596D01*
X028248Y019516D01*
X028168Y019596D01*
X019369Y01312D02*
X019449Y0132D01*
X019529Y01312D01*
X019449Y01304D01*
X019369Y01312D01*
X023385Y020531D02*
X023465Y020612D01*
X023545Y020531D01*
X023465Y020452D01*
X023385Y020531D01*
X018926Y013081D02*
X019006Y013161D01*
X019086Y013081D01*
X019006Y013001D01*
X018926Y013081D01*
X018513Y013494D02*
X018593Y013574D01*
X018673Y013494D01*
X018593Y013414D01*
X018513Y013494D01*
X02114Y020157D02*
X02122Y020237D01*
X0213Y020157D01*
X02122Y020077D01*
X02114Y020157D01*
X017223Y018169D02*
X017303Y018249D01*
X017383Y018169D01*
X017303Y018089D01*
X017223Y018169D01*
X024172Y015354D02*
X024252Y015434D01*
X024332Y015354D01*
X024252Y015274D01*
X024172Y015354D01*
X02055Y014478D02*
X02063Y014558D01*
X02071Y014478D01*
X02063Y014398D01*
X02055Y014478D01*
X021938Y014852D02*
X022018Y014932D01*
X022098Y014852D01*
X022018Y014772D01*
X021938Y014852D01*
X015471Y012087D02*
X015551Y012167D01*
X015631Y012087D01*
X015551Y012007D01*
X015471Y012087D01*
X016524Y013524D02*
X016604Y013604D01*
X016684Y013524D01*
X016604Y013444D01*
X016524Y013524D01*
X021121Y017392D02*
X021201Y017472D01*
X021281Y017392D01*
X021201Y017312D01*
X021121Y017392D01*
X015865Y0169D02*
X015945Y01698D01*
X016025Y0169D01*
X015945Y01682D01*
X015865Y0169D01*
X018542Y018553D02*
X018622Y018633D01*
X018702Y018553D01*
X018622Y018473D01*
X018542Y018553D01*
X018975Y016752D02*
X019055Y016832D01*
X019135Y016752D01*
X019055Y016672D01*
X018975Y016752D01*
Y017156D02*
X019055Y017236D01*
X019135Y017156D01*
X019055Y017076D01*
X018975Y017156D01*
X018837Y021319D02*
X018917Y021399D01*
X018997Y021319D01*
X018917Y021239D01*
X018837Y021319D01*
X018168Y022657D02*
X018248Y022737D01*
X018328Y022657D01*
X018248Y022577D01*
X018168Y022657D01*
X020068Y02185D02*
X020148Y02193D01*
X020228Y02185D01*
X020148Y02177D01*
X020068Y02185D01*
X017381Y019409D02*
X017461Y019489D01*
X017541Y019409D01*
X017461Y019329D01*
X017381Y019409D01*
X017853Y020197D02*
X017933Y020277D01*
X018013Y020197D01*
X017933Y020117D01*
X017853Y020197D01*
X01929Y010689D02*
X01937Y010769D01*
X01945Y010689D01*
X01937Y010609D01*
X01929Y010689D01*
X019093Y009518D02*
X019173Y009598D01*
X019253Y009518D01*
X019173Y009438D01*
X019093Y009518D01*
X020826Y023022D02*
X020906Y023102D01*
X020986Y023022D01*
X020906Y022942D01*
X020826Y023022D01*
X017341Y02249D02*
X017421Y02257D01*
X017501Y02249D01*
X017421Y02241D01*
X017341Y02249D01*
X016672Y024783D02*
X016752Y024863D01*
X016832Y024783D01*
X016752Y024703D01*
X016672Y024783D01*
X020816Y024813D02*
X020896Y024893D01*
X020976Y024813D01*
X020896Y024733D01*
X020816Y024813D01*
X019172Y023996D02*
X019252Y024076D01*
X019332Y023996D01*
X019252Y023916D01*
X019172Y023996D01*
X018818Y024104D02*
X018898Y024184D01*
X018978Y024104D01*
X018898Y024024D01*
X018818Y024104D01*
X017203Y023681D02*
X017283Y023761D01*
X017363Y023681D01*
X017283Y023601D01*
X017203Y023681D01*
X019871Y0244D02*
X019951Y02448D01*
X020031Y0244D01*
X019951Y02432D01*
X019871Y0244D01*
X018562Y024596D02*
X018642Y024676D01*
X018722Y024596D01*
X018642Y024516D01*
X018562Y024596D01*
X017686Y024567D02*
X017766Y024647D01*
X017846Y024567D01*
X017766Y024487D01*
X017686Y024567D01*
X013129Y019813D02*
X013209Y019893D01*
X013289Y019813D01*
X013209Y019733D01*
X013129Y019813D01*
X011652Y020728D02*
X011732Y020808D01*
X011812Y020728D01*
X011732Y020648D01*
X011652Y020728D01*
X010963Y020817D02*
X011043Y020897D01*
X011123Y020817D01*
X011043Y020737D01*
X010963Y020817D01*
X014516Y020817D02*
X014596Y020897D01*
X014676Y020817D01*
X014596Y020737D01*
X014516Y020817D01*
X020816Y011063D02*
X020896Y011143D01*
X020976Y011063D01*
X020896Y010983D01*
X020816Y011063D01*
X013365Y021594D02*
X013445Y021674D01*
X013525Y021594D01*
X013445Y021514D01*
X013365Y021594D01*
X01366Y02189D02*
X01374Y02197D01*
X01382Y02189D01*
X01374Y02181D01*
X01366Y02189D01*
X01307D02*
X01315Y02197D01*
X01323Y02189D01*
X01315Y02181D01*
X01307Y02189D01*
X012066Y022018D02*
X012146Y022098D01*
X012226Y022018D01*
X012146Y021938D01*
X012066Y022018D01*
X011327Y022018D02*
X011407Y022098D01*
X011487Y022018D01*
X011407Y021938D01*
X011327Y022018D01*
X010934Y022028D02*
X011014Y022108D01*
X011094Y022028D01*
X011014Y021948D01*
X010934Y022028D01*
X012666Y02374D02*
X012746Y02382D01*
X012826Y02374D01*
X012746Y02366D01*
X012666Y02374D01*
X013079Y024764D02*
X013159Y024844D01*
X013239Y024764D01*
X013159Y024684D01*
X013079Y024764D01*
X010835Y02501D02*
X010915Y02509D01*
X010995Y02501D01*
X010915Y02493D01*
X010835Y02501D01*
X015343D02*
X015423Y02509D01*
X015503Y02501D01*
X015423Y02493D01*
X015343Y02501D01*
X015324Y022795D02*
X015404Y022875D01*
X015484Y022795D01*
X015404Y022715D01*
X015324Y022795D01*
X011357Y023435D02*
X011437Y023515D01*
X011517Y023435D01*
X011437Y023355D01*
X011357Y023435D01*
X013178Y023396D02*
X013258Y023476D01*
X013338Y023396D01*
X013258Y023316D01*
X013178Y023396D01*
X012735Y023356D02*
X012815Y023436D01*
X012895Y023356D01*
X012815Y023276D01*
X012735Y023356D01*
X012341Y020551D02*
X012421Y020631D01*
X012501Y020551D01*
X012421Y020471D01*
X012341Y020551D01*
X015077Y013189D02*
X015157Y013269D01*
X015237Y013189D01*
X015157Y013109D01*
X015077Y013189D01*
X016741Y010226D02*
X016821Y010306D01*
X016901Y010226D01*
X016821Y010146D01*
X016741Y010226D01*
X01739D02*
X01747Y010306D01*
X01755Y010226D01*
X01747Y010146D01*
X01739Y010226D01*
X0174Y008642D02*
X01748Y008722D01*
X01756Y008642D01*
X01748Y008562D01*
X0174Y008642D01*
X022499Y011171D02*
X022579Y011251D01*
X022659Y011171D01*
X022579Y011091D01*
X022499Y011171D01*
X020993Y013691D02*
X021073Y013771D01*
X021153Y013691D01*
X021073Y013611D01*
X020993Y013691D01*
X019103Y01374D02*
X019183Y01382D01*
X019263Y01374D01*
X019183Y01366D01*
X019103Y01374D01*
X013335Y012156D02*
X013415Y012236D01*
X013495Y012156D01*
X013415Y012076D01*
X013335Y012156D01*
X016062Y010866D02*
X016142Y010946D01*
X016222Y010866D01*
X016142Y010786D01*
X016062Y010866D01*
Y010413D02*
X016142Y010493D01*
X016222Y010413D01*
X016142Y010333D01*
X016062Y010413D01*
X015353Y010364D02*
X015433Y010444D01*
X015513Y010364D01*
X015433Y010284D01*
X015353Y010364D01*
X012469Y012087D02*
X012549Y012167D01*
X012629Y012087D01*
X012549Y012007D01*
X012469Y012087D01*
X010826Y012953D02*
X010906Y013033D01*
X010986Y012953D01*
X010906Y012873D01*
X010826Y012953D01*
X01243Y01252D02*
X01251Y0126D01*
X01259Y01252D01*
X01251Y01244D01*
X01243Y01252D01*
X013099Y012461D02*
X013179Y012541D01*
X013259Y012461D01*
X013179Y012381D01*
X013099Y012461D01*
X015894Y012333D02*
X015974Y012413D01*
X016054Y012333D01*
X015974Y012253D01*
X015894Y012333D01*
X017184Y015157D02*
X017264Y015237D01*
X017344Y015157D01*
X017264Y015077D01*
X017184Y015157D01*
X0174Y016457D02*
X01748Y016537D01*
X01756Y016457D01*
X01748Y016377D01*
X0174Y016457D01*
X019054Y014163D02*
X019134Y014243D01*
X019214Y014163D01*
X019134Y014083D01*
X019054Y014163D01*
X017076Y013868D02*
X017156Y013948D01*
X017236Y013868D01*
X017156Y013788D01*
X017076Y013868D01*
X015973Y014537D02*
X016053Y014617D01*
X016133Y014537D01*
X016053Y014457D01*
X015973Y014537D01*
X017026Y015522D02*
X017106Y015602D01*
X017186Y015522D01*
X017106Y015442D01*
X017026Y015522D01*
X013148Y015984D02*
X013228Y016064D01*
X013308Y015984D01*
X013228Y015904D01*
X013148Y015984D01*
X013158Y014227D02*
X013238Y014307D01*
X013318Y014227D01*
X013238Y014147D01*
X013158Y014227D01*
X028936Y014026D02*
X029016Y014106D01*
X029096Y014026D01*
X029016Y013946D01*
X028936Y014026D01*
X024329Y013858D02*
X024409Y013938D01*
X024489Y013858D01*
X024409Y013778D01*
X024329Y013858D01*
X026268Y013455D02*
X026348Y013535D01*
X026428Y013455D01*
X026348Y013375D01*
X026268Y013455D01*
X030383Y008711D02*
X030463Y008791D01*
X030543Y008711D01*
X030463Y008631D01*
X030383Y008711D01*
X029305Y008293D02*
X029385Y008373D01*
X029465Y008293D01*
X029385Y008213D01*
X029305Y008293D01*
X032952Y009154D02*
X033031Y009234D01*
X033112Y009154D01*
X033031Y009074D01*
X032952Y009154D01*
X028168Y011348D02*
X028248Y011428D01*
X028328Y011348D01*
X028248Y011268D01*
X028168Y011348D01*
X028581D02*
X028661Y011428D01*
X028741Y011348D01*
X028661Y011268D01*
X028581Y011348D01*
Y011762D02*
X028661Y011842D01*
X028741Y011762D01*
X028661Y011682D01*
X028581Y011762D01*
X027755Y013012D02*
X027835Y013092D01*
X027915Y013012D01*
X027835Y012932D01*
X027755Y013012D01*
X028168D02*
X028248Y013092D01*
X028328Y013012D01*
X028248Y012932D01*
X028168Y013012D01*
X028581Y013002D02*
X028661Y013082D01*
X028741Y013002D01*
X028661Y012922D01*
X028581Y013002D01*
Y012569D02*
X028661Y012649D01*
X028741Y012569D01*
X028661Y012489D01*
X028581Y012569D01*
Y012175D02*
X028661Y012255D01*
X028741Y012175D01*
X028661Y012095D01*
X028581Y012175D01*
X025944Y010689D02*
X026024Y010769D01*
X026104Y010689D01*
X026024Y010609D01*
X025944Y010689D01*
X025452D02*
X025531Y010769D01*
X025612Y010689D01*
X025531Y010609D01*
X025452Y010689D01*
X024959D02*
X025039Y010769D01*
X025119Y010689D01*
X025039Y010609D01*
X024959Y010689D01*
Y011181D02*
X025039Y011261D01*
X025119Y011181D01*
X025039Y011101D01*
X024959Y011181D01*
Y011673D02*
X025039Y011753D01*
X025119Y011673D01*
X025039Y011593D01*
X024959Y011673D01*
X029605Y022146D02*
X029685Y022226D01*
X029765Y022146D01*
X029685Y022066D01*
X029605Y022146D01*
X027381Y021319D02*
X027461Y021399D01*
X027541Y021319D01*
X027461Y021239D01*
X027381Y021319D01*
X027331Y020925D02*
X027411Y021005D01*
X027491Y020925D01*
X027411Y020845D01*
X027331Y020925D01*
X028316Y021299D02*
X028396Y021379D01*
X028476Y021299D01*
X028396Y021219D01*
X028316Y021299D01*
X028188Y022854D02*
X028268Y022934D01*
X028348Y022854D01*
X028268Y022774D01*
X028188Y022854D01*
X029497Y023593D02*
X029577Y023673D01*
X029657Y023593D01*
X029577Y023513D01*
X029497Y023593D01*
X0287Y023406D02*
X02878Y023486D01*
X02886Y023406D01*
X02878Y023326D01*
X0287Y023406D01*
X024674Y02378D02*
X024754Y02386D01*
X024834Y02378D01*
X024754Y0237D01*
X024674Y02378D01*
X02745Y022844D02*
X02753Y022924D01*
X02761Y022844D01*
X02753Y022764D01*
X02745Y022844D01*
X02744Y023248D02*
X02752Y023328D01*
X0276Y023248D01*
X02752Y023168D01*
X02744Y023248D01*
X026987Y022293D02*
X027067Y022373D01*
X027147Y022293D01*
X027067Y022213D01*
X026987Y022293D01*
X022105Y024862D02*
X022185Y024942D01*
X022265Y024862D01*
X022185Y024782D01*
X022105Y024862D01*
X024034Y023553D02*
X024114Y023633D01*
X024194Y023553D01*
X024114Y023473D01*
X024034Y023553D01*
X024585Y023012D02*
X024665Y023092D01*
X024745Y023012D01*
X024665Y022932D01*
X024585Y023012D01*
X022233Y022106D02*
X022313Y022186D01*
X022393Y022106D01*
X022313Y022026D01*
X022233Y022106D01*
X019871Y016309D02*
X019951Y016389D01*
X020031Y016309D01*
X019951Y016229D01*
X019871Y016309D01*
X022105Y016073D02*
X022185Y016153D01*
X022265Y016073D01*
X022185Y015993D01*
X022105Y016073D01*
Y017303D02*
X022185Y017383D01*
X022265Y017303D01*
X022185Y017223D01*
X022105Y017303D01*
X024743Y013175D02*
X024823Y013255D01*
X024903Y013175D01*
X024823Y013095D01*
X024743Y013175D01*
X026446Y012283D02*
X026526Y012363D01*
X026606Y012283D01*
X026526Y012203D01*
X026446Y012283D01*
X027459Y015718D02*
X027539Y015798D01*
X027619Y015718D01*
X027539Y015639D01*
X027459Y015718D01*
X026455Y016683D02*
X026535Y016763D01*
X026615Y016683D01*
X026535Y016603D01*
X026455Y016683D01*
X028385Y017116D02*
X028465Y017196D01*
X028545Y017116D01*
X028465Y017036D01*
X028385Y017116D01*
Y016181D02*
X028465Y016261D01*
X028545Y016181D01*
X028465Y016101D01*
X028385Y016181D01*
X029516Y017933D02*
X029596Y018013D01*
X029676Y017933D01*
X029596Y017853D01*
X029516Y017933D01*
X030215Y016644D02*
X030295Y016724D01*
X030375Y016644D01*
X030295Y016564D01*
X030215Y016644D01*
X032607Y0175D02*
X032687Y01758D01*
X032767Y0175D01*
X032687Y01742D01*
X032607Y0175D01*
X033719Y017264D02*
X033799Y017344D01*
X033879Y017264D01*
X033799Y017184D01*
X033719Y017264D01*
X03115Y015276D02*
X03123Y015356D01*
X03131Y015276D01*
X03123Y015196D01*
X03115Y015276D01*
X029999Y013002D02*
X030079Y013082D01*
X030159Y013002D01*
X030079Y012922D01*
X029999Y013002D01*
X023316Y013947D02*
X023396Y014027D01*
X023476Y013947D01*
X023396Y013867D01*
X023316Y013947D01*
X022991Y014793D02*
X023071Y014873D01*
X023151Y014793D01*
X023071Y014713D01*
X022991Y014793D01*
X030146Y007126D02*
X030226Y007206D01*
X030306Y007126D01*
X030226Y007046D01*
X030146Y007126D01*
X034024Y010709D02*
X034104Y010789D01*
X034184Y010709D01*
X034104Y010629D01*
X034024Y010709D01*
X033168Y01125D02*
X033248Y01133D01*
X033328Y01125D01*
X033248Y01117D01*
X033168Y01125D01*
X032715Y007756D02*
X032795Y007836D01*
X032875Y007756D01*
X032795Y007676D01*
X032715Y007756D01*
X034074Y010276D02*
X034154Y010356D01*
X034234Y010276D01*
X034154Y010196D01*
X034074Y010276D01*
X033788Y012549D02*
X033868Y012629D01*
X033948Y012549D01*
X033868Y012469D01*
X033788Y012549D01*
X03244Y013346D02*
X03252Y013426D01*
X0326Y013346D01*
X03252Y013266D01*
X03244Y013346D01*
X032646Y012904D02*
X032726Y012984D01*
X032806Y012904D01*
X032726Y012824D01*
X032646Y012904D01*
X032991Y012451D02*
X033071Y012531D01*
X033151Y012451D01*
X033071Y012371D01*
X032991Y012451D01*
X031633Y012864D02*
X031713Y012944D01*
X031793Y012864D01*
X031713Y012784D01*
X031633Y012864D01*
X031209Y012185D02*
X031289Y012265D01*
X031369Y012185D01*
X031289Y012105D01*
X031209Y012185D01*
X032144Y014016D02*
X032224Y014096D01*
X032304Y014016D01*
X032224Y013936D01*
X032144Y014016D01*
X031209Y007047D02*
X031289Y007127D01*
X031369Y007047D01*
X031289Y006967D01*
X031209Y007047D01*
X033424Y008386D02*
X033504Y008466D01*
X033584Y008386D01*
X033504Y008306D01*
X033424Y008386D01*
X0312Y008691D02*
X03128Y008771D01*
X03136Y008691D01*
X03128Y008611D01*
X0312Y008691D01*
X029556Y009518D02*
X029636Y009598D01*
X029716Y009518D01*
X029636Y009438D01*
X029556Y009518D01*
X028739Y010295D02*
X028819Y010375D01*
X028899Y010295D01*
X028819Y010215D01*
X028739Y010295D01*
X025077Y0075D02*
X025157Y00758D01*
X025237Y0075D01*
X025157Y00742D01*
X025077Y0075D01*
X024861Y009281D02*
X024941Y009362D01*
X025021Y009281D01*
X024941Y009201D01*
X024861Y009281D01*
X0268Y007224D02*
X02688Y007304D01*
X02696Y007224D01*
X02688Y007144D01*
X0268Y007224D01*
X024989Y016033D02*
X025069Y016113D01*
X025149Y016033D01*
X025069Y015953D01*
X024989Y016033D01*
X025826Y016614D02*
X025906Y016694D01*
X025986Y016614D01*
X025906Y016534D01*
X025826Y016614D01*
X027833Y008267D02*
X027913Y008347D01*
X027993Y008267D01*
X027913Y008187D01*
X027833Y008267D01*
X027361D02*
X027441Y008347D01*
X027521Y008267D01*
X027441Y008187D01*
X027361Y008267D01*
Y008818D02*
X027441Y008898D01*
X027521Y008818D01*
X027441Y008738D01*
X027361Y008818D01*
X027833D02*
X027913Y008898D01*
X027993Y008818D01*
X027913Y008738D01*
X027833Y008818D01*
Y009369D02*
X027913Y009449D01*
X027993Y009369D01*
X027913Y009289D01*
X027833Y009369D01*
X027361Y009369D02*
X027441Y009449D01*
X027521Y009369D01*
X027441Y009289D01*
X027361Y009369D01*
X027361Y007716D02*
X027441Y007796D01*
X027521Y007716D01*
X027441Y007636D01*
X027361Y007716D01*
X027833D02*
X027913Y007796D01*
X027993Y007716D01*
X027913Y007636D01*
X027833Y007716D01*
X032036Y010748D02*
X032116Y010828D01*
X032196Y010748D01*
X032116Y010668D01*
X032036Y010748D01*
X030855D02*
X030935Y010828D01*
X031015Y010748D01*
X030935Y010668D01*
X030855Y010748D01*
X030264D02*
X030344Y010828D01*
X030424Y010748D01*
X030344Y010668D01*
X030264Y010748D01*
X031446D02*
X031526Y010828D01*
X031606Y010748D01*
X031526Y010668D01*
X031446Y010748D01*
X032627D02*
X032707Y010828D01*
X032787Y010748D01*
X032707Y010668D01*
X032627Y010748D01*
X032036Y010118D02*
X032116Y010198D01*
X032196Y010118D01*
X032116Y010038D01*
X032036Y010118D01*
X032627Y010118D02*
X032707Y010198D01*
X032787Y010118D01*
X032707Y010038D01*
X032627Y010118D01*
X030264D02*
X030344Y010198D01*
X030424Y010118D01*
X030344Y010038D01*
X030264Y010118D01*
X031446D02*
X031526Y010198D01*
X031606Y010118D01*
X031526Y010038D01*
X031446Y010118D01*
X031426Y0075D02*
X031506Y00758D01*
X031586Y0075D01*
X031506Y00742D01*
X031426Y0075D01*
D178*
X027533Y018898D02*
G03*
X027533Y018898I-00008J0D01*
G01*
X026533D02*
G03*
X026533Y018898I-00008J0D01*
G01*
X025533D02*
G03*
X025533Y018898I-00008J0D01*
G01*
X024533D02*
G03*
X024533Y018898I-00008J0D01*
G01*
X029533D02*
G03*
X029533Y018898I-00008J0D01*
G01*
X031533D02*
G03*
X031533Y018898I-00008J0D01*
G01*
X028533D02*
G03*
X028533Y018898I-00008J0D01*
G01*
X030533D02*
G03*
X030533Y018898I-00008J0D01*
G01*
M02*
