G04 Layer_Color=8388736*
%FSTAX24Y24*%
%MOIN*%
G70*
G01*
G75*
%ADD103R,0.0532X0.0472*%
%ADD104R,0.0434X0.0395*%
%ADD105R,0.0316X0.0277*%
%ADD106R,0.0789X0.0552*%
%ADD107R,0.0190X0.0631*%
%ADD108R,0.0631X0.0415*%
%ADD109R,0.0247X0.0198*%
%ADD110R,0.0306X0.0169*%
%ADD111R,0.0277X0.0316*%
%ADD112R,0.0946X0.1458*%
%ADD113R,0.0946X0.0316*%
%ADD114R,0.0572X0.0454*%
%ADD115C,0.0671*%
%ADD116R,0.0257X0.0671*%
%ADD117R,0.1340X0.1045*%
%ADD118R,0.0316X0.0789*%
%ADD119R,0.0946X0.0277*%
%ADD120R,0.0919X0.1261*%
G04:AMPARAMS|DCode=121|XSize=27.7mil|YSize=31.6mil|CornerRadius=0mil|HoleSize=0mil|Usage=FLASHONLY|Rotation=225.000|XOffset=0mil|YOffset=0mil|HoleType=Round|Shape=Rectangle|*
%AMROTATEDRECTD121*
4,1,4,-0.0014,0.0210,0.0210,-0.0014,0.0014,-0.0210,-0.0210,0.0014,-0.0014,0.0210,0.0*
%
%ADD121ROTATEDRECTD121*%

%ADD122R,0.0434X0.0789*%
%ADD123R,0.0789X0.0434*%
%ADD124R,0.0789X0.0316*%
%ADD125R,0.1182X0.2167*%
%ADD126R,0.0474X0.0749*%
%ADD127R,0.0395X0.0434*%
%ADD128R,0.0533X0.0218*%
%ADD129R,0.0198X0.0316*%
%ADD130R,0.0316X0.0198*%
%ADD131R,0.1340X0.1340*%
%ADD132R,0.0198X0.0671*%
%ADD133R,0.0671X0.0198*%
%ADD134R,0.0454X0.0572*%
%ADD135R,0.0239X0.0470*%
%ADD136R,0.0239X0.0379*%
%ADD137R,0.0960X0.0759*%
%ADD138R,0.0379X0.0631*%
%ADD139R,0.0879X0.0982*%
%ADD140R,0.0482X0.0482*%
%ADD141R,0.0395X0.0434*%
%ADD142R,0.0434X0.0395*%
%ADD143R,0.0513X0.0828*%
%ADD144C,0.0730*%
%ADD145R,0.0946X0.0946*%
%ADD146C,0.0946*%
%ADD147C,0.0474*%
%ADD148C,0.0580*%
%ADD149R,0.0580X0.0580*%
%ADD150C,0.0119*%
%ADD151C,0.0330*%
G36*
X035Y006063D02*
X01D01*
Y026063D01*
X035D01*
Y006063D01*
D02*
G37*
%LPC*%
G36*
X034213Y025669D02*
X010787D01*
X010394Y025276D01*
Y00685D01*
X010787Y006457D01*
X034213D01*
X034606Y00685D01*
Y025276D01*
X034213Y025669D01*
D02*
G37*
%LPD*%
D103*
X02499Y017972D02*
D03*
X025522Y015354D02*
D03*
D104*
X025344Y023484D02*
D03*
X025344Y022972D02*
D03*
X029213Y011201D02*
D03*
Y011713D02*
D03*
D105*
X019508Y016033D02*
D03*
Y016427D02*
D03*
X019498Y017205D02*
D03*
X019498Y016811D02*
D03*
X023593Y022087D02*
D03*
Y021693D02*
D03*
X03126Y008179D02*
D03*
Y007785D02*
D03*
X031762Y008179D02*
D03*
Y007785D02*
D03*
X032283Y008179D02*
D03*
Y007785D02*
D03*
X028465Y016713D02*
D03*
Y016319D02*
D03*
X028474Y017569D02*
D03*
Y017175D02*
D03*
X024892Y008189D02*
D03*
Y007795D02*
D03*
X02065Y011782D02*
D03*
Y011388D02*
D03*
X032795Y008376D02*
D03*
Y007982D02*
D03*
X025404Y007795D02*
D03*
Y008189D02*
D03*
X018957Y012037D02*
D03*
Y011644D02*
D03*
X019754Y019793D02*
D03*
Y020187D02*
D03*
X018671Y020541D02*
D03*
Y020935D02*
D03*
X020837Y008888D02*
D03*
Y009281D02*
D03*
X01748Y009311D02*
D03*
Y008917D02*
D03*
X011949Y023268D02*
D03*
Y022874D02*
D03*
X011122Y015541D02*
D03*
Y015148D02*
D03*
X010906Y012709D02*
D03*
Y012315D02*
D03*
X018848Y014154D02*
D03*
X018848Y01376D02*
D03*
X018789Y017146D02*
D03*
Y016752D02*
D03*
X020915Y023996D02*
D03*
Y02439D02*
D03*
X018199Y022106D02*
D03*
Y021713D02*
D03*
X01876Y01814D02*
D03*
Y017746D02*
D03*
X019301Y020157D02*
D03*
Y019764D02*
D03*
X011073Y01685D02*
D03*
Y016457D02*
D03*
X017077Y019715D02*
D03*
Y020108D02*
D03*
X012667Y018386D02*
D03*
Y01878D02*
D03*
X012323Y009301D02*
D03*
Y008907D02*
D03*
X013406Y009193D02*
D03*
Y008799D02*
D03*
D106*
X01997Y009626D02*
D03*
X018396D02*
D03*
Y008681D02*
D03*
X01997D02*
D03*
D107*
X022904Y021313D02*
D03*
X022707Y021313D02*
D03*
X02251D02*
D03*
X022313D02*
D03*
X022116Y021313D02*
D03*
Y022998D02*
D03*
X022313Y022998D02*
D03*
X02251D02*
D03*
X022707D02*
D03*
X022904Y022998D02*
D03*
D108*
X027972Y022028D02*
D03*
Y021339D02*
D03*
X033868Y012264D02*
D03*
X033868Y011575D02*
D03*
X01313Y024961D02*
D03*
Y024272D02*
D03*
D109*
X01998Y018361D02*
D03*
Y017938D02*
D03*
X02065D02*
D03*
Y018361D02*
D03*
D110*
X019951Y01815D02*
D03*
X020679D02*
D03*
D111*
X022835Y020561D02*
D03*
X022441D02*
D03*
X023622Y015354D02*
D03*
X024016D02*
D03*
X025591Y009281D02*
D03*
X025197D02*
D03*
X027402Y010039D02*
D03*
X027008D02*
D03*
X031565Y012441D02*
D03*
X031959D02*
D03*
X02497Y00878D02*
D03*
X025364D02*
D03*
X030856Y008425D02*
D03*
X030463D02*
D03*
X017992Y010472D02*
D03*
X018386D02*
D03*
X01935Y011053D02*
D03*
X018957D02*
D03*
X011417Y021211D02*
D03*
X011024D02*
D03*
X018907Y022657D02*
D03*
X018514D02*
D03*
X011407Y021732D02*
D03*
X011014D02*
D03*
X016821Y010492D02*
D03*
X017215D02*
D03*
X011407Y022323D02*
D03*
X011014Y022323D02*
D03*
X018494Y023504D02*
D03*
X018888D02*
D03*
X015778Y01065D02*
D03*
X015384D02*
D03*
X019154Y017805D02*
D03*
X019547D02*
D03*
X028504Y010079D02*
D03*
X02811D02*
D03*
X032766Y012451D02*
D03*
X032372D02*
D03*
X016683Y019203D02*
D03*
X017077D02*
D03*
X021339Y016949D02*
D03*
X021732D02*
D03*
X011171Y010059D02*
D03*
X011565D02*
D03*
X011171Y009567D02*
D03*
X011565D02*
D03*
X011171Y009085D02*
D03*
X011565D02*
D03*
X011171Y008583D02*
D03*
X011565D02*
D03*
X012864Y010827D02*
D03*
X013258D02*
D03*
D112*
X028071Y012175D02*
D03*
D113*
X02563Y011175D02*
D03*
Y011675D02*
D03*
Y012175D02*
D03*
Y012675D02*
D03*
Y013175D02*
D03*
D114*
X026673Y014439D02*
D03*
Y015738D02*
D03*
X027992Y014311D02*
D03*
X027992Y01561D02*
D03*
D115*
X020748Y021811D02*
D03*
X029656Y01252D02*
D03*
X030207Y007864D02*
D03*
X033612Y008937D02*
D03*
X029311Y01D02*
D03*
X017343Y021545D02*
D03*
D116*
X030364Y009291D02*
D03*
X03062D02*
D03*
X030876D02*
D03*
X031132D02*
D03*
X031388D02*
D03*
X031644D02*
D03*
X0319D02*
D03*
X032156D02*
D03*
X032411Y009291D02*
D03*
X032667Y009291D02*
D03*
Y011575D02*
D03*
X032411D02*
D03*
X032156D02*
D03*
X0319D02*
D03*
X031644D02*
D03*
X031388D02*
D03*
X031132D02*
D03*
X030876D02*
D03*
X03062D02*
D03*
X030364D02*
D03*
D117*
X031516Y010433D02*
D03*
D118*
X024428Y017005D02*
D03*
X02368D02*
D03*
X024054Y016218D02*
D03*
D119*
X028809Y007793D02*
D03*
X028809Y008293D02*
D03*
Y008793D02*
D03*
Y009293D02*
D03*
X026545D02*
D03*
Y008793D02*
D03*
Y008293D02*
D03*
Y007793D02*
D03*
D120*
X027677Y008543D02*
D03*
D121*
X023069Y017942D02*
D03*
X023348Y01822D02*
D03*
D122*
X025955Y014232D02*
D03*
X024813D02*
D03*
D123*
X025728Y016063D02*
D03*
Y017205D02*
D03*
X020069Y023927D02*
D03*
Y025069D02*
D03*
D124*
X027517Y016832D02*
D03*
X027517Y01758D02*
D03*
X02673Y017206D02*
D03*
X023437Y024497D02*
D03*
X02265Y024123D02*
D03*
Y024871D02*
D03*
X028989Y022981D02*
D03*
Y022233D02*
D03*
X029776Y022607D02*
D03*
D125*
X033642Y015433D02*
D03*
X029665Y015433D02*
D03*
D126*
X030935Y007037D02*
D03*
X029557D02*
D03*
X021506Y013553D02*
D03*
X020128D02*
D03*
D127*
X027421Y00689D02*
D03*
X027933D02*
D03*
X019793Y020768D02*
D03*
X019282D02*
D03*
X020846Y020157D02*
D03*
X020335D02*
D03*
X020482Y019193D02*
D03*
X020994D02*
D03*
D128*
X019665Y021594D02*
D03*
Y02185D02*
D03*
Y022106D02*
D03*
X018917D02*
D03*
Y02185D02*
D03*
Y021594D02*
D03*
X018602Y019665D02*
D03*
Y019409D02*
D03*
Y019154D02*
D03*
X017854D02*
D03*
Y019409D02*
D03*
Y019665D02*
D03*
D129*
X014134Y020945D02*
D03*
X013937D02*
D03*
X01374D02*
D03*
X013543D02*
D03*
X013346D02*
D03*
X01315Y020945D02*
D03*
X012953D02*
D03*
X012756D02*
D03*
Y022835D02*
D03*
X012953D02*
D03*
X01315D02*
D03*
X013346Y022835D02*
D03*
X013543D02*
D03*
X01374Y022835D02*
D03*
X013937D02*
D03*
X014134D02*
D03*
D130*
X0125Y021201D02*
D03*
Y021398D02*
D03*
Y021594D02*
D03*
X0125Y021791D02*
D03*
Y021988D02*
D03*
Y022185D02*
D03*
Y022382D02*
D03*
Y022579D02*
D03*
X01439Y022579D02*
D03*
X01439Y022382D02*
D03*
Y022185D02*
D03*
X01439Y021988D02*
D03*
Y021791D02*
D03*
X01439Y021594D02*
D03*
Y021398D02*
D03*
Y021201D02*
D03*
D131*
X013445Y02189D02*
D03*
D132*
X016142Y011457D02*
D03*
X012598Y01752D02*
D03*
X012795Y01752D02*
D03*
X012992D02*
D03*
X013189Y01752D02*
D03*
X013386D02*
D03*
X013583D02*
D03*
X01378D02*
D03*
X013976D02*
D03*
X014173Y01752D02*
D03*
X01437Y01752D02*
D03*
X014567D02*
D03*
X014764D02*
D03*
X014961D02*
D03*
X015157D02*
D03*
X015354D02*
D03*
X015551D02*
D03*
X015748D02*
D03*
X015945D02*
D03*
X016142D02*
D03*
X016339D02*
D03*
X016535D02*
D03*
X016732D02*
D03*
X016929D02*
D03*
X017126Y01752D02*
D03*
X017323D02*
D03*
X017323Y011457D02*
D03*
X017126D02*
D03*
X016929D02*
D03*
X016732D02*
D03*
X016535D02*
D03*
X016339D02*
D03*
X015945D02*
D03*
X015748D02*
D03*
X015551D02*
D03*
X015354D02*
D03*
X015157D02*
D03*
X014961D02*
D03*
X014764D02*
D03*
X014567D02*
D03*
X01437D02*
D03*
X014173D02*
D03*
X013976D02*
D03*
X01378D02*
D03*
X013583D02*
D03*
X013386D02*
D03*
X013189D02*
D03*
X012992D02*
D03*
X012795D02*
D03*
X012598D02*
D03*
D133*
X017992Y01685D02*
D03*
Y016654D02*
D03*
Y016457D02*
D03*
Y01626D02*
D03*
Y016063D02*
D03*
Y015866D02*
D03*
Y015669D02*
D03*
Y015472D02*
D03*
Y015276D02*
D03*
Y015079D02*
D03*
Y014882D02*
D03*
Y014685D02*
D03*
Y014488D02*
D03*
Y014291D02*
D03*
Y014094D02*
D03*
Y013898D02*
D03*
Y013701D02*
D03*
Y013504D02*
D03*
Y013307D02*
D03*
Y01311D02*
D03*
Y012913D02*
D03*
Y012717D02*
D03*
Y01252D02*
D03*
Y012323D02*
D03*
Y012126D02*
D03*
X011929Y012126D02*
D03*
Y012323D02*
D03*
Y01252D02*
D03*
Y012717D02*
D03*
Y012913D02*
D03*
Y01311D02*
D03*
Y013307D02*
D03*
Y013504D02*
D03*
Y013701D02*
D03*
Y013898D02*
D03*
Y014094D02*
D03*
Y014291D02*
D03*
Y014488D02*
D03*
Y014685D02*
D03*
Y014882D02*
D03*
Y015079D02*
D03*
Y015276D02*
D03*
Y015472D02*
D03*
Y015669D02*
D03*
Y015866D02*
D03*
Y016063D02*
D03*
Y01626D02*
D03*
Y016457D02*
D03*
Y016654D02*
D03*
Y01685D02*
D03*
D134*
X02065Y01247D02*
D03*
X021949D02*
D03*
D135*
X027957Y023913D02*
D03*
X028217D02*
D03*
X028476D02*
D03*
X028736D02*
D03*
D136*
Y025089D02*
D03*
X028476D02*
D03*
X028217D02*
D03*
X027957D02*
D03*
D137*
X028346Y024695D02*
D03*
D138*
X027065Y021514D02*
D03*
X026065Y024215D02*
D03*
D139*
X026315Y021689D02*
D03*
X026815Y024039D02*
D03*
D140*
X024526Y017972D02*
D03*
X025474D02*
D03*
X025986Y015354D02*
D03*
X025037D02*
D03*
D141*
X02499Y022185D02*
D03*
Y021476D02*
D03*
X023593Y023543D02*
D03*
Y022835D02*
D03*
D142*
X021644Y014508D02*
D03*
X020935D02*
D03*
D143*
X012461Y010079D02*
D03*
X013406D02*
D03*
D144*
X020028Y007323D02*
D03*
X019028D02*
D03*
D145*
X031004Y024409D02*
D03*
Y021693D02*
D03*
D146*
X033169Y024409D02*
D03*
Y021693D02*
D03*
D147*
X014642Y006935D02*
D03*
Y007435D02*
D03*
X014142Y006935D02*
D03*
Y007435D02*
D03*
X013642Y006935D02*
D03*
Y007435D02*
D03*
X013142Y006935D02*
D03*
Y007435D02*
D03*
X012642Y006935D02*
D03*
Y007435D02*
D03*
X010984Y007047D02*
D03*
Y01937D02*
D03*
D148*
X033661Y007283D02*
D03*
X022244D02*
D03*
X022244Y018898D02*
D03*
X033661D02*
D03*
X030453D02*
D03*
X028453D02*
D03*
X029453D02*
D03*
X024453D02*
D03*
X025453D02*
D03*
X026453D02*
D03*
X027453D02*
D03*
D149*
X031453D02*
D03*
D150*
X012303Y02378D02*
D03*
X014035D02*
D03*
D151*
X010197Y007205D02*
D03*
Y009134D02*
D03*
Y011102D02*
D03*
Y013071D02*
D03*
Y015039D02*
D03*
Y017008D02*
D03*
Y018976D02*
D03*
Y020945D02*
D03*
Y022913D02*
D03*
Y024882D02*
D03*
X011181Y025866D02*
D03*
X01315D02*
D03*
X015118D02*
D03*
X016988D02*
D03*
X018858D02*
D03*
X020728D02*
D03*
X022638D02*
D03*
X031929D02*
D03*
X033858D02*
D03*
X034803Y024921D02*
D03*
Y022992D02*
D03*
Y021024D02*
D03*
Y019055D02*
D03*
Y017087D02*
D03*
Y015118D02*
D03*
Y01315D02*
D03*
Y011181D02*
D03*
Y009213D02*
D03*
Y007244D02*
D03*
X033819Y00626D02*
D03*
X031673D02*
D03*
X029596D02*
D03*
X02751D02*
D03*
X025413D02*
D03*
X023327D02*
D03*
X021398D02*
D03*
X019528D02*
D03*
X017559D02*
D03*
X015423D02*
D03*
X013327D02*
D03*
X01126D02*
D03*
M02*
