G04 Layer_Color=16711935*
%FSTAX24Y24*%
%MOIN*%
G70*
G01*
G75*
%ADD50C,0.0100*%
%ADD92C,0.0197*%
%ADD95C,0.0079*%
%ADD177C,0.0039*%
D50*
X03437Y018898D02*
G03*
X03437Y018898I-000709J0D01*
G01*
X022953D02*
G03*
X022953Y018898I-000709J0D01*
G01*
X022953Y007283D02*
G03*
X022953Y007283I-000709J0D01*
G01*
X03437D02*
G03*
X03437Y007283I-000709J0D01*
G01*
X023474Y021191D02*
X024656D01*
Y023159D01*
X023474D02*
X024656D01*
X023474Y021191D02*
Y023159D01*
X028199Y020443D02*
X02938D01*
Y022411D01*
X028199D02*
X02938D01*
X028199Y020443D02*
Y022411D01*
X025571Y024075D02*
X026752D01*
X025571Y022106D02*
Y024075D01*
Y022106D02*
X026752D01*
Y024075D01*
X018199Y008524D02*
Y009783D01*
X020167D01*
Y008524D02*
Y009783D01*
X018199Y008524D02*
X020167D01*
X021919Y021171D02*
X0231D01*
X021919D02*
Y02314D01*
X0231D01*
Y021171D02*
Y02314D01*
X020528Y006823D02*
Y007823D01*
X018528D02*
X020528D01*
X018528Y006823D02*
Y007823D01*
Y006823D02*
X020528D01*
X02824Y010886D02*
Y013465D01*
X025382D02*
X02824D01*
X025382Y010886D02*
Y013465D01*
Y010886D02*
X02824D01*
X030236Y009163D02*
X032795Y009163D01*
Y011693D01*
X030236D02*
X032795D01*
X030236D02*
X030236Y009163D01*
X028898Y009527D02*
X028898Y007558D01*
X026467Y009527D02*
X028898Y009527D01*
X026467Y007558D02*
Y009527D01*
Y007558D02*
X028898D01*
X029291Y013071D02*
X034016D01*
X029291D02*
Y017795D01*
X034016D01*
X034016Y013071D01*
X018878Y021457D02*
Y022244D01*
X019705D01*
Y021457D02*
Y022244D01*
X018878Y021457D02*
X019705D01*
X014429Y020906D02*
Y022874D01*
X012461D02*
X014429D01*
X012461Y020906D02*
Y022874D01*
Y020906D02*
X014429D01*
X011811Y011339D02*
Y017638D01*
Y011339D02*
X01811D01*
Y017638D01*
X011811D02*
X01811D01*
X027697Y023839D02*
X028996D01*
Y025148D01*
X027697Y023839D02*
Y025138D01*
Y025148D01*
X028996D01*
X027175Y024114D02*
X027175Y021614D01*
X025945Y024114D02*
X027175D01*
X025945Y021614D02*
Y024114D01*
Y021614D02*
X027175Y021614D01*
X017815Y019803D02*
X018642D01*
X017815Y019016D02*
Y019803D01*
Y019016D02*
X018642D01*
Y019803D01*
X016644Y022431D02*
X021073D01*
X016644D02*
Y025187D01*
X021073D01*
Y022431D02*
Y025187D01*
X020748Y012402D02*
X022717D01*
X020748Y01122D02*
Y012402D01*
Y01122D02*
X022717D01*
Y012402D01*
X020354Y017283D02*
X022323D01*
X020354Y016102D02*
Y017283D01*
Y016102D02*
X022323D01*
Y017283D01*
X023898Y014341D02*
X025866D01*
X023898D02*
Y016762D01*
X025866D01*
X025866Y016762D02*
X025866Y016762D01*
X025866Y014338D02*
Y016762D01*
X02874Y007559D02*
Y009134D01*
Y007559D02*
X030315D01*
Y009134D01*
X02874D02*
X030315D01*
X029724Y013474D02*
X031772D01*
X029724D02*
Y014547D01*
X031772D01*
Y013474D02*
Y014547D01*
X031722Y01562D02*
Y017667D01*
X03065Y01562D02*
X031722D01*
X03065D02*
X03065Y017667D01*
X031722D01*
X030148Y01562D02*
Y017667D01*
X029075Y01562D02*
X030148D01*
X029075D02*
X029075Y017667D01*
X030148D01*
X018031Y007106D02*
Y008484D01*
X015669D02*
X018031D01*
X015669Y007106D02*
Y008484D01*
Y007106D02*
X018031D01*
X030128Y023189D02*
X034459D01*
X030128D02*
Y02563D01*
X034459Y023189D02*
Y02563D01*
X030128D02*
X034459D01*
X030128Y020472D02*
X034459D01*
X030128D02*
Y022913D01*
X034459Y020472D02*
Y022913D01*
X030128D02*
X034459D01*
X015669Y010148D02*
X018032D01*
Y00877D02*
Y010148D01*
X015669Y00877D02*
X018032D01*
X015669D02*
Y010148D01*
X014892Y00651D02*
Y00786D01*
X012392Y00651D02*
X014892D01*
X012392D02*
Y00786D01*
X014892D01*
X021526Y013081D02*
Y014262D01*
X020266D02*
X021526D01*
X020266Y013081D02*
Y014262D01*
Y013081D02*
X021526D01*
X012303Y009783D02*
Y010374D01*
X013563D01*
Y009783D02*
Y010374D01*
X012303Y009783D02*
X013563D01*
X013524Y008514D02*
Y011033D01*
X011053Y008514D02*
X013524D01*
X011053D02*
Y011033D01*
X013524D01*
X015886Y017785D02*
Y020285D01*
X01372Y017785D02*
X015886D01*
X01372D02*
Y020285D01*
X015886D01*
X022826Y009596D02*
Y010423D01*
X022038Y009596D02*
X022826D01*
X022038D02*
Y010423D01*
X022826D01*
X028453Y020079D02*
X031953D01*
X028453Y019398D02*
Y020079D01*
Y019398D02*
X031953D01*
X031953Y019398D01*
Y018398D02*
Y019398D01*
X023953Y018398D02*
Y019398D01*
X023953Y018398D02*
X023953Y018398D01*
X020953Y020079D02*
X023953D01*
X027453D01*
Y019398D02*
Y020079D01*
X023953Y019398D02*
X027453D01*
X023953Y018398D02*
X031953D01*
X031953Y020079D02*
X034953D01*
X020953Y006102D02*
Y020079D01*
Y006102D02*
X034953D01*
Y020079D01*
X015128Y0225D02*
Y026142D01*
X01122Y0225D02*
X015128D01*
X01122Y026142D02*
X015128D01*
X01122Y0225D02*
Y026142D01*
D92*
X01187Y007047D02*
G03*
X01187Y007047I-000886J0D01*
G01*
Y01937D02*
G03*
X01187Y01937I-000886J0D01*
G01*
D95*
X019222Y018652D02*
X019852D01*
X019222Y017864D02*
Y018652D01*
Y017864D02*
X019852D01*
Y018652D01*
X023788Y024382D02*
X024969D01*
X023788D02*
Y024934D01*
X024969D01*
Y024382D02*
Y024934D01*
X02Y017756D02*
X02063D01*
X02D02*
Y018543D01*
X02063D01*
Y017756D02*
Y018543D01*
X023463Y016887D02*
X024644D01*
X023463D02*
X023463Y016336D01*
X024644Y016336D01*
X024644Y016887D02*
X024644Y016336D01*
X027399Y016616D02*
Y017797D01*
X026848D02*
X027399D01*
X026848Y016616D02*
Y017797D01*
Y016616D02*
X027399D01*
X022768Y025087D02*
X023319D01*
Y023906D02*
Y025087D01*
X022768Y023906D02*
X023319D01*
X022768D02*
Y025087D01*
X029107Y022016D02*
Y023197D01*
Y022016D02*
X029658D01*
Y023197D01*
X029107D02*
X029658D01*
X026655Y016415D02*
X027836D01*
Y015864D02*
Y016415D01*
X026655Y015864D02*
X027836D01*
X026655D02*
Y016415D01*
X03319Y009683D02*
X034372Y009683D01*
X034372Y009131D02*
X034372Y009683D01*
X03319Y009131D02*
X034372D01*
X03319D02*
X03319Y009683D01*
X011222Y012667D02*
Y013218D01*
Y012667D02*
X012403Y012667D01*
X012403Y013218D02*
X012403Y012667D01*
X011222Y013218D02*
X012403D01*
X01622Y011724D02*
X017008D01*
X01622D02*
Y012354D01*
X017008D01*
Y011724D02*
Y012354D01*
X016191Y016171D02*
X016978D01*
Y015541D02*
Y016171D01*
X016191Y015541D02*
X016978D01*
X016191D02*
Y016171D01*
Y013888D02*
Y014518D01*
Y013888D02*
X016978D01*
Y014518D01*
X016191D02*
X016978D01*
D177*
X029113Y02279D02*
X029572Y02325D01*
X02882Y024001D02*
X029572Y02325D01*
X028361Y023542D02*
X02882Y024001D01*
X028361Y023542D02*
X029113Y02279D01*
X028452Y023451D02*
X028911Y023911D01*
X02841Y023493D02*
X028452Y023451D01*
X02841Y023493D02*
X028869Y023952D01*
X026348Y01562D02*
X026998D01*
Y014557D02*
Y01562D01*
X026348Y014557D02*
X026998Y014557D01*
X026348Y01562D02*
X026348Y014557D01*
Y014685D02*
X026998D01*
X026348Y014626D02*
X026348Y014685D01*
X026348Y014626D02*
X026998D01*
X027667Y015492D02*
X028317D01*
Y014429D02*
Y015492D01*
X027667Y014429D02*
X028317Y014429D01*
X027667Y015492D02*
X027667Y014429D01*
X027667Y014557D02*
X028317D01*
X027667Y014498D02*
X027667Y014557D01*
X027667Y014498D02*
X028317D01*
X021762Y012146D02*
Y012795D01*
X021703Y012146D02*
X021762Y012146D01*
X021703Y012146D02*
Y012795D01*
X020768Y012146D02*
X021831D01*
Y012795D01*
X020768D02*
X021831D01*
X020768Y012146D02*
Y012795D01*
X0281Y013602D02*
X02875D01*
X02875Y014665D02*
X02875Y013602D01*
X0281Y014665D02*
X02875Y014665D01*
X0281Y014665D02*
X0281Y013602D01*
X0281Y014537D02*
X02875D01*
X0281D02*
X0281Y014596D01*
X02875Y014596D01*
X027037Y013543D02*
X027687D01*
Y014606D01*
X027037Y014606D02*
X027687Y014606D01*
X027037Y014606D02*
X027037Y013543D01*
X027037Y014478D02*
X027687D01*
X027037D02*
Y014537D01*
X027687D01*
M02*
