G04 Layer_Color=32896*
%FSTAX24Y24*%
%MOIN*%
G70*
G01*
G75*
%ADD52C,0.0100*%
%ADD61C,0.0197*%
%ADD92C,0.0394*%
%ADD93C,0.0098*%
%ADD94C,0.0079*%
%ADD95C,0.0050*%
%ADD96C,0.0059*%
%ADD173C,0.0060*%
%ADD174C,0.0059*%
D52*
X020217Y012884D02*
G03*
X020217Y012884I-000049J0D01*
G01*
X02379Y016624D02*
G03*
X02379Y016624I-00005J0D01*
G01*
X015295Y023504D02*
Y024291D01*
X011043Y023504D02*
Y024291D01*
X022036Y015886D02*
X022392D01*
X021644Y015039D02*
X021781Y015167D01*
X022047D01*
X022825Y013888D02*
X023258Y013622D01*
X013494Y01685D02*
X015955D01*
Y013406D02*
Y01685D01*
X013494Y013406D02*
X015955D01*
X013494D02*
Y01685D01*
X021693Y015699D02*
X022036Y015886D01*
X022934Y009813D02*
Y010207D01*
X02193Y009813D02*
Y010207D01*
X013593Y013081D02*
X013858Y012992D01*
X014242D01*
X014016Y017657D02*
X015591D01*
X014016Y020413D02*
X015591D01*
X012835Y017854D02*
X013228Y018051D01*
X012835Y017854D02*
Y018248D01*
X013228Y018051D01*
X013524Y008986D02*
Y010561D01*
X011053Y008986D02*
Y010561D01*
X020699Y014301D02*
X021093D01*
X020699Y013032D02*
X021093D01*
X012293Y007963D02*
X01499D01*
X012293Y006407D02*
Y007963D01*
Y006407D02*
X01499D01*
Y007963D01*
X015669Y010236D02*
X018032D01*
X015669Y008671D02*
X018032D01*
X033976Y02063D02*
Y022756D01*
X030197D02*
X033976D01*
X030197Y02063D02*
Y022756D01*
Y02063D02*
X033976D01*
Y023346D02*
Y025472D01*
X030197D02*
X033976D01*
X030197Y023346D02*
Y025472D01*
Y023346D02*
X033976D01*
X015669Y008583D02*
X018031D01*
X015669Y007018D02*
X018031D01*
X030148Y01626D02*
X030148Y017047D01*
X029075Y01626D02*
X029075Y017047D01*
X031722Y01626D02*
Y017047D01*
X03065Y01626D02*
Y017047D01*
X030364Y013474D02*
X031152D01*
X030364Y014547D02*
X031152D01*
X030315Y008248D02*
Y009134D01*
X029429D02*
X030315D01*
X02874Y007559D02*
Y008445D01*
Y007559D02*
X029626D01*
X025866Y014921D02*
Y016181D01*
X023898Y014921D02*
Y016181D01*
X020748Y017382D02*
X021929D01*
X020748Y016004D02*
X021929D01*
X021142Y0125D02*
X022323D01*
X021142Y011122D02*
X022323D01*
X017677Y022431D02*
X020039D01*
X021073Y02315D02*
Y023937D01*
X016644Y02315D02*
Y023937D01*
Y025187D02*
X017037D01*
X016644Y024793D02*
Y025187D01*
X020679D02*
X021073D01*
Y024793D02*
Y025187D01*
X025571Y022598D02*
Y023583D01*
X026752Y022598D02*
Y023583D01*
X02938Y020935D02*
Y021919D01*
X028199Y020935D02*
Y021919D01*
X024656Y021683D02*
Y022667D01*
X023474Y021683D02*
Y022667D01*
D61*
X023081Y0094D02*
G03*
X023081Y0094I-000059J0D01*
G01*
X013839Y008356D02*
G03*
X013839Y008356I-000079J0D01*
G01*
X030434Y017854D02*
G03*
X030434Y017854I-000089J0D01*
G01*
X032008D02*
G03*
X032008Y017854I-000089J0D01*
G01*
X032048Y013278D02*
G03*
X032048Y013278I-000089J0D01*
G01*
X026998Y021909D02*
G03*
X026998Y021909I-000049J0D01*
G01*
X028051Y022608D02*
G03*
X028051Y022608I-000049J0D01*
G01*
X023327Y023356D02*
G03*
X023327Y023356I-000049J0D01*
G01*
D92*
X022646Y017579D02*
G03*
X022646Y017579I-000028J0D01*
G01*
X02304Y012697D02*
G03*
X02304Y012697I-000028J0D01*
G01*
D93*
X017018Y013652D02*
G03*
X017018Y013652I-000039J0D01*
G01*
Y015305D02*
G03*
X017018Y015305I-000039J0D01*
G01*
X01626Y012591D02*
G03*
X01626Y012591I-000039J0D01*
G01*
X019026Y017864D02*
G03*
X019026Y017864I-000039J0D01*
G01*
D94*
X016191Y014104D02*
Y014301D01*
X016978Y014104D02*
Y014301D01*
Y015758D02*
Y015955D01*
X016191Y015758D02*
Y015955D01*
X01622Y011941D02*
Y012138D01*
X017008Y011941D02*
Y012138D01*
X011222Y012846D02*
X011222Y012667D01*
X011537D01*
X012088D02*
X012403Y012667D01*
Y012846D01*
X034372Y009131D02*
X034372Y009311D01*
X034057Y009131D02*
X034372D01*
X03319D02*
X033505D01*
X03319D02*
Y009311D01*
X027836Y015864D02*
X027836Y016043D01*
X027521Y015864D02*
X027836D01*
X026655D02*
X02697D01*
X026655Y016043D02*
X026655Y015864D01*
X026969Y015059D02*
X027008Y015098D01*
X026969Y015059D02*
X026969Y013602D01*
X027756D02*
Y015059D01*
X027008Y015098D02*
X027717Y015098D01*
X027756Y015059D01*
X028031Y015059D02*
X028071Y015098D01*
X028031Y015059D02*
X028031Y013602D01*
X028819Y015059D02*
X028819Y013602D01*
X028071Y015098D02*
X028779Y015098D01*
X028819Y015059D01*
X028376Y025295D02*
X028415Y025335D01*
X028376Y023839D02*
Y025295D01*
X029163Y023839D02*
Y025295D01*
X028415Y025335D02*
X029124Y025335D01*
X029163Y025295D01*
X023788Y024754D02*
X023788Y024934D01*
X024103D01*
X024654D02*
X024969D01*
X024969Y024754D01*
X019439Y018652D02*
X019636D01*
X019439Y017864D02*
X019636D01*
D95*
X014577Y006093D02*
X014675Y006289D01*
X014577Y006093D02*
X014774D01*
X014675Y006289D02*
X014774Y006093D01*
D96*
X015282Y016289D02*
Y016158D01*
Y016224D01*
X015676D01*
Y016289D01*
Y016158D01*
X015479Y015961D02*
Y015699D01*
X015676Y015568D02*
X015282D01*
Y015371D01*
X015348Y015305D01*
X015479D01*
X015545Y015371D01*
Y015568D01*
Y015437D02*
X015676Y015305D01*
X015414Y015109D02*
Y014977D01*
X015479Y014912D01*
X015676D01*
Y015109D01*
X01561Y015174D01*
X015545Y015109D01*
Y014912D01*
X015676Y014781D02*
X015414D01*
Y014584D01*
X015479Y014518D01*
X015676D01*
X015807Y014256D02*
Y01419D01*
X015741Y014125D01*
X015414D01*
Y014322D01*
X015479Y014387D01*
X01561D01*
X015676Y014322D01*
Y014125D01*
Y013797D02*
Y013928D01*
X01561Y013994D01*
X015479D01*
X015414Y013928D01*
Y013797D01*
X015479Y013731D01*
X015545D01*
Y013994D01*
X01479Y016565D02*
X014725Y016499D01*
Y016368D01*
X01479Y016303D01*
X015053D01*
X015118Y016368D01*
Y016499D01*
X015053Y016565D01*
X01479D01*
X015118Y015591D02*
Y015459D01*
Y015525D01*
X014725D01*
X01479Y015591D01*
X031348Y020118D02*
Y019856D01*
X031296Y019803D01*
X031191D01*
X031139Y019856D01*
Y020118D01*
X031034Y019803D02*
X030929D01*
X030981D01*
Y020118D01*
X031034Y020066D01*
X030561Y020118D02*
X030666Y020066D01*
X030771Y019961D01*
Y019856D01*
X030719Y019803D01*
X030614D01*
X030561Y019856D01*
Y019908D01*
X030614Y019961D01*
X030771D01*
X01479Y013878D02*
X014725Y013812D01*
Y013681D01*
X01479Y013616D01*
X014856D01*
X014921Y013681D01*
Y013747D01*
Y013681D01*
X014987Y013616D01*
X015053D01*
X015118Y013681D01*
Y013812D01*
X015053Y013878D01*
X015118Y014521D02*
Y014783D01*
X014856Y014521D01*
X01479D01*
X014725Y014587D01*
Y014718D01*
X01479Y014783D01*
X020709Y009783D02*
Y010098D01*
X020551D01*
X020499Y010046D01*
Y009941D01*
X020551Y009888D01*
X020709D01*
X020604D02*
X020499Y009783D01*
X020394Y010098D02*
X020184D01*
Y010046D01*
X020394Y009836D01*
Y009783D01*
X020079Y010046D02*
X020026Y010098D01*
X019922D01*
X019869Y010046D01*
Y009993D01*
X019922Y009941D01*
X019974D01*
X019922D01*
X019869Y009888D01*
Y009836D01*
X019922Y009783D01*
X020026D01*
X020079Y009836D01*
X021706Y009347D02*
X021892Y009161D01*
Y009087D01*
X021818Y009013D01*
X021744Y009013D01*
X021558Y009198D01*
X021706Y008901D02*
X021632Y008827D01*
X021669Y008864D01*
X021447Y009087D01*
X021521Y009087D01*
X021484Y008753D02*
Y008679D01*
X02141Y008605D01*
X021335Y008605D01*
X021187Y008753D01*
Y008827D01*
X021261Y008901D01*
X021335Y008901D01*
X021373Y008864D01*
Y00879D01*
X021261Y008679D01*
X012224Y016683D02*
X012447Y016906D01*
X012336Y017017D01*
X012262D01*
X012187Y016943D01*
X012187Y016869D01*
X012299Y016757D01*
X012224Y016832D02*
X012076D01*
X012224Y017128D02*
X012076Y017277D01*
X012039Y01724D01*
Y016943D01*
X012002Y016906D01*
X011853Y017499D02*
X012002Y017351D01*
X01189Y01724D01*
X011853Y017351D01*
X011816Y017388D01*
X011742D01*
X011668Y017314D01*
X011668Y01724D01*
X011742Y017165D01*
X011816D01*
X012343Y01813D02*
X012657D01*
Y018287D01*
X012605Y01834D01*
X0125D01*
X012447Y018287D01*
Y01813D01*
Y018235D02*
X012343Y01834D01*
X012657Y018445D02*
Y018655D01*
X012605D01*
X012395Y018445D01*
X012343D01*
X012657Y01876D02*
Y01897D01*
X012605D01*
X012395Y01876D01*
X012343D01*
X021753Y00858D02*
Y008655D01*
X021827Y008729D01*
X021901Y008729D01*
X02205Y00858D01*
Y008506D01*
X021975Y008432D01*
X021901Y008432D01*
X021641Y008543D02*
X021493Y008395D01*
X02153Y008358D01*
X021827D01*
X021864Y008321D01*
X021641Y008098D02*
X021567Y008024D01*
X021604Y008061D01*
X021382Y008284D01*
X021456Y008284D01*
X01596Y021035D02*
X016065D01*
X016013D01*
Y020772D01*
X016065Y02072D01*
X016118D01*
X01617Y020772D01*
X015645Y021035D02*
X015855D01*
Y020877D01*
X01575Y02093D01*
X015698D01*
X015645Y020877D01*
Y020772D01*
X015698Y02072D01*
X015803D01*
X015855Y020772D01*
X01419Y010036D02*
X014242Y010088D01*
X014347D01*
X0144Y010036D01*
Y009984D01*
X014347Y009931D01*
X014242D01*
X01419Y009879D01*
Y009826D01*
X014242Y009774D01*
X014347D01*
X0144Y009826D01*
X014085Y010036D02*
X014032Y010088D01*
X013927D01*
X013875Y010036D01*
Y009984D01*
X013927Y009931D01*
X01398D01*
X013927D01*
X013875Y009879D01*
Y009826D01*
X013927Y009774D01*
X014032D01*
X014085Y009826D01*
X025003Y021562D02*
X024951Y021614D01*
Y021719D01*
X025003Y021772D01*
X025213D01*
X025266Y021719D01*
Y021614D01*
X025213Y021562D01*
X024951Y021247D02*
Y021457D01*
X025108D01*
X025056Y021352D01*
Y021299D01*
X025108Y021247D01*
X025213D01*
X025266Y021299D01*
Y021404D01*
X025213Y021457D01*
X024951Y020932D02*
Y021142D01*
X025108D01*
X025056Y021037D01*
Y020984D01*
X025108Y020932D01*
X025213D01*
X025266Y020984D01*
Y021089D01*
X025213Y021142D01*
X02669Y020459D02*
X026742Y020512D01*
X026847D01*
X0269Y020459D01*
Y020249D01*
X026847Y020197D01*
X026742D01*
X02669Y020249D01*
X026375Y020512D02*
X026585D01*
Y020354D01*
X02648Y020407D01*
X026427D01*
X026375Y020354D01*
Y020249D01*
X026427Y020197D01*
X026532D01*
X026585Y020249D01*
X02606Y020512D02*
X026165Y020459D01*
X02627Y020354D01*
Y020249D01*
X026217Y020197D01*
X026112D01*
X02606Y020249D01*
Y020302D01*
X026112Y020354D01*
X02627D01*
X018038Y01418D02*
X018091Y014232D01*
X018196D01*
X018248Y01418D01*
Y01397D01*
X018196Y013917D01*
X018091D01*
X018038Y01397D01*
X017933Y014232D02*
X017723D01*
Y01418D01*
X017933Y01397D01*
Y013917D01*
X017618Y01418D02*
X017566Y014232D01*
X017461D01*
X017408Y01418D01*
Y01397D01*
X017461Y013917D01*
X017566D01*
X017618Y01397D01*
Y01418D01*
X014642Y017408D02*
X014695Y017461D01*
X0148D01*
X014852Y017408D01*
Y017198D01*
X0148Y017146D01*
X014695D01*
X014642Y017198D01*
X014328Y017146D02*
X014538D01*
X014328Y017356D01*
Y017408D01*
X01438Y017461D01*
X014485D01*
X014538Y017408D01*
X014013Y017146D02*
X014223D01*
X014013Y017356D01*
Y017408D01*
X014065Y017461D01*
X01417D01*
X014223Y017408D01*
X023701Y013071D02*
Y013386D01*
X023543D01*
X023491Y013333D01*
Y013228D01*
X023543Y013176D01*
X023701D01*
X023596D02*
X023491Y013071D01*
X023176Y013386D02*
X023386D01*
Y013228D01*
X023281Y013281D01*
X023228D01*
X023176Y013228D01*
Y013123D01*
X023228Y013071D01*
X023333D01*
X023386Y013123D01*
X022861Y013386D02*
X023071D01*
Y013228D01*
X022966Y013281D01*
X022914D01*
X022861Y013228D01*
Y013123D01*
X022914Y013071D01*
X023019D01*
X023071Y013123D01*
X023993Y013727D02*
X024045Y013779D01*
X02415D01*
X024203Y013727D01*
Y013517D01*
X02415Y013465D01*
X024045D01*
X023993Y013517D01*
X023678Y013779D02*
X023888D01*
Y013622D01*
X023783Y013674D01*
X02373D01*
X023678Y013622D01*
Y013517D01*
X02373Y013465D01*
X023835D01*
X023888Y013517D01*
X023573Y013727D02*
X023521Y013779D01*
X023416D01*
X023363Y013727D01*
Y013674D01*
X023416Y013622D01*
X023363Y01357D01*
Y013517D01*
X023416Y013465D01*
X023521D01*
X023573Y013517D01*
Y01357D01*
X023521Y013622D01*
X023573Y013674D01*
Y013727D01*
X023521Y013622D02*
X023416D01*
X019941Y014282D02*
Y014596D01*
X019784D01*
X019731Y014544D01*
Y014439D01*
X019784Y014386D01*
X019941D01*
X019836D02*
X019731Y014282D01*
X019416Y014596D02*
X019626D01*
Y014439D01*
X019521Y014491D01*
X019469D01*
X019416Y014439D01*
Y014334D01*
X019469Y014282D01*
X019574D01*
X019626Y014334D01*
X019311Y014596D02*
X019101D01*
Y014544D01*
X019311Y014334D01*
Y014282D01*
X022077Y014646D02*
Y014383D01*
X022024Y014331D01*
X021919D01*
X021867Y014383D01*
Y014646D01*
X021762Y014331D02*
X021657D01*
X021709D01*
Y014646D01*
X021762Y014593D01*
X021342Y014331D02*
Y014646D01*
X0215Y014488D01*
X02129D01*
X014196Y012231D02*
X014144Y012284D01*
Y012388D01*
X014196Y012441D01*
X014406D01*
X014459Y012388D01*
Y012284D01*
X014406Y012231D01*
X014459Y011916D02*
Y012126D01*
X014249Y011916D01*
X014196D01*
X014144Y011969D01*
Y012074D01*
X014196Y012126D01*
X014459Y011654D02*
X014144D01*
X014301Y011811D01*
Y011601D01*
X024262Y012126D02*
X023947D01*
Y011969D01*
X023999Y011916D01*
X024104D01*
X024157Y011969D01*
Y012126D01*
Y012021D02*
X024262Y011916D01*
X023947Y011601D02*
Y011811D01*
X024104D01*
X024052Y011706D01*
Y011654D01*
X024104Y011601D01*
X024209D01*
X024262Y011654D01*
Y011759D01*
X024209Y011811D01*
X023999Y011496D02*
X023947Y011444D01*
Y011339D01*
X023999Y011286D01*
X024209D01*
X024262Y011339D01*
Y011444D01*
X024209Y011496D01*
X023999D01*
X024783Y012096D02*
X024469D01*
Y011939D01*
X024521Y011887D01*
X024626D01*
X024679Y011939D01*
Y012096D01*
Y011991D02*
X024783Y011887D01*
X024469Y011572D02*
Y011782D01*
X024626D01*
X024574Y011677D01*
Y011624D01*
X024626Y011572D01*
X024731D01*
X024783Y011624D01*
Y011729D01*
X024731Y011782D01*
X024783Y011467D02*
Y011362D01*
Y011414D01*
X024469D01*
X024521Y011467D01*
X03125Y011585D02*
Y011899D01*
X031093D01*
X03104Y011847D01*
Y011742D01*
X031093Y01169D01*
X03125D01*
X031145D02*
X03104Y011585D01*
X030935Y011847D02*
X030883Y011899D01*
X030778D01*
X030725Y011847D01*
Y011795D01*
X030778Y011742D01*
X03083D01*
X030778D01*
X030725Y01169D01*
Y011637D01*
X030778Y011585D01*
X030883D01*
X030935Y011637D01*
X03041Y011899D02*
X030515Y011847D01*
X03062Y011742D01*
Y011637D01*
X030568Y011585D01*
X030463D01*
X03041Y011637D01*
Y01169D01*
X030463Y011742D01*
X03062D01*
X019134Y018858D02*
Y019173D01*
X018976D01*
X018924Y019121D01*
Y019016D01*
X018976Y018963D01*
X019134D01*
X019029D02*
X018924Y018858D01*
X018662D02*
Y019173D01*
X018819Y019016D01*
X018609D01*
X018347Y018858D02*
Y019173D01*
X018504Y019016D01*
X018294D01*
X015007Y009544D02*
X015059Y009596D01*
X015164D01*
X015217Y009544D01*
Y009491D01*
X015164Y009439D01*
X015059D01*
X015007Y009386D01*
Y009334D01*
X015059Y009281D01*
X015164D01*
X015217Y009334D01*
X014692Y009281D02*
X014902D01*
X014692Y009491D01*
Y009544D01*
X014744Y009596D01*
X014849D01*
X014902Y009544D01*
X029597Y021644D02*
X029859D01*
X029911Y021591D01*
Y021486D01*
X029859Y021434D01*
X029597D01*
X029911Y021329D02*
Y021224D01*
Y021276D01*
X029597D01*
X029649Y021329D01*
X029597Y020857D02*
Y021066D01*
X029754D01*
X029702Y020962D01*
Y020909D01*
X029754Y020857D01*
X029859D01*
X029911Y020909D01*
Y021014D01*
X029859Y021066D01*
X018445Y016033D02*
Y016348D01*
X018287D01*
X018235Y016296D01*
Y016191D01*
X018287Y016138D01*
X018445D01*
X01834D02*
X018235Y016033D01*
X01792Y016348D02*
X018025Y016296D01*
X01813Y016191D01*
Y016086D01*
X018078Y016033D01*
X017973D01*
X01792Y016086D01*
Y016138D01*
X017973Y016191D01*
X01813D01*
X017815Y016086D02*
X017763Y016033D01*
X017658D01*
X017605Y016086D01*
Y016296D01*
X017658Y016348D01*
X017763D01*
X017815Y016296D01*
Y016243D01*
X017763Y016191D01*
X017605D01*
X019193Y015207D02*
Y015522D01*
X019035D01*
X018983Y015469D01*
Y015364D01*
X019035Y015312D01*
X019193D01*
X019088D02*
X018983Y015207D01*
X018668Y015522D02*
X018773Y015469D01*
X018878Y015364D01*
Y015259D01*
X018826Y015207D01*
X018721D01*
X018668Y015259D01*
Y015312D01*
X018721Y015364D01*
X018878D01*
X018563Y015522D02*
X018353D01*
Y015469D01*
X018563Y015259D01*
Y015207D01*
X023091Y024094D02*
Y024409D01*
X022933D01*
X022881Y024357D01*
Y024252D01*
X022933Y024199D01*
X023091D01*
X022986D02*
X022881Y024094D01*
X022566Y024409D02*
X022671Y024357D01*
X022776Y024252D01*
Y024147D01*
X022723Y024094D01*
X022618D01*
X022566Y024147D01*
Y024199D01*
X022618Y024252D01*
X022776D01*
X022303Y024094D02*
Y024409D01*
X022461Y024252D01*
X022251D01*
X018238Y016683D02*
Y016998D01*
X018081D01*
X018028Y016945D01*
Y01684D01*
X018081Y016788D01*
X018238D01*
X018133D02*
X018028Y016683D01*
X017713Y016998D02*
X017818Y016945D01*
X017923Y01684D01*
Y016736D01*
X017871Y016683D01*
X017766D01*
X017713Y016736D01*
Y016788D01*
X017766Y01684D01*
X017923D01*
X017608Y016683D02*
X017504D01*
X017556D01*
Y016998D01*
X017608Y016945D01*
X018081Y018189D02*
X017858Y018412D01*
X017747Y0183D01*
Y018226D01*
X017821Y018152D01*
X017895Y018152D01*
X018007Y018263D01*
X017932Y018189D02*
Y018041D01*
X017487D02*
X017598Y018078D01*
X017747D01*
X017821Y018003D01*
Y017929D01*
X017747Y017855D01*
X017673Y017855D01*
X017635Y017892D01*
X017635Y017966D01*
X017747Y018078D01*
X01745Y017929D02*
X017376Y017929D01*
X017301Y017855D01*
Y017781D01*
X01745Y017632D01*
X017524Y017632D01*
X017598Y017707D01*
Y017781D01*
X01745Y017929D01*
X029813Y023337D02*
X029498D01*
Y023179D01*
X029551Y023127D01*
X029656D01*
X029708Y023179D01*
Y023337D01*
Y023232D02*
X029813Y023127D01*
Y023022D02*
Y022917D01*
Y022969D01*
X029498D01*
X029551Y023022D01*
Y022759D02*
X029498Y022707D01*
Y022602D01*
X029551Y022549D01*
X029603D01*
X029656Y022602D01*
Y022654D01*
Y022602D01*
X029708Y022549D01*
X029761D01*
X029813Y022602D01*
Y022707D01*
X029761Y022759D01*
X023642Y023661D02*
Y023976D01*
X023537Y023871D01*
X023432Y023976D01*
Y023661D01*
X023327Y023714D02*
X023274Y023661D01*
X023169D01*
X023117Y023714D01*
Y023924D01*
X023169Y023976D01*
X023274D01*
X023327Y023924D01*
Y023871D01*
X023274Y023819D01*
X023117D01*
X020728Y018218D02*
Y018533D01*
X020623Y018428D01*
X020518Y018533D01*
Y018218D01*
X020413Y018481D02*
X020361Y018533D01*
X020256D01*
X020204Y018481D01*
Y018428D01*
X020256Y018376D01*
X020204Y018323D01*
Y018271D01*
X020256Y018218D01*
X020361D01*
X020413Y018271D01*
Y018323D01*
X020361Y018376D01*
X020413Y018428D01*
Y018481D01*
X020361Y018376D02*
X020256D01*
X026404Y025262D02*
X026457Y025315D01*
X026562D01*
X026614Y025262D01*
Y025052D01*
X026562Y025D01*
X026457D01*
X026404Y025052D01*
X026089Y025315D02*
X026194Y025262D01*
X026299Y025157D01*
Y025052D01*
X026247Y025D01*
X026142D01*
X026089Y025052D01*
Y025105D01*
X026142Y025157D01*
X026299D01*
X025984Y025D02*
X025879D01*
X025932D01*
Y025315D01*
X025984Y025262D01*
X026985Y021197D02*
X027037Y02125D01*
X027142D01*
X027195Y021197D01*
Y020988D01*
X027142Y020935D01*
X027037D01*
X026985Y020988D01*
X02667Y02125D02*
X026775Y021197D01*
X02688Y021092D01*
Y020988D01*
X026828Y020935D01*
X026723D01*
X02667Y020988D01*
Y02104D01*
X026723Y021092D01*
X02688D01*
X026565Y021197D02*
X026513Y02125D01*
X026408D01*
X026355Y021197D01*
Y020988D01*
X026408Y020935D01*
X026513D01*
X026565Y020988D01*
Y021197D01*
X027346Y022369D02*
X027293Y022421D01*
Y022526D01*
X027346Y022579D01*
X027556D01*
X027608Y022526D01*
Y022421D01*
X027556Y022369D01*
X027293Y022054D02*
Y022264D01*
X027451D01*
X027398Y022159D01*
Y022106D01*
X027451Y022054D01*
X027556D01*
X027608Y022106D01*
Y022211D01*
X027556Y022264D01*
Y021949D02*
X027608Y021897D01*
Y021792D01*
X027556Y021739D01*
X027346D01*
X027293Y021792D01*
Y021897D01*
X027346Y021949D01*
X027398D01*
X027451Y021897D01*
Y021739D01*
X012933Y015325D02*
Y01564D01*
X012776D01*
X012723Y015587D01*
Y015482D01*
X012776Y01543D01*
X012933D01*
X012828D02*
X012723Y015325D01*
X012408D02*
X012618D01*
X012408Y015535D01*
Y015587D01*
X012461Y01564D01*
X012566D01*
X012618Y015587D01*
X012303D02*
X012251Y01564D01*
X012146D01*
X012093Y015587D01*
Y015535D01*
X012146Y015482D01*
X012093Y01543D01*
Y015377D01*
X012146Y015325D01*
X012251D01*
X012303Y015377D01*
Y01543D01*
X012251Y015482D01*
X012303Y015535D01*
Y015587D01*
X012251Y015482D02*
X012146D01*
X012894Y016132D02*
Y016447D01*
X012736D01*
X012684Y016394D01*
Y016289D01*
X012736Y016237D01*
X012894D01*
X012789D02*
X012684Y016132D01*
X012369D02*
X012579D01*
X012369Y016342D01*
Y016394D01*
X012421Y016447D01*
X012526D01*
X012579Y016394D01*
X012264Y016447D02*
X012054D01*
Y016394D01*
X012264Y016184D01*
Y016132D01*
X016978Y016535D02*
Y01685D01*
X016873Y016745D01*
X016768Y01685D01*
Y016535D01*
X016454D02*
X016663D01*
X016454Y016745D01*
Y016798D01*
X016506Y01685D01*
X016611D01*
X016663Y016798D01*
X017428Y010774D02*
X01748Y010827D01*
X017585D01*
X017638Y010774D01*
Y010564D01*
X017585Y010512D01*
X01748D01*
X017428Y010564D01*
X017323Y010512D02*
X017218D01*
X01727D01*
Y010827D01*
X017323Y010774D01*
X016851Y010512D02*
X017061D01*
X016851Y010722D01*
Y010774D01*
X016903Y010827D01*
X017008D01*
X017061Y010774D01*
X017589Y0119D02*
Y012214D01*
X017484Y01211D01*
X017379Y012214D01*
Y0119D01*
X017274D02*
X017169D01*
X017221D01*
Y012214D01*
X017274Y012162D01*
X010738Y013711D02*
X011001D01*
X011053Y013658D01*
Y013553D01*
X011001Y013501D01*
X010738D01*
X010791Y013396D02*
X010738Y013343D01*
Y013238D01*
X010791Y013186D01*
X010843D01*
X010896Y013238D01*
Y013291D01*
Y013238D01*
X010948Y013186D01*
X011001D01*
X011053Y013238D01*
Y013343D01*
X011001Y013396D01*
X014692Y013205D02*
X014744Y013258D01*
X014849D01*
X014902Y013205D01*
Y012995D01*
X014849Y012943D01*
X014744D01*
X014692Y012995D01*
X014587Y013205D02*
X014534Y013258D01*
X014429D01*
X014377Y013205D01*
Y013153D01*
X014429Y0131D01*
X014377Y013048D01*
Y012995D01*
X014429Y012943D01*
X014534D01*
X014587Y012995D01*
Y013048D01*
X014534Y0131D01*
X014587Y013153D01*
Y013205D01*
X014534Y0131D02*
X014429D01*
X011158Y014839D02*
X011211Y014892D01*
X011316D01*
X011368Y014839D01*
Y014629D01*
X011316Y014577D01*
X011211D01*
X011158Y014629D01*
X011053D02*
X011001Y014577D01*
X010896D01*
X010843Y014629D01*
Y014839D01*
X010896Y014892D01*
X011001D01*
X011053Y014839D01*
Y014787D01*
X011001Y014734D01*
X010843D01*
X018146Y012959D02*
X018199Y013012D01*
X018304D01*
X018356Y012959D01*
Y012749D01*
X018304Y012697D01*
X018199D01*
X018146Y012749D01*
X018041Y012697D02*
X017936D01*
X017989D01*
Y013012D01*
X018041Y012959D01*
X017779Y012749D02*
X017727Y012697D01*
X017622D01*
X017569Y012749D01*
Y012959D01*
X017622Y013012D01*
X017727D01*
X017779Y012959D01*
Y012907D01*
X017727Y012854D01*
X017569D01*
X012313Y021457D02*
Y021142D01*
X012156D01*
X012103Y021194D01*
Y021404D01*
X012156Y021457D01*
X012313D01*
X011998Y021142D02*
X011893D01*
X011946D01*
Y021457D01*
X011998Y021404D01*
X03232Y020305D02*
X032425D01*
X032372D01*
Y020043D01*
X032425Y01999D01*
X032477D01*
X03253Y020043D01*
X032215Y01999D02*
X03211D01*
X032162D01*
Y020305D01*
X032215Y020253D01*
X03Y025013D02*
Y024908D01*
Y024961D01*
X029738D01*
X029685Y024908D01*
Y024856D01*
X029738Y024803D01*
X029685Y025328D02*
Y025118D01*
X029895Y025328D01*
X029947D01*
X03Y025275D01*
Y02517D01*
X029947Y025118D01*
X013091Y012264D02*
X012776D01*
Y012106D01*
X012828Y012054D01*
X012933D01*
X012986Y012106D01*
Y012264D01*
Y012159D02*
X013091Y012054D01*
Y011739D02*
Y011949D01*
X012881Y011739D01*
X012828D01*
X012776Y011791D01*
Y011896D01*
X012828Y011949D01*
X015049Y01124D02*
Y011555D01*
X014892D01*
X014839Y011503D01*
Y011398D01*
X014892Y011345D01*
X015049D01*
X014944D02*
X014839Y01124D01*
X014524Y011555D02*
X014734D01*
Y011398D01*
X014629Y01145D01*
X014577D01*
X014524Y011398D01*
Y011293D01*
X014577Y01124D01*
X014682D01*
X014734Y011293D01*
X015906Y011053D02*
X015591D01*
Y010896D01*
X015643Y010843D01*
X015748D01*
X015801Y010896D01*
Y011053D01*
Y010948D02*
X015906Y010843D01*
X015591Y010738D02*
Y010528D01*
X015643D01*
X015853Y010738D01*
X015906D01*
X017313Y012754D02*
Y013069D01*
X017156D01*
X017103Y013016D01*
Y012911D01*
X017156Y012859D01*
X017313D01*
X017208D02*
X017103Y012754D01*
X016998Y013016D02*
X016946Y013069D01*
X016841D01*
X016788Y013016D01*
Y012964D01*
X016841Y012911D01*
X016788Y012859D01*
Y012806D01*
X016841Y012754D01*
X016946D01*
X016998Y012806D01*
Y012859D01*
X016946Y012911D01*
X016998Y012964D01*
Y013016D01*
X016946Y012911D02*
X016841D01*
X015354Y012569D02*
Y012884D01*
X015197D01*
X015144Y012831D01*
Y012726D01*
X015197Y012674D01*
X015354D01*
X015249D02*
X015144Y012569D01*
X015039Y012621D02*
X014987Y012569D01*
X014882D01*
X01483Y012621D01*
Y012831D01*
X014882Y012884D01*
X014987D01*
X015039Y012831D01*
Y012779D01*
X014987Y012726D01*
X01483D01*
X015095Y008569D02*
X015148Y008622D01*
X015253D01*
X015305Y008569D01*
Y008517D01*
X015253Y008465D01*
X015148D01*
X015095Y008412D01*
Y00836D01*
X015148Y008307D01*
X015253D01*
X015305Y00836D01*
X01499Y008307D02*
X014885D01*
X014938D01*
Y008622D01*
X01499Y008569D01*
X022871Y014554D02*
X022923Y014606D01*
X023028D01*
X023081Y014554D01*
Y014344D01*
X023028Y014291D01*
X022923D01*
X022871Y014344D01*
X022556Y014291D02*
X022766D01*
X022556Y014501D01*
Y014554D01*
X022608Y014606D01*
X022713D01*
X022766Y014554D01*
X022241Y014606D02*
X022346Y014554D01*
X022451Y014449D01*
Y014344D01*
X022399Y014291D01*
X022294D01*
X022241Y014344D01*
Y014396D01*
X022294Y014449D01*
X022451D01*
X026745Y010092D02*
X026693Y010039D01*
X026588D01*
X026535Y010092D01*
Y010302D01*
X026588Y010354D01*
X026693D01*
X026745Y010302D01*
X02685Y010092D02*
X026903Y010039D01*
X027008D01*
X02706Y010092D01*
Y010144D01*
X027008Y010197D01*
X026955D01*
X027008D01*
X02706Y010249D01*
Y010302D01*
X027008Y010354D01*
X026903D01*
X02685Y010302D01*
X027165Y010092D02*
X027218Y010039D01*
X027323D01*
X027375Y010092D01*
Y010302D01*
X027323Y010354D01*
X027218D01*
X027165Y010302D01*
Y010092D01*
X029738Y010784D02*
X029685Y010837D01*
Y010942D01*
X029738Y010994D01*
X029948D01*
X03Y010942D01*
Y010837D01*
X029948Y010784D01*
X029738Y010679D02*
X029685Y010627D01*
Y010522D01*
X029738Y010469D01*
X02979D01*
X029843Y010522D01*
Y010574D01*
Y010522D01*
X029895Y010469D01*
X029948D01*
X03Y010522D01*
Y010627D01*
X029948Y010679D01*
X03Y010364D02*
Y010259D01*
Y010312D01*
X029685D01*
X029738Y010364D01*
X026306Y016745D02*
X026358Y016693D01*
Y016588D01*
X026306Y016535D01*
X026096D01*
X026043Y016588D01*
Y016693D01*
X026096Y016745D01*
X026306Y01685D02*
X026358Y016903D01*
Y017008D01*
X026306Y01706D01*
X026253D01*
X026201Y017008D01*
Y016955D01*
Y017008D01*
X026148Y01706D01*
X026096D01*
X026043Y017008D01*
Y016903D01*
X026096Y01685D01*
X026358Y017375D02*
Y017165D01*
X026201D01*
X026253Y01727D01*
Y017323D01*
X026201Y017375D01*
X026096D01*
X026043Y017323D01*
Y017218D01*
X026096Y017165D01*
X033963Y017733D02*
X034016Y017785D01*
X034121D01*
X034173Y017733D01*
Y017523D01*
X034121Y01747D01*
X034016D01*
X033963Y017523D01*
X033858Y017733D02*
X033806Y017785D01*
X033701D01*
X033648Y017733D01*
Y01768D01*
X033701Y017628D01*
X033753D01*
X033701D01*
X033648Y017575D01*
Y017523D01*
X033701Y01747D01*
X033806D01*
X033858Y017523D01*
X033334Y017785D02*
X033439Y017733D01*
X033544Y017628D01*
Y017523D01*
X033491Y01747D01*
X033386D01*
X033334Y017523D01*
Y017575D01*
X033386Y017628D01*
X033544D01*
X029534Y012014D02*
X029587Y012067D01*
X029692D01*
X029744Y012014D01*
Y011804D01*
X029692Y011752D01*
X029587D01*
X029534Y011804D01*
X029429Y012014D02*
X029377Y012067D01*
X029272D01*
X029219Y012014D01*
Y011962D01*
X029272Y011909D01*
X029324D01*
X029272D01*
X029219Y011857D01*
Y011804D01*
X029272Y011752D01*
X029377D01*
X029429Y011804D01*
X029114Y012067D02*
X028904D01*
Y012014D01*
X029114Y011804D01*
Y011752D01*
X029652Y013412D02*
X029705Y013464D01*
X02981D01*
X029862Y013412D01*
Y013202D01*
X02981Y01315D01*
X029705D01*
X029652Y013202D01*
X029547Y013412D02*
X029495Y013464D01*
X02939D01*
X029337Y013412D01*
Y01336D01*
X02939Y013307D01*
X029442D01*
X02939D01*
X029337Y013255D01*
Y013202D01*
X02939Y01315D01*
X029495D01*
X029547Y013202D01*
X029232Y013412D02*
X02918Y013464D01*
X029075D01*
X029023Y013412D01*
Y01336D01*
X029075Y013307D01*
X029023Y013255D01*
Y013202D01*
X029075Y01315D01*
X02918D01*
X029232Y013202D01*
Y013255D01*
X02918Y013307D01*
X029232Y01336D01*
Y013412D01*
X02918Y013307D02*
X029075D01*
X032812Y012113D02*
X032864Y012165D01*
X032969D01*
X033022Y012113D01*
Y011903D01*
X032969Y01185D01*
X032864D01*
X032812Y011903D01*
X032707Y012113D02*
X032654Y012165D01*
X032549D01*
X032497Y012113D01*
Y01206D01*
X032549Y012008D01*
X032602D01*
X032549D01*
X032497Y011955D01*
Y011903D01*
X032549Y01185D01*
X032654D01*
X032707Y011903D01*
X032392D02*
X032339Y01185D01*
X032235D01*
X032182Y011903D01*
Y012113D01*
X032235Y012165D01*
X032339D01*
X032392Y012113D01*
Y01206D01*
X032339Y012008D01*
X032182D01*
X027497Y012703D02*
X027549Y012756D01*
X027654D01*
X027707Y012703D01*
Y012493D01*
X027654Y012441D01*
X027549D01*
X027497Y012493D01*
X027234Y012441D02*
Y012756D01*
X027392Y012598D01*
X027182D01*
X02692Y012441D02*
Y012756D01*
X027077Y012598D01*
X026867D01*
X027297Y01167D02*
X027244Y011722D01*
Y011827D01*
X027297Y01188D01*
X027507D01*
X027559Y011827D01*
Y011722D01*
X027507Y01167D01*
X027559Y011408D02*
X027244D01*
X027402Y011565D01*
Y011355D01*
X027244Y01104D02*
Y01125D01*
X027402D01*
X027349Y011145D01*
Y011093D01*
X027402Y01104D01*
X027507D01*
X027559Y011093D01*
Y011198D01*
X027507Y01125D01*
X023212Y017723D02*
X02316Y017776D01*
Y017881D01*
X023212Y017933D01*
X023422D01*
X023474Y017881D01*
Y017776D01*
X023422Y017723D01*
X023474Y017461D02*
X02316D01*
X023317Y017618D01*
Y017408D01*
X02316Y017303D02*
Y017093D01*
X023212D01*
X023422Y017303D01*
X023474D01*
X022792Y015154D02*
X022845Y015207D01*
X022949D01*
X023002Y015154D01*
Y014944D01*
X022949Y014892D01*
X022845D01*
X022792Y014944D01*
X02253Y014892D02*
Y015207D01*
X022687Y015049D01*
X022477D01*
X022372Y015154D02*
X02232Y015207D01*
X022215D01*
X022162Y015154D01*
Y015102D01*
X022215Y015049D01*
X022162Y014997D01*
Y014944D01*
X022215Y014892D01*
X02232D01*
X022372Y014944D01*
Y014997D01*
X02232Y015049D01*
X022372Y015102D01*
Y015154D01*
X02232Y015049D02*
X022215D01*
X016445Y017273D02*
X016519D01*
X016593Y017199D01*
X016593Y017125D01*
X016445Y016976D01*
X01637D01*
X016296Y01705D01*
X016296Y017125D01*
X016074Y017273D02*
X016296Y017496D01*
X016296Y017273D01*
X016148Y017421D01*
X015999D02*
X015925D01*
X015851Y017496D01*
X015851Y01757D01*
X015999Y017718D01*
X016074D01*
X016148Y017644D01*
X016148Y01757D01*
X016111Y017533D01*
X016036Y017533D01*
X015925Y017644D01*
X017434Y021621D02*
X017382Y021673D01*
Y021778D01*
X017434Y021831D01*
X017644D01*
X017697Y021778D01*
Y021673D01*
X017644Y021621D01*
X017382Y021306D02*
Y021516D01*
X017539D01*
X017487Y021411D01*
Y021358D01*
X017539Y021306D01*
X017644D01*
X017697Y021358D01*
Y021463D01*
X017644Y021516D01*
X017697Y021201D02*
Y021096D01*
Y021149D01*
X017382D01*
X017434Y021201D01*
X023458Y01165D02*
X023406Y011703D01*
Y011808D01*
X023458Y01186D01*
X023668D01*
X02372Y011808D01*
Y011703D01*
X023668Y01165D01*
X023406Y011335D02*
Y011545D01*
X023563D01*
X023511Y01144D01*
Y011388D01*
X023563Y011335D01*
X023668D01*
X02372Y011388D01*
Y011493D01*
X023668Y011545D01*
X023458Y011231D02*
X023406Y011178D01*
Y011073D01*
X023458Y011021D01*
X023511D01*
X023563Y011073D01*
Y011126D01*
Y011073D01*
X023616Y011021D01*
X023668D01*
X02372Y011073D01*
Y011178D01*
X023668Y011231D01*
X018625Y011906D02*
X018573Y011959D01*
Y012064D01*
X018625Y012116D01*
X018835D01*
X018888Y012064D01*
Y011959D01*
X018835Y011906D01*
X018573Y011591D02*
Y011801D01*
X01873D01*
X018678Y011696D01*
Y011644D01*
X01873Y011591D01*
X018835D01*
X018888Y011644D01*
Y011749D01*
X018835Y011801D01*
X018888Y011329D02*
X018573D01*
X01873Y011486D01*
Y011277D01*
X029833Y018474D02*
Y018159D01*
X029675D01*
X029623Y018212D01*
Y018422D01*
X029675Y018474D01*
X029833D01*
X029518Y018422D02*
X029465Y018474D01*
X02936D01*
X029308Y018422D01*
Y018369D01*
X02936Y018317D01*
X029308Y018264D01*
Y018212D01*
X02936Y018159D01*
X029465D01*
X029518Y018212D01*
Y018264D01*
X029465Y018317D01*
X029518Y018369D01*
Y018422D01*
X029465Y018317D02*
X02936D01*
X031457Y018376D02*
Y018061D01*
X031299D01*
X031247Y018113D01*
Y018323D01*
X031299Y018376D01*
X031457D01*
X031142Y018113D02*
X031089Y018061D01*
X030984D01*
X030932Y018113D01*
Y018323D01*
X030984Y018376D01*
X031089D01*
X031142Y018323D01*
Y018271D01*
X031089Y018218D01*
X030932D01*
X030876Y015098D02*
Y014783D01*
X030719D01*
X030666Y014836D01*
Y015046D01*
X030719Y015098D01*
X030876D01*
X030561Y014783D02*
X030456D01*
X030509D01*
Y015098D01*
X030561Y015046D01*
X030299D02*
X030246Y015098D01*
X030141D01*
X030089Y015046D01*
Y014836D01*
X030141Y014783D01*
X030246D01*
X030299Y014836D01*
Y015046D01*
X030974Y008445D02*
Y00813D01*
X030765D01*
X03066D02*
X030555D01*
X030607D01*
Y008445D01*
X03066Y008392D01*
X034429Y008888D02*
X034114D01*
X034219Y008783D01*
X034114Y008678D01*
X034429D01*
X034167Y008573D02*
X034114Y00852D01*
Y008416D01*
X034167Y008363D01*
X034219D01*
X034272Y008416D01*
Y008468D01*
Y008416D01*
X034324Y008363D01*
X034377D01*
X034429Y008416D01*
Y00852D01*
X034377Y008573D01*
X027657Y017116D02*
Y017431D01*
X027553Y017326D01*
X027448Y017431D01*
Y017116D01*
X027185D02*
Y017431D01*
X027343Y017274D01*
X027133D01*
X032746Y008809D02*
X032431D01*
Y008652D01*
X032484Y008599D01*
X032589D01*
X032641Y008652D01*
Y008809D01*
Y008704D02*
X032746Y008599D01*
Y008494D02*
Y008389D01*
Y008442D01*
X032431D01*
X032484Y008494D01*
Y008232D02*
X032431Y008179D01*
Y008074D01*
X032484Y008022D01*
X032694D01*
X032746Y008074D01*
Y008179D01*
X032694Y008232D01*
X032484D01*
X025384Y018317D02*
Y018632D01*
X025226D01*
X025174Y018579D01*
Y018474D01*
X025226Y018422D01*
X025384D01*
X025279D02*
X025174Y018317D01*
X025069D02*
X024964D01*
X025017D01*
Y018632D01*
X025069Y018579D01*
X024807Y018317D02*
X024702D01*
X024754D01*
Y018632D01*
X024807Y018579D01*
X023563Y017933D02*
X023878D01*
Y01809D01*
X023825Y018143D01*
X02372D01*
X023668Y01809D01*
Y017933D01*
Y018038D02*
X023563Y018143D01*
Y018248D02*
Y018353D01*
Y0183D01*
X023878D01*
X023825Y018248D01*
X023563Y01872D02*
Y01851D01*
X023773Y01872D01*
X023825D01*
X023878Y018668D01*
Y018563D01*
X023825Y01851D01*
X033799Y011782D02*
X033484D01*
Y011624D01*
X033537Y011572D01*
X033642D01*
X033694Y011624D01*
Y011782D01*
Y011677D02*
X033799Y011572D01*
Y011467D02*
Y011362D01*
Y011414D01*
X033484D01*
X033537Y011467D01*
X033799Y011047D02*
X033484D01*
X033642Y011204D01*
Y010994D01*
X024734Y017165D02*
Y01748D01*
X024577D01*
X024524Y017428D01*
Y017323D01*
X024577Y01727D01*
X024734D01*
X024629D02*
X024524Y017165D01*
X024419D02*
X024314D01*
X024367D01*
Y01748D01*
X024419Y017428D01*
X023947Y01748D02*
X024052Y017428D01*
X024157Y017323D01*
Y017218D01*
X024105Y017165D01*
X024D01*
X023947Y017218D01*
Y01727D01*
X024Y017323D01*
X024157D01*
X027402Y018218D02*
Y018533D01*
X027244D01*
X027192Y018481D01*
Y018376D01*
X027244Y018323D01*
X027402D01*
X027297D02*
X027192Y018218D01*
X027087Y018481D02*
X027034Y018533D01*
X026929D01*
X026877Y018481D01*
Y018428D01*
X026929Y018376D01*
X026982D01*
X026929D01*
X026877Y018323D01*
Y018271D01*
X026929Y018218D01*
X027034D01*
X027087Y018271D01*
X026772Y018218D02*
X026667D01*
X026719D01*
Y018533D01*
X026772Y018481D01*
X03311Y017756D02*
Y018071D01*
X032953D01*
X0329Y018018D01*
Y017913D01*
X032953Y017861D01*
X03311D01*
X033005D02*
X0329Y017756D01*
X032795Y018018D02*
X032743Y018071D01*
X032638D01*
X032585Y018018D01*
Y017966D01*
X032638Y017913D01*
X03269D01*
X032638D01*
X032585Y017861D01*
Y017808D01*
X032638Y017756D01*
X032743D01*
X032795Y017808D01*
X032323Y017756D02*
Y018071D01*
X032481Y017913D01*
X032271D01*
X033415Y014272D02*
Y014587D01*
X033258D01*
X033205Y014534D01*
Y014429D01*
X033258Y014377D01*
X033415D01*
X03331D02*
X033205Y014272D01*
X033101Y014534D02*
X033048Y014587D01*
X032943D01*
X032891Y014534D01*
Y014482D01*
X032943Y014429D01*
X032996D01*
X032943D01*
X032891Y014377D01*
Y014324D01*
X032943Y014272D01*
X033048D01*
X033101Y014324D01*
X032786Y014534D02*
X032733Y014587D01*
X032628D01*
X032576Y014534D01*
Y014482D01*
X032628Y014429D01*
X032576Y014377D01*
Y014324D01*
X032628Y014272D01*
X032733D01*
X032786Y014324D01*
Y014377D01*
X032733Y014429D01*
X032786Y014482D01*
Y014534D01*
X032733Y014429D02*
X032628D01*
X033809Y013632D02*
X033494D01*
Y013474D01*
X033547Y013422D01*
X033652D01*
X033704Y013474D01*
Y013632D01*
Y013527D02*
X033809Y013422D01*
X033547Y013317D02*
X033494Y013265D01*
Y01316D01*
X033547Y013107D01*
X033599D01*
X033652Y01316D01*
Y013212D01*
Y01316D01*
X033704Y013107D01*
X033757D01*
X033809Y01316D01*
Y013265D01*
X033757Y013317D01*
Y013002D02*
X033809Y01295D01*
Y012845D01*
X033757Y012792D01*
X033547D01*
X033494Y012845D01*
Y01295D01*
X033547Y013002D01*
X033599D01*
X033652Y01295D01*
Y012792D01*
X023386Y015728D02*
Y016043D01*
X023228D01*
X023176Y015991D01*
Y015886D01*
X023228Y015833D01*
X023386D01*
X023281D02*
X023176Y015728D01*
X022914D02*
Y016043D01*
X023071Y015886D01*
X022861D01*
X022756Y016043D02*
X022546D01*
Y015991D01*
X022756Y015781D01*
Y015728D01*
X019547Y020679D02*
Y020994D01*
X01939D01*
X019337Y020942D01*
Y020837D01*
X01939Y020784D01*
X019547D01*
X019442D02*
X019337Y020679D01*
X019075D02*
Y020994D01*
X019232Y020837D01*
X019022D01*
X018918Y020942D02*
X018865Y020994D01*
X01876D01*
X018708Y020942D01*
Y020889D01*
X01876Y020837D01*
X018708Y020784D01*
Y020732D01*
X01876Y020679D01*
X018865D01*
X018918Y020732D01*
Y020784D01*
X018865Y020837D01*
X018918Y020889D01*
Y020942D01*
X018865Y020837D02*
X01876D01*
X019882Y015679D02*
X019567D01*
Y015522D01*
X01962Y015469D01*
X019724D01*
X019777Y015522D01*
Y015679D01*
Y015574D02*
X019882Y015469D01*
Y015207D02*
X019567D01*
X019724Y015364D01*
Y015154D01*
X019829Y015049D02*
X019882Y014997D01*
Y014892D01*
X019829Y01484D01*
X01962D01*
X019567Y014892D01*
Y014997D01*
X01962Y015049D01*
X019672D01*
X019724Y014997D01*
Y01484D01*
X020089Y010965D02*
Y011279D01*
X019931D01*
X019879Y011227D01*
Y011122D01*
X019931Y01107D01*
X020089D01*
X019984D02*
X019879Y010965D01*
X019564Y011279D02*
X019774D01*
Y011122D01*
X019669Y011174D01*
X019616D01*
X019564Y011122D01*
Y011017D01*
X019616Y010965D01*
X019721D01*
X019774Y011017D01*
X019249Y010965D02*
X019459D01*
X019249Y011174D01*
Y011227D01*
X019301Y011279D01*
X019406D01*
X019459Y011227D01*
X021654Y010512D02*
Y010827D01*
X021496D01*
X021444Y010774D01*
Y010669D01*
X021496Y010617D01*
X021654D01*
X021549D02*
X021444Y010512D01*
X021129Y010827D02*
X021339D01*
Y010669D01*
X021234Y010722D01*
X021181D01*
X021129Y010669D01*
Y010564D01*
X021181Y010512D01*
X021286D01*
X021339Y010564D01*
X021024Y010774D02*
X020971Y010827D01*
X020866D01*
X020814Y010774D01*
Y010722D01*
X020866Y010669D01*
X020919D01*
X020866D01*
X020814Y010617D01*
Y010564D01*
X020866Y010512D01*
X020971D01*
X021024Y010564D01*
X026112Y015718D02*
X026375D01*
X026427Y015666D01*
Y015561D01*
X026375Y015509D01*
X026112D01*
Y015194D02*
X026165Y015299D01*
X02627Y015404D01*
X026375D01*
X026427Y015351D01*
Y015246D01*
X026375Y015194D01*
X026322D01*
X02627Y015246D01*
Y015404D01*
X022234Y017913D02*
Y017651D01*
X022182Y017598D01*
X022077D01*
X022024Y017651D01*
Y017913D01*
X021919Y017598D02*
X021814D01*
X021867D01*
Y017913D01*
X021919Y017861D01*
X021657Y017598D02*
X021552D01*
X021605D01*
Y017913D01*
X021657Y017861D01*
X0225Y013031D02*
Y012769D01*
X022448Y012717D01*
X022343D01*
X02229Y012769D01*
Y013031D01*
X022185Y012717D02*
X02208D01*
X022133D01*
Y013031D01*
X022185Y012979D01*
X021713Y012717D02*
X021923D01*
X021713Y012926D01*
Y012979D01*
X021765Y013031D01*
X02187D01*
X021923Y012979D01*
X026486Y021781D02*
Y021519D01*
X026434Y021467D01*
X026329D01*
X026276Y021519D01*
Y021781D01*
X026171Y021467D02*
X026066D01*
X026119D01*
Y021781D01*
X026171Y021729D01*
X025909D02*
X025856Y021781D01*
X025752D01*
X025699Y021729D01*
Y021676D01*
X025752Y021624D01*
X025804D01*
X025752D01*
X025699Y021571D01*
Y021519D01*
X025752Y021467D01*
X025856D01*
X025909Y021519D01*
X017445Y019022D02*
X017296Y018873D01*
X01737Y018948D01*
X017593Y018725D01*
X017445Y018577D02*
X017222Y018799D01*
X017111Y018688D01*
Y018614D01*
X017185Y018539D01*
X017259Y018539D01*
X01737Y018651D01*
X016851Y018428D02*
X016962Y018465D01*
X017111D01*
X017185Y018391D01*
Y018317D01*
X017111Y018243D01*
X017037Y018243D01*
X016999Y01828D01*
X016999Y018354D01*
X017111Y018465D01*
X023445Y01562D02*
X023235D01*
X02334D01*
Y015305D01*
X02313D02*
Y01562D01*
X022973D01*
X02292Y015568D01*
Y015463D01*
X022973Y01541D01*
X02313D01*
X022815Y01562D02*
X022605D01*
Y015568D01*
X022815Y015358D01*
Y015305D01*
X0194Y012894D02*
X01919D01*
X019295D01*
Y012579D01*
X019085D02*
Y012894D01*
X018927D01*
X018875Y012841D01*
Y012736D01*
X018927Y012684D01*
X019085D01*
X01877Y012841D02*
X018717Y012894D01*
X018612D01*
X01856Y012841D01*
Y012789D01*
X018612Y012736D01*
X01856Y012684D01*
Y012631D01*
X018612Y012579D01*
X018717D01*
X01877Y012631D01*
Y012684D01*
X018717Y012736D01*
X01877Y012789D01*
Y012841D01*
X018717Y012736D02*
X018612D01*
X011975Y014858D02*
X011826Y015007D01*
X0119Y014933D01*
X011678Y01471D01*
X011529Y014858D02*
X011752Y015081D01*
X011641Y015192D01*
X011566D01*
X011492Y015118D01*
X011492Y015044D01*
X011604Y014933D01*
X011307Y015081D02*
X011232Y015155D01*
X01127Y015118D01*
X011492Y015341D01*
X011492Y015267D01*
X028065Y01512D02*
X02838D01*
Y014963D01*
X028328Y01491D01*
X028118D01*
X028065Y014963D01*
Y01512D01*
Y014595D02*
Y014805D01*
X028223D01*
X02817Y0147D01*
Y014648D01*
X028223Y014595D01*
X028328D01*
X02838Y014648D01*
Y014753D01*
X028328Y014805D01*
X028307Y015935D02*
X028622D01*
Y015778D01*
X02857Y015725D01*
X02836D01*
X028307Y015778D01*
Y015935D01*
Y01541D02*
X02836Y015515D01*
X028465Y01562D01*
X02857D01*
X028622Y015568D01*
Y015463D01*
X02857Y01541D01*
X028517D01*
X028465Y015463D01*
Y01562D01*
X011752Y0073D02*
Y007405D01*
Y007352D01*
X012014D01*
X012067Y007405D01*
Y007457D01*
X012014Y00751D01*
X011805Y007195D02*
X011752Y007143D01*
Y007038D01*
X011805Y006985D01*
X011857D01*
X01191Y007038D01*
Y00709D01*
Y007038D01*
X011962Y006985D01*
X012014D01*
X012067Y007038D01*
Y007143D01*
X012014Y007195D01*
X021749Y023986D02*
X021854D01*
X021801D01*
Y023724D01*
X021854Y023671D01*
X021906D01*
X021959Y023724D01*
X021644Y023986D02*
X021434D01*
Y023934D01*
X021644Y023724D01*
Y023671D01*
X028028Y020026D02*
X028081Y020079D01*
X028186D01*
X028238Y020026D01*
Y019816D01*
X028186Y019764D01*
X028081D01*
X028028Y019816D01*
X027713Y020079D02*
X027818Y020026D01*
X027923Y019921D01*
Y019816D01*
X027871Y019764D01*
X027766D01*
X027713Y019816D01*
Y019869D01*
X027766Y019921D01*
X027923D01*
X027608Y020026D02*
X027556Y020079D01*
X027451D01*
X027399Y020026D01*
Y019974D01*
X027451Y019921D01*
X027504D01*
X027451D01*
X027399Y019869D01*
Y019816D01*
X027451Y019764D01*
X027556D01*
X027608Y019816D01*
X022467Y021847D02*
X02252Y021899D01*
X022625D01*
X022677Y021847D01*
Y021637D01*
X022625Y021585D01*
X02252D01*
X022467Y021637D01*
X022152Y021899D02*
X022257Y021847D01*
X022362Y021742D01*
Y021637D01*
X02231Y021585D01*
X022205D01*
X022152Y021637D01*
Y02169D01*
X022205Y021742D01*
X022362D01*
X02189Y021585D02*
Y021899D01*
X022047Y021742D01*
X021838D01*
X024052Y019583D02*
X024104Y019636D01*
X024209D01*
X024262Y019583D01*
Y019373D01*
X024209Y019321D01*
X024104D01*
X024052Y019373D01*
X023737Y019636D02*
X023842Y019583D01*
X023947Y019478D01*
Y019373D01*
X023894Y019321D01*
X02379D01*
X023737Y019373D01*
Y019426D01*
X02379Y019478D01*
X023947D01*
X023422Y019636D02*
X023527Y019583D01*
X023632Y019478D01*
Y019373D01*
X02358Y019321D01*
X023475D01*
X023422Y019373D01*
Y019426D01*
X023475Y019478D01*
X023632D01*
X028301Y017969D02*
X028248Y018022D01*
Y018127D01*
X028301Y018179D01*
X028511D01*
X028563Y018127D01*
Y018022D01*
X028511Y017969D01*
X028248Y017654D02*
X028301Y017759D01*
X028406Y017864D01*
X028511D01*
X028563Y017812D01*
Y017707D01*
X028511Y017654D01*
X028458D01*
X028406Y017707D01*
Y017864D01*
X028301Y017549D02*
X028248Y017497D01*
Y017392D01*
X028301Y01734D01*
X028353D01*
X028406Y017392D01*
X028458Y01734D01*
X028511D01*
X028563Y017392D01*
Y017497D01*
X028511Y017549D01*
X028458D01*
X028406Y017497D01*
X028353Y017549D01*
X028301D01*
X028406Y017497D02*
Y017392D01*
X029262Y023199D02*
Y022884D01*
X029104D01*
X029052Y022936D01*
Y023146D01*
X029104Y023199D01*
X029262D01*
X028947Y022884D02*
X028842D01*
X028894D01*
Y023199D01*
X028947Y023146D01*
X028475Y022884D02*
X028685D01*
X028475Y023094D01*
Y023146D01*
X028527Y023199D01*
X028632D01*
X028685Y023146D01*
X027195Y024803D02*
X02688D01*
Y024646D01*
X026932Y024593D01*
X027037D01*
X02709Y024646D01*
Y024803D01*
Y024698D02*
X027195Y024593D01*
Y024488D02*
Y024383D01*
Y024436D01*
X02688D01*
X026932Y024488D01*
Y024226D02*
X02688Y024173D01*
Y024068D01*
X026932Y024016D01*
X026985D01*
X027037Y024068D01*
X02709Y024016D01*
X027142D01*
X027195Y024068D01*
Y024173D01*
X027142Y024226D01*
X02709D01*
X027037Y024173D01*
X026985Y024226D01*
X026932D01*
X027037Y024173D02*
Y024068D01*
X023238Y022953D02*
Y02269D01*
X023186Y022638D01*
X023081D01*
X023028Y02269D01*
Y022953D01*
X022923Y022638D02*
X022818D01*
X022871D01*
Y022953D01*
X022923Y0229D01*
X022661Y022953D02*
X022451D01*
Y0229D01*
X022661Y02269D01*
Y022638D01*
D173*
X014045Y0144D02*
X014537Y0144D01*
X014537Y014911D02*
X014537Y0144D01*
X014045Y014911D02*
X014537Y014911D01*
X014045Y013514D02*
X014537Y013514D01*
X014537Y014026D01*
X014045Y014026D02*
X014537Y014026D01*
X014045Y015817D02*
X014537Y015817D01*
X014537Y015305D01*
X014045Y015305D02*
X014537Y015305D01*
X014045Y016683D02*
X014537Y016683D01*
Y016171D02*
Y016683D01*
X014045Y016171D02*
X014537D01*
X010817Y021526D02*
X011309Y021526D01*
X010817Y021014D02*
Y021526D01*
Y021014D02*
X011309Y021014D01*
D174*
X015207Y021993D02*
X01531D01*
X015258D01*
Y021735D01*
X01531Y021683D01*
X015362D01*
X015413Y021735D01*
X014949Y021683D02*
Y021993D01*
X015103Y021838D01*
X014897D01*
X020886Y009257D02*
X020679D01*
X020783D01*
Y008947D01*
X020576D02*
Y009257D01*
X020421D01*
X020369Y009205D01*
Y009102D01*
X020421Y00905D01*
X020576D01*
X020266Y008947D02*
X020163D01*
X020214D01*
Y009257D01*
X020266Y009205D01*
X020008Y008947D02*
X019904D01*
X019956D01*
Y009257D01*
X020008Y009205D01*
X024478Y010583D02*
X02453Y010635D01*
X024633D01*
X024685Y010583D01*
Y010376D01*
X024633Y010325D01*
X02453D01*
X024478Y010376D01*
X024169Y010635D02*
X024272Y010583D01*
X024375Y01048D01*
Y010376D01*
X024323Y010325D01*
X02422D01*
X024169Y010376D01*
Y010428D01*
X02422Y01048D01*
X024375D01*
X024065Y010376D02*
X024014Y010325D01*
X02391D01*
X023859Y010376D01*
Y010583D01*
X02391Y010635D01*
X024014D01*
X024065Y010583D01*
Y010531D01*
X024014Y01048D01*
X023859D01*
X023534Y008113D02*
X023585Y008164D01*
X023689D01*
X02374Y008113D01*
Y007906D01*
X023689Y007854D01*
X023585D01*
X023534Y007906D01*
X02343Y008164D02*
X023224D01*
Y008113D01*
X02343Y007906D01*
Y007854D01*
X022914D02*
X02312D01*
X022914Y008061D01*
Y008113D01*
X022965Y008164D01*
X023069D01*
X02312Y008113D01*
X024823Y008789D02*
Y009099D01*
X024668D01*
X024616Y009048D01*
Y008944D01*
X024668Y008893D01*
X024823D01*
X02472D02*
X024616Y008789D01*
X024513Y009099D02*
X024306D01*
Y009048D01*
X024513Y008841D01*
Y008789D01*
X024048D02*
Y009099D01*
X024203Y008944D01*
X023996D01*
X024783Y009616D02*
Y009926D01*
X024629D01*
X024577Y009874D01*
Y009771D01*
X024629Y009719D01*
X024783D01*
X02468D02*
X024577Y009616D01*
X024474Y009926D02*
X024267D01*
Y009874D01*
X024474Y009668D01*
Y009616D01*
X023957D02*
X024164D01*
X023957Y009823D01*
Y009874D01*
X024009Y009926D01*
X024112D01*
X024164Y009874D01*
X017904Y014498D02*
Y014808D01*
X0178Y014705D01*
X017697Y014808D01*
Y014498D01*
X017594D02*
X01749D01*
X017542D01*
Y014808D01*
X017594Y014756D01*
X017129Y014498D02*
X017335D01*
X017129Y014705D01*
Y014756D01*
X01718Y014808D01*
X017284D01*
X017335Y014756D01*
X012943Y014764D02*
Y015074D01*
X012788D01*
X012736Y015022D01*
Y014919D01*
X012788Y014867D01*
X012943D01*
X01284D02*
X012736Y014764D01*
X012633Y015074D02*
X012426D01*
Y015022D01*
X012633Y014815D01*
Y014764D01*
X012323Y015022D02*
X012271Y015074D01*
X012168D01*
X012117Y015022D01*
Y014815D01*
X012168Y014764D01*
X012271D01*
X012323Y014815D01*
Y015022D01*
X012963Y014094D02*
X012653D01*
Y01394D01*
X012704Y013888D01*
X012808D01*
X012859Y01394D01*
Y014094D01*
Y013991D02*
X012963Y013888D01*
X012653Y013785D02*
Y013578D01*
X012704D01*
X012911Y013785D01*
X012963D01*
Y013475D02*
Y013371D01*
Y013423D01*
X012653D01*
X012704Y013475D01*
M02*
