G04 Layer_Color=16711935*
%FSTAX24Y24*%
%MOIN*%
G70*
G01*
G75*
%ADD104R,0.0277X0.0316*%
%ADD105R,0.0316X0.0277*%
%ADD113R,0.0395X0.0434*%
%ADD118R,0.0474X0.0749*%
%ADD119R,0.0631X0.0415*%
%ADD120R,0.0789X0.0434*%
%ADD126R,0.0434X0.0395*%
%ADD128R,0.0434X0.0789*%
%ADD132R,0.0316X0.0789*%
%ADD135C,0.0671*%
%ADD136R,0.0572X0.0454*%
%ADD139R,0.0247X0.0198*%
%ADD140R,0.0306X0.0169*%
%ADD142R,0.0277X0.0474*%
%ADD143R,0.0190X0.0631*%
%ADD145C,0.0119*%
%ADD146C,0.0580*%
%ADD147R,0.0580X0.0580*%
%ADD148C,0.0474*%
%ADD149C,0.0946*%
%ADD150R,0.0946X0.0946*%
%ADD151C,0.0730*%
%ADD152C,0.0330*%
%ADD153R,0.0867X0.1064*%
%ADD154R,0.0277X0.0986*%
%ADD155R,0.0218X0.0533*%
%ADD156R,0.1025X0.0379*%
%ADD157R,0.0379X0.0710*%
%ADD158R,0.0493X0.0316*%
%ADD159R,0.0395X0.0513*%
%ADD160R,0.0198X0.0247*%
%ADD161R,0.0169X0.0306*%
%ADD162R,0.1182X0.0946*%
%ADD163R,0.0415X0.0631*%
%ADD164R,0.0907X0.0631*%
%ADD165R,0.0631X0.0907*%
%ADD166P,0.0948X4X360.0*%
%ADD167R,0.0749X0.0474*%
%ADD168R,0.0316X0.0690*%
%ADD169R,0.0612X0.0237*%
%ADD170R,0.0867X0.0552*%
G36*
X035Y006063D02*
X01D01*
Y026063D01*
X035D01*
Y006063D01*
D02*
G37*
%LPC*%
G36*
X034213Y025669D02*
X010787D01*
X010394Y025276D01*
Y00685D01*
X010787Y006457D01*
X034213D01*
X034606Y00685D01*
Y025276D01*
X034213Y025669D01*
D02*
G37*
%LPD*%
D104*
X021358Y010059D02*
D03*
X020965D02*
D03*
X022136Y008947D02*
D03*
X02253D02*
D03*
X024744Y02064D02*
D03*
X025138D02*
D03*
X023179Y010778D02*
D03*
X023573D02*
D03*
X022657Y008415D02*
D03*
X023051D02*
D03*
X018022Y013661D02*
D03*
X017628D02*
D03*
X015157Y017323D02*
D03*
X015551D02*
D03*
X022205Y013494D02*
D03*
X022598D02*
D03*
X022205Y014016D02*
D03*
X022598D02*
D03*
X031919Y011693D02*
D03*
X031526D02*
D03*
X017638Y012421D02*
D03*
X018032D02*
D03*
X016093Y012894D02*
D03*
X016486D02*
D03*
X029222Y012313D02*
D03*
X029616D02*
D03*
X029222Y012835D02*
D03*
X029616Y012835D02*
D03*
X020994Y014872D02*
D03*
X021388D02*
D03*
X017205Y017087D02*
D03*
X016811D02*
D03*
X025157Y018032D02*
D03*
X024764D02*
D03*
X033386Y010709D02*
D03*
X03378D02*
D03*
X025315Y01748D02*
D03*
X024921D02*
D03*
X033219Y013937D02*
D03*
X032825D02*
D03*
X026102Y024724D02*
D03*
X026496D02*
D03*
X024154Y020669D02*
D03*
X02376D02*
D03*
X018465Y017805D02*
D03*
X018071D02*
D03*
X018061Y017215D02*
D03*
X017667D02*
D03*
X01815Y015344D02*
D03*
X017756D02*
D03*
X017884Y015817D02*
D03*
X01749D02*
D03*
X028848Y019774D02*
D03*
X028455D02*
D03*
D105*
X013012Y017677D02*
D03*
Y017283D02*
D03*
X012441Y017746D02*
D03*
Y017352D02*
D03*
X019715Y014045D02*
D03*
Y013652D02*
D03*
X013868Y012421D02*
D03*
Y012815D02*
D03*
X013238Y014882D02*
D03*
Y014488D02*
D03*
Y013573D02*
D03*
Y013967D02*
D03*
X024104Y012854D02*
D03*
Y012461D02*
D03*
X024626Y012825D02*
D03*
Y012431D02*
D03*
X013238Y015728D02*
D03*
Y015335D02*
D03*
X013228Y01625D02*
D03*
Y016644D02*
D03*
X016545Y010876D02*
D03*
X016545Y010482D02*
D03*
X013386Y012709D02*
D03*
Y013102D02*
D03*
X012913Y012709D02*
D03*
Y013102D02*
D03*
X015354Y011685D02*
D03*
Y011291D02*
D03*
X015827Y011291D02*
D03*
Y011685D02*
D03*
X01564Y012531D02*
D03*
Y012925D02*
D03*
X026181Y017992D02*
D03*
Y017598D02*
D03*
X022953Y016496D02*
D03*
Y01689D02*
D03*
X017539Y020709D02*
D03*
Y020315D02*
D03*
X023553Y012077D02*
D03*
Y01247D02*
D03*
X019213Y011575D02*
D03*
Y011968D02*
D03*
X033022Y008386D02*
D03*
Y00878D02*
D03*
X023661Y017687D02*
D03*
Y017293D02*
D03*
X026732Y017992D02*
D03*
Y017598D02*
D03*
X033209Y013356D02*
D03*
Y012963D02*
D03*
X028455Y01685D02*
D03*
Y016457D02*
D03*
X027234Y023248D02*
D03*
Y022854D02*
D03*
X022972Y021703D02*
D03*
Y022096D02*
D03*
X027726Y020925D02*
D03*
Y021319D02*
D03*
D113*
X019882Y010689D02*
D03*
X020394D02*
D03*
X021457Y015453D02*
D03*
X020945D02*
D03*
X023691Y008947D02*
D03*
X023179D02*
D03*
X014301Y014656D02*
D03*
Y01377D02*
D03*
Y015561D02*
D03*
X014301Y016427D02*
D03*
X010886Y014301D02*
D03*
X011398D02*
D03*
X011053Y02127D02*
D03*
X018327Y020197D02*
D03*
X018839D02*
D03*
X022992Y024715D02*
D03*
X02248D02*
D03*
D118*
X030896Y012579D02*
D03*
X032274D02*
D03*
D119*
X029291Y010974D02*
D03*
Y010285D02*
D03*
X026683Y011831D02*
D03*
Y011142D02*
D03*
D120*
X033809Y016949D02*
D03*
Y015807D02*
D03*
D126*
X019882Y012028D02*
D03*
Y011516D02*
D03*
X020157Y014941D02*
D03*
Y015453D02*
D03*
X023494Y009646D02*
D03*
Y010157D02*
D03*
X017982Y019144D02*
D03*
Y019656D02*
D03*
X023396Y014272D02*
D03*
Y014783D02*
D03*
X027618Y024665D02*
D03*
Y024154D02*
D03*
X029537Y024449D02*
D03*
Y023937D02*
D03*
D128*
X024537Y02D02*
D03*
X025679D02*
D03*
D132*
X011438Y013336D02*
D03*
X012186D02*
D03*
X011812Y012549D02*
D03*
X033781Y009013D02*
D03*
X034155Y009801D02*
D03*
X033407Y009801D02*
D03*
X027246Y015746D02*
D03*
X02762Y016533D02*
D03*
X026871D02*
D03*
X024378Y025052D02*
D03*
X024004Y024264D02*
D03*
X024753D02*
D03*
D135*
X02124Y009439D02*
D03*
X016811Y017844D02*
D03*
X012205Y01438D02*
D03*
X019872Y012785D02*
D03*
X022215Y015512D02*
D03*
D136*
X027362Y013484D02*
D03*
X027362Y014783D02*
D03*
X028425Y013484D02*
D03*
Y014783D02*
D03*
X02877Y02372D02*
D03*
X02877Y02502D02*
D03*
D139*
X019872Y018046D02*
D03*
Y01847D02*
D03*
X019203D02*
D03*
Y018046D02*
D03*
D140*
X019902Y018258D02*
D03*
X019173D02*
D03*
D142*
X020374Y025039D02*
D03*
X019941D02*
D03*
X019508D02*
D03*
X019213D02*
D03*
X018642D02*
D03*
X018209D02*
D03*
X017776D02*
D03*
X017343D02*
D03*
X018937D02*
D03*
D143*
X026555Y022248D02*
D03*
X026358D02*
D03*
X026161D02*
D03*
X025965D02*
D03*
X025768Y022248D02*
D03*
X025768Y023933D02*
D03*
X025965Y023933D02*
D03*
X026161D02*
D03*
X026358D02*
D03*
X026555Y023933D02*
D03*
X028396Y02227D02*
D03*
X028593Y02227D02*
D03*
X028789D02*
D03*
X028986D02*
D03*
X029183Y02227D02*
D03*
Y020585D02*
D03*
X028986Y020585D02*
D03*
X028789D02*
D03*
X028593D02*
D03*
X028396Y020585D02*
D03*
X023671Y023018D02*
D03*
X023868Y023018D02*
D03*
X024065D02*
D03*
X024262D02*
D03*
X024459Y023018D02*
D03*
Y021333D02*
D03*
X024262Y021333D02*
D03*
X024065D02*
D03*
X023868D02*
D03*
X023671Y021333D02*
D03*
D145*
X014035Y02378D02*
D03*
X012303D02*
D03*
D146*
X027453Y018898D02*
D03*
X026453D02*
D03*
X025453D02*
D03*
X024453D02*
D03*
X029453D02*
D03*
X028453D02*
D03*
X030453D02*
D03*
X033661D02*
D03*
X022244D02*
D03*
X022244Y007283D02*
D03*
X033661D02*
D03*
D147*
X031453Y018898D02*
D03*
D148*
X010984Y01937D02*
D03*
Y007047D02*
D03*
X012642Y007435D02*
D03*
Y006935D02*
D03*
X013142Y007435D02*
D03*
Y006935D02*
D03*
X013642Y007435D02*
D03*
Y006935D02*
D03*
X014142Y007435D02*
D03*
Y006935D02*
D03*
X014642Y007435D02*
D03*
Y006935D02*
D03*
D149*
X033169Y021693D02*
D03*
Y024409D02*
D03*
D150*
X031004Y021693D02*
D03*
Y024409D02*
D03*
D151*
X019028Y007323D02*
D03*
X020028D02*
D03*
D152*
X020512Y00626D02*
D03*
X018543D02*
D03*
X016457D02*
D03*
X01437D02*
D03*
X012283D02*
D03*
X022283D02*
D03*
X02437D02*
D03*
X026457D02*
D03*
X028543D02*
D03*
X03063D02*
D03*
X032717D02*
D03*
X010197Y00815D02*
D03*
Y010118D02*
D03*
Y012087D02*
D03*
Y014055D02*
D03*
Y016024D02*
D03*
Y017992D02*
D03*
Y019961D02*
D03*
Y021929D02*
D03*
Y023898D02*
D03*
X014134Y025866D02*
D03*
X012165D02*
D03*
X034803Y023976D02*
D03*
Y022008D02*
D03*
Y020039D02*
D03*
Y018071D02*
D03*
Y016102D02*
D03*
Y014134D02*
D03*
Y012165D02*
D03*
Y010197D02*
D03*
Y008228D02*
D03*
X010197Y025866D02*
D03*
X034803D02*
D03*
Y00626D02*
D03*
X010197D02*
D03*
X030935Y010118D02*
D03*
X01063Y013337D02*
D03*
X018209Y024675D02*
D03*
X017283Y012421D02*
D03*
X02563Y024715D02*
D03*
X033907Y020246D02*
D03*
X029537Y02502D02*
D03*
X023002Y025256D02*
D03*
X020876Y013346D02*
D03*
X023976Y017598D02*
D03*
X024567Y017648D02*
D03*
X024134Y017982D02*
D03*
X023652Y016211D02*
D03*
X014567Y016949D02*
D03*
X01497Y017008D02*
D03*
X02376Y018996D02*
D03*
X022983Y019075D02*
D03*
X023986Y006585D02*
D03*
X023691Y008573D02*
D03*
X022776Y017215D02*
D03*
X023602Y01562D02*
D03*
X025787Y017618D02*
D03*
X026024Y018327D02*
D03*
X023406Y017008D02*
D03*
X012972Y016949D02*
D03*
X010915Y009557D02*
D03*
X012953Y009262D02*
D03*
X013809Y012047D02*
D03*
X014144Y013189D02*
D03*
X014488Y012628D02*
D03*
X014793Y012224D02*
D03*
X011919Y010069D02*
D03*
X01188Y009537D02*
D03*
X012441Y00813D02*
D03*
X01185Y007805D02*
D03*
X010551Y014291D02*
D03*
X010906Y012047D02*
D03*
X015069Y008878D02*
D03*
X014311Y008701D02*
D03*
X014488Y008327D02*
D03*
X015906Y007165D02*
D03*
X012717Y016654D02*
D03*
X018691Y008051D02*
D03*
X024134Y020364D02*
D03*
X010856Y015541D02*
D03*
X010866Y015148D02*
D03*
X021634Y022402D02*
D03*
X020492Y02062D02*
D03*
X019606Y018996D02*
D03*
X019045Y019459D02*
D03*
X01997Y019065D02*
D03*
X019892Y01748D02*
D03*
X017707Y011752D02*
D03*
X016043Y013189D02*
D03*
X024577Y022047D02*
D03*
X023839Y022087D02*
D03*
X019301Y020433D02*
D03*
X023848Y019921D02*
D03*
X01936Y01874D02*
D03*
X016841Y018701D02*
D03*
X026457Y018179D02*
D03*
X021319Y017992D02*
D03*
X018248Y018435D02*
D03*
X019459Y017461D02*
D03*
X019882Y018671D02*
D03*
X016407Y018878D02*
D03*
X020571Y009567D02*
D03*
X023848Y010778D02*
D03*
X023858Y010148D02*
D03*
X022313Y008553D02*
D03*
X019734Y010197D02*
D03*
X024488Y006919D02*
D03*
X026536Y019892D02*
D03*
X0269Y019163D02*
D03*
X029685Y019744D02*
D03*
X029252Y019478D02*
D03*
X013228Y019409D02*
D03*
X013238Y018593D02*
D03*
X013268Y019016D02*
D03*
X023327Y021693D02*
D03*
X017825Y020719D02*
D03*
X018268Y02065D02*
D03*
X014951Y02122D02*
D03*
X014774Y019646D02*
D03*
Y019163D02*
D03*
X014784Y018799D02*
D03*
X014823Y018396D02*
D03*
X027244Y01939D02*
D03*
X022126Y019872D02*
D03*
X028051Y023189D02*
D03*
X022982Y019636D02*
D03*
X02126Y018642D02*
D03*
X019843Y017067D02*
D03*
X024656Y025167D02*
D03*
X024094Y024911D02*
D03*
X026043Y020925D02*
D03*
X0256Y024321D02*
D03*
X026319Y023002D02*
D03*
X025738Y022766D02*
D03*
X021999Y020778D02*
D03*
X01872Y016191D02*
D03*
X0194Y015591D02*
D03*
X018691Y012372D02*
D03*
X02562Y020955D02*
D03*
X018632Y015856D02*
D03*
X018366Y017431D02*
D03*
X016083Y016191D02*
D03*
X016329Y01501D02*
D03*
X019331Y01252D02*
D03*
X02062Y012854D02*
D03*
X028248Y019596D02*
D03*
X019449Y01312D02*
D03*
X023465Y020531D02*
D03*
X019006Y013081D02*
D03*
X018593Y013494D02*
D03*
X02122Y020157D02*
D03*
X017303Y018169D02*
D03*
X024252Y015354D02*
D03*
X02063Y014478D02*
D03*
X022018Y014852D02*
D03*
X015551Y012087D02*
D03*
X016604Y013524D02*
D03*
X021201Y017392D02*
D03*
X015945Y0169D02*
D03*
X018622Y018553D02*
D03*
X019055Y016752D02*
D03*
Y017156D02*
D03*
X018917Y021319D02*
D03*
X018248Y022657D02*
D03*
X020148Y02185D02*
D03*
X017461Y019409D02*
D03*
X017933Y020197D02*
D03*
X01937Y010689D02*
D03*
X019173Y009518D02*
D03*
X020906Y023022D02*
D03*
X017421Y02249D02*
D03*
X016752Y024783D02*
D03*
X020896Y024813D02*
D03*
X019252Y023996D02*
D03*
X018898Y024104D02*
D03*
X017283Y023681D02*
D03*
X019951Y0244D02*
D03*
X018642Y024596D02*
D03*
X017766Y024567D02*
D03*
X013209Y019813D02*
D03*
X011732Y020728D02*
D03*
X011043Y020817D02*
D03*
X014596Y020817D02*
D03*
X020896Y011063D02*
D03*
X013445Y021594D02*
D03*
X01374Y02189D02*
D03*
X01315D02*
D03*
X012146Y022018D02*
D03*
X011407Y022018D02*
D03*
X011014Y022028D02*
D03*
X012746Y02374D02*
D03*
X013159Y024764D02*
D03*
X010915Y02501D02*
D03*
X015423D02*
D03*
X015404Y022795D02*
D03*
X011437Y023435D02*
D03*
X013258Y023396D02*
D03*
X012815Y023356D02*
D03*
X012421Y020551D02*
D03*
X015157Y013189D02*
D03*
X016821Y010226D02*
D03*
X01747D02*
D03*
X01748Y008642D02*
D03*
X022579Y011171D02*
D03*
X021073Y013691D02*
D03*
X019183Y01374D02*
D03*
X013415Y012156D02*
D03*
X016142Y010866D02*
D03*
Y010413D02*
D03*
X015433Y010364D02*
D03*
X012549Y012087D02*
D03*
X010906Y012953D02*
D03*
X01251Y01252D02*
D03*
X013179Y012461D02*
D03*
X015974Y012333D02*
D03*
X017264Y015157D02*
D03*
X01748Y016457D02*
D03*
X019134Y014163D02*
D03*
X017156Y013868D02*
D03*
X016053Y014537D02*
D03*
X017106Y015522D02*
D03*
X013228Y015984D02*
D03*
X013238Y014227D02*
D03*
X029016Y014026D02*
D03*
X024409Y013858D02*
D03*
X026348Y013455D02*
D03*
X030463Y008711D02*
D03*
X029385Y008293D02*
D03*
X033031Y009154D02*
D03*
X028248Y011348D02*
D03*
X028661D02*
D03*
Y011762D02*
D03*
X027835Y013012D02*
D03*
X028248D02*
D03*
X028661Y013002D02*
D03*
Y012569D02*
D03*
Y012175D02*
D03*
X026024Y010689D02*
D03*
X025531D02*
D03*
X025039D02*
D03*
Y011181D02*
D03*
Y011673D02*
D03*
X029685Y022146D02*
D03*
X027461Y021319D02*
D03*
X027411Y020925D02*
D03*
X028396Y021299D02*
D03*
X028268Y022854D02*
D03*
X029577Y023593D02*
D03*
X02878Y023406D02*
D03*
X024754Y02378D02*
D03*
X02753Y022844D02*
D03*
X02752Y023248D02*
D03*
X027067Y022293D02*
D03*
X022185Y024862D02*
D03*
X024114Y023553D02*
D03*
X024665Y023012D02*
D03*
X022313Y022106D02*
D03*
X019951Y016309D02*
D03*
X022185Y016073D02*
D03*
Y017303D02*
D03*
X024823Y013175D02*
D03*
X026526Y012283D02*
D03*
X027539Y015718D02*
D03*
X026535Y016683D02*
D03*
X028465Y017116D02*
D03*
Y016181D02*
D03*
X029596Y017933D02*
D03*
X030295Y016644D02*
D03*
X032687Y0175D02*
D03*
X033799Y017264D02*
D03*
X03123Y015276D02*
D03*
X030079Y013002D02*
D03*
X023396Y013947D02*
D03*
X023071Y014793D02*
D03*
X030226Y007126D02*
D03*
X034104Y010709D02*
D03*
X033248Y01125D02*
D03*
X032795Y007756D02*
D03*
X034154Y010276D02*
D03*
X033868Y012549D02*
D03*
X03252Y013346D02*
D03*
X032726Y012904D02*
D03*
X033071Y012451D02*
D03*
X031713Y012864D02*
D03*
X031289Y012185D02*
D03*
X032224Y014016D02*
D03*
X031289Y007047D02*
D03*
X033504Y008386D02*
D03*
X03128Y008691D02*
D03*
X029636Y009518D02*
D03*
X028819Y010295D02*
D03*
X025157Y0075D02*
D03*
X024941Y009281D02*
D03*
X02688Y007224D02*
D03*
X025069Y016033D02*
D03*
X025906Y016614D02*
D03*
X027913Y008267D02*
D03*
X027441D02*
D03*
Y008818D02*
D03*
X027913D02*
D03*
Y009369D02*
D03*
X027441Y009369D02*
D03*
X027441Y007716D02*
D03*
X027913D02*
D03*
X032116Y010748D02*
D03*
X030935D02*
D03*
X030344D02*
D03*
X031526D02*
D03*
X032707D02*
D03*
X032116Y010118D02*
D03*
X032707Y010118D02*
D03*
X030344D02*
D03*
X031526D02*
D03*
X031506Y0075D02*
D03*
D153*
X011417Y025D02*
D03*
X014921D02*
D03*
X011417Y022795D02*
D03*
X014921D02*
D03*
D154*
X012539Y022756D02*
D03*
X012854D02*
D03*
X013169D02*
D03*
X013484D02*
D03*
X013799D02*
D03*
D155*
X022688Y009636D02*
D03*
X022432D02*
D03*
X022176D02*
D03*
Y010384D02*
D03*
X022432D02*
D03*
X022688D02*
D03*
D156*
X014035Y018035D02*
D03*
X015571D02*
D03*
X014035Y018535D02*
D03*
X015571D02*
D03*
X014035Y019035D02*
D03*
X015571D02*
D03*
X014035Y019535D02*
D03*
X015571D02*
D03*
X014035Y020035D02*
D03*
X015571D02*
D03*
D157*
X013041Y010876D02*
D03*
X012541D02*
D03*
X012041D02*
D03*
X011541D02*
D03*
X011541Y008667D02*
D03*
X012041Y008667D02*
D03*
X012541D02*
D03*
X013041Y008667D02*
D03*
D158*
X020364Y013297D02*
D03*
X020364Y013671D02*
D03*
X020364Y014045D02*
D03*
X021427D02*
D03*
Y013297D02*
D03*
D159*
X013789Y014656D02*
D03*
Y01377D02*
D03*
Y015561D02*
D03*
Y016427D02*
D03*
X011565Y02127D02*
D03*
D160*
X016796Y014537D02*
D03*
X016373D02*
D03*
Y013868D02*
D03*
X016796D02*
D03*
Y015522D02*
D03*
X016373D02*
D03*
Y016191D02*
D03*
X016796D02*
D03*
X016402Y012374D02*
D03*
X016826D02*
D03*
Y011705D02*
D03*
X016402D02*
D03*
D161*
X016585Y014567D02*
D03*
Y013839D02*
D03*
Y015492D02*
D03*
Y01622D02*
D03*
X016614Y012404D02*
D03*
X016614Y011675D02*
D03*
D162*
X017795Y009459D02*
D03*
X015906D02*
D03*
X017795Y007795D02*
D03*
X015906D02*
D03*
D163*
X027766Y010157D02*
D03*
X028455D02*
D03*
X026526Y012835D02*
D03*
X025837D02*
D03*
D164*
X029606Y015787D02*
D03*
X029606Y01752D02*
D03*
X031181Y015787D02*
D03*
Y01752D02*
D03*
D165*
X029892Y014016D02*
D03*
X031624D02*
D03*
D166*
X028985Y008889D02*
D03*
X03007Y007804D02*
D03*
D167*
X032677Y017165D02*
D03*
X032677Y015787D02*
D03*
D168*
X024132Y014488D02*
D03*
X024632D02*
D03*
X025132D02*
D03*
X025632D02*
D03*
Y016614D02*
D03*
X025132D02*
D03*
X024632D02*
D03*
X024132D02*
D03*
D169*
X020492Y017077D02*
D03*
Y016821D02*
D03*
Y016565D02*
D03*
Y016309D02*
D03*
X022185D02*
D03*
Y016565D02*
D03*
Y016821D02*
D03*
Y017077D02*
D03*
X020886Y012195D02*
D03*
Y011939D02*
D03*
Y011683D02*
D03*
Y011427D02*
D03*
X022579D02*
D03*
Y011683D02*
D03*
Y011939D02*
D03*
Y012195D02*
D03*
D170*
X020915Y024406D02*
D03*
Y022654D02*
D03*
X016801D02*
D03*
Y024406D02*
D03*
M02*
