G04 Layer_Color=32896*
%FSTAX24Y24*%
%MOIN*%
G70*
G01*
G75*
%ADD50C,0.0100*%
%ADD92C,0.0197*%
%ADD93C,0.0098*%
%ADD94C,0.0394*%
%ADD95C,0.0079*%
%ADD96C,0.0050*%
%ADD97C,0.0059*%
%ADD174C,0.0060*%
%ADD175C,0.0059*%
%ADD176C,0.0070*%
D50*
X02379Y016624D02*
G03*
X02379Y016624I-00005J0D01*
G01*
X020217Y012884D02*
G03*
X020217Y012884I-000049J0D01*
G01*
X023474Y021683D02*
Y022667D01*
X024656Y021683D02*
Y022667D01*
X028199Y020935D02*
Y021919D01*
X02938Y020935D02*
Y021919D01*
X026752Y022598D02*
Y023583D01*
X025571Y022598D02*
Y023583D01*
X021073Y024793D02*
Y025187D01*
X020679D02*
X021073D01*
X016644Y024793D02*
Y025187D01*
X017037D01*
X016644Y02315D02*
Y023937D01*
X021073Y02315D02*
Y023937D01*
X017677Y022431D02*
X020039D01*
X021142Y011122D02*
X022323D01*
X021142Y0125D02*
X022323D01*
X020748Y016004D02*
X021929D01*
X020748Y017382D02*
X021929D01*
X023898Y014921D02*
Y016181D01*
X025866Y014921D02*
Y016181D01*
X02874Y007559D02*
X029626D01*
X02874D02*
Y008445D01*
X029429Y009134D02*
X030315D01*
Y008248D02*
Y009134D01*
X030364Y014547D02*
X031152D01*
X030364Y013474D02*
X031152D01*
X03065Y01626D02*
Y017047D01*
X031722Y01626D02*
Y017047D01*
X029075Y01626D02*
X029075Y017047D01*
X030148Y01626D02*
X030148Y017047D01*
X015669Y007018D02*
X018031D01*
X015669Y008583D02*
X018031D01*
X030197Y023346D02*
X033976D01*
X030197D02*
Y025472D01*
X033976D01*
Y023346D02*
Y025472D01*
X030197Y02063D02*
X033976D01*
X030197D02*
Y022756D01*
X033976D01*
Y02063D02*
Y022756D01*
X015669Y008671D02*
X018032D01*
X015669Y010236D02*
X018032D01*
X01499Y006407D02*
Y007963D01*
X012293Y006407D02*
X01499D01*
X012293D02*
Y007963D01*
X01499D01*
X020699Y013032D02*
X021093D01*
X020699Y014301D02*
X021093D01*
X011053Y008986D02*
Y010561D01*
X013524Y008986D02*
Y010561D01*
X012835Y018248D02*
X013228Y018051D01*
X012835Y017854D02*
Y018248D01*
Y017854D02*
X013228Y018051D01*
X014016Y020413D02*
X015591D01*
X014016Y017657D02*
X015591D01*
X013593Y013081D02*
X014154D01*
X02193Y009813D02*
Y010207D01*
X022934Y009813D02*
Y010207D01*
X021693Y015699D02*
X022036Y015886D01*
X013494Y013406D02*
Y01685D01*
Y013406D02*
X015955D01*
Y01685D01*
X013494D02*
X015955D01*
X022825Y013888D02*
X023258Y013622D01*
X022036Y015886D02*
X022392D01*
X011043Y023504D02*
Y024291D01*
X015295Y023504D02*
Y024291D01*
X023455Y018081D02*
X023533Y017923D01*
D92*
X023327Y023356D02*
G03*
X023327Y023356I-000049J0D01*
G01*
X028051Y022608D02*
G03*
X028051Y022608I-000049J0D01*
G01*
X026998Y021909D02*
G03*
X026998Y021909I-000049J0D01*
G01*
X032048Y013278D02*
G03*
X032048Y013278I-000089J0D01*
G01*
X032008Y017854D02*
G03*
X032008Y017854I-000089J0D01*
G01*
X030434D02*
G03*
X030434Y017854I-000089J0D01*
G01*
X013839Y008356D02*
G03*
X013839Y008356I-000079J0D01*
G01*
X023081Y0094D02*
G03*
X023081Y0094I-000059J0D01*
G01*
D93*
X019026Y017864D02*
G03*
X019026Y017864I-000039J0D01*
G01*
X01626Y012591D02*
G03*
X01626Y012591I-000039J0D01*
G01*
X017018Y015305D02*
G03*
X017018Y015305I-000039J0D01*
G01*
Y013652D02*
G03*
X017018Y013652I-000039J0D01*
G01*
D94*
X02304Y012697D02*
G03*
X02304Y012697I-000028J0D01*
G01*
X022646Y017579D02*
G03*
X022646Y017579I-000028J0D01*
G01*
D95*
X019439Y017864D02*
X019636D01*
X019439Y018652D02*
X019636D01*
X024969Y024934D02*
X024969Y024754D01*
X024654Y024934D02*
X024969D01*
X023788D02*
X024103D01*
X023788Y024754D02*
X023788Y024934D01*
X028535Y024328D02*
X028591D01*
X028034Y023827D02*
X028535Y024328D01*
X028591D02*
X029621Y023298D01*
X028034Y023771D02*
X029064Y022741D01*
X028034Y023771D02*
X028034Y023827D01*
X028779Y015098D02*
X028819Y015059D01*
X028071Y015098D02*
X028779Y015098D01*
X028819Y015059D02*
X028819Y013602D01*
X028031Y015059D02*
X028031Y013602D01*
X028031Y015059D02*
X028071Y015098D01*
X027717Y015039D02*
X027756Y015D01*
X027008Y015039D02*
X027717Y015039D01*
X027756Y013543D02*
Y015D01*
X026969D02*
X026969Y013543D01*
X026969Y015D02*
X027008Y015039D01*
X026655Y016043D02*
X026655Y015864D01*
X02697D01*
X027521D02*
X027836D01*
X027836Y016043D01*
X03319Y009131D02*
Y009311D01*
Y009131D02*
X033505D01*
X034057D02*
X034372D01*
X034372Y009311D01*
X012403Y012667D02*
Y012846D01*
X012088Y012667D02*
X012403Y012667D01*
X011222Y012667D02*
X011537D01*
X011222Y012846D02*
X011222Y012667D01*
X017008Y011941D02*
Y012138D01*
X01622Y011941D02*
Y012138D01*
X016191Y015758D02*
Y015955D01*
X016978Y015758D02*
Y015955D01*
Y014104D02*
Y014301D01*
X016191Y014104D02*
Y014301D01*
D96*
X014675Y006289D02*
X014774Y006093D01*
X014577D02*
X014774D01*
X014577D02*
X014675Y006289D01*
D97*
X01253Y021466D02*
X012661D01*
X012726Y021401D01*
Y021138D01*
X012661Y021073D01*
X01253D01*
X012464Y021138D01*
Y021401D01*
X01253Y021466D01*
X012333Y021073D02*
Y021335D01*
X012136D01*
X01207Y02127D01*
Y021073D01*
X012726Y02208D02*
Y021752D01*
X012661Y021687D01*
X01253D01*
X012464Y021752D01*
Y02208D01*
X01207Y022015D02*
X012136Y02208D01*
X012267D01*
X012333Y022015D01*
Y021949D01*
X012267Y021884D01*
X012136D01*
X01207Y021818D01*
Y021752D01*
X012136Y021687D01*
X012267D01*
X012333Y021752D01*
X011939Y02208D02*
Y021687D01*
X011742D01*
X011677Y021752D01*
Y021818D01*
X011742Y021884D01*
X011939D01*
X011742D01*
X011677Y021949D01*
Y022015D01*
X011742Y02208D01*
X011939D01*
X01089D02*
X011152D01*
Y021884D01*
X011021Y021949D01*
X010955D01*
X01089Y021884D01*
Y021752D01*
X010955Y021687D01*
X011086D01*
X011152Y021752D01*
X010759Y021949D02*
X010627Y021687D01*
X010496Y021949D01*
X015118Y015591D02*
Y015459D01*
Y015525D01*
X014725D01*
X01479Y015591D01*
Y016565D02*
X014725Y016499D01*
Y016368D01*
X01479Y016303D01*
X015053D01*
X015118Y016368D01*
Y016499D01*
X015053Y016565D01*
X01479D01*
X015282Y016289D02*
Y016158D01*
Y016224D01*
X015676D01*
Y016289D01*
Y016158D01*
X015479Y015961D02*
Y015699D01*
X015676Y015568D02*
X015282D01*
Y015371D01*
X015348Y015305D01*
X015479D01*
X015545Y015371D01*
Y015568D01*
Y015437D02*
X015676Y015305D01*
X015414Y015109D02*
Y014977D01*
X015479Y014912D01*
X015676D01*
Y015109D01*
X01561Y015174D01*
X015545Y015109D01*
Y014912D01*
X015676Y014781D02*
X015414D01*
Y014584D01*
X015479Y014518D01*
X015676D01*
X015807Y014256D02*
Y01419D01*
X015741Y014125D01*
X015414D01*
Y014322D01*
X015479Y014387D01*
X01561D01*
X015676Y014322D01*
Y014125D01*
Y013797D02*
Y013928D01*
X01561Y013994D01*
X015479D01*
X015414Y013928D01*
Y013797D01*
X015479Y013731D01*
X015545D01*
Y013994D01*
X023199Y0231D02*
Y022838D01*
X023146Y022785D01*
X023041D01*
X022989Y022838D01*
Y0231D01*
X022884Y022785D02*
X022779D01*
X022831D01*
Y0231D01*
X022884Y023048D01*
X022622Y0231D02*
X022412D01*
Y023048D01*
X022622Y022838D01*
Y022785D01*
X027451Y02439D02*
X027136D01*
Y024232D01*
X027188Y02418D01*
X027293D01*
X027346Y024232D01*
Y02439D01*
Y024285D02*
X027451Y02418D01*
Y024075D02*
Y02397D01*
Y024022D01*
X027136D01*
X027188Y024075D01*
Y023813D02*
X027136Y02376D01*
Y023655D01*
X027188Y023603D01*
X027241D01*
X027293Y023655D01*
X027346Y023603D01*
X027398D01*
X027451Y023655D01*
Y02376D01*
X027398Y023813D01*
X027346D01*
X027293Y02376D01*
X027241Y023813D01*
X027188D01*
X027293Y02376D02*
Y023655D01*
X028697Y02291D02*
X028474Y022687D01*
X028363Y022798D01*
X028363Y022873D01*
X028512Y023021D01*
X028586D01*
X028697Y02291D01*
X028252D02*
X028178Y022984D01*
X028215Y022947D01*
X028437Y023169D01*
X028437Y023095D01*
X027918Y023244D02*
X028066Y023095D01*
Y023392D01*
X028103Y023429D01*
X028178D01*
X028252Y023355D01*
X028252Y023281D01*
X028301Y017969D02*
X028248Y018022D01*
Y018127D01*
X028301Y018179D01*
X028511D01*
X028563Y018127D01*
Y018022D01*
X028511Y017969D01*
X028248Y017654D02*
X028301Y017759D01*
X028406Y017864D01*
X028511D01*
X028563Y017812D01*
Y017707D01*
X028511Y017654D01*
X028458D01*
X028406Y017707D01*
Y017864D01*
X028301Y017549D02*
X028248Y017497D01*
Y017392D01*
X028301Y01734D01*
X028353D01*
X028406Y017392D01*
X028458Y01734D01*
X028511D01*
X028563Y017392D01*
Y017497D01*
X028511Y017549D01*
X028458D01*
X028406Y017497D01*
X028353Y017549D01*
X028301D01*
X028406Y017497D02*
Y017392D01*
X023875Y020282D02*
X023927Y020335D01*
X024032D01*
X024085Y020282D01*
Y020072D01*
X024032Y02002D01*
X023927D01*
X023875Y020072D01*
X02356Y020335D02*
X023665Y020282D01*
X02377Y020177D01*
Y020072D01*
X023717Y02002D01*
X023612D01*
X02356Y020072D01*
Y020125D01*
X023612Y020177D01*
X02377D01*
X023245Y020335D02*
X02335Y020282D01*
X023455Y020177D01*
Y020072D01*
X023402Y02002D01*
X023298D01*
X023245Y020072D01*
Y020125D01*
X023298Y020177D01*
X023455D01*
X022448Y022005D02*
X0225Y022057D01*
X022605D01*
X022657Y022005D01*
Y021795D01*
X022605Y021742D01*
X0225D01*
X022448Y021795D01*
X022133Y022057D02*
X022238Y022005D01*
X022343Y0219D01*
Y021795D01*
X02229Y021742D01*
X022185D01*
X022133Y021795D01*
Y021847D01*
X022185Y0219D01*
X022343D01*
X02187Y021742D02*
Y022057D01*
X022028Y0219D01*
X021818D01*
X027979Y019908D02*
X028032Y019961D01*
X028136D01*
X028189Y019908D01*
Y019698D01*
X028136Y019646D01*
X028032D01*
X027979Y019698D01*
X027664Y019961D02*
X027769Y019908D01*
X027874Y019803D01*
Y019698D01*
X027822Y019646D01*
X027717D01*
X027664Y019698D01*
Y019751D01*
X027717Y019803D01*
X027874D01*
X027559Y019908D02*
X027507Y019961D01*
X027402D01*
X027349Y019908D01*
Y019856D01*
X027402Y019803D01*
X027454D01*
X027402D01*
X027349Y019751D01*
Y019698D01*
X027402Y019646D01*
X027507D01*
X027559Y019698D01*
X021749Y023986D02*
X021854D01*
X021801D01*
Y023724D01*
X021854Y023671D01*
X021906D01*
X021959Y023724D01*
X021644Y023986D02*
X021434D01*
Y023934D01*
X021644Y023724D01*
Y023671D01*
X011877Y007933D02*
X011982D01*
X011929D01*
Y007671D01*
X011982Y007618D01*
X012034D01*
X012087Y007671D01*
X011772Y00788D02*
X011719Y007933D01*
X011614D01*
X011562Y00788D01*
Y007828D01*
X011614Y007776D01*
X011667D01*
X011614D01*
X011562Y007723D01*
Y007671D01*
X011614Y007618D01*
X011719D01*
X011772Y007671D01*
X028307Y015935D02*
X028622D01*
Y015778D01*
X02857Y015725D01*
X02836D01*
X028307Y015778D01*
Y015935D01*
Y01541D02*
X02836Y015515D01*
X028465Y01562D01*
X02857D01*
X028622Y015568D01*
Y015463D01*
X02857Y01541D01*
X028517D01*
X028465Y015463D01*
Y01562D01*
X028065Y015061D02*
X02838D01*
Y014904D01*
X028328Y014851D01*
X028118D01*
X028065Y014904D01*
Y015061D01*
Y014536D02*
Y014746D01*
X028223D01*
X02817Y014641D01*
Y014589D01*
X028223Y014536D01*
X028328D01*
X02838Y014589D01*
Y014694D01*
X028328Y014746D01*
X011975Y01479D02*
X011826Y014938D01*
X0119Y014864D01*
X011678Y014641D01*
X011529Y01479D02*
X011752Y015012D01*
X011641Y015124D01*
X011566D01*
X011492Y015049D01*
X011492Y014975D01*
X011604Y014864D01*
X011307Y015012D02*
X011232Y015086D01*
X01127Y015049D01*
X011492Y015272D01*
X011492Y015198D01*
X0194Y012894D02*
X01919D01*
X019295D01*
Y012579D01*
X019085D02*
Y012894D01*
X018927D01*
X018875Y012841D01*
Y012736D01*
X018927Y012684D01*
X019085D01*
X01877Y012841D02*
X018717Y012894D01*
X018612D01*
X01856Y012841D01*
Y012789D01*
X018612Y012736D01*
X01856Y012684D01*
Y012631D01*
X018612Y012579D01*
X018717D01*
X01877Y012631D01*
Y012684D01*
X018717Y012736D01*
X01877Y012789D01*
Y012841D01*
X018717Y012736D02*
X018612D01*
X023445Y01562D02*
X023235D01*
X02334D01*
Y015305D01*
X02313D02*
Y01562D01*
X022973D01*
X02292Y015568D01*
Y015463D01*
X022973Y01541D01*
X02313D01*
X022815Y01562D02*
X022605D01*
Y015568D01*
X022815Y015358D01*
Y015305D01*
X017539Y017451D02*
Y017661D01*
Y017556D01*
X017224D01*
Y017766D02*
X017539D01*
Y017923D01*
X017487Y017976D01*
X017382D01*
X017329Y017923D01*
Y017766D01*
X017539Y01829D02*
X017487Y018185D01*
X017382Y018081D01*
X017277D01*
X017224Y018133D01*
Y018238D01*
X017277Y01829D01*
X017329D01*
X017382Y018238D01*
Y018081D01*
X026516Y021781D02*
Y021519D01*
X026463Y021467D01*
X026358D01*
X026306Y021519D01*
Y021781D01*
X026201Y021467D02*
X026096D01*
X026148D01*
Y021781D01*
X026201Y021729D01*
X025939D02*
X025886Y021781D01*
X025781D01*
X025729Y021729D01*
Y021676D01*
X025781Y021624D01*
X025834D01*
X025781D01*
X025729Y021571D01*
Y021519D01*
X025781Y021467D01*
X025886D01*
X025939Y021519D01*
X0225Y013031D02*
Y012769D01*
X022448Y012717D01*
X022343D01*
X02229Y012769D01*
Y013031D01*
X022185Y012717D02*
X02208D01*
X022133D01*
Y013031D01*
X022185Y012979D01*
X021713Y012717D02*
X021923D01*
X021713Y012926D01*
Y012979D01*
X021765Y013031D01*
X02187D01*
X021923Y012979D01*
X021722Y017913D02*
Y017651D01*
X02167Y017598D01*
X021565D01*
X021513Y017651D01*
Y017913D01*
X021408Y017598D02*
X021303D01*
X021355D01*
Y017913D01*
X021408Y017861D01*
X021145Y017598D02*
X02104D01*
X021093D01*
Y017913D01*
X021145Y017861D01*
X026112Y015718D02*
X026375D01*
X026427Y015666D01*
Y015561D01*
X026375Y015509D01*
X026112D01*
Y015194D02*
X026165Y015299D01*
X02627Y015404D01*
X026375D01*
X026427Y015351D01*
Y015246D01*
X026375Y015194D01*
X026322D01*
X02627Y015246D01*
Y015404D01*
X020512Y010059D02*
Y010374D01*
X020354D01*
X020302Y010321D01*
Y010216D01*
X020354Y010164D01*
X020512D01*
X020407D02*
X020302Y010059D01*
X019987Y010374D02*
X020197D01*
Y010216D01*
X020092Y010269D01*
X02004D01*
X019987Y010216D01*
Y010112D01*
X02004Y010059D01*
X020144D01*
X020197Y010112D01*
X019882Y010321D02*
X01983Y010374D01*
X019725D01*
X019672Y010321D01*
Y010269D01*
X019725Y010216D01*
X019777D01*
X019725D01*
X019672Y010164D01*
Y010112D01*
X019725Y010059D01*
X01983D01*
X019882Y010112D01*
X019705Y011093D02*
X019482Y011315D01*
X019371Y011204D01*
Y01113D01*
X019445Y011055D01*
X019519Y011055D01*
X019631Y011167D01*
X019556Y011093D02*
Y010944D01*
X019111D02*
X019259Y011093D01*
X019371Y010981D01*
X019259Y010944D01*
X019222Y010907D01*
Y010833D01*
X019297Y010759D01*
X019371Y010759D01*
X019445Y010833D01*
Y010907D01*
X019111Y010499D02*
X019259Y010647D01*
X018963D01*
X018925Y010684D01*
Y010759D01*
X019Y010833D01*
X019074Y010833D01*
X024783Y012096D02*
X024469D01*
Y011939D01*
X024521Y011887D01*
X024626D01*
X024679Y011939D01*
Y012096D01*
Y011991D02*
X024783Y011887D01*
X024469Y011572D02*
Y011782D01*
X024626D01*
X024574Y011677D01*
Y011624D01*
X024626Y011572D01*
X024731D01*
X024783Y011624D01*
Y011729D01*
X024731Y011782D01*
X024783Y011467D02*
Y011362D01*
Y011414D01*
X024469D01*
X024521Y011467D01*
X024262Y012126D02*
X023947D01*
Y011969D01*
X023999Y011916D01*
X024104D01*
X024157Y011969D01*
Y012126D01*
Y012021D02*
X024262Y011916D01*
X023947Y011601D02*
Y011811D01*
X024104D01*
X024052Y011706D01*
Y011654D01*
X024104Y011601D01*
X024209D01*
X024262Y011654D01*
Y011759D01*
X024209Y011811D01*
X023999Y011496D02*
X023947Y011444D01*
Y011339D01*
X023999Y011286D01*
X024209D01*
X024262Y011339D01*
Y011444D01*
X024209Y011496D01*
X023999D01*
X019882Y015679D02*
X019567D01*
Y015522D01*
X01962Y015469D01*
X019724D01*
X019777Y015522D01*
Y015679D01*
Y015574D02*
X019882Y015469D01*
Y015207D02*
X019567D01*
X019724Y015364D01*
Y015154D01*
X019829Y015049D02*
X019882Y014997D01*
Y014892D01*
X019829Y01484D01*
X01962D01*
X019567Y014892D01*
Y014997D01*
X01962Y015049D01*
X019672D01*
X019724Y014997D01*
Y01484D01*
X018967Y020571D02*
Y020886D01*
X018809D01*
X018757Y020833D01*
Y020728D01*
X018809Y020676D01*
X018967D01*
X018862D02*
X018757Y020571D01*
X018494D02*
Y020886D01*
X018652Y020728D01*
X018442D01*
X018337Y020833D02*
X018284Y020886D01*
X018179D01*
X018127Y020833D01*
Y020781D01*
X018179Y020728D01*
X018127Y020676D01*
Y020623D01*
X018179Y020571D01*
X018284D01*
X018337Y020623D01*
Y020676D01*
X018284Y020728D01*
X018337Y020781D01*
Y020833D01*
X018284Y020728D02*
X018179D01*
X023386Y015728D02*
Y016043D01*
X023228D01*
X023176Y015991D01*
Y015886D01*
X023228Y015833D01*
X023386D01*
X023281D02*
X023176Y015728D01*
X022914D02*
Y016043D01*
X023071Y015886D01*
X022861D01*
X022756Y016043D02*
X022546D01*
Y015991D01*
X022756Y015781D01*
Y015728D01*
X033809Y013583D02*
X033494D01*
Y013425D01*
X033547Y013373D01*
X033652D01*
X033704Y013425D01*
Y013583D01*
Y013478D02*
X033809Y013373D01*
X033547Y013268D02*
X033494Y013215D01*
Y01311D01*
X033547Y013058D01*
X033599D01*
X033652Y01311D01*
Y013163D01*
Y01311D01*
X033704Y013058D01*
X033757D01*
X033809Y01311D01*
Y013215D01*
X033757Y013268D01*
Y012953D02*
X033809Y0129D01*
Y012796D01*
X033757Y012743D01*
X033547D01*
X033494Y012796D01*
Y0129D01*
X033547Y012953D01*
X033599D01*
X033652Y0129D01*
Y012743D01*
X033415Y014213D02*
Y014527D01*
X033258D01*
X033205Y014475D01*
Y01437D01*
X033258Y014318D01*
X033415D01*
X03331D02*
X033205Y014213D01*
X033101Y014475D02*
X033048Y014527D01*
X032943D01*
X032891Y014475D01*
Y014423D01*
X032943Y01437D01*
X032996D01*
X032943D01*
X032891Y014318D01*
Y014265D01*
X032943Y014213D01*
X033048D01*
X033101Y014265D01*
X032786Y014475D02*
X032733Y014527D01*
X032628D01*
X032576Y014475D01*
Y014423D01*
X032628Y01437D01*
X032576Y014318D01*
Y014265D01*
X032628Y014213D01*
X032733D01*
X032786Y014265D01*
Y014318D01*
X032733Y01437D01*
X032786Y014423D01*
Y014475D01*
X032733Y01437D02*
X032628D01*
X032146Y011102D02*
Y011417D01*
X031988D01*
X031936Y011365D01*
Y01126D01*
X031988Y011207D01*
X032146D01*
X032041D02*
X031936Y011102D01*
X031831Y011365D02*
X031778Y011417D01*
X031673D01*
X031621Y011365D01*
Y011312D01*
X031673Y01126D01*
X031726D01*
X031673D01*
X031621Y011207D01*
Y011155D01*
X031673Y011102D01*
X031778D01*
X031831Y011155D01*
X031306Y011417D02*
X031411Y011365D01*
X031516Y01126D01*
Y011155D01*
X031463Y011102D01*
X031359D01*
X031306Y011155D01*
Y011207D01*
X031359Y01126D01*
X031516D01*
X032215Y01751D02*
X0319D01*
Y017352D01*
X031952Y0173D01*
X032057D01*
X03211Y017352D01*
Y01751D01*
Y017405D02*
X032215Y0173D01*
X031952Y017195D02*
X0319Y017143D01*
Y017038D01*
X031952Y016985D01*
X032005D01*
X032057Y017038D01*
Y01709D01*
Y017038D01*
X03211Y016985D01*
X032162D01*
X032215Y017038D01*
Y017143D01*
X032162Y017195D01*
X032215Y016723D02*
X0319D01*
X032057Y01688D01*
Y01667D01*
X027402Y018218D02*
Y018533D01*
X027244D01*
X027192Y018481D01*
Y018376D01*
X027244Y018323D01*
X027402D01*
X027297D02*
X027192Y018218D01*
X027087Y018481D02*
X027034Y018533D01*
X026929D01*
X026877Y018481D01*
Y018428D01*
X026929Y018376D01*
X026982D01*
X026929D01*
X026877Y018323D01*
Y018271D01*
X026929Y018218D01*
X027034D01*
X027087Y018271D01*
X026772Y018218D02*
X026667D01*
X026719D01*
Y018533D01*
X026772Y018481D01*
X024705Y017283D02*
Y017598D01*
X024547D01*
X024495Y017546D01*
Y017441D01*
X024547Y017388D01*
X024705D01*
X0246D02*
X024495Y017283D01*
X02439D02*
X024285D01*
X024337D01*
Y017598D01*
X02439Y017546D01*
X023918Y017598D02*
X024023Y017546D01*
X024127Y017441D01*
Y017336D01*
X024075Y017283D01*
X02397D01*
X023918Y017336D01*
Y017388D01*
X02397Y017441D01*
X024127D01*
X033967Y010974D02*
Y011289D01*
X033809D01*
X033757Y011237D01*
Y011132D01*
X033809Y011079D01*
X033967D01*
X033862D02*
X033757Y010974D01*
X033652D02*
X033547D01*
X033599D01*
Y011289D01*
X033652Y011237D01*
X033232Y010974D02*
Y011289D01*
X033389Y011132D01*
X033179D01*
X023524Y018238D02*
Y018553D01*
X023366D01*
X023314Y018501D01*
Y018396D01*
X023366Y018343D01*
X023524D01*
X023419D02*
X023314Y018238D01*
X023209D02*
X023104D01*
X023156D01*
Y018553D01*
X023209Y018501D01*
X022736Y018238D02*
X022946D01*
X022736Y018448D01*
Y018501D01*
X022789Y018553D01*
X022894D01*
X022946Y018501D01*
X024478Y017913D02*
Y018228D01*
X024321D01*
X024268Y018176D01*
Y018071D01*
X024321Y018018D01*
X024478D01*
X024373D02*
X024268Y017913D01*
X024163D02*
X024059D01*
X024111D01*
Y018228D01*
X024163Y018176D01*
X023901Y017913D02*
X023796D01*
X023849D01*
Y018228D01*
X023901Y018176D01*
X032746Y008809D02*
X032431D01*
Y008652D01*
X032484Y008599D01*
X032589D01*
X032641Y008652D01*
Y008809D01*
Y008704D02*
X032746Y008599D01*
Y008494D02*
Y008389D01*
Y008442D01*
X032431D01*
X032484Y008494D01*
Y008232D02*
X032431Y008179D01*
Y008074D01*
X032484Y008022D01*
X032694D01*
X032746Y008074D01*
Y008179D01*
X032694Y008232D01*
X032484D01*
X027657Y017116D02*
Y017431D01*
X027553Y017326D01*
X027448Y017431D01*
Y017116D01*
X027185D02*
Y017431D01*
X027343Y017274D01*
X027133D01*
X034429Y008888D02*
X034114D01*
X034219Y008783D01*
X034114Y008678D01*
X034429D01*
X034167Y008573D02*
X034114Y00852D01*
Y008416D01*
X034167Y008363D01*
X034219D01*
X034272Y008416D01*
Y008468D01*
Y008416D01*
X034324Y008363D01*
X034377D01*
X034429Y008416D01*
Y00852D01*
X034377Y008573D01*
X030974Y008445D02*
Y00813D01*
X030765D01*
X03066D02*
X030555D01*
X030607D01*
Y008445D01*
X03066Y008392D01*
X030876Y015098D02*
Y014783D01*
X030719D01*
X030666Y014836D01*
Y015046D01*
X030719Y015098D01*
X030876D01*
X030561Y014783D02*
X030456D01*
X030509D01*
Y015098D01*
X030561Y015046D01*
X030299D02*
X030246Y015098D01*
X030141D01*
X030089Y015046D01*
Y014836D01*
X030141Y014783D01*
X030246D01*
X030299Y014836D01*
Y015046D01*
X031457Y018376D02*
Y018061D01*
X031299D01*
X031247Y018113D01*
Y018323D01*
X031299Y018376D01*
X031457D01*
X031142Y018113D02*
X031089Y018061D01*
X030984D01*
X030932Y018113D01*
Y018323D01*
X030984Y018376D01*
X031089D01*
X031142Y018323D01*
Y018271D01*
X031089Y018218D01*
X030932D01*
X029833Y018474D02*
Y018159D01*
X029675D01*
X029623Y018212D01*
Y018422D01*
X029675Y018474D01*
X029833D01*
X029518Y018422D02*
X029465Y018474D01*
X02936D01*
X029308Y018422D01*
Y018369D01*
X02936Y018317D01*
X029308Y018264D01*
Y018212D01*
X02936Y018159D01*
X029465D01*
X029518Y018212D01*
Y018264D01*
X029465Y018317D01*
X029518Y018369D01*
Y018422D01*
X029465Y018317D02*
X02936D01*
X02669Y020075D02*
X026742Y020128D01*
X026847D01*
X0269Y020075D01*
Y019865D01*
X026847Y019813D01*
X026742D01*
X02669Y019865D01*
X026375Y020128D02*
X026585D01*
Y01997D01*
X02648Y020023D01*
X026427D01*
X026375Y01997D01*
Y019865D01*
X026427Y019813D01*
X026532D01*
X026585Y019865D01*
X02606Y020128D02*
X026165Y020075D01*
X02627Y01997D01*
Y019865D01*
X026217Y019813D01*
X026112D01*
X02606Y019865D01*
Y019918D01*
X026112Y01997D01*
X02627D01*
X025469Y021217D02*
X025522Y02127D01*
X025627D01*
X025679Y021217D01*
Y021007D01*
X025627Y020955D01*
X025522D01*
X025469Y021007D01*
X025154Y02127D02*
X025364D01*
Y021112D01*
X025259Y021165D01*
X025207D01*
X025154Y021112D01*
Y021007D01*
X025207Y020955D01*
X025312D01*
X025364Y021007D01*
X02484Y02127D02*
X025049D01*
Y021112D01*
X024944Y021165D01*
X024892D01*
X02484Y021112D01*
Y021007D01*
X024892Y020955D01*
X024997D01*
X025049Y021007D01*
X018625Y011955D02*
X018573Y012008D01*
Y012113D01*
X018625Y012165D01*
X018835D01*
X018888Y012113D01*
Y012008D01*
X018835Y011955D01*
X018573Y011641D02*
Y011851D01*
X01873D01*
X018678Y011746D01*
Y011693D01*
X01873Y011641D01*
X018835D01*
X018888Y011693D01*
Y011798D01*
X018835Y011851D01*
X018888Y011378D02*
X018573D01*
X01873Y011536D01*
Y011326D01*
X023055Y012192D02*
X023002Y012244D01*
Y012349D01*
X023055Y012402D01*
X023264D01*
X023317Y012349D01*
Y012244D01*
X023264Y012192D01*
X023002Y011877D02*
Y012087D01*
X023159D01*
X023107Y011982D01*
Y011929D01*
X023159Y011877D01*
X023264D01*
X023317Y011929D01*
Y012034D01*
X023264Y012087D01*
X023055Y011772D02*
X023002Y011719D01*
Y011614D01*
X023055Y011562D01*
X023107D01*
X023159Y011614D01*
Y011667D01*
Y011614D01*
X023212Y011562D01*
X023264D01*
X023317Y011614D01*
Y011719D01*
X023264Y011772D01*
X017425Y021493D02*
X017372Y021545D01*
Y02165D01*
X017425Y021703D01*
X017635D01*
X017687Y02165D01*
Y021545D01*
X017635Y021493D01*
X017372Y021178D02*
Y021388D01*
X01753D01*
X017477Y021283D01*
Y02123D01*
X01753Y021178D01*
X017635D01*
X017687Y02123D01*
Y021335D01*
X017635Y021388D01*
X017687Y021073D02*
Y020968D01*
Y021021D01*
X017372D01*
X017425Y021073D01*
X016445Y017273D02*
X016519D01*
X016593Y017199D01*
X016593Y017125D01*
X016445Y016976D01*
X01637D01*
X016296Y01705D01*
X016296Y017125D01*
X016074Y017273D02*
X016296Y017496D01*
X016296Y017273D01*
X016148Y017421D01*
X015999D02*
X015925D01*
X015851Y017496D01*
X015851Y01757D01*
X015999Y017718D01*
X016074D01*
X016148Y017644D01*
X016148Y01757D01*
X016111Y017533D01*
X016036Y017533D01*
X015925Y017644D01*
X022408Y015036D02*
X022461Y015088D01*
X022566D01*
X022618Y015036D01*
Y014826D01*
X022566Y014774D01*
X022461D01*
X022408Y014826D01*
X022146Y014774D02*
Y015088D01*
X022303Y014931D01*
X022093D01*
X021988Y015036D02*
X021936Y015088D01*
X021831D01*
X021778Y015036D01*
Y014984D01*
X021831Y014931D01*
X021778Y014879D01*
Y014826D01*
X021831Y014774D01*
X021936D01*
X021988Y014826D01*
Y014879D01*
X021936Y014931D01*
X021988Y014984D01*
Y015036D01*
X021936Y014931D02*
X021831D01*
X022986Y017772D02*
X022933Y017825D01*
Y01793D01*
X022986Y017982D01*
X023196D01*
X023248Y01793D01*
Y017825D01*
X023196Y017772D01*
X023248Y01751D02*
X022933D01*
X023091Y017667D01*
Y017458D01*
X022933Y017353D02*
Y017143D01*
X022986D01*
X023196Y017353D01*
X023248D01*
X027228Y0117D02*
X027175Y011752D01*
Y011857D01*
X027228Y011909D01*
X027438D01*
X02749Y011857D01*
Y011752D01*
X027438Y0117D01*
X02749Y011437D02*
X027175D01*
X027333Y011595D01*
Y011385D01*
X027175Y01107D02*
Y01128D01*
X027333D01*
X02728Y011175D01*
Y011122D01*
X027333Y01107D01*
X027438D01*
X02749Y011122D01*
Y011227D01*
X027438Y01128D01*
X02646Y013672D02*
X026513Y013725D01*
X026618D01*
X02667Y013672D01*
Y013462D01*
X026618Y01341D01*
X026513D01*
X02646Y013462D01*
X026198Y01341D02*
Y013725D01*
X026355Y013567D01*
X026145D01*
X025883Y01341D02*
Y013725D01*
X02604Y013567D01*
X02583D01*
X033274Y012546D02*
X033327Y012598D01*
X033432D01*
X033484Y012546D01*
Y012336D01*
X033432Y012283D01*
X033327D01*
X033274Y012336D01*
X033169Y012546D02*
X033117Y012598D01*
X033012D01*
X032959Y012546D01*
Y012493D01*
X033012Y012441D01*
X033064D01*
X033012D01*
X032959Y012388D01*
Y012336D01*
X033012Y012283D01*
X033117D01*
X033169Y012336D01*
X032855D02*
X032802Y012283D01*
X032697D01*
X032645Y012336D01*
Y012546D01*
X032697Y012598D01*
X032802D01*
X032855Y012546D01*
Y012493D01*
X032802Y012441D01*
X032645D01*
X029613Y013382D02*
X029665Y013435D01*
X02977D01*
X029823Y013382D01*
Y013173D01*
X02977Y01312D01*
X029665D01*
X029613Y013173D01*
X029508Y013382D02*
X029455Y013435D01*
X029351D01*
X029298Y013382D01*
Y01333D01*
X029351Y013278D01*
X029403D01*
X029351D01*
X029298Y013225D01*
Y013173D01*
X029351Y01312D01*
X029455D01*
X029508Y013173D01*
X029193Y013382D02*
X029141Y013435D01*
X029036D01*
X028983Y013382D01*
Y01333D01*
X029036Y013278D01*
X028983Y013225D01*
Y013173D01*
X029036Y01312D01*
X029141D01*
X029193Y013173D01*
Y013225D01*
X029141Y013278D01*
X029193Y01333D01*
Y013382D01*
X029141Y013278D02*
X029036D01*
X029534Y012014D02*
X029587Y012067D01*
X029692D01*
X029744Y012014D01*
Y011804D01*
X029692Y011752D01*
X029587D01*
X029534Y011804D01*
X029429Y012014D02*
X029377Y012067D01*
X029272D01*
X029219Y012014D01*
Y011962D01*
X029272Y011909D01*
X029324D01*
X029272D01*
X029219Y011857D01*
Y011804D01*
X029272Y011752D01*
X029377D01*
X029429Y011804D01*
X029114Y012067D02*
X028904D01*
Y012014D01*
X029114Y011804D01*
Y011752D01*
X033983Y017664D02*
X034035Y017716D01*
X03414D01*
X034193Y017664D01*
Y017454D01*
X03414Y017402D01*
X034035D01*
X033983Y017454D01*
X033878Y017664D02*
X033826Y017716D01*
X033721D01*
X033668Y017664D01*
Y017611D01*
X033721Y017559D01*
X033773D01*
X033721D01*
X033668Y017507D01*
Y017454D01*
X033721Y017402D01*
X033826D01*
X033878Y017454D01*
X033353Y017716D02*
X033458Y017664D01*
X033563Y017559D01*
Y017454D01*
X033511Y017402D01*
X033406D01*
X033353Y017454D01*
Y017507D01*
X033406Y017559D01*
X033563D01*
X026306Y016745D02*
X026358Y016693D01*
Y016588D01*
X026306Y016535D01*
X026096D01*
X026043Y016588D01*
Y016693D01*
X026096Y016745D01*
X026306Y01685D02*
X026358Y016903D01*
Y017008D01*
X026306Y01706D01*
X026253D01*
X026201Y017008D01*
Y016955D01*
Y017008D01*
X026148Y01706D01*
X026096D01*
X026043Y017008D01*
Y016903D01*
X026096Y01685D01*
X026358Y017375D02*
Y017165D01*
X026201D01*
X026253Y01727D01*
Y017323D01*
X026201Y017375D01*
X026096D01*
X026043Y017323D01*
Y017218D01*
X026096Y017165D01*
X029738Y010784D02*
X029685Y010837D01*
Y010942D01*
X029738Y010994D01*
X029948D01*
X03Y010942D01*
Y010837D01*
X029948Y010784D01*
X029738Y010679D02*
X029685Y010627D01*
Y010522D01*
X029738Y010469D01*
X02979D01*
X029843Y010522D01*
Y010574D01*
Y010522D01*
X029895Y010469D01*
X029948D01*
X03Y010522D01*
Y010627D01*
X029948Y010679D01*
X03Y010364D02*
Y010259D01*
Y010312D01*
X029685D01*
X029738Y010364D01*
X026745Y010092D02*
X026693Y010039D01*
X026588D01*
X026535Y010092D01*
Y010302D01*
X026588Y010354D01*
X026693D01*
X026745Y010302D01*
X02685Y010092D02*
X026903Y010039D01*
X027008D01*
X02706Y010092D01*
Y010144D01*
X027008Y010197D01*
X026955D01*
X027008D01*
X02706Y010249D01*
Y010302D01*
X027008Y010354D01*
X026903D01*
X02685Y010302D01*
X027165Y010092D02*
X027218Y010039D01*
X027323D01*
X027375Y010092D01*
Y010302D01*
X027323Y010354D01*
X027218D01*
X027165Y010302D01*
Y010092D01*
X022822Y014583D02*
X022874Y014636D01*
X022979D01*
X023031Y014583D01*
Y014373D01*
X022979Y014321D01*
X022874D01*
X022822Y014373D01*
X022507Y014321D02*
X022717D01*
X022507Y014531D01*
Y014583D01*
X022559Y014636D01*
X022664D01*
X022717Y014583D01*
X022192Y014636D02*
X022297Y014583D01*
X022402Y014478D01*
Y014373D01*
X022349Y014321D01*
X022244D01*
X022192Y014373D01*
Y014426D01*
X022244Y014478D01*
X022402D01*
X014938Y008432D02*
X01499Y008484D01*
X015095D01*
X015148Y008432D01*
Y008379D01*
X015095Y008327D01*
X01499D01*
X014938Y008274D01*
Y008222D01*
X01499Y008169D01*
X015095D01*
X015148Y008222D01*
X014833Y008169D02*
X014728D01*
X01478D01*
Y008484D01*
X014833Y008432D01*
X015374Y012963D02*
X015059D01*
Y012805D01*
X015112Y012753D01*
X015217D01*
X015269Y012805D01*
Y012963D01*
Y012858D02*
X015374Y012753D01*
X015322Y012648D02*
X015374Y012595D01*
Y01249D01*
X015322Y012438D01*
X015112D01*
X015059Y01249D01*
Y012595D01*
X015112Y012648D01*
X015164D01*
X015217Y012595D01*
Y012438D01*
X016673Y01315D02*
Y013464D01*
X016516D01*
X016463Y013412D01*
Y013307D01*
X016516Y013255D01*
X016673D01*
X016568D02*
X016463Y01315D01*
X016358Y013412D02*
X016306Y013464D01*
X016201D01*
X016148Y013412D01*
Y01336D01*
X016201Y013307D01*
X016148Y013255D01*
Y013202D01*
X016201Y01315D01*
X016306D01*
X016358Y013202D01*
Y013255D01*
X016306Y013307D01*
X016358Y01336D01*
Y013412D01*
X016306Y013307D02*
X016201D01*
X015906Y011053D02*
X015591D01*
Y010896D01*
X015643Y010843D01*
X015748D01*
X015801Y010896D01*
Y011053D01*
Y010948D02*
X015906Y010843D01*
X015591Y010738D02*
Y010528D01*
X015643D01*
X015853Y010738D01*
X015906D01*
X01503Y011703D02*
X014715D01*
Y011545D01*
X014767Y011493D01*
X014872D01*
X014925Y011545D01*
Y011703D01*
Y011598D02*
X01503Y011493D01*
X014715Y011178D02*
Y011388D01*
X014872D01*
X01482Y011283D01*
Y01123D01*
X014872Y011178D01*
X014977D01*
X01503Y01123D01*
Y011335D01*
X014977Y011388D01*
X013032Y012362D02*
X012717D01*
Y012205D01*
X012769Y012152D01*
X012874D01*
X012927Y012205D01*
Y012362D01*
Y012257D02*
X013032Y012152D01*
Y011837D02*
Y012047D01*
X012822Y011837D01*
X012769D01*
X012717Y01189D01*
Y011995D01*
X012769Y012047D01*
X029685Y025066D02*
Y025171D01*
Y025118D01*
X029948D01*
X03Y025171D01*
Y025223D01*
X029948Y025276D01*
X03Y024751D02*
Y024961D01*
X02979Y024751D01*
X029738D01*
X029685Y024803D01*
Y024908D01*
X029738Y024961D01*
X032408Y020413D02*
X032513D01*
X032461D01*
Y020151D01*
X032513Y020098D01*
X032566D01*
X032618Y020151D01*
X032303Y020098D02*
X032198D01*
X032251D01*
Y020413D01*
X032303Y020361D01*
X011526Y020827D02*
Y020512D01*
X011368D01*
X011316Y020564D01*
Y020774D01*
X011368Y020827D01*
X011526D01*
X011211Y020512D02*
X011106D01*
X011158D01*
Y020827D01*
X011211Y020774D01*
X018117Y01294D02*
X018169Y012992D01*
X018274D01*
X018327Y01294D01*
Y01273D01*
X018274Y012677D01*
X018169D01*
X018117Y01273D01*
X018012Y012677D02*
X017907D01*
X017959D01*
Y012992D01*
X018012Y01294D01*
X01775Y01273D02*
X017697Y012677D01*
X017592D01*
X01754Y01273D01*
Y01294D01*
X017592Y012992D01*
X017697D01*
X01775Y01294D01*
Y012887D01*
X017697Y012835D01*
X01754D01*
X010961Y014888D02*
X011014Y014941D01*
X011119D01*
X011171Y014888D01*
Y014678D01*
X011119Y014626D01*
X011014D01*
X010961Y014678D01*
X010856D02*
X010804Y014626D01*
X010699D01*
X010646Y014678D01*
Y014888D01*
X010699Y014941D01*
X010804D01*
X010856Y014888D01*
Y014836D01*
X010804Y014783D01*
X010646D01*
X014603Y013205D02*
X014656Y013258D01*
X014761D01*
X014813Y013205D01*
Y012995D01*
X014761Y012943D01*
X014656D01*
X014603Y012995D01*
X014498Y013205D02*
X014446Y013258D01*
X014341D01*
X014288Y013205D01*
Y013153D01*
X014341Y0131D01*
X014288Y013048D01*
Y012995D01*
X014341Y012943D01*
X014446D01*
X014498Y012995D01*
Y013048D01*
X014446Y0131D01*
X014498Y013153D01*
Y013205D01*
X014446Y0131D02*
X014341D01*
X014642Y017418D02*
X014695Y01747D01*
X0148D01*
X014852Y017418D01*
Y017208D01*
X0148Y017156D01*
X014695D01*
X014642Y017208D01*
X014328Y017156D02*
X014538D01*
X014328Y017365D01*
Y017418D01*
X01438Y01747D01*
X014485D01*
X014538Y017418D01*
X014013Y017156D02*
X014223D01*
X014013Y017365D01*
Y017418D01*
X014065Y01747D01*
X01417D01*
X014223Y017418D01*
X011437Y012461D02*
Y012198D01*
X011385Y012146D01*
X01128D01*
X011227Y012198D01*
Y012461D01*
X011122Y012408D02*
X01107Y012461D01*
X010965D01*
X010912Y012408D01*
Y012356D01*
X010965Y012303D01*
X011017D01*
X010965D01*
X010912Y012251D01*
Y012198D01*
X010965Y012146D01*
X01107D01*
X011122Y012198D01*
X014072Y012064D02*
X014124Y012116D01*
X014229D01*
X014282Y012064D01*
Y011854D01*
X014229Y011801D01*
X014124D01*
X014072Y011854D01*
X013757Y011801D02*
X013967D01*
X013757Y012011D01*
Y012064D01*
X013809Y012116D01*
X013914D01*
X013967Y012064D01*
X013494Y011801D02*
Y012116D01*
X013652Y011959D01*
X013442D01*
X017589Y0119D02*
Y012214D01*
X017484Y01211D01*
X017379Y012214D01*
Y0119D01*
X017274D02*
X017169D01*
X017221D01*
Y012214D01*
X017274Y012162D01*
X017428Y010774D02*
X01748Y010827D01*
X017585D01*
X017638Y010774D01*
Y010564D01*
X017585Y010512D01*
X01748D01*
X017428Y010564D01*
X017323Y010512D02*
X017218D01*
X01727D01*
Y010827D01*
X017323Y010774D01*
X016851Y010512D02*
X017061D01*
X016851Y010722D01*
Y010774D01*
X016903Y010827D01*
X017008D01*
X017061Y010774D01*
X01688Y016496D02*
Y016811D01*
X016775Y016706D01*
X01667Y016811D01*
Y016496D01*
X016355D02*
X016565D01*
X016355Y016706D01*
Y016758D01*
X016408Y016811D01*
X016513D01*
X016565Y016758D01*
X012913Y016093D02*
Y016407D01*
X012756D01*
X012703Y016355D01*
Y01625D01*
X012756Y016197D01*
X012913D01*
X012808D02*
X012703Y016093D01*
X012389D02*
X012599D01*
X012389Y016302D01*
Y016355D01*
X012441Y016407D01*
X012546D01*
X012599Y016355D01*
X012284Y016407D02*
X012074D01*
Y016355D01*
X012284Y016145D01*
Y016093D01*
X012894Y015423D02*
Y015738D01*
X012736D01*
X012684Y015686D01*
Y015581D01*
X012736Y015528D01*
X012894D01*
X012789D02*
X012684Y015423D01*
X012369D02*
X012579D01*
X012369Y015633D01*
Y015686D01*
X012421Y015738D01*
X012526D01*
X012579Y015686D01*
X012264D02*
X012212Y015738D01*
X012107D01*
X012054Y015686D01*
Y015633D01*
X012107Y015581D01*
X012054Y015528D01*
Y015476D01*
X012107Y015423D01*
X012212D01*
X012264Y015476D01*
Y015528D01*
X012212Y015581D01*
X012264Y015633D01*
Y015686D01*
X012212Y015581D02*
X012107D01*
X023993Y013727D02*
X024045Y013779D01*
X02415D01*
X024203Y013727D01*
Y013517D01*
X02415Y013465D01*
X024045D01*
X023993Y013517D01*
X023678Y013779D02*
X023888D01*
Y013622D01*
X023783Y013674D01*
X02373D01*
X023678Y013622D01*
Y013517D01*
X02373Y013465D01*
X023835D01*
X023888Y013517D01*
X023573Y013727D02*
X023521Y013779D01*
X023416D01*
X023363Y013727D01*
Y013674D01*
X023416Y013622D01*
X023363Y01357D01*
Y013517D01*
X023416Y013465D01*
X023521D01*
X023573Y013517D01*
Y01357D01*
X023521Y013622D01*
X023573Y013674D01*
Y013727D01*
X023521Y013622D02*
X023416D01*
X023691Y013032D02*
Y013346D01*
X023534D01*
X023481Y013294D01*
Y013189D01*
X023534Y013136D01*
X023691D01*
X023586D02*
X023481Y013032D01*
X023166Y013346D02*
X023376D01*
Y013189D01*
X023271Y013241D01*
X023219D01*
X023166Y013189D01*
Y013084D01*
X023219Y013032D01*
X023324D01*
X023376Y013084D01*
X022851Y013346D02*
X023061D01*
Y013189D01*
X022956Y013241D01*
X022904D01*
X022851Y013189D01*
Y013084D01*
X022904Y013032D01*
X023009D01*
X023061Y013084D01*
X019941Y014282D02*
Y014596D01*
X019784D01*
X019731Y014544D01*
Y014439D01*
X019784Y014386D01*
X019941D01*
X019836D02*
X019731Y014282D01*
X019416Y014596D02*
X019626D01*
Y014439D01*
X019521Y014491D01*
X019469D01*
X019416Y014439D01*
Y014334D01*
X019469Y014282D01*
X019574D01*
X019626Y014334D01*
X019311Y014596D02*
X019101D01*
Y014544D01*
X019311Y014334D01*
Y014282D01*
X021998Y014655D02*
Y014393D01*
X021946Y014341D01*
X021841D01*
X021788Y014393D01*
Y014655D01*
X021683Y014341D02*
X021578D01*
X021631D01*
Y014655D01*
X021683Y014603D01*
X021263Y014341D02*
Y014655D01*
X021421Y014498D01*
X021211D01*
X027159Y022349D02*
X027106Y022402D01*
Y022507D01*
X027159Y022559D01*
X027369D01*
X027421Y022507D01*
Y022402D01*
X027369Y022349D01*
X027106Y022034D02*
Y022244D01*
X027264D01*
X027211Y022139D01*
Y022087D01*
X027264Y022034D01*
X027369D01*
X027421Y022087D01*
Y022192D01*
X027369Y022244D01*
Y021929D02*
X027421Y021877D01*
Y021772D01*
X027369Y021719D01*
X027159D01*
X027106Y021772D01*
Y021877D01*
X027159Y021929D01*
X027211D01*
X027264Y021877D01*
Y021719D01*
X027142Y021256D02*
X027195Y021309D01*
X0273D01*
X027352Y021256D01*
Y021047D01*
X0273Y020994D01*
X027195D01*
X027142Y021047D01*
X026828Y021309D02*
X026933Y021256D01*
X027037Y021152D01*
Y021047D01*
X026985Y020994D01*
X02688D01*
X026828Y021047D01*
Y021099D01*
X02688Y021152D01*
X027037D01*
X026723Y021256D02*
X02667Y021309D01*
X026565D01*
X026513Y021256D01*
Y021047D01*
X026565Y020994D01*
X02667D01*
X026723Y021047D01*
Y021256D01*
X026404Y025262D02*
X026457Y025315D01*
X026562D01*
X026614Y025262D01*
Y025052D01*
X026562Y025D01*
X026457D01*
X026404Y025052D01*
X026089Y025315D02*
X026194Y025262D01*
X026299Y025157D01*
Y025052D01*
X026247Y025D01*
X026142D01*
X026089Y025052D01*
Y025105D01*
X026142Y025157D01*
X026299D01*
X025984Y025D02*
X025879D01*
X025932D01*
Y025315D01*
X025984Y025262D01*
X019892Y018829D02*
Y019144D01*
X019787Y019039D01*
X019682Y019144D01*
Y018829D01*
X019577Y019091D02*
X019524Y019144D01*
X019419D01*
X019367Y019091D01*
Y019039D01*
X019419Y018986D01*
X019367Y018934D01*
Y018881D01*
X019419Y018829D01*
X019524D01*
X019577Y018881D01*
Y018934D01*
X019524Y018986D01*
X019577Y019039D01*
Y019091D01*
X019524Y018986D02*
X019419D01*
X023593Y023858D02*
Y024173D01*
X023488Y024068D01*
X023383Y024173D01*
Y023858D01*
X023278Y023911D02*
X023225Y023858D01*
X02312D01*
X023068Y023911D01*
Y024121D01*
X02312Y024173D01*
X023225D01*
X023278Y024121D01*
Y024068D01*
X023225Y024016D01*
X023068D01*
X028976Y024331D02*
X029199Y024553D01*
X029088Y024665D01*
X029013D01*
X028939Y02459D01*
X028939Y024516D01*
X029051Y024405D01*
X028976Y024479D02*
X028828D01*
X028754Y024553D02*
X02868Y024628D01*
X028717Y02459D01*
X028939Y024813D01*
X028939Y024739D01*
X028754Y024924D02*
X028754Y024999D01*
X02868Y025073D01*
X028605D01*
X028568Y025036D01*
Y024962D01*
X028605Y024924D01*
X028568Y024962D01*
X028494D01*
X028457Y024924D01*
X028457Y02485D01*
X028531Y024776D01*
X028605D01*
X018642Y018091D02*
Y018405D01*
X018484D01*
X018432Y018353D01*
Y018248D01*
X018484Y018196D01*
X018642D01*
X018537D02*
X018432Y018091D01*
X018117Y018405D02*
X018222Y018353D01*
X018327Y018248D01*
Y018143D01*
X018274Y018091D01*
X018169D01*
X018117Y018143D01*
Y018196D01*
X018169Y018248D01*
X018327D01*
X018012Y018353D02*
X01796Y018405D01*
X017855D01*
X017802Y018353D01*
Y018143D01*
X017855Y018091D01*
X01796D01*
X018012Y018143D01*
Y018353D01*
X018238Y016683D02*
Y016998D01*
X018081D01*
X018028Y016945D01*
Y01684D01*
X018081Y016788D01*
X018238D01*
X018133D02*
X018028Y016683D01*
X017713Y016998D02*
X017818Y016945D01*
X017923Y01684D01*
Y016736D01*
X017871Y016683D01*
X017766D01*
X017713Y016736D01*
Y016788D01*
X017766Y01684D01*
X017923D01*
X017608Y016683D02*
X017504D01*
X017556D01*
Y016998D01*
X017608Y016945D01*
X02312Y02503D02*
Y025344D01*
X022963D01*
X02291Y025292D01*
Y025187D01*
X022963Y025134D01*
X02312D01*
X023015D02*
X02291Y02503D01*
X022595Y025344D02*
X0227Y025292D01*
X022805Y025187D01*
Y025082D01*
X022753Y02503D01*
X022648D01*
X022595Y025082D01*
Y025134D01*
X022648Y025187D01*
X022805D01*
X022333Y02503D02*
Y025344D01*
X02249Y025187D01*
X02228D01*
X018465Y014724D02*
Y015039D01*
X018307D01*
X018255Y014987D01*
Y014882D01*
X018307Y014829D01*
X018465D01*
X01836D02*
X018255Y014724D01*
X01794Y015039D02*
X018045Y014987D01*
X01815Y014882D01*
Y014777D01*
X018097Y014724D01*
X017992D01*
X01794Y014777D01*
Y014829D01*
X017992Y014882D01*
X01815D01*
X017835Y015039D02*
X017625D01*
Y014987D01*
X017835Y014777D01*
Y014724D01*
X01811Y016083D02*
Y016398D01*
X017953D01*
X0179Y016345D01*
Y01624D01*
X017953Y016188D01*
X01811D01*
X018005D02*
X0179Y016083D01*
X017585Y016398D02*
X01769Y016345D01*
X017795Y01624D01*
Y016135D01*
X017743Y016083D01*
X017638D01*
X017585Y016135D01*
Y016188D01*
X017638Y01624D01*
X017795D01*
X017481Y016135D02*
X017428Y016083D01*
X017323D01*
X017271Y016135D01*
Y016345D01*
X017323Y016398D01*
X017428D01*
X017481Y016345D01*
Y016293D01*
X017428Y01624D01*
X017271D01*
X029587Y021742D02*
X029849D01*
X029902Y02169D01*
Y021585D01*
X029849Y021532D01*
X029587D01*
X029902Y021427D02*
Y021322D01*
Y021375D01*
X029587D01*
X029639Y021427D01*
X029587Y020955D02*
Y021165D01*
X029744D01*
X029692Y02106D01*
Y021007D01*
X029744Y020955D01*
X029849D01*
X029902Y021007D01*
Y021112D01*
X029849Y021165D01*
X014928Y009603D02*
X01498Y009655D01*
X015085D01*
X015138Y009603D01*
Y00955D01*
X015085Y009498D01*
X01498D01*
X014928Y009445D01*
Y009393D01*
X01498Y009341D01*
X015085D01*
X015138Y009393D01*
X014613Y009341D02*
X014823D01*
X014613Y00955D01*
Y009603D01*
X014666Y009655D01*
X01477D01*
X014823Y009603D01*
X019173Y019311D02*
Y019626D01*
X019016D01*
X018963Y019573D01*
Y019468D01*
X019016Y019416D01*
X019173D01*
X019068D02*
X018963Y019311D01*
X018701D02*
Y019626D01*
X018858Y019468D01*
X018648D01*
X018386Y019311D02*
Y019626D01*
X018544Y019468D01*
X018334D01*
X018038Y01418D02*
X018091Y014232D01*
X018196D01*
X018248Y01418D01*
Y01397D01*
X018196Y013917D01*
X018091D01*
X018038Y01397D01*
X017933Y014232D02*
X017723D01*
Y01418D01*
X017933Y01397D01*
Y013917D01*
X017618Y01418D02*
X017566Y014232D01*
X017461D01*
X017408Y01418D01*
Y01397D01*
X017461Y013917D01*
X017566D01*
X017618Y01397D01*
Y01418D01*
X021753Y00858D02*
Y008655D01*
X021827Y008729D01*
X021901Y008729D01*
X02205Y00858D01*
Y008506D01*
X021975Y008432D01*
X021901Y008432D01*
X021641Y008543D02*
X021493Y008395D01*
X02153Y008358D01*
X021827D01*
X021864Y008321D01*
X021641Y008098D02*
X021567Y008024D01*
X021604Y008061D01*
X021382Y008284D01*
X021456Y008284D01*
X021644Y010285D02*
Y0106D01*
X021486D01*
X021434Y010548D01*
Y010443D01*
X021486Y01039D01*
X021644D01*
X021539D02*
X021434Y010285D01*
X021329Y0106D02*
X021119D01*
Y010548D01*
X021329Y010338D01*
Y010285D01*
X021014Y010548D02*
X020962Y0106D01*
X020857D01*
X020804Y010548D01*
Y010495D01*
X020857Y010443D01*
X020909D01*
X020857D01*
X020804Y01039D01*
Y010338D01*
X020857Y010285D01*
X020962D01*
X021014Y010338D01*
X021706Y009347D02*
X021892Y009161D01*
Y009087D01*
X021818Y009013D01*
X021744Y009013D01*
X021558Y009198D01*
X021706Y008901D02*
X021632Y008827D01*
X021669Y008864D01*
X021447Y009087D01*
X021521Y009087D01*
X021484Y008753D02*
Y008679D01*
X02141Y008605D01*
X021335Y008605D01*
X021187Y008753D01*
Y008827D01*
X021261Y008901D01*
X021335Y008901D01*
X021373Y008864D01*
Y00879D01*
X021261Y008679D01*
X014879Y020955D02*
X014984D01*
X014931D01*
Y020692D01*
X014984Y02064D01*
X015036D01*
X015089Y020692D01*
X014564Y020955D02*
X014774D01*
Y020797D01*
X014669Y02085D01*
X014616D01*
X014564Y020797D01*
Y020692D01*
X014616Y02064D01*
X014721D01*
X014774Y020692D01*
X012746Y016762D02*
Y017077D01*
X012589D01*
X012536Y017024D01*
Y016919D01*
X012589Y016867D01*
X012746D01*
X012641D02*
X012536Y016762D01*
X012431Y017077D02*
X012221D01*
Y017024D01*
X012431Y016814D01*
Y016762D01*
X011906Y017077D02*
X012116D01*
Y016919D01*
X012011Y016972D01*
X011959D01*
X011906Y016919D01*
Y016814D01*
X011959Y016762D01*
X012064D01*
X012116Y016814D01*
X012126Y017402D02*
Y017716D01*
X011969D01*
X011916Y017664D01*
Y017559D01*
X011969Y017507D01*
X012126D01*
X012021D02*
X011916Y017402D01*
X011811Y017716D02*
X011601D01*
Y017664D01*
X011811Y017454D01*
Y017402D01*
X011496Y017716D02*
X011286D01*
Y017664D01*
X011496Y017454D01*
Y017402D01*
X014101Y009977D02*
X014154Y010029D01*
X014259D01*
X014311Y009977D01*
Y009924D01*
X014259Y009872D01*
X014154D01*
X014101Y00982D01*
Y009767D01*
X014154Y009715D01*
X014259D01*
X014311Y009767D01*
X013996Y009977D02*
X013944Y010029D01*
X013839D01*
X013786Y009977D01*
Y009924D01*
X013839Y009872D01*
X013891D01*
X013839D01*
X013786Y00982D01*
Y009767D01*
X013839Y009715D01*
X013944D01*
X013996Y009767D01*
X031634Y019774D02*
Y019511D01*
X031581Y019459D01*
X031476D01*
X031424Y019511D01*
Y019774D01*
X031319Y019459D02*
X031214D01*
X031267D01*
Y019774D01*
X031319Y019721D01*
X030847Y019774D02*
X030952Y019721D01*
X031057Y019616D01*
Y019511D01*
X031004Y019459D01*
X030899D01*
X030847Y019511D01*
Y019564D01*
X030899Y019616D01*
X031057D01*
X015118Y014521D02*
Y014783D01*
X014856Y014521D01*
X01479D01*
X014725Y014587D01*
Y014718D01*
X01479Y014783D01*
Y013878D02*
X014725Y013812D01*
Y013681D01*
X01479Y013616D01*
X014856D01*
X014921Y013681D01*
Y013747D01*
Y013681D01*
X014987Y013616D01*
X015053D01*
X015118Y013681D01*
Y013812D01*
X015053Y013878D01*
X017333Y019892D02*
Y020192D01*
X017233Y020092D01*
X017133Y020192D01*
Y019892D01*
X017033Y020192D02*
X016933D01*
X016983D01*
Y019892D01*
X017033D01*
X016933D01*
X016583Y020142D02*
X016633Y020192D01*
X016733D01*
X016783Y020142D01*
Y020092D01*
X016733Y020042D01*
X016633D01*
X016583Y019992D01*
Y019942D01*
X016633Y019892D01*
X016733D01*
X016783Y019942D01*
X016333Y020192D02*
X016433D01*
X016483Y020142D01*
Y019942D01*
X016433Y019892D01*
X016333D01*
X016283Y019942D01*
Y020142D01*
X016333Y020192D01*
X017274Y01939D02*
Y01969D01*
X017174Y01959D01*
X017074Y01969D01*
Y01939D01*
X016824Y01969D02*
X016924D01*
X016974Y01964D01*
Y01944D01*
X016924Y01939D01*
X016824D01*
X016774Y01944D01*
Y01964D01*
X016824Y01969D01*
X016474Y01964D02*
X016524Y01969D01*
X016624D01*
X016674Y01964D01*
Y01959D01*
X016624Y01954D01*
X016524D01*
X016474Y01949D01*
Y01944D01*
X016524Y01939D01*
X016624D01*
X016674Y01944D01*
X016374Y01969D02*
X016274D01*
X016324D01*
Y01939D01*
X016374D01*
X016274D01*
X016877Y019138D02*
X016927Y019188D01*
X017027D01*
X017077Y019138D01*
Y018938D01*
X017027Y018888D01*
X016927D01*
X016877Y018938D01*
X016777Y019188D02*
Y018888D01*
X016577D01*
X016477Y019188D02*
Y018888D01*
Y018988D01*
X016277Y019188D01*
X016427Y019038D01*
X016277Y018888D01*
X016572Y018616D02*
X016622Y018666D01*
X016722D01*
X016772Y018616D01*
Y018416D01*
X016722Y018366D01*
X016622D01*
X016572Y018416D01*
X016272Y018616D02*
X016322Y018666D01*
X016422D01*
X016472Y018616D01*
Y018566D01*
X016422Y018516D01*
X016322D01*
X016272Y018466D01*
Y018416D01*
X016322Y018366D01*
X016422D01*
X016472Y018416D01*
X013117Y018616D02*
X013167Y018666D01*
X013267D01*
X013317Y018616D01*
Y018416D01*
X013267Y018366D01*
X013167D01*
X013117Y018416D01*
X012817Y018616D02*
X012867Y018666D01*
X012967D01*
X013017Y018616D01*
Y018566D01*
X012967Y018516D01*
X012867D01*
X012817Y018466D01*
Y018416D01*
X012867Y018366D01*
X012967D01*
X013017Y018416D01*
X013117Y019138D02*
X013167Y019188D01*
X013267D01*
X013317Y019138D01*
Y018938D01*
X013267Y018888D01*
X013167D01*
X013117Y018938D01*
X013017Y019188D02*
Y018888D01*
X012817D01*
X012717Y019188D02*
Y018888D01*
Y018988D01*
X012517Y019188D01*
X012667Y019038D01*
X012517Y018888D01*
X013317Y01939D02*
Y01969D01*
X013217Y01959D01*
X013117Y01969D01*
Y01939D01*
X012867Y01969D02*
X012967D01*
X013017Y01964D01*
Y01944D01*
X012967Y01939D01*
X012867D01*
X012817Y01944D01*
Y01964D01*
X012867Y01969D01*
X012517Y01964D02*
X012567Y01969D01*
X012667D01*
X012717Y01964D01*
Y01959D01*
X012667Y01954D01*
X012567D01*
X012517Y01949D01*
Y01944D01*
X012567Y01939D01*
X012667D01*
X012717Y01944D01*
X012417Y01969D02*
X012317D01*
X012367D01*
Y01939D01*
X012417D01*
X012317D01*
X013317Y019892D02*
Y020192D01*
X013217Y020092D01*
X013117Y020192D01*
Y019892D01*
X013017Y020192D02*
X012917D01*
X012967D01*
Y019892D01*
X013017D01*
X012917D01*
X012567Y020142D02*
X012617Y020192D01*
X012717D01*
X012767Y020142D01*
Y020092D01*
X012717Y020042D01*
X012617D01*
X012567Y019992D01*
Y019942D01*
X012617Y019892D01*
X012717D01*
X012767Y019942D01*
X012317Y020192D02*
X012417D01*
X012467Y020142D01*
Y019942D01*
X012417Y019892D01*
X012317D01*
X012267Y019942D01*
Y020142D01*
X012317Y020192D01*
X013898Y020851D02*
Y020551D01*
X013748D01*
X013698Y020601D01*
Y020801D01*
X013748Y020851D01*
X013898D01*
X013598Y020551D02*
X013498D01*
X013548D01*
Y020751D01*
X013598D01*
X013348Y020551D02*
X013198D01*
X013148Y020601D01*
X013198Y020651D01*
X013298D01*
X013348Y020701D01*
X013298Y020751D01*
X013148D01*
X013048Y020451D02*
Y020751D01*
X012898D01*
X012848Y020701D01*
Y020601D01*
X012898Y020551D01*
X013048D01*
X012748D02*
X012648D01*
X012698D01*
Y020851D01*
X012748D01*
X012448Y020751D02*
X012348D01*
X012298Y020701D01*
Y020551D01*
X012448D01*
X012498Y020601D01*
X012448Y020651D01*
X012298D01*
X012198Y020751D02*
Y020601D01*
X012148Y020551D01*
X011998D01*
Y020501D01*
X012048Y020451D01*
X012098D01*
X011998Y020551D02*
Y020751D01*
X016808Y020713D02*
X016858Y020763D01*
X016958D01*
X017008Y020713D01*
Y020663D01*
X016958Y020613D01*
X016858D01*
X016808Y020563D01*
Y020513D01*
X016858Y020463D01*
X016958D01*
X017008Y020513D01*
X016708Y020763D02*
Y020463D01*
X016558D01*
X016508Y020513D01*
Y020713D01*
X016558Y020763D01*
X016708D01*
D174*
X010817Y021014D02*
X011309Y021014D01*
X010817Y021014D02*
Y021526D01*
X011309Y021526D01*
X014045Y016171D02*
X014537D01*
Y016683D01*
X014045Y016683D02*
X014537Y016683D01*
X014045Y015305D02*
X014537Y015305D01*
X014537Y015817D02*
X014537Y015305D01*
X014045Y015817D02*
X014537Y015817D01*
X014045Y014026D02*
X014537Y014026D01*
X014537Y013514D02*
X014537Y014026D01*
X014045Y013514D02*
X014537Y013514D01*
X014045Y014911D02*
X014537Y014911D01*
X014537Y0144D01*
X014045Y0144D02*
X014537Y0144D01*
D175*
X012963Y014094D02*
X012653D01*
Y01394D01*
X012704Y013888D01*
X012808D01*
X012859Y01394D01*
Y014094D01*
Y013991D02*
X012963Y013888D01*
X012653Y013785D02*
Y013578D01*
X012704D01*
X012911Y013785D01*
X012963D01*
Y013475D02*
Y013371D01*
Y013423D01*
X012653D01*
X012704Y013475D01*
X012923Y014803D02*
Y015113D01*
X012768D01*
X012717Y015061D01*
Y014958D01*
X012768Y014906D01*
X012923D01*
X01282D02*
X012717Y014803D01*
X012613Y015113D02*
X012407D01*
Y015061D01*
X012613Y014855D01*
Y014803D01*
X012303Y015061D02*
X012252Y015113D01*
X012148D01*
X012097Y015061D01*
Y014855D01*
X012148Y014803D01*
X012252D01*
X012303Y014855D01*
Y015061D01*
X017165Y014852D02*
Y015162D01*
X017062Y015059D01*
X016959Y015162D01*
Y014852D01*
X016855D02*
X016752D01*
X016804D01*
Y015162D01*
X016855Y015111D01*
X016391Y014852D02*
X016597D01*
X016391Y015059D01*
Y015111D01*
X016442Y015162D01*
X016546D01*
X016597Y015111D01*
X024498Y010878D02*
X02455Y01093D01*
X024653D01*
X024705Y010878D01*
Y010672D01*
X024653Y01062D01*
X02455D01*
X024498Y010672D01*
X024188Y01093D02*
X024292Y010878D01*
X024395Y010775D01*
Y010672D01*
X024343Y01062D01*
X02424D01*
X024188Y010672D01*
Y010723D01*
X02424Y010775D01*
X024395D01*
X024085Y010672D02*
X024033Y01062D01*
X02393D01*
X023878Y010672D01*
Y010878D01*
X02393Y01093D01*
X024033D01*
X024085Y010878D01*
Y010827D01*
X024033Y010775D01*
X023878D01*
X023071Y008063D02*
X023123Y008115D01*
X023226D01*
X023278Y008063D01*
Y007857D01*
X023226Y007805D01*
X023123D01*
X023071Y007857D01*
X022968Y008115D02*
X022761D01*
Y008063D01*
X022968Y007857D01*
Y007805D01*
X022451D02*
X022658D01*
X022451Y008012D01*
Y008063D01*
X022503Y008115D01*
X022606D01*
X022658Y008063D01*
X024724Y009744D02*
Y010054D01*
X024569D01*
X024518Y010002D01*
Y009899D01*
X024569Y009847D01*
X024724D01*
X024621D02*
X024518Y009744D01*
X024415Y010054D02*
X024208D01*
Y010002D01*
X024415Y009796D01*
Y009744D01*
X023898D02*
X024105D01*
X023898Y009951D01*
Y010002D01*
X02395Y010054D01*
X024053D01*
X024105Y010002D01*
X024823Y008789D02*
Y009099D01*
X024668D01*
X024616Y009048D01*
Y008944D01*
X024668Y008893D01*
X024823D01*
X02472D02*
X024616Y008789D01*
X024513Y009099D02*
X024306D01*
Y009048D01*
X024513Y008841D01*
Y008789D01*
X024048D02*
Y009099D01*
X024203Y008944D01*
X023996D01*
X020834Y009235D02*
X020688Y009089D01*
X020761Y009162D01*
X02098Y008943D01*
X020834Y008797D02*
X020615Y009016D01*
X020505Y008906D01*
Y008833D01*
X020578Y00876D01*
X020651D01*
X020761Y00887D01*
X020615Y008577D02*
X020542Y008504D01*
X020578Y008541D01*
X020359Y00876D01*
X020432D01*
Y008395D02*
X020359Y008322D01*
X020396Y008358D01*
X020177Y008577D01*
X02025D01*
X014587Y021944D02*
X01469D01*
X014638D01*
Y021686D01*
X01469Y021634D01*
X014742D01*
X014793Y021686D01*
X014328Y021634D02*
Y021944D01*
X014483Y021789D01*
X014277D01*
D176*
X020404Y007736D02*
Y008136D01*
X020204D01*
X020137Y008069D01*
Y007936D01*
X020204Y00787D01*
X020404D01*
X02027D02*
X020137Y007736D01*
X019804D02*
X019937D01*
X020004Y007803D01*
Y007936D01*
X019937Y008003D01*
X019804D01*
X019737Y007936D01*
Y00787D01*
X020004D01*
X019604Y007736D02*
X019404D01*
X019337Y007803D01*
X019404Y00787D01*
X019537D01*
X019604Y007936D01*
X019537Y008003D01*
X019337D01*
X019004Y007736D02*
X019137D01*
X019204Y007803D01*
Y007936D01*
X019137Y008003D01*
X019004D01*
X018937Y007936D01*
Y00787D01*
X019204D01*
X018737Y008069D02*
Y008003D01*
X018804D01*
X018671D01*
X018737D01*
Y007803D01*
X018671Y007736D01*
X020147Y009615D02*
X020213Y009681D01*
X020347D01*
X020413Y009615D01*
Y009548D01*
X020347Y009481D01*
X020213D01*
X020147Y009415D01*
Y009348D01*
X020213Y009281D01*
X020347D01*
X020413Y009348D01*
X019947Y009615D02*
Y009548D01*
X020014D01*
X01988D01*
X019947D01*
Y009348D01*
X01988Y009281D01*
X019614Y009548D02*
X01948D01*
X019414Y009481D01*
Y009281D01*
X019614D01*
X01968Y009348D01*
X019614Y009415D01*
X019414D01*
X019214Y009615D02*
Y009548D01*
X01928D01*
X019147D01*
X019214D01*
Y009348D01*
X019147Y009281D01*
X018947D02*
X018747D01*
X018681Y009348D01*
X018747Y009415D01*
X018881D01*
X018947Y009481D01*
X018881Y009548D01*
X018681D01*
M02*
