G04 Layer_Physical_Order=2*
G04 Layer_Color=32768*
%FSTAX24Y24*%
%MOIN*%
G70*
G01*
G75*
%ADD67C,0.0500*%
%ADD69C,0.0394*%
%ADD70C,0.0866*%
%ADD72C,0.0650*%
%ADD73C,0.0250*%
G36*
X034582Y025916D02*
X034803D01*
Y025866D01*
X034853D01*
Y025645D01*
X034902Y025606D01*
Y024237D01*
X034853Y024197D01*
Y023976D01*
Y023755D01*
X034902Y023716D01*
Y022268D01*
X034853Y022229D01*
Y022008D01*
Y021787D01*
X034902Y021747D01*
Y0203D01*
X034853Y02026D01*
Y020039D01*
Y019818D01*
X034902Y019779D01*
Y018331D01*
X034853Y018292D01*
Y018071D01*
Y01785D01*
X034902Y01781D01*
Y016363D01*
X034853Y016323D01*
Y016102D01*
Y015881D01*
X034902Y015842D01*
Y014394D01*
X034853Y014355D01*
Y014134D01*
Y013913D01*
X034902Y013873D01*
Y012426D01*
X034853Y012386D01*
Y012165D01*
Y011944D01*
X034902Y011905D01*
Y010457D01*
X034853Y010418D01*
Y010197D01*
Y009976D01*
X034902Y009936D01*
Y008489D01*
X034853Y008449D01*
Y008228D01*
Y008007D01*
X034902Y007968D01*
Y00652D01*
X034853Y006481D01*
Y00626D01*
X034803D01*
Y00621D01*
X034582D01*
X034543Y006161D01*
X032977D01*
X032938Y00621D01*
X032495D01*
X032456Y006161D01*
X03089D01*
X030851Y00621D01*
X030409D01*
X03037Y006161D01*
X028804D01*
X028764Y00621D01*
X028322D01*
X028283Y006161D01*
X026717D01*
X026678Y00621D01*
X026236D01*
X026196Y006161D01*
X02463D01*
X024591Y00621D01*
X024149D01*
X02411Y006161D01*
X022544D01*
X022505Y00621D01*
X022062D01*
X022023Y006161D01*
X020772D01*
X020733Y00621D01*
X020291D01*
X020251Y006161D01*
X018804D01*
X018764Y00621D01*
X018322D01*
X018283Y006161D01*
X016717D01*
X016678Y00621D01*
X016236D01*
X016196Y006161D01*
X01463D01*
X014591Y00621D01*
X014149D01*
X01411Y006161D01*
X012544D01*
X012505Y00621D01*
X012062D01*
X012023Y006161D01*
X010457D01*
X010418Y00621D01*
X010197D01*
Y00626D01*
X010147D01*
Y006481D01*
X010098Y00652D01*
Y007889D01*
X010147Y007929D01*
Y00815D01*
Y008371D01*
X010098Y00841D01*
Y009858D01*
X010147Y009897D01*
Y010118D01*
Y010339D01*
X010098Y010379D01*
Y011826D01*
X010147Y011866D01*
Y012087D01*
Y012308D01*
X010098Y012347D01*
Y013795D01*
X010147Y013834D01*
Y014055D01*
Y014276D01*
X010098Y014316D01*
Y015763D01*
X010147Y015803D01*
Y016024D01*
Y016245D01*
X010098Y016284D01*
Y017732D01*
X010147Y017771D01*
Y017992D01*
Y018213D01*
X010098Y018253D01*
Y0197D01*
X010147Y01974D01*
Y019961D01*
Y020182D01*
X010098Y020221D01*
Y021669D01*
X010147Y021708D01*
Y021929D01*
Y02215D01*
X010098Y02219D01*
Y023637D01*
X010147Y023677D01*
Y023898D01*
Y024119D01*
X010098Y024158D01*
Y025606D01*
X010147Y025645D01*
Y025866D01*
X010197D01*
Y025916D01*
X010418D01*
X010457Y025965D01*
X011905D01*
X011944Y025916D01*
X012386D01*
X012426Y025965D01*
X013873D01*
X013913Y025916D01*
X014355D01*
X014394Y025965D01*
X034543D01*
X034582Y025916D01*
D02*
G37*
%LPC*%
G36*
X028881Y011298D02*
X028711D01*
Y011129D01*
X028749Y011136D01*
X028824Y011186D01*
X028873Y011261D01*
X028881Y011298D01*
D02*
G37*
G36*
X022529Y011391D02*
X022491Y011383D01*
X022417Y011333D01*
X022367Y011259D01*
X022359Y011221D01*
X022529D01*
Y011391D01*
D02*
G37*
G36*
X020946Y011282D02*
Y011113D01*
X021115D01*
X021108Y011151D01*
X021058Y011225D01*
X020983Y011275D01*
X020946Y011282D01*
D02*
G37*
G36*
X028198Y011298D02*
X028029D01*
X028036Y011261D01*
X028086Y011186D01*
X02816Y011136D01*
X028198Y011129D01*
Y011298D01*
D02*
G37*
G36*
X022629Y011391D02*
Y011221D01*
X022798D01*
X022791Y011259D01*
X022741Y011333D01*
X022667Y011383D01*
X022629Y011391D01*
D02*
G37*
G36*
X025039Y011862D02*
X024967Y011847D01*
X024906Y011807D01*
X024865Y011745D01*
X024851Y011673D01*
X024865Y011601D01*
X024906Y01154D01*
X024967Y011499D01*
X025039Y011485D01*
X025112Y011499D01*
X025173Y01154D01*
X025214Y011601D01*
X025228Y011673D01*
X025214Y011745D01*
X025173Y011807D01*
X025112Y011847D01*
X025039Y011862D01*
D02*
G37*
G36*
X017707Y011941D02*
X017635Y011926D01*
X017573Y011885D01*
X017532Y011824D01*
X017518Y011752D01*
X017532Y01168D01*
X017573Y011619D01*
X017635Y011578D01*
X017707Y011563D01*
X017779Y011578D01*
X01784Y011619D01*
X017881Y01168D01*
X017895Y011752D01*
X017881Y011824D01*
X01784Y011885D01*
X017779Y011926D01*
X017707Y011941D01*
D02*
G37*
G36*
X028198Y011568D02*
X02816Y01156D01*
X028086Y011511D01*
X028036Y011436D01*
X028029Y011398D01*
X028198D01*
Y011568D01*
D02*
G37*
G36*
X028881Y011712D02*
X028442D01*
X028449Y011674D01*
X028499Y0116D01*
X028528Y01158D01*
Y01153D01*
X028499Y011511D01*
X02848Y011481D01*
X02843D01*
X02841Y011511D01*
X028336Y01156D01*
X028298Y011568D01*
Y011348D01*
Y011129D01*
X028336Y011136D01*
X02841Y011186D01*
X02843Y011215D01*
X02848D01*
X028499Y011186D01*
X028574Y011136D01*
X028611Y011129D01*
Y011348D01*
X028661D01*
Y011398D01*
X028881D01*
X028873Y011436D01*
X028824Y011511D01*
X028794Y01153D01*
Y01158D01*
X028824Y0116D01*
X028873Y011674D01*
X028881Y011712D01*
D02*
G37*
G36*
X020846Y011013D02*
X020676D01*
X020684Y010975D01*
X020733Y010901D01*
X020808Y010851D01*
X020846Y010844D01*
Y011013D01*
D02*
G37*
G36*
X021115D02*
X020946D01*
Y010844D01*
X020983Y010851D01*
X021058Y010901D01*
X021108Y010975D01*
X021115Y011013D01*
D02*
G37*
G36*
X023798Y010997D02*
X023761Y01099D01*
X023686Y01094D01*
X023636Y010865D01*
X023629Y010828D01*
X023798D01*
Y010997D01*
D02*
G37*
G36*
X023898D02*
Y010828D01*
X024068D01*
X02406Y010865D01*
X024011Y01094D01*
X023936Y01099D01*
X023898Y010997D01*
D02*
G37*
G36*
X022529Y011121D02*
X022359D01*
X022367Y011083D01*
X022417Y011009D01*
X022491Y010959D01*
X022529Y010952D01*
Y011121D01*
D02*
G37*
G36*
X033248Y011439D02*
X033176Y011424D01*
X033115Y011383D01*
X033074Y011322D01*
X033059Y01125D01*
X033074Y011178D01*
X033115Y011117D01*
X033176Y011076D01*
X033248Y011061D01*
X03332Y011076D01*
X033381Y011117D01*
X033422Y011178D01*
X033437Y01125D01*
X033422Y011322D01*
X033381Y011383D01*
X03332Y011424D01*
X033248Y011439D01*
D02*
G37*
G36*
X020846Y011282D02*
X020808Y011275D01*
X020733Y011225D01*
X020684Y011151D01*
X020676Y011113D01*
X020846D01*
Y011282D01*
D02*
G37*
G36*
X022798Y011121D02*
X022629D01*
Y010952D01*
X022667Y010959D01*
X022741Y011009D01*
X022791Y011083D01*
X022798Y011121D01*
D02*
G37*
G36*
X025039Y01137D02*
X024967Y011355D01*
X024906Y011314D01*
X024865Y011253D01*
X024851Y011181D01*
X024865Y011109D01*
X024906Y011048D01*
X024967Y011007D01*
X025039Y010992D01*
X025112Y011007D01*
X025173Y011048D01*
X025214Y011109D01*
X025228Y011181D01*
X025214Y011253D01*
X025173Y011314D01*
X025112Y011355D01*
X025039Y01137D01*
D02*
G37*
G36*
X026476Y012233D02*
X026306D01*
X026314Y012196D01*
X026363Y012121D01*
X026438Y012072D01*
X026476Y012064D01*
Y012233D01*
D02*
G37*
G36*
X026745D02*
X026576D01*
Y012064D01*
X026613Y012072D01*
X026688Y012121D01*
X026738Y012196D01*
X026745Y012233D01*
D02*
G37*
G36*
X031289Y012374D02*
X031217Y012359D01*
X031156Y012318D01*
X031115Y012257D01*
X031101Y012185D01*
X031115Y012113D01*
X031156Y012052D01*
X031217Y012011D01*
X031289Y011996D01*
X031362Y012011D01*
X031423Y012052D01*
X031464Y012113D01*
X031478Y012185D01*
X031464Y012257D01*
X031423Y012318D01*
X031362Y012359D01*
X031289Y012374D01*
D02*
G37*
G36*
X014793Y012413D02*
X014721Y012399D01*
X01466Y012358D01*
X014619Y012297D01*
X014605Y012224D01*
X014619Y012152D01*
X01466Y012091D01*
X014721Y01205D01*
X014793Y012036D01*
X014865Y01205D01*
X014927Y012091D01*
X014968Y012152D01*
X014982Y012224D01*
X014968Y012297D01*
X014927Y012358D01*
X014865Y012399D01*
X014793Y012413D01*
D02*
G37*
G36*
X010856Y012267D02*
X010818Y012259D01*
X010743Y012209D01*
X010694Y012135D01*
X010686Y012097D01*
X010856D01*
Y012267D01*
D02*
G37*
G36*
X016194Y012283D02*
X016024D01*
Y012113D01*
X016062Y012121D01*
X016137Y01217D01*
X016186Y012245D01*
X016194Y012283D01*
D02*
G37*
G36*
X010247Y012306D02*
Y012137D01*
X010416D01*
X010409Y012174D01*
X010359Y012249D01*
X010285Y012299D01*
X010247Y012306D01*
D02*
G37*
G36*
X010956Y012267D02*
Y012097D01*
X011125D01*
X011117Y012135D01*
X011068Y012209D01*
X010993Y012259D01*
X010956Y012267D01*
D02*
G37*
G36*
X015924Y012283D02*
X015755D01*
X015762Y012245D01*
X015812Y01217D01*
X015887Y012121D01*
X015924Y012113D01*
Y012283D01*
D02*
G37*
G36*
X011125Y011997D02*
X010956D01*
Y011828D01*
X010993Y011835D01*
X011068Y011885D01*
X011117Y011959D01*
X011125Y011997D01*
D02*
G37*
G36*
X013399Y012411D02*
X013229D01*
Y012196D01*
X013234Y012191D01*
X013227Y012156D01*
X013241Y012083D01*
X013282Y012022D01*
X013343Y011981D01*
X013415Y011967D01*
X013488Y011981D01*
X013549Y012022D01*
X013572Y012056D01*
X013604Y01205D01*
X013622Y012041D01*
X013635Y011975D01*
X013676Y011914D01*
X013737Y011873D01*
X013809Y011859D01*
X013881Y011873D01*
X013942Y011914D01*
X013983Y011975D01*
X013998Y012047D01*
X013983Y012119D01*
X013942Y012181D01*
X013881Y012222D01*
X013809Y012236D01*
X013737Y012222D01*
X013676Y012181D01*
X013653Y012146D01*
X013621Y012152D01*
X013603Y012162D01*
X01359Y012228D01*
X013549Y012289D01*
X013488Y01233D01*
X01343Y012341D01*
X013422Y012348D01*
X013401Y012378D01*
X013395Y012391D01*
X013399Y012411D01*
D02*
G37*
G36*
X028881Y012125D02*
X028442D01*
X028449Y012087D01*
X028499Y012013D01*
X028528Y011993D01*
Y011944D01*
X028499Y011924D01*
X028449Y01185D01*
X028442Y011812D01*
X028881D01*
X028873Y01185D01*
X028824Y011924D01*
X028794Y011944D01*
Y011993D01*
X028824Y012013D01*
X028873Y012087D01*
X028881Y012125D01*
D02*
G37*
G36*
X010856Y011997D02*
X010686D01*
X010694Y011959D01*
X010743Y011885D01*
X010818Y011835D01*
X010856Y011828D01*
Y011997D01*
D02*
G37*
G36*
X010416Y012037D02*
X010247D01*
Y011867D01*
X010285Y011875D01*
X010359Y011924D01*
X010409Y011999D01*
X010416Y012037D01*
D02*
G37*
G36*
X015551Y012275D02*
X015479Y012261D01*
X015418Y01222D01*
X015377Y012159D01*
X015363Y012087D01*
X015377Y012014D01*
X015418Y011953D01*
X015479Y011912D01*
X015551Y011898D01*
X015623Y011912D01*
X015685Y011953D01*
X015725Y012014D01*
X01574Y012087D01*
X015725Y012159D01*
X015685Y01222D01*
X015623Y012261D01*
X015551Y012275D01*
D02*
G37*
G36*
X034753Y012115D02*
X034584D01*
X034591Y012078D01*
X034641Y012003D01*
X034715Y011953D01*
X034753Y011946D01*
Y012115D01*
D02*
G37*
G36*
X012499Y012037D02*
X01233D01*
X012337Y011999D01*
X012387Y011924D01*
X012461Y011875D01*
X012499Y011867D01*
Y012037D01*
D02*
G37*
G36*
X012769D02*
X012599D01*
Y011867D01*
X012637Y011875D01*
X012711Y011924D01*
X012761Y011999D01*
X012769Y012037D01*
D02*
G37*
G36*
X032757Y010967D02*
Y010798D01*
X032926D01*
X032919Y010836D01*
X032869Y01091D01*
X032794Y01096D01*
X032757Y010967D01*
D02*
G37*
G36*
X01937Y010878D02*
X019298Y010863D01*
X019237Y010822D01*
X019196Y010761D01*
X019181Y010689D01*
X019196Y010617D01*
X019237Y010556D01*
X019298Y010515D01*
X01937Y0105D01*
X019442Y010515D01*
X019503Y010556D01*
X019544Y010617D01*
X019559Y010689D01*
X019544Y010761D01*
X019503Y010822D01*
X019442Y010863D01*
X01937Y010878D01*
D02*
G37*
G36*
X025039D02*
X024967Y010863D01*
X024906Y010822D01*
X024865Y010761D01*
X024851Y010689D01*
X024865Y010617D01*
X024906Y010556D01*
X024967Y010515D01*
X025039Y0105D01*
X025112Y010515D01*
X025173Y010556D01*
X025214Y010617D01*
X025228Y010689D01*
X025214Y010761D01*
X025173Y010822D01*
X025112Y010863D01*
X025039Y010878D01*
D02*
G37*
G36*
X034104Y010897D02*
X034032Y010883D01*
X033971Y010842D01*
X03393Y010781D01*
X033916Y010709D01*
X03393Y010636D01*
X033971Y010575D01*
X034032Y010534D01*
X034048Y010531D01*
X034048Y01053D01*
X034053Y010479D01*
X033991Y010438D01*
X033942Y010363D01*
X033934Y010326D01*
X034373D01*
X034365Y010363D01*
X034316Y010438D01*
X034241Y010488D01*
X034207Y010494D01*
X034196Y010548D01*
X034238Y010575D01*
X034279Y010636D01*
X034293Y010709D01*
X034279Y010781D01*
X034238Y010842D01*
X034177Y010883D01*
X034104Y010897D01*
D02*
G37*
G36*
X016142Y011055D02*
X01607Y01104D01*
X016008Y011D01*
X015967Y010938D01*
X015953Y010866D01*
X015967Y010794D01*
X016008Y010733D01*
X01607Y010692D01*
X016101Y010686D01*
Y010635D01*
X016054Y010625D01*
X01598Y010576D01*
X01593Y010501D01*
X015922Y010463D01*
X016361D01*
X016354Y010501D01*
X016304Y010576D01*
X01623Y010625D01*
X016183Y010635D01*
Y010686D01*
X016214Y010692D01*
X016275Y010733D01*
X016316Y010794D01*
X01633Y010866D01*
X016316Y010938D01*
X016275Y011D01*
X016214Y01104D01*
X016142Y011055D01*
D02*
G37*
G36*
X025531Y010878D02*
X025459Y010863D01*
X025398Y010822D01*
X025357Y010761D01*
X025343Y010689D01*
X025357Y010617D01*
X025398Y010556D01*
X025459Y010515D01*
X025531Y0105D01*
X025604Y010515D01*
X025665Y010556D01*
X025706Y010617D01*
X02572Y010689D01*
X025706Y010761D01*
X025665Y010822D01*
X025604Y010863D01*
X025531Y010878D01*
D02*
G37*
G36*
X030564Y010698D02*
X030394D01*
Y010529D01*
X030432Y010536D01*
X030507Y010586D01*
X030556Y01066D01*
X030564Y010698D01*
D02*
G37*
G36*
X030885D02*
X030716D01*
X030723Y01066D01*
X030773Y010586D01*
X030847Y010536D01*
X030885Y010529D01*
Y010698D01*
D02*
G37*
G36*
X026024Y010878D02*
X025951Y010863D01*
X02589Y010822D01*
X025849Y010761D01*
X025835Y010689D01*
X025849Y010617D01*
X02589Y010556D01*
X025951Y010515D01*
X026024Y0105D01*
X026096Y010515D01*
X026157Y010556D01*
X026198Y010617D01*
X026212Y010689D01*
X026198Y010761D01*
X026157Y010822D01*
X026096Y010863D01*
X026024Y010878D01*
D02*
G37*
G36*
X030294Y010698D02*
X030125D01*
X030133Y01066D01*
X030182Y010586D01*
X030257Y010536D01*
X030294Y010529D01*
Y010698D01*
D02*
G37*
G36*
X032166Y010338D02*
Y010168D01*
X032336D01*
X032328Y010206D01*
X032278Y01028D01*
X032204Y01033D01*
X032166Y010338D01*
D02*
G37*
G36*
X015433Y010553D02*
X015361Y010538D01*
X0153Y010498D01*
X015259Y010436D01*
X015244Y010364D01*
X015259Y010292D01*
X0153Y010231D01*
X015361Y01019D01*
X015433Y010176D01*
X015505Y01019D01*
X015566Y010231D01*
X015607Y010292D01*
X015622Y010364D01*
X015607Y010436D01*
X015566Y010498D01*
X015505Y010538D01*
X015433Y010553D01*
D02*
G37*
G36*
X030985Y010338D02*
Y010168D01*
X031154D01*
X031147Y010206D01*
X031097Y01028D01*
X031023Y01033D01*
X030985Y010338D01*
D02*
G37*
G36*
X032066D02*
X032028Y01033D01*
X031954Y01028D01*
X031904Y010206D01*
X031897Y010168D01*
X032066D01*
Y010338D01*
D02*
G37*
G36*
X016092Y010363D02*
X015922D01*
X01593Y010326D01*
X01598Y010251D01*
X016054Y010201D01*
X016092Y010194D01*
Y010363D01*
D02*
G37*
G36*
X01742Y010446D02*
X017383Y010438D01*
X017308Y010389D01*
X017259Y010314D01*
X017251Y010276D01*
X01742D01*
Y010446D01*
D02*
G37*
G36*
X01752D02*
Y010276D01*
X01769D01*
X017682Y010314D01*
X017633Y010389D01*
X017558Y010438D01*
X01752Y010446D01*
D02*
G37*
G36*
X016361Y010363D02*
X016192D01*
Y010194D01*
X01623Y010201D01*
X016304Y010251D01*
X016354Y010326D01*
X016361Y010363D01*
D02*
G37*
G36*
X034753Y010416D02*
X034715Y010409D01*
X034641Y010359D01*
X034591Y010285D01*
X034584Y010247D01*
X034753D01*
Y010416D01*
D02*
G37*
G36*
X030885Y010967D02*
X030847Y01096D01*
X030773Y01091D01*
X030723Y010836D01*
X030716Y010798D01*
X030885D01*
Y010967D01*
D02*
G37*
G36*
X030985D02*
Y010798D01*
X031154D01*
X031147Y010836D01*
X031097Y01091D01*
X031023Y01096D01*
X030985Y010967D01*
D02*
G37*
G36*
X030294D02*
X030257Y01096D01*
X030182Y01091D01*
X030133Y010836D01*
X030125Y010798D01*
X030294D01*
Y010967D01*
D02*
G37*
G36*
X030394D02*
Y010798D01*
X030564D01*
X030556Y010836D01*
X030507Y01091D01*
X030432Y01096D01*
X030394Y010967D01*
D02*
G37*
G36*
X031476D02*
X031438Y01096D01*
X031363Y01091D01*
X031314Y010836D01*
X031306Y010798D01*
X031476D01*
Y010967D01*
D02*
G37*
G36*
X032166D02*
Y010798D01*
X032336D01*
X032328Y010836D01*
X032278Y01091D01*
X032204Y01096D01*
X032166Y010967D01*
D02*
G37*
G36*
X032657D02*
X032619Y01096D01*
X032544Y01091D01*
X032495Y010836D01*
X032487Y010798D01*
X032657D01*
Y010967D01*
D02*
G37*
G36*
X031576D02*
Y010798D01*
X031745D01*
X031738Y010836D01*
X031688Y01091D01*
X031613Y01096D01*
X031576Y010967D01*
D02*
G37*
G36*
X032066D02*
X032028Y01096D01*
X031954Y01091D01*
X031904Y010836D01*
X031897Y010798D01*
X032066D01*
Y010967D01*
D02*
G37*
G36*
X031745Y010698D02*
X031576D01*
Y010529D01*
X031613Y010536D01*
X031688Y010586D01*
X031738Y01066D01*
X031745Y010698D01*
D02*
G37*
G36*
X032066D02*
X031897D01*
X031904Y01066D01*
X031954Y010586D01*
X032028Y010536D01*
X032066Y010529D01*
Y010698D01*
D02*
G37*
G36*
X031154D02*
X030985D01*
Y010529D01*
X031023Y010536D01*
X031097Y010586D01*
X031147Y01066D01*
X031154Y010698D01*
D02*
G37*
G36*
X031476D02*
X031306D01*
X031314Y01066D01*
X031363Y010586D01*
X031438Y010536D01*
X031476Y010529D01*
Y010698D01*
D02*
G37*
G36*
X032336D02*
X032166D01*
Y010529D01*
X032204Y010536D01*
X032278Y010586D01*
X032328Y01066D01*
X032336Y010698D01*
D02*
G37*
G36*
X023798Y010728D02*
X023629D01*
X023636Y01069D01*
X023686Y010615D01*
X023761Y010566D01*
X023798Y010558D01*
Y010728D01*
D02*
G37*
G36*
X024068D02*
X023898D01*
Y010558D01*
X023936Y010566D01*
X024011Y010615D01*
X02406Y01069D01*
X024068Y010728D01*
D02*
G37*
G36*
X032657Y010698D02*
X032487D01*
X032495Y01066D01*
X032544Y010586D01*
X032619Y010536D01*
X032657Y010529D01*
Y010698D01*
D02*
G37*
G36*
X032926D02*
X032757D01*
Y010529D01*
X032794Y010536D01*
X032869Y010586D01*
X032919Y01066D01*
X032926Y010698D01*
D02*
G37*
G36*
X03257Y013566D02*
Y013396D01*
X032739D01*
X032732Y013434D01*
X032682Y013509D01*
X032607Y013558D01*
X03257Y013566D01*
D02*
G37*
G36*
X019133Y01369D02*
X018964D01*
X018971Y013652D01*
X019021Y013578D01*
X019095Y013528D01*
X019133Y013521D01*
Y01369D01*
D02*
G37*
G36*
X021073Y01388D02*
X021001Y013865D01*
X020939Y013824D01*
X020899Y013763D01*
X020884Y013691D01*
X020899Y013619D01*
X020899Y013618D01*
X020868Y013574D01*
X020788Y013558D01*
X020714Y013509D01*
X020664Y013434D01*
X020657Y013396D01*
X021095D01*
X021088Y013434D01*
X021074Y013455D01*
X021099Y013508D01*
X021145Y013517D01*
X021206Y013558D01*
X021247Y013619D01*
X021261Y013691D01*
X021247Y013763D01*
X021206Y013824D01*
X021145Y013865D01*
X021073Y01388D01*
D02*
G37*
G36*
X03247Y013566D02*
X032432Y013558D01*
X032357Y013509D01*
X032308Y013434D01*
X0323Y013396D01*
X03247D01*
Y013566D01*
D02*
G37*
G36*
X019403Y01369D02*
X019233D01*
Y013521D01*
X019271Y013528D01*
X019345Y013578D01*
X019395Y013652D01*
X019403Y01369D01*
D02*
G37*
G36*
X024409Y014047D02*
X024337Y014033D01*
X024276Y013992D01*
X024235Y01393D01*
X024221Y013858D01*
X024235Y013786D01*
X024276Y013725D01*
X024337Y013684D01*
X024409Y01367D01*
X024482Y013684D01*
X024543Y013725D01*
X024584Y013786D01*
X024598Y013858D01*
X024584Y01393D01*
X024543Y013992D01*
X024482Y014033D01*
X024409Y014047D01*
D02*
G37*
G36*
X023346Y013897D02*
X023176D01*
X023184Y013859D01*
X023233Y013785D01*
X023308Y013735D01*
X023346Y013727D01*
Y013897D01*
D02*
G37*
G36*
X017106Y013818D02*
X016936D01*
X016944Y01378D01*
X016993Y013706D01*
X017068Y013656D01*
X017106Y013649D01*
Y013818D01*
D02*
G37*
G36*
X017375D02*
X017206D01*
Y013649D01*
X017243Y013656D01*
X017318Y013706D01*
X017367Y01378D01*
X017375Y013818D01*
D02*
G37*
G36*
X03247Y013296D02*
X0323D01*
X032308Y013259D01*
X032357Y013184D01*
X032432Y013135D01*
X03247Y013127D01*
Y013296D01*
D02*
G37*
G36*
X032739D02*
X03257D01*
Y013127D01*
X032607Y013135D01*
X032682Y013184D01*
X032732Y013259D01*
X032739Y013296D01*
D02*
G37*
G36*
X020826D02*
X020657D01*
X020664Y013259D01*
X020714Y013184D01*
X020788Y013135D01*
X020826Y013127D01*
Y013296D01*
D02*
G37*
G36*
X021095D02*
X020926D01*
Y013127D01*
X020964Y013135D01*
X021038Y013184D01*
X021088Y013259D01*
X021095Y013296D01*
D02*
G37*
G36*
X028198Y013231D02*
X02816Y013224D01*
X028086Y013174D01*
X028066Y013145D01*
X028016D01*
X027997Y013174D01*
X027922Y013224D01*
X027885Y013231D01*
Y013012D01*
Y012792D01*
X027922Y0128D01*
X027997Y01285D01*
X028016Y012879D01*
X028066D01*
X028086Y01285D01*
X02816Y0128D01*
X028198Y012792D01*
Y013012D01*
Y013231D01*
D02*
G37*
G36*
X018593Y013683D02*
X01852Y013668D01*
X018459Y013627D01*
X018418Y013566D01*
X018404Y013494D01*
X018418Y013422D01*
X018459Y013361D01*
X01852Y01332D01*
X018593Y013305D01*
X018665Y01332D01*
X018726Y013361D01*
X018767Y013422D01*
X018781Y013494D01*
X018767Y013566D01*
X018726Y013627D01*
X018665Y013668D01*
X018593Y013683D01*
D02*
G37*
G36*
X016604Y013712D02*
X016532Y013698D01*
X016471Y013657D01*
X01643Y013596D01*
X016416Y013524D01*
X01643Y013451D01*
X016471Y01339D01*
X016532Y013349D01*
X016604Y013335D01*
X016677Y013349D01*
X016738Y01339D01*
X016779Y013451D01*
X016793Y013524D01*
X016779Y013596D01*
X016738Y013657D01*
X016677Y013698D01*
X016604Y013712D01*
D02*
G37*
G36*
X01063Y013525D02*
X010558Y013511D01*
X010497Y01347D01*
X010456Y013409D01*
X010441Y013337D01*
X010456Y013264D01*
X010497Y013203D01*
X010558Y013162D01*
X01063Y013148D01*
X010702Y013162D01*
X010763Y013203D01*
X010804Y013264D01*
X010819Y013337D01*
X010804Y013409D01*
X010763Y01347D01*
X010702Y013511D01*
X01063Y013525D01*
D02*
G37*
G36*
X026348Y013643D02*
X026276Y013629D01*
X026215Y013588D01*
X026174Y013527D01*
X02616Y013455D01*
X026174Y013383D01*
X026215Y013321D01*
X026276Y01328D01*
X026348Y013266D01*
X026421Y01328D01*
X026482Y013321D01*
X026523Y013383D01*
X026537Y013455D01*
X026523Y013527D01*
X026482Y013588D01*
X026421Y013629D01*
X026348Y013643D01*
D02*
G37*
G36*
X034753Y014353D02*
X034715Y014346D01*
X034641Y014296D01*
X034591Y014222D01*
X034584Y014184D01*
X034753D01*
Y014353D01*
D02*
G37*
G36*
X010501Y014511D02*
X010463Y014503D01*
X010389Y014454D01*
X010339Y014379D01*
X010324Y014301D01*
X010301Y014281D01*
X010275Y014269D01*
X010247Y014275D01*
Y014055D01*
Y013836D01*
X010285Y013843D01*
X010359Y013893D01*
X010409Y013967D01*
X010424Y014045D01*
X010447Y014065D01*
X010473Y014078D01*
X010501Y014072D01*
Y014291D01*
Y014511D01*
D02*
G37*
G36*
X013238Y014416D02*
X013166Y014402D01*
X013105Y014361D01*
X013064Y0143D01*
X01305Y014227D01*
X013064Y014155D01*
X013105Y014094D01*
X013166Y014053D01*
X013238Y014039D01*
X01331Y014053D01*
X013372Y014094D01*
X013412Y014155D01*
X013427Y014227D01*
X013412Y0143D01*
X013372Y014361D01*
X01331Y014402D01*
X013238Y014416D01*
D02*
G37*
G36*
X010771Y014241D02*
X010601D01*
Y014072D01*
X010639Y014079D01*
X010713Y014129D01*
X010763Y014204D01*
X010771Y014241D01*
D02*
G37*
G36*
X02063Y014667D02*
X020558Y014653D01*
X020497Y014612D01*
X020456Y014551D01*
X020441Y014478D01*
X020456Y014406D01*
X020497Y014345D01*
X020558Y014304D01*
X02063Y01429D01*
X020702Y014304D01*
X020763Y014345D01*
X020804Y014406D01*
X020819Y014478D01*
X020804Y014551D01*
X020763Y014612D01*
X020702Y014653D01*
X02063Y014667D01*
D02*
G37*
G36*
X010601Y014511D02*
Y014341D01*
X010771D01*
X010763Y014379D01*
X010713Y014454D01*
X010639Y014503D01*
X010601Y014511D01*
D02*
G37*
G36*
X016003Y014757D02*
X015965Y014749D01*
X015891Y0147D01*
X015841Y014625D01*
X015834Y014587D01*
X016003D01*
Y014757D01*
D02*
G37*
G36*
Y014487D02*
X015834D01*
X015841Y01445D01*
X015891Y014375D01*
X015965Y014325D01*
X016003Y014318D01*
Y014487D01*
D02*
G37*
G36*
X016273D02*
X016103D01*
Y014318D01*
X016141Y014325D01*
X016215Y014375D01*
X016265Y01445D01*
X016273Y014487D01*
D02*
G37*
G36*
X032224Y014204D02*
X032152Y01419D01*
X032091Y014149D01*
X03205Y014088D01*
X032036Y014016D01*
X03205Y013944D01*
X032091Y013882D01*
X032152Y013841D01*
X032224Y013827D01*
X032297Y013841D01*
X032358Y013882D01*
X032399Y013944D01*
X032413Y014016D01*
X032399Y014088D01*
X032358Y014149D01*
X032297Y01419D01*
X032224Y014204D01*
D02*
G37*
G36*
X029016Y014214D02*
X028944Y0142D01*
X028882Y014159D01*
X028841Y014098D01*
X028827Y014026D01*
X028841Y013953D01*
X028882Y013892D01*
X028944Y013851D01*
X029016Y013837D01*
X029088Y013851D01*
X029149Y013892D01*
X02919Y013953D01*
X029204Y014026D01*
X02919Y014098D01*
X029149Y014159D01*
X029088Y0142D01*
X029016Y014214D01*
D02*
G37*
G36*
X023615Y013897D02*
X023446D01*
Y013727D01*
X023483Y013735D01*
X023558Y013785D01*
X023608Y013859D01*
X023615Y013897D01*
D02*
G37*
G36*
X019134Y014352D02*
X019062Y014338D01*
X019Y014297D01*
X01896Y014236D01*
X018945Y014163D01*
X01896Y014091D01*
X019Y01403D01*
X019062Y013989D01*
X019071Y013936D01*
X019021Y013902D01*
X018971Y013828D01*
X018964Y01379D01*
X019403D01*
X019395Y013828D01*
X019345Y013902D01*
X019271Y013952D01*
X019248Y013957D01*
X019237Y01401D01*
X019267Y01403D01*
X019308Y014091D01*
X019322Y014163D01*
X019308Y014236D01*
X019267Y014297D01*
X019206Y014338D01*
X019134Y014352D01*
D02*
G37*
G36*
X034753Y014084D02*
X034584D01*
X034591Y014046D01*
X034641Y013972D01*
X034715Y013922D01*
X034753Y013914D01*
Y014084D01*
D02*
G37*
G36*
X023346Y014166D02*
X023308Y014159D01*
X023233Y014109D01*
X023184Y014035D01*
X023176Y013997D01*
X023346D01*
Y014166D01*
D02*
G37*
G36*
X023446D02*
Y013997D01*
X023615D01*
X023608Y014035D01*
X023558Y014109D01*
X023483Y014159D01*
X023446Y014166D01*
D02*
G37*
G36*
X017106Y014088D02*
X017068Y01408D01*
X016993Y01403D01*
X016944Y013956D01*
X016936Y013918D01*
X017106D01*
Y014088D01*
D02*
G37*
G36*
X017206D02*
Y013918D01*
X017375D01*
X017367Y013956D01*
X017318Y01403D01*
X017243Y01408D01*
X017206Y014088D01*
D02*
G37*
G36*
X027785Y013231D02*
X027747Y013224D01*
X027672Y013174D01*
X027623Y0131D01*
X027615Y013062D01*
X027785D01*
Y013231D01*
D02*
G37*
G36*
X026476Y012503D02*
X026438Y012495D01*
X026363Y012446D01*
X026314Y012371D01*
X026306Y012333D01*
X026476D01*
Y012503D01*
D02*
G37*
G36*
X026576D02*
Y012333D01*
X026745D01*
X026738Y012371D01*
X026688Y012446D01*
X026613Y012495D01*
X026576Y012503D01*
D02*
G37*
G36*
X034088Y012499D02*
X033918D01*
Y01233D01*
X033956Y012337D01*
X03403Y012387D01*
X03408Y012461D01*
X034088Y012499D01*
D02*
G37*
G36*
X019331Y012708D02*
X019259Y012694D01*
X019197Y012653D01*
X019156Y012592D01*
X019142Y01252D01*
X019156Y012448D01*
X019197Y012386D01*
X019259Y012345D01*
X019331Y012331D01*
X019403Y012345D01*
X019464Y012386D01*
X019505Y012448D01*
X019519Y01252D01*
X019505Y012592D01*
X019464Y012653D01*
X019403Y012694D01*
X019331Y012708D01*
D02*
G37*
G36*
X015924Y012552D02*
X015887Y012545D01*
X015812Y012495D01*
X015762Y01242D01*
X015755Y012383D01*
X015924D01*
Y012552D01*
D02*
G37*
G36*
X017233Y012641D02*
X017196Y012633D01*
X017121Y012583D01*
X017072Y012509D01*
X017064Y012471D01*
X017233D01*
Y012641D01*
D02*
G37*
G36*
X017333D02*
Y012471D01*
X017503D01*
X017495Y012509D01*
X017446Y012583D01*
X017371Y012633D01*
X017333Y012641D01*
D02*
G37*
G36*
X016024Y012552D02*
Y012383D01*
X016194D01*
X016186Y01242D01*
X016137Y012495D01*
X016062Y012545D01*
X016024Y012552D01*
D02*
G37*
G36*
X014488Y012817D02*
X014416Y012802D01*
X014355Y012761D01*
X014314Y0127D01*
X0143Y012628D01*
X014314Y012556D01*
X014355Y012495D01*
X014416Y012454D01*
X014488Y012439D01*
X01456Y012454D01*
X014622Y012495D01*
X014662Y012556D01*
X014677Y012628D01*
X014662Y0127D01*
X014622Y012761D01*
X01456Y012802D01*
X014488Y012817D01*
D02*
G37*
G36*
X017233Y012371D02*
X017064D01*
X017072Y012333D01*
X017121Y012259D01*
X017196Y012209D01*
X017233Y012202D01*
Y012371D01*
D02*
G37*
G36*
X017503D02*
X017333D01*
Y012202D01*
X017371Y012209D01*
X017446Y012259D01*
X017495Y012333D01*
X017503Y012371D01*
D02*
G37*
G36*
X01251Y012708D02*
X012438Y012694D01*
X012376Y012653D01*
X012336Y012592D01*
X012321Y01252D01*
X012336Y012448D01*
X012376Y012386D01*
X012438Y012345D01*
X012446Y012344D01*
X012449Y012334D01*
X012451Y012292D01*
X012387Y012249D01*
X012337Y012174D01*
X01233Y012137D01*
X012769D01*
X012761Y012174D01*
X012711Y012249D01*
X012637Y012299D01*
X01261Y012304D01*
X012599Y012357D01*
X012643Y012386D01*
X012684Y012448D01*
X012698Y01252D01*
X012684Y012592D01*
X012643Y012653D01*
X012582Y012694D01*
X01251Y012708D01*
D02*
G37*
G36*
X018691Y012561D02*
X018619Y012546D01*
X018558Y012505D01*
X018517Y012444D01*
X018502Y012372D01*
X018517Y0123D01*
X018558Y012239D01*
X018619Y012198D01*
X018691Y012183D01*
X018763Y012198D01*
X018824Y012239D01*
X018865Y0123D01*
X01888Y012372D01*
X018865Y012444D01*
X018824Y012505D01*
X018763Y012546D01*
X018691Y012561D01*
D02*
G37*
G36*
X034753Y012385D02*
X034715Y012377D01*
X034641Y012328D01*
X034591Y012253D01*
X034584Y012215D01*
X034753D01*
Y012385D01*
D02*
G37*
G36*
X033071Y012639D02*
X032999Y012625D01*
X032937Y012584D01*
X032897Y012523D01*
X032882Y012451D01*
X032897Y012379D01*
X032937Y012317D01*
X032999Y012277D01*
X033071Y012262D01*
X033143Y012277D01*
X033204Y012317D01*
X033245Y012379D01*
X033259Y012451D01*
X033245Y012523D01*
X033204Y012584D01*
X033143Y012625D01*
X033071Y012639D01*
D02*
G37*
G36*
X033818Y012499D02*
X033649D01*
X033656Y012461D01*
X033706Y012387D01*
X03378Y012337D01*
X033818Y01233D01*
Y012499D01*
D02*
G37*
G36*
X028881Y012519D02*
X028442D01*
X028449Y012481D01*
X028499Y012407D01*
X028514Y012397D01*
Y012347D01*
X028499Y012337D01*
X028449Y012263D01*
X028442Y012225D01*
X028881D01*
X028873Y012263D01*
X028824Y012337D01*
X028809Y012347D01*
Y012397D01*
X028824Y012407D01*
X028873Y012481D01*
X028881Y012519D01*
D02*
G37*
G36*
X013129Y012411D02*
X01296D01*
X012967Y012373D01*
X013017Y012298D01*
X013091Y012249D01*
X013129Y012241D01*
Y012411D01*
D02*
G37*
G36*
X019006Y013269D02*
X018934Y013255D01*
X018873Y013214D01*
X018832Y013153D01*
X018817Y013081D01*
X018832Y013009D01*
X018873Y012947D01*
X018934Y012906D01*
X019006Y012892D01*
X019078Y012906D01*
X019139Y012947D01*
X01918Y013009D01*
X019195Y013081D01*
X01918Y013153D01*
X019139Y013214D01*
X019078Y013255D01*
X019006Y013269D01*
D02*
G37*
G36*
X019449Y013309D02*
X019377Y013295D01*
X019316Y013254D01*
X019275Y013193D01*
X019261Y01312D01*
X019275Y013048D01*
X019316Y012987D01*
X019377Y012946D01*
X019449Y012932D01*
X019521Y012946D01*
X019583Y012987D01*
X019624Y013048D01*
X019638Y01312D01*
X019624Y013193D01*
X019583Y013254D01*
X019521Y013295D01*
X019449Y013309D01*
D02*
G37*
G36*
X027785Y012962D02*
X027615D01*
X027623Y012924D01*
X027672Y01285D01*
X027747Y0128D01*
X027785Y012792D01*
Y012962D01*
D02*
G37*
G36*
X030079Y013191D02*
X030007Y013176D01*
X029945Y013135D01*
X029904Y013074D01*
X02989Y013002D01*
X029904Y01293D01*
X029945Y012869D01*
X030007Y012828D01*
X030079Y012813D01*
X030151Y012828D01*
X030212Y012869D01*
X030253Y01293D01*
X030267Y013002D01*
X030253Y013074D01*
X030212Y013135D01*
X030151Y013176D01*
X030079Y013191D01*
D02*
G37*
G36*
X024823Y013364D02*
X024751Y013349D01*
X024689Y013309D01*
X024649Y013247D01*
X024634Y013175D01*
X024649Y013103D01*
X024689Y013042D01*
X024751Y013001D01*
X024823Y012987D01*
X024895Y013001D01*
X024956Y013042D01*
X024997Y013103D01*
X025011Y013175D01*
X024997Y013247D01*
X024956Y013309D01*
X024895Y013349D01*
X024823Y013364D01*
D02*
G37*
G36*
X016043Y013378D02*
X015971Y013363D01*
X01591Y013322D01*
X015869Y013261D01*
X015855Y013189D01*
X015869Y013117D01*
X01591Y013056D01*
X015971Y013015D01*
X016043Y013D01*
X016115Y013015D01*
X016177Y013056D01*
X016218Y013117D01*
X016232Y013189D01*
X016218Y013261D01*
X016177Y013322D01*
X016115Y013363D01*
X016043Y013378D01*
D02*
G37*
G36*
X028711Y013221D02*
Y013052D01*
X028881D01*
X028873Y01309D01*
X028824Y013164D01*
X028749Y013214D01*
X028711Y013221D01*
D02*
G37*
G36*
X014144Y013378D02*
X014072Y013363D01*
X01401Y013322D01*
X013969Y013261D01*
X013955Y013189D01*
X013969Y013117D01*
X01401Y013056D01*
X014072Y013015D01*
X014144Y013D01*
X014216Y013015D01*
X014277Y013056D01*
X014318Y013117D01*
X014332Y013189D01*
X014318Y013261D01*
X014277Y013322D01*
X014216Y013363D01*
X014144Y013378D01*
D02*
G37*
G36*
X015157D02*
X015085Y013363D01*
X015024Y013322D01*
X014983Y013261D01*
X014969Y013189D01*
X014983Y013117D01*
X015024Y013056D01*
X015085Y013015D01*
X015157Y013D01*
X01523Y013015D01*
X015291Y013056D01*
X015332Y013117D01*
X015346Y013189D01*
X015332Y013261D01*
X015291Y013322D01*
X01523Y013363D01*
X015157Y013378D01*
D02*
G37*
G36*
X033818Y012769D02*
X03378Y012761D01*
X033706Y012711D01*
X033656Y012637D01*
X033649Y012599D01*
X033818D01*
Y012769D01*
D02*
G37*
G36*
X033918D02*
Y012599D01*
X034088D01*
X03408Y012637D01*
X03403Y012711D01*
X033956Y012761D01*
X033918Y012769D01*
D02*
G37*
G36*
X013129Y01268D02*
X013091Y012673D01*
X013017Y012623D01*
X012967Y012548D01*
X01296Y012511D01*
X013129D01*
Y01268D01*
D02*
G37*
G36*
X013229D02*
Y012511D01*
X013399D01*
X013391Y012548D01*
X013341Y012623D01*
X013267Y012673D01*
X013229Y01268D01*
D02*
G37*
G36*
X028298Y013231D02*
Y013012D01*
Y012792D01*
X028336Y0128D01*
X02841Y01285D01*
X028426Y012874D01*
X028476D01*
X028499Y01284D01*
X028535Y012816D01*
Y012755D01*
X028499Y012731D01*
X028449Y012657D01*
X028442Y012619D01*
X028881D01*
X028873Y012657D01*
X028824Y012731D01*
X028787Y012755D01*
Y012816D01*
X028824Y01284D01*
X028873Y012914D01*
X028881Y012952D01*
X028661D01*
Y013002D01*
X028611D01*
Y013221D01*
X028574Y013214D01*
X028499Y013164D01*
X028483Y01314D01*
X028433D01*
X02841Y013174D01*
X028336Y013224D01*
X028298Y013231D01*
D02*
G37*
G36*
X032726Y013092D02*
X032654Y013078D01*
X032593Y013037D01*
X032552Y012976D01*
X032538Y012904D01*
X032552Y012831D01*
X032593Y01277D01*
X032654Y012729D01*
X032726Y012715D01*
X032799Y012729D01*
X03286Y01277D01*
X032901Y012831D01*
X032915Y012904D01*
X032901Y012976D01*
X03286Y013037D01*
X032799Y013078D01*
X032726Y013092D01*
D02*
G37*
G36*
X010906Y013141D02*
X010833Y013127D01*
X010772Y013086D01*
X010731Y013025D01*
X010717Y012953D01*
X010731Y012881D01*
X010772Y012819D01*
X010833Y012778D01*
X010906Y012764D01*
X010978Y012778D01*
X011039Y012819D01*
X01108Y012881D01*
X011094Y012953D01*
X01108Y013025D01*
X011039Y013086D01*
X010978Y013127D01*
X010906Y013141D01*
D02*
G37*
G36*
X02062Y013043D02*
X020548Y013029D01*
X020487Y012988D01*
X020446Y012927D01*
X020431Y012854D01*
X020446Y012782D01*
X020487Y012721D01*
X020548Y01268D01*
X02062Y012666D01*
X020692Y01268D01*
X020753Y012721D01*
X020794Y012782D01*
X020809Y012854D01*
X020794Y012927D01*
X020753Y012988D01*
X020692Y013029D01*
X02062Y013043D01*
D02*
G37*
G36*
X031713Y013053D02*
X03164Y013038D01*
X031579Y012998D01*
X031538Y012936D01*
X031524Y012864D01*
X031538Y012792D01*
X031579Y012731D01*
X03164Y01269D01*
X031713Y012676D01*
X031785Y01269D01*
X031846Y012731D01*
X031887Y012792D01*
X031901Y012864D01*
X031887Y012936D01*
X031846Y012998D01*
X031785Y013038D01*
X031713Y013053D01*
D02*
G37*
G36*
X030885Y010338D02*
X030847Y01033D01*
X030773Y01028D01*
X030723Y010206D01*
X030716Y010168D01*
X030885D01*
Y010338D01*
D02*
G37*
G36*
X028133Y007666D02*
X027963D01*
Y007496D01*
X028001Y007504D01*
X028076Y007554D01*
X028125Y007628D01*
X028133Y007666D01*
D02*
G37*
G36*
X032745Y007706D02*
X032576D01*
X032583Y007668D01*
X032633Y007594D01*
X032707Y007544D01*
X032745Y007536D01*
Y007706D01*
D02*
G37*
G36*
X020078Y007745D02*
Y007373D01*
X020449D01*
X020441Y007434D01*
X020399Y007537D01*
X020331Y007626D01*
X020242Y007694D01*
X020138Y007737D01*
X020078Y007745D01*
D02*
G37*
G36*
X027391Y007666D02*
X027221D01*
X027229Y007628D01*
X027279Y007554D01*
X027353Y007504D01*
X027391Y007496D01*
Y007666D01*
D02*
G37*
G36*
X033015Y007706D02*
X032845D01*
Y007536D01*
X032883Y007544D01*
X032957Y007594D01*
X033007Y007668D01*
X033015Y007706D01*
D02*
G37*
G36*
X031456Y007719D02*
X031418Y007712D01*
X031344Y007662D01*
X031294Y007588D01*
X031286Y00755D01*
X031456D01*
Y007719D01*
D02*
G37*
G36*
X031556D02*
Y00755D01*
X031725D01*
X031718Y007588D01*
X031668Y007662D01*
X031594Y007712D01*
X031556Y007719D01*
D02*
G37*
G36*
X025107D02*
X02507Y007712D01*
X024995Y007662D01*
X024946Y007588D01*
X024938Y00755D01*
X025107D01*
Y007719D01*
D02*
G37*
G36*
X025207D02*
Y00755D01*
X025377D01*
X025369Y007588D01*
X02532Y007662D01*
X025245Y007712D01*
X025207Y007719D01*
D02*
G37*
G36*
X015856Y007385D02*
X015818Y007377D01*
X015743Y007328D01*
X015694Y007253D01*
X015686Y007215D01*
X015856D01*
Y007385D01*
D02*
G37*
G36*
X015956D02*
Y007215D01*
X016125D01*
X016117Y007253D01*
X016068Y007328D01*
X015993Y007377D01*
X015956Y007385D01*
D02*
G37*
G36*
X02688Y007413D02*
X026808Y007399D01*
X026747Y007358D01*
X026706Y007297D01*
X026691Y007224D01*
X026706Y007152D01*
X026747Y007091D01*
X026808Y00705D01*
X02688Y007036D01*
X026952Y00705D01*
X027013Y007091D01*
X027054Y007152D01*
X027069Y007224D01*
X027054Y007297D01*
X027013Y007358D01*
X026952Y007399D01*
X02688Y007413D01*
D02*
G37*
G36*
X031239Y007267D02*
X031202Y007259D01*
X031127Y007209D01*
X031077Y007135D01*
X03107Y007097D01*
X031239D01*
Y007267D01*
D02*
G37*
G36*
X031456Y00745D02*
X031286D01*
X031294Y007412D01*
X031344Y007338D01*
X031379Y007314D01*
X031397Y007302D01*
X031377Y007259D01*
X031353Y007264D01*
X031339Y007267D01*
Y007097D01*
X031509D01*
X031501Y007135D01*
X031452Y007209D01*
X031417Y007233D01*
X031399Y007245D01*
X031418Y007288D01*
X031442Y007283D01*
X031456Y007281D01*
Y00745D01*
D02*
G37*
G36*
X031725D02*
X031556D01*
Y007281D01*
X031594Y007288D01*
X031668Y007338D01*
X031718Y007412D01*
X031725Y00745D01*
D02*
G37*
G36*
X019978Y007745D02*
X019917Y007737D01*
X019813Y007694D01*
X019725Y007626D01*
X019656Y007537D01*
X019614Y007434D01*
X019606Y007373D01*
X019978D01*
Y007745D01*
D02*
G37*
G36*
X025107Y00745D02*
X024938D01*
X024946Y007412D01*
X024995Y007338D01*
X02507Y007288D01*
X025107Y007281D01*
Y00745D01*
D02*
G37*
G36*
X025377D02*
X025207D01*
Y007281D01*
X025245Y007288D01*
X02532Y007338D01*
X025369Y007412D01*
X025377Y00745D01*
D02*
G37*
G36*
X027391Y008217D02*
X027221D01*
X027229Y008179D01*
X027279Y008105D01*
X027353Y008055D01*
X027391Y008048D01*
Y008217D01*
D02*
G37*
G36*
X028133D02*
X027963D01*
Y008048D01*
X028001Y008055D01*
X028076Y008105D01*
X028125Y008179D01*
X028133Y008217D01*
D02*
G37*
G36*
X012441Y008319D02*
X012369Y008304D01*
X012308Y008263D01*
X012267Y008202D01*
X012252Y00813D01*
X012267Y008058D01*
X012308Y007997D01*
X012369Y007956D01*
X012441Y007941D01*
X012513Y007956D01*
X012574Y007997D01*
X012615Y008058D01*
X01263Y00813D01*
X012615Y008202D01*
X012574Y008263D01*
X012513Y008304D01*
X012441Y008319D01*
D02*
G37*
G36*
X034753Y008178D02*
X034584D01*
X034591Y008141D01*
X034641Y008066D01*
X034715Y008016D01*
X034753Y008009D01*
Y008178D01*
D02*
G37*
G36*
X029385Y008481D02*
X029313Y008467D01*
X029252Y008426D01*
X029211Y008365D01*
X029197Y008293D01*
X029211Y00822D01*
X029252Y008159D01*
X029313Y008118D01*
X029385Y008104D01*
X029457Y008118D01*
X029519Y008159D01*
X029559Y00822D01*
X029574Y008293D01*
X029559Y008365D01*
X029519Y008426D01*
X029457Y008467D01*
X029385Y008481D01*
D02*
G37*
G36*
X010247Y008369D02*
Y0082D01*
X010416D01*
X010409Y008237D01*
X010359Y008312D01*
X010285Y008362D01*
X010247Y008369D01*
D02*
G37*
G36*
X034753Y008448D02*
X034715Y00844D01*
X034641Y008391D01*
X034591Y008316D01*
X034584Y008278D01*
X034753D01*
Y008448D01*
D02*
G37*
G36*
X014311Y008889D02*
X014239Y008875D01*
X014178Y008834D01*
X014137Y008773D01*
X014122Y008701D01*
X014137Y008629D01*
X014178Y008567D01*
X014239Y008527D01*
X014311Y008512D01*
X014356Y008521D01*
X014376Y008474D01*
X014355Y00846D01*
X014314Y008399D01*
X0143Y008327D01*
X014314Y008255D01*
X014355Y008193D01*
X014416Y008153D01*
X014488Y008138D01*
X01456Y008153D01*
X014622Y008193D01*
X014662Y008255D01*
X014677Y008327D01*
X014662Y008399D01*
X014622Y00846D01*
X01456Y008501D01*
X014488Y008515D01*
X014443Y008506D01*
X014424Y008554D01*
X014444Y008567D01*
X014485Y008629D01*
X0145Y008701D01*
X014485Y008773D01*
X014444Y008834D01*
X014383Y008875D01*
X014311Y008889D01*
D02*
G37*
G36*
X033504Y008574D02*
X033432Y00856D01*
X033371Y008519D01*
X03333Y008458D01*
X033315Y008386D01*
X03333Y008314D01*
X033371Y008252D01*
X033432Y008212D01*
X033504Y008197D01*
X033576Y008212D01*
X033637Y008252D01*
X033678Y008314D01*
X033693Y008386D01*
X033678Y008458D01*
X033637Y008519D01*
X033576Y00856D01*
X033504Y008574D01*
D02*
G37*
G36*
X027391Y007935D02*
X027353Y007928D01*
X027279Y007878D01*
X027229Y007804D01*
X027221Y007766D01*
X027391D01*
Y007935D01*
D02*
G37*
G36*
X027963D02*
Y007766D01*
X028133D01*
X028125Y007804D01*
X028076Y007878D01*
X028001Y007928D01*
X027963Y007935D01*
D02*
G37*
G36*
X014642Y007694D02*
X014575Y007685D01*
X014512Y007659D01*
X014459Y007618D01*
X014419Y007567D01*
X014392Y007563D01*
X014391D01*
X014364Y007567D01*
X014325Y007618D01*
X014271Y007659D01*
X014209Y007685D01*
X014142Y007694D01*
X014075Y007685D01*
X014012Y007659D01*
X013959Y007618D01*
X013919Y007567D01*
X013892Y007563D01*
X013891D01*
X013864Y007567D01*
X013825Y007618D01*
X013771Y007659D01*
X013709Y007685D01*
X013642Y007694D01*
X013575Y007685D01*
X013512Y007659D01*
X013459Y007618D01*
X013419Y007567D01*
X013392Y007563D01*
X013391D01*
X013364Y007567D01*
X013325Y007618D01*
X013271Y007659D01*
X013209Y007685D01*
X013142Y007694D01*
X013075Y007685D01*
X013012Y007659D01*
X012959Y007618D01*
X012919Y007567D01*
X012892Y007563D01*
X012891D01*
X012864Y007567D01*
X012825Y007618D01*
X012771Y007659D01*
X012709Y007685D01*
X012642Y007694D01*
X012575Y007685D01*
X012512Y007659D01*
X012459Y007618D01*
X012417Y007565D01*
X012391Y007502D01*
X012383Y007435D01*
X012391Y007368D01*
X012417Y007306D01*
X012459Y007252D01*
X01251Y007213D01*
X012514Y007186D01*
Y007185D01*
X01251Y007158D01*
X012459Y007118D01*
X012417Y007065D01*
X012391Y007002D01*
X012383Y006935D01*
X012391Y006868D01*
X012417Y006806D01*
X012459Y006752D01*
X012512Y006711D01*
X012575Y006685D01*
X012642Y006676D01*
X012709Y006685D01*
X012771Y006711D01*
X012825Y006752D01*
X012864Y006803D01*
X012891Y006807D01*
X012892D01*
X012919Y006803D01*
X012959Y006752D01*
X013012Y006711D01*
X013075Y006685D01*
X013142Y006676D01*
X013209Y006685D01*
X013271Y006711D01*
X013325Y006752D01*
X013336Y006766D01*
X013344Y006769D01*
X013398Y006765D01*
X01343Y006723D01*
X013492Y006676D01*
X013564Y006646D01*
X013592Y006642D01*
Y006935D01*
X013692D01*
Y006642D01*
X013719Y006646D01*
X013791Y006676D01*
X013853Y006723D01*
X013867Y006741D01*
X013917D01*
X01393Y006723D01*
X013992Y006676D01*
X014064Y006646D01*
X014092Y006642D01*
Y006935D01*
X014192D01*
Y006642D01*
X014219Y006646D01*
X014291Y006676D01*
X014353Y006723D01*
X014385Y006765D01*
X01444Y006769D01*
X014447Y006766D01*
X014459Y006752D01*
X014512Y006711D01*
X014575Y006685D01*
X014642Y006676D01*
X014709Y006685D01*
X014771Y006711D01*
X014825Y006752D01*
X014866Y006806D01*
X014892Y006868D01*
X014901Y006935D01*
X014892Y007002D01*
X014866Y007065D01*
X014825Y007118D01*
X014774Y007158D01*
X01477Y007185D01*
Y007186D01*
X014774Y007213D01*
X014825Y007252D01*
X014866Y007306D01*
X014892Y007368D01*
X014901Y007435D01*
X014892Y007502D01*
X014866Y007565D01*
X014825Y007618D01*
X014771Y007659D01*
X014709Y007685D01*
X014642Y007694D01*
D02*
G37*
G36*
X01185Y007994D02*
X011778Y007979D01*
X011717Y007939D01*
X011676Y007877D01*
X011662Y007805D01*
X011676Y007733D01*
X011717Y007672D01*
X011778Y007631D01*
X01185Y007616D01*
X011923Y007631D01*
X011984Y007672D01*
X012025Y007733D01*
X012039Y007805D01*
X012025Y007877D01*
X011984Y007939D01*
X011923Y007979D01*
X01185Y007994D01*
D02*
G37*
G36*
X027863Y007935D02*
X027826Y007928D01*
X027751Y007878D01*
X027703Y007807D01*
X027682Y007804D01*
X027673D01*
X027651Y007807D01*
X027603Y007878D01*
X027529Y007928D01*
X027491Y007935D01*
Y007716D01*
Y007496D01*
X027529Y007504D01*
X027603Y007554D01*
X027651Y007625D01*
X027673Y007628D01*
X027682D01*
X027703Y007625D01*
X027751Y007554D01*
X027826Y007504D01*
X027863Y007496D01*
Y007716D01*
Y007935D01*
D02*
G37*
G36*
X018691Y00824D02*
X018619Y008225D01*
X018558Y008185D01*
X018517Y008123D01*
X018502Y008051D01*
X018517Y007979D01*
X018558Y007918D01*
X018619Y007877D01*
X018691Y007863D01*
X018763Y007877D01*
X018824Y007918D01*
X018865Y007979D01*
X01888Y008051D01*
X018865Y008123D01*
X018824Y008185D01*
X018763Y008225D01*
X018691Y00824D01*
D02*
G37*
G36*
X010416Y0081D02*
X010247D01*
Y00793D01*
X010285Y007938D01*
X010359Y007987D01*
X010409Y008062D01*
X010416Y0081D01*
D02*
G37*
G36*
X032745Y007975D02*
X032707Y007968D01*
X032633Y007918D01*
X032583Y007844D01*
X032576Y007806D01*
X032745D01*
Y007975D01*
D02*
G37*
G36*
X032845D02*
Y007806D01*
X033015D01*
X033007Y007844D01*
X032957Y007918D01*
X032883Y007968D01*
X032845Y007975D01*
D02*
G37*
G36*
X016125Y007115D02*
X015956D01*
Y006946D01*
X015993Y006953D01*
X016068Y007003D01*
X016117Y007078D01*
X016125Y007115D01*
D02*
G37*
G36*
X022233Y006479D02*
X022196Y006472D01*
X022121Y006422D01*
X022072Y006348D01*
X022064Y00631D01*
X022233D01*
Y006479D01*
D02*
G37*
G36*
X022333D02*
Y00631D01*
X022503D01*
X022495Y006348D01*
X022446Y006422D01*
X022371Y006472D01*
X022333Y006479D01*
D02*
G37*
G36*
X020462D02*
X020424Y006472D01*
X02035Y006422D01*
X0203Y006348D01*
X020292Y00631D01*
X020462D01*
Y006479D01*
D02*
G37*
G36*
X020562D02*
Y00631D01*
X020731D01*
X020724Y006348D01*
X020674Y006422D01*
X0206Y006472D01*
X020562Y006479D01*
D02*
G37*
G36*
X02432D02*
X024282Y006472D01*
X024208Y006422D01*
X024158Y006348D01*
X024151Y00631D01*
X02432D01*
Y006479D01*
D02*
G37*
G36*
X026507D02*
Y00631D01*
X026676D01*
X026669Y006348D01*
X026619Y006422D01*
X026544Y006472D01*
X026507Y006479D01*
D02*
G37*
G36*
X028493D02*
X028456Y006472D01*
X028381Y006422D01*
X028331Y006348D01*
X028324Y00631D01*
X028493D01*
Y006479D01*
D02*
G37*
G36*
X02442D02*
Y00631D01*
X02459D01*
X024582Y006348D01*
X024532Y006422D01*
X024458Y006472D01*
X02442Y006479D01*
D02*
G37*
G36*
X026407D02*
X026369Y006472D01*
X026294Y006422D01*
X026245Y006348D01*
X026237Y00631D01*
X026407D01*
Y006479D01*
D02*
G37*
G36*
X012333D02*
Y00631D01*
X012503D01*
X012495Y006348D01*
X012446Y006422D01*
X012371Y006472D01*
X012333Y006479D01*
D02*
G37*
G36*
X01432D02*
X014282Y006472D01*
X014208Y006422D01*
X014158Y006348D01*
X014151Y00631D01*
X01432D01*
Y006479D01*
D02*
G37*
G36*
X010247D02*
Y00631D01*
X010416D01*
X010409Y006348D01*
X010359Y006422D01*
X010285Y006472D01*
X010247Y006479D01*
D02*
G37*
G36*
X012233D02*
X012196Y006472D01*
X012121Y006422D01*
X012072Y006348D01*
X012064Y00631D01*
X012233D01*
Y006479D01*
D02*
G37*
G36*
X01442D02*
Y00631D01*
X01459D01*
X014582Y006348D01*
X014532Y006422D01*
X014458Y006472D01*
X01442Y006479D01*
D02*
G37*
G36*
X018493D02*
X018456Y006472D01*
X018381Y006422D01*
X018331Y006348D01*
X018324Y00631D01*
X018493D01*
Y006479D01*
D02*
G37*
G36*
X018593D02*
Y00631D01*
X018763D01*
X018755Y006348D01*
X018706Y006422D01*
X018631Y006472D01*
X018593Y006479D01*
D02*
G37*
G36*
X016407D02*
X016369Y006472D01*
X016294Y006422D01*
X016245Y006348D01*
X016237Y00631D01*
X016407D01*
Y006479D01*
D02*
G37*
G36*
X016507D02*
Y00631D01*
X016676D01*
X016669Y006348D01*
X016619Y006422D01*
X016544Y006472D01*
X016507Y006479D01*
D02*
G37*
G36*
X031239Y006997D02*
X03107D01*
X031077Y006959D01*
X031127Y006885D01*
X031202Y006835D01*
X031239Y006828D01*
Y006997D01*
D02*
G37*
G36*
X031509D02*
X031339D01*
Y006828D01*
X031377Y006835D01*
X031452Y006885D01*
X031501Y006959D01*
X031509Y006997D01*
D02*
G37*
G36*
X033661Y007848D02*
X033515Y007829D01*
X033379Y007773D01*
X033262Y007683D01*
X033172Y007566D01*
X033116Y00743D01*
X033097Y007283D01*
X033116Y007137D01*
X033172Y007001D01*
X033262Y006884D01*
X033379Y006794D01*
X033515Y006738D01*
X033661Y006719D01*
X033808Y006738D01*
X033944Y006794D01*
X034061Y006884D01*
X034151Y007001D01*
X034207Y007137D01*
X034226Y007283D01*
X034207Y00743D01*
X034151Y007566D01*
X034061Y007683D01*
X033944Y007773D01*
X033808Y007829D01*
X033661Y007848D01*
D02*
G37*
G36*
X024488Y007108D02*
X024416Y007094D01*
X024355Y007053D01*
X024314Y006991D01*
X0243Y006919D01*
X024314Y006847D01*
X024355Y006786D01*
X024416Y006745D01*
X024488Y006731D01*
X02456Y006745D01*
X024622Y006786D01*
X024662Y006847D01*
X024677Y006919D01*
X024662Y006991D01*
X024622Y007053D01*
X02456Y007094D01*
X024488Y007108D01*
D02*
G37*
G36*
X019978Y007273D02*
X019606D01*
X019614Y007212D01*
X019656Y007109D01*
X019725Y00702D01*
X019813Y006952D01*
X019917Y006909D01*
X019978Y006901D01*
Y007273D01*
D02*
G37*
G36*
X030226Y007315D02*
X030154Y0073D01*
X030093Y007259D01*
X030052Y007198D01*
X030038Y007126D01*
X030052Y007054D01*
X030093Y006993D01*
X030154Y006952D01*
X030226Y006937D01*
X030299Y006952D01*
X03036Y006993D01*
X030401Y007054D01*
X030415Y007126D01*
X030401Y007198D01*
X03036Y007259D01*
X030299Y0073D01*
X030226Y007315D01*
D02*
G37*
G36*
X015856Y007115D02*
X015686D01*
X015694Y007078D01*
X015743Y007003D01*
X015818Y006953D01*
X015856Y006946D01*
Y007115D01*
D02*
G37*
G36*
X020449Y007273D02*
X020078D01*
Y006901D01*
X020138Y006909D01*
X020242Y006952D01*
X020331Y00702D01*
X020399Y007109D01*
X020441Y007212D01*
X020449Y007273D01*
D02*
G37*
G36*
X019028Y007711D02*
X018927Y007698D01*
X018834Y007659D01*
X018753Y007597D01*
X018691Y007517D01*
X018653Y007423D01*
X018639Y007323D01*
X018653Y007222D01*
X018691Y007129D01*
X018753Y007048D01*
X018834Y006987D01*
X018927Y006948D01*
X019028Y006935D01*
X019128Y006948D01*
X019222Y006987D01*
X019302Y007048D01*
X019364Y007129D01*
X019402Y007222D01*
X019416Y007323D01*
X019402Y007423D01*
X019364Y007517D01*
X019302Y007597D01*
X019222Y007659D01*
X019128Y007698D01*
X019028Y007711D01*
D02*
G37*
G36*
X03068Y006479D02*
Y00631D01*
X030849D01*
X030842Y006348D01*
X030792Y006422D01*
X030718Y006472D01*
X03068Y006479D01*
D02*
G37*
G36*
X032667D02*
X032629Y006472D01*
X032554Y006422D01*
X032505Y006348D01*
X032497Y00631D01*
X032667D01*
Y006479D01*
D02*
G37*
G36*
X028593D02*
Y00631D01*
X028763D01*
X028755Y006348D01*
X028706Y006422D01*
X028631Y006472D01*
X028593Y006479D01*
D02*
G37*
G36*
X03058D02*
X030542Y006472D01*
X030468Y006422D01*
X030418Y006348D01*
X03041Y00631D01*
X03058D01*
Y006479D01*
D02*
G37*
G36*
X032767D02*
Y00631D01*
X032936D01*
X032928Y006348D01*
X032879Y006422D01*
X032804Y006472D01*
X032767Y006479D01*
D02*
G37*
G36*
X010984Y007681D02*
X010861Y007669D01*
X010742Y007633D01*
X010632Y007574D01*
X010536Y007495D01*
X010457Y007399D01*
X010399Y00729D01*
X010363Y007171D01*
X01035Y007047D01*
X010363Y006924D01*
X010399Y006805D01*
X010457Y006695D01*
X010536Y006599D01*
X010632Y00652D01*
X010742Y006462D01*
X010861Y006426D01*
X010984Y006413D01*
X011108Y006426D01*
X011227Y006462D01*
X011336Y00652D01*
X011432Y006599D01*
X011511Y006695D01*
X01157Y006805D01*
X011606Y006924D01*
X011618Y007047D01*
X011606Y007171D01*
X01157Y00729D01*
X011511Y007399D01*
X011432Y007495D01*
X011336Y007574D01*
X011227Y007633D01*
X011108Y007669D01*
X010984Y007681D01*
D02*
G37*
G36*
X022244Y007848D02*
X022098Y007829D01*
X021962Y007773D01*
X021845Y007683D01*
X021755Y007566D01*
X021699Y00743D01*
X021679Y007283D01*
X021699Y007137D01*
X021755Y007001D01*
X021845Y006884D01*
X021962Y006794D01*
X022098Y006738D01*
X022244Y006719D01*
X02239Y006738D01*
X022527Y006794D01*
X022643Y006884D01*
X022733Y007001D01*
X02279Y007137D01*
X022809Y007283D01*
X02279Y00743D01*
X022733Y007566D01*
X022643Y007683D01*
X022527Y007773D01*
X02239Y007829D01*
X022244Y007848D01*
D02*
G37*
G36*
X034753Y006479D02*
X034715Y006472D01*
X034641Y006422D01*
X034591Y006348D01*
X034584Y00631D01*
X034753D01*
Y006479D01*
D02*
G37*
G36*
X023986Y006773D02*
X023914Y006759D01*
X023853Y006718D01*
X023812Y006657D01*
X023798Y006585D01*
X023812Y006512D01*
X023853Y006451D01*
X023914Y00641D01*
X023986Y006396D01*
X024058Y00641D01*
X02412Y006451D01*
X02416Y006512D01*
X024175Y006585D01*
X02416Y006657D01*
X02412Y006718D01*
X024058Y006759D01*
X023986Y006773D01*
D02*
G37*
G36*
X031476Y010068D02*
X031306D01*
X031314Y01003D01*
X031363Y009956D01*
X031438Y009906D01*
X031476Y009899D01*
Y010068D01*
D02*
G37*
G36*
X031745D02*
X031576D01*
Y009899D01*
X031613Y009906D01*
X031688Y009956D01*
X031738Y01003D01*
X031745Y010068D01*
D02*
G37*
G36*
X030294D02*
X030125D01*
X030133Y01003D01*
X030182Y009956D01*
X030257Y009906D01*
X030294Y009899D01*
Y010068D01*
D02*
G37*
G36*
X030564D02*
X030394D01*
Y009899D01*
X030432Y009906D01*
X030507Y009956D01*
X030556Y01003D01*
X030564Y010068D01*
D02*
G37*
G36*
X032657D02*
X032487D01*
X032495Y01003D01*
X032544Y009956D01*
X032619Y009906D01*
X032657Y009899D01*
Y010068D01*
D02*
G37*
G36*
X030885Y010068D02*
X030716D01*
X030723Y01003D01*
X030773Y009956D01*
X030847Y009906D01*
X030885Y009899D01*
Y010068D01*
D02*
G37*
G36*
X031154D02*
X030985D01*
Y009899D01*
X031023Y009906D01*
X031097Y009956D01*
X031147Y01003D01*
X031154Y010068D01*
D02*
G37*
G36*
X032926Y010068D02*
X032757D01*
Y009899D01*
X032794Y009906D01*
X032869Y009956D01*
X032919Y01003D01*
X032926Y010068D01*
D02*
G37*
G36*
X010416Y010068D02*
X010247D01*
Y009899D01*
X010285Y009906D01*
X010359Y009956D01*
X010409Y01003D01*
X010416Y010068D01*
D02*
G37*
G36*
X01188Y009726D02*
X011808Y009712D01*
X011747Y009671D01*
X011706Y00961D01*
X011691Y009537D01*
X011706Y009465D01*
X011747Y009404D01*
X011808Y009363D01*
X01188Y009349D01*
X011952Y009363D01*
X012013Y009404D01*
X012054Y009465D01*
X012069Y009537D01*
X012054Y00961D01*
X012013Y009671D01*
X011952Y009712D01*
X01188Y009726D01*
D02*
G37*
G36*
X010915Y009746D02*
X010843Y009731D01*
X010782Y00969D01*
X010741Y009629D01*
X010727Y009557D01*
X010741Y009485D01*
X010782Y009424D01*
X010843Y009383D01*
X010915Y009368D01*
X010988Y009383D01*
X011049Y009424D01*
X01109Y009485D01*
X011104Y009557D01*
X01109Y009629D01*
X011049Y00969D01*
X010988Y009731D01*
X010915Y009746D01*
D02*
G37*
G36*
X020521Y009517D02*
X020351D01*
X020359Y009479D01*
X020409Y009405D01*
X020483Y009355D01*
X020521Y009347D01*
Y009517D01*
D02*
G37*
G36*
X02079D02*
X020621D01*
Y009347D01*
X020659Y009355D01*
X020733Y009405D01*
X020783Y009479D01*
X02079Y009517D01*
D02*
G37*
G36*
X027963Y009589D02*
Y009419D01*
X028133D01*
X028125Y009457D01*
X028076Y009532D01*
X028001Y009581D01*
X027963Y009589D01*
D02*
G37*
G36*
X020621Y009786D02*
Y009617D01*
X02079D01*
X020783Y009655D01*
X020733Y009729D01*
X020659Y009779D01*
X020621Y009786D01*
D02*
G37*
G36*
X011919Y010258D02*
X011847Y010243D01*
X011786Y010202D01*
X011745Y010141D01*
X011731Y010069D01*
X011745Y009997D01*
X011786Y009936D01*
X011847Y009895D01*
X011919Y00988D01*
X011991Y009895D01*
X012053Y009936D01*
X012094Y009997D01*
X012108Y010069D01*
X012094Y010141D01*
X012053Y010202D01*
X011991Y010243D01*
X011919Y010258D01*
D02*
G37*
G36*
X027391Y009589D02*
X027353Y009581D01*
X027279Y009532D01*
X027229Y009457D01*
X027221Y009419D01*
X027391D01*
Y009589D01*
D02*
G37*
G36*
X020521Y009786D02*
X020483Y009779D01*
X020409Y009729D01*
X020359Y009655D01*
X020351Y009617D01*
X020521D01*
Y009786D01*
D02*
G37*
G36*
X030294Y010338D02*
X030257Y01033D01*
X030182Y01028D01*
X030133Y010206D01*
X030125Y010168D01*
X030294D01*
Y010338D01*
D02*
G37*
G36*
X030394D02*
Y010168D01*
X030564D01*
X030556Y010206D01*
X030507Y01028D01*
X030432Y01033D01*
X030394Y010338D01*
D02*
G37*
G36*
X034373Y010226D02*
X034204D01*
Y010056D01*
X034241Y010064D01*
X034316Y010113D01*
X034365Y010188D01*
X034373Y010226D01*
D02*
G37*
G36*
X028819Y010484D02*
X028747Y01047D01*
X028686Y010429D01*
X028645Y010367D01*
X02863Y010295D01*
X028645Y010223D01*
X028686Y010162D01*
X028747Y010121D01*
X028819Y010107D01*
X028891Y010121D01*
X028952Y010162D01*
X028993Y010223D01*
X029008Y010295D01*
X028993Y010367D01*
X028952Y010429D01*
X028891Y01047D01*
X028819Y010484D01*
D02*
G37*
G36*
X031476Y010338D02*
X031438Y01033D01*
X031363Y01028D01*
X031314Y010206D01*
X031306Y010168D01*
X031476D01*
Y010338D01*
D02*
G37*
G36*
X032757D02*
Y010168D01*
X032926D01*
X032919Y010206D01*
X032869Y01028D01*
X032794Y01033D01*
X032757Y010338D01*
D02*
G37*
G36*
X010247Y010338D02*
Y010168D01*
X010416D01*
X010409Y010206D01*
X010359Y01028D01*
X010285Y01033D01*
X010247Y010338D01*
D02*
G37*
G36*
X031576Y010338D02*
Y010168D01*
X031745D01*
X031738Y010206D01*
X031688Y01028D01*
X031613Y01033D01*
X031576Y010338D01*
D02*
G37*
G36*
X032657D02*
X032619Y01033D01*
X032544Y01028D01*
X032495Y010206D01*
X032487Y010168D01*
X032657D01*
Y010338D01*
D02*
G37*
G36*
X023858Y010336D02*
X023786Y010322D01*
X023725Y010281D01*
X023684Y01022D01*
X02367Y010148D01*
X023684Y010075D01*
X023725Y010014D01*
X023786Y009973D01*
X023858Y009959D01*
X02393Y009973D01*
X023992Y010014D01*
X024033Y010075D01*
X024047Y010148D01*
X024033Y01022D01*
X023992Y010281D01*
X02393Y010322D01*
X023858Y010336D01*
D02*
G37*
G36*
X034753Y010147D02*
X034584D01*
X034591Y010109D01*
X034641Y010035D01*
X034715Y009985D01*
X034753Y009977D01*
Y010147D01*
D02*
G37*
G36*
X032066Y010068D02*
X031897D01*
X031904Y01003D01*
X031954Y009956D01*
X032028Y009906D01*
X032066Y009899D01*
Y010068D01*
D02*
G37*
G36*
X032336D02*
X032166D01*
Y009899D01*
X032204Y009906D01*
X032278Y009956D01*
X032328Y01003D01*
X032336Y010068D01*
D02*
G37*
G36*
X01742Y010176D02*
X017251D01*
X017259Y010139D01*
X017308Y010064D01*
X017383Y010014D01*
X01742Y010007D01*
Y010176D01*
D02*
G37*
G36*
X016821Y010415D02*
X016749Y010401D01*
X016687Y01036D01*
X016647Y010299D01*
X016632Y010226D01*
X016647Y010154D01*
X016687Y010093D01*
X016749Y010052D01*
X016821Y010038D01*
X016893Y010052D01*
X016954Y010093D01*
X016995Y010154D01*
X017009Y010226D01*
X016995Y010299D01*
X016954Y01036D01*
X016893Y010401D01*
X016821Y010415D01*
D02*
G37*
G36*
X034104Y010226D02*
X033934D01*
X033942Y010188D01*
X033991Y010113D01*
X034066Y010064D01*
X034104Y010056D01*
Y010226D01*
D02*
G37*
G36*
X01769Y010176D02*
X01752D01*
Y010007D01*
X017558Y010014D01*
X017633Y010064D01*
X017682Y010139D01*
X01769Y010176D01*
D02*
G37*
G36*
X019734Y010385D02*
X019662Y010371D01*
X019601Y01033D01*
X01956Y010269D01*
X019546Y010197D01*
X01956Y010125D01*
X019601Y010063D01*
X019662Y010023D01*
X019734Y010008D01*
X019806Y010023D01*
X019868Y010063D01*
X019909Y010125D01*
X019923Y010197D01*
X019909Y010269D01*
X019868Y01033D01*
X019806Y010371D01*
X019734Y010385D01*
D02*
G37*
G36*
X024991Y009501D02*
Y009331D01*
X02516D01*
X025153Y009369D01*
X025103Y009444D01*
X025029Y009493D01*
X024991Y009501D01*
D02*
G37*
G36*
X027391Y008768D02*
X027221D01*
X027229Y00873D01*
X027279Y008656D01*
X027353Y008606D01*
X027391Y008599D01*
Y008768D01*
D02*
G37*
G36*
X028133D02*
X027963D01*
Y008599D01*
X028001Y008606D01*
X028076Y008656D01*
X028125Y00873D01*
X028133Y008768D01*
D02*
G37*
G36*
X03128Y00888D02*
X031207Y008865D01*
X031146Y008824D01*
X031105Y008763D01*
X031091Y008691D01*
X031105Y008619D01*
X031146Y008558D01*
X031207Y008517D01*
X03128Y008502D01*
X031352Y008517D01*
X031413Y008558D01*
X031454Y008619D01*
X031468Y008691D01*
X031454Y008763D01*
X031413Y008824D01*
X031352Y008865D01*
X03128Y00888D01*
D02*
G37*
G36*
X030463Y008899D02*
X03039Y008885D01*
X030329Y008844D01*
X030288Y008783D01*
X030274Y008711D01*
X030288Y008638D01*
X030329Y008577D01*
X03039Y008536D01*
X030463Y008522D01*
X030535Y008536D01*
X030596Y008577D01*
X030637Y008638D01*
X030651Y008711D01*
X030637Y008783D01*
X030596Y008844D01*
X030535Y008885D01*
X030463Y008899D01*
D02*
G37*
G36*
X022263Y008773D02*
X022225Y008765D01*
X022151Y008715D01*
X022101Y008641D01*
X022094Y008603D01*
X022263D01*
Y008773D01*
D02*
G37*
G36*
X023741Y008792D02*
Y008623D01*
X02391D01*
X023903Y008661D01*
X023853Y008735D01*
X023779Y008785D01*
X023741Y008792D01*
D02*
G37*
G36*
X015069Y009067D02*
X014997Y009052D01*
X014936Y009011D01*
X014895Y00895D01*
X01488Y008878D01*
X014895Y008806D01*
X014936Y008745D01*
X014997Y008704D01*
X015069Y008689D01*
X015141Y008704D01*
X015202Y008745D01*
X015243Y008806D01*
X015258Y008878D01*
X015243Y00895D01*
X015202Y009011D01*
X015141Y009052D01*
X015069Y009067D01*
D02*
G37*
G36*
X022363Y008773D02*
Y008603D01*
X022532D01*
X022525Y008641D01*
X022475Y008715D01*
X022401Y008765D01*
X022363Y008773D01*
D02*
G37*
G36*
X023641Y008792D02*
X023603Y008785D01*
X023529Y008735D01*
X023479Y008661D01*
X023471Y008623D01*
X023641D01*
Y008792D01*
D02*
G37*
G36*
X022263Y008503D02*
X022094D01*
X022101Y008465D01*
X022151Y008391D01*
X022225Y008341D01*
X022263Y008334D01*
Y008503D01*
D02*
G37*
G36*
X022532D02*
X022363D01*
Y008334D01*
X022401Y008341D01*
X022475Y008391D01*
X022525Y008465D01*
X022532Y008503D01*
D02*
G37*
G36*
X027391Y008487D02*
X027353Y008479D01*
X027279Y008429D01*
X027229Y008355D01*
X027221Y008317D01*
X027391D01*
Y008487D01*
D02*
G37*
G36*
X027963D02*
Y008317D01*
X028133D01*
X028125Y008355D01*
X028076Y008429D01*
X028001Y008479D01*
X027963Y008487D01*
D02*
G37*
G36*
X023641Y008523D02*
X023471D01*
X023479Y008485D01*
X023529Y008411D01*
X023603Y008361D01*
X023641Y008353D01*
Y008523D01*
D02*
G37*
G36*
X01743Y008592D02*
X017261D01*
X017268Y008554D01*
X017318Y00848D01*
X017393Y00843D01*
X01743Y008422D01*
Y008592D01*
D02*
G37*
G36*
X0177D02*
X01753D01*
Y008422D01*
X017568Y00843D01*
X017643Y00848D01*
X017692Y008554D01*
X0177Y008592D01*
D02*
G37*
G36*
X02391Y008523D02*
X023741D01*
Y008353D01*
X023779Y008361D01*
X023853Y008411D01*
X023903Y008485D01*
X02391Y008523D01*
D02*
G37*
G36*
X027863Y008487D02*
X027826Y008479D01*
X027751Y008429D01*
X027703Y008358D01*
X027682Y008355D01*
X027673D01*
X027651Y008358D01*
X027603Y008429D01*
X027529Y008479D01*
X027491Y008487D01*
Y008267D01*
Y008048D01*
X027529Y008055D01*
X027603Y008105D01*
X027651Y008176D01*
X027673Y008179D01*
X027682D01*
X027703Y008176D01*
X027751Y008105D01*
X027826Y008055D01*
X027863Y008048D01*
Y008267D01*
Y008487D01*
D02*
G37*
G36*
X028133Y009319D02*
X027963D01*
Y00915D01*
X028001Y009158D01*
X028076Y009207D01*
X028125Y009282D01*
X028133Y009319D01*
D02*
G37*
G36*
X027391Y009319D02*
X027221D01*
X027229Y009282D01*
X027279Y009207D01*
X027353Y009158D01*
X027391Y00915D01*
Y009319D01*
D02*
G37*
G36*
X02516Y009232D02*
X024991D01*
Y009062D01*
X025029Y00907D01*
X025103Y009119D01*
X025153Y009194D01*
X02516Y009232D01*
D02*
G37*
G36*
X027491Y009589D02*
Y009369D01*
Y00915D01*
X027529Y009158D01*
X027603Y009207D01*
X027651Y009279D01*
X027673Y009282D01*
X027682D01*
X027703Y009279D01*
X027751Y009207D01*
X027826Y009158D01*
X027863Y00915D01*
Y009369D01*
Y009589D01*
X027826Y009581D01*
X027751Y009532D01*
X027703Y00946D01*
X027682Y009457D01*
X027673D01*
X027651Y00946D01*
X027603Y009532D01*
X027529Y009581D01*
X027491Y009589D01*
D02*
G37*
G36*
X012903Y009481D02*
X012865Y009474D01*
X012791Y009424D01*
X012741Y00935D01*
X012733Y009312D01*
X012903D01*
Y009481D01*
D02*
G37*
G36*
X029636Y009706D02*
X029564Y009692D01*
X029502Y009651D01*
X029462Y00959D01*
X029447Y009518D01*
X029462Y009446D01*
X029502Y009384D01*
X029564Y009343D01*
X029636Y009329D01*
X029708Y009343D01*
X029769Y009384D01*
X02981Y009446D01*
X029824Y009518D01*
X02981Y00959D01*
X029769Y009651D01*
X029708Y009692D01*
X029636Y009706D01*
D02*
G37*
G36*
X024891Y009501D02*
X024853Y009493D01*
X024779Y009444D01*
X024729Y009369D01*
X024721Y009331D01*
X024891D01*
Y009501D01*
D02*
G37*
G36*
X013003Y009481D02*
Y009312D01*
X013172D01*
X013165Y00935D01*
X013115Y009424D01*
X013041Y009474D01*
X013003Y009481D01*
D02*
G37*
G36*
X019173Y009706D02*
X019101Y009692D01*
X01904Y009651D01*
X018999Y00959D01*
X018985Y009518D01*
X018999Y009446D01*
X01904Y009384D01*
X019101Y009343D01*
X019173Y009329D01*
X019245Y009343D01*
X019307Y009384D01*
X019347Y009446D01*
X019362Y009518D01*
X019347Y00959D01*
X019307Y009651D01*
X019245Y009692D01*
X019173Y009706D01*
D02*
G37*
G36*
X027391Y009038D02*
X027353Y00903D01*
X027279Y00898D01*
X027229Y008906D01*
X027221Y008868D01*
X027391D01*
Y009038D01*
D02*
G37*
G36*
X027963D02*
Y008868D01*
X028133D01*
X028125Y008906D01*
X028076Y00898D01*
X028001Y00903D01*
X027963Y009038D01*
D02*
G37*
G36*
X01743Y008861D02*
X017393Y008854D01*
X017318Y008804D01*
X017268Y00873D01*
X017261Y008692D01*
X01743D01*
Y008861D01*
D02*
G37*
G36*
X01753D02*
Y008692D01*
X0177D01*
X017692Y00873D01*
X017643Y008804D01*
X017568Y008854D01*
X01753Y008861D01*
D02*
G37*
G36*
X027863Y009038D02*
X027826Y00903D01*
X027751Y00898D01*
X027703Y008909D01*
X027682Y008906D01*
X027673D01*
X027651Y008909D01*
X027603Y00898D01*
X027529Y00903D01*
X027491Y009038D01*
Y008818D01*
Y008599D01*
X027529Y008606D01*
X027603Y008656D01*
X027651Y008728D01*
X027673Y00873D01*
X027682D01*
X027703Y008728D01*
X027751Y008656D01*
X027826Y008606D01*
X027863Y008599D01*
Y008818D01*
Y009038D01*
D02*
G37*
G36*
X013172Y009212D02*
X013003D01*
Y009042D01*
X013041Y00905D01*
X013115Y0091D01*
X013165Y009174D01*
X013172Y009212D01*
D02*
G37*
G36*
X024891Y009232D02*
X024721D01*
X024729Y009194D01*
X024779Y009119D01*
X024853Y00907D01*
X024891Y009062D01*
Y009232D01*
D02*
G37*
G36*
X033031Y009342D02*
X032959Y009328D01*
X032898Y009287D01*
X032857Y009226D01*
X032843Y009154D01*
X032857Y009081D01*
X032898Y00902D01*
X032959Y008979D01*
X033031Y008965D01*
X033104Y008979D01*
X033165Y00902D01*
X033206Y009081D01*
X03322Y009154D01*
X033206Y009226D01*
X033165Y009287D01*
X033104Y009328D01*
X033031Y009342D01*
D02*
G37*
G36*
X012903Y009212D02*
X012733D01*
X012741Y009174D01*
X012791Y0091D01*
X012865Y00905D01*
X012903Y009042D01*
Y009212D01*
D02*
G37*
G36*
X034753Y022227D02*
X034715Y02222D01*
X034641Y02217D01*
X034591Y022096D01*
X034584Y022058D01*
X034753D01*
Y022227D01*
D02*
G37*
G36*
X010964Y022247D02*
X010926Y022239D01*
X010852Y02219D01*
X010802Y022115D01*
X010794Y022078D01*
X010964D01*
Y022247D01*
D02*
G37*
G36*
X01379Y022109D02*
Y02194D01*
X01396D01*
X013952Y021978D01*
X013902Y022052D01*
X013828Y022102D01*
X01379Y022109D01*
D02*
G37*
G36*
X010247Y022149D02*
Y021979D01*
X010416D01*
X010409Y022017D01*
X010359Y022091D01*
X010285Y022141D01*
X010247Y022149D01*
D02*
G37*
G36*
X027067Y022482D02*
X026995Y022468D01*
X026934Y022427D01*
X026893Y022365D01*
X026878Y022293D01*
X026893Y022221D01*
X026934Y02216D01*
X026995Y022119D01*
X027067Y022105D01*
X027139Y022119D01*
X0272Y02216D01*
X027241Y022221D01*
X027256Y022293D01*
X027241Y022365D01*
X0272Y022427D01*
X027139Y022468D01*
X027067Y022482D01*
D02*
G37*
G36*
X022263Y022326D02*
X022225Y022318D01*
X022151Y022269D01*
X022101Y022194D01*
X022094Y022156D01*
X022263D01*
Y022326D01*
D02*
G37*
G36*
X022363D02*
Y022156D01*
X022532D01*
X022525Y022194D01*
X022475Y022269D01*
X022401Y022318D01*
X022363Y022326D01*
D02*
G37*
G36*
X023789Y022306D02*
X023751Y022299D01*
X023676Y022249D01*
X023627Y022174D01*
X023619Y022137D01*
X023789D01*
Y022306D01*
D02*
G37*
G36*
X023889D02*
Y022137D01*
X024058D01*
X024051Y022174D01*
X024001Y022249D01*
X023926Y022299D01*
X023889Y022306D01*
D02*
G37*
G36*
X020098Y02207D02*
X02006Y022062D01*
X019985Y022013D01*
X019936Y021938D01*
X019928Y0219D01*
X020098D01*
Y02207D01*
D02*
G37*
G36*
X020198D02*
Y0219D01*
X020367D01*
X02036Y021938D01*
X02031Y022013D01*
X020235Y022062D01*
X020198Y02207D01*
D02*
G37*
G36*
X022263Y022056D02*
X022094D01*
X022101Y022019D01*
X022151Y021944D01*
X022225Y021894D01*
X022263Y021887D01*
Y022056D01*
D02*
G37*
G36*
X022532D02*
X022363D01*
Y021887D01*
X022401Y021894D01*
X022475Y021944D01*
X022525Y022019D01*
X022532Y022056D01*
D02*
G37*
G36*
X029635Y022096D02*
X029466D01*
X029473Y022058D01*
X029523Y021983D01*
X029597Y021934D01*
X029635Y021926D01*
Y022096D01*
D02*
G37*
G36*
X0132Y022109D02*
Y02194D01*
X013369D01*
X013362Y021978D01*
X013312Y022052D01*
X013237Y022102D01*
X0132Y022109D01*
D02*
G37*
G36*
X01369D02*
X013652Y022102D01*
X013578Y022052D01*
X013528Y021978D01*
X013521Y02194D01*
X01369D01*
Y022109D01*
D02*
G37*
G36*
X029904Y022096D02*
X029735D01*
Y021926D01*
X029773Y021934D01*
X029847Y021983D01*
X029897Y022058D01*
X029904Y022096D01*
D02*
G37*
G36*
X0131Y022109D02*
X013062Y022102D01*
X012987Y022052D01*
X012938Y021978D01*
X01293Y02194D01*
X0131D01*
Y022109D01*
D02*
G37*
G36*
X015354Y022745D02*
X015184D01*
X015192Y022707D01*
X015241Y022633D01*
X015316Y022583D01*
X015354Y022576D01*
Y022745D01*
D02*
G37*
G36*
X015623D02*
X015454D01*
Y022576D01*
X015491Y022583D01*
X015566Y022633D01*
X015615Y022707D01*
X015623Y022745D01*
D02*
G37*
G36*
X025688Y022716D02*
X025519D01*
X025526Y022678D01*
X025576Y022604D01*
X02565Y022554D01*
X025688Y022546D01*
Y022716D01*
D02*
G37*
G36*
X025958D02*
X025788D01*
Y022546D01*
X025826Y022554D01*
X0259Y022604D01*
X02595Y022678D01*
X025958Y022716D01*
D02*
G37*
G36*
X02748Y022794D02*
X02731D01*
X027318Y022757D01*
X027367Y022682D01*
X027442Y022633D01*
X02748Y022625D01*
Y022794D01*
D02*
G37*
G36*
X018198Y022877D02*
X01816Y022869D01*
X018086Y02282D01*
X018036Y022745D01*
X018029Y022707D01*
X018198D01*
Y022877D01*
D02*
G37*
G36*
X018298D02*
Y022707D01*
X018467D01*
X01846Y022745D01*
X01841Y02282D01*
X018336Y022869D01*
X018298Y022877D01*
D02*
G37*
G36*
X027749Y022794D02*
X02758D01*
Y022625D01*
X027617Y022633D01*
X027692Y022682D01*
X027741Y022757D01*
X027749Y022794D01*
D02*
G37*
G36*
X028051Y023378D02*
X027979Y023363D01*
X027918Y023322D01*
X027877Y023261D01*
X027863Y023189D01*
X027877Y023117D01*
X027918Y023056D01*
X027979Y023015D01*
X028051Y023D01*
X028087Y023008D01*
X028118Y022963D01*
X028093Y022927D01*
X028079Y022854D01*
X028093Y022782D01*
X028134Y022721D01*
X028196Y02268D01*
X028268Y022666D01*
X02834Y02268D01*
X028401Y022721D01*
X028442Y022782D01*
X028456Y022854D01*
X028442Y022927D01*
X028401Y022988D01*
X02834Y023029D01*
X028268Y023043D01*
X028231Y023036D01*
X028201Y023081D01*
X028225Y023117D01*
X02824Y023189D01*
X028225Y023261D01*
X028185Y023322D01*
X028123Y023363D01*
X028051Y023378D01*
D02*
G37*
G36*
X021634Y02259D02*
X021562Y022576D01*
X0215Y022535D01*
X02146Y022474D01*
X021445Y022402D01*
X02146Y022329D01*
X0215Y022268D01*
X021562Y022227D01*
X021634Y022213D01*
X021706Y022227D01*
X021767Y022268D01*
X021808Y022329D01*
X021822Y022402D01*
X021808Y022474D01*
X021767Y022535D01*
X021706Y022576D01*
X021634Y02259D01*
D02*
G37*
G36*
X017371Y02244D02*
X017202D01*
X017209Y022402D01*
X017259Y022328D01*
X017333Y022278D01*
X017371Y022271D01*
Y02244D01*
D02*
G37*
G36*
X029635Y022365D02*
X029597Y022358D01*
X029523Y022308D01*
X029473Y022233D01*
X029466Y022196D01*
X029635D01*
Y022365D01*
D02*
G37*
G36*
X029735D02*
Y022196D01*
X029904D01*
X029897Y022233D01*
X029847Y022308D01*
X029773Y022358D01*
X029735Y022365D01*
D02*
G37*
G36*
X017641Y02244D02*
X017471D01*
Y022271D01*
X017509Y022278D01*
X017583Y022328D01*
X017633Y022402D01*
X017641Y02244D01*
D02*
G37*
G36*
X017371Y02271D02*
X017333Y022702D01*
X017259Y022652D01*
X017209Y022578D01*
X017202Y02254D01*
X017371D01*
Y02271D01*
D02*
G37*
G36*
X017471D02*
Y02254D01*
X017641D01*
X017633Y022578D01*
X017583Y022652D01*
X017509Y022702D01*
X017471Y02271D01*
D02*
G37*
G36*
X018198Y022607D02*
X018029D01*
X018036Y02257D01*
X018086Y022495D01*
X01816Y022446D01*
X018198Y022438D01*
Y022607D01*
D02*
G37*
G36*
X018467D02*
X018298D01*
Y022438D01*
X018336Y022446D01*
X01841Y022495D01*
X01846Y02257D01*
X018467Y022607D01*
D02*
G37*
G36*
X024058Y022037D02*
X023889D01*
Y021867D01*
X023926Y021875D01*
X024001Y021924D01*
X024051Y021999D01*
X024058Y022037D01*
D02*
G37*
G36*
X028396Y021488D02*
X028323Y021473D01*
X028262Y021433D01*
X028221Y021371D01*
X028207Y021299D01*
X028221Y021227D01*
X028262Y021166D01*
X028323Y021125D01*
X028396Y021111D01*
X028468Y021125D01*
X028529Y021166D01*
X02857Y021227D01*
X028584Y021299D01*
X02857Y021371D01*
X028529Y021433D01*
X028468Y021473D01*
X028396Y021488D01*
D02*
G37*
G36*
X018917Y021508D02*
X018845Y021493D01*
X018784Y021452D01*
X018743Y021391D01*
X018729Y021319D01*
X018743Y021247D01*
X018784Y021186D01*
X018845Y021145D01*
X018917Y02113D01*
X01899Y021145D01*
X019051Y021186D01*
X019092Y021247D01*
X019106Y021319D01*
X019092Y021391D01*
X019051Y021452D01*
X01899Y021493D01*
X018917Y021508D01*
D02*
G37*
G36*
X017775Y020938D02*
X017737Y02093D01*
X017663Y020881D01*
X017613Y020806D01*
X017605Y020768D01*
X017775D01*
Y020938D01*
D02*
G37*
G36*
X014951Y021409D02*
X014879Y021395D01*
X014817Y021354D01*
X014777Y021293D01*
X014762Y02122D01*
X014777Y021148D01*
X014817Y021087D01*
X014879Y021046D01*
X014951Y021032D01*
X015023Y021046D01*
X015084Y021087D01*
X015125Y021148D01*
X015139Y02122D01*
X015125Y021293D01*
X015084Y021354D01*
X015023Y021395D01*
X014951Y021409D01*
D02*
G37*
G36*
X033119Y021643D02*
X032638D01*
X03265Y021554D01*
X032704Y021424D01*
X032789Y021313D01*
X0329Y021227D01*
X03303Y021174D01*
X033119Y021162D01*
Y021643D01*
D02*
G37*
G36*
X027411Y021538D02*
X027373Y021531D01*
X027298Y021481D01*
X027249Y021407D01*
X027241Y021369D01*
X027411D01*
Y021538D01*
D02*
G37*
G36*
X027511D02*
Y021369D01*
X02768D01*
X027673Y021407D01*
X027623Y021481D01*
X027548Y021531D01*
X027511Y021538D01*
D02*
G37*
G36*
X0337Y021643D02*
X033219D01*
Y021162D01*
X033308Y021174D01*
X033438Y021227D01*
X033549Y021313D01*
X033635Y021424D01*
X033689Y021554D01*
X0337Y021643D01*
D02*
G37*
G36*
X031497Y022186D02*
X030511D01*
Y0212D01*
X031497D01*
Y022186D01*
D02*
G37*
G36*
X011732Y020917D02*
X01166Y020903D01*
X011599Y020862D01*
X011558Y020801D01*
X011544Y020728D01*
X011558Y020656D01*
X011599Y020595D01*
X01166Y020554D01*
X011732Y02054D01*
X011804Y020554D01*
X011866Y020595D01*
X011907Y020656D01*
X011921Y020728D01*
X011907Y020801D01*
X011866Y020862D01*
X011804Y020903D01*
X011732Y020917D01*
D02*
G37*
G36*
X021999Y020967D02*
X021926Y020953D01*
X021865Y020912D01*
X021824Y02085D01*
X02181Y020778D01*
X021824Y020706D01*
X021865Y020645D01*
X021926Y020604D01*
X021999Y02059D01*
X022071Y020604D01*
X022132Y020645D01*
X022173Y020706D01*
X022187Y020778D01*
X022173Y02085D01*
X022132Y020912D01*
X022071Y020953D01*
X021999Y020967D01*
D02*
G37*
G36*
X019351Y020653D02*
Y020483D01*
X019521D01*
X019513Y020521D01*
X019463Y020595D01*
X019389Y020645D01*
X019351Y020653D01*
D02*
G37*
G36*
X017775Y020668D02*
X017605D01*
X017613Y020631D01*
X017663Y020556D01*
X017737Y020507D01*
X017775Y020499D01*
Y020668D01*
D02*
G37*
G36*
X014596Y021006D02*
X014524Y020991D01*
X014463Y02095D01*
X014422Y020889D01*
X014408Y020817D01*
X014422Y020745D01*
X014463Y020684D01*
X014524Y020643D01*
X014596Y020628D01*
X014669Y020643D01*
X01473Y020684D01*
X014771Y020745D01*
X014785Y020817D01*
X014771Y020889D01*
X01473Y02095D01*
X014669Y020991D01*
X014596Y021006D01*
D02*
G37*
G36*
X02768Y021269D02*
X027241D01*
X027249Y021231D01*
X027298Y021157D01*
X027319Y021143D01*
X027317Y021084D01*
X027278Y021059D01*
X027237Y020997D01*
X027223Y020925D01*
X027237Y020853D01*
X027278Y020792D01*
X027339Y020751D01*
X027411Y020737D01*
X027484Y020751D01*
X027545Y020792D01*
X027586Y020853D01*
X0276Y020925D01*
X027586Y020997D01*
X027545Y021059D01*
X027544Y021059D01*
X027555Y021112D01*
X027623Y021157D01*
X027673Y021231D01*
X02768Y021269D01*
D02*
G37*
G36*
X02562Y021143D02*
X025548Y021129D01*
X025487Y021088D01*
X025446Y021027D01*
X025431Y020955D01*
X025446Y020883D01*
X025487Y020821D01*
X025548Y02078D01*
X02562Y020766D01*
X025692Y02078D01*
X025753Y020821D01*
X025794Y020883D01*
X025809Y020955D01*
X025794Y021027D01*
X025753Y021088D01*
X025692Y021129D01*
X02562Y021143D01*
D02*
G37*
G36*
X011043Y021006D02*
X010971Y020991D01*
X01091Y02095D01*
X010869Y020889D01*
X010855Y020817D01*
X010869Y020745D01*
X01091Y020684D01*
X010971Y020643D01*
X011043Y020628D01*
X011115Y020643D01*
X011177Y020684D01*
X011218Y020745D01*
X011232Y020817D01*
X011218Y020889D01*
X011177Y02095D01*
X011115Y020991D01*
X011043Y021006D01*
D02*
G37*
G36*
X026043Y021114D02*
X025971Y021099D01*
X02591Y021059D01*
X025869Y020997D01*
X025855Y020925D01*
X025869Y020853D01*
X02591Y020792D01*
X025971Y020751D01*
X026043Y020737D01*
X026115Y020751D01*
X026177Y020792D01*
X026218Y020853D01*
X026232Y020925D01*
X026218Y020997D01*
X026177Y021059D01*
X026115Y021099D01*
X026043Y021114D01*
D02*
G37*
G36*
X033219Y022224D02*
Y021743D01*
X0337D01*
X033689Y021832D01*
X033635Y021962D01*
X033549Y022073D01*
X033438Y022159D01*
X033308Y022212D01*
X033219Y022224D01*
D02*
G37*
G36*
X034753Y021958D02*
X034584D01*
X034591Y02192D01*
X034641Y021846D01*
X034715Y021796D01*
X034753Y021788D01*
Y021958D01*
D02*
G37*
G36*
X010416Y021879D02*
X010247D01*
Y02171D01*
X010285Y021717D01*
X010359Y021767D01*
X010409Y021841D01*
X010416Y021879D01*
D02*
G37*
G36*
X033119Y022224D02*
X03303Y022212D01*
X0329Y022159D01*
X032789Y022073D01*
X032704Y021962D01*
X03265Y021832D01*
X032638Y021743D01*
X033119D01*
Y022224D01*
D02*
G37*
G36*
X010964Y021978D02*
X010794D01*
X010802Y02194D01*
X010852Y021865D01*
X010926Y021816D01*
X010964Y021808D01*
Y021978D01*
D02*
G37*
G36*
X024577Y022236D02*
X024505Y022222D01*
X024443Y022181D01*
X024403Y022119D01*
X024388Y022047D01*
X024403Y021975D01*
X024443Y021914D01*
X024505Y021873D01*
X024577Y021859D01*
X024649Y021873D01*
X02471Y021914D01*
X024751Y021975D01*
X024765Y022047D01*
X024751Y022119D01*
X02471Y022181D01*
X024649Y022222D01*
X024577Y022236D01*
D02*
G37*
G36*
X023789Y022037D02*
X023619D01*
X023627Y021999D01*
X023676Y021924D01*
X023751Y021875D01*
X023789Y021867D01*
Y022037D01*
D02*
G37*
G36*
X012146Y022206D02*
X012073Y022192D01*
X012012Y022151D01*
X011971Y02209D01*
X011957Y022018D01*
X011971Y021946D01*
X012012Y021884D01*
X012073Y021843D01*
X012146Y021829D01*
X012218Y021843D01*
X012279Y021884D01*
X01232Y021946D01*
X012334Y022018D01*
X01232Y02209D01*
X012279Y022151D01*
X012218Y022192D01*
X012146Y022206D01*
D02*
G37*
G36*
X011064Y022247D02*
Y022028D01*
Y021808D01*
X011102Y021816D01*
X011176Y021865D01*
X011201Y021903D01*
X011261D01*
X011274Y021884D01*
X011335Y021843D01*
X011407Y021829D01*
X01148Y021843D01*
X011541Y021884D01*
X011582Y021946D01*
X011596Y022018D01*
X011582Y02209D01*
X011541Y022151D01*
X01148Y022192D01*
X011407Y022206D01*
X011335Y022192D01*
X011274Y022151D01*
X011268Y022141D01*
X011208Y022142D01*
X011176Y02219D01*
X011102Y022239D01*
X011064Y022247D01*
D02*
G37*
G36*
X023327Y021882D02*
X023255Y021867D01*
X023193Y021826D01*
X023153Y021765D01*
X023138Y021693D01*
X023153Y021621D01*
X023193Y02156D01*
X023255Y021519D01*
X023327Y021504D01*
X023399Y021519D01*
X02346Y02156D01*
X023501Y021621D01*
X023515Y021693D01*
X023501Y021765D01*
X02346Y021826D01*
X023399Y021867D01*
X023327Y021882D01*
D02*
G37*
G36*
X020098Y0218D02*
X019928D01*
X019936Y021763D01*
X019985Y021688D01*
X02006Y021638D01*
X020098Y021631D01*
Y0218D01*
D02*
G37*
G36*
X013395Y021544D02*
X013225D01*
X013233Y021507D01*
X013283Y021432D01*
X013357Y021383D01*
X013395Y021375D01*
Y021544D01*
D02*
G37*
G36*
X013664D02*
X013495D01*
Y021375D01*
X013533Y021383D01*
X013607Y021432D01*
X013657Y021507D01*
X013664Y021544D01*
D02*
G37*
G36*
X020367Y0218D02*
X020198D01*
Y021631D01*
X020235Y021638D01*
X02031Y021688D01*
X02036Y021763D01*
X020367Y0218D01*
D02*
G37*
G36*
X0131Y02184D02*
X01293D01*
X012938Y021802D01*
X012987Y021728D01*
X013062Y021678D01*
X0131Y02167D01*
Y02184D01*
D02*
G37*
G36*
X01396D02*
X01379D01*
Y02167D01*
X013828Y021678D01*
X013902Y021728D01*
X013952Y021802D01*
X01396Y02184D01*
D02*
G37*
G36*
X013383D02*
X0132D01*
Y021656D01*
X013211Y021644D01*
X013395D01*
Y021828D01*
X013383Y02184D01*
D02*
G37*
G36*
X01369D02*
X013506D01*
X013495Y021828D01*
Y021644D01*
X013679D01*
X01369Y021656D01*
Y02184D01*
D02*
G37*
G36*
X02558Y024934D02*
X025542Y024927D01*
X025468Y024877D01*
X025418Y024802D01*
X02541Y024765D01*
X02558D01*
Y024934D01*
D02*
G37*
G36*
X02568D02*
Y024765D01*
X025849D01*
X025842Y024802D01*
X025792Y024877D01*
X025718Y024927D01*
X02568Y024934D01*
D02*
G37*
G36*
X022185Y025051D02*
X022113Y025036D01*
X022052Y024996D01*
X022011Y024934D01*
X021996Y024862D01*
X022011Y02479D01*
X022052Y024729D01*
X022113Y024688D01*
X022185Y024674D01*
X022257Y024688D01*
X022318Y024729D01*
X022359Y02479D01*
X022374Y024862D01*
X022359Y024934D01*
X022318Y024996D01*
X022257Y025036D01*
X022185Y025051D01*
D02*
G37*
G36*
X024094Y0251D02*
X024022Y025086D01*
X023961Y025045D01*
X02392Y024984D01*
X023906Y024911D01*
X02392Y024839D01*
X023961Y024778D01*
X024022Y024737D01*
X024094Y024723D01*
X024167Y024737D01*
X024228Y024778D01*
X024269Y024839D01*
X024283Y024911D01*
X024269Y024984D01*
X024228Y025045D01*
X024167Y025086D01*
X024094Y0251D01*
D02*
G37*
G36*
X010865Y02496D02*
X010696D01*
X010703Y024922D01*
X010753Y024848D01*
X010828Y024798D01*
X010865Y02479D01*
Y02496D01*
D02*
G37*
G36*
X015643D02*
X015473D01*
Y02479D01*
X015511Y024798D01*
X015585Y024848D01*
X015635Y024922D01*
X015643Y02496D01*
D02*
G37*
G36*
X013109Y024983D02*
X013072Y024976D01*
X012997Y024926D01*
X012947Y024852D01*
X01294Y024814D01*
X013109D01*
Y024983D01*
D02*
G37*
G36*
X011135Y02496D02*
X010965D01*
Y02479D01*
X011003Y024798D01*
X011078Y024848D01*
X011127Y024922D01*
X011135Y02496D01*
D02*
G37*
G36*
X015373D02*
X015204D01*
X015211Y024922D01*
X015261Y024848D01*
X015335Y024798D01*
X015373Y02479D01*
Y02496D01*
D02*
G37*
G36*
X013109Y024714D02*
X01294D01*
X012947Y024676D01*
X012997Y024602D01*
X013072Y024552D01*
X013109Y024544D01*
Y024714D01*
D02*
G37*
G36*
X013379D02*
X013209D01*
Y024544D01*
X013247Y024552D01*
X013322Y024602D01*
X013371Y024676D01*
X013379Y024714D01*
D02*
G37*
G36*
X033119Y024941D02*
X03303Y024929D01*
X0329Y024875D01*
X032789Y02479D01*
X032704Y024678D01*
X03265Y024549D01*
X032638Y024459D01*
X033119D01*
Y024941D01*
D02*
G37*
G36*
X033219D02*
Y024459D01*
X0337D01*
X033689Y024549D01*
X033635Y024678D01*
X033549Y02479D01*
X033438Y024875D01*
X033308Y024929D01*
X033219Y024941D01*
D02*
G37*
G36*
X016702Y024733D02*
X016533D01*
X01654Y024696D01*
X01659Y024621D01*
X016664Y024572D01*
X016702Y024564D01*
Y024733D01*
D02*
G37*
G36*
X021115Y024763D02*
X020946D01*
Y024594D01*
X020983Y024601D01*
X021058Y024651D01*
X021108Y024725D01*
X021115Y024763D01*
D02*
G37*
G36*
X018159Y024895D02*
X018121Y024887D01*
X018046Y024837D01*
X017997Y024763D01*
X017979Y024675D01*
X017981Y024668D01*
X017934Y024649D01*
X017899Y0247D01*
X017838Y024741D01*
X017766Y024756D01*
X017694Y024741D01*
X017632Y0247D01*
X017591Y024639D01*
X017577Y024567D01*
X017591Y024495D01*
X017632Y024434D01*
X017694Y024393D01*
X017766Y024378D01*
X017838Y024393D01*
X017899Y024434D01*
X01794Y024495D01*
X017954Y024565D01*
X01796Y024568D01*
X018003Y024578D01*
X018046Y024513D01*
X018121Y024463D01*
X018159Y024456D01*
Y024675D01*
Y024895D01*
D02*
G37*
G36*
X016971Y024733D02*
X016802D01*
Y024564D01*
X01684Y024572D01*
X016914Y024621D01*
X016964Y024696D01*
X016971Y024733D01*
D02*
G37*
G36*
X020846Y024763D02*
X020676D01*
X020684Y024725D01*
X020733Y024651D01*
X020808Y024601D01*
X020846Y024594D01*
Y024763D01*
D02*
G37*
G36*
X023002Y025445D02*
X02293Y02543D01*
X022869Y025389D01*
X022828Y025328D01*
X022813Y025256D01*
X022828Y025184D01*
X022869Y025123D01*
X02293Y025082D01*
X023002Y025067D01*
X023074Y025082D01*
X023135Y025123D01*
X023176Y025184D01*
X023191Y025256D01*
X023176Y025328D01*
X023135Y025389D01*
X023074Y02543D01*
X023002Y025445D01*
D02*
G37*
G36*
X010416Y025816D02*
X010247D01*
Y025647D01*
X010285Y025654D01*
X010359Y025704D01*
X010409Y025778D01*
X010416Y025816D01*
D02*
G37*
G36*
X015373Y025229D02*
X015335Y025222D01*
X015261Y025172D01*
X015211Y025098D01*
X015204Y02506D01*
X015373D01*
Y025229D01*
D02*
G37*
G36*
X015473D02*
Y02506D01*
X015643D01*
X015635Y025098D01*
X015585Y025172D01*
X015511Y025222D01*
X015473Y025229D01*
D02*
G37*
G36*
X012115Y025816D02*
X011946D01*
X011953Y025778D01*
X012003Y025704D01*
X012078Y025654D01*
X012115Y025647D01*
Y025816D01*
D02*
G37*
G36*
X014353D02*
X014184D01*
Y025647D01*
X014222Y025654D01*
X014296Y025704D01*
X014346Y025778D01*
X014353Y025816D01*
D02*
G37*
G36*
X034753D02*
X034584D01*
X034591Y025778D01*
X034641Y025704D01*
X034715Y025654D01*
X034753Y025647D01*
Y025816D01*
D02*
G37*
G36*
X012385D02*
X012215D01*
Y025647D01*
X012253Y025654D01*
X012328Y025704D01*
X012377Y025778D01*
X012385Y025816D01*
D02*
G37*
G36*
X014084D02*
X013914D01*
X013922Y025778D01*
X013972Y025704D01*
X014046Y025654D01*
X014084Y025647D01*
Y025816D01*
D02*
G37*
G36*
X016702Y025003D02*
X016664Y024995D01*
X01659Y024946D01*
X01654Y024871D01*
X016533Y024833D01*
X016702D01*
Y025003D01*
D02*
G37*
G36*
X016802D02*
Y024833D01*
X016971D01*
X016964Y024871D01*
X016914Y024946D01*
X01684Y024995D01*
X016802Y025003D01*
D02*
G37*
G36*
X013209Y024983D02*
Y024814D01*
X013379D01*
X013371Y024852D01*
X013322Y024926D01*
X013247Y024976D01*
X013209Y024983D01*
D02*
G37*
G36*
X029537Y025208D02*
X029465Y025194D01*
X029404Y025153D01*
X029363Y025092D01*
X029349Y02502D01*
X029363Y024948D01*
X029404Y024886D01*
X029465Y024845D01*
X029537Y024831D01*
X02961Y024845D01*
X029671Y024886D01*
X029712Y024948D01*
X029726Y02502D01*
X029712Y025092D01*
X029671Y025153D01*
X02961Y025194D01*
X029537Y025208D01*
D02*
G37*
G36*
X020846Y025032D02*
X020808Y025025D01*
X020733Y024975D01*
X020684Y024901D01*
X020676Y024863D01*
X020846D01*
Y025032D01*
D02*
G37*
G36*
X010865Y025229D02*
X010828Y025222D01*
X010753Y025172D01*
X010703Y025098D01*
X010696Y02506D01*
X010865D01*
Y025229D01*
D02*
G37*
G36*
X010965D02*
Y02506D01*
X011135D01*
X011127Y025098D01*
X011078Y025172D01*
X011003Y025222D01*
X010965Y025229D01*
D02*
G37*
G36*
X020946Y025032D02*
Y024863D01*
X021115D01*
X021108Y024901D01*
X021058Y024975D01*
X020983Y025025D01*
X020946Y025032D01*
D02*
G37*
G36*
X024656Y025356D02*
X024583Y025342D01*
X024522Y025301D01*
X024481Y02524D01*
X024467Y025167D01*
X024481Y025095D01*
X024522Y025034D01*
X024583Y024993D01*
X024656Y024979D01*
X024728Y024993D01*
X024789Y025034D01*
X02483Y025095D01*
X024844Y025167D01*
X02483Y02524D01*
X024789Y025301D01*
X024728Y025342D01*
X024656Y025356D01*
D02*
G37*
G36*
X018259Y024895D02*
Y024675D01*
Y024456D01*
X018296Y024463D01*
X018371Y024513D01*
X018408Y024568D01*
X018461Y024558D01*
X018467Y024524D01*
X018508Y024463D01*
X01857Y024422D01*
X018642Y024408D01*
X018714Y024422D01*
X018775Y024463D01*
X018816Y024524D01*
X01883Y024596D01*
X018816Y024669D01*
X018775Y02473D01*
X018714Y024771D01*
X018642Y024785D01*
X01857Y024771D01*
X018508Y02473D01*
X018485Y024695D01*
X018432Y024706D01*
X018421Y024763D01*
X018371Y024837D01*
X018296Y024887D01*
X018259Y024895D01*
D02*
G37*
G36*
X024715Y023231D02*
Y023062D01*
X024885D01*
X024877Y0231D01*
X024828Y023174D01*
X024753Y023224D01*
X024715Y023231D01*
D02*
G37*
G36*
X020856Y023241D02*
X020818Y023234D01*
X020743Y023184D01*
X020694Y023109D01*
X020686Y023072D01*
X020856D01*
Y023241D01*
D02*
G37*
G36*
X02752Y023437D02*
X027448Y023422D01*
X027386Y023381D01*
X027345Y02332D01*
X027331Y023248D01*
X027345Y023176D01*
X027386Y023115D01*
X027413Y023097D01*
Y023037D01*
X027367Y023007D01*
X027318Y022932D01*
X02731Y022894D01*
X027749D01*
X027741Y022932D01*
X027692Y023007D01*
X027637Y023044D01*
X027632Y023099D01*
X027633Y023101D01*
X027653Y023115D01*
X027694Y023176D01*
X027708Y023248D01*
X027694Y02332D01*
X027653Y023381D01*
X027592Y023422D01*
X02752Y023437D01*
D02*
G37*
G36*
X024615Y023231D02*
X024578Y023224D01*
X024503Y023174D01*
X024453Y0231D01*
X024446Y023062D01*
X024615D01*
Y023231D01*
D02*
G37*
G36*
X020956Y023241D02*
Y023072D01*
X021125D01*
X021117Y023109D01*
X021068Y023184D01*
X020993Y023234D01*
X020956Y023241D01*
D02*
G37*
G36*
X011387Y023385D02*
X011218D01*
X011225Y023347D01*
X011275Y023273D01*
X011349Y023223D01*
X011387Y023216D01*
Y023385D01*
D02*
G37*
G36*
X011656D02*
X011487D01*
Y023216D01*
X011525Y023223D01*
X011599Y023273D01*
X011649Y023347D01*
X011656Y023385D01*
D02*
G37*
G36*
X012303Y024021D02*
X012211Y024003D01*
X012132Y023951D01*
X01208Y023872D01*
X012061Y02378D01*
X01208Y023687D01*
X012132Y023609D01*
X012211Y023556D01*
X012303Y023538D01*
X012396Y023556D01*
X012474Y023609D01*
X012519Y023676D01*
X012564Y023673D01*
X012571Y023671D01*
X012572Y023668D01*
X012613Y023607D01*
X012674Y023566D01*
X012698Y023561D01*
X012709Y023508D01*
X012682Y02349D01*
X012641Y023428D01*
X012626Y023356D01*
X012641Y023284D01*
X012682Y023223D01*
X012743Y023182D01*
X012815Y023168D01*
X012887Y023182D01*
X012948Y023223D01*
X012989Y023284D01*
X013004Y023356D01*
X012989Y023428D01*
X012948Y02349D01*
X012887Y023531D01*
X012863Y023535D01*
X012852Y023589D01*
X012879Y023607D01*
X01292Y023668D01*
X012935Y02374D01*
X01292Y023812D01*
X012879Y023874D01*
X012818Y023914D01*
X012746Y023929D01*
X012674Y023914D01*
X012613Y023874D01*
X012585Y023833D01*
X012532Y023843D01*
X012527Y023872D01*
X012474Y023951D01*
X012396Y024003D01*
X012303Y024021D01*
D02*
G37*
G36*
X013258Y023584D02*
X013186Y02357D01*
X013125Y023529D01*
X013084Y023468D01*
X013069Y023396D01*
X013084Y023323D01*
X013125Y023262D01*
X013186Y023221D01*
X013258Y023207D01*
X01333Y023221D01*
X013391Y023262D01*
X013432Y023323D01*
X013447Y023396D01*
X013432Y023468D01*
X013391Y023529D01*
X01333Y02357D01*
X013258Y023584D01*
D02*
G37*
G36*
X020856Y022972D02*
X020686D01*
X020694Y022934D01*
X020743Y022859D01*
X020818Y02281D01*
X020856Y022802D01*
Y022972D01*
D02*
G37*
G36*
X021125D02*
X020956D01*
Y022802D01*
X020993Y02281D01*
X021068Y022859D01*
X021117Y022934D01*
X021125Y022972D01*
D02*
G37*
G36*
X024615Y022962D02*
X024446D01*
X024453Y022924D01*
X024503Y02285D01*
X024578Y0228D01*
X024615Y022792D01*
Y022962D01*
D02*
G37*
G36*
X024885D02*
X024715D01*
Y022792D01*
X024753Y0228D01*
X024828Y02285D01*
X024877Y022924D01*
X024885Y022962D01*
D02*
G37*
G36*
X026319Y023191D02*
X026247Y023176D01*
X026186Y023135D01*
X026145Y023074D01*
X02613Y023002D01*
X026145Y02293D01*
X026186Y022869D01*
X026247Y022828D01*
X026319Y022813D01*
X026391Y022828D01*
X026452Y022869D01*
X026493Y02293D01*
X026508Y023002D01*
X026493Y023074D01*
X026452Y023135D01*
X026391Y023176D01*
X026319Y023191D01*
D02*
G37*
G36*
X015354Y023015D02*
X015316Y023007D01*
X015241Y022957D01*
X015192Y022883D01*
X015184Y022845D01*
X015354D01*
Y023015D01*
D02*
G37*
G36*
X015454D02*
Y022845D01*
X015623D01*
X015615Y022883D01*
X015566Y022957D01*
X015491Y023007D01*
X015454Y023015D01*
D02*
G37*
G36*
X025688Y022985D02*
X02565Y022978D01*
X025576Y022928D01*
X025526Y022854D01*
X025519Y022816D01*
X025688D01*
Y022985D01*
D02*
G37*
G36*
X025788D02*
Y022816D01*
X025958D01*
X02595Y022854D01*
X0259Y022928D01*
X025826Y022978D01*
X025788Y022985D01*
D02*
G37*
G36*
X033119Y024359D02*
X032638D01*
X03265Y02427D01*
X032704Y024141D01*
X032789Y024029D01*
X0329Y023944D01*
X03303Y02389D01*
X033119Y023878D01*
Y024359D01*
D02*
G37*
G36*
X0337D02*
X033219D01*
Y023878D01*
X033308Y02389D01*
X033438Y023944D01*
X033549Y024029D01*
X033635Y024141D01*
X033689Y02427D01*
X0337Y024359D01*
D02*
G37*
G36*
X034753Y023926D02*
X034584D01*
X034591Y023889D01*
X034641Y023814D01*
X034715Y023764D01*
X034753Y023757D01*
Y023926D01*
D02*
G37*
G36*
X018898Y024293D02*
X018825Y024279D01*
X018764Y024238D01*
X018723Y024177D01*
X018709Y024104D01*
X018723Y024032D01*
X018764Y023971D01*
X018825Y02393D01*
X018898Y023916D01*
X01897Y02393D01*
X019019Y023963D01*
X01906Y023953D01*
X019074Y023945D01*
X019078Y023924D01*
X019119Y023863D01*
X01918Y023822D01*
X019252Y023807D01*
X019324Y023822D01*
X019385Y023863D01*
X019426Y023924D01*
X019441Y023996D01*
X019426Y024068D01*
X019385Y024129D01*
X019324Y02417D01*
X019252Y024185D01*
X01918Y02417D01*
X019131Y024137D01*
X019089Y024147D01*
X019076Y024156D01*
X019072Y024177D01*
X019031Y024238D01*
X01897Y024279D01*
X018898Y024293D01*
D02*
G37*
G36*
X031497Y024903D02*
X030511D01*
Y023916D01*
X031497D01*
Y024903D01*
D02*
G37*
G36*
X025849Y024665D02*
X02541D01*
X025418Y024627D01*
X025468Y024552D01*
X025496Y024534D01*
Y024473D01*
X025467Y024454D01*
X025426Y024393D01*
X025412Y024321D01*
X025426Y024249D01*
X025467Y024187D01*
X025528Y024147D01*
X0256Y024132D01*
X025673Y024147D01*
X025734Y024187D01*
X025775Y024249D01*
X025789Y024321D01*
X025775Y024393D01*
X025734Y024454D01*
X025729Y024458D01*
X025735Y024514D01*
X025792Y024552D01*
X025842Y024627D01*
X025849Y024665D01*
D02*
G37*
G36*
X019951Y024588D02*
X019879Y024574D01*
X019817Y024533D01*
X019777Y024472D01*
X019762Y0244D01*
X019777Y024327D01*
X019817Y024266D01*
X019879Y024225D01*
X019951Y024211D01*
X020023Y024225D01*
X020084Y024266D01*
X020125Y024327D01*
X020139Y0244D01*
X020125Y024472D01*
X020084Y024533D01*
X020023Y024574D01*
X019951Y024588D01*
D02*
G37*
G36*
X010247Y024117D02*
Y023948D01*
X010416D01*
X010409Y023985D01*
X010359Y02406D01*
X010285Y02411D01*
X010247Y024117D01*
D02*
G37*
G36*
X034753Y024196D02*
X034715Y024188D01*
X034641Y024139D01*
X034591Y024064D01*
X034584Y024026D01*
X034753D01*
Y024196D01*
D02*
G37*
G36*
X029577Y023781D02*
X029505Y023767D01*
X029443Y023726D01*
X029403Y023665D01*
X029388Y023593D01*
X029403Y02352D01*
X029443Y023459D01*
X029505Y023418D01*
X029577Y023404D01*
X029649Y023418D01*
X02971Y023459D01*
X029751Y02352D01*
X029765Y023593D01*
X029751Y023665D01*
X02971Y023726D01*
X029649Y023767D01*
X029577Y023781D01*
D02*
G37*
G36*
X011387Y023654D02*
X011349Y023647D01*
X011275Y023597D01*
X011225Y023523D01*
X011218Y023485D01*
X011387D01*
Y023654D01*
D02*
G37*
G36*
X02878Y023594D02*
X028707Y02358D01*
X028646Y023539D01*
X028605Y023478D01*
X028591Y023406D01*
X028605Y023333D01*
X028646Y023272D01*
X028707Y023231D01*
X02878Y023217D01*
X028852Y023231D01*
X028913Y023272D01*
X028954Y023333D01*
X028968Y023406D01*
X028954Y023478D01*
X028913Y023539D01*
X028852Y02358D01*
X02878Y023594D01*
D02*
G37*
G36*
X024114Y023742D02*
X024042Y023727D01*
X023981Y023687D01*
X02394Y023625D01*
X023926Y023553D01*
X02394Y023481D01*
X023981Y02342D01*
X024042Y023379D01*
X024114Y023365D01*
X024186Y023379D01*
X024248Y02342D01*
X024288Y023481D01*
X024303Y023553D01*
X024288Y023625D01*
X024248Y023687D01*
X024186Y023727D01*
X024114Y023742D01*
D02*
G37*
G36*
X011487Y023654D02*
Y023485D01*
X011656D01*
X011649Y023523D01*
X011599Y023597D01*
X011525Y023647D01*
X011487Y023654D01*
D02*
G37*
G36*
X024754Y023968D02*
X024682Y023954D01*
X024621Y023913D01*
X02458Y023852D01*
X024565Y02378D01*
X02458Y023707D01*
X024621Y023646D01*
X024682Y023605D01*
X024754Y023591D01*
X024826Y023605D01*
X024887Y023646D01*
X024928Y023707D01*
X024943Y02378D01*
X024928Y023852D01*
X024887Y023913D01*
X024826Y023954D01*
X024754Y023968D01*
D02*
G37*
G36*
X010416Y023848D02*
X010247D01*
Y023678D01*
X010285Y023686D01*
X010359Y023735D01*
X010409Y02381D01*
X010416Y023848D01*
D02*
G37*
G36*
X017283Y02387D02*
X017211Y023855D01*
X01715Y023814D01*
X017109Y023753D01*
X017095Y023681D01*
X017109Y023609D01*
X01715Y023548D01*
X017211Y023507D01*
X017283Y023492D01*
X017356Y023507D01*
X017417Y023548D01*
X017458Y023609D01*
X017472Y023681D01*
X017458Y023753D01*
X017417Y023814D01*
X017356Y023855D01*
X017283Y02387D01*
D02*
G37*
G36*
X014035Y024021D02*
X013943Y024003D01*
X013864Y023951D01*
X013812Y023872D01*
X013794Y02378D01*
X013812Y023687D01*
X013864Y023609D01*
X013943Y023556D01*
X014035Y023538D01*
X014128Y023556D01*
X014206Y023609D01*
X014259Y023687D01*
X014277Y02378D01*
X014259Y023872D01*
X014206Y023951D01*
X014128Y024003D01*
X014035Y024021D01*
D02*
G37*
G36*
X019251Y020653D02*
X019213Y020645D01*
X019139Y020595D01*
X019089Y020521D01*
X019082Y020483D01*
X019251D01*
Y020653D01*
D02*
G37*
G36*
X015945Y017088D02*
X015873Y017074D01*
X015812Y017033D01*
X015771Y016972D01*
X015756Y0169D01*
X015771Y016827D01*
X015812Y016766D01*
X015873Y016725D01*
X015945Y016711D01*
X016017Y016725D01*
X016078Y016766D01*
X016119Y016827D01*
X016134Y0169D01*
X016119Y016972D01*
X016078Y017033D01*
X016017Y017074D01*
X015945Y017088D01*
D02*
G37*
G36*
X01519Y016958D02*
X01502D01*
Y016788D01*
X015058Y016796D01*
X015133Y016846D01*
X015182Y01692D01*
X01519Y016958D01*
D02*
G37*
G36*
X025856Y016834D02*
X025818Y016826D01*
X025743Y016776D01*
X025694Y016702D01*
X025686Y016664D01*
X025856D01*
Y016834D01*
D02*
G37*
G36*
X025956D02*
Y016664D01*
X026125D01*
X026117Y016702D01*
X026068Y016776D01*
X025993Y016826D01*
X025956Y016834D01*
D02*
G37*
G36*
X023356Y016958D02*
X023186D01*
X023194Y01692D01*
X023243Y016846D01*
X023318Y016796D01*
X023356Y016788D01*
Y016958D01*
D02*
G37*
G36*
X012972Y017137D02*
X0129Y017123D01*
X012839Y017082D01*
X012798Y017021D01*
X012784Y016949D01*
X012798Y016877D01*
X012768Y016832D01*
X012717Y016842D01*
X012644Y016828D01*
X012583Y016787D01*
X012542Y016726D01*
X012528Y016654D01*
X012542Y016581D01*
X012583Y01652D01*
X012644Y016479D01*
X012717Y016465D01*
X012789Y016479D01*
X01285Y01652D01*
X012891Y016581D01*
X012905Y016654D01*
X012891Y016726D01*
X012921Y01677D01*
X012972Y01676D01*
X013045Y016775D01*
X013106Y016815D01*
X013147Y016877D01*
X013161Y016949D01*
X013147Y017021D01*
X013106Y017082D01*
X013045Y017123D01*
X012972Y017137D01*
D02*
G37*
G36*
X019892Y017669D02*
X01982Y017655D01*
X019758Y017614D01*
X019717Y017552D01*
X019703Y01748D01*
X019717Y017408D01*
X019758Y017347D01*
X01982Y017306D01*
X01983Y017304D01*
Y017253D01*
X01977Y017241D01*
X019709Y0172D01*
X019668Y017139D01*
X019654Y017067D01*
X019668Y016995D01*
X019709Y016934D01*
X01977Y016893D01*
X019843Y016878D01*
X019915Y016893D01*
X019976Y016934D01*
X020017Y016995D01*
X020031Y017067D01*
X020017Y017139D01*
X019976Y0172D01*
X019915Y017241D01*
X019904Y017243D01*
Y017294D01*
X019964Y017306D01*
X020025Y017347D01*
X020066Y017408D01*
X02008Y01748D01*
X020066Y017552D01*
X020025Y017614D01*
X019964Y017655D01*
X019892Y017669D01*
D02*
G37*
G36*
X023625Y016958D02*
X023456D01*
Y016788D01*
X023493Y016796D01*
X023568Y016846D01*
X023617Y01692D01*
X023625Y016958D01*
D02*
G37*
G36*
X019055Y017344D02*
X018983Y01733D01*
X018922Y017289D01*
X018881Y017228D01*
X018866Y017156D01*
X018881Y017083D01*
X018922Y017022D01*
X018945Y017007D01*
X018943Y016948D01*
X018893Y016914D01*
X018843Y01684D01*
X018836Y016802D01*
X019275D01*
X019267Y01684D01*
X019217Y016914D01*
X019167Y016948D01*
X019165Y017007D01*
X019188Y017022D01*
X019229Y017083D01*
X019244Y017156D01*
X019229Y017228D01*
X019188Y017289D01*
X019127Y01733D01*
X019055Y017344D01*
D02*
G37*
G36*
X020001Y016529D02*
Y016359D01*
X02017D01*
X020163Y016397D01*
X020113Y016471D01*
X020039Y016521D01*
X020001Y016529D01*
D02*
G37*
G36*
X025856Y016564D02*
X025686D01*
X025694Y016526D01*
X025743Y016452D01*
X025818Y016402D01*
X025856Y016395D01*
Y016564D01*
D02*
G37*
G36*
X01748Y016645D02*
X017408Y016631D01*
X017347Y01659D01*
X017306Y016529D01*
X017292Y016457D01*
X017306Y016385D01*
X017347Y016323D01*
X017408Y016282D01*
X01748Y016268D01*
X017552Y016282D01*
X017614Y016323D01*
X017655Y016385D01*
X017669Y016457D01*
X017655Y016529D01*
X017614Y01659D01*
X017552Y016631D01*
X01748Y016645D01*
D02*
G37*
G36*
X019901Y016529D02*
X019863Y016521D01*
X019789Y016471D01*
X019739Y016397D01*
X019731Y016359D01*
X019901D01*
Y016529D01*
D02*
G37*
G36*
X026125Y016564D02*
X025956D01*
Y016395D01*
X025993Y016402D01*
X026068Y016452D01*
X026117Y016526D01*
X026125Y016564D01*
D02*
G37*
G36*
X019005Y016702D02*
X018836D01*
X018843Y016664D01*
X018893Y01659D01*
X018967Y01654D01*
X019005Y016533D01*
Y016702D01*
D02*
G37*
G36*
X019275D02*
X019105D01*
Y016533D01*
X019143Y01654D01*
X019217Y01659D01*
X019267Y016664D01*
X019275Y016702D01*
D02*
G37*
G36*
X030295Y016832D02*
X030223Y016818D01*
X030162Y016777D01*
X030121Y016716D01*
X030107Y016644D01*
X030121Y016572D01*
X030162Y01651D01*
X030223Y016469D01*
X030295Y016455D01*
X030367Y016469D01*
X030429Y01651D01*
X03047Y016572D01*
X030484Y016644D01*
X03047Y016716D01*
X030429Y016777D01*
X030367Y016818D01*
X030295Y016832D01*
D02*
G37*
G36*
X026535Y016872D02*
X026463Y016857D01*
X026402Y016816D01*
X026361Y016755D01*
X026347Y016683D01*
X026361Y016611D01*
X026402Y01655D01*
X026463Y016509D01*
X026535Y016494D01*
X026608Y016509D01*
X026669Y01655D01*
X02671Y016611D01*
X026724Y016683D01*
X02671Y016755D01*
X026669Y016816D01*
X026608Y016857D01*
X026535Y016872D01*
D02*
G37*
G36*
X018366Y01762D02*
X018294Y017605D01*
X018233Y017564D01*
X018192Y017503D01*
X018178Y017431D01*
X018192Y017359D01*
X018233Y017298D01*
X018294Y017257D01*
X018366Y017242D01*
X018438Y017257D01*
X0185Y017298D01*
X01854Y017359D01*
X018555Y017431D01*
X01854Y017503D01*
X0185Y017564D01*
X018438Y017605D01*
X018366Y01762D01*
D02*
G37*
G36*
X019459Y017649D02*
X019386Y017635D01*
X019325Y017594D01*
X019284Y017533D01*
X01927Y017461D01*
X019284Y017388D01*
X019325Y017327D01*
X019386Y017286D01*
X019459Y017272D01*
X019531Y017286D01*
X019592Y017327D01*
X019633Y017388D01*
X019647Y017461D01*
X019633Y017533D01*
X019592Y017594D01*
X019531Y017635D01*
X019459Y017649D01*
D02*
G37*
G36*
X022404Y017253D02*
X022235D01*
Y017084D01*
X022273Y017091D01*
X022347Y017141D01*
X022397Y017215D01*
X022404Y017253D01*
D02*
G37*
G36*
X021201Y01758D02*
X021129Y017566D01*
X021067Y017525D01*
X021027Y017464D01*
X021012Y017392D01*
X021027Y01732D01*
X021067Y017258D01*
X021129Y017217D01*
X021201Y017203D01*
X021273Y017217D01*
X021334Y017258D01*
X021375Y01732D01*
X021389Y017392D01*
X021375Y017464D01*
X021334Y017525D01*
X021273Y017566D01*
X021201Y01758D01*
D02*
G37*
G36*
X032687Y017689D02*
X032615Y017674D01*
X032554Y017633D01*
X032513Y017572D01*
X032498Y0175D01*
X032513Y017428D01*
X032554Y017367D01*
X032615Y017326D01*
X032687Y017311D01*
X032759Y017326D01*
X03282Y017367D01*
X032861Y017428D01*
X032876Y0175D01*
X032861Y017572D01*
X03282Y017633D01*
X032759Y017674D01*
X032687Y017689D01*
D02*
G37*
G36*
X022135Y017523D02*
X022097Y017515D01*
X022023Y017465D01*
X021973Y017391D01*
X021966Y017353D01*
X022135D01*
Y017523D01*
D02*
G37*
G36*
X022235D02*
Y017353D01*
X022404D01*
X022397Y017391D01*
X022347Y017465D01*
X022273Y017515D01*
X022235Y017523D01*
D02*
G37*
G36*
X033749Y017483D02*
X033711Y017476D01*
X033637Y017426D01*
X033587Y017352D01*
X03358Y017314D01*
X033749D01*
Y017483D01*
D02*
G37*
G36*
X033849D02*
Y017314D01*
X034019D01*
X034011Y017352D01*
X033961Y017426D01*
X033887Y017476D01*
X033849Y017483D01*
D02*
G37*
G36*
X033749Y017214D02*
X03358D01*
X033587Y017176D01*
X033637Y017102D01*
X033711Y017052D01*
X033749Y017044D01*
Y017214D01*
D02*
G37*
G36*
X034019D02*
X033849D01*
Y017044D01*
X033887Y017052D01*
X033961Y017102D01*
X034011Y017176D01*
X034019Y017214D01*
D02*
G37*
G36*
X028465Y017305D02*
X028392Y01729D01*
X028331Y01725D01*
X02829Y017188D01*
X028276Y017116D01*
X02829Y017044D01*
X028331Y016983D01*
X028392Y016942D01*
X028465Y016928D01*
X028537Y016942D01*
X028598Y016983D01*
X028639Y017044D01*
X028653Y017116D01*
X028639Y017188D01*
X028598Y01725D01*
X028537Y01729D01*
X028465Y017305D01*
D02*
G37*
G36*
X022776Y017403D02*
X022703Y017389D01*
X022642Y017348D01*
X022601Y017287D01*
X022587Y017215D01*
X022601Y017142D01*
X022642Y017081D01*
X022703Y01704D01*
X022776Y017026D01*
X022848Y01704D01*
X022909Y017081D01*
X02295Y017142D01*
X022964Y017215D01*
X02295Y017287D01*
X022909Y017348D01*
X022848Y017389D01*
X022776Y017403D01*
D02*
G37*
G36*
X01502Y017227D02*
Y017058D01*
X01519D01*
X015182Y017096D01*
X015133Y01717D01*
X015058Y01722D01*
X01502Y017227D01*
D02*
G37*
G36*
X01492D02*
X014883Y01722D01*
X014808Y01717D01*
X014759Y017096D01*
X014757Y017087D01*
X014704Y017077D01*
X0147Y017082D01*
X014639Y017123D01*
X014567Y017137D01*
X014495Y017123D01*
X014434Y017082D01*
X014393Y017021D01*
X014378Y016949D01*
X014393Y016877D01*
X014434Y016815D01*
X014495Y016775D01*
X014567Y01676D01*
X014639Y016775D01*
X0147Y016815D01*
X014734Y016866D01*
X014773Y016873D01*
X014791Y016871D01*
X014808Y016846D01*
X014883Y016796D01*
X01492Y016788D01*
Y017008D01*
Y017227D01*
D02*
G37*
G36*
X022135Y017253D02*
X021966D01*
X021973Y017215D01*
X022023Y017141D01*
X022097Y017091D01*
X022135Y017084D01*
Y017253D01*
D02*
G37*
G36*
X023356Y017227D02*
X023318Y01722D01*
X023243Y01717D01*
X023194Y017096D01*
X023186Y017058D01*
X023356D01*
Y017227D01*
D02*
G37*
G36*
X023456D02*
Y017058D01*
X023625D01*
X023617Y017096D01*
X023568Y01717D01*
X023493Y01722D01*
X023456Y017227D01*
D02*
G37*
G36*
X016133Y01641D02*
Y016241D01*
X016302D01*
X016295Y016279D01*
X016245Y016353D01*
X01617Y016403D01*
X016133Y01641D01*
D02*
G37*
G36*
X023602Y015809D02*
X02353Y015794D01*
X023469Y015753D01*
X023428Y015692D01*
X023414Y01562D01*
X023428Y015548D01*
X023469Y015487D01*
X02353Y015446D01*
X023602Y015431D01*
X023675Y015446D01*
X023736Y015487D01*
X023777Y015548D01*
X023791Y01562D01*
X023777Y015692D01*
X023736Y015753D01*
X023675Y015794D01*
X023602Y015809D01*
D02*
G37*
G36*
X027539Y015907D02*
X027467Y015893D01*
X027406Y015852D01*
X027365Y015791D01*
X027351Y015718D01*
X027365Y015646D01*
X027406Y015585D01*
X027467Y015544D01*
X027539Y01553D01*
X027612Y015544D01*
X027673Y015585D01*
X027714Y015646D01*
X027728Y015718D01*
X027714Y015791D01*
X027673Y015852D01*
X027612Y015893D01*
X027539Y015907D01*
D02*
G37*
G36*
X010856Y01573D02*
X010784Y015716D01*
X010723Y015675D01*
X010682Y015614D01*
X010668Y015541D01*
X010682Y015469D01*
X010723Y015408D01*
X010742Y015395D01*
Y015335D01*
X010704Y01531D01*
X010654Y015235D01*
X010647Y015198D01*
X011086D01*
X011078Y015235D01*
X011028Y01531D01*
X010981Y015342D01*
X01098Y015402D01*
X01099Y015408D01*
X011031Y015469D01*
X011045Y015541D01*
X011031Y015614D01*
X01099Y015675D01*
X010928Y015716D01*
X010856Y01573D01*
D02*
G37*
G36*
X0194Y015779D02*
X019327Y015765D01*
X019266Y015724D01*
X019225Y015663D01*
X019211Y015591D01*
X019225Y015518D01*
X019266Y015457D01*
X019327Y015416D01*
X0194Y015402D01*
X019472Y015416D01*
X019533Y015457D01*
X019574Y015518D01*
X019588Y015591D01*
X019574Y015663D01*
X019533Y015724D01*
X019472Y015765D01*
X0194Y015779D01*
D02*
G37*
G36*
X017056Y015741D02*
X017019Y015734D01*
X016944Y015684D01*
X016894Y015609D01*
X016887Y015572D01*
X017056D01*
Y015741D01*
D02*
G37*
G36*
X013228Y016173D02*
X013156Y016159D01*
X013095Y016118D01*
X013054Y016056D01*
X01304Y015984D01*
X013054Y015912D01*
X013095Y015851D01*
X013156Y01581D01*
X013228Y015796D01*
X013301Y01581D01*
X013362Y015851D01*
X013403Y015912D01*
X013417Y015984D01*
X013403Y016056D01*
X013362Y016118D01*
X013301Y016159D01*
X013228Y016173D01*
D02*
G37*
G36*
X010416Y015974D02*
X010247D01*
Y015804D01*
X010285Y015812D01*
X010359Y015861D01*
X010409Y015936D01*
X010416Y015974D01*
D02*
G37*
G36*
X017156Y015741D02*
Y015572D01*
X017326D01*
X017318Y015609D01*
X017269Y015684D01*
X017194Y015734D01*
X017156Y015741D01*
D02*
G37*
G36*
X01872Y01638D02*
X018648Y016365D01*
X018587Y016324D01*
X018546Y016263D01*
X018532Y016191D01*
X018546Y016119D01*
X01857Y016084D01*
X01856Y016033D01*
X018553Y016026D01*
X018499Y01599D01*
X018458Y015928D01*
X018443Y015856D01*
X018458Y015784D01*
X018499Y015723D01*
X01856Y015682D01*
X018632Y015668D01*
X018704Y015682D01*
X018765Y015723D01*
X018806Y015784D01*
X018821Y015856D01*
X018806Y015928D01*
X018783Y015964D01*
X018792Y016015D01*
X0188Y016021D01*
X018854Y016058D01*
X018895Y016119D01*
X018909Y016191D01*
X018895Y016263D01*
X018854Y016324D01*
X018793Y016365D01*
X01872Y01638D01*
D02*
G37*
G36*
X022018Y015041D02*
X021946Y015027D01*
X021884Y014986D01*
X021843Y014925D01*
X021829Y014852D01*
X021843Y01478D01*
X021884Y014719D01*
X021946Y014678D01*
X022018Y014664D01*
X02209Y014678D01*
X022151Y014719D01*
X022192Y01478D01*
X022206Y014852D01*
X022192Y014925D01*
X022151Y014986D01*
X02209Y015027D01*
X022018Y015041D01*
D02*
G37*
G36*
X016329Y015198D02*
X016257Y015184D01*
X016195Y015143D01*
X016154Y015082D01*
X01614Y01501D01*
X016154Y014938D01*
X016195Y014876D01*
X016257Y014836D01*
X016329Y014821D01*
X016401Y014836D01*
X016462Y014876D01*
X016503Y014938D01*
X016517Y01501D01*
X016503Y015082D01*
X016462Y015143D01*
X016401Y015184D01*
X016329Y015198D01*
D02*
G37*
G36*
X016103Y014757D02*
Y014587D01*
X016273D01*
X016265Y014625D01*
X016215Y0147D01*
X016141Y014749D01*
X016103Y014757D01*
D02*
G37*
G36*
X023071Y014982D02*
X022999Y014968D01*
X022937Y014927D01*
X022897Y014865D01*
X022882Y014793D01*
X022897Y014721D01*
X022937Y01466D01*
X022999Y014619D01*
X023071Y014605D01*
X023143Y014619D01*
X023204Y01466D01*
X023245Y014721D01*
X023259Y014793D01*
X023245Y014865D01*
X023204Y014927D01*
X023143Y014968D01*
X023071Y014982D01*
D02*
G37*
G36*
X010816Y015098D02*
X010647D01*
X010654Y01506D01*
X010704Y014985D01*
X010778Y014936D01*
X010816Y014928D01*
Y015098D01*
D02*
G37*
G36*
X03123Y015464D02*
X031158Y01545D01*
X031097Y015409D01*
X031056Y015348D01*
X031042Y015276D01*
X031056Y015203D01*
X031097Y015142D01*
X031158Y015101D01*
X03123Y015087D01*
X031302Y015101D01*
X031364Y015142D01*
X031405Y015203D01*
X031419Y015276D01*
X031405Y015348D01*
X031364Y015409D01*
X031302Y01545D01*
X03123Y015464D01*
D02*
G37*
G36*
X024252Y015543D02*
X02418Y015529D01*
X024119Y015488D01*
X024078Y015427D01*
X024063Y015354D01*
X024078Y015282D01*
X024119Y015221D01*
X02418Y01518D01*
X024252Y015166D01*
X024324Y01518D01*
X024385Y015221D01*
X024426Y015282D01*
X024441Y015354D01*
X024426Y015427D01*
X024385Y015488D01*
X024324Y015529D01*
X024252Y015543D01*
D02*
G37*
G36*
X011086Y015098D02*
X010916D01*
Y014928D01*
X010954Y014936D01*
X011028Y014985D01*
X011078Y01506D01*
X011086Y015098D01*
D02*
G37*
G36*
X017326Y015472D02*
X016887D01*
X016894Y015434D01*
X016944Y015359D01*
X017019Y01531D01*
X017075Y015298D01*
X017099Y015244D01*
X01709Y01523D01*
X017075Y015157D01*
X01709Y015085D01*
X01713Y015024D01*
X017192Y014983D01*
X017264Y014969D01*
X017336Y014983D01*
X017397Y015024D01*
X017438Y015085D01*
X017452Y015157D01*
X017438Y01523D01*
X017397Y015291D01*
X017336Y015332D01*
X017313Y015336D01*
X01729Y015392D01*
X017318Y015434D01*
X017326Y015472D01*
D02*
G37*
G36*
X02017Y016259D02*
X020001D01*
Y01609D01*
X020039Y016097D01*
X020113Y016147D01*
X020163Y016221D01*
X02017Y016259D01*
D02*
G37*
G36*
X022135Y016292D02*
X022097Y016285D01*
X022023Y016235D01*
X021973Y016161D01*
X021966Y016123D01*
X022135D01*
Y016292D01*
D02*
G37*
G36*
X010247Y016243D02*
Y016074D01*
X010416D01*
X010409Y016111D01*
X010359Y016186D01*
X010285Y016236D01*
X010247Y016243D01*
D02*
G37*
G36*
X019901Y016259D02*
X019731D01*
X019739Y016221D01*
X019789Y016147D01*
X019863Y016097D01*
X019901Y01609D01*
Y016259D01*
D02*
G37*
G36*
X022235Y016292D02*
Y016123D01*
X022404D01*
X022397Y016161D01*
X022347Y016235D01*
X022273Y016285D01*
X022235Y016292D01*
D02*
G37*
G36*
X028515Y016401D02*
Y016231D01*
X028684D01*
X028677Y016269D01*
X028627Y016343D01*
X028552Y016393D01*
X028515Y016401D01*
D02*
G37*
G36*
X016033Y01641D02*
X015995Y016403D01*
X01592Y016353D01*
X015871Y016279D01*
X015863Y016241D01*
X016033D01*
Y01641D01*
D02*
G37*
G36*
X034753Y016322D02*
X034715Y016314D01*
X034641Y016265D01*
X034591Y01619D01*
X034584Y016152D01*
X034753D01*
Y016322D01*
D02*
G37*
G36*
X028415Y016401D02*
X028377Y016393D01*
X028302Y016343D01*
X028253Y016269D01*
X028245Y016231D01*
X028415D01*
Y016401D01*
D02*
G37*
G36*
X022404Y016023D02*
X022235D01*
Y015853D01*
X022273Y015861D01*
X022347Y015911D01*
X022397Y015985D01*
X022404Y016023D01*
D02*
G37*
G36*
X034753Y016052D02*
X034584D01*
X034591Y016015D01*
X034641Y01594D01*
X034715Y01589D01*
X034753Y015883D01*
Y016052D01*
D02*
G37*
G36*
X025069Y016222D02*
X024997Y016208D01*
X024936Y016167D01*
X024895Y016106D01*
X02488Y016033D01*
X024895Y015961D01*
X024936Y0159D01*
X024997Y015859D01*
X025069Y015845D01*
X025141Y015859D01*
X025202Y0159D01*
X025243Y015961D01*
X025258Y016033D01*
X025243Y016106D01*
X025202Y016167D01*
X025141Y016208D01*
X025069Y016222D01*
D02*
G37*
G36*
X022135Y016023D02*
X021966D01*
X021973Y015985D01*
X022023Y015911D01*
X022097Y015861D01*
X022135Y015853D01*
Y016023D01*
D02*
G37*
G36*
X028415Y016131D02*
X028245D01*
X028253Y016093D01*
X028302Y016019D01*
X028377Y015969D01*
X028415Y015962D01*
Y016131D01*
D02*
G37*
G36*
X016302Y016141D02*
X016133D01*
Y015971D01*
X01617Y015979D01*
X016245Y016029D01*
X016295Y016103D01*
X016302Y016141D01*
D02*
G37*
G36*
X023652Y016399D02*
X023579Y016385D01*
X023518Y016344D01*
X023477Y016283D01*
X023463Y016211D01*
X023477Y016138D01*
X023518Y016077D01*
X023579Y016036D01*
X023652Y016022D01*
X023724Y016036D01*
X023785Y016077D01*
X023826Y016138D01*
X02384Y016211D01*
X023826Y016283D01*
X023785Y016344D01*
X023724Y016385D01*
X023652Y016399D01*
D02*
G37*
G36*
X028684Y016131D02*
X028515D01*
Y015962D01*
X028552Y015969D01*
X028627Y016019D01*
X028677Y016093D01*
X028684Y016131D01*
D02*
G37*
G36*
X016033Y016141D02*
X015863D01*
X015871Y016103D01*
X01592Y016029D01*
X015995Y015979D01*
X016033Y015971D01*
Y016141D01*
D02*
G37*
G36*
X028248Y019785D02*
X028176Y019771D01*
X028115Y01973D01*
X028074Y019669D01*
X028059Y019596D01*
X028074Y019524D01*
X028115Y019463D01*
X028176Y019422D01*
X028248Y019408D01*
X02832Y019422D01*
X028381Y019463D01*
X028422Y019524D01*
X028437Y019596D01*
X028422Y019669D01*
X028381Y01973D01*
X02832Y019771D01*
X028248Y019785D01*
D02*
G37*
G36*
X022982Y019824D02*
X02291Y01981D01*
X022849Y019769D01*
X022808Y019708D01*
X022794Y019636D01*
X022808Y019564D01*
X022849Y019502D01*
X02291Y019462D01*
X022982Y019447D01*
X023054Y019462D01*
X023116Y019502D01*
X023157Y019564D01*
X023171Y019636D01*
X023157Y019708D01*
X023116Y019769D01*
X023054Y01981D01*
X022982Y019824D01*
D02*
G37*
G36*
X019045Y019647D02*
X018973Y019633D01*
X018912Y019592D01*
X018871Y019531D01*
X018857Y019459D01*
X018871Y019386D01*
X018912Y019325D01*
X018973Y019284D01*
X019045Y01927D01*
X019117Y019284D01*
X019179Y019325D01*
X01922Y019386D01*
X019234Y019459D01*
X01922Y019531D01*
X019179Y019592D01*
X019117Y019633D01*
X019045Y019647D01*
D02*
G37*
G36*
X027244Y019578D02*
X027172Y019564D01*
X027111Y019523D01*
X02707Y019462D01*
X027055Y01939D01*
X027068Y019329D01*
X027063Y019325D01*
X027024Y019303D01*
X026972Y019338D01*
X0269Y019352D01*
X026827Y019338D01*
X026766Y019297D01*
X026725Y019236D01*
X026711Y019163D01*
X026714Y019149D01*
X026688Y01913D01*
X026668Y019123D01*
X026609Y019168D01*
X026534Y0192D01*
X026453Y01921D01*
X026372Y0192D01*
X026296Y019168D01*
X026232Y019119D01*
X026182Y019054D01*
X026151Y018979D01*
X02614Y018898D01*
X026151Y018817D01*
X026182Y018741D01*
X026232Y018677D01*
X026296Y018627D01*
X026372Y018596D01*
X026453Y018585D01*
X026534Y018596D01*
X026609Y018627D01*
X026674Y018677D01*
X026724Y018741D01*
X026755Y018817D01*
X026765Y018898D01*
X026755Y018977D01*
X026757Y018981D01*
X026796Y01901D01*
X026827Y018989D01*
X0269Y018975D01*
X026972Y018989D01*
X027033Y01903D01*
X027074Y019091D01*
X027088Y019163D01*
X027076Y019224D01*
X027081Y019228D01*
X027119Y019251D01*
X027172Y019216D01*
X027244Y019201D01*
X027261Y019205D01*
X027283Y019158D01*
X027232Y019119D01*
X027182Y019054D01*
X027151Y018979D01*
X02714Y018898D01*
X027151Y018817D01*
X027182Y018741D01*
X027232Y018677D01*
X027296Y018627D01*
X027372Y018596D01*
X027453Y018585D01*
X027534Y018596D01*
X027609Y018627D01*
X027674Y018677D01*
X027724Y018741D01*
X027755Y018817D01*
X027765Y018898D01*
X027755Y018979D01*
X027724Y019054D01*
X027674Y019119D01*
X027609Y019168D01*
X027534Y0192D01*
X027453Y01921D01*
X027385Y019201D01*
X027367Y019249D01*
X027377Y019256D01*
X027418Y019318D01*
X027433Y01939D01*
X027418Y019462D01*
X027377Y019523D01*
X027316Y019564D01*
X027244Y019578D01*
D02*
G37*
G36*
X014774Y019834D02*
X014701Y01982D01*
X01464Y019779D01*
X014599Y019718D01*
X014585Y019646D01*
X014599Y019573D01*
X01464Y019512D01*
X014701Y019471D01*
X014774Y019457D01*
X014846Y019471D01*
X014907Y019512D01*
X014948Y019573D01*
X014962Y019646D01*
X014948Y019718D01*
X014907Y019779D01*
X014846Y01982D01*
X014774Y019834D01*
D02*
G37*
G36*
X029202Y019698D02*
X029164Y01969D01*
X02909Y019641D01*
X02904Y019566D01*
X029033Y019528D01*
X029202D01*
Y019698D01*
D02*
G37*
G36*
X029302D02*
Y019528D01*
X029471D01*
X029464Y019566D01*
X029414Y019641D01*
X02934Y01969D01*
X029302Y019698D01*
D02*
G37*
G36*
X017411Y019629D02*
X017373Y019621D01*
X017298Y019572D01*
X017249Y019497D01*
X017241Y019459D01*
X017411D01*
Y019629D01*
D02*
G37*
G36*
X017511D02*
Y019459D01*
X01768D01*
X017673Y019497D01*
X017623Y019572D01*
X017548Y019621D01*
X017511Y019629D01*
D02*
G37*
G36*
X024403Y019244D02*
X024361Y019239D01*
X024276Y019203D01*
X024203Y019147D01*
X024147Y019074D01*
X024112Y018989D01*
X024106Y018948D01*
X024403D01*
Y019244D01*
D02*
G37*
G36*
X024503D02*
Y018948D01*
X024799D01*
X024794Y018989D01*
X024758Y019074D01*
X024702Y019147D01*
X024629Y019203D01*
X024544Y019239D01*
X024503Y019244D01*
D02*
G37*
G36*
X013209Y020002D02*
X013136Y019987D01*
X013075Y019946D01*
X013034Y019885D01*
X01302Y019813D01*
X013034Y019741D01*
X013075Y01968D01*
X013136Y019639D01*
X013156Y019635D01*
Y019584D01*
X013156Y019584D01*
X013095Y019543D01*
X013054Y019482D01*
X01304Y019409D01*
X013054Y019337D01*
X013095Y019276D01*
X013156Y019235D01*
X013171Y019232D01*
X01318Y01918D01*
X013134Y019149D01*
X013093Y019088D01*
X013079Y019016D01*
X013093Y018944D01*
X013134Y018882D01*
X013196Y018841D01*
X013268Y018827D01*
X01334Y018841D01*
X013401Y018882D01*
X013442Y018944D01*
X013456Y019016D01*
X013442Y019088D01*
X013401Y019149D01*
X01334Y01919D01*
X013325Y019193D01*
X013316Y019246D01*
X013362Y019276D01*
X013403Y019337D01*
X013417Y019409D01*
X013403Y019482D01*
X013362Y019543D01*
X013301Y019584D01*
X013281Y019588D01*
Y019639D01*
X013281Y019639D01*
X013342Y01968D01*
X013383Y019741D01*
X013397Y019813D01*
X013383Y019885D01*
X013342Y019946D01*
X013281Y019987D01*
X013209Y020002D01*
D02*
G37*
G36*
X022244Y019462D02*
X022098Y019443D01*
X021962Y019387D01*
X021845Y019297D01*
X021755Y01918D01*
X021699Y019044D01*
X021679Y018898D01*
X021699Y018751D01*
X021755Y018615D01*
X021845Y018498D01*
X021962Y018408D01*
X022098Y018352D01*
X022244Y018333D01*
X02239Y018352D01*
X022527Y018408D01*
X022643Y018498D01*
X022733Y018615D01*
X02279Y018751D01*
X022809Y018898D01*
X022807Y018916D01*
X022836Y018933D01*
X022854Y018938D01*
X022911Y018901D01*
X022983Y018886D01*
X023055Y018901D01*
X023116Y018941D01*
X023157Y019003D01*
X023172Y019075D01*
X023157Y019147D01*
X023116Y019208D01*
X023055Y019249D01*
X022983Y019263D01*
X022911Y019249D01*
X02285Y019208D01*
X022809Y019147D01*
X022806Y019135D01*
X022754Y01913D01*
X022733Y01918D01*
X022643Y019297D01*
X022527Y019387D01*
X02239Y019443D01*
X022244Y019462D01*
D02*
G37*
G36*
X01997Y019254D02*
X019898Y019239D01*
X019837Y019198D01*
X019796Y019137D01*
X019796Y019135D01*
X019743Y019125D01*
X01974Y019129D01*
X019678Y01917D01*
X019606Y019185D01*
X019534Y01917D01*
X019473Y019129D01*
X019432Y019068D01*
X019418Y018996D01*
X019423Y018967D01*
X019381Y018925D01*
X01936Y018929D01*
X019288Y018914D01*
X019227Y018874D01*
X019186Y018812D01*
X019172Y01874D01*
X019186Y018668D01*
X019227Y018607D01*
X019288Y018566D01*
X01936Y018552D01*
X019432Y018566D01*
X019494Y018607D01*
X019534Y018668D01*
X019549Y01874D01*
X019543Y018769D01*
X019586Y018812D01*
X019606Y018807D01*
X019648Y018816D01*
X019678Y018771D01*
X01967Y018759D01*
X019662Y018721D01*
X020101D01*
X020094Y018759D01*
X020044Y018833D01*
X020032Y018842D01*
X020042Y018891D01*
X020043Y018891D01*
X020104Y018932D01*
X020145Y018993D01*
X020159Y019065D01*
X020145Y019137D01*
X020104Y019198D01*
X020043Y019239D01*
X01997Y019254D01*
D02*
G37*
G36*
X029202Y019428D02*
X029033D01*
X02904Y019391D01*
X02909Y019316D01*
X029164Y019266D01*
X029202Y019259D01*
Y019428D01*
D02*
G37*
G36*
X029471D02*
X029302D01*
Y019259D01*
X02934Y019266D01*
X029414Y019316D01*
X029464Y019391D01*
X029471Y019428D01*
D02*
G37*
G36*
X017411Y019359D02*
X017241D01*
X017249Y019322D01*
X017298Y019247D01*
X017373Y019197D01*
X017411Y01919D01*
Y019359D01*
D02*
G37*
G36*
X01768D02*
X017511D01*
Y01919D01*
X017548Y019197D01*
X017623Y019247D01*
X017673Y019322D01*
X01768Y019359D01*
D02*
G37*
G36*
X024134Y020553D02*
X024062Y020538D01*
X024Y020498D01*
X02396Y020436D01*
X023945Y020364D01*
X02396Y020292D01*
X024Y020231D01*
X024062Y02019D01*
X024134Y020176D01*
X024206Y02019D01*
X024267Y020231D01*
X024308Y020292D01*
X024322Y020364D01*
X024308Y020436D01*
X024267Y020498D01*
X024206Y020538D01*
X024134Y020553D01*
D02*
G37*
G36*
X019251Y020383D02*
X019082D01*
X019089Y020345D01*
X019139Y020271D01*
X019213Y020221D01*
X019251Y020214D01*
Y020383D01*
D02*
G37*
G36*
X033907Y020435D02*
X033835Y02042D01*
X033774Y020379D01*
X033733Y020318D01*
X033719Y020246D01*
X033733Y020174D01*
X033774Y020113D01*
X033835Y020072D01*
X033907Y020057D01*
X03398Y020072D01*
X034041Y020113D01*
X034082Y020174D01*
X034096Y020246D01*
X034082Y020318D01*
X034041Y020379D01*
X03398Y02042D01*
X033907Y020435D01*
D02*
G37*
G36*
X034753Y020259D02*
X034715Y020251D01*
X034641Y020202D01*
X034591Y020127D01*
X034584Y020089D01*
X034753D01*
Y020259D01*
D02*
G37*
G36*
X019521Y020383D02*
X019351D01*
Y020214D01*
X019389Y020221D01*
X019463Y020271D01*
X019513Y020345D01*
X019521Y020383D01*
D02*
G37*
G36*
X020492Y020809D02*
X02042Y020794D01*
X020359Y020753D01*
X020318Y020692D01*
X020303Y02062D01*
X020318Y020548D01*
X020359Y020487D01*
X02042Y020446D01*
X020492Y020431D01*
X020564Y020446D01*
X020626Y020487D01*
X020666Y020548D01*
X020681Y02062D01*
X020666Y020692D01*
X020626Y020753D01*
X020564Y020794D01*
X020492Y020809D01*
D02*
G37*
G36*
X017875Y020938D02*
Y020719D01*
Y020499D01*
X017913Y020507D01*
X017987Y020556D01*
X018033Y020625D01*
X018055Y020626D01*
X018085Y02062D01*
X018093Y020577D01*
X018134Y020516D01*
X018196Y020475D01*
X018268Y020461D01*
X01834Y020475D01*
X018401Y020516D01*
X018442Y020577D01*
X018456Y02065D01*
X018442Y020722D01*
X018401Y020783D01*
X01834Y020824D01*
X018268Y020838D01*
X018196Y020824D01*
X018134Y020783D01*
X018102Y020735D01*
X01805Y02074D01*
X018037Y020806D01*
X017987Y020881D01*
X017913Y02093D01*
X017875Y020938D01*
D02*
G37*
G36*
X023465Y02072D02*
X023392Y020706D01*
X023331Y020665D01*
X02329Y020604D01*
X023276Y020531D01*
X02329Y020459D01*
X023331Y020398D01*
X023392Y020357D01*
X023465Y020343D01*
X023537Y020357D01*
X023598Y020398D01*
X023639Y020459D01*
X023653Y020531D01*
X023639Y020604D01*
X023598Y020665D01*
X023537Y020706D01*
X023465Y02072D01*
D02*
G37*
G36*
X012421Y02074D02*
X012349Y020725D01*
X012288Y020685D01*
X012247Y020623D01*
X012233Y020551D01*
X012247Y020479D01*
X012288Y020418D01*
X012349Y020377D01*
X012421Y020363D01*
X012493Y020377D01*
X012555Y020418D01*
X012596Y020479D01*
X01261Y020551D01*
X012596Y020623D01*
X012555Y020685D01*
X012493Y020725D01*
X012421Y02074D01*
D02*
G37*
G36*
X026536Y020081D02*
X026464Y020067D01*
X026403Y020026D01*
X026362Y019965D01*
X026348Y019892D01*
X026362Y01982D01*
X026403Y019759D01*
X026464Y019718D01*
X026536Y019704D01*
X026608Y019718D01*
X02667Y019759D01*
X026711Y01982D01*
X026725Y019892D01*
X026711Y019965D01*
X02667Y020026D01*
X026608Y020067D01*
X026536Y020081D01*
D02*
G37*
G36*
X023848Y02011D02*
X023776Y020096D01*
X023715Y020055D01*
X023674Y019993D01*
X02366Y019921D01*
X023674Y019849D01*
X023715Y019788D01*
X023776Y019747D01*
X023848Y019733D01*
X023921Y019747D01*
X023982Y019788D01*
X024023Y019849D01*
X024037Y019921D01*
X024023Y019993D01*
X023982Y020055D01*
X023921Y020096D01*
X023848Y02011D01*
D02*
G37*
G36*
X029685Y019933D02*
X029613Y019918D01*
X029552Y019877D01*
X029511Y019816D01*
X029496Y019744D01*
X029511Y019672D01*
X029552Y019611D01*
X029613Y01957D01*
X029685Y019555D01*
X029757Y01957D01*
X029818Y019611D01*
X029859Y019672D01*
X029874Y019744D01*
X029859Y019816D01*
X029818Y019877D01*
X029757Y019918D01*
X029685Y019933D01*
D02*
G37*
G36*
X022126Y020061D02*
X022054Y020046D01*
X021993Y020005D01*
X021952Y019944D01*
X021937Y019872D01*
X021952Y0198D01*
X021993Y019739D01*
X022054Y019698D01*
X022126Y019683D01*
X022198Y019698D01*
X022259Y019739D01*
X0223Y0198D01*
X022315Y019872D01*
X0223Y019944D01*
X022259Y020005D01*
X022198Y020046D01*
X022126Y020061D01*
D02*
G37*
G36*
X010416Y019911D02*
X010247D01*
Y019741D01*
X010285Y019749D01*
X010359Y019798D01*
X010409Y019873D01*
X010416Y019911D01*
D02*
G37*
G36*
X017933Y020385D02*
X017861Y020371D01*
X0178Y02033D01*
X017759Y020269D01*
X017744Y020197D01*
X017759Y020125D01*
X0178Y020063D01*
X017861Y020023D01*
X017933Y020008D01*
X018005Y020023D01*
X018066Y020063D01*
X018107Y020125D01*
X018122Y020197D01*
X018107Y020269D01*
X018066Y02033D01*
X018005Y020371D01*
X017933Y020385D01*
D02*
G37*
G36*
X010247Y02018D02*
Y020011D01*
X010416D01*
X010409Y020048D01*
X010359Y020123D01*
X010285Y020173D01*
X010247Y02018D01*
D02*
G37*
G36*
X034753Y019989D02*
X034584D01*
X034591Y019952D01*
X034641Y019877D01*
X034715Y019827D01*
X034753Y01982D01*
Y019989D01*
D02*
G37*
G36*
X02122Y020346D02*
X021148Y020332D01*
X021087Y020291D01*
X021046Y02023D01*
X021032Y020157D01*
X021046Y020085D01*
X021087Y020024D01*
X021148Y019983D01*
X02122Y019969D01*
X021293Y019983D01*
X021354Y020024D01*
X021395Y020085D01*
X021409Y020157D01*
X021395Y02023D01*
X021354Y020291D01*
X021293Y020332D01*
X02122Y020346D01*
D02*
G37*
G36*
X02376Y019185D02*
X023688Y01917D01*
X023626Y019129D01*
X023586Y019068D01*
X023571Y018996D01*
X023586Y018924D01*
X023626Y018863D01*
X023688Y018822D01*
X02376Y018807D01*
X023832Y018822D01*
X023893Y018863D01*
X023934Y018924D01*
X023948Y018996D01*
X023934Y019068D01*
X023893Y019129D01*
X023832Y01917D01*
X02376Y019185D01*
D02*
G37*
G36*
X026676Y018129D02*
X026507D01*
Y01796D01*
X026544Y017967D01*
X026619Y018017D01*
X026669Y018091D01*
X026676Y018129D01*
D02*
G37*
G36*
X017303Y018358D02*
X017231Y018344D01*
X01717Y018303D01*
X017129Y018241D01*
X017115Y018169D01*
X017129Y018097D01*
X01717Y018036D01*
X017231Y017995D01*
X017303Y017981D01*
X017375Y017995D01*
X017437Y018036D01*
X017477Y018097D01*
X017492Y018169D01*
X017477Y018241D01*
X017437Y018303D01*
X017375Y018344D01*
X017303Y018358D01*
D02*
G37*
G36*
X034753Y018021D02*
X034584D01*
X034591Y017983D01*
X034641Y017909D01*
X034715Y017859D01*
X034753Y017851D01*
Y018021D01*
D02*
G37*
G36*
X026407Y018129D02*
X026237D01*
X026245Y018091D01*
X026294Y018017D01*
X026369Y017967D01*
X026407Y01796D01*
Y018129D01*
D02*
G37*
G36*
X010247Y018212D02*
Y018042D01*
X010416D01*
X010409Y01808D01*
X010359Y018154D01*
X010285Y018204D01*
X010247Y018212D01*
D02*
G37*
G36*
X026024Y018515D02*
X025951Y018501D01*
X02589Y01846D01*
X025849Y018399D01*
X025835Y018327D01*
X025849Y018255D01*
X02589Y018193D01*
X025951Y018153D01*
X026024Y018138D01*
X026096Y018153D01*
X026157Y018193D01*
X026189Y018241D01*
X026216Y018229D01*
X026407D01*
Y018399D01*
X026369Y018391D01*
X026294Y018341D01*
X026254Y018281D01*
X026207Y0183D01*
X026212Y018327D01*
X026198Y018399D01*
X026157Y01846D01*
X026096Y018501D01*
X026024Y018515D01*
D02*
G37*
G36*
X026507Y018399D02*
Y018229D01*
X026676D01*
X026669Y018267D01*
X026619Y018341D01*
X026544Y018391D01*
X026507Y018399D01*
D02*
G37*
G36*
X034753Y01829D02*
X034715Y018283D01*
X034641Y018233D01*
X034591Y018159D01*
X034584Y018121D01*
X034753D01*
Y01829D01*
D02*
G37*
G36*
X014774Y019352D02*
X014701Y019338D01*
X01464Y019297D01*
X014599Y019236D01*
X014585Y019163D01*
X014599Y019091D01*
X01464Y01903D01*
X014673Y019008D01*
Y018948D01*
X01465Y018933D01*
X014609Y018872D01*
X014595Y018799D01*
X014609Y018727D01*
X01465Y018666D01*
X014712Y018625D01*
X014742Y018619D01*
X014748Y018584D01*
X014747Y018567D01*
X014689Y018529D01*
X014649Y018468D01*
X014634Y018396D01*
X014649Y018323D01*
X014689Y018262D01*
X014751Y018221D01*
X014823Y018207D01*
X014895Y018221D01*
X014956Y018262D01*
X014997Y018323D01*
X015011Y018396D01*
X014997Y018468D01*
X014956Y018529D01*
X014895Y01857D01*
X014865Y018576D01*
X014858Y018612D01*
X01486Y018628D01*
X014917Y018666D01*
X014958Y018727D01*
X014972Y018799D01*
X014958Y018872D01*
X014917Y018933D01*
X014884Y018955D01*
Y019015D01*
X014907Y01903D01*
X014948Y019091D01*
X014962Y019163D01*
X014948Y019236D01*
X014907Y019297D01*
X014846Y019338D01*
X014774Y019352D01*
D02*
G37*
G36*
X024567Y017836D02*
X024495Y017822D01*
X024434Y017781D01*
X024393Y01772D01*
X024378Y017648D01*
X024393Y017575D01*
X024434Y017514D01*
X024495Y017473D01*
X024567Y017459D01*
X024639Y017473D01*
X0247Y017514D01*
X024741Y017575D01*
X024756Y017648D01*
X024741Y01772D01*
X0247Y017781D01*
X024639Y017822D01*
X024567Y017836D01*
D02*
G37*
G36*
X025737Y017838D02*
X0257Y01783D01*
X025625Y01778D01*
X025575Y017706D01*
X025568Y017668D01*
X025737D01*
Y017838D01*
D02*
G37*
G36*
Y017568D02*
X025568D01*
X025575Y01753D01*
X025625Y017456D01*
X0257Y017406D01*
X025737Y017399D01*
Y017568D01*
D02*
G37*
G36*
X026007D02*
X025837D01*
Y017399D01*
X025875Y017406D01*
X02595Y017456D01*
X025999Y01753D01*
X026007Y017568D01*
D02*
G37*
G36*
X025837Y017838D02*
Y017668D01*
X026007D01*
X025999Y017706D01*
X02595Y01778D01*
X025875Y01783D01*
X025837Y017838D01*
D02*
G37*
G36*
X024134Y018171D02*
X024062Y018157D01*
X024Y018116D01*
X02396Y018054D01*
X023945Y017982D01*
X02396Y01791D01*
X024Y017849D01*
X024034Y017827D01*
X024014Y017779D01*
X023976Y017787D01*
X023904Y017773D01*
X023843Y017732D01*
X023802Y017671D01*
X023788Y017598D01*
X023802Y017526D01*
X023843Y017465D01*
X023904Y017424D01*
X023976Y01741D01*
X024049Y017424D01*
X02411Y017465D01*
X024151Y017526D01*
X024165Y017598D01*
X024151Y017671D01*
X02411Y017732D01*
X024076Y017754D01*
X024096Y017801D01*
X024134Y017794D01*
X024206Y017808D01*
X024267Y017849D01*
X024308Y01791D01*
X024322Y017982D01*
X024308Y018054D01*
X024267Y018116D01*
X024206Y018157D01*
X024134Y018171D01*
D02*
G37*
G36*
X021319Y018181D02*
X021247Y018166D01*
X021186Y018125D01*
X021145Y018064D01*
X02113Y017992D01*
X021145Y01792D01*
X021186Y017859D01*
X021247Y017818D01*
X021319Y017803D01*
X021391Y017818D01*
X021452Y017859D01*
X021493Y01792D01*
X021508Y017992D01*
X021493Y018064D01*
X021452Y018125D01*
X021391Y018166D01*
X021319Y018181D01*
D02*
G37*
G36*
X029596Y018122D02*
X029524Y018107D01*
X029463Y018066D01*
X029422Y018005D01*
X029408Y017933D01*
X029422Y017861D01*
X029463Y0178D01*
X029524Y017759D01*
X029596Y017744D01*
X029669Y017759D01*
X02973Y0178D01*
X029771Y017861D01*
X029785Y017933D01*
X029771Y018005D01*
X02973Y018066D01*
X029669Y018107D01*
X029596Y018122D01*
D02*
G37*
G36*
X010416Y017942D02*
X010247D01*
Y017773D01*
X010285Y01778D01*
X010359Y01783D01*
X010409Y017904D01*
X010416Y017942D01*
D02*
G37*
G36*
X029453Y01921D02*
X029372Y0192D01*
X029296Y019168D01*
X029232Y019119D01*
X029182Y019054D01*
X029151Y018979D01*
X02914Y018898D01*
X029151Y018817D01*
X029182Y018741D01*
X029232Y018677D01*
X029296Y018627D01*
X029372Y018596D01*
X029453Y018585D01*
X029534Y018596D01*
X029609Y018627D01*
X029674Y018677D01*
X029724Y018741D01*
X029755Y018817D01*
X029765Y018898D01*
X029755Y018979D01*
X029724Y019054D01*
X029674Y019119D01*
X029609Y019168D01*
X029534Y0192D01*
X029453Y01921D01*
D02*
G37*
G36*
X030453D02*
X030372Y0192D01*
X030296Y019168D01*
X030232Y019119D01*
X030182Y019054D01*
X030151Y018979D01*
X03014Y018898D01*
X030151Y018817D01*
X030182Y018741D01*
X030232Y018677D01*
X030296Y018627D01*
X030372Y018596D01*
X030453Y018585D01*
X030534Y018596D01*
X030609Y018627D01*
X030674Y018677D01*
X030724Y018741D01*
X030755Y018817D01*
X030765Y018898D01*
X030755Y018979D01*
X030724Y019054D01*
X030674Y019119D01*
X030609Y019168D01*
X030534Y0192D01*
X030453Y01921D01*
D02*
G37*
G36*
X025453D02*
X025372Y0192D01*
X025296Y019168D01*
X025232Y019119D01*
X025182Y019054D01*
X025151Y018979D01*
X02514Y018898D01*
X025151Y018817D01*
X025182Y018741D01*
X025232Y018677D01*
X025296Y018627D01*
X025372Y018596D01*
X025453Y018585D01*
X025534Y018596D01*
X025609Y018627D01*
X025674Y018677D01*
X025724Y018741D01*
X025755Y018817D01*
X025765Y018898D01*
X025755Y018979D01*
X025724Y019054D01*
X025674Y019119D01*
X025609Y019168D01*
X025534Y0192D01*
X025453Y01921D01*
D02*
G37*
G36*
X028453D02*
X028372Y0192D01*
X028296Y019168D01*
X028232Y019119D01*
X028182Y019054D01*
X028151Y018979D01*
X02814Y018898D01*
X028151Y018817D01*
X028182Y018741D01*
X028232Y018677D01*
X028296Y018627D01*
X028372Y018596D01*
X028453Y018585D01*
X028534Y018596D01*
X028609Y018627D01*
X028674Y018677D01*
X028724Y018741D01*
X028755Y018817D01*
X028765Y018898D01*
X028755Y018979D01*
X028724Y019054D01*
X028674Y019119D01*
X028609Y019168D01*
X028534Y0192D01*
X028453Y01921D01*
D02*
G37*
G36*
X031763Y019208D02*
X031143D01*
Y018588D01*
X031763D01*
Y019208D01*
D02*
G37*
G36*
X016407Y019067D02*
X016335Y019052D01*
X016274Y019011D01*
X016233Y01895D01*
X016219Y018878D01*
X016233Y018806D01*
X016274Y018745D01*
X016335Y018704D01*
X016407Y018689D01*
X01648Y018704D01*
X016541Y018745D01*
X016582Y018806D01*
X016596Y018878D01*
X016582Y01895D01*
X016541Y019011D01*
X01648Y019052D01*
X016407Y019067D01*
D02*
G37*
G36*
X010984Y020004D02*
X010861Y019992D01*
X010742Y019956D01*
X010632Y019897D01*
X010536Y019818D01*
X010457Y019722D01*
X010399Y019613D01*
X010363Y019494D01*
X01035Y01937D01*
X010363Y019246D01*
X010399Y019127D01*
X010457Y019018D01*
X010536Y018922D01*
X010632Y018843D01*
X010742Y018784D01*
X010861Y018748D01*
X010984Y018736D01*
X011108Y018748D01*
X011227Y018784D01*
X011336Y018843D01*
X011432Y018922D01*
X011511Y019018D01*
X01157Y019127D01*
X011606Y019246D01*
X011618Y01937D01*
X011606Y019494D01*
X01157Y019613D01*
X011511Y019722D01*
X011432Y019818D01*
X011336Y019897D01*
X011227Y019956D01*
X011108Y019992D01*
X010984Y020004D01*
D02*
G37*
G36*
X018572Y018773D02*
X018534Y018765D01*
X01846Y018715D01*
X01841Y018641D01*
X018405Y018613D01*
X018349Y01859D01*
X01832Y018609D01*
X018248Y018624D01*
X018176Y018609D01*
X018115Y018568D01*
X018074Y018507D01*
X018059Y018435D01*
X018074Y018363D01*
X018115Y018302D01*
X018176Y018261D01*
X018248Y018246D01*
X01832Y018261D01*
X018381Y018302D01*
X018422Y018363D01*
X018422Y018364D01*
X018477Y01838D01*
X018534Y018341D01*
X018572Y018334D01*
Y018553D01*
Y018773D01*
D02*
G37*
G36*
X018672D02*
Y018603D01*
X018842D01*
X018834Y018641D01*
X018784Y018715D01*
X01871Y018765D01*
X018672Y018773D01*
D02*
G37*
G36*
X013238Y018781D02*
X013166Y018767D01*
X013105Y018726D01*
X013064Y018665D01*
X01305Y018593D01*
X013064Y01852D01*
X013105Y018459D01*
X013166Y018418D01*
X013238Y018404D01*
X01331Y018418D01*
X013372Y018459D01*
X013412Y01852D01*
X013427Y018593D01*
X013412Y018665D01*
X013372Y018726D01*
X01331Y018767D01*
X013238Y018781D01*
D02*
G37*
G36*
X019832Y018621D02*
X019662D01*
X01967Y018583D01*
X01972Y018509D01*
X019794Y018459D01*
X019832Y018452D01*
Y018621D01*
D02*
G37*
G36*
X033661Y019462D02*
X033515Y019443D01*
X033379Y019387D01*
X033262Y019297D01*
X033172Y01918D01*
X033116Y019044D01*
X033097Y018898D01*
X033116Y018751D01*
X033172Y018615D01*
X033262Y018498D01*
X033379Y018408D01*
X033515Y018352D01*
X033661Y018333D01*
X033808Y018352D01*
X033944Y018408D01*
X034061Y018498D01*
X034151Y018615D01*
X034207Y018751D01*
X034226Y018898D01*
X034207Y019044D01*
X034151Y01918D01*
X034061Y019297D01*
X033944Y019387D01*
X033808Y019443D01*
X033661Y019462D01*
D02*
G37*
G36*
X018842Y018503D02*
X018672D01*
Y018334D01*
X01871Y018341D01*
X018784Y018391D01*
X018834Y018465D01*
X018842Y018503D01*
D02*
G37*
G36*
X020101Y018621D02*
X019932D01*
Y018452D01*
X01997Y018459D01*
X020044Y018509D01*
X020094Y018583D01*
X020101Y018621D01*
D02*
G37*
G36*
X024799Y018848D02*
X024503D01*
Y018551D01*
X024544Y018557D01*
X024629Y018592D01*
X024702Y018648D01*
X024758Y018721D01*
X024794Y018806D01*
X024799Y018848D01*
D02*
G37*
G36*
X024403D02*
X024106D01*
X024112Y018806D01*
X024147Y018721D01*
X024203Y018648D01*
X024276Y018592D01*
X024361Y018557D01*
X024403Y018551D01*
Y018848D01*
D02*
G37*
G36*
X02126Y01883D02*
X021188Y018816D01*
X021126Y018775D01*
X021086Y018714D01*
X021071Y018642D01*
X021086Y01857D01*
X021126Y018508D01*
X021188Y018467D01*
X02126Y018453D01*
X021332Y018467D01*
X021393Y018508D01*
X021434Y01857D01*
X021448Y018642D01*
X021434Y018714D01*
X021393Y018775D01*
X021332Y018816D01*
X02126Y01883D01*
D02*
G37*
G36*
X016841Y018889D02*
X016768Y018875D01*
X016707Y018834D01*
X016666Y018773D01*
X016652Y018701D01*
X016666Y018629D01*
X016707Y018567D01*
X016768Y018527D01*
X016841Y018512D01*
X016913Y018527D01*
X016974Y018567D01*
X017015Y018629D01*
X017029Y018701D01*
X017015Y018773D01*
X016974Y018834D01*
X016913Y018875D01*
X016841Y018889D01*
D02*
G37*
%LPD*%
D67*
X024453Y018898D02*
D03*
D69*
X013642Y006935D02*
D03*
X014142D02*
D03*
D70*
X033169Y021693D02*
D03*
Y024409D02*
D03*
D72*
X020028Y007323D02*
D03*
D73*
X020512Y00626D02*
D03*
X018543D02*
D03*
X016457D02*
D03*
X01437D02*
D03*
X012283D02*
D03*
X022283D02*
D03*
X02437D02*
D03*
X026457D02*
D03*
X028543D02*
D03*
X03063D02*
D03*
X032717D02*
D03*
X010197Y00815D02*
D03*
Y010118D02*
D03*
Y012087D02*
D03*
Y014055D02*
D03*
Y016024D02*
D03*
Y017992D02*
D03*
Y019961D02*
D03*
Y021929D02*
D03*
Y023898D02*
D03*
X014134Y025866D02*
D03*
X012165D02*
D03*
X034803Y023976D02*
D03*
Y022008D02*
D03*
Y020039D02*
D03*
Y018071D02*
D03*
Y016102D02*
D03*
Y014134D02*
D03*
Y012165D02*
D03*
Y010197D02*
D03*
Y008228D02*
D03*
X010197Y025866D02*
D03*
X034803D02*
D03*
Y00626D02*
D03*
X010197D02*
D03*
X030935Y010118D02*
D03*
X018209Y024675D02*
D03*
X017283Y012421D02*
D03*
X02563Y024715D02*
D03*
X020876Y013346D02*
D03*
X01497Y017008D02*
D03*
X023691Y008573D02*
D03*
X025787Y017618D02*
D03*
X023406Y017008D02*
D03*
X012953Y009262D02*
D03*
X010551Y014291D02*
D03*
X010906Y012047D02*
D03*
X015906Y007165D02*
D03*
X010866Y015148D02*
D03*
X023839Y022087D02*
D03*
X019301Y020433D02*
D03*
X026457Y018179D02*
D03*
X019882Y018671D02*
D03*
X020571Y009567D02*
D03*
X023848Y010778D02*
D03*
X022313Y008553D02*
D03*
X029252Y019478D02*
D03*
X017825Y020719D02*
D03*
X025738Y022766D02*
D03*
X016083Y016191D02*
D03*
X018622Y018553D02*
D03*
X019055Y016752D02*
D03*
X018248Y022657D02*
D03*
X020148Y02185D02*
D03*
X017461Y019409D02*
D03*
X020906Y023022D02*
D03*
X017421Y02249D02*
D03*
X016752Y024783D02*
D03*
X020896Y024813D02*
D03*
Y011063D02*
D03*
X013445Y021594D02*
D03*
X01374Y02189D02*
D03*
X01315D02*
D03*
X011014Y022028D02*
D03*
X013159Y024764D02*
D03*
X010915Y02501D02*
D03*
X015423D02*
D03*
X015404Y022795D02*
D03*
X011437Y023435D02*
D03*
X01747Y010226D02*
D03*
X01748Y008642D02*
D03*
X022579Y011171D02*
D03*
X019183Y01374D02*
D03*
X016142Y010413D02*
D03*
X012549Y012087D02*
D03*
X013179Y012461D02*
D03*
X015974Y012333D02*
D03*
X017156Y013868D02*
D03*
X016053Y014537D02*
D03*
X017106Y015522D02*
D03*
X028248Y011348D02*
D03*
X028661D02*
D03*
Y011762D02*
D03*
X027835Y013012D02*
D03*
X028248D02*
D03*
X028661Y013002D02*
D03*
Y012569D02*
D03*
Y012175D02*
D03*
X029685Y022146D02*
D03*
X027461Y021319D02*
D03*
X02753Y022844D02*
D03*
X024665Y023012D02*
D03*
X022313Y022106D02*
D03*
X019951Y016309D02*
D03*
X022185Y016073D02*
D03*
Y017303D02*
D03*
X026526Y012283D02*
D03*
X028465Y016181D02*
D03*
X033799Y017264D02*
D03*
X023396Y013947D02*
D03*
X032795Y007756D02*
D03*
X034154Y010276D02*
D03*
X033868Y012549D02*
D03*
X03252Y013346D02*
D03*
X031289Y007047D02*
D03*
X025157Y0075D02*
D03*
X024941Y009281D02*
D03*
X025906Y016614D02*
D03*
X027913Y008267D02*
D03*
X027441D02*
D03*
Y008818D02*
D03*
X027913D02*
D03*
Y009369D02*
D03*
X027441Y009369D02*
D03*
X027441Y007716D02*
D03*
X027913D02*
D03*
X032116Y010748D02*
D03*
X030935D02*
D03*
X030344D02*
D03*
X031526D02*
D03*
X032707D02*
D03*
X032116Y010118D02*
D03*
X032707Y010118D02*
D03*
X030344D02*
D03*
X031526D02*
D03*
X031506Y0075D02*
D03*
M02*
